<?xml version="1.0" encoding="utf-8" standalone="no"?>
<!DOCTYPE svg PUBLIC "-//W3C//DTD SVG 1.1//EN"
  "http://www.w3.org/Graphics/SVG/1.1/DTD/svg11.dtd">
<!-- Created with matplotlib (https://matplotlib.org/) -->
<svg height="252pt" version="1.1" viewBox="0 0 432 252" width="432pt" xmlns="http://www.w3.org/2000/svg" xmlns:xlink="http://www.w3.org/1999/xlink">
 <metadata>
  <rdf:RDF xmlns:cc="http://creativecommons.org/ns#" xmlns:dc="http://purl.org/dc/elements/1.1/" xmlns:rdf="http://www.w3.org/1999/02/22-rdf-syntax-ns#">
   <cc:Work>
    <dc:type rdf:resource="http://purl.org/dc/dcmitype/StillImage"/>
    <dc:date>2021-01-06T10:14:33.067137</dc:date>
    <dc:format>image/svg+xml</dc:format>
    <dc:creator>
     <cc:Agent>
      <dc:title>Matplotlib v3.3.3, https://matplotlib.org/</dc:title>
     </cc:Agent>
    </dc:creator>
   </cc:Work>
  </rdf:RDF>
 </metadata>
 <defs>
  <style type="text/css">*{stroke-linecap:butt;stroke-linejoin:round;}</style>
 </defs>
 <g id="figure_1">
  <g id="patch_1">
   <path d="M 0 252 
L 432 252 
L 432 0 
L 0 0 
z
" style="fill:#ffffff;"/>
  </g>
  <g id="axes_1">
   <g id="patch_2">
    <path d="M 46.220312 210.84375 
L 421.2 210.84375 
L 421.2 25.918125 
L 46.220312 25.918125 
z
" style="fill:#ffffff;"/>
   </g>
   <g id="matplotlib.axis_1">
    <g id="xtick_1">
     <g id="line2d_1">
      <path clip-path="url(#p9caadaddc5)" d="M 63.264844 210.84375 
L 63.264844 25.918125 
" style="fill:none;stroke:#b0b0b0;stroke-linecap:square;stroke-width:0.8;"/>
     </g>
     <g id="line2d_2">
      <defs>
       <path d="M 0 0 
L 0 3.5 
" id="m43f28358bf" style="stroke:#000000;stroke-width:0.8;"/>
      </defs>
      <g>
       <use style="stroke:#000000;stroke-width:0.8;" x="63.264844" xlink:href="#m43f28358bf" y="210.84375"/>
      </g>
     </g>
     <g id="text_1">
      <!-- 0 -->
      <g transform="translate(60.083594 225.442187)scale(0.1 -0.1)">
       <defs>
        <path d="M 31.78125 66.40625 
Q 24.171875 66.40625 20.328125 58.90625 
Q 16.5 51.421875 16.5 36.375 
Q 16.5 21.390625 20.328125 13.890625 
Q 24.171875 6.390625 31.78125 6.390625 
Q 39.453125 6.390625 43.28125 13.890625 
Q 47.125 21.390625 47.125 36.375 
Q 47.125 51.421875 43.28125 58.90625 
Q 39.453125 66.40625 31.78125 66.40625 
z
M 31.78125 74.21875 
Q 44.046875 74.21875 50.515625 64.515625 
Q 56.984375 54.828125 56.984375 36.375 
Q 56.984375 17.96875 50.515625 8.265625 
Q 44.046875 -1.421875 31.78125 -1.421875 
Q 19.53125 -1.421875 13.0625 8.265625 
Q 6.59375 17.96875 6.59375 36.375 
Q 6.59375 54.828125 13.0625 64.515625 
Q 19.53125 74.21875 31.78125 74.21875 
z
" id="DejaVuSans-48"/>
       </defs>
       <use xlink:href="#DejaVuSans-48"/>
      </g>
     </g>
    </g>
    <g id="xtick_2">
     <g id="line2d_3">
      <path clip-path="url(#p9caadaddc5)" d="M 130.106143 210.84375 
L 130.106143 25.918125 
" style="fill:none;stroke:#b0b0b0;stroke-linecap:square;stroke-width:0.8;"/>
     </g>
     <g id="line2d_4">
      <g>
       <use style="stroke:#000000;stroke-width:0.8;" x="130.106143" xlink:href="#m43f28358bf" y="210.84375"/>
      </g>
     </g>
     <g id="text_2">
      <!-- 50 -->
      <g transform="translate(123.743643 225.442187)scale(0.1 -0.1)">
       <defs>
        <path d="M 10.796875 72.90625 
L 49.515625 72.90625 
L 49.515625 64.59375 
L 19.828125 64.59375 
L 19.828125 46.734375 
Q 21.96875 47.46875 24.109375 47.828125 
Q 26.265625 48.1875 28.421875 48.1875 
Q 40.625 48.1875 47.75 41.5 
Q 54.890625 34.8125 54.890625 23.390625 
Q 54.890625 11.625 47.5625 5.09375 
Q 40.234375 -1.421875 26.90625 -1.421875 
Q 22.3125 -1.421875 17.546875 -0.640625 
Q 12.796875 0.140625 7.71875 1.703125 
L 7.71875 11.625 
Q 12.109375 9.234375 16.796875 8.0625 
Q 21.484375 6.890625 26.703125 6.890625 
Q 35.15625 6.890625 40.078125 11.328125 
Q 45.015625 15.765625 45.015625 23.390625 
Q 45.015625 31 40.078125 35.4375 
Q 35.15625 39.890625 26.703125 39.890625 
Q 22.75 39.890625 18.8125 39.015625 
Q 14.890625 38.140625 10.796875 36.28125 
z
" id="DejaVuSans-53"/>
       </defs>
       <use xlink:href="#DejaVuSans-53"/>
       <use x="63.623047" xlink:href="#DejaVuSans-48"/>
      </g>
     </g>
    </g>
    <g id="xtick_3">
     <g id="line2d_5">
      <path clip-path="url(#p9caadaddc5)" d="M 196.947442 210.84375 
L 196.947442 25.918125 
" style="fill:none;stroke:#b0b0b0;stroke-linecap:square;stroke-width:0.8;"/>
     </g>
     <g id="line2d_6">
      <g>
       <use style="stroke:#000000;stroke-width:0.8;" x="196.947442" xlink:href="#m43f28358bf" y="210.84375"/>
      </g>
     </g>
     <g id="text_3">
      <!-- 100 -->
      <g transform="translate(187.403692 225.442187)scale(0.1 -0.1)">
       <defs>
        <path d="M 12.40625 8.296875 
L 28.515625 8.296875 
L 28.515625 63.921875 
L 10.984375 60.40625 
L 10.984375 69.390625 
L 28.421875 72.90625 
L 38.28125 72.90625 
L 38.28125 8.296875 
L 54.390625 8.296875 
L 54.390625 0 
L 12.40625 0 
z
" id="DejaVuSans-49"/>
       </defs>
       <use xlink:href="#DejaVuSans-49"/>
       <use x="63.623047" xlink:href="#DejaVuSans-48"/>
       <use x="127.246094" xlink:href="#DejaVuSans-48"/>
      </g>
     </g>
    </g>
    <g id="xtick_4">
     <g id="line2d_7">
      <path clip-path="url(#p9caadaddc5)" d="M 263.788741 210.84375 
L 263.788741 25.918125 
" style="fill:none;stroke:#b0b0b0;stroke-linecap:square;stroke-width:0.8;"/>
     </g>
     <g id="line2d_8">
      <g>
       <use style="stroke:#000000;stroke-width:0.8;" x="263.788741" xlink:href="#m43f28358bf" y="210.84375"/>
      </g>
     </g>
     <g id="text_4">
      <!-- 150 -->
      <g transform="translate(254.244991 225.442187)scale(0.1 -0.1)">
       <use xlink:href="#DejaVuSans-49"/>
       <use x="63.623047" xlink:href="#DejaVuSans-53"/>
       <use x="127.246094" xlink:href="#DejaVuSans-48"/>
      </g>
     </g>
    </g>
    <g id="xtick_5">
     <g id="line2d_9">
      <path clip-path="url(#p9caadaddc5)" d="M 330.63004 210.84375 
L 330.63004 25.918125 
" style="fill:none;stroke:#b0b0b0;stroke-linecap:square;stroke-width:0.8;"/>
     </g>
     <g id="line2d_10">
      <g>
       <use style="stroke:#000000;stroke-width:0.8;" x="330.63004" xlink:href="#m43f28358bf" y="210.84375"/>
      </g>
     </g>
     <g id="text_5">
      <!-- 200 -->
      <g transform="translate(321.08629 225.442187)scale(0.1 -0.1)">
       <defs>
        <path d="M 19.1875 8.296875 
L 53.609375 8.296875 
L 53.609375 0 
L 7.328125 0 
L 7.328125 8.296875 
Q 12.9375 14.109375 22.625 23.890625 
Q 32.328125 33.6875 34.8125 36.53125 
Q 39.546875 41.84375 41.421875 45.53125 
Q 43.3125 49.21875 43.3125 52.78125 
Q 43.3125 58.59375 39.234375 62.25 
Q 35.15625 65.921875 28.609375 65.921875 
Q 23.96875 65.921875 18.8125 64.3125 
Q 13.671875 62.703125 7.8125 59.421875 
L 7.8125 69.390625 
Q 13.765625 71.78125 18.9375 73 
Q 24.125 74.21875 28.421875 74.21875 
Q 39.75 74.21875 46.484375 68.546875 
Q 53.21875 62.890625 53.21875 53.421875 
Q 53.21875 48.921875 51.53125 44.890625 
Q 49.859375 40.875 45.40625 35.40625 
Q 44.1875 33.984375 37.640625 27.21875 
Q 31.109375 20.453125 19.1875 8.296875 
z
" id="DejaVuSans-50"/>
       </defs>
       <use xlink:href="#DejaVuSans-50"/>
       <use x="63.623047" xlink:href="#DejaVuSans-48"/>
       <use x="127.246094" xlink:href="#DejaVuSans-48"/>
      </g>
     </g>
    </g>
    <g id="xtick_6">
     <g id="line2d_11">
      <path clip-path="url(#p9caadaddc5)" d="M 397.471339 210.84375 
L 397.471339 25.918125 
" style="fill:none;stroke:#b0b0b0;stroke-linecap:square;stroke-width:0.8;"/>
     </g>
     <g id="line2d_12">
      <g>
       <use style="stroke:#000000;stroke-width:0.8;" x="397.471339" xlink:href="#m43f28358bf" y="210.84375"/>
      </g>
     </g>
     <g id="text_6">
      <!-- 250 -->
      <g transform="translate(387.927589 225.442187)scale(0.1 -0.1)">
       <use xlink:href="#DejaVuSans-50"/>
       <use x="63.623047" xlink:href="#DejaVuSans-53"/>
       <use x="127.246094" xlink:href="#DejaVuSans-48"/>
      </g>
     </g>
    </g>
    <g id="text_7">
     <!-- Time [sample] -->
     <g transform="translate(197.807031 239.120312)scale(0.1 -0.1)">
      <defs>
       <path d="M -0.296875 72.90625 
L 61.375 72.90625 
L 61.375 64.59375 
L 35.5 64.59375 
L 35.5 0 
L 25.59375 0 
L 25.59375 64.59375 
L -0.296875 64.59375 
z
" id="DejaVuSans-84"/>
       <path d="M 9.421875 54.6875 
L 18.40625 54.6875 
L 18.40625 0 
L 9.421875 0 
z
M 9.421875 75.984375 
L 18.40625 75.984375 
L 18.40625 64.59375 
L 9.421875 64.59375 
z
" id="DejaVuSans-105"/>
       <path d="M 52 44.1875 
Q 55.375 50.25 60.0625 53.125 
Q 64.75 56 71.09375 56 
Q 79.640625 56 84.28125 50.015625 
Q 88.921875 44.046875 88.921875 33.015625 
L 88.921875 0 
L 79.890625 0 
L 79.890625 32.71875 
Q 79.890625 40.578125 77.09375 44.375 
Q 74.3125 48.1875 68.609375 48.1875 
Q 61.625 48.1875 57.5625 43.546875 
Q 53.515625 38.921875 53.515625 30.90625 
L 53.515625 0 
L 44.484375 0 
L 44.484375 32.71875 
Q 44.484375 40.625 41.703125 44.40625 
Q 38.921875 48.1875 33.109375 48.1875 
Q 26.21875 48.1875 22.15625 43.53125 
Q 18.109375 38.875 18.109375 30.90625 
L 18.109375 0 
L 9.078125 0 
L 9.078125 54.6875 
L 18.109375 54.6875 
L 18.109375 46.1875 
Q 21.1875 51.21875 25.484375 53.609375 
Q 29.78125 56 35.6875 56 
Q 41.65625 56 45.828125 52.96875 
Q 50 49.953125 52 44.1875 
z
" id="DejaVuSans-109"/>
       <path d="M 56.203125 29.59375 
L 56.203125 25.203125 
L 14.890625 25.203125 
Q 15.484375 15.921875 20.484375 11.0625 
Q 25.484375 6.203125 34.421875 6.203125 
Q 39.59375 6.203125 44.453125 7.46875 
Q 49.3125 8.734375 54.109375 11.28125 
L 54.109375 2.78125 
Q 49.265625 0.734375 44.1875 -0.34375 
Q 39.109375 -1.421875 33.890625 -1.421875 
Q 20.796875 -1.421875 13.15625 6.1875 
Q 5.515625 13.8125 5.515625 26.8125 
Q 5.515625 40.234375 12.765625 48.109375 
Q 20.015625 56 32.328125 56 
Q 43.359375 56 49.78125 48.890625 
Q 56.203125 41.796875 56.203125 29.59375 
z
M 47.21875 32.234375 
Q 47.125 39.59375 43.09375 43.984375 
Q 39.0625 48.390625 32.421875 48.390625 
Q 24.90625 48.390625 20.390625 44.140625 
Q 15.875 39.890625 15.1875 32.171875 
z
" id="DejaVuSans-101"/>
       <path id="DejaVuSans-32"/>
       <path d="M 8.59375 75.984375 
L 29.296875 75.984375 
L 29.296875 69 
L 17.578125 69 
L 17.578125 -6.203125 
L 29.296875 -6.203125 
L 29.296875 -13.1875 
L 8.59375 -13.1875 
z
" id="DejaVuSans-91"/>
       <path d="M 44.28125 53.078125 
L 44.28125 44.578125 
Q 40.484375 46.53125 36.375 47.5 
Q 32.28125 48.484375 27.875 48.484375 
Q 21.1875 48.484375 17.84375 46.4375 
Q 14.5 44.390625 14.5 40.28125 
Q 14.5 37.15625 16.890625 35.375 
Q 19.28125 33.59375 26.515625 31.984375 
L 29.59375 31.296875 
Q 39.15625 29.25 43.1875 25.515625 
Q 47.21875 21.78125 47.21875 15.09375 
Q 47.21875 7.46875 41.1875 3.015625 
Q 35.15625 -1.421875 24.609375 -1.421875 
Q 20.21875 -1.421875 15.453125 -0.5625 
Q 10.6875 0.296875 5.421875 2 
L 5.421875 11.28125 
Q 10.40625 8.6875 15.234375 7.390625 
Q 20.0625 6.109375 24.8125 6.109375 
Q 31.15625 6.109375 34.5625 8.28125 
Q 37.984375 10.453125 37.984375 14.40625 
Q 37.984375 18.0625 35.515625 20.015625 
Q 33.0625 21.96875 24.703125 23.78125 
L 21.578125 24.515625 
Q 13.234375 26.265625 9.515625 29.90625 
Q 5.8125 33.546875 5.8125 39.890625 
Q 5.8125 47.609375 11.28125 51.796875 
Q 16.75 56 26.8125 56 
Q 31.78125 56 36.171875 55.265625 
Q 40.578125 54.546875 44.28125 53.078125 
z
" id="DejaVuSans-115"/>
       <path d="M 34.28125 27.484375 
Q 23.390625 27.484375 19.1875 25 
Q 14.984375 22.515625 14.984375 16.5 
Q 14.984375 11.71875 18.140625 8.90625 
Q 21.296875 6.109375 26.703125 6.109375 
Q 34.1875 6.109375 38.703125 11.40625 
Q 43.21875 16.703125 43.21875 25.484375 
L 43.21875 27.484375 
z
M 52.203125 31.203125 
L 52.203125 0 
L 43.21875 0 
L 43.21875 8.296875 
Q 40.140625 3.328125 35.546875 0.953125 
Q 30.953125 -1.421875 24.3125 -1.421875 
Q 15.921875 -1.421875 10.953125 3.296875 
Q 6 8.015625 6 15.921875 
Q 6 25.140625 12.171875 29.828125 
Q 18.359375 34.515625 30.609375 34.515625 
L 43.21875 34.515625 
L 43.21875 35.40625 
Q 43.21875 41.609375 39.140625 45 
Q 35.0625 48.390625 27.6875 48.390625 
Q 23 48.390625 18.546875 47.265625 
Q 14.109375 46.140625 10.015625 43.890625 
L 10.015625 52.203125 
Q 14.9375 54.109375 19.578125 55.046875 
Q 24.21875 56 28.609375 56 
Q 40.484375 56 46.34375 49.84375 
Q 52.203125 43.703125 52.203125 31.203125 
z
" id="DejaVuSans-97"/>
       <path d="M 18.109375 8.203125 
L 18.109375 -20.796875 
L 9.078125 -20.796875 
L 9.078125 54.6875 
L 18.109375 54.6875 
L 18.109375 46.390625 
Q 20.953125 51.265625 25.265625 53.625 
Q 29.59375 56 35.59375 56 
Q 45.5625 56 51.78125 48.09375 
Q 58.015625 40.1875 58.015625 27.296875 
Q 58.015625 14.40625 51.78125 6.484375 
Q 45.5625 -1.421875 35.59375 -1.421875 
Q 29.59375 -1.421875 25.265625 0.953125 
Q 20.953125 3.328125 18.109375 8.203125 
z
M 48.6875 27.296875 
Q 48.6875 37.203125 44.609375 42.84375 
Q 40.53125 48.484375 33.40625 48.484375 
Q 26.265625 48.484375 22.1875 42.84375 
Q 18.109375 37.203125 18.109375 27.296875 
Q 18.109375 17.390625 22.1875 11.75 
Q 26.265625 6.109375 33.40625 6.109375 
Q 40.53125 6.109375 44.609375 11.75 
Q 48.6875 17.390625 48.6875 27.296875 
z
" id="DejaVuSans-112"/>
       <path d="M 9.421875 75.984375 
L 18.40625 75.984375 
L 18.40625 0 
L 9.421875 0 
z
" id="DejaVuSans-108"/>
       <path d="M 30.421875 75.984375 
L 30.421875 -13.1875 
L 9.71875 -13.1875 
L 9.71875 -6.203125 
L 21.390625 -6.203125 
L 21.390625 69 
L 9.71875 69 
L 9.71875 75.984375 
z
" id="DejaVuSans-93"/>
      </defs>
      <use xlink:href="#DejaVuSans-84"/>
      <use x="57.958984" xlink:href="#DejaVuSans-105"/>
      <use x="85.742188" xlink:href="#DejaVuSans-109"/>
      <use x="183.154297" xlink:href="#DejaVuSans-101"/>
      <use x="244.677734" xlink:href="#DejaVuSans-32"/>
      <use x="276.464844" xlink:href="#DejaVuSans-91"/>
      <use x="315.478516" xlink:href="#DejaVuSans-115"/>
      <use x="367.578125" xlink:href="#DejaVuSans-97"/>
      <use x="428.857422" xlink:href="#DejaVuSans-109"/>
      <use x="526.269531" xlink:href="#DejaVuSans-112"/>
      <use x="589.746094" xlink:href="#DejaVuSans-108"/>
      <use x="617.529297" xlink:href="#DejaVuSans-101"/>
      <use x="679.052734" xlink:href="#DejaVuSans-93"/>
     </g>
    </g>
   </g>
   <g id="matplotlib.axis_2">
    <g id="ytick_1">
     <g id="line2d_13">
      <path clip-path="url(#p9caadaddc5)" d="M 46.220312 199.560579 
L 421.2 199.560579 
" style="fill:none;stroke:#b0b0b0;stroke-linecap:square;stroke-width:0.8;"/>
     </g>
     <g id="line2d_14">
      <defs>
       <path d="M 0 0 
L -3.5 0 
" id="mfbeab08a29" style="stroke:#000000;stroke-width:0.8;"/>
      </defs>
      <g>
       <use style="stroke:#000000;stroke-width:0.8;" x="46.220312" xlink:href="#mfbeab08a29" y="199.560579"/>
      </g>
     </g>
     <g id="text_8">
      <!-- −3 -->
      <g transform="translate(24.478125 203.359797)scale(0.1 -0.1)">
       <defs>
        <path d="M 10.59375 35.5 
L 73.1875 35.5 
L 73.1875 27.203125 
L 10.59375 27.203125 
z
" id="DejaVuSans-8722"/>
        <path d="M 40.578125 39.3125 
Q 47.65625 37.796875 51.625 33 
Q 55.609375 28.21875 55.609375 21.1875 
Q 55.609375 10.40625 48.1875 4.484375 
Q 40.765625 -1.421875 27.09375 -1.421875 
Q 22.515625 -1.421875 17.65625 -0.515625 
Q 12.796875 0.390625 7.625 2.203125 
L 7.625 11.71875 
Q 11.71875 9.328125 16.59375 8.109375 
Q 21.484375 6.890625 26.8125 6.890625 
Q 36.078125 6.890625 40.9375 10.546875 
Q 45.796875 14.203125 45.796875 21.1875 
Q 45.796875 27.640625 41.28125 31.265625 
Q 36.765625 34.90625 28.71875 34.90625 
L 20.21875 34.90625 
L 20.21875 43.015625 
L 29.109375 43.015625 
Q 36.375 43.015625 40.234375 45.921875 
Q 44.09375 48.828125 44.09375 54.296875 
Q 44.09375 59.90625 40.109375 62.90625 
Q 36.140625 65.921875 28.71875 65.921875 
Q 24.65625 65.921875 20.015625 65.03125 
Q 15.375 64.15625 9.8125 62.3125 
L 9.8125 71.09375 
Q 15.4375 72.65625 20.34375 73.4375 
Q 25.25 74.21875 29.59375 74.21875 
Q 40.828125 74.21875 47.359375 69.109375 
Q 53.90625 64.015625 53.90625 55.328125 
Q 53.90625 49.265625 50.4375 45.09375 
Q 46.96875 40.921875 40.578125 39.3125 
z
" id="DejaVuSans-51"/>
       </defs>
       <use xlink:href="#DejaVuSans-8722"/>
       <use x="83.789062" xlink:href="#DejaVuSans-51"/>
      </g>
     </g>
    </g>
    <g id="ytick_2">
     <g id="line2d_15">
      <path clip-path="url(#p9caadaddc5)" d="M 46.220312 172.500698 
L 421.2 172.500698 
" style="fill:none;stroke:#b0b0b0;stroke-linecap:square;stroke-width:0.8;"/>
     </g>
     <g id="line2d_16">
      <g>
       <use style="stroke:#000000;stroke-width:0.8;" x="46.220312" xlink:href="#mfbeab08a29" y="172.500698"/>
      </g>
     </g>
     <g id="text_9">
      <!-- −2 -->
      <g transform="translate(24.478125 176.299917)scale(0.1 -0.1)">
       <use xlink:href="#DejaVuSans-8722"/>
       <use x="83.789062" xlink:href="#DejaVuSans-50"/>
      </g>
     </g>
    </g>
    <g id="ytick_3">
     <g id="line2d_17">
      <path clip-path="url(#p9caadaddc5)" d="M 46.220312 145.440818 
L 421.2 145.440818 
" style="fill:none;stroke:#b0b0b0;stroke-linecap:square;stroke-width:0.8;"/>
     </g>
     <g id="line2d_18">
      <g>
       <use style="stroke:#000000;stroke-width:0.8;" x="46.220312" xlink:href="#mfbeab08a29" y="145.440818"/>
      </g>
     </g>
     <g id="text_10">
      <!-- −1 -->
      <g transform="translate(24.478125 149.240037)scale(0.1 -0.1)">
       <use xlink:href="#DejaVuSans-8722"/>
       <use x="83.789062" xlink:href="#DejaVuSans-49"/>
      </g>
     </g>
    </g>
    <g id="ytick_4">
     <g id="line2d_19">
      <path clip-path="url(#p9caadaddc5)" d="M 46.220312 118.380937 
L 421.2 118.380937 
" style="fill:none;stroke:#b0b0b0;stroke-linecap:square;stroke-width:0.8;"/>
     </g>
     <g id="line2d_20">
      <g>
       <use style="stroke:#000000;stroke-width:0.8;" x="46.220312" xlink:href="#mfbeab08a29" y="118.380937"/>
      </g>
     </g>
     <g id="text_11">
      <!-- 0 -->
      <g transform="translate(32.857812 122.180156)scale(0.1 -0.1)">
       <use xlink:href="#DejaVuSans-48"/>
      </g>
     </g>
    </g>
    <g id="ytick_5">
     <g id="line2d_21">
      <path clip-path="url(#p9caadaddc5)" d="M 46.220312 91.321057 
L 421.2 91.321057 
" style="fill:none;stroke:#b0b0b0;stroke-linecap:square;stroke-width:0.8;"/>
     </g>
     <g id="line2d_22">
      <g>
       <use style="stroke:#000000;stroke-width:0.8;" x="46.220312" xlink:href="#mfbeab08a29" y="91.321057"/>
      </g>
     </g>
     <g id="text_12">
      <!-- 1 -->
      <g transform="translate(32.857812 95.120276)scale(0.1 -0.1)">
       <use xlink:href="#DejaVuSans-49"/>
      </g>
     </g>
    </g>
    <g id="ytick_6">
     <g id="line2d_23">
      <path clip-path="url(#p9caadaddc5)" d="M 46.220312 64.261177 
L 421.2 64.261177 
" style="fill:none;stroke:#b0b0b0;stroke-linecap:square;stroke-width:0.8;"/>
     </g>
     <g id="line2d_24">
      <g>
       <use style="stroke:#000000;stroke-width:0.8;" x="46.220312" xlink:href="#mfbeab08a29" y="64.261177"/>
      </g>
     </g>
     <g id="text_13">
      <!-- 2 -->
      <g transform="translate(32.857812 68.060395)scale(0.1 -0.1)">
       <use xlink:href="#DejaVuSans-50"/>
      </g>
     </g>
    </g>
    <g id="ytick_7">
     <g id="line2d_25">
      <path clip-path="url(#p9caadaddc5)" d="M 46.220312 37.201296 
L 421.2 37.201296 
" style="fill:none;stroke:#b0b0b0;stroke-linecap:square;stroke-width:0.8;"/>
     </g>
     <g id="line2d_26">
      <g>
       <use style="stroke:#000000;stroke-width:0.8;" x="46.220312" xlink:href="#mfbeab08a29" y="37.201296"/>
      </g>
     </g>
     <g id="text_14">
      <!-- 3 -->
      <g transform="translate(32.857812 41.000515)scale(0.1 -0.1)">
       <use xlink:href="#DejaVuSans-51"/>
      </g>
     </g>
    </g>
    <g id="text_15">
     <!-- Amplitude -->
     <g transform="translate(18.398437 144.003594)rotate(-90)scale(0.1 -0.1)">
      <defs>
       <path d="M 34.1875 63.1875 
L 20.796875 26.90625 
L 47.609375 26.90625 
z
M 28.609375 72.90625 
L 39.796875 72.90625 
L 67.578125 0 
L 57.328125 0 
L 50.6875 18.703125 
L 17.828125 18.703125 
L 11.1875 0 
L 0.78125 0 
z
" id="DejaVuSans-65"/>
       <path d="M 18.3125 70.21875 
L 18.3125 54.6875 
L 36.8125 54.6875 
L 36.8125 47.703125 
L 18.3125 47.703125 
L 18.3125 18.015625 
Q 18.3125 11.328125 20.140625 9.421875 
Q 21.96875 7.515625 27.59375 7.515625 
L 36.8125 7.515625 
L 36.8125 0 
L 27.59375 0 
Q 17.1875 0 13.234375 3.875 
Q 9.28125 7.765625 9.28125 18.015625 
L 9.28125 47.703125 
L 2.6875 47.703125 
L 2.6875 54.6875 
L 9.28125 54.6875 
L 9.28125 70.21875 
z
" id="DejaVuSans-116"/>
       <path d="M 8.5 21.578125 
L 8.5 54.6875 
L 17.484375 54.6875 
L 17.484375 21.921875 
Q 17.484375 14.15625 20.5 10.265625 
Q 23.53125 6.390625 29.59375 6.390625 
Q 36.859375 6.390625 41.078125 11.03125 
Q 45.3125 15.671875 45.3125 23.6875 
L 45.3125 54.6875 
L 54.296875 54.6875 
L 54.296875 0 
L 45.3125 0 
L 45.3125 8.40625 
Q 42.046875 3.421875 37.71875 1 
Q 33.40625 -1.421875 27.6875 -1.421875 
Q 18.265625 -1.421875 13.375 4.4375 
Q 8.5 10.296875 8.5 21.578125 
z
M 31.109375 56 
z
" id="DejaVuSans-117"/>
       <path d="M 45.40625 46.390625 
L 45.40625 75.984375 
L 54.390625 75.984375 
L 54.390625 0 
L 45.40625 0 
L 45.40625 8.203125 
Q 42.578125 3.328125 38.25 0.953125 
Q 33.9375 -1.421875 27.875 -1.421875 
Q 17.96875 -1.421875 11.734375 6.484375 
Q 5.515625 14.40625 5.515625 27.296875 
Q 5.515625 40.1875 11.734375 48.09375 
Q 17.96875 56 27.875 56 
Q 33.9375 56 38.25 53.625 
Q 42.578125 51.265625 45.40625 46.390625 
z
M 14.796875 27.296875 
Q 14.796875 17.390625 18.875 11.75 
Q 22.953125 6.109375 30.078125 6.109375 
Q 37.203125 6.109375 41.296875 11.75 
Q 45.40625 17.390625 45.40625 27.296875 
Q 45.40625 37.203125 41.296875 42.84375 
Q 37.203125 48.484375 30.078125 48.484375 
Q 22.953125 48.484375 18.875 42.84375 
Q 14.796875 37.203125 14.796875 27.296875 
z
" id="DejaVuSans-100"/>
      </defs>
      <use xlink:href="#DejaVuSans-65"/>
      <use x="68.408203" xlink:href="#DejaVuSans-109"/>
      <use x="165.820312" xlink:href="#DejaVuSans-112"/>
      <use x="229.296875" xlink:href="#DejaVuSans-108"/>
      <use x="257.080078" xlink:href="#DejaVuSans-105"/>
      <use x="284.863281" xlink:href="#DejaVuSans-116"/>
      <use x="324.072266" xlink:href="#DejaVuSans-117"/>
      <use x="387.451172" xlink:href="#DejaVuSans-100"/>
      <use x="450.927734" xlink:href="#DejaVuSans-101"/>
     </g>
    </g>
   </g>
   <g id="line2d_27">
    <path clip-path="url(#p9caadaddc5)" d="M 63.264844 114.978693 
L 64.60167 121.955679 
L 65.938496 101.051177 
L 67.275322 115.542353 
L 68.612148 132.876087 
L 71.2858 83.094852 
L 72.622626 92.75304 
L 73.959452 137.423929 
L 75.296278 152.623091 
L 77.96993 117.262661 
L 79.306756 181.295992 
L 80.643581 124.301414 
L 81.980407 152.095139 
L 83.317233 138.196005 
L 84.654059 133.10852 
L 85.990885 126.939982 
L 87.327711 107.242264 
L 88.664537 90.17065 
L 90.001363 121.85907 
L 91.338189 81.404599 
L 92.675015 136.381026 
L 94.011841 108.869117 
L 95.348667 93.933142 
L 98.022319 138.499938 
L 99.359145 143.322716 
L 100.695971 130.766944 
L 102.032797 112.422484 
L 103.369623 145.701085 
L 104.706449 124.041204 
L 106.043275 122.689547 
L 107.380101 103.745721 
L 108.716927 112.572287 
L 110.053753 108.764595 
L 111.390579 136.073461 
L 112.727405 121.888267 
L 114.064231 97.166655 
L 115.401057 77.968869 
L 116.737883 152.4511 
L 118.074709 77.414341 
L 119.411535 81.96171 
L 120.748361 97.238744 
L 122.085187 111.2248 
L 123.422013 126.875651 
L 124.758839 78.927072 
L 126.095665 65.336582 
L 127.432491 69.628913 
L 128.769317 82.794387 
L 130.106143 108.710266 
L 131.442969 151.077895 
L 132.779795 118.501466 
L 134.116621 100.616804 
L 135.453447 153.243845 
L 136.790273 107.688982 
L 138.127099 106.748877 
L 139.463925 99.546105 
L 140.800751 150.423028 
L 142.137577 136.28653 
L 143.474403 130.190823 
L 144.811229 150.035637 
L 146.148055 71.313851 
L 147.484881 131.800222 
L 148.821706 109.479059 
L 150.158532 125.37788 
L 151.495358 75.532351 
L 152.832184 82.652127 
L 154.16901 101.242491 
L 155.505836 178.007651 
L 156.842662 116.97304 
L 158.179488 99.880471 
L 159.516314 91.213857 
L 160.85314 135.101428 
L 162.189966 69.077528 
L 163.526792 154.111642 
L 164.863618 136.281807 
L 166.200444 93.078597 
L 167.53727 117.053526 
L 168.874096 64.196434 
L 170.210922 113.279631 
L 171.547748 135.515094 
L 172.884574 128.597761 
L 174.2214 147.907221 
L 175.558226 152.95481 
L 176.895052 101.322078 
L 178.231878 102.65466 
L 179.568704 83.350331 
L 180.90553 138.80048 
L 182.242356 72.673892 
L 183.579182 126.157614 
L 184.916008 75.777638 
L 186.252834 130.092071 
L 187.58966 138.283027 
L 188.926486 111.621775 
L 190.263312 90.46994 
L 191.600138 114.024038 
L 194.27379 154.674183 
L 195.610616 156.305907 
L 196.947442 104.7784 
L 198.284268 91.599421 
L 199.621094 122.82673 
L 200.95792 147.453122 
L 202.294746 94.756521 
L 203.631572 153.028244 
L 204.968398 137.676475 
L 206.305224 101.576269 
L 207.64205 179.269489 
L 208.978876 107.925822 
L 210.315702 134.120069 
L 211.652528 115.423842 
L 212.989354 120.429412 
L 214.32618 112.911746 
L 215.663006 99.596728 
L 216.999831 138.902332 
L 218.336657 79.929334 
L 219.673483 98.732926 
L 221.010309 95.549633 
L 222.347135 86.859858 
L 223.683961 97.068894 
L 225.020787 95.540269 
L 226.357613 116.335383 
L 227.694439 156.989267 
L 229.031265 122.035242 
L 231.704917 156.88016 
L 233.041743 111.387236 
L 234.378569 133.765818 
L 235.715395 146.247322 
L 237.052221 146.604422 
L 238.389047 111.117603 
L 239.725873 108.675317 
L 241.062699 82.595397 
L 242.399525 118.757467 
L 243.736351 90.188878 
L 245.073177 80.435819 
L 246.410003 87.257593 
L 247.746829 182.385778 
L 249.083655 85.132903 
L 250.420481 109.190861 
L 251.757307 106.913735 
L 253.094133 108.335568 
L 254.430959 108.023575 
L 255.767785 109.737627 
L 257.104611 128.093089 
L 258.441437 169.838961 
L 259.778263 121.328157 
L 261.115089 140.129825 
L 262.451915 89.151845 
L 263.788741 126.194925 
L 265.125567 116.122104 
L 266.462393 141.371173 
L 267.799219 132.19832 
L 269.136045 118.693021 
L 270.472871 158.575012 
L 271.809697 110.244434 
L 273.146523 121.25124 
L 274.483349 150.466374 
L 275.820175 183.276832 
L 277.157001 104.497808 
L 278.493827 126.433526 
L 279.830653 132.722902 
L 281.167479 124.771254 
L 282.504305 69.227316 
L 283.841131 119.728546 
L 285.177956 116.037031 
L 286.514782 158.620951 
L 287.851608 73.804139 
L 289.188434 93.553822 
L 290.52526 89.509808 
L 291.862086 117.090919 
L 293.198912 93.576369 
L 294.535738 108.343161 
L 295.872564 101.788114 
L 297.20939 122.499261 
L 298.546216 158.264169 
L 299.883042 90.540262 
L 301.219868 170.740714 
L 302.556694 124.873595 
L 303.89352 123.915292 
L 305.230346 146.600608 
L 306.567172 101.789899 
L 307.903998 123.801835 
L 309.240824 130.202542 
L 310.57765 104.314082 
L 311.914476 131.277109 
L 313.251302 80.795306 
L 314.588128 108.870605 
L 315.924954 131.216331 
L 317.26178 170.992515 
L 318.598606 153.768583 
L 319.935432 88.971426 
L 321.272258 119.750277 
L 322.609084 126.042268 
L 323.94591 73.914745 
L 325.282736 153.089273 
L 326.619562 134.228768 
L 327.956388 131.169104 
L 329.293214 102.514721 
L 330.63004 136.336121 
L 331.966866 134.979951 
L 333.303692 161.816088 
L 334.640518 98.64483 
L 335.977344 96.566903 
L 337.31417 131.271635 
L 338.650996 113.960978 
L 339.987822 153.359787 
L 341.324648 131.148145 
L 342.661474 81.09375 
L 343.9983 114.70808 
L 345.335126 55.862778 
L 346.671952 139.682279 
L 348.008778 102.678511 
L 349.345604 123.671302 
L 350.68243 103.069974 
L 353.356081 133.566891 
L 354.692907 141.858543 
L 356.029733 35.41435 
L 357.366559 120.473886 
L 358.703385 172.951535 
L 361.377037 100.033264 
L 362.713863 131.911106 
L 364.050689 81.567426 
L 365.387515 91.25616 
L 366.724341 122.503203 
L 368.061167 131.159044 
L 369.397993 145.570733 
L 370.734819 137.321948 
L 372.071645 158.244013 
L 373.408471 85.790118 
L 374.745297 75.336764 
L 376.082123 152.371883 
L 377.418949 150.357137 
L 378.755775 166.236657 
L 380.092601 144.462718 
L 381.429427 202.43804 
L 382.766253 149.290869 
L 384.103079 83.286562 
L 385.439905 127.734795 
L 386.776731 95.25599 
L 388.113557 131.612382 
L 389.450383 70.737491 
L 390.787209 112.990123 
L 392.124035 128.717874 
L 393.460861 49.312649 
L 394.797687 127.161107 
L 396.134513 151.427095 
L 397.471339 112.917277 
L 398.808165 119.431809 
L 400.144991 89.526323 
L 401.481817 143.320241 
L 402.818643 96.605394 
L 404.155469 95.305666 
L 404.155469 95.305666 
" style="fill:none;stroke:#440154;stroke-linecap:square;"/>
   </g>
   <g id="line2d_28">
    <path clip-path="url(#p9caadaddc5)" d="M 63.264844 114.978693 
L 64.60167 114.806196 
L 65.938496 101.051177 
L 67.275322 115.542353 
L 68.612148 103.885788 
L 69.948974 108.596219 
L 71.2858 83.094852 
L 72.622626 92.75304 
L 73.959452 99.337946 
L 75.296278 84.138784 
L 76.633104 101.515205 
L 77.96993 117.262661 
L 79.306756 55.465883 
L 80.643581 112.460461 
L 81.980407 84.666736 
L 83.317233 98.56587 
L 84.654059 103.653355 
L 85.990885 109.821893 
L 87.327711 107.242264 
L 88.664537 90.17065 
L 90.001363 114.902805 
L 91.338189 81.404599 
L 92.675015 100.380849 
L 94.011841 108.869117 
L 95.348667 93.933142 
L 96.685493 115.836976 
L 98.022319 98.261937 
L 99.359145 93.439159 
L 100.695971 105.994931 
L 102.032797 112.422484 
L 103.369623 91.06079 
L 104.706449 112.720671 
L 106.043275 114.072328 
L 107.380101 103.745721 
L 108.716927 112.572287 
L 110.053753 108.764595 
L 111.390579 100.688414 
L 112.727405 114.873608 
L 114.064231 97.166655 
L 115.401057 77.968869 
L 116.737883 84.310775 
L 118.074709 77.414341 
L 119.411535 81.96171 
L 120.748361 97.238744 
L 122.085187 111.2248 
L 123.422013 109.886224 
L 124.758839 78.927072 
L 126.095665 65.336582 
L 127.432491 69.628913 
L 128.769317 82.794387 
L 130.106143 108.710266 
L 131.442969 85.68398 
L 132.779795 118.260409 
L 135.453447 83.51803 
L 136.790273 107.688982 
L 138.127099 106.748877 
L 139.463925 99.546105 
L 140.800751 86.338847 
L 142.137577 100.475345 
L 143.474403 106.571052 
L 144.811229 86.726238 
L 146.148055 71.313851 
L 147.484881 104.961653 
L 148.821706 109.479059 
L 150.158532 111.383995 
L 151.495358 75.532351 
L 152.832184 82.652127 
L 154.16901 101.242491 
L 155.505836 58.754224 
L 156.842662 116.97304 
L 158.179488 99.880471 
L 159.516314 91.213857 
L 160.85314 101.660447 
L 162.189966 69.077528 
L 163.526792 82.650233 
L 164.863618 100.480068 
L 166.200444 93.078597 
L 167.53727 117.053526 
L 168.874096 64.196434 
L 170.210922 113.279631 
L 171.547748 101.246781 
L 172.884574 108.164114 
L 174.2214 88.854654 
L 175.558226 83.807065 
L 176.895052 101.322078 
L 178.231878 102.65466 
L 179.568704 83.350331 
L 180.90553 97.961395 
L 182.242356 72.673892 
L 183.579182 110.604261 
L 184.916008 75.777638 
L 186.252834 106.669804 
L 187.58966 98.478848 
L 188.926486 111.621775 
L 190.263312 90.46994 
L 191.600138 114.024038 
L 192.936964 102.536598 
L 194.27379 82.087692 
L 195.610616 80.455968 
L 196.947442 104.7784 
L 198.284268 91.599421 
L 199.621094 113.935145 
L 200.95792 89.308753 
L 202.294746 94.756521 
L 203.631572 83.733631 
L 204.968398 99.0854 
L 206.305224 101.576269 
L 207.64205 57.492386 
L 208.978876 107.925822 
L 210.315702 102.641806 
L 211.652528 115.423842 
L 212.989354 116.332463 
L 214.32618 112.911746 
L 215.663006 99.596728 
L 216.999831 97.859543 
L 218.336657 79.929334 
L 219.673483 98.732926 
L 221.010309 95.549633 
L 222.347135 86.859858 
L 223.683961 97.068894 
L 225.020787 95.540269 
L 226.357613 116.335383 
L 227.694439 79.772608 
L 229.031265 114.726633 
L 231.704917 79.881715 
L 233.041743 111.387236 
L 234.378569 102.996057 
L 235.715395 90.514553 
L 237.052221 90.157453 
L 238.389047 111.117603 
L 239.725873 108.675317 
L 241.062699 82.595397 
L 242.399525 118.004408 
L 243.736351 90.188878 
L 245.073177 80.435819 
L 246.410003 87.257593 
L 247.746829 54.376097 
L 249.083655 85.132903 
L 250.420481 109.190861 
L 251.757307 106.913735 
L 253.094133 108.335568 
L 254.430959 108.023575 
L 255.767785 109.737627 
L 257.104611 108.668786 
L 258.441437 66.922914 
L 259.778263 115.433718 
L 261.115089 96.63205 
L 262.451915 89.151845 
L 263.788741 110.56695 
L 265.125567 116.122104 
L 266.462393 95.390702 
L 267.799219 104.563555 
L 269.136045 118.068854 
L 270.472871 78.186863 
L 271.809697 110.244434 
L 273.146523 115.510635 
L 274.483349 86.295501 
L 275.820175 53.485043 
L 277.157001 104.497808 
L 278.493827 110.328349 
L 279.830653 104.038973 
L 281.167479 111.990621 
L 282.504305 69.227316 
L 283.841131 117.033329 
L 285.177956 116.037031 
L 286.514782 78.140924 
L 287.851608 73.804139 
L 289.188434 93.553822 
L 290.52526 89.509808 
L 291.862086 117.090919 
L 293.198912 93.576369 
L 294.535738 108.343161 
L 295.872564 101.788114 
L 297.20939 114.262614 
L 298.546216 78.497706 
L 299.883042 90.540262 
L 301.219868 66.021161 
L 302.556694 111.88828 
L 303.89352 112.846583 
L 305.230346 90.161267 
L 307.903998 112.96004 
L 309.240824 106.559333 
L 310.57765 104.314082 
L 311.914476 105.484766 
L 313.251302 80.795306 
L 314.588128 108.870605 
L 315.924954 105.545544 
L 317.26178 65.76936 
L 318.598606 82.993292 
L 319.935432 88.971426 
L 321.272258 117.011598 
L 322.609084 110.719607 
L 323.94591 73.914745 
L 325.282736 83.672602 
L 326.619562 102.533107 
L 327.956388 105.592771 
L 329.293214 102.514721 
L 330.63004 100.425754 
L 331.966866 101.781924 
L 333.303692 74.945787 
L 334.640518 98.64483 
L 335.977344 96.566903 
L 338.650996 113.960978 
L 339.987822 83.402088 
L 341.324648 105.61373 
L 342.661474 81.09375 
L 343.9983 114.70808 
L 345.335126 55.862778 
L 346.671952 97.079596 
L 348.008778 102.678511 
L 349.345604 113.090573 
L 350.68243 103.069974 
L 352.019256 118.185799 
L 353.356081 103.194984 
L 354.692907 94.903332 
L 356.029733 35.41435 
L 357.366559 116.287989 
L 358.703385 63.81034 
L 360.040211 100.829883 
L 361.377037 100.033264 
L 362.713863 104.850769 
L 364.050689 81.567426 
L 365.387515 91.25616 
L 366.724341 114.258672 
L 368.061167 105.602831 
L 369.397993 91.191142 
L 370.734819 99.439927 
L 372.071645 78.517862 
L 373.408471 85.790118 
L 374.745297 75.336764 
L 376.082123 84.389992 
L 377.418949 86.404738 
L 378.755775 70.525218 
L 380.092601 92.299157 
L 381.429427 34.323835 
L 382.766253 87.471006 
L 384.103079 83.286562 
L 385.439905 109.02708 
L 386.776731 95.25599 
L 388.113557 105.149493 
L 389.450383 70.737491 
L 390.787209 112.990123 
L 392.124035 108.044001 
L 393.460861 49.312649 
L 394.797687 109.600768 
L 396.134513 85.33478 
L 397.471339 112.917277 
L 398.808165 117.330066 
L 400.144991 89.526323 
L 401.481817 93.441634 
L 402.818643 96.605394 
L 404.155469 95.305666 
L 404.155469 95.305666 
" style="fill:none;stroke:#21918c;stroke-linecap:square;"/>
   </g>
   <g id="patch_3">
    <path d="M 46.220312 210.84375 
L 46.220312 25.918125 
" style="fill:none;stroke:#000000;stroke-linecap:square;stroke-linejoin:miter;stroke-width:0.8;"/>
   </g>
   <g id="patch_4">
    <path d="M 421.2 210.84375 
L 421.2 25.918125 
" style="fill:none;stroke:#000000;stroke-linecap:square;stroke-linejoin:miter;stroke-width:0.8;"/>
   </g>
   <g id="patch_5">
    <path d="M 46.220312 210.84375 
L 421.2 210.84375 
" style="fill:none;stroke:#000000;stroke-linecap:square;stroke-linejoin:miter;stroke-width:0.8;"/>
   </g>
   <g id="patch_6">
    <path d="M 46.220312 25.918125 
L 421.2 25.918125 
" style="fill:none;stroke:#000000;stroke-linecap:square;stroke-linejoin:miter;stroke-width:0.8;"/>
   </g>
   <g id="text_16">
    <!-- Input Signal -->
    <g transform="translate(197.835781 19.918125)scale(0.12 -0.12)">
     <defs>
      <path d="M 9.8125 72.90625 
L 19.671875 72.90625 
L 19.671875 0 
L 9.8125 0 
z
" id="DejaVuSans-73"/>
      <path d="M 54.890625 33.015625 
L 54.890625 0 
L 45.90625 0 
L 45.90625 32.71875 
Q 45.90625 40.484375 42.875 44.328125 
Q 39.84375 48.1875 33.796875 48.1875 
Q 26.515625 48.1875 22.3125 43.546875 
Q 18.109375 38.921875 18.109375 30.90625 
L 18.109375 0 
L 9.078125 0 
L 9.078125 54.6875 
L 18.109375 54.6875 
L 18.109375 46.1875 
Q 21.34375 51.125 25.703125 53.5625 
Q 30.078125 56 35.796875 56 
Q 45.21875 56 50.046875 50.171875 
Q 54.890625 44.34375 54.890625 33.015625 
z
" id="DejaVuSans-110"/>
      <path d="M 53.515625 70.515625 
L 53.515625 60.890625 
Q 47.90625 63.578125 42.921875 64.890625 
Q 37.9375 66.21875 33.296875 66.21875 
Q 25.25 66.21875 20.875 63.09375 
Q 16.5 59.96875 16.5 54.203125 
Q 16.5 49.359375 19.40625 46.890625 
Q 22.3125 44.4375 30.421875 42.921875 
L 36.375 41.703125 
Q 47.40625 39.59375 52.65625 34.296875 
Q 57.90625 29 57.90625 20.125 
Q 57.90625 9.515625 50.796875 4.046875 
Q 43.703125 -1.421875 29.984375 -1.421875 
Q 24.8125 -1.421875 18.96875 -0.25 
Q 13.140625 0.921875 6.890625 3.21875 
L 6.890625 13.375 
Q 12.890625 10.015625 18.65625 8.296875 
Q 24.421875 6.59375 29.984375 6.59375 
Q 38.421875 6.59375 43.015625 9.90625 
Q 47.609375 13.234375 47.609375 19.390625 
Q 47.609375 24.75 44.3125 27.78125 
Q 41.015625 30.8125 33.5 32.328125 
L 27.484375 33.5 
Q 16.453125 35.6875 11.515625 40.375 
Q 6.59375 45.0625 6.59375 53.421875 
Q 6.59375 63.09375 13.40625 68.65625 
Q 20.21875 74.21875 32.171875 74.21875 
Q 37.3125 74.21875 42.625 73.28125 
Q 47.953125 72.359375 53.515625 70.515625 
z
" id="DejaVuSans-83"/>
      <path d="M 45.40625 27.984375 
Q 45.40625 37.75 41.375 43.109375 
Q 37.359375 48.484375 30.078125 48.484375 
Q 22.859375 48.484375 18.828125 43.109375 
Q 14.796875 37.75 14.796875 27.984375 
Q 14.796875 18.265625 18.828125 12.890625 
Q 22.859375 7.515625 30.078125 7.515625 
Q 37.359375 7.515625 41.375 12.890625 
Q 45.40625 18.265625 45.40625 27.984375 
z
M 54.390625 6.78125 
Q 54.390625 -7.171875 48.1875 -13.984375 
Q 42 -20.796875 29.203125 -20.796875 
Q 24.46875 -20.796875 20.265625 -20.09375 
Q 16.0625 -19.390625 12.109375 -17.921875 
L 12.109375 -9.1875 
Q 16.0625 -11.328125 19.921875 -12.34375 
Q 23.78125 -13.375 27.78125 -13.375 
Q 36.625 -13.375 41.015625 -8.765625 
Q 45.40625 -4.15625 45.40625 5.171875 
L 45.40625 9.625 
Q 42.625 4.78125 38.28125 2.390625 
Q 33.9375 0 27.875 0 
Q 17.828125 0 11.671875 7.65625 
Q 5.515625 15.328125 5.515625 27.984375 
Q 5.515625 40.671875 11.671875 48.328125 
Q 17.828125 56 27.875 56 
Q 33.9375 56 38.28125 53.609375 
Q 42.625 51.21875 45.40625 46.390625 
L 45.40625 54.6875 
L 54.390625 54.6875 
z
" id="DejaVuSans-103"/>
     </defs>
     <use xlink:href="#DejaVuSans-73"/>
     <use x="29.492188" xlink:href="#DejaVuSans-110"/>
     <use x="92.871094" xlink:href="#DejaVuSans-112"/>
     <use x="156.347656" xlink:href="#DejaVuSans-117"/>
     <use x="219.726562" xlink:href="#DejaVuSans-116"/>
     <use x="258.935547" xlink:href="#DejaVuSans-32"/>
     <use x="290.722656" xlink:href="#DejaVuSans-83"/>
     <use x="354.199219" xlink:href="#DejaVuSans-105"/>
     <use x="381.982422" xlink:href="#DejaVuSans-103"/>
     <use x="445.458984" xlink:href="#DejaVuSans-110"/>
     <use x="508.837891" xlink:href="#DejaVuSans-97"/>
     <use x="570.117188" xlink:href="#DejaVuSans-108"/>
    </g>
   </g>
   <g id="legend_1">
    <g id="patch_7">
     <path d="M 53.220312 63.274375 
L 111.114062 63.274375 
Q 113.114062 63.274375 113.114062 61.274375 
L 113.114062 32.918125 
Q 113.114062 30.918125 111.114062 30.918125 
L 53.220312 30.918125 
Q 51.220312 30.918125 51.220312 32.918125 
L 51.220312 61.274375 
Q 51.220312 63.274375 53.220312 63.274375 
z
" style="fill:#ffffff;opacity:0.8;stroke:#cccccc;stroke-linejoin:miter;"/>
    </g>
    <g id="line2d_29">
     <path d="M 55.220312 39.016562 
L 75.220313 39.016562 
" style="fill:none;stroke:#440154;stroke-linecap:square;"/>
    </g>
    <g id="line2d_30"/>
    <g id="text_17">
     <!-- Input -->
     <g transform="translate(83.220313 42.516562)scale(0.1 -0.1)">
      <use xlink:href="#DejaVuSans-73"/>
      <use x="29.492188" xlink:href="#DejaVuSans-110"/>
      <use x="92.871094" xlink:href="#DejaVuSans-112"/>
      <use x="156.347656" xlink:href="#DejaVuSans-117"/>
      <use x="219.726562" xlink:href="#DejaVuSans-116"/>
     </g>
    </g>
    <g id="line2d_31">
     <path d="M 55.220312 53.694687 
L 75.220313 53.694687 
" style="fill:none;stroke:#21918c;stroke-linecap:square;"/>
    </g>
    <g id="line2d_32"/>
    <g id="text_18">
     <!-- Abs. -->
     <g transform="translate(83.220313 57.194687)scale(0.1 -0.1)">
      <defs>
       <path d="M 48.6875 27.296875 
Q 48.6875 37.203125 44.609375 42.84375 
Q 40.53125 48.484375 33.40625 48.484375 
Q 26.265625 48.484375 22.1875 42.84375 
Q 18.109375 37.203125 18.109375 27.296875 
Q 18.109375 17.390625 22.1875 11.75 
Q 26.265625 6.109375 33.40625 6.109375 
Q 40.53125 6.109375 44.609375 11.75 
Q 48.6875 17.390625 48.6875 27.296875 
z
M 18.109375 46.390625 
Q 20.953125 51.265625 25.265625 53.625 
Q 29.59375 56 35.59375 56 
Q 45.5625 56 51.78125 48.09375 
Q 58.015625 40.1875 58.015625 27.296875 
Q 58.015625 14.40625 51.78125 6.484375 
Q 45.5625 -1.421875 35.59375 -1.421875 
Q 29.59375 -1.421875 25.265625 0.953125 
Q 20.953125 3.328125 18.109375 8.203125 
L 18.109375 0 
L 9.078125 0 
L 9.078125 75.984375 
L 18.109375 75.984375 
z
" id="DejaVuSans-98"/>
       <path d="M 10.6875 12.40625 
L 21 12.40625 
L 21 0 
L 10.6875 0 
z
" id="DejaVuSans-46"/>
      </defs>
      <use xlink:href="#DejaVuSans-65"/>
      <use x="68.408203" xlink:href="#DejaVuSans-98"/>
      <use x="131.884766" xlink:href="#DejaVuSans-115"/>
      <use x="183.984375" xlink:href="#DejaVuSans-46"/>
     </g>
    </g>
   </g>
  </g>
 </g>
 <defs>
  <clipPath id="p9caadaddc5">
   <rect height="184.925625" width="374.979688" x="46.220312" y="25.918125"/>
  </clipPath>
 </defs>
</svg>
