<?xml version="1.0" encoding="utf-8" standalone="no"?>
<!DOCTYPE svg PUBLIC "-//W3C//DTD SVG 1.1//EN"
  "http://www.w3.org/Graphics/SVG/1.1/DTD/svg11.dtd">
<!-- Created with matplotlib (https://matplotlib.org/) -->
<svg height="252pt" version="1.1" viewBox="0 0 432 252" width="432pt" xmlns="http://www.w3.org/2000/svg" xmlns:xlink="http://www.w3.org/1999/xlink">
 <metadata>
  <rdf:RDF xmlns:cc="http://creativecommons.org/ns#" xmlns:dc="http://purl.org/dc/elements/1.1/" xmlns:rdf="http://www.w3.org/1999/02/22-rdf-syntax-ns#">
   <cc:Work>
    <dc:type rdf:resource="http://purl.org/dc/dcmitype/StillImage"/>
    <dc:date>2021-01-06T10:14:33.577393</dc:date>
    <dc:format>image/svg+xml</dc:format>
    <dc:creator>
     <cc:Agent>
      <dc:title>Matplotlib v3.3.3, https://matplotlib.org/</dc:title>
     </cc:Agent>
    </dc:creator>
   </cc:Work>
  </rdf:RDF>
 </metadata>
 <defs>
  <style type="text/css">*{stroke-linecap:butt;stroke-linejoin:round;}</style>
 </defs>
 <g id="figure_1">
  <g id="patch_1">
   <path d="M 0 252 
L 432 252 
L 432 0 
L 0 0 
z
" style="fill:#ffffff;"/>
  </g>
  <g id="axes_1">
   <g id="patch_2">
    <path d="M 55.760938 210.84375 
L 421.2 210.84375 
L 421.2 25.918125 
L 55.760938 25.918125 
z
" style="fill:#ffffff;"/>
   </g>
   <g id="matplotlib.axis_1">
    <g id="xtick_1">
     <g id="line2d_1">
      <path clip-path="url(#pe87c6ba908)" d="M 72.371804 210.84375 
L 72.371804 25.918125 
" style="fill:none;stroke:#b0b0b0;stroke-linecap:square;stroke-width:0.8;"/>
     </g>
     <g id="line2d_2">
      <defs>
       <path d="M 0 0 
L 0 3.5 
" id="m7145c1232b" style="stroke:#000000;stroke-width:0.8;"/>
      </defs>
      <g>
       <use style="stroke:#000000;stroke-width:0.8;" x="72.371804" xlink:href="#m7145c1232b" y="210.84375"/>
      </g>
     </g>
     <g id="text_1">
      <!-- 0 -->
      <g transform="translate(69.190554 225.442187)scale(0.1 -0.1)">
       <defs>
        <path d="M 31.78125 66.40625 
Q 24.171875 66.40625 20.328125 58.90625 
Q 16.5 51.421875 16.5 36.375 
Q 16.5 21.390625 20.328125 13.890625 
Q 24.171875 6.390625 31.78125 6.390625 
Q 39.453125 6.390625 43.28125 13.890625 
Q 47.125 21.390625 47.125 36.375 
Q 47.125 51.421875 43.28125 58.90625 
Q 39.453125 66.40625 31.78125 66.40625 
z
M 31.78125 74.21875 
Q 44.046875 74.21875 50.515625 64.515625 
Q 56.984375 54.828125 56.984375 36.375 
Q 56.984375 17.96875 50.515625 8.265625 
Q 44.046875 -1.421875 31.78125 -1.421875 
Q 19.53125 -1.421875 13.0625 8.265625 
Q 6.59375 17.96875 6.59375 36.375 
Q 6.59375 54.828125 13.0625 64.515625 
Q 19.53125 74.21875 31.78125 74.21875 
z
" id="DejaVuSans-48"/>
       </defs>
       <use xlink:href="#DejaVuSans-48"/>
      </g>
     </g>
    </g>
    <g id="xtick_2">
     <g id="line2d_3">
      <path clip-path="url(#pe87c6ba908)" d="M 137.512457 210.84375 
L 137.512457 25.918125 
" style="fill:none;stroke:#b0b0b0;stroke-linecap:square;stroke-width:0.8;"/>
     </g>
     <g id="line2d_4">
      <g>
       <use style="stroke:#000000;stroke-width:0.8;" x="137.512457" xlink:href="#m7145c1232b" y="210.84375"/>
      </g>
     </g>
     <g id="text_2">
      <!-- 50 -->
      <g transform="translate(131.149957 225.442187)scale(0.1 -0.1)">
       <defs>
        <path d="M 10.796875 72.90625 
L 49.515625 72.90625 
L 49.515625 64.59375 
L 19.828125 64.59375 
L 19.828125 46.734375 
Q 21.96875 47.46875 24.109375 47.828125 
Q 26.265625 48.1875 28.421875 48.1875 
Q 40.625 48.1875 47.75 41.5 
Q 54.890625 34.8125 54.890625 23.390625 
Q 54.890625 11.625 47.5625 5.09375 
Q 40.234375 -1.421875 26.90625 -1.421875 
Q 22.3125 -1.421875 17.546875 -0.640625 
Q 12.796875 0.140625 7.71875 1.703125 
L 7.71875 11.625 
Q 12.109375 9.234375 16.796875 8.0625 
Q 21.484375 6.890625 26.703125 6.890625 
Q 35.15625 6.890625 40.078125 11.328125 
Q 45.015625 15.765625 45.015625 23.390625 
Q 45.015625 31 40.078125 35.4375 
Q 35.15625 39.890625 26.703125 39.890625 
Q 22.75 39.890625 18.8125 39.015625 
Q 14.890625 38.140625 10.796875 36.28125 
z
" id="DejaVuSans-53"/>
       </defs>
       <use xlink:href="#DejaVuSans-53"/>
       <use x="63.623047" xlink:href="#DejaVuSans-48"/>
      </g>
     </g>
    </g>
    <g id="xtick_3">
     <g id="line2d_5">
      <path clip-path="url(#pe87c6ba908)" d="M 202.65311 210.84375 
L 202.65311 25.918125 
" style="fill:none;stroke:#b0b0b0;stroke-linecap:square;stroke-width:0.8;"/>
     </g>
     <g id="line2d_6">
      <g>
       <use style="stroke:#000000;stroke-width:0.8;" x="202.65311" xlink:href="#m7145c1232b" y="210.84375"/>
      </g>
     </g>
     <g id="text_3">
      <!-- 100 -->
      <g transform="translate(193.10936 225.442187)scale(0.1 -0.1)">
       <defs>
        <path d="M 12.40625 8.296875 
L 28.515625 8.296875 
L 28.515625 63.921875 
L 10.984375 60.40625 
L 10.984375 69.390625 
L 28.421875 72.90625 
L 38.28125 72.90625 
L 38.28125 8.296875 
L 54.390625 8.296875 
L 54.390625 0 
L 12.40625 0 
z
" id="DejaVuSans-49"/>
       </defs>
       <use xlink:href="#DejaVuSans-49"/>
       <use x="63.623047" xlink:href="#DejaVuSans-48"/>
       <use x="127.246094" xlink:href="#DejaVuSans-48"/>
      </g>
     </g>
    </g>
    <g id="xtick_4">
     <g id="line2d_7">
      <path clip-path="url(#pe87c6ba908)" d="M 267.793763 210.84375 
L 267.793763 25.918125 
" style="fill:none;stroke:#b0b0b0;stroke-linecap:square;stroke-width:0.8;"/>
     </g>
     <g id="line2d_8">
      <g>
       <use style="stroke:#000000;stroke-width:0.8;" x="267.793763" xlink:href="#m7145c1232b" y="210.84375"/>
      </g>
     </g>
     <g id="text_4">
      <!-- 150 -->
      <g transform="translate(258.250013 225.442187)scale(0.1 -0.1)">
       <use xlink:href="#DejaVuSans-49"/>
       <use x="63.623047" xlink:href="#DejaVuSans-53"/>
       <use x="127.246094" xlink:href="#DejaVuSans-48"/>
      </g>
     </g>
    </g>
    <g id="xtick_5">
     <g id="line2d_9">
      <path clip-path="url(#pe87c6ba908)" d="M 332.934415 210.84375 
L 332.934415 25.918125 
" style="fill:none;stroke:#b0b0b0;stroke-linecap:square;stroke-width:0.8;"/>
     </g>
     <g id="line2d_10">
      <g>
       <use style="stroke:#000000;stroke-width:0.8;" x="332.934415" xlink:href="#m7145c1232b" y="210.84375"/>
      </g>
     </g>
     <g id="text_5">
      <!-- 200 -->
      <g transform="translate(323.390665 225.442187)scale(0.1 -0.1)">
       <defs>
        <path d="M 19.1875 8.296875 
L 53.609375 8.296875 
L 53.609375 0 
L 7.328125 0 
L 7.328125 8.296875 
Q 12.9375 14.109375 22.625 23.890625 
Q 32.328125 33.6875 34.8125 36.53125 
Q 39.546875 41.84375 41.421875 45.53125 
Q 43.3125 49.21875 43.3125 52.78125 
Q 43.3125 58.59375 39.234375 62.25 
Q 35.15625 65.921875 28.609375 65.921875 
Q 23.96875 65.921875 18.8125 64.3125 
Q 13.671875 62.703125 7.8125 59.421875 
L 7.8125 69.390625 
Q 13.765625 71.78125 18.9375 73 
Q 24.125 74.21875 28.421875 74.21875 
Q 39.75 74.21875 46.484375 68.546875 
Q 53.21875 62.890625 53.21875 53.421875 
Q 53.21875 48.921875 51.53125 44.890625 
Q 49.859375 40.875 45.40625 35.40625 
Q 44.1875 33.984375 37.640625 27.21875 
Q 31.109375 20.453125 19.1875 8.296875 
z
" id="DejaVuSans-50"/>
       </defs>
       <use xlink:href="#DejaVuSans-50"/>
       <use x="63.623047" xlink:href="#DejaVuSans-48"/>
       <use x="127.246094" xlink:href="#DejaVuSans-48"/>
      </g>
     </g>
    </g>
    <g id="xtick_6">
     <g id="line2d_11">
      <path clip-path="url(#pe87c6ba908)" d="M 398.075068 210.84375 
L 398.075068 25.918125 
" style="fill:none;stroke:#b0b0b0;stroke-linecap:square;stroke-width:0.8;"/>
     </g>
     <g id="line2d_12">
      <g>
       <use style="stroke:#000000;stroke-width:0.8;" x="398.075068" xlink:href="#m7145c1232b" y="210.84375"/>
      </g>
     </g>
     <g id="text_6">
      <!-- 250 -->
      <g transform="translate(388.531318 225.442187)scale(0.1 -0.1)">
       <use xlink:href="#DejaVuSans-50"/>
       <use x="63.623047" xlink:href="#DejaVuSans-53"/>
       <use x="127.246094" xlink:href="#DejaVuSans-48"/>
      </g>
     </g>
    </g>
    <g id="text_7">
     <!-- Time [sample] -->
     <g transform="translate(202.577344 239.120312)scale(0.1 -0.1)">
      <defs>
       <path d="M -0.296875 72.90625 
L 61.375 72.90625 
L 61.375 64.59375 
L 35.5 64.59375 
L 35.5 0 
L 25.59375 0 
L 25.59375 64.59375 
L -0.296875 64.59375 
z
" id="DejaVuSans-84"/>
       <path d="M 9.421875 54.6875 
L 18.40625 54.6875 
L 18.40625 0 
L 9.421875 0 
z
M 9.421875 75.984375 
L 18.40625 75.984375 
L 18.40625 64.59375 
L 9.421875 64.59375 
z
" id="DejaVuSans-105"/>
       <path d="M 52 44.1875 
Q 55.375 50.25 60.0625 53.125 
Q 64.75 56 71.09375 56 
Q 79.640625 56 84.28125 50.015625 
Q 88.921875 44.046875 88.921875 33.015625 
L 88.921875 0 
L 79.890625 0 
L 79.890625 32.71875 
Q 79.890625 40.578125 77.09375 44.375 
Q 74.3125 48.1875 68.609375 48.1875 
Q 61.625 48.1875 57.5625 43.546875 
Q 53.515625 38.921875 53.515625 30.90625 
L 53.515625 0 
L 44.484375 0 
L 44.484375 32.71875 
Q 44.484375 40.625 41.703125 44.40625 
Q 38.921875 48.1875 33.109375 48.1875 
Q 26.21875 48.1875 22.15625 43.53125 
Q 18.109375 38.875 18.109375 30.90625 
L 18.109375 0 
L 9.078125 0 
L 9.078125 54.6875 
L 18.109375 54.6875 
L 18.109375 46.1875 
Q 21.1875 51.21875 25.484375 53.609375 
Q 29.78125 56 35.6875 56 
Q 41.65625 56 45.828125 52.96875 
Q 50 49.953125 52 44.1875 
z
" id="DejaVuSans-109"/>
       <path d="M 56.203125 29.59375 
L 56.203125 25.203125 
L 14.890625 25.203125 
Q 15.484375 15.921875 20.484375 11.0625 
Q 25.484375 6.203125 34.421875 6.203125 
Q 39.59375 6.203125 44.453125 7.46875 
Q 49.3125 8.734375 54.109375 11.28125 
L 54.109375 2.78125 
Q 49.265625 0.734375 44.1875 -0.34375 
Q 39.109375 -1.421875 33.890625 -1.421875 
Q 20.796875 -1.421875 13.15625 6.1875 
Q 5.515625 13.8125 5.515625 26.8125 
Q 5.515625 40.234375 12.765625 48.109375 
Q 20.015625 56 32.328125 56 
Q 43.359375 56 49.78125 48.890625 
Q 56.203125 41.796875 56.203125 29.59375 
z
M 47.21875 32.234375 
Q 47.125 39.59375 43.09375 43.984375 
Q 39.0625 48.390625 32.421875 48.390625 
Q 24.90625 48.390625 20.390625 44.140625 
Q 15.875 39.890625 15.1875 32.171875 
z
" id="DejaVuSans-101"/>
       <path id="DejaVuSans-32"/>
       <path d="M 8.59375 75.984375 
L 29.296875 75.984375 
L 29.296875 69 
L 17.578125 69 
L 17.578125 -6.203125 
L 29.296875 -6.203125 
L 29.296875 -13.1875 
L 8.59375 -13.1875 
z
" id="DejaVuSans-91"/>
       <path d="M 44.28125 53.078125 
L 44.28125 44.578125 
Q 40.484375 46.53125 36.375 47.5 
Q 32.28125 48.484375 27.875 48.484375 
Q 21.1875 48.484375 17.84375 46.4375 
Q 14.5 44.390625 14.5 40.28125 
Q 14.5 37.15625 16.890625 35.375 
Q 19.28125 33.59375 26.515625 31.984375 
L 29.59375 31.296875 
Q 39.15625 29.25 43.1875 25.515625 
Q 47.21875 21.78125 47.21875 15.09375 
Q 47.21875 7.46875 41.1875 3.015625 
Q 35.15625 -1.421875 24.609375 -1.421875 
Q 20.21875 -1.421875 15.453125 -0.5625 
Q 10.6875 0.296875 5.421875 2 
L 5.421875 11.28125 
Q 10.40625 8.6875 15.234375 7.390625 
Q 20.0625 6.109375 24.8125 6.109375 
Q 31.15625 6.109375 34.5625 8.28125 
Q 37.984375 10.453125 37.984375 14.40625 
Q 37.984375 18.0625 35.515625 20.015625 
Q 33.0625 21.96875 24.703125 23.78125 
L 21.578125 24.515625 
Q 13.234375 26.265625 9.515625 29.90625 
Q 5.8125 33.546875 5.8125 39.890625 
Q 5.8125 47.609375 11.28125 51.796875 
Q 16.75 56 26.8125 56 
Q 31.78125 56 36.171875 55.265625 
Q 40.578125 54.546875 44.28125 53.078125 
z
" id="DejaVuSans-115"/>
       <path d="M 34.28125 27.484375 
Q 23.390625 27.484375 19.1875 25 
Q 14.984375 22.515625 14.984375 16.5 
Q 14.984375 11.71875 18.140625 8.90625 
Q 21.296875 6.109375 26.703125 6.109375 
Q 34.1875 6.109375 38.703125 11.40625 
Q 43.21875 16.703125 43.21875 25.484375 
L 43.21875 27.484375 
z
M 52.203125 31.203125 
L 52.203125 0 
L 43.21875 0 
L 43.21875 8.296875 
Q 40.140625 3.328125 35.546875 0.953125 
Q 30.953125 -1.421875 24.3125 -1.421875 
Q 15.921875 -1.421875 10.953125 3.296875 
Q 6 8.015625 6 15.921875 
Q 6 25.140625 12.171875 29.828125 
Q 18.359375 34.515625 30.609375 34.515625 
L 43.21875 34.515625 
L 43.21875 35.40625 
Q 43.21875 41.609375 39.140625 45 
Q 35.0625 48.390625 27.6875 48.390625 
Q 23 48.390625 18.546875 47.265625 
Q 14.109375 46.140625 10.015625 43.890625 
L 10.015625 52.203125 
Q 14.9375 54.109375 19.578125 55.046875 
Q 24.21875 56 28.609375 56 
Q 40.484375 56 46.34375 49.84375 
Q 52.203125 43.703125 52.203125 31.203125 
z
" id="DejaVuSans-97"/>
       <path d="M 18.109375 8.203125 
L 18.109375 -20.796875 
L 9.078125 -20.796875 
L 9.078125 54.6875 
L 18.109375 54.6875 
L 18.109375 46.390625 
Q 20.953125 51.265625 25.265625 53.625 
Q 29.59375 56 35.59375 56 
Q 45.5625 56 51.78125 48.09375 
Q 58.015625 40.1875 58.015625 27.296875 
Q 58.015625 14.40625 51.78125 6.484375 
Q 45.5625 -1.421875 35.59375 -1.421875 
Q 29.59375 -1.421875 25.265625 0.953125 
Q 20.953125 3.328125 18.109375 8.203125 
z
M 48.6875 27.296875 
Q 48.6875 37.203125 44.609375 42.84375 
Q 40.53125 48.484375 33.40625 48.484375 
Q 26.265625 48.484375 22.1875 42.84375 
Q 18.109375 37.203125 18.109375 27.296875 
Q 18.109375 17.390625 22.1875 11.75 
Q 26.265625 6.109375 33.40625 6.109375 
Q 40.53125 6.109375 44.609375 11.75 
Q 48.6875 17.390625 48.6875 27.296875 
z
" id="DejaVuSans-112"/>
       <path d="M 9.421875 75.984375 
L 18.40625 75.984375 
L 18.40625 0 
L 9.421875 0 
z
" id="DejaVuSans-108"/>
       <path d="M 30.421875 75.984375 
L 30.421875 -13.1875 
L 9.71875 -13.1875 
L 9.71875 -6.203125 
L 21.390625 -6.203125 
L 21.390625 69 
L 9.71875 69 
L 9.71875 75.984375 
z
" id="DejaVuSans-93"/>
      </defs>
      <use xlink:href="#DejaVuSans-84"/>
      <use x="57.958984" xlink:href="#DejaVuSans-105"/>
      <use x="85.742188" xlink:href="#DejaVuSans-109"/>
      <use x="183.154297" xlink:href="#DejaVuSans-101"/>
      <use x="244.677734" xlink:href="#DejaVuSans-32"/>
      <use x="276.464844" xlink:href="#DejaVuSans-91"/>
      <use x="315.478516" xlink:href="#DejaVuSans-115"/>
      <use x="367.578125" xlink:href="#DejaVuSans-97"/>
      <use x="428.857422" xlink:href="#DejaVuSans-109"/>
      <use x="526.269531" xlink:href="#DejaVuSans-112"/>
      <use x="589.746094" xlink:href="#DejaVuSans-108"/>
      <use x="617.529297" xlink:href="#DejaVuSans-101"/>
      <use x="679.052734" xlink:href="#DejaVuSans-93"/>
     </g>
    </g>
   </g>
   <g id="matplotlib.axis_2">
    <g id="ytick_1">
     <g id="line2d_13">
      <path clip-path="url(#pe87c6ba908)" d="M 55.760938 208.184456 
L 421.2 208.184456 
" style="fill:none;stroke:#b0b0b0;stroke-linecap:square;stroke-width:0.8;"/>
     </g>
     <g id="line2d_14">
      <defs>
       <path d="M 0 0 
L -3.5 0 
" id="mef93ef59c2" style="stroke:#000000;stroke-width:0.8;"/>
      </defs>
      <g>
       <use style="stroke:#000000;stroke-width:0.8;" x="55.760938" xlink:href="#mef93ef59c2" y="208.184456"/>
      </g>
     </g>
     <g id="text_8">
      <!-- −2.0 -->
      <g transform="translate(24.478125 211.983674)scale(0.1 -0.1)">
       <defs>
        <path d="M 10.59375 35.5 
L 73.1875 35.5 
L 73.1875 27.203125 
L 10.59375 27.203125 
z
" id="DejaVuSans-8722"/>
        <path d="M 10.6875 12.40625 
L 21 12.40625 
L 21 0 
L 10.6875 0 
z
" id="DejaVuSans-46"/>
       </defs>
       <use xlink:href="#DejaVuSans-8722"/>
       <use x="83.789062" xlink:href="#DejaVuSans-50"/>
       <use x="147.412109" xlink:href="#DejaVuSans-46"/>
       <use x="179.199219" xlink:href="#DejaVuSans-48"/>
      </g>
     </g>
    </g>
    <g id="ytick_2">
     <g id="line2d_15">
      <path clip-path="url(#pe87c6ba908)" d="M 55.760938 185.733576 
L 421.2 185.733576 
" style="fill:none;stroke:#b0b0b0;stroke-linecap:square;stroke-width:0.8;"/>
     </g>
     <g id="line2d_16">
      <g>
       <use style="stroke:#000000;stroke-width:0.8;" x="55.760938" xlink:href="#mef93ef59c2" y="185.733576"/>
      </g>
     </g>
     <g id="text_9">
      <!-- −1.5 -->
      <g transform="translate(24.478125 189.532795)scale(0.1 -0.1)">
       <use xlink:href="#DejaVuSans-8722"/>
       <use x="83.789062" xlink:href="#DejaVuSans-49"/>
       <use x="147.412109" xlink:href="#DejaVuSans-46"/>
       <use x="179.199219" xlink:href="#DejaVuSans-53"/>
      </g>
     </g>
    </g>
    <g id="ytick_3">
     <g id="line2d_17">
      <path clip-path="url(#pe87c6ba908)" d="M 55.760938 163.282697 
L 421.2 163.282697 
" style="fill:none;stroke:#b0b0b0;stroke-linecap:square;stroke-width:0.8;"/>
     </g>
     <g id="line2d_18">
      <g>
       <use style="stroke:#000000;stroke-width:0.8;" x="55.760938" xlink:href="#mef93ef59c2" y="163.282697"/>
      </g>
     </g>
     <g id="text_10">
      <!-- −1.0 -->
      <g transform="translate(24.478125 167.081915)scale(0.1 -0.1)">
       <use xlink:href="#DejaVuSans-8722"/>
       <use x="83.789062" xlink:href="#DejaVuSans-49"/>
       <use x="147.412109" xlink:href="#DejaVuSans-46"/>
       <use x="179.199219" xlink:href="#DejaVuSans-48"/>
      </g>
     </g>
    </g>
    <g id="ytick_4">
     <g id="line2d_19">
      <path clip-path="url(#pe87c6ba908)" d="M 55.760938 140.831817 
L 421.2 140.831817 
" style="fill:none;stroke:#b0b0b0;stroke-linecap:square;stroke-width:0.8;"/>
     </g>
     <g id="line2d_20">
      <g>
       <use style="stroke:#000000;stroke-width:0.8;" x="55.760938" xlink:href="#mef93ef59c2" y="140.831817"/>
      </g>
     </g>
     <g id="text_11">
      <!-- −0.5 -->
      <g transform="translate(24.478125 144.631036)scale(0.1 -0.1)">
       <use xlink:href="#DejaVuSans-8722"/>
       <use x="83.789062" xlink:href="#DejaVuSans-48"/>
       <use x="147.412109" xlink:href="#DejaVuSans-46"/>
       <use x="179.199219" xlink:href="#DejaVuSans-53"/>
      </g>
     </g>
    </g>
    <g id="ytick_5">
     <g id="line2d_21">
      <path clip-path="url(#pe87c6ba908)" d="M 55.760938 118.380937 
L 421.2 118.380937 
" style="fill:none;stroke:#b0b0b0;stroke-linecap:square;stroke-width:0.8;"/>
     </g>
     <g id="line2d_22">
      <g>
       <use style="stroke:#000000;stroke-width:0.8;" x="55.760938" xlink:href="#mef93ef59c2" y="118.380937"/>
      </g>
     </g>
     <g id="text_12">
      <!-- 0.0 -->
      <g transform="translate(32.857813 122.180156)scale(0.1 -0.1)">
       <use xlink:href="#DejaVuSans-48"/>
       <use x="63.623047" xlink:href="#DejaVuSans-46"/>
       <use x="95.410156" xlink:href="#DejaVuSans-48"/>
      </g>
     </g>
    </g>
    <g id="ytick_6">
     <g id="line2d_23">
      <path clip-path="url(#pe87c6ba908)" d="M 55.760938 95.930058 
L 421.2 95.930058 
" style="fill:none;stroke:#b0b0b0;stroke-linecap:square;stroke-width:0.8;"/>
     </g>
     <g id="line2d_24">
      <g>
       <use style="stroke:#000000;stroke-width:0.8;" x="55.760938" xlink:href="#mef93ef59c2" y="95.930058"/>
      </g>
     </g>
     <g id="text_13">
      <!-- 0.5 -->
      <g transform="translate(32.857813 99.729277)scale(0.1 -0.1)">
       <use xlink:href="#DejaVuSans-48"/>
       <use x="63.623047" xlink:href="#DejaVuSans-46"/>
       <use x="95.410156" xlink:href="#DejaVuSans-53"/>
      </g>
     </g>
    </g>
    <g id="ytick_7">
     <g id="line2d_25">
      <path clip-path="url(#pe87c6ba908)" d="M 55.760938 73.479178 
L 421.2 73.479178 
" style="fill:none;stroke:#b0b0b0;stroke-linecap:square;stroke-width:0.8;"/>
     </g>
     <g id="line2d_26">
      <g>
       <use style="stroke:#000000;stroke-width:0.8;" x="55.760938" xlink:href="#mef93ef59c2" y="73.479178"/>
      </g>
     </g>
     <g id="text_14">
      <!-- 1.0 -->
      <g transform="translate(32.857813 77.278397)scale(0.1 -0.1)">
       <use xlink:href="#DejaVuSans-49"/>
       <use x="63.623047" xlink:href="#DejaVuSans-46"/>
       <use x="95.410156" xlink:href="#DejaVuSans-48"/>
      </g>
     </g>
    </g>
    <g id="ytick_8">
     <g id="line2d_27">
      <path clip-path="url(#pe87c6ba908)" d="M 55.760938 51.028299 
L 421.2 51.028299 
" style="fill:none;stroke:#b0b0b0;stroke-linecap:square;stroke-width:0.8;"/>
     </g>
     <g id="line2d_28">
      <g>
       <use style="stroke:#000000;stroke-width:0.8;" x="55.760938" xlink:href="#mef93ef59c2" y="51.028299"/>
      </g>
     </g>
     <g id="text_15">
      <!-- 1.5 -->
      <g transform="translate(32.857813 54.827518)scale(0.1 -0.1)">
       <use xlink:href="#DejaVuSans-49"/>
       <use x="63.623047" xlink:href="#DejaVuSans-46"/>
       <use x="95.410156" xlink:href="#DejaVuSans-53"/>
      </g>
     </g>
    </g>
    <g id="ytick_9">
     <g id="line2d_29">
      <path clip-path="url(#pe87c6ba908)" d="M 55.760938 28.577419 
L 421.2 28.577419 
" style="fill:none;stroke:#b0b0b0;stroke-linecap:square;stroke-width:0.8;"/>
     </g>
     <g id="line2d_30">
      <g>
       <use style="stroke:#000000;stroke-width:0.8;" x="55.760938" xlink:href="#mef93ef59c2" y="28.577419"/>
      </g>
     </g>
     <g id="text_16">
      <!-- 2.0 -->
      <g transform="translate(32.857813 32.376638)scale(0.1 -0.1)">
       <use xlink:href="#DejaVuSans-50"/>
       <use x="63.623047" xlink:href="#DejaVuSans-46"/>
       <use x="95.410156" xlink:href="#DejaVuSans-48"/>
      </g>
     </g>
    </g>
    <g id="text_17">
     <!-- Amplitude -->
     <g transform="translate(18.398438 144.003594)rotate(-90)scale(0.1 -0.1)">
      <defs>
       <path d="M 34.1875 63.1875 
L 20.796875 26.90625 
L 47.609375 26.90625 
z
M 28.609375 72.90625 
L 39.796875 72.90625 
L 67.578125 0 
L 57.328125 0 
L 50.6875 18.703125 
L 17.828125 18.703125 
L 11.1875 0 
L 0.78125 0 
z
" id="DejaVuSans-65"/>
       <path d="M 18.3125 70.21875 
L 18.3125 54.6875 
L 36.8125 54.6875 
L 36.8125 47.703125 
L 18.3125 47.703125 
L 18.3125 18.015625 
Q 18.3125 11.328125 20.140625 9.421875 
Q 21.96875 7.515625 27.59375 7.515625 
L 36.8125 7.515625 
L 36.8125 0 
L 27.59375 0 
Q 17.1875 0 13.234375 3.875 
Q 9.28125 7.765625 9.28125 18.015625 
L 9.28125 47.703125 
L 2.6875 47.703125 
L 2.6875 54.6875 
L 9.28125 54.6875 
L 9.28125 70.21875 
z
" id="DejaVuSans-116"/>
       <path d="M 8.5 21.578125 
L 8.5 54.6875 
L 17.484375 54.6875 
L 17.484375 21.921875 
Q 17.484375 14.15625 20.5 10.265625 
Q 23.53125 6.390625 29.59375 6.390625 
Q 36.859375 6.390625 41.078125 11.03125 
Q 45.3125 15.671875 45.3125 23.6875 
L 45.3125 54.6875 
L 54.296875 54.6875 
L 54.296875 0 
L 45.3125 0 
L 45.3125 8.40625 
Q 42.046875 3.421875 37.71875 1 
Q 33.40625 -1.421875 27.6875 -1.421875 
Q 18.265625 -1.421875 13.375 4.4375 
Q 8.5 10.296875 8.5 21.578125 
z
M 31.109375 56 
z
" id="DejaVuSans-117"/>
       <path d="M 45.40625 46.390625 
L 45.40625 75.984375 
L 54.390625 75.984375 
L 54.390625 0 
L 45.40625 0 
L 45.40625 8.203125 
Q 42.578125 3.328125 38.25 0.953125 
Q 33.9375 -1.421875 27.875 -1.421875 
Q 17.96875 -1.421875 11.734375 6.484375 
Q 5.515625 14.40625 5.515625 27.296875 
Q 5.515625 40.1875 11.734375 48.09375 
Q 17.96875 56 27.875 56 
Q 33.9375 56 38.25 53.625 
Q 42.578125 51.265625 45.40625 46.390625 
z
M 14.796875 27.296875 
Q 14.796875 17.390625 18.875 11.75 
Q 22.953125 6.109375 30.078125 6.109375 
Q 37.203125 6.109375 41.296875 11.75 
Q 45.40625 17.390625 45.40625 27.296875 
Q 45.40625 37.203125 41.296875 42.84375 
Q 37.203125 48.484375 30.078125 48.484375 
Q 22.953125 48.484375 18.875 42.84375 
Q 14.796875 37.203125 14.796875 27.296875 
z
" id="DejaVuSans-100"/>
      </defs>
      <use xlink:href="#DejaVuSans-65"/>
      <use x="68.408203" xlink:href="#DejaVuSans-109"/>
      <use x="165.820312" xlink:href="#DejaVuSans-112"/>
      <use x="229.296875" xlink:href="#DejaVuSans-108"/>
      <use x="257.080078" xlink:href="#DejaVuSans-105"/>
      <use x="284.863281" xlink:href="#DejaVuSans-116"/>
      <use x="324.072266" xlink:href="#DejaVuSans-117"/>
      <use x="387.451172" xlink:href="#DejaVuSans-100"/>
      <use x="450.927734" xlink:href="#DejaVuSans-101"/>
     </g>
    </g>
   </g>
   <g id="line2d_31">
    <path clip-path="url(#pe87c6ba908)" d="M 72.371804 112.735429 
L 73.674617 124.206516 
L 74.97743 90.644942 
L 76.280243 113.919139 
L 77.583056 140.757204 
L 80.188682 65.841897 
L 81.491495 80.905346 
L 82.794308 145.729062 
L 84.097121 166.676844 
L 86.702748 116.859648 
L 88.005561 202.43804 
L 89.308374 126.149369 
L 90.611187 161.826601 
L 91.914 143.458537 
L 93.216813 136.686318 
L 94.519626 128.828848 
L 95.822439 105.027457 
L 97.125252 85.166616 
L 98.428065 122.402741 
L 99.730878 76.390007 
L 101.033691 138.456286 
L 102.336504 107.962347 
L 103.639317 92.081777 
L 106.244943 139.255737 
L 107.547757 143.796527 
L 108.85057 130.776348 
L 110.153383 112.524681 
L 111.456196 144.751926 
L 112.759009 123.74677 
L 114.061822 122.392322 
L 115.364635 104.999181 
L 116.667448 113.164836 
L 117.970261 109.900122 
L 119.273074 133.705015 
L 120.575887 121.364382 
L 121.8787 100.658371 
L 123.181513 85.224626 
L 124.484326 145.833709 
L 125.787139 85.962003 
L 127.089952 90.076375 
L 128.392765 102.243573 
L 130.998392 124.634753 
L 132.301205 89.854816 
L 133.604018 80.714963 
L 134.906831 84.382454 
L 136.209644 94.0079 
L 137.512457 111.876088 
L 138.81527 139.980494 
L 140.118083 118.459133 
L 141.420896 107.062272 
L 142.723709 140.196764 
L 144.026522 111.810079 
L 145.329335 111.360269 
L 146.632148 107.216408 
L 147.934961 137.034267 
L 149.237774 128.618135 
L 150.540587 125.01218 
L 151.8434 135.83692 
L 153.146214 92.890324 
L 154.449027 125.518488 
L 155.75184 113.730879 
L 157.054653 121.970503 
L 158.357466 96.792216 
L 159.660279 100.701606 
L 160.963092 110.052269 
L 162.265905 146.838774 
L 163.568718 117.721021 
L 164.871531 109.864511 
L 166.174344 106.098783 
L 167.477157 125.804929 
L 168.77997 96.881738 
L 170.082783 133.682781 
L 171.385596 125.909866 
L 172.688409 107.929486 
L 173.991222 117.842446 
L 175.294035 96.793319 
L 176.596849 116.384903 
L 177.899662 124.965184 
L 179.202475 122.236752 
L 180.505288 129.32468 
L 181.808101 130.966191 
L 183.110914 112.282469 
L 184.413727 112.859482 
L 185.71654 106.301904 
L 187.019353 125.295861 
L 188.322166 103.179613 
L 189.624979 120.921028 
L 190.927792 104.714503 
L 192.230605 122.07044 
L 193.533418 124.538721 
L 194.836231 116.327056 
L 196.139044 110.051517 
L 197.441857 117.103988 
L 200.047484 128.640665 
L 201.350297 128.910059 
L 202.65311 114.67205 
L 203.955923 111.209342 
L 205.258736 119.550132 
L 206.561549 125.889763 
L 207.864362 112.388379 
L 209.167175 127.012264 
L 210.469988 123.101805 
L 211.772801 114.343073 
L 213.075614 132.749532 
L 214.378427 115.957877 
L 215.68124 121.96333 
L 216.984053 117.719917 
L 218.286866 118.830652 
L 219.589679 117.201741 
L 220.892492 114.403414 
L 222.195306 122.648536 
L 223.498119 110.527713 
L 224.800932 114.439914 
L 226.103745 113.883367 
L 227.406558 112.282687 
L 228.709371 114.33158 
L 230.012184 114.118808 
L 231.314997 118.006063 
L 232.61781 125.329782 
L 233.920623 119.026879 
L 236.526249 124.944719 
L 237.829062 117.209913 
L 239.131875 120.910876 
L 240.434688 122.881361 
L 241.737501 122.857455 
L 243.040314 117.249521 
L 244.343128 116.896142 
L 245.645941 113.004336 
L 246.948754 118.436497 
L 248.251567 114.295479 
L 249.55438 112.980528 
L 250.857193 114.03069 
L 252.160006 127.167062 
L 253.462819 113.898571 
L 254.765632 117.164143 
L 256.068445 116.889817 
L 257.371258 117.098081 
L 258.674071 117.081911 
L 259.976884 117.31629 
L 261.279697 119.55583 
L 262.58251 124.494475 
L 263.885323 118.724819 
L 265.188136 120.87318 
L 266.490949 115.091472 
L 267.793763 119.244591 
L 269.096576 118.135745 
L 270.399389 120.831829 
L 271.702202 119.827587 
L 273.005015 118.413027 
L 274.307828 122.439883 
L 275.610641 117.573989 
L 276.913454 118.660509 
L 279.51908 124.477652 
L 280.821893 117.100015 
L 282.124706 119.11061 
L 283.427519 119.657253 
L 284.730332 118.939444 
L 286.033145 114.16185 
L 287.335958 118.494539 
L 288.638771 118.186886 
L 289.941585 121.652775 
L 291.244398 114.821353 
L 292.547211 116.433903 
L 293.850024 116.15728 
L 295.152837 118.283358 
L 296.45565 116.538259 
L 297.758463 117.648598 
L 299.061276 117.19202 
L 300.364089 118.670745 
L 301.666902 121.137296 
L 302.969715 116.491285 
L 304.272528 121.87119 
L 305.575341 118.805986 
L 306.878154 118.736765 
L 308.180967 120.16283 
L 309.48378 117.352069 
L 310.786593 118.71109 
L 312.089406 119.088031 
L 313.39222 117.554606 
L 314.695033 119.124941 
L 315.997846 116.251364 
L 317.300659 117.851733 
L 318.603472 119.082383 
L 319.906285 121.204665 
L 321.209098 120.246243 
L 322.511911 116.858488 
L 323.814724 118.450556 
L 325.117537 118.763474 
L 326.42035 116.20044 
L 327.723163 120.052476 
L 329.025976 119.130502 
L 330.328789 118.974962 
L 331.631602 117.657124 
L 332.934415 119.185389 
L 334.237228 119.111318 
L 335.540041 120.257941 
L 336.842855 117.543327 
L 338.145668 117.471708 
L 339.448481 118.908618 
L 340.751294 118.203245 
L 342.054107 119.762001 
L 343.35692 118.876001 
L 344.659733 116.96096 
L 345.962546 118.24357 
L 347.265359 116.084568 
L 348.568172 119.149359 
L 349.870985 117.824629 
L 351.173798 118.565011 
L 352.476611 117.85774 
L 355.082237 118.881454 
L 356.38505 119.140892 
L 357.687863 115.74343 
L 358.990677 118.446282 
L 360.29349 120.054195 
L 362.899116 117.838314 
L 364.201929 118.773924 
L 365.504742 117.330818 
L 366.807555 117.621041 
L 368.110368 118.494355 
L 369.413181 118.726215 
L 370.715994 119.102485 
L 372.018807 118.874587 
L 373.32162 119.401274 
L 374.624433 117.561672 
L 375.927246 117.318262 
L 377.230059 119.205088 
L 378.532872 119.142362 
L 379.835685 119.500094 
L 381.138498 118.979971 
L 382.441312 120.276968 
L 383.744125 119.065678 
L 385.046938 117.617415 
L 386.349751 118.5808 
L 387.652564 117.895672 
L 388.955377 118.653623 
L 390.25819 117.416631 
L 391.561003 118.27378 
L 392.863816 118.582736 
L 394.166629 117.056714 
L 395.469442 118.546264 
L 396.772255 118.992045 
L 398.075068 118.281709 
L 399.377881 118.399681 
L 400.680694 117.875483 
L 401.983507 118.809988 
L 403.28632 118.013021 
L 404.589134 117.998038 
L 404.589134 117.998038 
" style="fill:none;stroke:#440154;stroke-linecap:square;"/>
   </g>
   <g id="line2d_32">
    <path clip-path="url(#pe87c6ba908)" d="M 72.371804 112.735429 
L 73.674617 112.555359 
L 74.97743 90.644942 
L 76.280243 113.919139 
L 77.583056 96.004671 
L 78.885869 103.546532 
L 80.188682 65.841897 
L 81.491495 80.905346 
L 82.794308 91.032813 
L 84.097121 70.085031 
L 85.399935 95.018868 
L 86.702748 116.859648 
L 88.005561 34.323835 
L 89.308374 110.612506 
L 90.611187 74.935274 
L 91.914 93.303338 
L 93.216813 100.075557 
L 94.519626 107.933027 
L 95.822439 105.027457 
L 97.125252 85.166616 
L 98.428065 114.359134 
L 99.730878 76.390007 
L 101.033691 98.305589 
L 102.336504 107.962347 
L 103.639317 92.081777 
L 104.94213 115.693307 
L 106.244943 97.506138 
L 107.547757 92.965348 
L 108.85057 105.985527 
L 110.153383 112.524681 
L 111.456196 92.009949 
L 112.759009 113.015105 
L 114.061822 114.369553 
L 115.364635 104.999181 
L 116.667448 113.164836 
L 117.970261 109.900122 
L 119.273074 103.05686 
L 120.575887 115.397493 
L 123.181513 85.224626 
L 124.484326 90.928166 
L 125.787139 85.962003 
L 127.089952 90.076375 
L 128.392765 102.243573 
L 129.695578 113.016575 
L 130.998392 112.127122 
L 132.301205 89.854816 
L 133.604018 80.714963 
L 134.906831 84.382454 
L 136.209644 94.0079 
L 137.512457 111.876088 
L 138.81527 96.781381 
L 140.118083 118.302742 
L 142.723709 96.565111 
L 144.026522 111.810079 
L 145.329335 111.360269 
L 146.632148 107.216408 
L 147.934961 99.727608 
L 149.237774 108.14374 
L 150.540587 111.749695 
L 151.8434 100.924955 
L 153.146214 92.890324 
L 154.449027 111.243387 
L 155.75184 113.730879 
L 157.054653 114.791372 
L 158.357466 96.792216 
L 159.660279 100.701606 
L 160.963092 110.052269 
L 162.265905 89.923101 
L 163.568718 117.721021 
L 164.871531 109.864511 
L 166.174344 106.098783 
L 167.477157 110.956946 
L 168.77997 96.881738 
L 170.082783 103.079094 
L 171.385596 110.852009 
L 172.688409 107.929486 
L 173.991222 117.842446 
L 175.294035 96.793319 
L 176.596849 116.384903 
L 177.899662 111.796691 
L 179.202475 114.525123 
L 180.505288 107.437195 
L 181.808101 105.795684 
L 183.110914 112.282469 
L 184.413727 112.859482 
L 185.71654 106.301904 
L 187.019353 111.466014 
L 188.322166 103.179613 
L 189.624979 115.840847 
L 190.927792 104.714503 
L 192.230605 114.691435 
L 193.533418 112.223154 
L 194.836231 116.327056 
L 196.139044 110.051517 
L 197.441857 117.103988 
L 198.744671 113.820281 
L 200.047484 108.12121 
L 201.350297 107.851816 
L 202.65311 114.67205 
L 203.955923 111.209342 
L 205.258736 117.211743 
L 206.561549 110.872112 
L 207.864362 112.388379 
L 209.167175 109.749611 
L 210.469988 113.66007 
L 211.772801 114.343073 
L 213.075614 104.012343 
L 214.378427 115.957877 
L 215.68124 114.798545 
L 216.984053 117.719917 
L 218.286866 117.931223 
L 219.589679 117.201741 
L 220.892492 114.403414 
L 222.195306 114.113339 
L 223.498119 110.527713 
L 224.800932 114.439914 
L 226.103745 113.883367 
L 227.406558 112.282687 
L 228.709371 114.33158 
L 230.012184 114.118808 
L 231.314997 118.006063 
L 232.61781 111.432093 
L 233.920623 117.734996 
L 236.526249 111.817156 
L 237.829062 117.209913 
L 239.131875 115.850999 
L 240.434688 113.880514 
L 241.737501 113.90442 
L 243.040314 117.249521 
L 244.343128 116.896142 
L 245.645941 113.004336 
L 246.948754 118.325378 
L 248.251567 114.295479 
L 249.55438 112.980528 
L 250.857193 114.03069 
L 252.160006 109.594813 
L 253.462819 113.898571 
L 254.765632 117.164143 
L 256.068445 116.889817 
L 257.371258 117.098081 
L 258.674071 117.081911 
L 259.976884 117.31629 
L 261.279697 117.206045 
L 262.58251 112.2674 
L 263.885323 118.037056 
L 265.188136 115.888695 
L 266.490949 115.091472 
L 267.793763 117.517284 
L 269.096576 118.135745 
L 270.399389 115.930046 
L 271.702202 116.934288 
L 273.005015 118.348848 
L 274.307828 114.321992 
L 275.610641 117.573989 
L 276.913454 118.101366 
L 279.51908 112.284223 
L 280.821893 117.100015 
L 282.124706 117.651265 
L 283.427519 117.104622 
L 284.730332 117.822431 
L 286.033145 114.16185 
L 287.335958 118.267336 
L 288.638771 118.186886 
L 289.941585 115.1091 
L 291.244398 114.821353 
L 292.547211 116.433903 
L 293.850024 116.15728 
L 295.152837 118.283358 
L 296.45565 116.538259 
L 297.758463 117.648598 
L 299.061276 117.19202 
L 300.364089 118.09113 
L 301.666902 115.624579 
L 302.969715 116.491285 
L 304.272528 114.890685 
L 305.575341 117.955889 
L 306.878154 118.02511 
L 308.180967 116.599045 
L 310.786593 118.050785 
L 312.089406 117.673844 
L 313.39222 117.554606 
L 314.695033 117.636934 
L 315.997846 116.251364 
L 317.300659 117.851733 
L 318.603472 117.679492 
L 319.906285 115.55721 
L 321.209098 116.515632 
L 322.511911 116.858488 
L 323.814724 118.311319 
L 325.117537 117.998401 
L 326.42035 116.20044 
L 327.723163 116.709399 
L 329.025976 117.631373 
L 330.328789 117.786913 
L 332.934415 117.576486 
L 334.237228 117.650557 
L 335.540041 116.503934 
L 336.842855 117.543327 
L 338.145668 117.471708 
L 340.751294 118.203245 
L 342.054107 116.999874 
L 343.35692 117.885874 
L 344.659733 116.96096 
L 345.962546 118.24357 
L 347.265359 116.084568 
L 348.568172 117.612516 
L 349.870985 117.824629 
L 351.173798 118.196864 
L 352.476611 117.85774 
L 353.779424 118.374389 
L 355.082237 117.880421 
L 356.38505 117.620983 
L 357.687863 115.74343 
L 358.990677 118.315593 
L 360.29349 116.70768 
L 361.596303 117.852414 
L 362.899116 117.838314 
L 364.201929 117.987951 
L 365.504742 117.330818 
L 366.807555 117.621041 
L 368.110368 118.26752 
L 369.413181 118.03566 
L 370.715994 117.65939 
L 372.018807 117.887288 
L 373.32162 117.360601 
L 374.624433 117.561672 
L 375.927246 117.318262 
L 377.230059 117.556787 
L 378.532872 117.619513 
L 379.835685 117.261781 
L 381.138498 117.781904 
L 382.441312 116.484907 
L 383.744125 117.696197 
L 385.046938 117.617415 
L 386.349751 118.181075 
L 387.652564 117.895672 
L 388.955377 118.108252 
L 390.25819 117.416631 
L 391.561003 118.27378 
L 392.863816 118.179139 
L 394.166629 117.056714 
L 395.469442 118.215611 
L 396.772255 117.76983 
L 398.075068 118.281709 
L 399.377881 118.362194 
L 400.680694 117.875483 
L 404.589134 117.998038 
L 404.589134 117.998038 
" style="fill:none;stroke:#21918c;stroke-linecap:square;"/>
   </g>
   <g id="patch_3">
    <path d="M 55.760938 210.84375 
L 55.760938 25.918125 
" style="fill:none;stroke:#000000;stroke-linecap:square;stroke-linejoin:miter;stroke-width:0.8;"/>
   </g>
   <g id="patch_4">
    <path d="M 421.2 210.84375 
L 421.2 25.918125 
" style="fill:none;stroke:#000000;stroke-linecap:square;stroke-linejoin:miter;stroke-width:0.8;"/>
   </g>
   <g id="patch_5">
    <path d="M 55.760938 210.84375 
L 421.2 210.84375 
" style="fill:none;stroke:#000000;stroke-linecap:square;stroke-linejoin:miter;stroke-width:0.8;"/>
   </g>
   <g id="patch_6">
    <path d="M 55.760938 25.918125 
L 421.2 25.918125 
" style="fill:none;stroke:#000000;stroke-linecap:square;stroke-linejoin:miter;stroke-width:0.8;"/>
   </g>
   <g id="text_18">
    <!-- Signal with Decaying Amplitude -->
    <g transform="translate(142.735469 19.918125)scale(0.12 -0.12)">
     <defs>
      <path d="M 53.515625 70.515625 
L 53.515625 60.890625 
Q 47.90625 63.578125 42.921875 64.890625 
Q 37.9375 66.21875 33.296875 66.21875 
Q 25.25 66.21875 20.875 63.09375 
Q 16.5 59.96875 16.5 54.203125 
Q 16.5 49.359375 19.40625 46.890625 
Q 22.3125 44.4375 30.421875 42.921875 
L 36.375 41.703125 
Q 47.40625 39.59375 52.65625 34.296875 
Q 57.90625 29 57.90625 20.125 
Q 57.90625 9.515625 50.796875 4.046875 
Q 43.703125 -1.421875 29.984375 -1.421875 
Q 24.8125 -1.421875 18.96875 -0.25 
Q 13.140625 0.921875 6.890625 3.21875 
L 6.890625 13.375 
Q 12.890625 10.015625 18.65625 8.296875 
Q 24.421875 6.59375 29.984375 6.59375 
Q 38.421875 6.59375 43.015625 9.90625 
Q 47.609375 13.234375 47.609375 19.390625 
Q 47.609375 24.75 44.3125 27.78125 
Q 41.015625 30.8125 33.5 32.328125 
L 27.484375 33.5 
Q 16.453125 35.6875 11.515625 40.375 
Q 6.59375 45.0625 6.59375 53.421875 
Q 6.59375 63.09375 13.40625 68.65625 
Q 20.21875 74.21875 32.171875 74.21875 
Q 37.3125 74.21875 42.625 73.28125 
Q 47.953125 72.359375 53.515625 70.515625 
z
" id="DejaVuSans-83"/>
      <path d="M 45.40625 27.984375 
Q 45.40625 37.75 41.375 43.109375 
Q 37.359375 48.484375 30.078125 48.484375 
Q 22.859375 48.484375 18.828125 43.109375 
Q 14.796875 37.75 14.796875 27.984375 
Q 14.796875 18.265625 18.828125 12.890625 
Q 22.859375 7.515625 30.078125 7.515625 
Q 37.359375 7.515625 41.375 12.890625 
Q 45.40625 18.265625 45.40625 27.984375 
z
M 54.390625 6.78125 
Q 54.390625 -7.171875 48.1875 -13.984375 
Q 42 -20.796875 29.203125 -20.796875 
Q 24.46875 -20.796875 20.265625 -20.09375 
Q 16.0625 -19.390625 12.109375 -17.921875 
L 12.109375 -9.1875 
Q 16.0625 -11.328125 19.921875 -12.34375 
Q 23.78125 -13.375 27.78125 -13.375 
Q 36.625 -13.375 41.015625 -8.765625 
Q 45.40625 -4.15625 45.40625 5.171875 
L 45.40625 9.625 
Q 42.625 4.78125 38.28125 2.390625 
Q 33.9375 0 27.875 0 
Q 17.828125 0 11.671875 7.65625 
Q 5.515625 15.328125 5.515625 27.984375 
Q 5.515625 40.671875 11.671875 48.328125 
Q 17.828125 56 27.875 56 
Q 33.9375 56 38.28125 53.609375 
Q 42.625 51.21875 45.40625 46.390625 
L 45.40625 54.6875 
L 54.390625 54.6875 
z
" id="DejaVuSans-103"/>
      <path d="M 54.890625 33.015625 
L 54.890625 0 
L 45.90625 0 
L 45.90625 32.71875 
Q 45.90625 40.484375 42.875 44.328125 
Q 39.84375 48.1875 33.796875 48.1875 
Q 26.515625 48.1875 22.3125 43.546875 
Q 18.109375 38.921875 18.109375 30.90625 
L 18.109375 0 
L 9.078125 0 
L 9.078125 54.6875 
L 18.109375 54.6875 
L 18.109375 46.1875 
Q 21.34375 51.125 25.703125 53.5625 
Q 30.078125 56 35.796875 56 
Q 45.21875 56 50.046875 50.171875 
Q 54.890625 44.34375 54.890625 33.015625 
z
" id="DejaVuSans-110"/>
      <path d="M 4.203125 54.6875 
L 13.1875 54.6875 
L 24.421875 12.015625 
L 35.59375 54.6875 
L 46.1875 54.6875 
L 57.421875 12.015625 
L 68.609375 54.6875 
L 77.59375 54.6875 
L 63.28125 0 
L 52.6875 0 
L 40.921875 44.828125 
L 29.109375 0 
L 18.5 0 
z
" id="DejaVuSans-119"/>
      <path d="M 54.890625 33.015625 
L 54.890625 0 
L 45.90625 0 
L 45.90625 32.71875 
Q 45.90625 40.484375 42.875 44.328125 
Q 39.84375 48.1875 33.796875 48.1875 
Q 26.515625 48.1875 22.3125 43.546875 
Q 18.109375 38.921875 18.109375 30.90625 
L 18.109375 0 
L 9.078125 0 
L 9.078125 75.984375 
L 18.109375 75.984375 
L 18.109375 46.1875 
Q 21.34375 51.125 25.703125 53.5625 
Q 30.078125 56 35.796875 56 
Q 45.21875 56 50.046875 50.171875 
Q 54.890625 44.34375 54.890625 33.015625 
z
" id="DejaVuSans-104"/>
      <path d="M 19.671875 64.796875 
L 19.671875 8.109375 
L 31.59375 8.109375 
Q 46.6875 8.109375 53.6875 14.9375 
Q 60.6875 21.78125 60.6875 36.53125 
Q 60.6875 51.171875 53.6875 57.984375 
Q 46.6875 64.796875 31.59375 64.796875 
z
M 9.8125 72.90625 
L 30.078125 72.90625 
Q 51.265625 72.90625 61.171875 64.09375 
Q 71.09375 55.28125 71.09375 36.53125 
Q 71.09375 17.671875 61.125 8.828125 
Q 51.171875 0 30.078125 0 
L 9.8125 0 
z
" id="DejaVuSans-68"/>
      <path d="M 48.78125 52.59375 
L 48.78125 44.1875 
Q 44.96875 46.296875 41.140625 47.34375 
Q 37.3125 48.390625 33.40625 48.390625 
Q 24.65625 48.390625 19.8125 42.84375 
Q 14.984375 37.3125 14.984375 27.296875 
Q 14.984375 17.28125 19.8125 11.734375 
Q 24.65625 6.203125 33.40625 6.203125 
Q 37.3125 6.203125 41.140625 7.25 
Q 44.96875 8.296875 48.78125 10.40625 
L 48.78125 2.09375 
Q 45.015625 0.34375 40.984375 -0.53125 
Q 36.96875 -1.421875 32.421875 -1.421875 
Q 20.0625 -1.421875 12.78125 6.34375 
Q 5.515625 14.109375 5.515625 27.296875 
Q 5.515625 40.671875 12.859375 48.328125 
Q 20.21875 56 33.015625 56 
Q 37.15625 56 41.109375 55.140625 
Q 45.0625 54.296875 48.78125 52.59375 
z
" id="DejaVuSans-99"/>
      <path d="M 32.171875 -5.078125 
Q 28.375 -14.84375 24.75 -17.8125 
Q 21.140625 -20.796875 15.09375 -20.796875 
L 7.90625 -20.796875 
L 7.90625 -13.28125 
L 13.1875 -13.28125 
Q 16.890625 -13.28125 18.9375 -11.515625 
Q 21 -9.765625 23.484375 -3.21875 
L 25.09375 0.875 
L 2.984375 54.6875 
L 12.5 54.6875 
L 29.59375 11.921875 
L 46.6875 54.6875 
L 56.203125 54.6875 
z
" id="DejaVuSans-121"/>
     </defs>
     <use xlink:href="#DejaVuSans-83"/>
     <use x="63.476562" xlink:href="#DejaVuSans-105"/>
     <use x="91.259766" xlink:href="#DejaVuSans-103"/>
     <use x="154.736328" xlink:href="#DejaVuSans-110"/>
     <use x="218.115234" xlink:href="#DejaVuSans-97"/>
     <use x="279.394531" xlink:href="#DejaVuSans-108"/>
     <use x="307.177734" xlink:href="#DejaVuSans-32"/>
     <use x="338.964844" xlink:href="#DejaVuSans-119"/>
     <use x="420.751953" xlink:href="#DejaVuSans-105"/>
     <use x="448.535156" xlink:href="#DejaVuSans-116"/>
     <use x="487.744141" xlink:href="#DejaVuSans-104"/>
     <use x="551.123047" xlink:href="#DejaVuSans-32"/>
     <use x="582.910156" xlink:href="#DejaVuSans-68"/>
     <use x="659.912109" xlink:href="#DejaVuSans-101"/>
     <use x="721.435547" xlink:href="#DejaVuSans-99"/>
     <use x="776.416016" xlink:href="#DejaVuSans-97"/>
     <use x="837.695312" xlink:href="#DejaVuSans-121"/>
     <use x="896.875" xlink:href="#DejaVuSans-105"/>
     <use x="924.658203" xlink:href="#DejaVuSans-110"/>
     <use x="988.037109" xlink:href="#DejaVuSans-103"/>
     <use x="1051.513672" xlink:href="#DejaVuSans-32"/>
     <use x="1083.300781" xlink:href="#DejaVuSans-65"/>
     <use x="1151.708984" xlink:href="#DejaVuSans-109"/>
     <use x="1249.121094" xlink:href="#DejaVuSans-112"/>
     <use x="1312.597656" xlink:href="#DejaVuSans-108"/>
     <use x="1340.380859" xlink:href="#DejaVuSans-105"/>
     <use x="1368.164062" xlink:href="#DejaVuSans-116"/>
     <use x="1407.373047" xlink:href="#DejaVuSans-117"/>
     <use x="1470.751953" xlink:href="#DejaVuSans-100"/>
     <use x="1534.228516" xlink:href="#DejaVuSans-101"/>
    </g>
   </g>
   <g id="legend_1">
    <g id="patch_7">
     <path d="M 356.30625 63.274375 
L 414.2 63.274375 
Q 416.2 63.274375 416.2 61.274375 
L 416.2 32.918125 
Q 416.2 30.918125 414.2 30.918125 
L 356.30625 30.918125 
Q 354.30625 30.918125 354.30625 32.918125 
L 354.30625 61.274375 
Q 354.30625 63.274375 356.30625 63.274375 
z
" style="fill:#ffffff;opacity:0.8;stroke:#cccccc;stroke-linejoin:miter;"/>
    </g>
    <g id="line2d_33">
     <path d="M 358.30625 39.016562 
L 378.30625 39.016562 
" style="fill:none;stroke:#440154;stroke-linecap:square;"/>
    </g>
    <g id="line2d_34"/>
    <g id="text_19">
     <!-- Input -->
     <g transform="translate(386.30625 42.516562)scale(0.1 -0.1)">
      <defs>
       <path d="M 9.8125 72.90625 
L 19.671875 72.90625 
L 19.671875 0 
L 9.8125 0 
z
" id="DejaVuSans-73"/>
      </defs>
      <use xlink:href="#DejaVuSans-73"/>
      <use x="29.492188" xlink:href="#DejaVuSans-110"/>
      <use x="92.871094" xlink:href="#DejaVuSans-112"/>
      <use x="156.347656" xlink:href="#DejaVuSans-117"/>
      <use x="219.726562" xlink:href="#DejaVuSans-116"/>
     </g>
    </g>
    <g id="line2d_35">
     <path d="M 358.30625 53.694687 
L 378.30625 53.694687 
" style="fill:none;stroke:#21918c;stroke-linecap:square;"/>
    </g>
    <g id="line2d_36"/>
    <g id="text_20">
     <!-- Abs. -->
     <g transform="translate(386.30625 57.194687)scale(0.1 -0.1)">
      <defs>
       <path d="M 48.6875 27.296875 
Q 48.6875 37.203125 44.609375 42.84375 
Q 40.53125 48.484375 33.40625 48.484375 
Q 26.265625 48.484375 22.1875 42.84375 
Q 18.109375 37.203125 18.109375 27.296875 
Q 18.109375 17.390625 22.1875 11.75 
Q 26.265625 6.109375 33.40625 6.109375 
Q 40.53125 6.109375 44.609375 11.75 
Q 48.6875 17.390625 48.6875 27.296875 
z
M 18.109375 46.390625 
Q 20.953125 51.265625 25.265625 53.625 
Q 29.59375 56 35.59375 56 
Q 45.5625 56 51.78125 48.09375 
Q 58.015625 40.1875 58.015625 27.296875 
Q 58.015625 14.40625 51.78125 6.484375 
Q 45.5625 -1.421875 35.59375 -1.421875 
Q 29.59375 -1.421875 25.265625 0.953125 
Q 20.953125 3.328125 18.109375 8.203125 
L 18.109375 0 
L 9.078125 0 
L 9.078125 75.984375 
L 18.109375 75.984375 
z
" id="DejaVuSans-98"/>
      </defs>
      <use xlink:href="#DejaVuSans-65"/>
      <use x="68.408203" xlink:href="#DejaVuSans-98"/>
      <use x="131.884766" xlink:href="#DejaVuSans-115"/>
      <use x="183.984375" xlink:href="#DejaVuSans-46"/>
     </g>
    </g>
   </g>
  </g>
 </g>
 <defs>
  <clipPath id="pe87c6ba908">
   <rect height="184.925625" width="365.439062" x="55.760938" y="25.918125"/>
  </clipPath>
 </defs>
</svg>
