<?xml version="1.0" encoding="UTF-8"?>
<!DOCTYPE svg PUBLIC "-//W3C//DTD SVG 1.1//EN" "http://www.w3.org/Graphics/SVG/1.1/DTD/svg11.dtd">
<svg version="1.2" width="152.66mm" height="89.16mm" viewBox="2245 2245 15266 8916" preserveAspectRatio="xMidYMid" fill-rule="evenodd" stroke-width="28.222" stroke-linejoin="round" xmlns="http://www.w3.org/2000/svg" xmlns:ooo="http://xml.openoffice.org/svg/export" xmlns:xlink="http://www.w3.org/1999/xlink" xmlns:presentation="http://sun.com/xmlns/staroffice/presentation" xmlns:smil="http://www.w3.org/2001/SMIL20/" xmlns:anim="urn:oasis:names:tc:opendocument:xmlns:animation:1.0" xml:space="preserve">
 <defs class="EmbeddedBulletChars">
  <g id="bullet-char-template-57356" transform="scale(0.00048828125,-0.00048828125)">
   <path d="M 580,1141 L 1163,571 580,0 -4,571 580,1141 Z"/>
  </g>
  <g id="bullet-char-template-57354" transform="scale(0.00048828125,-0.00048828125)">
   <path d="M 8,1128 L 1137,1128 1137,0 8,0 8,1128 Z"/>
  </g>
  <g id="bullet-char-template-10146" transform="scale(0.00048828125,-0.00048828125)">
   <path d="M 174,0 L 602,739 174,1481 1456,739 174,0 Z M 1358,739 L 309,1346 659,739 1358,739 Z"/>
  </g>
  <g id="bullet-char-template-10132" transform="scale(0.00048828125,-0.00048828125)">
   <path d="M 2015,739 L 1276,0 717,0 1260,543 174,543 174,936 1260,936 717,1481 1274,1481 2015,739 Z"/>
  </g>
  <g id="bullet-char-template-10007" transform="scale(0.00048828125,-0.00048828125)">
   <path d="M 0,-2 C -7,14 -16,27 -25,37 L 356,567 C 262,823 215,952 215,954 215,979 228,992 255,992 264,992 276,990 289,987 310,991 331,999 354,1012 L 381,999 492,748 772,1049 836,1024 860,1049 C 881,1039 901,1025 922,1006 886,937 835,863 770,784 769,783 710,716 594,584 L 774,223 C 774,196 753,168 711,139 L 727,119 C 717,90 699,76 672,76 641,76 570,178 457,381 L 164,-76 C 142,-110 111,-127 72,-127 30,-127 9,-110 8,-76 1,-67 -2,-52 -2,-32 -2,-23 -1,-13 0,-2 Z"/>
  </g>
  <g id="bullet-char-template-10004" transform="scale(0.00048828125,-0.00048828125)">
   <path d="M 285,-33 C 182,-33 111,30 74,156 52,228 41,333 41,471 41,549 55,616 82,672 116,743 169,778 240,778 293,778 328,747 346,684 L 369,508 C 377,444 397,411 428,410 L 1163,1116 C 1174,1127 1196,1133 1229,1133 1271,1133 1292,1118 1292,1087 L 1292,965 C 1292,929 1282,901 1262,881 L 442,47 C 390,-6 338,-33 285,-33 Z"/>
  </g>
  <g id="bullet-char-template-9679" transform="scale(0.00048828125,-0.00048828125)">
   <path d="M 813,0 C 632,0 489,54 383,161 276,268 223,411 223,592 223,773 276,916 383,1023 489,1130 632,1184 813,1184 992,1184 1136,1130 1245,1023 1353,916 1407,772 1407,592 1407,412 1353,268 1245,161 1136,54 992,0 813,0 Z"/>
  </g>
  <g id="bullet-char-template-8226" transform="scale(0.00048828125,-0.00048828125)">
   <path d="M 346,457 C 273,457 209,483 155,535 101,586 74,649 74,723 74,796 101,859 155,911 209,963 273,989 346,989 419,989 480,963 531,910 582,859 608,796 608,723 608,648 583,586 532,535 482,483 420,457 346,457 Z"/>
  </g>
  <g id="bullet-char-template-8211" transform="scale(0.00048828125,-0.00048828125)">
   <path d="M -4,459 L 1135,459 1135,606 -4,606 -4,459 Z"/>
  </g>
  <g id="bullet-char-template-61548" transform="scale(0.00048828125,-0.00048828125)">
   <path d="M 173,740 C 173,903 231,1043 346,1159 462,1274 601,1332 765,1332 928,1332 1067,1274 1183,1159 1299,1043 1357,903 1357,740 1357,577 1299,437 1183,322 1067,206 928,148 765,148 601,148 462,206 346,322 231,437 173,577 173,740 Z"/>
  </g>
 </defs>
 <g class="Page">
  <g class="Graphic">
   <g id="id3">
    <rect class="BoundingBox" stroke="none" fill="none" x="2245" y="2245" width="15266" height="8916"/>
    <path fill="rgb(255,255,255)" stroke="none" d="M 2258,11147 L 17497,11147 17497,2258 2258,2258 2258,11147 Z"/>
    <path fill="rgb(255,255,255)" stroke="none" d="M 3930,9695 L 16830,9695 16830,3172 3930,3172 3930,9695 Z"/>
    <path fill="none" stroke="rgb(176,176,176)" stroke-width="28" stroke-linejoin="round" stroke-linecap="square" d="M 4516,9695 L 4516,3172"/>
    <path fill="none" stroke="rgb(0,0,0)" stroke-width="28" stroke-linejoin="round" d="M 4516,9695 L 4516,9819"/>
    <path fill="rgb(0,0,0)" stroke="none" d="M 4516,9976 C 4498,9976 4484,9985 4475,10002 4466,10020 4462,10046 4462,10082 4462,10117 4466,10143 4475,10161 4484,10179 4498,10187 4516,10187 4534,10187 4547,10179 4556,10161 4565,10143 4570,10117 4570,10082 4570,10046 4565,10020 4556,10002 4547,9985 4534,9976 4516,9976 L 4516,9976 Z M 4516,9948 C 4545,9948 4567,9960 4582,9982 4597,10005 4605,10038 4605,10082 4605,10125 4597,10158 4582,10181 4567,10204 4545,10215 4516,10215 4487,10215 4465,10204 4450,10181 4435,10158 4427,10125 4427,10082 4427,10038 4435,10005 4450,9982 4465,9960 4487,9948 4516,9948 L 4516,9948 Z"/>
    <path fill="none" stroke="rgb(176,176,176)" stroke-width="28" stroke-linejoin="round" stroke-linecap="square" d="M 6559,9695 L 6559,3172"/>
    <path fill="none" stroke="rgb(0,0,0)" stroke-width="28" stroke-linejoin="round" d="M 6559,9695 L 6559,9819"/>
    <path fill="rgb(0,0,0)" stroke="none" d="M 6373,9953 L 6509,9953 6509,9982 6405,9982 6405,10045 C 6410,10043 6415,10042 6420,10041 6425,10040 6430,10040 6435,10040 6464,10040 6486,10048 6503,10064 6520,10079 6528,10101 6528,10128 6528,10155 6520,10177 6502,10192 6485,10207 6461,10215 6430,10215 6419,10215 6408,10214 6396,10212 6385,10210 6374,10208 6362,10204 L 6362,10169 C 6372,10175 6383,10179 6394,10182 6405,10184 6417,10186 6429,10186 6449,10186 6464,10181 6476,10170 6488,10160 6493,10145 6493,10128 6493,10110 6488,10095 6476,10085 6464,10075 6449,10069 6429,10069 6419,10069 6410,10070 6401,10072 6392,10074 6382,10078 6373,10082 L 6373,9953 Z"/>
    <path fill="rgb(0,0,0)" stroke="none" d="M 6671,9976 C 6653,9976 6640,9985 6631,10002 6622,10020 6617,10046 6617,10082 6617,10117 6622,10143 6631,10161 6640,10179 6653,10187 6671,10187 6689,10187 6703,10179 6712,10161 6721,10143 6725,10117 6725,10082 6725,10046 6721,10020 6712,10002 6703,9985 6689,9976 6671,9976 L 6671,9976 Z M 6671,9948 C 6700,9948 6722,9960 6737,9982 6752,10005 6760,10038 6760,10082 6760,10125 6752,10158 6737,10181 6722,10204 6700,10215 6671,10215 6642,10215 6620,10204 6605,10181 6590,10158 6582,10125 6582,10082 6582,10038 6590,10005 6605,9982 6620,9960 6642,9948 6671,9948 L 6671,9948 Z"/>
    <path fill="none" stroke="rgb(176,176,176)" stroke-width="28" stroke-linejoin="round" stroke-linecap="square" d="M 8602,9695 L 8602,3172"/>
    <path fill="none" stroke="rgb(0,0,0)" stroke-width="28" stroke-linejoin="round" d="M 8602,9695 L 8602,9819"/>
    <path fill="rgb(0,0,0)" stroke="none" d="M 8309,10181 L 8366,10181 8366,9985 8304,9997 8304,9965 8366,9953 8401,9953 8401,10181 8457,10181 8457,10210 8309,10210 8309,10181 Z"/>
    <path fill="rgb(0,0,0)" stroke="none" d="M 8602,9976 C 8584,9976 8571,9985 8562,10002 8553,10020 8548,10046 8548,10082 8548,10117 8553,10143 8562,10161 8571,10179 8584,10187 8602,10187 8620,10187 8634,10179 8643,10161 8652,10143 8656,10117 8656,10082 8656,10046 8652,10020 8643,10002 8634,9985 8620,9976 8602,9976 L 8602,9976 Z M 8602,9948 C 8631,9948 8653,9960 8668,9982 8683,10005 8691,10038 8691,10082 8691,10125 8683,10158 8668,10181 8653,10204 8631,10215 8602,10215 8573,10215 8551,10204 8536,10181 8521,10158 8513,10125 8513,10082 8513,10038 8521,10005 8536,9982 8551,9960 8573,9948 8602,9948 L 8602,9948 Z"/>
    <path fill="rgb(0,0,0)" stroke="none" d="M 8826,9976 C 8809,9976 8795,9985 8786,10002 8777,10020 8773,10046 8773,10082 8773,10117 8777,10143 8786,10161 8795,10179 8809,10187 8826,10187 8844,10187 8858,10179 8867,10161 8876,10143 8881,10117 8881,10082 8881,10046 8876,10020 8867,10002 8858,9985 8844,9976 8826,9976 L 8826,9976 Z M 8826,9948 C 8855,9948 8877,9960 8893,9982 8908,10005 8915,10038 8915,10082 8915,10125 8908,10158 8893,10181 8877,10204 8855,10215 8826,10215 8798,10215 8776,10204 8760,10181 8745,10158 8738,10125 8738,10082 8738,10038 8745,10005 8760,9982 8776,9960 8798,9948 8826,9948 L 8826,9948 Z"/>
    <path fill="none" stroke="rgb(176,176,176)" stroke-width="28" stroke-linejoin="round" stroke-linecap="square" d="M 10645,9695 L 10645,3172"/>
    <path fill="none" stroke="rgb(0,0,0)" stroke-width="28" stroke-linejoin="round" d="M 10645,9695 L 10645,9819"/>
    <path fill="rgb(0,0,0)" stroke="none" d="M 10352,10181 L 10409,10181 10409,9985 10347,9997 10347,9965 10409,9953 10444,9953 10444,10181 10500,10181 10500,10210 10352,10210 10352,10181 Z"/>
    <path fill="rgb(0,0,0)" stroke="none" d="M 10571,9953 L 10708,9953 10708,9982 10603,9982 10603,10045 C 10608,10043 10613,10042 10618,10041 10623,10040 10628,10040 10633,10040 10662,10040 10685,10048 10701,10064 10718,10079 10727,10101 10727,10128 10727,10155 10718,10177 10701,10192 10684,10207 10659,10215 10628,10215 10617,10215 10606,10214 10595,10212 10584,10210 10572,10208 10560,10204 L 10560,10169 C 10571,10175 10581,10179 10592,10182 10603,10184 10615,10186 10627,10186 10647,10186 10663,10181 10674,10170 10686,10160 10692,10145 10692,10128 10692,10110 10686,10095 10674,10085 10663,10075 10647,10069 10627,10069 10618,10069 10609,10070 10599,10072 10590,10074 10581,10078 10571,10082 L 10571,9953 Z"/>
    <path fill="rgb(0,0,0)" stroke="none" d="M 10870,9976 C 10852,9976 10838,9985 10829,10002 10820,10020 10816,10046 10816,10082 10816,10117 10820,10143 10829,10161 10838,10179 10852,10187 10870,10187 10888,10187 10901,10179 10910,10161 10919,10143 10924,10117 10924,10082 10924,10046 10919,10020 10910,10002 10901,9985 10888,9976 10870,9976 L 10870,9976 Z M 10870,9948 C 10898,9948 10920,9960 10936,9982 10951,10005 10958,10038 10958,10082 10958,10125 10951,10158 10936,10181 10920,10204 10898,10215 10870,10215 10841,10215 10819,10204 10803,10181 10788,10158 10781,10125 10781,10082 10781,10038 10788,10005 10803,9982 10819,9960 10841,9948 10870,9948 L 10870,9948 Z"/>
    <path fill="none" stroke="rgb(176,176,176)" stroke-width="28" stroke-linejoin="round" stroke-linecap="square" d="M 12688,9695 L 12688,3172"/>
    <path fill="none" stroke="rgb(0,0,0)" stroke-width="28" stroke-linejoin="round" d="M 12688,9695 L 12688,9819"/>
    <path fill="rgb(0,0,0)" stroke="none" d="M 12419,10181 L 12541,10181 12541,10210 12378,10210 12378,10181 C 12391,10167 12409,10149 12431,10126 12454,10103 12469,10088 12474,10081 12486,10069 12493,10058 12498,10049 12502,10041 12504,10032 12504,10024 12504,10010 12500,9999 12490,9990 12480,9982 12468,9978 12453,9978 12442,9978 12430,9979 12418,9983 12406,9987 12393,9993 12379,10000 L 12379,9965 C 12393,9960 12406,9955 12418,9953 12431,9950 12442,9948 12452,9948 12479,9948 12500,9955 12516,9968 12531,9982 12539,9999 12539,10022 12539,10032 12537,10042 12533,10052 12530,10061 12522,10072 12512,10085 12509,10088 12500,10098 12484,10114 12469,10130 12447,10152 12419,10181 L 12419,10181 Z"/>
    <path fill="rgb(0,0,0)" stroke="none" d="M 12688,9976 C 12670,9976 12657,9985 12648,10002 12639,10020 12634,10046 12634,10082 12634,10117 12639,10143 12648,10161 12657,10179 12670,10187 12688,10187 12706,10187 12720,10179 12729,10161 12738,10143 12742,10117 12742,10082 12742,10046 12738,10020 12729,10002 12720,9985 12706,9976 12688,9976 L 12688,9976 Z M 12688,9948 C 12717,9948 12739,9960 12754,9982 12769,10005 12777,10038 12777,10082 12777,10125 12769,10158 12754,10181 12739,10204 12717,10215 12688,10215 12659,10215 12637,10204 12622,10181 12607,10158 12599,10125 12599,10082 12599,10038 12607,10005 12622,9982 12637,9960 12659,9948 12688,9948 L 12688,9948 Z"/>
    <path fill="rgb(0,0,0)" stroke="none" d="M 12913,9976 C 12895,9976 12881,9985 12872,10002 12863,10020 12859,10046 12859,10082 12859,10117 12863,10143 12872,10161 12881,10179 12895,10187 12913,10187 12931,10187 12944,10179 12953,10161 12962,10143 12967,10117 12967,10082 12967,10046 12962,10020 12953,10002 12944,9985 12931,9976 12913,9976 L 12913,9976 Z M 12913,9948 C 12941,9948 12963,9960 12979,9982 12994,10005 13002,10038 13002,10082 13002,10125 12994,10158 12979,10181 12963,10204 12941,10215 12913,10215 12884,10215 12862,10204 12847,10181 12831,10158 12824,10125 12824,10082 12824,10038 12831,10005 12847,9982 12862,9960 12884,9948 12913,9948 L 12913,9948 Z"/>
    <path fill="none" stroke="rgb(176,176,176)" stroke-width="28" stroke-linejoin="round" stroke-linecap="square" d="M 14731,9695 L 14731,3172"/>
    <path fill="none" stroke="rgb(0,0,0)" stroke-width="28" stroke-linejoin="round" d="M 14731,9695 L 14731,9819"/>
    <path fill="rgb(0,0,0)" stroke="none" d="M 14462,10181 L 14584,10181 14584,10210 14421,10210 14421,10181 C 14434,10167 14452,10149 14475,10126 14497,10103 14512,10088 14518,10081 14529,10069 14536,10058 14541,10049 14545,10041 14548,10032 14548,10024 14548,10010 14543,9999 14533,9990 14524,9982 14511,9978 14496,9978 14485,9978 14473,9979 14461,9983 14449,9987 14436,9993 14422,10000 L 14422,9965 C 14436,9960 14449,9955 14462,9953 14474,9950 14485,9948 14495,9948 14522,9948 14543,9955 14559,9968 14575,9982 14582,9999 14582,10022 14582,10032 14580,10042 14577,10052 14573,10061 14565,10072 14555,10085 14552,10088 14543,10098 14528,10114 14512,10130 14490,10152 14462,10181 L 14462,10181 Z"/>
    <path fill="rgb(0,0,0)" stroke="none" d="M 14657,9953 L 14794,9953 14794,9982 14689,9982 14689,10045 C 14694,10043 14699,10042 14704,10041 14709,10040 14714,10040 14719,10040 14748,10040 14771,10048 14788,10064 14804,10079 14813,10101 14813,10128 14813,10155 14804,10177 14787,10192 14770,10207 14745,10215 14714,10215 14703,10215 14692,10214 14681,10212 14670,10210 14658,10208 14646,10204 L 14646,10169 C 14657,10175 14667,10179 14678,10182 14689,10184 14701,10186 14713,10186 14733,10186 14749,10181 14761,10170 14772,10160 14778,10145 14778,10128 14778,10110 14772,10095 14761,10085 14749,10075 14733,10069 14713,10069 14704,10069 14695,10070 14686,10072 14676,10074 14667,10078 14657,10082 L 14657,9953 Z"/>
    <path fill="rgb(0,0,0)" stroke="none" d="M 14956,9976 C 14938,9976 14924,9985 14915,10002 14906,10020 14902,10046 14902,10082 14902,10117 14906,10143 14915,10161 14924,10179 14938,10187 14956,10187 14974,10187 14987,10179 14996,10161 15005,10143 15010,10117 15010,10082 15010,10046 15005,10020 14996,10002 14987,9985 14974,9976 14956,9976 L 14956,9976 Z M 14956,9948 C 14985,9948 15007,9960 15022,9982 15037,10005 15045,10038 15045,10082 15045,10125 15037,10158 15022,10181 15007,10204 14985,10215 14956,10215 14927,10215 14905,10204 14890,10181 14874,10158 14867,10125 14867,10082 14867,10038 14874,10005 14890,9982 14905,9960 14927,9948 14956,9948 L 14956,9948 Z"/>
    <path fill="none" stroke="rgb(176,176,176)" stroke-width="28" stroke-linejoin="round" stroke-linecap="square" d="M 16774,9695 L 16774,3172"/>
    <path fill="none" stroke="rgb(0,0,0)" stroke-width="28" stroke-linejoin="round" d="M 16774,9695 L 16774,9819"/>
    <path fill="rgb(0,0,0)" stroke="none" d="M 16581,10071 C 16598,10075 16611,10082 16620,10094 16629,10105 16634,10119 16634,10135 16634,10161 16625,10180 16608,10194 16590,10208 16566,10215 16533,10215 16523,10215 16512,10214 16500,10212 16489,10210 16477,10207 16465,10202 L 16465,10169 C 16474,10174 16485,10179 16496,10181 16508,10184 16520,10186 16532,10186 16554,10186 16571,10181 16582,10173 16594,10164 16599,10152 16599,10135 16599,10120 16594,10108 16583,10100 16573,10091 16558,10087 16539,10087 L 16509,10087 16509,10058 16541,10058 C 16558,10058 16571,10055 16580,10048 16589,10041 16593,10031 16593,10019 16593,10005 16589,9995 16579,9988 16570,9981 16557,9978 16539,9978 16530,9978 16519,9979 16508,9981 16498,9983 16486,9986 16472,9990 L 16472,9959 C 16486,9956 16498,9953 16510,9951 16521,9949 16532,9948 16542,9948 16569,9948 16590,9954 16605,9966 16620,9978 16628,9994 16628,10015 16628,10029 16624,10041 16616,10051 16608,10061 16596,10068 16581,10071 L 16581,10071 Z"/>
    <path fill="rgb(0,0,0)" stroke="none" d="M 16774,9976 C 16756,9976 16743,9985 16734,10002 16725,10020 16720,10046 16720,10082 16720,10117 16725,10143 16734,10161 16743,10179 16756,10187 16774,10187 16792,10187 16806,10179 16815,10161 16824,10143 16829,10117 16829,10082 16829,10046 16824,10020 16815,10002 16806,9985 16792,9976 16774,9976 L 16774,9976 Z M 16774,9948 C 16803,9948 16825,9960 16840,9982 16856,10005 16863,10038 16863,10082 16863,10125 16856,10158 16840,10181 16825,10204 16803,10215 16774,10215 16746,10215 16724,10204 16708,10181 16693,10158 16686,10125 16686,10082 16686,10038 16693,10005 16708,9982 16724,9960 16746,9948 16774,9948 L 16774,9948 Z"/>
    <path fill="rgb(0,0,0)" stroke="none" d="M 16999,9976 C 16981,9976 16967,9985 16958,10002 16949,10020 16945,10046 16945,10082 16945,10117 16949,10143 16958,10161 16967,10179 16981,10187 16999,10187 17017,10187 17030,10179 17039,10161 17048,10143 17053,10117 17053,10082 17053,10046 17048,10020 17039,10002 17030,9985 17017,9976 16999,9976 L 16999,9976 Z M 16999,9948 C 17028,9948 17050,9960 17065,9982 17080,10005 17088,10038 17088,10082 17088,10125 17080,10158 17065,10181 17050,10204 17028,10215 16999,10215 16970,10215 16948,10204 16933,10181 16918,10158 16910,10125 16910,10082 16910,10038 16918,10005 16933,9982 16948,9960 16970,9948 16999,9948 L 16999,9948 Z"/>
    <path fill="rgb(0,0,0)" stroke="none" d="M 9112,10435 L 9330,10435 9330,10465 9238,10465 9238,10692 9203,10692 9203,10465 9112,10465 9112,10435 Z"/>
    <path fill="rgb(0,0,0)" stroke="none" d="M 9351,10500 L 9383,10500 9383,10692 9351,10692 9351,10500 Z M 9351,10424 L 9383,10424 9383,10465 9351,10465 9351,10424 Z"/>
    <path fill="rgb(0,0,0)" stroke="none" d="M 9599,10537 C 9607,10522 9616,10512 9627,10505 9638,10498 9651,10495 9666,10495 9686,10495 9702,10502 9713,10516 9724,10530 9729,10550 9729,10576 L 9729,10692 9697,10692 9697,10577 C 9697,10559 9694,10545 9688,10536 9681,10527 9671,10523 9658,10523 9641,10523 9628,10528 9619,10539 9609,10550 9604,10565 9604,10583 L 9604,10692 9573,10692 9573,10577 C 9573,10558 9569,10545 9563,10536 9556,10527 9546,10523 9532,10523 9516,10523 9503,10528 9494,10539 9484,10550 9479,10565 9479,10583 L 9479,10692 9448,10692 9448,10500 9479,10500 9479,10530 C 9487,10518 9495,10509 9506,10503 9516,10498 9528,10495 9541,10495 9556,10495 9567,10499 9577,10506 9587,10513 9594,10523 9599,10537 L 9599,10537 Z"/>
    <path fill="rgb(0,0,0)" stroke="none" d="M 9957,10588 L 9957,10604 9812,10604 C 9813,10625 9820,10642 9831,10653 9843,10665 9860,10671 9881,10671 9893,10671 9905,10669 9916,10666 9927,10663 9939,10659 9950,10653 L 9950,10683 C 9939,10687 9927,10691 9915,10694 9903,10696 9891,10697 9879,10697 9848,10697 9824,10689 9806,10671 9788,10653 9779,10628 9779,10598 9779,10566 9787,10541 9804,10523 9821,10504 9844,10495 9873,10495 9899,10495 9920,10503 9935,10520 9950,10537 9957,10559 9957,10588 L 9957,10588 Z M 9926,10579 C 9926,10561 9921,10548 9911,10537 9902,10527 9889,10522 9874,10522 9856,10522 9842,10527 9831,10537 9821,10547 9814,10561 9813,10579 L 9926,10579 Z"/>
    <path fill="rgb(0,0,0)" stroke="none" d="M 10119,10424 L 10192,10424 10192,10449 10150,10449 10150,10714 10192,10714 10192,10739 10119,10739 10119,10424 Z"/>
    <path fill="rgb(0,0,0)" stroke="none" d="M 10382,10505 L 10382,10535 C 10373,10531 10364,10527 10354,10525 10345,10523 10335,10521 10324,10521 10309,10521 10297,10524 10289,10529 10281,10533 10277,10541 10277,10550 10277,10558 10280,10564 10286,10568 10291,10572 10303,10576 10320,10580 L 10330,10582 C 10353,10587 10369,10594 10378,10602 10388,10611 10393,10624 10393,10639 10393,10657 10385,10671 10371,10682 10357,10692 10338,10697 10313,10697 10302,10697 10292,10696 10280,10694 10269,10692 10257,10689 10245,10685 L 10245,10653 C 10257,10659 10268,10663 10280,10666 10291,10669 10302,10671 10314,10671 10328,10671 10340,10668 10348,10663 10356,10658 10360,10651 10360,10642 10360,10633 10357,10626 10351,10622 10345,10617 10333,10613 10313,10609 L 10302,10606 C 10282,10602 10268,10596 10260,10587 10251,10578 10246,10567 10246,10552 10246,10534 10253,10520 10266,10510 10279,10500 10297,10495 10321,10495 10332,10495 10343,10496 10354,10498 10364,10499 10373,10502 10382,10505 L 10382,10505 Z"/>
    <path fill="rgb(0,0,0)" stroke="none" d="M 10531,10596 C 10505,10596 10487,10598 10477,10604 10468,10610 10463,10620 10463,10634 10463,10646 10466,10654 10474,10661 10481,10668 10491,10671 10504,10671 10522,10671 10536,10665 10546,10652 10557,10640 10562,10623 10562,10603 L 10562,10596 10531,10596 Z M 10594,10582 L 10594,10692 10562,10692 10562,10663 C 10555,10675 10546,10684 10535,10689 10524,10695 10511,10697 10496,10697 10476,10697 10460,10692 10448,10681 10437,10670 10431,10655 10431,10636 10431,10615 10438,10598 10453,10587 10467,10576 10489,10571 10518,10571 L 10562,10571 10562,10568 C 10562,10553 10557,10542 10548,10534 10538,10526 10525,10522 10507,10522 10496,10522 10486,10523 10475,10526 10465,10528 10455,10532 10445,10538 L 10445,10508 C 10457,10504 10468,10501 10479,10498 10490,10496 10500,10495 10511,10495 10539,10495 10559,10502 10573,10517 10587,10531 10594,10553 10594,10582 L 10594,10582 Z"/>
    <path fill="rgb(0,0,0)" stroke="none" d="M 10809,10537 C 10817,10522 10827,10512 10838,10505 10849,10498 10862,10495 10877,10495 10897,10495 10912,10502 10923,10516 10934,10530 10940,10550 10940,10576 L 10940,10692 10908,10692 10908,10577 C 10908,10559 10904,10545 10898,10536 10891,10527 10881,10523 10868,10523 10852,10523 10839,10528 10829,10539 10819,10550 10815,10565 10815,10583 L 10815,10692 10783,10692 10783,10577 C 10783,10558 10780,10545 10773,10536 10766,10527 10756,10523 10743,10523 10727,10523 10714,10528 10704,10539 10695,10550 10690,10565 10690,10583 L 10690,10692 10658,10692 10658,10500 10690,10500 10690,10530 C 10697,10518 10706,10509 10716,10503 10726,10498 10738,10495 10752,10495 10766,10495 10778,10499 10788,10506 10797,10513 10805,10523 10809,10537 L 10809,10537 Z"/>
    <path fill="rgb(0,0,0)" stroke="none" d="M 11033,10664 L 11033,10766 11002,10766 11002,10500 11033,10500 11033,10529 C 11040,10517 11049,10509 11059,10503 11069,10498 11081,10495 11095,10495 11119,10495 11138,10504 11152,10523 11167,10541 11174,10566 11174,10596 11174,10627 11167,10651 11152,10670 11138,10688 11119,10697 11095,10697 11081,10697 11069,10695 11059,10689 11049,10684 11040,10675 11033,10664 L 11033,10664 Z M 11141,10596 C 11141,10573 11136,10555 11127,10541 11117,10528 11104,10521 11087,10521 11071,10521 11057,10528 11048,10541 11038,10555 11033,10573 11033,10596 11033,10619 11038,10638 11048,10651 11057,10664 11071,10671 11087,10671 11104,10671 11117,10664 11127,10651 11136,10638 11141,10619 11141,10596 L 11141,10596 Z"/>
    <path fill="rgb(0,0,0)" stroke="none" d="M 11227,10424 L 11258,10424 11258,10692 11227,10692 11227,10424 Z"/>
    <path fill="rgb(0,0,0)" stroke="none" d="M 11490,10588 L 11490,10604 11344,10604 C 11345,10625 11352,10642 11364,10653 11375,10665 11392,10671 11413,10671 11425,10671 11437,10669 11448,10666 11460,10663 11471,10659 11482,10653 L 11482,10683 C 11471,10687 11459,10691 11447,10694 11435,10696 11423,10697 11411,10697 11380,10697 11356,10689 11338,10671 11320,10653 11311,10628 11311,10598 11311,10566 11319,10541 11336,10523 11354,10504 11377,10495 11405,10495 11431,10495 11452,10503 11467,10520 11482,10537 11490,10559 11490,10588 L 11490,10588 Z M 11458,10579 C 11458,10561 11453,10548 11443,10537 11434,10527 11421,10522 11406,10522 11388,10522 11374,10527 11363,10537 11353,10547 11347,10561 11345,10579 L 11458,10579 Z"/>
    <path fill="rgb(0,0,0)" stroke="none" d="M 11616,10424 L 11616,10739 11543,10739 11543,10714 11584,10714 11584,10449 11543,10449 11543,10424 11616,10424 Z"/>
    <path fill="none" stroke="rgb(176,176,176)" stroke-width="28" stroke-linejoin="round" stroke-linecap="square" d="M 3930,9399 L 16830,9399"/>
    <path fill="none" stroke="rgb(0,0,0)" stroke-width="28" stroke-linejoin="round" d="M 3930,9399 L 3806,9399"/>
    <path fill="rgb(0,0,0)" stroke="none" d="M 3234,9298 C 3216,9298 3202,9307 3193,9325 3184,9342 3180,9369 3180,9404 3180,9440 3184,9466 3193,9484 3202,9501 3216,9510 3234,9510 3252,9510 3265,9501 3274,9484 3283,9466 3288,9440 3288,9404 3288,9369 3283,9342 3274,9325 3265,9307 3252,9298 3234,9298 L 3234,9298 Z M 3234,9271 C 3263,9271 3285,9282 3300,9305 3315,9328 3323,9361 3323,9404 3323,9448 3315,9481 3300,9503 3285,9526 3263,9538 3234,9538 3205,9538 3183,9526 3168,9503 3153,9481 3145,9448 3145,9404 3145,9361 3153,9328 3168,9305 3183,9282 3205,9271 3234,9271 L 3234,9271 Z"/>
    <path fill="rgb(0,0,0)" stroke="none" d="M 3384,9489 L 3420,9489 3420,9533 3384,9533 3384,9489 Z"/>
    <path fill="rgb(0,0,0)" stroke="none" d="M 3570,9298 C 3552,9298 3539,9307 3530,9325 3521,9342 3516,9369 3516,9404 3516,9440 3521,9466 3530,9484 3539,9501 3552,9510 3570,9510 3588,9510 3602,9501 3611,9484 3620,9466 3624,9440 3624,9404 3624,9369 3620,9342 3611,9325 3602,9307 3588,9298 3570,9298 L 3570,9298 Z M 3570,9271 C 3599,9271 3621,9282 3636,9305 3652,9328 3659,9361 3659,9404 3659,9448 3652,9481 3636,9503 3621,9526 3599,9538 3570,9538 3542,9538 3520,9526 3504,9503 3489,9481 3481,9448 3481,9404 3481,9361 3489,9328 3504,9305 3520,9282 3542,9271 3570,9271 L 3570,9271 Z"/>
    <path fill="none" stroke="rgb(176,176,176)" stroke-width="28" stroke-linejoin="round" stroke-linecap="square" d="M 3930,8094 L 16830,8094"/>
    <path fill="none" stroke="rgb(0,0,0)" stroke-width="28" stroke-linejoin="round" d="M 3930,8094 L 3806,8094"/>
    <path fill="rgb(0,0,0)" stroke="none" d="M 3234,7994 C 3216,7994 3202,8003 3193,8021 3184,8038 3180,8065 3180,8100 3180,8135 3184,8162 3193,8179 3202,8197 3216,8206 3234,8206 3252,8206 3265,8197 3274,8179 3283,8162 3288,8135 3288,8100 3288,8065 3283,8038 3274,8021 3265,8003 3252,7994 3234,7994 L 3234,7994 Z M 3234,7967 C 3263,7967 3285,7978 3300,8001 3315,8024 3323,8057 3323,8100 3323,8143 3315,8177 3300,8199 3285,8222 3263,8234 3234,8234 3205,8234 3183,8222 3168,8199 3153,8177 3145,8143 3145,8100 3145,8057 3153,8024 3168,8001 3183,7978 3205,7967 3234,7967 L 3234,7967 Z"/>
    <path fill="rgb(0,0,0)" stroke="none" d="M 3384,8185 L 3420,8185 3420,8228 3384,8228 3384,8185 Z"/>
    <path fill="rgb(0,0,0)" stroke="none" d="M 3526,8199 L 3647,8199 3647,8228 3484,8228 3484,8199 C 3497,8186 3515,8167 3538,8144 3561,8121 3575,8106 3581,8100 3592,8087 3600,8077 3604,8068 3609,8059 3611,8051 3611,8042 3611,8029 3606,8018 3597,8009 3587,8000 3575,7996 3559,7996 3548,7996 3537,7998 3525,8002 3513,8005 3500,8011 3486,8019 L 3486,7984 C 3500,7978 3513,7974 3525,7971 3537,7968 3548,7967 3558,7967 3585,7967 3606,7973 3622,7987 3638,8000 3646,8018 3646,8040 3646,8051 3644,8061 3640,8070 3636,8080 3629,8091 3618,8104 3616,8107 3606,8117 3591,8132 3576,8148 3554,8171 3526,8199 L 3526,8199 Z"/>
    <path fill="none" stroke="rgb(176,176,176)" stroke-width="28" stroke-linejoin="round" stroke-linecap="square" d="M 3930,6790 L 16830,6790"/>
    <path fill="none" stroke="rgb(0,0,0)" stroke-width="28" stroke-linejoin="round" d="M 3930,6790 L 3806,6790"/>
    <path fill="rgb(0,0,0)" stroke="none" d="M 3234,6690 C 3216,6690 3202,6699 3193,6717 3184,6734 3180,6761 3180,6796 3180,6831 3184,6858 3193,6875 3202,6893 3216,6902 3234,6902 3252,6902 3265,6893 3274,6875 3283,6858 3288,6831 3288,6796 3288,6761 3283,6734 3274,6717 3265,6699 3252,6690 3234,6690 L 3234,6690 Z M 3234,6663 C 3263,6663 3285,6674 3300,6697 3315,6720 3323,6753 3323,6796 3323,6839 3315,6872 3300,6895 3285,6918 3263,6929 3234,6929 3205,6929 3183,6918 3168,6895 3153,6872 3145,6839 3145,6796 3145,6753 3153,6720 3168,6697 3183,6674 3205,6663 3234,6663 L 3234,6663 Z"/>
    <path fill="rgb(0,0,0)" stroke="none" d="M 3384,6881 L 3420,6881 3420,6924 3384,6924 3384,6881 Z"/>
    <path fill="rgb(0,0,0)" stroke="none" d="M 3592,6698 L 3504,6835 3592,6835 3592,6698 Z M 3582,6667 L 3626,6667 3626,6835 3663,6835 3663,6864 3626,6864 3626,6924 3592,6924 3592,6864 3475,6864 3475,6830 3582,6667 Z"/>
    <path fill="none" stroke="rgb(176,176,176)" stroke-width="28" stroke-linejoin="round" stroke-linecap="square" d="M 3930,5486 L 16830,5486"/>
    <path fill="none" stroke="rgb(0,0,0)" stroke-width="28" stroke-linejoin="round" d="M 3930,5486 L 3806,5486"/>
    <path fill="rgb(0,0,0)" stroke="none" d="M 3234,5386 C 3216,5386 3202,5395 3193,5412 3184,5430 3180,5457 3180,5492 3180,5527 3184,5554 3193,5571 3202,5589 3216,5598 3234,5598 3252,5598 3265,5589 3274,5571 3283,5554 3288,5527 3288,5492 3288,5457 3283,5430 3274,5412 3265,5395 3252,5386 3234,5386 L 3234,5386 Z M 3234,5358 C 3263,5358 3285,5370 3300,5393 3315,5415 3323,5449 3323,5492 3323,5535 3315,5568 3300,5591 3285,5614 3263,5625 3234,5625 3205,5625 3183,5614 3168,5591 3153,5568 3145,5535 3145,5492 3145,5449 3153,5415 3168,5393 3183,5370 3205,5358 3234,5358 L 3234,5358 Z"/>
    <path fill="rgb(0,0,0)" stroke="none" d="M 3384,5576 L 3420,5576 3420,5620 3384,5620 3384,5576 Z"/>
    <path fill="rgb(0,0,0)" stroke="none" d="M 3575,5478 C 3559,5478 3547,5483 3538,5494 3528,5504 3524,5519 3524,5538 3524,5556 3528,5571 3538,5582 3547,5592 3559,5598 3575,5598 3590,5598 3603,5592 3612,5582 3621,5571 3625,5556 3625,5538 3625,5519 3621,5504 3612,5494 3603,5483 3590,5478 3575,5478 L 3575,5478 Z M 3644,5369 L 3644,5400 C 3635,5396 3626,5393 3617,5391 3608,5389 3600,5388 3591,5388 3568,5388 3550,5395 3538,5411 3526,5426 3519,5450 3517,5481 3524,5471 3533,5464 3543,5458 3553,5453 3564,5450 3577,5450 3603,5450 3623,5458 3638,5474 3653,5489 3660,5511 3660,5538 3660,5564 3653,5585 3637,5601 3621,5617 3601,5625 3575,5625 3545,5625 3522,5614 3506,5591 3491,5568 3483,5535 3483,5492 3483,5451 3493,5419 3512,5395 3531,5371 3557,5358 3589,5358 3598,5358 3607,5359 3616,5361 3625,5363 3634,5365 3644,5369 L 3644,5369 Z"/>
    <path fill="none" stroke="rgb(176,176,176)" stroke-width="28" stroke-linejoin="round" stroke-linecap="square" d="M 3930,4182 L 16830,4182"/>
    <path fill="none" stroke="rgb(0,0,0)" stroke-width="28" stroke-linejoin="round" d="M 3930,4182 L 3806,4182"/>
    <path fill="rgb(0,0,0)" stroke="none" d="M 3234,4082 C 3216,4082 3202,4091 3193,4108 3184,4126 3180,4152 3180,4188 3180,4223 3184,4249 3193,4267 3202,4285 3216,4294 3234,4294 3252,4294 3265,4285 3274,4267 3283,4249 3288,4223 3288,4188 3288,4152 3283,4126 3274,4108 3265,4091 3252,4082 3234,4082 L 3234,4082 Z M 3234,4054 C 3263,4054 3285,4066 3300,4089 3315,4111 3323,4144 3323,4188 3323,4231 3315,4264 3300,4287 3285,4310 3263,4321 3234,4321 3205,4321 3183,4310 3168,4287 3153,4264 3145,4231 3145,4188 3145,4144 3153,4111 3168,4089 3183,4066 3205,4054 3234,4054 L 3234,4054 Z"/>
    <path fill="rgb(0,0,0)" stroke="none" d="M 3384,4272 L 3420,4272 3420,4316 3384,4316 3384,4272 Z"/>
    <path fill="rgb(0,0,0)" stroke="none" d="M 3570,4194 C 3554,4194 3541,4198 3531,4207 3522,4216 3517,4228 3517,4244 3517,4259 3522,4271 3531,4280 3541,4289 3554,4294 3570,4294 3587,4294 3600,4289 3609,4280 3619,4271 3624,4259 3624,4244 3624,4228 3619,4216 3610,4207 3600,4198 3587,4194 3570,4194 L 3570,4194 Z M 3536,4179 C 3521,4175 3509,4169 3501,4158 3492,4148 3488,4136 3488,4121 3488,4100 3496,4084 3510,4072 3525,4060 3545,4054 3570,4054 3596,4054 3616,4060 3631,4072 3645,4084 3653,4100 3653,4121 3653,4136 3648,4148 3640,4158 3632,4169 3620,4175 3605,4179 3622,4183 3635,4191 3644,4202 3654,4213 3659,4227 3659,4244 3659,4269 3651,4288 3636,4301 3620,4314 3599,4321 3570,4321 3542,4321 3520,4314 3505,4301 3490,4288 3482,4269 3482,4244 3482,4227 3487,4213 3496,4202 3506,4191 3519,4183 3536,4179 L 3536,4179 Z M 3523,4124 C 3523,4138 3527,4148 3535,4155 3544,4163 3555,4167 3570,4167 3585,4167 3597,4163 3605,4155 3614,4148 3618,4138 3618,4124 3618,4111 3614,4100 3605,4093 3597,4086 3585,4082 3570,4082 3555,4082 3544,4086 3535,4093 3527,4100 3523,4111 3523,4124 L 3523,4124 Z"/>
    <path fill="rgb(0,0,0)" stroke="none" d="M 2684,7217 L 2812,7264 2812,7170 2684,7217 Z M 2650,7237 L 2650,7197 2907,7099 2907,7135 2841,7159 2841,7275 2907,7298 2907,7335 2650,7237 Z"/>
    <path fill="rgb(0,0,0)" stroke="none" d="M 2751,6913 C 2737,6905 2727,6895 2720,6884 2713,6873 2710,6860 2710,6845 2710,6825 2717,6810 2731,6799 2745,6788 2765,6783 2791,6783 L 2907,6783 2907,6814 2792,6814 C 2773,6814 2760,6818 2751,6824 2742,6831 2737,6841 2737,6854 2737,6871 2743,6884 2754,6893 2764,6903 2779,6907 2798,6907 L 2907,6907 2907,6939 2792,6939 C 2773,6939 2759,6943 2751,6949 2742,6956 2737,6966 2737,6979 2737,6996 2743,7009 2754,7018 2765,7028 2779,7032 2798,7032 L 2907,7032 2907,7064 2714,7064 2714,7032 2744,7032 C 2732,7025 2724,7016 2718,7006 2712,6996 2710,6984 2710,6970 2710,6956 2713,6944 2720,6935 2727,6925 2738,6918 2751,6913 L 2751,6913 Z"/>
    <path fill="rgb(0,0,0)" stroke="none" d="M 2878,6689 L 2981,6689 2981,6721 2714,6721 2714,6689 2744,6689 C 2732,6682 2724,6674 2718,6664 2712,6653 2710,6641 2710,6627 2710,6604 2719,6585 2738,6570 2756,6555 2781,6548 2811,6548 2841,6548 2866,6555 2884,6570 2903,6585 2912,6604 2912,6627 2912,6641 2909,6653 2904,6664 2898,6674 2890,6682 2878,6689 L 2878,6689 Z M 2811,6581 C 2788,6581 2769,6586 2756,6595 2743,6605 2736,6618 2736,6635 2736,6652 2743,6665 2756,6674 2769,6684 2788,6689 2811,6689 2834,6689 2853,6684 2866,6674 2879,6665 2886,6652 2886,6635 2886,6618 2879,6605 2866,6595 2853,6586 2834,6581 2811,6581 L 2811,6581 Z"/>
    <path fill="rgb(0,0,0)" stroke="none" d="M 2639,6496 L 2639,6464 2907,6464 2907,6496 2639,6496 Z"/>
    <path fill="rgb(0,0,0)" stroke="none" d="M 2714,6398 L 2714,6366 2907,6366 2907,6398 2714,6398 Z M 2639,6398 L 2639,6366 2679,6366 2679,6398 2639,6398 Z"/>
    <path fill="rgb(0,0,0)" stroke="none" d="M 2660,6268 L 2714,6268 2714,6203 2739,6203 2739,6268 2844,6268 C 2859,6268 2870,6266 2874,6262 2878,6257 2881,6249 2881,6235 L 2881,6203 2907,6203 2907,6235 C 2907,6260 2903,6277 2894,6286 2884,6295 2868,6300 2844,6300 L 2739,6300 2739,6323 2714,6323 2714,6300 2660,6300 2660,6268 Z"/>
    <path fill="rgb(0,0,0)" stroke="none" d="M 2831,6164 L 2714,6164 2714,6133 2830,6133 C 2848,6133 2862,6129 2871,6122 2880,6115 2885,6104 2885,6090 2885,6073 2879,6059 2868,6050 2857,6040 2843,6035 2824,6035 L 2714,6035 2714,6003 2907,6003 2907,6035 2878,6035 C 2889,6042 2898,6051 2904,6061 2909,6072 2912,6083 2912,6097 2912,6119 2905,6136 2892,6147 2878,6159 2858,6164 2831,6164 L 2831,6164 Z"/>
    <path fill="rgb(0,0,0)" stroke="none" d="M 2744,5811 L 2639,5811 2639,5779 2907,5779 2907,5811 2878,5811 C 2890,5817 2898,5826 2904,5836 2909,5846 2912,5858 2912,5873 2912,5896 2903,5915 2884,5930 2866,5944 2841,5951 2811,5951 2781,5951 2756,5944 2738,5930 2719,5915 2710,5896 2710,5873 2710,5858 2712,5846 2718,5836 2724,5826 2732,5817 2744,5811 L 2744,5811 Z M 2811,5919 C 2834,5919 2853,5914 2866,5904 2879,5895 2886,5882 2886,5865 2886,5848 2879,5835 2866,5825 2853,5816 2834,5811 2811,5811 2788,5811 2769,5816 2756,5825 2743,5835 2736,5848 2736,5865 2736,5882 2743,5895 2756,5904 2769,5914 2788,5919 2811,5919 L 2811,5919 Z"/>
    <path fill="rgb(0,0,0)" stroke="none" d="M 2803,5549 L 2818,5549 2818,5694 C 2840,5693 2857,5687 2868,5675 2880,5663 2885,5647 2885,5626 2885,5613 2884,5602 2881,5590 2878,5579 2873,5567 2867,5556 L 2897,5556 C 2902,5568 2906,5579 2908,5591 2911,5603 2912,5615 2912,5627 2912,5658 2903,5683 2885,5701 2867,5719 2843,5728 2813,5728 2781,5728 2756,5719 2738,5702 2719,5685 2710,5662 2710,5633 2710,5607 2718,5587 2735,5571 2751,5556 2774,5549 2803,5549 L 2803,5549 Z M 2794,5580 C 2776,5581 2762,5586 2752,5595 2742,5604 2737,5617 2737,5633 2737,5650 2742,5664 2752,5675 2762,5686 2776,5692 2794,5693 L 2794,5580 Z"/>
    <path fill="none" stroke="rgb(68,1,84)" stroke-width="35" stroke-linejoin="round" stroke-linecap="square" d="M 4516,9399 L 5783,9399 5824,8961 5864,8292 5905,9399 6314,9399 6355,8043 6396,7800 6436,8173 6477,9399 6559,9399 6600,9035 6641,8721 6682,9399 7009,9399 7049,8852 7090,9204 7131,9399 7172,9399 7213,6813 7254,8615 7295,9399 7335,9399 7376,8398 7417,6573 7458,9399 7785,9399 7826,5961 7867,6601 7907,9399 7948,5692 7989,8876 8030,9399 8275,9399 8357,5165 8398,9399 8439,8379 8480,8371 8520,9399 9133,9399 9174,6673 9215,8308 9256,9399 9338,9399 9379,7698 9419,6489 9460,9399 9501,9399 9542,9032 9583,9173 9624,9399 9869,9399 9910,3469 9951,8910 9991,5778 10032,9399 10073,8013 10114,5947 10155,9399 10441,9399 10482,9341 10523,8030 10563,9399 11054,9399 11095,5666 11136,8842 11176,9399 11422,9399 11462,5738 11503,7712 11544,9399 11585,9399 11626,8372 11667,5478 11708,9399 12280,9399 12321,9168 12361,8962 12402,9399 12893,9399 12933,8932 12974,7296 13015,9399 13138,9399 13179,8487 13220,9356 13260,9399 13506,9399 13546,8704 13587,8190 13628,9399 14200,9399 14241,7652 14282,9350 14323,9399 14445,9399 14486,8429 14527,7762 14568,9399 14772,9399 14813,8399 14854,8479 14895,5449 14936,9399 15263,9399 15303,9298 15344,5802 15385,9399 16121,9399 16162,8443 16202,9013 16243,9399 16243,9399"/>
    <path fill="none" stroke="rgb(33,145,140)" stroke-width="35" stroke-linejoin="round" stroke-linecap="square" d="M 4516,9399 L 4557,9397 4598,9391 4639,9381 4679,9366 4761,9324 4843,9264 4925,9187 5006,9093 5088,8980 5170,8844 5292,8629 5415,8435 5497,8318 5578,8210 5660,8112 5742,8026 5783,7991 5864,7938 5946,7892 6028,7838 6110,7776 6191,7704 6273,7621 6355,7526 6436,7415 6518,7286 6845,6695 6968,6487 7213,6091 7335,5904 7458,5734 7581,5578 7703,5435 7785,5359 7867,5302 7948,5257 8030,5222 8112,5196 8194,5177 8275,5167 8357,5165 8398,5165 8439,5181 8480,5214 8520,5264 8561,5330 8643,5489 8725,5621 8806,5727 8847,5770 8888,5806 8929,5836 8970,5859 9011,5875 9052,5885 9092,5855 9133,5786 9174,5676 9215,5528 9297,5157 9379,4813 9460,4495 9542,4204 9624,3939 9705,3701 9746,3608 9787,3538 9828,3492 9869,3469 9951,3469 9991,3492 10032,3538 10073,3608 10114,3701 10196,3941 10277,4217 10359,4528 10441,4872 10523,5247 10604,5654 10645,5823 10686,5953 10727,6045 10768,6098 10809,6113 10850,6118 10890,6113 10931,6098 10972,6074 11013,6039 11054,5997 11095,5946 11136,5888 11176,5822 11299,5601 11340,5550 11381,5514 11422,5494 11544,5481 11667,5478 11708,5478 11748,5494 11789,5524 11830,5570 11871,5632 11912,5705 11953,5789 11994,5886 12035,5994 12116,6246 12198,6545 12280,6891 12402,7460 12443,7620 12484,7760 12525,7879 12566,7986 12607,8080 12647,8161 12688,8230 12729,8285 12770,8327 12811,8357 12852,8373 12893,8377 12933,8367 12974,8345 13056,8279 13138,8222 13260,8147 13383,8063 13506,7970 13587,7904 13628,7864 13669,7817 13710,7764 13792,7638 13873,7486 13955,7309 14037,7105 14118,6875 14200,6619 14282,6352 14364,6120 14445,5922 14527,5758 14568,5690 14609,5629 14650,5578 14691,5535 14731,5500 14772,5474 14813,5457 14854,5449 14936,5449 14936,5449"/>
    <path fill="none" stroke="rgb(0,0,0)" stroke-width="28" stroke-linejoin="miter" stroke-linecap="square" d="M 3930,9695 L 3930,3172"/>
    <path fill="none" stroke="rgb(0,0,0)" stroke-width="28" stroke-linejoin="miter" stroke-linecap="square" d="M 16830,9695 L 16830,3172"/>
    <path fill="none" stroke="rgb(0,0,0)" stroke-width="28" stroke-linejoin="miter" stroke-linecap="square" d="M 3930,9695 L 16830,9695"/>
    <path fill="none" stroke="rgb(0,0,0)" stroke-width="28" stroke-linejoin="miter" stroke-linecap="square" d="M 3930,3172 L 16830,3172"/>
    <path fill="rgb(0,0,0)" stroke="none" d="M 6854,2662 L 6854,2703 C 6838,2695 6823,2690 6809,2686 6795,2682 6782,2680 6769,2680 6746,2680 6728,2685 6716,2694 6704,2703 6697,2715 6697,2731 6697,2745 6702,2755 6710,2762 6718,2769 6734,2775 6756,2779 L 6782,2784 C 6813,2790 6836,2801 6851,2816 6865,2831 6873,2851 6873,2876 6873,2906 6863,2928 6843,2944 6823,2959 6793,2967 6755,2967 6740,2967 6724,2965 6708,2962 6691,2959 6674,2954 6657,2947 L 6657,2904 C 6674,2914 6690,2921 6707,2926 6723,2930 6739,2933 6755,2933 6778,2933 6797,2928 6810,2919 6823,2909 6829,2896 6829,2879 6829,2864 6824,2852 6815,2843 6806,2835 6791,2828 6769,2824 L 6744,2819 C 6713,2813 6690,2803 6676,2790 6662,2777 6656,2758 6656,2735 6656,2707 6665,2686 6684,2670 6704,2654 6730,2647 6764,2647 6778,2647 6793,2648 6808,2651 6823,2653 6838,2657 6854,2662 L 6854,2662 Z"/>
    <path fill="rgb(0,0,0)" stroke="none" d="M 7116,2774 C 7126,2757 7137,2744 7151,2736 7164,2728 7179,2724 7197,2724 7221,2724 7240,2732 7253,2749 7266,2766 7273,2790 7273,2821 L 7273,2961 7234,2961 7234,2822 C 7234,2800 7231,2784 7223,2773 7215,2762 7203,2757 7187,2757 7167,2757 7151,2763 7140,2776 7129,2790 7123,2807 7123,2830 L 7123,2961 7085,2961 7085,2822 C 7085,2800 7081,2783 7073,2773 7065,2762 7053,2757 7036,2757 7017,2757 7002,2763 6990,2777 6979,2790 6973,2807 6973,2830 L 6973,2961 6935,2961 6935,2729 6973,2729 6973,2765 C 6982,2751 6992,2741 7004,2734 7016,2727 7031,2724 7047,2724 7064,2724 7079,2728 7090,2737 7102,2745 7111,2757 7116,2774 L 7116,2774 Z"/>
    <path fill="rgb(0,0,0)" stroke="none" d="M 7438,2756 C 7418,2756 7402,2764 7390,2780 7378,2796 7372,2818 7372,2845 7372,2873 7378,2895 7390,2911 7402,2927 7418,2935 7438,2935 7459,2935 7475,2927 7486,2911 7498,2895 7504,2873 7504,2845 7504,2818 7498,2796 7486,2780 7475,2764 7459,2756 7438,2756 L 7438,2756 Z M 7438,2724 C 7471,2724 7497,2735 7516,2756 7535,2777 7545,2807 7545,2845 7545,2883 7535,2913 7516,2934 7497,2956 7471,2967 7438,2967 7405,2967 7379,2956 7360,2934 7341,2913 7332,2883 7332,2845 7332,2807 7341,2777 7360,2756 7379,2735 7405,2724 7438,2724 L 7438,2724 Z"/>
    <path fill="rgb(0,0,0)" stroke="none" d="M 7697,2756 C 7677,2756 7661,2764 7649,2780 7637,2796 7631,2818 7631,2845 7631,2873 7637,2895 7649,2911 7661,2927 7677,2935 7697,2935 7717,2935 7734,2927 7745,2911 7757,2895 7763,2873 7763,2845 7763,2818 7757,2796 7745,2780 7734,2764 7717,2756 7697,2756 L 7697,2756 Z M 7697,2724 C 7730,2724 7756,2735 7775,2756 7794,2777 7803,2807 7803,2845 7803,2883 7794,2913 7775,2934 7756,2956 7730,2967 7697,2967 7664,2967 7638,2956 7619,2934 7600,2913 7591,2883 7591,2845 7591,2807 7600,2777 7619,2756 7638,2735 7664,2724 7697,2724 L 7697,2724 Z"/>
    <path fill="rgb(0,0,0)" stroke="none" d="M 7904,2664 L 7904,2729 7982,2729 7982,2759 7904,2759 7904,2885 C 7904,2903 7907,2916 7912,2921 7917,2926 7928,2929 7943,2929 L 7982,2929 7982,2961 7943,2961 C 7914,2961 7894,2955 7883,2944 7871,2933 7866,2913 7866,2885 L 7866,2759 7838,2759 7838,2729 7866,2729 7866,2664 7904,2664 Z"/>
    <path fill="rgb(0,0,0)" stroke="none" d="M 8225,2821 L 8225,2961 8187,2961 8187,2822 C 8187,2800 8183,2784 8174,2773 8166,2762 8153,2757 8136,2757 8115,2757 8099,2763 8087,2776 8075,2790 8069,2807 8069,2830 L 8069,2961 8031,2961 8031,2639 8069,2639 8069,2765 C 8078,2751 8089,2741 8101,2734 8114,2727 8128,2724 8144,2724 8171,2724 8191,2732 8204,2748 8218,2765 8225,2789 8225,2821 L 8225,2821 Z"/>
    <path fill="rgb(0,0,0)" stroke="none" d="M 8499,2836 L 8499,2854 8324,2854 C 8326,2880 8333,2900 8348,2914 8362,2928 8381,2935 8407,2935 8421,2935 8435,2933 8449,2929 8463,2926 8476,2920 8490,2913 L 8490,2949 C 8476,2955 8462,2959 8448,2962 8434,2965 8419,2967 8404,2967 8367,2967 8338,2956 8317,2935 8295,2913 8284,2884 8284,2847 8284,2809 8294,2779 8315,2757 8335,2735 8363,2724 8398,2724 8429,2724 8453,2734 8472,2754 8490,2774 8499,2801 8499,2836 L 8499,2836 Z M 8461,2824 C 8460,2804 8455,2787 8443,2775 8432,2762 8417,2756 8398,2756 8377,2756 8360,2762 8347,2774 8334,2786 8327,2803 8325,2825 L 8461,2824 Z"/>
    <path fill="rgb(0,0,0)" stroke="none" d="M 8713,2764 L 8713,2639 8752,2639 8752,2961 8713,2961 8713,2926 C 8705,2940 8695,2950 8683,2957 8671,2963 8656,2967 8639,2967 8611,2967 8589,2956 8571,2933 8553,2911 8545,2882 8545,2845 8545,2809 8553,2780 8571,2757 8589,2735 8611,2724 8639,2724 8656,2724 8671,2727 8683,2734 8695,2740 8705,2751 8713,2764 L 8713,2764 Z M 8584,2845 C 8584,2873 8590,2895 8601,2911 8613,2927 8628,2935 8649,2935 8669,2935 8685,2927 8696,2911 8708,2895 8713,2873 8713,2845 8713,2817 8708,2795 8696,2779 8685,2764 8669,2756 8649,2756 8628,2756 8613,2764 8601,2779 8590,2795 8584,2817 8584,2845 L 8584,2845 Z"/>
    <path fill="rgb(0,0,0)" stroke="none" d="M 8966,2652 L 9008,2652 9008,2779 9160,2779 9160,2652 9201,2652 9201,2961 9160,2961 9160,2814 9008,2814 9008,2961 8966,2961 8966,2652 Z"/>
    <path fill="rgb(0,0,0)" stroke="none" d="M 9372,2756 C 9352,2756 9336,2764 9324,2780 9312,2796 9306,2818 9306,2845 9306,2873 9312,2895 9324,2911 9336,2927 9352,2935 9372,2935 9393,2935 9409,2927 9421,2911 9432,2895 9438,2873 9438,2845 9438,2818 9432,2796 9421,2780 9409,2764 9393,2756 9372,2756 L 9372,2756 Z M 9372,2724 C 9405,2724 9431,2735 9450,2756 9469,2777 9479,2807 9479,2845 9479,2883 9469,2913 9450,2934 9431,2956 9405,2967 9372,2967 9339,2967 9313,2956 9294,2934 9276,2913 9266,2883 9266,2845 9266,2807 9276,2777 9294,2756 9313,2735 9339,2724 9372,2724 L 9372,2724 Z"/>
    <path fill="rgb(0,0,0)" stroke="none" d="M 9542,2639 L 9580,2639 9580,2961 9542,2961 9542,2639 Z"/>
    <path fill="rgb(0,0,0)" stroke="none" d="M 9812,2764 L 9812,2639 9850,2639 9850,2961 9812,2961 9812,2926 C 9804,2940 9794,2950 9781,2957 9769,2963 9755,2967 9737,2967 9709,2967 9687,2956 9669,2933 9652,2911 9643,2882 9643,2845 9643,2809 9652,2780 9669,2757 9687,2735 9709,2724 9737,2724 9755,2724 9769,2727 9781,2734 9794,2740 9804,2751 9812,2764 L 9812,2764 Z M 9682,2845 C 9682,2873 9688,2895 9699,2911 9711,2927 9727,2935 9747,2935 9767,2935 9783,2927 9794,2911 9806,2895 9812,2873 9812,2845 9812,2817 9806,2795 9794,2779 9783,2764 9767,2756 9747,2756 9727,2756 9711,2764 9699,2779 9688,2795 9682,2817 9682,2845 L 9682,2845 Z"/>
    <path fill="rgb(0,0,0)" stroke="none" d="M 10168,2844 C 10137,2844 10116,2848 10104,2855 10092,2862 10086,2874 10086,2891 10086,2904 10091,2915 10099,2923 10108,2931 10120,2935 10136,2935 10157,2935 10174,2927 10186,2913 10199,2898 10206,2878 10206,2853 L 10206,2844 10168,2844 Z M 10244,2829 L 10244,2961 10206,2961 10206,2926 C 10197,2940 10186,2950 10173,2957 10160,2963 10144,2967 10126,2967 10102,2967 10083,2960 10069,2947 10055,2934 10048,2916 10048,2893 10048,2867 10057,2848 10074,2835 10092,2821 10118,2815 10152,2815 L 10206,2815 10206,2811 C 10206,2793 10200,2780 10188,2770 10177,2761 10161,2756 10140,2756 10127,2756 10114,2758 10101,2761 10089,2764 10077,2769 10065,2775 L 10065,2740 C 10079,2734 10092,2730 10106,2728 10119,2725 10131,2724 10144,2724 10177,2724 10202,2732 10219,2750 10235,2767 10244,2793 10244,2829 L 10244,2829 Z"/>
    <path fill="rgb(0,0,0)" stroke="none" d="M 10514,2821 L 10514,2961 10476,2961 10476,2822 C 10476,2800 10472,2784 10464,2773 10455,2762 10442,2757 10425,2757 10405,2757 10388,2763 10376,2776 10365,2790 10359,2807 10359,2830 L 10359,2961 10320,2961 10320,2729 10359,2729 10359,2765 C 10368,2751 10379,2741 10391,2734 10403,2727 10417,2724 10434,2724 10460,2724 10480,2732 10494,2748 10508,2765 10514,2789 10514,2821 L 10514,2821 Z"/>
    <path fill="rgb(0,0,0)" stroke="none" d="M 10743,2764 L 10743,2639 10781,2639 10781,2961 10743,2961 10743,2926 C 10735,2940 10724,2950 10712,2957 10700,2963 10685,2967 10668,2967 10640,2967 10618,2956 10600,2933 10582,2911 10574,2882 10574,2845 10574,2809 10582,2780 10600,2757 10618,2735 10640,2724 10668,2724 10685,2724 10700,2727 10712,2734 10724,2740 10735,2751 10743,2764 L 10743,2764 Z M 10613,2845 C 10613,2873 10619,2895 10630,2911 10642,2927 10658,2935 10678,2935 10698,2935 10714,2927 10725,2911 10737,2895 10743,2873 10743,2845 10743,2817 10737,2795 10725,2779 10714,2764 10698,2756 10678,2756 10658,2756 10642,2764 10630,2779 10619,2795 10613,2817 10613,2845 L 10613,2845 Z"/>
    <path fill="rgb(0,0,0)" stroke="none" d="M 11037,2687 L 11037,2926 11087,2926 C 11130,2926 11161,2917 11181,2898 11201,2878 11210,2848 11210,2806 11210,2765 11201,2735 11181,2715 11161,2696 11130,2687 11087,2687 L 11037,2687 Z M 10995,2652 L 11081,2652 C 11141,2652 11185,2665 11212,2689 11240,2714 11254,2753 11254,2806 11254,2859 11240,2898 11212,2923 11184,2948 11140,2961 11081,2961 L 10995,2961 10995,2652 Z"/>
    <path fill="rgb(0,0,0)" stroke="none" d="M 11517,2836 L 11517,2854 11343,2854 C 11344,2880 11352,2900 11366,2914 11380,2928 11400,2935 11425,2935 11440,2935 11454,2933 11468,2929 11481,2926 11495,2920 11509,2913 L 11509,2949 C 11495,2955 11481,2959 11467,2962 11452,2965 11438,2967 11423,2967 11386,2967 11357,2956 11335,2935 11314,2913 11303,2884 11303,2847 11303,2809 11313,2779 11334,2757 11354,2735 11382,2724 11416,2724 11447,2724 11472,2734 11490,2754 11508,2774 11517,2801 11517,2836 L 11517,2836 Z M 11479,2824 C 11479,2804 11473,2787 11462,2775 11451,2762 11435,2756 11417,2756 11396,2756 11379,2762 11366,2774 11353,2786 11346,2803 11344,2825 L 11479,2824 Z"/>
    <path fill="rgb(0,0,0)" stroke="none" d="M 11580,2639 L 11618,2639 11618,2961 11580,2961 11580,2639 Z"/>
    <path fill="rgb(0,0,0)" stroke="none" d="M 11803,2844 C 11772,2844 11751,2848 11739,2855 11727,2862 11721,2874 11721,2891 11721,2904 11725,2915 11734,2923 11743,2931 11755,2935 11771,2935 11792,2935 11809,2927 11821,2913 11834,2898 11840,2878 11840,2853 L 11840,2844 11803,2844 Z M 11879,2829 L 11879,2961 11840,2961 11840,2926 C 11832,2940 11821,2950 11808,2957 11795,2963 11779,2967 11760,2967 11737,2967 11718,2960 11704,2947 11690,2934 11683,2916 11683,2893 11683,2867 11692,2848 11709,2835 11727,2821 11753,2815 11787,2815 L 11840,2815 11840,2811 C 11840,2793 11835,2780 11823,2770 11812,2761 11796,2756 11775,2756 11762,2756 11749,2758 11736,2761 11724,2764 11711,2769 11700,2775 L 11700,2740 C 11714,2734 11727,2730 11740,2728 11753,2725 11766,2724 11779,2724 11812,2724 11837,2732 11854,2750 11870,2767 11879,2793 11879,2829 L 11879,2829 Z"/>
    <path fill="rgb(0,0,0)" stroke="none" d="M 12053,2982 C 12042,3010 12032,3028 12022,3036 12012,3045 11998,3049 11981,3049 L 11950,3049 11950,3017 11973,3017 C 11983,3017 11991,3015 11997,3010 12003,3005 12009,2993 12016,2974 L 12023,2957 11930,2729 11970,2729 12042,2910 12115,2729 12155,2729 12053,2982 Z"/>
    <path fill="rgb(0,0,0)" stroke="none" d="M 12405,2836 L 12405,2854 12230,2854 C 12232,2880 12240,2900 12254,2914 12268,2928 12288,2935 12313,2935 12328,2935 12342,2933 12356,2929 12369,2926 12383,2920 12396,2913 L 12396,2949 C 12383,2955 12369,2959 12354,2962 12340,2965 12326,2967 12311,2967 12274,2967 12245,2956 12223,2935 12202,2913 12191,2884 12191,2847 12191,2809 12201,2779 12221,2757 12242,2735 12270,2724 12304,2724 12335,2724 12360,2734 12378,2754 12396,2774 12405,2801 12405,2836 L 12405,2836 Z M 12367,2824 C 12367,2804 12361,2787 12350,2775 12338,2762 12323,2756 12305,2756 12283,2756 12266,2762 12254,2774 12241,2786 12234,2803 12232,2825 L 12367,2824 Z"/>
    <path fill="rgb(0,0,0)" stroke="none" d="M 12620,2764 L 12620,2639 12658,2639 12658,2961 12620,2961 12620,2926 C 12612,2940 12602,2950 12590,2957 12578,2963 12563,2967 12546,2967 12518,2967 12495,2956 12478,2933 12460,2911 12451,2882 12451,2845 12451,2809 12460,2780 12478,2757 12495,2735 12518,2724 12546,2724 12563,2724 12578,2727 12590,2734 12602,2740 12612,2751 12620,2764 L 12620,2764 Z M 12490,2845 C 12490,2873 12496,2895 12508,2911 12519,2927 12535,2935 12555,2935 12575,2935 12591,2927 12603,2911 12614,2895 12620,2873 12620,2845 12620,2817 12614,2795 12603,2779 12591,2764 12575,2756 12555,2756 12535,2756 12519,2764 12508,2779 12496,2795 12490,2817 12490,2845 L 12490,2845 Z"/>
    <path fill="rgb(0,0,0)" stroke="none" d="M 13058,2662 L 13058,2703 C 13042,2695 13027,2690 13013,2686 12999,2682 12985,2680 12972,2680 12949,2680 12932,2685 12919,2694 12907,2703 12901,2715 12901,2731 12901,2745 12905,2755 12913,2762 12921,2769 12937,2775 12960,2779 L 12985,2784 C 13016,2790 13039,2801 13054,2816 13069,2831 13076,2851 13076,2876 13076,2906 13066,2928 13046,2944 13026,2959 12997,2967 12958,2967 12943,2967 12928,2965 12911,2962 12895,2959 12878,2954 12860,2947 L 12860,2904 C 12877,2914 12894,2921 12910,2926 12926,2930 12942,2933 12958,2933 12982,2933 13000,2928 13013,2919 13026,2909 13033,2896 13033,2879 13033,2864 13028,2852 13019,2843 13009,2835 12994,2828 12973,2824 L 12947,2819 C 12916,2813 12894,2803 12880,2790 12866,2777 12859,2758 12859,2735 12859,2707 12869,2686 12888,2670 12907,2654 12934,2647 12967,2647 12982,2647 12997,2648 13012,2651 13027,2653 13042,2657 13058,2662 L 13058,2662 Z"/>
    <path fill="rgb(0,0,0)" stroke="none" d="M 13140,2729 L 13178,2729 13178,2961 13140,2961 13140,2729 Z M 13140,2639 L 13178,2639 13178,2687 13140,2687 13140,2639 Z"/>
    <path fill="rgb(0,0,0)" stroke="none" d="M 13410,2842 C 13410,2815 13404,2793 13393,2778 13381,2763 13365,2756 13345,2756 13324,2756 13308,2763 13297,2778 13286,2793 13280,2815 13280,2842 13280,2870 13286,2891 13297,2906 13308,2921 13324,2929 13345,2929 13365,2929 13381,2921 13393,2906 13404,2891 13410,2870 13410,2842 L 13410,2842 Z M 13448,2932 C 13448,2971 13439,3001 13421,3020 13404,3039 13377,3049 13341,3049 13328,3049 13315,3048 13303,3046 13291,3044 13280,3041 13269,3037 L 13269,3000 C 13280,3006 13291,3010 13302,3013 13313,3016 13324,3017 13335,3017 13360,3017 13379,3011 13391,2998 13403,2985 13410,2965 13410,2939 L 13410,2920 C 13402,2934 13392,2944 13379,2951 13367,2957 13352,2961 13335,2961 13307,2961 13284,2950 13267,2928 13249,2907 13241,2878 13241,2842 13241,2807 13249,2778 13267,2756 13284,2735 13307,2724 13335,2724 13352,2724 13367,2727 13379,2734 13392,2741 13402,2751 13410,2764 L 13410,2729 13448,2729 13448,2932 Z"/>
    <path fill="rgb(0,0,0)" stroke="none" d="M 13718,2821 L 13718,2961 13680,2961 13680,2822 C 13680,2800 13676,2784 13668,2773 13659,2762 13646,2757 13629,2757 13609,2757 13592,2763 13581,2776 13569,2790 13563,2807 13563,2830 L 13563,2961 13525,2961 13525,2729 13563,2729 13563,2765 C 13572,2751 13583,2741 13595,2734 13607,2727 13621,2724 13638,2724 13664,2724 13684,2732 13698,2748 13712,2765 13718,2789 13718,2821 L 13718,2821 Z"/>
    <path fill="rgb(0,0,0)" stroke="none" d="M 13899,2844 C 13869,2844 13847,2848 13836,2855 13824,2862 13818,2874 13818,2891 13818,2904 13822,2915 13831,2923 13840,2931 13852,2935 13867,2935 13889,2935 13905,2927 13918,2913 13931,2898 13937,2878 13937,2853 L 13937,2844 13899,2844 Z M 13975,2829 L 13975,2961 13937,2961 13937,2926 C 13929,2940 13918,2950 13905,2957 13892,2963 13876,2967 13857,2967 13834,2967 13815,2960 13801,2947 13787,2934 13780,2916 13780,2893 13780,2867 13788,2848 13806,2835 13823,2821 13849,2815 13884,2815 L 13937,2815 13937,2811 C 13937,2793 13932,2780 13920,2770 13909,2761 13892,2756 13872,2756 13858,2756 13845,2758 13833,2761 13820,2764 13808,2769 13797,2775 L 13797,2740 C 13811,2734 13824,2730 13837,2728 13850,2725 13863,2724 13875,2724 13909,2724 13934,2732 13951,2750 13967,2767 13975,2793 13975,2829 L 13975,2829 Z"/>
    <path fill="rgb(0,0,0)" stroke="none" d="M 14054,2639 L 14092,2639 14092,2961 14054,2961 14054,2639 Z"/>
    <g style="opacity: 0.8">
     <path fill="rgb(255,255,255)" stroke="none" d="M 12806,4490 L 16583,4490 C 16630,4490 16653,4467 16653,4419 L 16653,3419 C 16653,3372 16630,3349 16583,3349 L 12806,3349 C 12759,3349 12735,3372 12735,3419 L 12735,4419 C 12735,4467 12759,4490 12806,4490 L 12806,4490 Z"/>
     <path fill="none" stroke="rgb(204,204,204)" stroke-width="35" stroke-linejoin="miter" d="M 12806,4490 L 16583,4490 C 16630,4490 16653,4467 16653,4419 L 16653,3419 C 16653,3372 16630,3349 16583,3349 L 12806,3349 C 12759,3349 12735,3372 12735,3419 L 12735,4419 C 12735,4467 12759,4490 12806,4490 Z"/>
    </g>
    <path fill="none" stroke="rgb(68,1,84)" stroke-width="35" stroke-linejoin="round" stroke-linecap="square" d="M 12876,3634 L 13582,3634"/>
    <path fill="rgb(0,0,0)" stroke="none" d="M 13933,3529 L 13933,3729 13975,3729 C 14011,3729 14037,3721 14053,3705 14070,3689 14078,3664 14078,3629 14078,3595 14070,3569 14053,3553 14037,3537 14011,3529 13975,3529 L 13933,3529 Z M 13899,3501 L 13970,3501 C 14020,3501 14056,3511 14080,3532 14103,3553 14115,3585 14115,3629 14115,3673 14103,3706 14080,3727 14056,3747 14020,3758 13970,3758 L 13899,3758 13899,3501 Z"/>
    <path fill="rgb(0,0,0)" stroke="none" d="M 14334,3653 L 14334,3669 14188,3669 C 14189,3691 14196,3707 14208,3719 14220,3730 14236,3736 14257,3736 14269,3736 14281,3735 14292,3732 14304,3729 14315,3724 14326,3718 L 14326,3748 C 14315,3753 14303,3757 14291,3759 14279,3762 14267,3763 14255,3763 14224,3763 14200,3754 14182,3736 14164,3718 14155,3694 14155,3663 14155,3632 14164,3607 14181,3588 14198,3570 14221,3560 14250,3560 14276,3560 14296,3569 14311,3585 14326,3602 14334,3625 14334,3653 L 14334,3653 Z M 14302,3644 C 14302,3627 14297,3613 14288,3603 14278,3592 14266,3587 14250,3587 14232,3587 14218,3592 14207,3602 14197,3612 14191,3626 14189,3644 L 14302,3644 Z"/>
    <path fill="rgb(0,0,0)" stroke="none" d="M 14386,3490 L 14417,3490 14417,3758 14386,3758 14386,3490 Z"/>
    <path fill="rgb(0,0,0)" stroke="none" d="M 14571,3661 C 14546,3661 14528,3664 14518,3670 14508,3676 14503,3686 14503,3700 14503,3711 14507,3720 14515,3726 14522,3733 14532,3736 14545,3736 14562,3736 14576,3730 14587,3718 14598,3705 14603,3689 14603,3668 L 14603,3661 14571,3661 Z M 14635,3648 L 14635,3758 14603,3758 14603,3729 C 14596,3740 14587,3749 14576,3755 14565,3760 14552,3763 14536,3763 14517,3763 14501,3757 14489,3746 14478,3735 14472,3720 14472,3702 14472,3680 14479,3664 14493,3653 14508,3642 14530,3636 14559,3636 L 14603,3636 14603,3633 C 14603,3618 14598,3607 14589,3599 14579,3591 14566,3587 14548,3587 14537,3587 14526,3589 14516,3591 14506,3594 14496,3598 14486,3603 L 14486,3574 C 14497,3569 14509,3566 14520,3564 14531,3561 14541,3560 14551,3560 14579,3560 14600,3568 14614,3582 14628,3597 14635,3618 14635,3648 L 14635,3648 Z"/>
    <path fill="rgb(0,0,0)" stroke="none" d="M 14780,3776 C 14771,3799 14763,3814 14754,3821 14746,3828 14734,3831 14720,3831 L 14695,3831 14695,3805 14713,3805 C 14722,3805 14729,3803 14734,3798 14738,3794 14744,3785 14750,3769 L 14755,3755 14677,3565 14711,3565 14771,3716 14831,3565 14865,3565 14780,3776 Z"/>
    <path fill="rgb(0,0,0)" stroke="none" d="M 15074,3653 L 15074,3669 14928,3669 C 14929,3691 14936,3707 14948,3719 14959,3730 14976,3736 14997,3736 15009,3736 15021,3735 15032,3732 15044,3729 15055,3724 15066,3718 L 15066,3748 C 15055,3753 15043,3757 15031,3759 15019,3762 15007,3763 14995,3763 14964,3763 14940,3754 14922,3736 14904,3718 14895,3694 14895,3663 14895,3632 14903,3607 14920,3588 14938,3570 14961,3560 14990,3560 15015,3560 15036,3569 15051,3585 15066,3602 15074,3625 15074,3653 L 15074,3653 Z M 15042,3644 C 15042,3627 15037,3613 15027,3603 15018,3592 15005,3587 14990,3587 14972,3587 14958,3592 14947,3602 14937,3612 14931,3626 14929,3644 L 15042,3644 Z"/>
    <path fill="rgb(0,0,0)" stroke="none" d="M 15253,3594 L 15253,3490 15284,3490 15284,3758 15253,3758 15253,3729 C 15246,3740 15238,3749 15227,3755 15217,3760 15205,3763 15191,3763 15168,3763 15149,3754 15134,3735 15119,3716 15112,3692 15112,3662 15112,3631 15119,3607 15134,3588 15149,3570 15168,3560 15191,3560 15205,3560 15217,3563 15227,3569 15238,3574 15246,3583 15253,3594 L 15253,3594 Z M 15145,3662 C 15145,3685 15149,3703 15159,3716 15169,3730 15182,3736 15199,3736 15215,3736 15229,3730 15238,3716 15248,3703 15253,3685 15253,3662 15253,3638 15248,3620 15238,3607 15229,3593 15215,3587 15199,3587 15182,3587 15169,3593 15159,3607 15149,3620 15145,3638 15145,3662 L 15145,3662 Z"/>
    <path fill="rgb(0,0,0)" stroke="none" d="M 15617,3509 L 15617,3543 C 15604,3537 15592,3532 15580,3529 15568,3526 15557,3524 15546,3524 15527,3524 15512,3528 15502,3535 15492,3543 15487,3553 15487,3567 15487,3578 15490,3587 15497,3592 15504,3598 15517,3603 15536,3606 L 15557,3611 C 15583,3616 15602,3624 15614,3637 15627,3649 15633,3666 15633,3687 15633,3712 15624,3731 15608,3744 15591,3756 15567,3763 15534,3763 15522,3763 15509,3762 15495,3759 15482,3756 15468,3752 15453,3747 L 15453,3711 C 15467,3719 15481,3725 15494,3729 15508,3733 15521,3735 15534,3735 15554,3735 15569,3731 15580,3723 15591,3715 15596,3704 15596,3689 15596,3677 15593,3667 15585,3660 15577,3653 15564,3647 15547,3644 L 15525,3640 C 15500,3635 15481,3626 15469,3615 15458,3604 15452,3589 15452,3569 15452,3547 15460,3529 15476,3516 15492,3503 15514,3496 15542,3496 15554,3496 15566,3497 15579,3499 15591,3502 15604,3505 15617,3509 L 15617,3509 Z"/>
    <path fill="rgb(0,0,0)" stroke="none" d="M 15686,3565 L 15717,3565 15717,3758 15686,3758 15686,3565 Z M 15686,3490 L 15717,3490 15717,3530 15686,3530 15686,3490 Z"/>
    <path fill="rgb(0,0,0)" stroke="none" d="M 15911,3659 C 15911,3636 15906,3618 15896,3606 15887,3593 15874,3587 15857,3587 15840,3587 15826,3593 15817,3606 15807,3618 15803,3636 15803,3659 15803,3682 15807,3700 15817,3712 15826,3725 15840,3731 15857,3731 15874,3731 15887,3725 15896,3712 15906,3700 15911,3682 15911,3659 L 15911,3659 Z M 15942,3734 C 15942,3767 15935,3791 15920,3807 15906,3823 15884,3831 15853,3831 15842,3831 15832,3830 15822,3829 15812,3827 15802,3825 15793,3821 L 15793,3790 C 15802,3795 15812,3799 15821,3801 15830,3804 15839,3805 15848,3805 15869,3805 15885,3800 15895,3789 15905,3778 15911,3762 15911,3740 L 15911,3724 C 15904,3735 15896,3744 15885,3749 15875,3755 15863,3758 15849,3758 15825,3758 15806,3749 15792,3731 15777,3713 15770,3689 15770,3659 15770,3629 15777,3605 15792,3587 15806,3569 15825,3560 15849,3560 15863,3560 15875,3563 15885,3569 15896,3574 15904,3583 15911,3594 L 15911,3565 15942,3565 15942,3734 Z"/>
    <path fill="rgb(0,0,0)" stroke="none" d="M 16168,3641 L 16168,3758 16136,3758 16136,3642 C 16136,3624 16133,3611 16126,3602 16118,3592 16108,3588 16094,3588 16076,3588 16063,3593 16053,3604 16043,3615 16038,3630 16038,3649 L 16038,3758 16006,3758 16006,3565 16038,3565 16038,3595 C 16046,3583 16055,3575 16065,3569 16075,3563 16087,3560 16101,3560 16123,3560 16140,3567 16151,3581 16162,3595 16168,3615 16168,3641 L 16168,3641 Z"/>
    <path fill="rgb(0,0,0)" stroke="none" d="M 16319,3661 C 16293,3661 16275,3664 16266,3670 16256,3676 16251,3686 16251,3700 16251,3711 16254,3720 16262,3726 16269,3733 16279,3736 16292,3736 16310,3736 16324,3730 16334,3718 16345,3705 16350,3689 16350,3668 L 16350,3661 16319,3661 Z M 16382,3648 L 16382,3758 16350,3758 16350,3729 C 16343,3740 16334,3749 16323,3755 16312,3760 16299,3763 16284,3763 16264,3763 16248,3757 16237,3746 16225,3735 16219,3720 16219,3702 16219,3680 16226,3664 16241,3653 16255,3642 16277,3636 16306,3636 L 16350,3636 16350,3633 C 16350,3618 16346,3607 16336,3599 16326,3591 16313,3587 16296,3587 16285,3587 16274,3589 16263,3591 16253,3594 16243,3598 16233,3603 L 16233,3574 C 16245,3569 16256,3566 16267,3564 16278,3561 16289,3560 16299,3560 16327,3560 16348,3568 16361,3582 16375,3597 16382,3618 16382,3648 L 16382,3648 Z"/>
    <path fill="rgb(0,0,0)" stroke="none" d="M 16447,3490 L 16479,3490 16479,3758 16447,3758 16447,3490 Z"/>
    <path fill="none" stroke="rgb(33,145,140)" stroke-width="35" stroke-linejoin="round" stroke-linecap="square" d="M 12876,4152 L 13582,4152"/>
    <path fill="rgb(0,0,0)" stroke="none" d="M 14053,4027 L 14053,4061 C 14039,4055 14027,4050 14015,4047 14004,4044 13992,4042 13981,4042 13962,4042 13948,4046 13938,4053 13927,4060 13922,4071 13922,4084 13922,4096 13926,4104 13932,4110 13939,4116 13952,4121 13971,4124 L 13992,4129 C 14018,4133 14037,4142 14050,4155 14062,4167 14068,4184 14068,4205 14068,4230 14060,4248 14043,4261 14026,4274 14002,4281 13970,4281 13958,4281 13945,4279 13931,4276 13917,4274 13903,4270 13888,4264 L 13888,4228 C 13902,4236 13916,4242 13930,4246 13943,4250 13957,4252 13970,4252 13990,4252 14005,4248 14016,4241 14026,4233 14032,4222 14032,4207 14032,4195 14028,4185 14020,4178 14012,4170 14000,4165 13982,4162 L 13961,4157 C 13935,4152 13916,4144 13905,4133 13893,4122 13887,4107 13887,4087 13887,4064 13895,4047 13911,4033 13927,4020 13949,4014 13977,4014 13989,4014 14002,4015 14014,4017 14027,4019 14040,4023 14053,4027 L 14053,4027 Z"/>
    <path fill="rgb(0,0,0)" stroke="none" d="M 14271,4120 C 14279,4105 14289,4095 14300,4088 14311,4081 14324,4078 14339,4078 14359,4078 14374,4085 14385,4099 14396,4113 14401,4133 14401,4159 L 14401,4276 14370,4276 14370,4160 C 14370,4142 14366,4128 14360,4119 14353,4110 14343,4106 14330,4106 14313,4106 14300,4111 14291,4122 14281,4133 14277,4148 14277,4167 L 14277,4276 14245,4276 14245,4160 C 14245,4142 14241,4128 14235,4119 14228,4110 14218,4106 14205,4106 14188,4106 14176,4111 14166,4122 14156,4133 14152,4148 14152,4167 L 14152,4276 14120,4276 14120,4083 14152,4083 14152,4113 C 14159,4101 14168,4092 14178,4087 14188,4081 14200,4078 14214,4078 14228,4078 14240,4082 14249,4089 14259,4096 14267,4106 14271,4120 L 14271,4120 Z"/>
    <path fill="rgb(0,0,0)" stroke="none" d="M 14539,4105 C 14522,4105 14509,4112 14499,4125 14489,4138 14484,4156 14484,4179 14484,4202 14489,4221 14499,4234 14509,4247 14522,4254 14539,4254 14556,4254 14570,4247 14580,4234 14589,4220 14594,4202 14594,4179 14594,4156 14589,4138 14580,4125 14570,4112 14556,4105 14539,4105 L 14539,4105 Z M 14539,4078 C 14567,4078 14589,4087 14604,4105 14620,4123 14628,4148 14628,4179 14628,4211 14620,4236 14604,4254 14589,4272 14567,4281 14539,4281 14512,4281 14490,4272 14474,4254 14459,4236 14451,4211 14451,4179 14451,4148 14459,4123 14474,4105 14490,4087 14512,4078 14539,4078 L 14539,4078 Z"/>
    <path fill="rgb(0,0,0)" stroke="none" d="M 14755,4105 C 14738,4105 14725,4112 14715,4125 14705,4138 14700,4156 14700,4179 14700,4202 14705,4221 14715,4234 14725,4247 14738,4254 14755,4254 14772,4254 14785,4247 14795,4234 14805,4220 14810,4202 14810,4179 14810,4156 14805,4138 14795,4125 14785,4112 14772,4105 14755,4105 L 14755,4105 Z M 14755,4078 C 14783,4078 14804,4087 14820,4105 14836,4123 14844,4148 14844,4179 14844,4211 14836,4236 14820,4254 14804,4272 14783,4281 14755,4281 14728,4281 14706,4272 14690,4254 14675,4236 14667,4211 14667,4179 14667,4148 14675,4123 14690,4105 14706,4087 14728,4078 14755,4078 L 14755,4078 Z"/>
    <path fill="rgb(0,0,0)" stroke="none" d="M 14928,4028 L 14928,4083 14993,4083 14993,4107 14928,4107 14928,4212 C 14928,4228 14930,4238 14934,4242 14938,4247 14947,4249 14960,4249 L 14993,4249 14993,4276 14960,4276 C 14936,4276 14919,4271 14910,4262 14900,4253 14896,4236 14896,4212 L 14896,4107 14873,4107 14873,4083 14896,4083 14896,4028 14928,4028 Z"/>
    <path fill="rgb(0,0,0)" stroke="none" d="M 15195,4159 L 15195,4276 15163,4276 15163,4160 C 15163,4142 15160,4128 15153,4119 15145,4110 15135,4106 15121,4106 15103,4106 15090,4111 15080,4122 15070,4133 15065,4148 15065,4167 L 15065,4276 15033,4276 15033,4008 15065,4008 15065,4113 C 15073,4101 15082,4092 15092,4087 15102,4081 15114,4078 15128,4078 15150,4078 15167,4085 15178,4099 15189,4112 15195,4133 15195,4159 L 15195,4159 Z"/>
    <path fill="rgb(0,0,0)" stroke="none" d="M 15423,4171 L 15423,4187 15277,4187 C 15279,4209 15285,4225 15297,4237 15309,4248 15325,4254 15346,4254 15359,4254 15370,4252 15382,4249 15393,4246 15405,4242 15416,4236 L 15416,4266 C 15404,4271 15393,4274 15381,4277 15369,4279 15357,4281 15344,4281 15314,4281 15289,4272 15271,4254 15253,4236 15244,4212 15244,4181 15244,4149 15253,4124 15270,4106 15287,4087 15310,4078 15339,4078 15365,4078 15385,4086 15401,4103 15416,4120 15423,4143 15423,4171 L 15423,4171 Z M 15391,4162 C 15391,4145 15386,4131 15377,4120 15367,4110 15355,4105 15339,4105 15322,4105 15307,4110 15297,4120 15286,4130 15280,4144 15279,4162 L 15391,4162 Z"/>
    <path fill="rgb(0,0,0)" stroke="none" d="M 15602,4112 L 15602,4008 15634,4008 15634,4276 15602,4276 15602,4247 C 15595,4258 15587,4267 15577,4272 15567,4278 15555,4281 15540,4281 15517,4281 15498,4271 15483,4253 15469,4234 15461,4210 15461,4179 15461,4149 15469,4125 15483,4106 15498,4087 15517,4078 15540,4078 15555,4078 15567,4081 15577,4086 15587,4092 15595,4101 15602,4112 L 15602,4112 Z M 15494,4179 C 15494,4203 15499,4221 15509,4234 15518,4247 15531,4254 15548,4254 15565,4254 15578,4247 15588,4234 15597,4221 15602,4203 15602,4179 15602,4156 15597,4138 15588,4124 15578,4111 15565,4105 15548,4105 15531,4105 15518,4111 15509,4124 15499,4138 15494,4156 15494,4179 L 15494,4179 Z"/>
   </g>
  </g>
  <g class="com.sun.star.drawing.LineShape">
   <g id="id4">
    <rect class="BoundingBox" stroke="none" fill="none" x="12748" y="6027" width="423" height="943"/>
    <path fill="none" stroke="rgb(255,0,0)" stroke-width="106" stroke-linejoin="round" d="M 12959,6080 L 12959,6575"/>
    <path fill="rgb(255,0,0)" stroke="none" d="M 13170,6547 L 12959,6969 12748,6547 13170,6547 Z"/>
   </g>
  </g>
 </g>
</svg>