<?xml version="1.0" encoding="utf-8" standalone="no"?>
<!DOCTYPE svg PUBLIC "-//W3C//DTD SVG 1.1//EN"
  "http://www.w3.org/Graphics/SVG/1.1/DTD/svg11.dtd">
<svg xmlns:xlink="http://www.w3.org/1999/xlink" width="576pt" height="360pt" viewBox="0 0 576 360" xmlns="http://www.w3.org/2000/svg" version="1.1">
 <metadata>
  <rdf:RDF xmlns:dc="http://purl.org/dc/elements/1.1/" xmlns:cc="http://creativecommons.org/ns#" xmlns:rdf="http://www.w3.org/1999/02/22-rdf-syntax-ns#">
   <cc:Work>
    <dc:type rdf:resource="http://purl.org/dc/dcmitype/StillImage"/>
    <dc:date>2026-06-28T11:06:04.364740</dc:date>
    <dc:format>image/svg+xml</dc:format>
    <dc:creator>
     <cc:Agent>
      <dc:title>Matplotlib v3.10.8, https://matplotlib.org/</dc:title>
     </cc:Agent>
    </dc:creator>
   </cc:Work>
  </rdf:RDF>
 </metadata>
 <defs>
  <style type="text/css">*{stroke-linejoin: round; stroke-linecap: butt}</style>
 </defs>
 <g id="figure_1">
  <g id="patch_1">
   <path d="M 0 360 
L 576 360 
L 576 0 
L 0 0 
z
" style="fill: #ffffff"/>
  </g>
  <g id="axes_1">
   <g id="patch_2">
    <path d="M 52.94 314.728 
L 565.2 314.728 
L 565.2 26.88 
L 52.94 26.88 
z
" style="fill: #ffffff"/>
   </g>
   <g id="matplotlib.axis_1">
    <g id="xtick_1">
     <g id="line2d_1">
      <path d="M 134.354111 314.728 
L 134.354111 26.88 
" clip-path="url(#p05ac3304bb)" style="fill: none; stroke: #f0f0f0; stroke-width: 0.8; stroke-linecap: square"/>
     </g>
     <g id="line2d_2">
      <defs>
       <path id="ma080e5a56c" d="M 0 0 
L 0 3.5 
" style="stroke: #000000; stroke-width: 0.8"/>
      </defs>
      <g>
       <use xlink:href="#ma080e5a56c" x="134.354111" y="314.728" style="stroke: #000000; stroke-width: 0.8"/>
      </g>
     </g>
     <g id="text_1">
      <!-- $\mathdefault{10^{-4}}$ -->
      <g transform="translate(122.604111 329.326437) scale(0.1 -0.1)">
       <defs>
        <path id="DejaVuSans-31" d="M 794 531 
L 1825 531 
L 1825 4091 
L 703 3866 
L 703 4441 
L 1819 4666 
L 2450 4666 
L 2450 531 
L 3481 531 
L 3481 0 
L 794 0 
L 794 531 
z
" transform="scale(0.015625)"/>
        <path id="DejaVuSans-30" d="M 2034 4250 
Q 1547 4250 1301 3770 
Q 1056 3291 1056 2328 
Q 1056 1369 1301 889 
Q 1547 409 2034 409 
Q 2525 409 2770 889 
Q 3016 1369 3016 2328 
Q 3016 3291 2770 3770 
Q 2525 4250 2034 4250 
z
M 2034 4750 
Q 2819 4750 3233 4129 
Q 3647 3509 3647 2328 
Q 3647 1150 3233 529 
Q 2819 -91 2034 -91 
Q 1250 -91 836 529 
Q 422 1150 422 2328 
Q 422 3509 836 4129 
Q 1250 4750 2034 4750 
z
" transform="scale(0.015625)"/>
        <path id="DejaVuSans-2212" d="M 678 2272 
L 4684 2272 
L 4684 1741 
L 678 1741 
L 678 2272 
z
" transform="scale(0.015625)"/>
        <path id="DejaVuSans-34" d="M 2419 4116 
L 825 1625 
L 2419 1625 
L 2419 4116 
z
M 2253 4666 
L 3047 4666 
L 3047 1625 
L 3713 1625 
L 3713 1100 
L 3047 1100 
L 3047 0 
L 2419 0 
L 2419 1100 
L 313 1100 
L 313 1709 
L 2253 4666 
z
" transform="scale(0.015625)"/>
       </defs>
       <use xlink:href="#DejaVuSans-31" transform="translate(0 0.684375)"/>
       <use xlink:href="#DejaVuSans-30" transform="translate(63.623047 0.684375)"/>
       <use xlink:href="#DejaVuSans-2212" transform="translate(128.203125 38.965625) scale(0.7)"/>
       <use xlink:href="#DejaVuSans-34" transform="translate(186.855469 38.965625) scale(0.7)"/>
      </g>
     </g>
    </g>
    <g id="xtick_2">
     <g id="line2d_3">
      <path d="M 250.83137 314.728 
L 250.83137 26.88 
" clip-path="url(#p05ac3304bb)" style="fill: none; stroke: #f0f0f0; stroke-width: 0.8; stroke-linecap: square"/>
     </g>
     <g id="line2d_4">
      <g>
       <use xlink:href="#ma080e5a56c" x="250.83137" y="314.728" style="stroke: #000000; stroke-width: 0.8"/>
      </g>
     </g>
     <g id="text_2">
      <!-- $\mathdefault{10^{-3}}$ -->
      <g transform="translate(239.08137 329.326437) scale(0.1 -0.1)">
       <defs>
        <path id="DejaVuSans-33" d="M 2597 2516 
Q 3050 2419 3304 2112 
Q 3559 1806 3559 1356 
Q 3559 666 3084 287 
Q 2609 -91 1734 -91 
Q 1441 -91 1130 -33 
Q 819 25 488 141 
L 488 750 
Q 750 597 1062 519 
Q 1375 441 1716 441 
Q 2309 441 2620 675 
Q 2931 909 2931 1356 
Q 2931 1769 2642 2001 
Q 2353 2234 1838 2234 
L 1294 2234 
L 1294 2753 
L 1863 2753 
Q 2328 2753 2575 2939 
Q 2822 3125 2822 3475 
Q 2822 3834 2567 4026 
Q 2313 4219 1838 4219 
Q 1578 4219 1281 4162 
Q 984 4106 628 3988 
L 628 4550 
Q 988 4650 1302 4700 
Q 1616 4750 1894 4750 
Q 2613 4750 3031 4423 
Q 3450 4097 3450 3541 
Q 3450 3153 3228 2886 
Q 3006 2619 2597 2516 
z
" transform="scale(0.015625)"/>
       </defs>
       <use xlink:href="#DejaVuSans-31" transform="translate(0 0.765625)"/>
       <use xlink:href="#DejaVuSans-30" transform="translate(63.623047 0.765625)"/>
       <use xlink:href="#DejaVuSans-2212" transform="translate(128.203125 39.046875) scale(0.7)"/>
       <use xlink:href="#DejaVuSans-33" transform="translate(186.855469 39.046875) scale(0.7)"/>
      </g>
     </g>
    </g>
    <g id="xtick_3">
     <g id="line2d_5">
      <path d="M 367.30863 314.728 
L 367.30863 26.88 
" clip-path="url(#p05ac3304bb)" style="fill: none; stroke: #f0f0f0; stroke-width: 0.8; stroke-linecap: square"/>
     </g>
     <g id="line2d_6">
      <g>
       <use xlink:href="#ma080e5a56c" x="367.30863" y="314.728" style="stroke: #000000; stroke-width: 0.8"/>
      </g>
     </g>
     <g id="text_3">
      <!-- $\mathdefault{10^{-2}}$ -->
      <g transform="translate(355.55863 329.326437) scale(0.1 -0.1)">
       <defs>
        <path id="DejaVuSans-32" d="M 1228 531 
L 3431 531 
L 3431 0 
L 469 0 
L 469 531 
Q 828 903 1448 1529 
Q 2069 2156 2228 2338 
Q 2531 2678 2651 2914 
Q 2772 3150 2772 3378 
Q 2772 3750 2511 3984 
Q 2250 4219 1831 4219 
Q 1534 4219 1204 4116 
Q 875 4013 500 3803 
L 500 4441 
Q 881 4594 1212 4672 
Q 1544 4750 1819 4750 
Q 2544 4750 2975 4387 
Q 3406 4025 3406 3419 
Q 3406 3131 3298 2873 
Q 3191 2616 2906 2266 
Q 2828 2175 2409 1742 
Q 1991 1309 1228 531 
z
" transform="scale(0.015625)"/>
       </defs>
       <use xlink:href="#DejaVuSans-31" transform="translate(0 0.765625)"/>
       <use xlink:href="#DejaVuSans-30" transform="translate(63.623047 0.765625)"/>
       <use xlink:href="#DejaVuSans-2212" transform="translate(128.203125 39.046875) scale(0.7)"/>
       <use xlink:href="#DejaVuSans-32" transform="translate(186.855469 39.046875) scale(0.7)"/>
      </g>
     </g>
    </g>
    <g id="xtick_4">
     <g id="line2d_7">
      <path d="M 483.785889 314.728 
L 483.785889 26.88 
" clip-path="url(#p05ac3304bb)" style="fill: none; stroke: #f0f0f0; stroke-width: 0.8; stroke-linecap: square"/>
     </g>
     <g id="line2d_8">
      <g>
       <use xlink:href="#ma080e5a56c" x="483.785889" y="314.728" style="stroke: #000000; stroke-width: 0.8"/>
      </g>
     </g>
     <g id="text_4">
      <!-- $\mathdefault{10^{-1}}$ -->
      <g transform="translate(472.035889 329.326437) scale(0.1 -0.1)">
       <use xlink:href="#DejaVuSans-31" transform="translate(0 0.684375)"/>
       <use xlink:href="#DejaVuSans-30" transform="translate(63.623047 0.684375)"/>
       <use xlink:href="#DejaVuSans-2212" transform="translate(128.203125 38.965625) scale(0.7)"/>
       <use xlink:href="#DejaVuSans-31" transform="translate(186.855469 38.965625) scale(0.7)"/>
      </g>
     </g>
    </g>
    <g id="xtick_5">
     <g id="line2d_9">
      <defs>
       <path id="m28df49e2ed" d="M 0 0 
L 0 2 
" style="stroke: #000000; stroke-width: 0.6"/>
      </defs>
      <g>
       <use xlink:href="#m28df49e2ed" x="52.94" y="314.728" style="stroke: #000000; stroke-width: 0.6"/>
      </g>
     </g>
    </g>
    <g id="xtick_6">
     <g id="line2d_10">
      <g>
       <use xlink:href="#m28df49e2ed" x="73.450627" y="314.728" style="stroke: #000000; stroke-width: 0.6"/>
      </g>
     </g>
    </g>
    <g id="xtick_7">
     <g id="line2d_11">
      <g>
       <use xlink:href="#m28df49e2ed" x="88.003149" y="314.728" style="stroke: #000000; stroke-width: 0.6"/>
      </g>
     </g>
    </g>
    <g id="xtick_8">
     <g id="line2d_12">
      <g>
       <use xlink:href="#m28df49e2ed" x="99.290962" y="314.728" style="stroke: #000000; stroke-width: 0.6"/>
      </g>
     </g>
    </g>
    <g id="xtick_9">
     <g id="line2d_13">
      <g>
       <use xlink:href="#m28df49e2ed" x="108.513776" y="314.728" style="stroke: #000000; stroke-width: 0.6"/>
      </g>
     </g>
    </g>
    <g id="xtick_10">
     <g id="line2d_14">
      <g>
       <use xlink:href="#m28df49e2ed" x="116.311555" y="314.728" style="stroke: #000000; stroke-width: 0.6"/>
      </g>
     </g>
    </g>
    <g id="xtick_11">
     <g id="line2d_15">
      <g>
       <use xlink:href="#m28df49e2ed" x="123.066298" y="314.728" style="stroke: #000000; stroke-width: 0.6"/>
      </g>
     </g>
    </g>
    <g id="xtick_12">
     <g id="line2d_16">
      <g>
       <use xlink:href="#m28df49e2ed" x="129.024404" y="314.728" style="stroke: #000000; stroke-width: 0.6"/>
      </g>
     </g>
    </g>
    <g id="xtick_13">
     <g id="line2d_17">
      <g>
       <use xlink:href="#m28df49e2ed" x="169.41726" y="314.728" style="stroke: #000000; stroke-width: 0.6"/>
      </g>
     </g>
    </g>
    <g id="xtick_14">
     <g id="line2d_18">
      <g>
       <use xlink:href="#m28df49e2ed" x="189.927887" y="314.728" style="stroke: #000000; stroke-width: 0.6"/>
      </g>
     </g>
    </g>
    <g id="xtick_15">
     <g id="line2d_19">
      <g>
       <use xlink:href="#m28df49e2ed" x="204.480409" y="314.728" style="stroke: #000000; stroke-width: 0.6"/>
      </g>
     </g>
    </g>
    <g id="xtick_16">
     <g id="line2d_20">
      <g>
       <use xlink:href="#m28df49e2ed" x="215.768221" y="314.728" style="stroke: #000000; stroke-width: 0.6"/>
      </g>
     </g>
    </g>
    <g id="xtick_17">
     <g id="line2d_21">
      <g>
       <use xlink:href="#m28df49e2ed" x="224.991036" y="314.728" style="stroke: #000000; stroke-width: 0.6"/>
      </g>
     </g>
    </g>
    <g id="xtick_18">
     <g id="line2d_22">
      <g>
       <use xlink:href="#m28df49e2ed" x="232.788814" y="314.728" style="stroke: #000000; stroke-width: 0.6"/>
      </g>
     </g>
    </g>
    <g id="xtick_19">
     <g id="line2d_23">
      <g>
       <use xlink:href="#m28df49e2ed" x="239.543557" y="314.728" style="stroke: #000000; stroke-width: 0.6"/>
      </g>
     </g>
    </g>
    <g id="xtick_20">
     <g id="line2d_24">
      <g>
       <use xlink:href="#m28df49e2ed" x="245.501663" y="314.728" style="stroke: #000000; stroke-width: 0.6"/>
      </g>
     </g>
    </g>
    <g id="xtick_21">
     <g id="line2d_25">
      <g>
       <use xlink:href="#m28df49e2ed" x="285.894519" y="314.728" style="stroke: #000000; stroke-width: 0.6"/>
      </g>
     </g>
    </g>
    <g id="xtick_22">
     <g id="line2d_26">
      <g>
       <use xlink:href="#m28df49e2ed" x="306.405146" y="314.728" style="stroke: #000000; stroke-width: 0.6"/>
      </g>
     </g>
    </g>
    <g id="xtick_23">
     <g id="line2d_27">
      <g>
       <use xlink:href="#m28df49e2ed" x="320.957668" y="314.728" style="stroke: #000000; stroke-width: 0.6"/>
      </g>
     </g>
    </g>
    <g id="xtick_24">
     <g id="line2d_28">
      <g>
       <use xlink:href="#m28df49e2ed" x="332.245481" y="314.728" style="stroke: #000000; stroke-width: 0.6"/>
      </g>
     </g>
    </g>
    <g id="xtick_25">
     <g id="line2d_29">
      <g>
       <use xlink:href="#m28df49e2ed" x="341.468295" y="314.728" style="stroke: #000000; stroke-width: 0.6"/>
      </g>
     </g>
    </g>
    <g id="xtick_26">
     <g id="line2d_30">
      <g>
       <use xlink:href="#m28df49e2ed" x="349.266074" y="314.728" style="stroke: #000000; stroke-width: 0.6"/>
      </g>
     </g>
    </g>
    <g id="xtick_27">
     <g id="line2d_31">
      <g>
       <use xlink:href="#m28df49e2ed" x="356.020817" y="314.728" style="stroke: #000000; stroke-width: 0.6"/>
      </g>
     </g>
    </g>
    <g id="xtick_28">
     <g id="line2d_32">
      <g>
       <use xlink:href="#m28df49e2ed" x="361.978923" y="314.728" style="stroke: #000000; stroke-width: 0.6"/>
      </g>
     </g>
    </g>
    <g id="xtick_29">
     <g id="line2d_33">
      <g>
       <use xlink:href="#m28df49e2ed" x="402.371779" y="314.728" style="stroke: #000000; stroke-width: 0.6"/>
      </g>
     </g>
    </g>
    <g id="xtick_30">
     <g id="line2d_34">
      <g>
       <use xlink:href="#m28df49e2ed" x="422.882406" y="314.728" style="stroke: #000000; stroke-width: 0.6"/>
      </g>
     </g>
    </g>
    <g id="xtick_31">
     <g id="line2d_35">
      <g>
       <use xlink:href="#m28df49e2ed" x="437.434928" y="314.728" style="stroke: #000000; stroke-width: 0.6"/>
      </g>
     </g>
    </g>
    <g id="xtick_32">
     <g id="line2d_36">
      <g>
       <use xlink:href="#m28df49e2ed" x="448.72274" y="314.728" style="stroke: #000000; stroke-width: 0.6"/>
      </g>
     </g>
    </g>
    <g id="xtick_33">
     <g id="line2d_37">
      <g>
       <use xlink:href="#m28df49e2ed" x="457.945555" y="314.728" style="stroke: #000000; stroke-width: 0.6"/>
      </g>
     </g>
    </g>
    <g id="xtick_34">
     <g id="line2d_38">
      <g>
       <use xlink:href="#m28df49e2ed" x="465.743334" y="314.728" style="stroke: #000000; stroke-width: 0.6"/>
      </g>
     </g>
    </g>
    <g id="xtick_35">
     <g id="line2d_39">
      <g>
       <use xlink:href="#m28df49e2ed" x="472.498077" y="314.728" style="stroke: #000000; stroke-width: 0.6"/>
      </g>
     </g>
    </g>
    <g id="xtick_36">
     <g id="line2d_40">
      <g>
       <use xlink:href="#m28df49e2ed" x="478.456182" y="314.728" style="stroke: #000000; stroke-width: 0.6"/>
      </g>
     </g>
    </g>
    <g id="xtick_37">
     <g id="line2d_41">
      <g>
       <use xlink:href="#m28df49e2ed" x="518.849038" y="314.728" style="stroke: #000000; stroke-width: 0.6"/>
      </g>
     </g>
    </g>
    <g id="xtick_38">
     <g id="line2d_42">
      <g>
       <use xlink:href="#m28df49e2ed" x="539.359666" y="314.728" style="stroke: #000000; stroke-width: 0.6"/>
      </g>
     </g>
    </g>
    <g id="xtick_39">
     <g id="line2d_43">
      <g>
       <use xlink:href="#m28df49e2ed" x="553.912187" y="314.728" style="stroke: #000000; stroke-width: 0.6"/>
      </g>
     </g>
    </g>
    <g id="xtick_40">
     <g id="line2d_44">
      <g>
       <use xlink:href="#m28df49e2ed" x="565.2" y="314.728" style="stroke: #000000; stroke-width: 0.6"/>
      </g>
     </g>
    </g>
    <g id="text_5">
     <!-- Normalized Frequency [rad/2π] -->
     <g transform="translate(231.635625 343.004562) scale(0.1 -0.1)">
      <defs>
       <path id="DejaVuSans-4e" d="M 628 4666 
L 1478 4666 
L 3547 763 
L 3547 4666 
L 4159 4666 
L 4159 0 
L 3309 0 
L 1241 3903 
L 1241 0 
L 628 0 
L 628 4666 
z
" transform="scale(0.015625)"/>
       <path id="DejaVuSans-6f" d="M 1959 3097 
Q 1497 3097 1228 2736 
Q 959 2375 959 1747 
Q 959 1119 1226 758 
Q 1494 397 1959 397 
Q 2419 397 2687 759 
Q 2956 1122 2956 1747 
Q 2956 2369 2687 2733 
Q 2419 3097 1959 3097 
z
M 1959 3584 
Q 2709 3584 3137 3096 
Q 3566 2609 3566 1747 
Q 3566 888 3137 398 
Q 2709 -91 1959 -91 
Q 1206 -91 779 398 
Q 353 888 353 1747 
Q 353 2609 779 3096 
Q 1206 3584 1959 3584 
z
" transform="scale(0.015625)"/>
       <path id="DejaVuSans-72" d="M 2631 2963 
Q 2534 3019 2420 3045 
Q 2306 3072 2169 3072 
Q 1681 3072 1420 2755 
Q 1159 2438 1159 1844 
L 1159 0 
L 581 0 
L 581 3500 
L 1159 3500 
L 1159 2956 
Q 1341 3275 1631 3429 
Q 1922 3584 2338 3584 
Q 2397 3584 2469 3576 
Q 2541 3569 2628 3553 
L 2631 2963 
z
" transform="scale(0.015625)"/>
       <path id="DejaVuSans-6d" d="M 3328 2828 
Q 3544 3216 3844 3400 
Q 4144 3584 4550 3584 
Q 5097 3584 5394 3201 
Q 5691 2819 5691 2113 
L 5691 0 
L 5113 0 
L 5113 2094 
Q 5113 2597 4934 2840 
Q 4756 3084 4391 3084 
Q 3944 3084 3684 2787 
Q 3425 2491 3425 1978 
L 3425 0 
L 2847 0 
L 2847 2094 
Q 2847 2600 2669 2842 
Q 2491 3084 2119 3084 
Q 1678 3084 1418 2786 
Q 1159 2488 1159 1978 
L 1159 0 
L 581 0 
L 581 3500 
L 1159 3500 
L 1159 2956 
Q 1356 3278 1631 3431 
Q 1906 3584 2284 3584 
Q 2666 3584 2933 3390 
Q 3200 3197 3328 2828 
z
" transform="scale(0.015625)"/>
       <path id="DejaVuSans-61" d="M 2194 1759 
Q 1497 1759 1228 1600 
Q 959 1441 959 1056 
Q 959 750 1161 570 
Q 1363 391 1709 391 
Q 2188 391 2477 730 
Q 2766 1069 2766 1631 
L 2766 1759 
L 2194 1759 
z
M 3341 1997 
L 3341 0 
L 2766 0 
L 2766 531 
Q 2569 213 2275 61 
Q 1981 -91 1556 -91 
Q 1019 -91 701 211 
Q 384 513 384 1019 
Q 384 1609 779 1909 
Q 1175 2209 1959 2209 
L 2766 2209 
L 2766 2266 
Q 2766 2663 2505 2880 
Q 2244 3097 1772 3097 
Q 1472 3097 1187 3025 
Q 903 2953 641 2809 
L 641 3341 
Q 956 3463 1253 3523 
Q 1550 3584 1831 3584 
Q 2591 3584 2966 3190 
Q 3341 2797 3341 1997 
z
" transform="scale(0.015625)"/>
       <path id="DejaVuSans-6c" d="M 603 4863 
L 1178 4863 
L 1178 0 
L 603 0 
L 603 4863 
z
" transform="scale(0.015625)"/>
       <path id="DejaVuSans-69" d="M 603 3500 
L 1178 3500 
L 1178 0 
L 603 0 
L 603 3500 
z
M 603 4863 
L 1178 4863 
L 1178 4134 
L 603 4134 
L 603 4863 
z
" transform="scale(0.015625)"/>
       <path id="DejaVuSans-7a" d="M 353 3500 
L 3084 3500 
L 3084 2975 
L 922 459 
L 3084 459 
L 3084 0 
L 275 0 
L 275 525 
L 2438 3041 
L 353 3041 
L 353 3500 
z
" transform="scale(0.015625)"/>
       <path id="DejaVuSans-65" d="M 3597 1894 
L 3597 1613 
L 953 1613 
Q 991 1019 1311 708 
Q 1631 397 2203 397 
Q 2534 397 2845 478 
Q 3156 559 3463 722 
L 3463 178 
Q 3153 47 2828 -22 
Q 2503 -91 2169 -91 
Q 1331 -91 842 396 
Q 353 884 353 1716 
Q 353 2575 817 3079 
Q 1281 3584 2069 3584 
Q 2775 3584 3186 3129 
Q 3597 2675 3597 1894 
z
M 3022 2063 
Q 3016 2534 2758 2815 
Q 2500 3097 2075 3097 
Q 1594 3097 1305 2825 
Q 1016 2553 972 2059 
L 3022 2063 
z
" transform="scale(0.015625)"/>
       <path id="DejaVuSans-64" d="M 2906 2969 
L 2906 4863 
L 3481 4863 
L 3481 0 
L 2906 0 
L 2906 525 
Q 2725 213 2448 61 
Q 2172 -91 1784 -91 
Q 1150 -91 751 415 
Q 353 922 353 1747 
Q 353 2572 751 3078 
Q 1150 3584 1784 3584 
Q 2172 3584 2448 3432 
Q 2725 3281 2906 2969 
z
M 947 1747 
Q 947 1113 1208 752 
Q 1469 391 1925 391 
Q 2381 391 2643 752 
Q 2906 1113 2906 1747 
Q 2906 2381 2643 2742 
Q 2381 3103 1925 3103 
Q 1469 3103 1208 2742 
Q 947 2381 947 1747 
z
" transform="scale(0.015625)"/>
       <path id="DejaVuSans-20" transform="scale(0.015625)"/>
       <path id="DejaVuSans-46" d="M 628 4666 
L 3309 4666 
L 3309 4134 
L 1259 4134 
L 1259 2759 
L 3109 2759 
L 3109 2228 
L 1259 2228 
L 1259 0 
L 628 0 
L 628 4666 
z
" transform="scale(0.015625)"/>
       <path id="DejaVuSans-71" d="M 947 1747 
Q 947 1113 1208 752 
Q 1469 391 1925 391 
Q 2381 391 2643 752 
Q 2906 1113 2906 1747 
Q 2906 2381 2643 2742 
Q 2381 3103 1925 3103 
Q 1469 3103 1208 2742 
Q 947 2381 947 1747 
z
M 2906 525 
Q 2725 213 2448 61 
Q 2172 -91 1784 -91 
Q 1150 -91 751 415 
Q 353 922 353 1747 
Q 353 2572 751 3078 
Q 1150 3584 1784 3584 
Q 2172 3584 2448 3432 
Q 2725 3281 2906 2969 
L 2906 3500 
L 3481 3500 
L 3481 -1331 
L 2906 -1331 
L 2906 525 
z
" transform="scale(0.015625)"/>
       <path id="DejaVuSans-75" d="M 544 1381 
L 544 3500 
L 1119 3500 
L 1119 1403 
Q 1119 906 1312 657 
Q 1506 409 1894 409 
Q 2359 409 2629 706 
Q 2900 1003 2900 1516 
L 2900 3500 
L 3475 3500 
L 3475 0 
L 2900 0 
L 2900 538 
Q 2691 219 2414 64 
Q 2138 -91 1772 -91 
Q 1169 -91 856 284 
Q 544 659 544 1381 
z
M 1991 3584 
L 1991 3584 
z
" transform="scale(0.015625)"/>
       <path id="DejaVuSans-6e" d="M 3513 2113 
L 3513 0 
L 2938 0 
L 2938 2094 
Q 2938 2591 2744 2837 
Q 2550 3084 2163 3084 
Q 1697 3084 1428 2787 
Q 1159 2491 1159 1978 
L 1159 0 
L 581 0 
L 581 3500 
L 1159 3500 
L 1159 2956 
Q 1366 3272 1645 3428 
Q 1925 3584 2291 3584 
Q 2894 3584 3203 3211 
Q 3513 2838 3513 2113 
z
" transform="scale(0.015625)"/>
       <path id="DejaVuSans-63" d="M 3122 3366 
L 3122 2828 
Q 2878 2963 2633 3030 
Q 2388 3097 2138 3097 
Q 1578 3097 1268 2742 
Q 959 2388 959 1747 
Q 959 1106 1268 751 
Q 1578 397 2138 397 
Q 2388 397 2633 464 
Q 2878 531 3122 666 
L 3122 134 
Q 2881 22 2623 -34 
Q 2366 -91 2075 -91 
Q 1284 -91 818 406 
Q 353 903 353 1747 
Q 353 2603 823 3093 
Q 1294 3584 2113 3584 
Q 2378 3584 2631 3529 
Q 2884 3475 3122 3366 
z
" transform="scale(0.015625)"/>
       <path id="DejaVuSans-79" d="M 2059 -325 
Q 1816 -950 1584 -1140 
Q 1353 -1331 966 -1331 
L 506 -1331 
L 506 -850 
L 844 -850 
Q 1081 -850 1212 -737 
Q 1344 -625 1503 -206 
L 1606 56 
L 191 3500 
L 800 3500 
L 1894 763 
L 2988 3500 
L 3597 3500 
L 2059 -325 
z
" transform="scale(0.015625)"/>
       <path id="DejaVuSans-5b" d="M 550 4863 
L 1875 4863 
L 1875 4416 
L 1125 4416 
L 1125 -397 
L 1875 -397 
L 1875 -844 
L 550 -844 
L 550 4863 
z
" transform="scale(0.015625)"/>
       <path id="DejaVuSans-2f" d="M 1625 4666 
L 2156 4666 
L 531 -594 
L 0 -594 
L 1625 4666 
z
" transform="scale(0.015625)"/>
       <path id="DejaVuSans-3c0" d="M 231 3500 
L 3584 3500 
L 3584 2925 
L 3144 2925 
L 3144 775 
Q 3144 550 3220 451 
Q 3297 353 3469 353 
Q 3516 353 3584 361 
Q 3653 369 3675 372 
L 3675 -44 
Q 3566 -84 3450 -103 
Q 3334 -122 3219 -122 
Q 2844 -122 2700 83 
Q 2556 288 2556 838 
L 2556 2925 
L 1266 2925 
L 1266 0 
L 678 0 
L 678 2925 
L 231 2925 
L 231 3500 
z
" transform="scale(0.015625)"/>
       <path id="DejaVuSans-5d" d="M 1947 4863 
L 1947 -844 
L 622 -844 
L 622 -397 
L 1369 -397 
L 1369 4416 
L 622 4416 
L 622 4863 
L 1947 4863 
z
" transform="scale(0.015625)"/>
      </defs>
      <use xlink:href="#DejaVuSans-4e"/>
      <use xlink:href="#DejaVuSans-6f" transform="translate(74.804688 0)"/>
      <use xlink:href="#DejaVuSans-72" transform="translate(135.986328 0)"/>
      <use xlink:href="#DejaVuSans-6d" transform="translate(175.349609 0)"/>
      <use xlink:href="#DejaVuSans-61" transform="translate(272.761719 0)"/>
      <use xlink:href="#DejaVuSans-6c" transform="translate(334.041016 0)"/>
      <use xlink:href="#DejaVuSans-69" transform="translate(361.824219 0)"/>
      <use xlink:href="#DejaVuSans-7a" transform="translate(389.607422 0)"/>
      <use xlink:href="#DejaVuSans-65" transform="translate(442.097656 0)"/>
      <use xlink:href="#DejaVuSans-64" transform="translate(503.621094 0)"/>
      <use xlink:href="#DejaVuSans-20" transform="translate(567.097656 0)"/>
      <use xlink:href="#DejaVuSans-46" transform="translate(598.884766 0)"/>
      <use xlink:href="#DejaVuSans-72" transform="translate(649.154297 0)"/>
      <use xlink:href="#DejaVuSans-65" transform="translate(688.017578 0)"/>
      <use xlink:href="#DejaVuSans-71" transform="translate(749.541016 0)"/>
      <use xlink:href="#DejaVuSans-75" transform="translate(813.017578 0)"/>
      <use xlink:href="#DejaVuSans-65" transform="translate(876.396484 0)"/>
      <use xlink:href="#DejaVuSans-6e" transform="translate(937.919922 0)"/>
      <use xlink:href="#DejaVuSans-63" transform="translate(1001.298828 0)"/>
      <use xlink:href="#DejaVuSans-79" transform="translate(1056.279297 0)"/>
      <use xlink:href="#DejaVuSans-20" transform="translate(1115.458984 0)"/>
      <use xlink:href="#DejaVuSans-5b" transform="translate(1147.246094 0)"/>
      <use xlink:href="#DejaVuSans-72" transform="translate(1186.259766 0)"/>
      <use xlink:href="#DejaVuSans-61" transform="translate(1227.373047 0)"/>
      <use xlink:href="#DejaVuSans-64" transform="translate(1288.652344 0)"/>
      <use xlink:href="#DejaVuSans-2f" transform="translate(1352.128906 0)"/>
      <use xlink:href="#DejaVuSans-32" transform="translate(1385.820312 0)"/>
      <use xlink:href="#DejaVuSans-3c0" transform="translate(1449.443359 0)"/>
      <use xlink:href="#DejaVuSans-5d" transform="translate(1509.648438 0)"/>
     </g>
    </g>
   </g>
   <g id="matplotlib.axis_2">
    <g id="ytick_1">
     <g id="line2d_45">
      <path d="M 52.94 314.728 
L 565.2 314.728 
" clip-path="url(#p05ac3304bb)" style="fill: none; stroke: #f0f0f0; stroke-width: 0.8; stroke-linecap: square"/>
     </g>
     <g id="line2d_46">
      <defs>
       <path id="m4011ae9667" d="M 0 0 
L -3.5 0 
" style="stroke: #000000; stroke-width: 0.8"/>
      </defs>
      <g>
       <use xlink:href="#m4011ae9667" x="52.94" y="314.728" style="stroke: #000000; stroke-width: 0.8"/>
      </g>
     </g>
     <g id="text_6">
      <!-- −20 -->
      <g transform="translate(24.835313 318.527219) scale(0.1 -0.1)">
       <use xlink:href="#DejaVuSans-2212"/>
       <use xlink:href="#DejaVuSans-32" transform="translate(83.789062 0)"/>
       <use xlink:href="#DejaVuSans-30" transform="translate(147.412109 0)"/>
      </g>
     </g>
    </g>
    <g id="ytick_2">
     <g id="line2d_47">
      <path d="M 52.94 278.747 
L 565.2 278.747 
" clip-path="url(#p05ac3304bb)" style="fill: none; stroke: #f0f0f0; stroke-width: 0.8; stroke-linecap: square"/>
     </g>
     <g id="line2d_48">
      <g>
       <use xlink:href="#m4011ae9667" x="52.94" y="278.747" style="stroke: #000000; stroke-width: 0.8"/>
      </g>
     </g>
     <g id="text_7">
      <!-- −15 -->
      <g transform="translate(24.835313 282.546219) scale(0.1 -0.1)">
       <defs>
        <path id="DejaVuSans-35" d="M 691 4666 
L 3169 4666 
L 3169 4134 
L 1269 4134 
L 1269 2991 
Q 1406 3038 1543 3061 
Q 1681 3084 1819 3084 
Q 2600 3084 3056 2656 
Q 3513 2228 3513 1497 
Q 3513 744 3044 326 
Q 2575 -91 1722 -91 
Q 1428 -91 1123 -41 
Q 819 9 494 109 
L 494 744 
Q 775 591 1075 516 
Q 1375 441 1709 441 
Q 2250 441 2565 725 
Q 2881 1009 2881 1497 
Q 2881 1984 2565 2268 
Q 2250 2553 1709 2553 
Q 1456 2553 1204 2497 
Q 953 2441 691 2322 
L 691 4666 
z
" transform="scale(0.015625)"/>
       </defs>
       <use xlink:href="#DejaVuSans-2212"/>
       <use xlink:href="#DejaVuSans-31" transform="translate(83.789062 0)"/>
       <use xlink:href="#DejaVuSans-35" transform="translate(147.412109 0)"/>
      </g>
     </g>
    </g>
    <g id="ytick_3">
     <g id="line2d_49">
      <path d="M 52.94 242.766 
L 565.2 242.766 
" clip-path="url(#p05ac3304bb)" style="fill: none; stroke: #f0f0f0; stroke-width: 0.8; stroke-linecap: square"/>
     </g>
     <g id="line2d_50">
      <g>
       <use xlink:href="#m4011ae9667" x="52.94" y="242.766" style="stroke: #000000; stroke-width: 0.8"/>
      </g>
     </g>
     <g id="text_8">
      <!-- −10 -->
      <g transform="translate(24.835313 246.565219) scale(0.1 -0.1)">
       <use xlink:href="#DejaVuSans-2212"/>
       <use xlink:href="#DejaVuSans-31" transform="translate(83.789062 0)"/>
       <use xlink:href="#DejaVuSans-30" transform="translate(147.412109 0)"/>
      </g>
     </g>
    </g>
    <g id="ytick_4">
     <g id="line2d_51">
      <path d="M 52.94 206.785 
L 565.2 206.785 
" clip-path="url(#p05ac3304bb)" style="fill: none; stroke: #f0f0f0; stroke-width: 0.8; stroke-linecap: square"/>
     </g>
     <g id="line2d_52">
      <g>
       <use xlink:href="#m4011ae9667" x="52.94" y="206.785" style="stroke: #000000; stroke-width: 0.8"/>
      </g>
     </g>
     <g id="text_9">
      <!-- −5 -->
      <g transform="translate(31.197813 210.584219) scale(0.1 -0.1)">
       <use xlink:href="#DejaVuSans-2212"/>
       <use xlink:href="#DejaVuSans-35" transform="translate(83.789062 0)"/>
      </g>
     </g>
    </g>
    <g id="ytick_5">
     <g id="line2d_53">
      <path d="M 52.94 170.804 
L 565.2 170.804 
" clip-path="url(#p05ac3304bb)" style="fill: none; stroke: #f0f0f0; stroke-width: 0.8; stroke-linecap: square"/>
     </g>
     <g id="line2d_54">
      <g>
       <use xlink:href="#m4011ae9667" x="52.94" y="170.804" style="stroke: #000000; stroke-width: 0.8"/>
      </g>
     </g>
     <g id="text_10">
      <!-- 0 -->
      <g transform="translate(39.5775 174.603219) scale(0.1 -0.1)">
       <use xlink:href="#DejaVuSans-30"/>
      </g>
     </g>
    </g>
    <g id="ytick_6">
     <g id="line2d_55">
      <path d="M 52.94 134.823 
L 565.2 134.823 
" clip-path="url(#p05ac3304bb)" style="fill: none; stroke: #f0f0f0; stroke-width: 0.8; stroke-linecap: square"/>
     </g>
     <g id="line2d_56">
      <g>
       <use xlink:href="#m4011ae9667" x="52.94" y="134.823" style="stroke: #000000; stroke-width: 0.8"/>
      </g>
     </g>
     <g id="text_11">
      <!-- 5 -->
      <g transform="translate(39.5775 138.622219) scale(0.1 -0.1)">
       <use xlink:href="#DejaVuSans-35"/>
      </g>
     </g>
    </g>
    <g id="ytick_7">
     <g id="line2d_57">
      <path d="M 52.94 98.842 
L 565.2 98.842 
" clip-path="url(#p05ac3304bb)" style="fill: none; stroke: #f0f0f0; stroke-width: 0.8; stroke-linecap: square"/>
     </g>
     <g id="line2d_58">
      <g>
       <use xlink:href="#m4011ae9667" x="52.94" y="98.842" style="stroke: #000000; stroke-width: 0.8"/>
      </g>
     </g>
     <g id="text_12">
      <!-- 10 -->
      <g transform="translate(33.215 102.641219) scale(0.1 -0.1)">
       <use xlink:href="#DejaVuSans-31"/>
       <use xlink:href="#DejaVuSans-30" transform="translate(63.623047 0)"/>
      </g>
     </g>
    </g>
    <g id="ytick_8">
     <g id="line2d_59">
      <path d="M 52.94 62.861 
L 565.2 62.861 
" clip-path="url(#p05ac3304bb)" style="fill: none; stroke: #f0f0f0; stroke-width: 0.8; stroke-linecap: square"/>
     </g>
     <g id="line2d_60">
      <g>
       <use xlink:href="#m4011ae9667" x="52.94" y="62.861" style="stroke: #000000; stroke-width: 0.8"/>
      </g>
     </g>
     <g id="text_13">
      <!-- 15 -->
      <g transform="translate(33.215 66.660219) scale(0.1 -0.1)">
       <use xlink:href="#DejaVuSans-31"/>
       <use xlink:href="#DejaVuSans-35" transform="translate(63.623047 0)"/>
      </g>
     </g>
    </g>
    <g id="ytick_9">
     <g id="line2d_61">
      <path d="M 52.94 26.88 
L 565.2 26.88 
" clip-path="url(#p05ac3304bb)" style="fill: none; stroke: #f0f0f0; stroke-width: 0.8; stroke-linecap: square"/>
     </g>
     <g id="line2d_62">
      <g>
       <use xlink:href="#m4011ae9667" x="52.94" y="26.88" style="stroke: #000000; stroke-width: 0.8"/>
      </g>
     </g>
     <g id="text_14">
      <!-- 20 -->
      <g transform="translate(33.215 30.679219) scale(0.1 -0.1)">
       <use xlink:href="#DejaVuSans-32"/>
       <use xlink:href="#DejaVuSans-30" transform="translate(63.623047 0)"/>
      </g>
     </g>
    </g>
    <g id="text_15">
     <!-- Amplitude [dB] -->
     <g transform="translate(18.755625 208.521969) rotate(-90) scale(0.1 -0.1)">
      <defs>
       <path id="DejaVuSans-41" d="M 2188 4044 
L 1331 1722 
L 3047 1722 
L 2188 4044 
z
M 1831 4666 
L 2547 4666 
L 4325 0 
L 3669 0 
L 3244 1197 
L 1141 1197 
L 716 0 
L 50 0 
L 1831 4666 
z
" transform="scale(0.015625)"/>
       <path id="DejaVuSans-70" d="M 1159 525 
L 1159 -1331 
L 581 -1331 
L 581 3500 
L 1159 3500 
L 1159 2969 
Q 1341 3281 1617 3432 
Q 1894 3584 2278 3584 
Q 2916 3584 3314 3078 
Q 3713 2572 3713 1747 
Q 3713 922 3314 415 
Q 2916 -91 2278 -91 
Q 1894 -91 1617 61 
Q 1341 213 1159 525 
z
M 3116 1747 
Q 3116 2381 2855 2742 
Q 2594 3103 2138 3103 
Q 1681 3103 1420 2742 
Q 1159 2381 1159 1747 
Q 1159 1113 1420 752 
Q 1681 391 2138 391 
Q 2594 391 2855 752 
Q 3116 1113 3116 1747 
z
" transform="scale(0.015625)"/>
       <path id="DejaVuSans-74" d="M 1172 4494 
L 1172 3500 
L 2356 3500 
L 2356 3053 
L 1172 3053 
L 1172 1153 
Q 1172 725 1289 603 
Q 1406 481 1766 481 
L 2356 481 
L 2356 0 
L 1766 0 
Q 1100 0 847 248 
Q 594 497 594 1153 
L 594 3053 
L 172 3053 
L 172 3500 
L 594 3500 
L 594 4494 
L 1172 4494 
z
" transform="scale(0.015625)"/>
       <path id="DejaVuSans-42" d="M 1259 2228 
L 1259 519 
L 2272 519 
Q 2781 519 3026 730 
Q 3272 941 3272 1375 
Q 3272 1813 3026 2020 
Q 2781 2228 2272 2228 
L 1259 2228 
z
M 1259 4147 
L 1259 2741 
L 2194 2741 
Q 2656 2741 2882 2914 
Q 3109 3088 3109 3444 
Q 3109 3797 2882 3972 
Q 2656 4147 2194 4147 
L 1259 4147 
z
M 628 4666 
L 2241 4666 
Q 2963 4666 3353 4366 
Q 3744 4066 3744 3513 
Q 3744 3084 3544 2831 
Q 3344 2578 2956 2516 
Q 3422 2416 3680 2098 
Q 3938 1781 3938 1306 
Q 3938 681 3513 340 
Q 3088 0 2303 0 
L 628 0 
L 628 4666 
z
" transform="scale(0.015625)"/>
      </defs>
      <use xlink:href="#DejaVuSans-41"/>
      <use xlink:href="#DejaVuSans-6d" transform="translate(68.408203 0)"/>
      <use xlink:href="#DejaVuSans-70" transform="translate(165.820312 0)"/>
      <use xlink:href="#DejaVuSans-6c" transform="translate(229.296875 0)"/>
      <use xlink:href="#DejaVuSans-69" transform="translate(257.080078 0)"/>
      <use xlink:href="#DejaVuSans-74" transform="translate(284.863281 0)"/>
      <use xlink:href="#DejaVuSans-75" transform="translate(324.072266 0)"/>
      <use xlink:href="#DejaVuSans-64" transform="translate(387.451172 0)"/>
      <use xlink:href="#DejaVuSans-65" transform="translate(450.927734 0)"/>
      <use xlink:href="#DejaVuSans-20" transform="translate(512.451172 0)"/>
      <use xlink:href="#DejaVuSans-5b" transform="translate(544.238281 0)"/>
      <use xlink:href="#DejaVuSans-64" transform="translate(583.251953 0)"/>
      <use xlink:href="#DejaVuSans-42" transform="translate(646.728516 0)"/>
      <use xlink:href="#DejaVuSans-5d" transform="translate(715.332031 0)"/>
     </g>
    </g>
   </g>
   <g id="line2d_63">
    <path d="M 39.252766 170.711158 
L 74.315915 170.431854 
L 94.826542 169.963716 
L 109.379064 169.30272 
L 120.666876 168.443078 
L 129.889691 167.377077 
L 137.68747 166.094848 
L 144.442213 164.584067 
L 150.400318 162.829561 
L 155.730025 160.812794 
L 160.551332 158.511204 
L 164.95284 155.897342 
L 169.001835 152.93776 
L 172.750619 149.591573 
L 176.240653 145.808607 
L 179.505362 141.527073 
L 182.572084 136.670772 
L 185.463467 131.14615 
L 188.198481 124.840434 
L 190.793174 117.624852 
L 193.261246 109.374939 
L 195.614481 100.043263 
L 200.015989 80.013024 
L 202.080987 73.318657 
L 204.064984 73.682793 
L 205.974095 81.627842 
L 207.813767 93.544671 
L 211.303802 118.102465 
L 214.568511 138.802842 
L 217.635233 155.819306 
L 220.526616 170.124457 
L 223.26163 182.447443 
L 225.856323 193.280038 
L 229.514695 207.438301 
L 232.926241 219.717827 
L 237.144136 233.949093 
L 241.037243 246.351464 
L 245.516755 259.936218 
L 250.415945 274.122431 
L 256.287506 290.386926 
L 262.168559 306.023048 
L 268.536265 322.335078 
L 275.154843 338.692394 
L 281.849898 354.667099 
L 284.57093 361 
L 284.57093 361 
" clip-path="url(#p05ac3304bb)" style="fill: none; stroke: #440154; stroke-width: 1.5; stroke-linecap: square"/>
   </g>
   <g id="line2d_64">
    <path d="M 203.280698 314.728 
L 203.280698 26.88 
" clip-path="url(#p05ac3304bb)" style="fill: none; stroke-dasharray: 3.7,1.6; stroke-dashoffset: 0; stroke: #440154; stroke-opacity: 0.66"/>
   </g>
   <g id="line2d_65">
    <path d="M 39.252766 170.780802 
L 94.826542 170.594927 
L 120.666876 170.221605 
L 137.68747 169.657649 
L 150.400318 168.898172 
L 160.551332 167.936446 
L 169.001835 166.763713 
L 176.240653 165.36892 
L 182.572084 163.738374 
L 188.198481 161.855293 
L 190.793174 160.812822 
L 193.261246 159.699222 
L 195.614481 158.511238 
L 197.863092 157.245278 
L 200.015989 155.897381 
L 202.080987 154.46317 
L 204.064984 152.937806 
L 205.974095 151.315935 
L 207.813767 149.591626 
L 209.588877 147.758302 
L 211.303802 145.808666 
L 212.962489 143.734612 
L 214.568511 141.527138 
L 216.125108 139.176245 
L 217.635233 136.670844 
L 219.10158 133.998671 
L 220.526616 131.146228 
L 221.912605 128.098789 
L 223.26163 124.840517 
L 224.575611 121.354797 
L 225.856323 117.624938 
L 228.324395 109.375024 
L 230.67763 100.04334 
L 232.926241 89.881602 
L 235.079138 80.013056 
L 236.122173 76.011348 
L 237.144136 73.318663 
L 238.14586 72.45207 
L 239.128133 73.682809 
L 240.091694 76.889863 
L 241.037243 81.627909 
L 242.876916 93.544797 
L 247.203092 123.674499 
L 249.631659 138.803113 
L 251.948955 151.854524 
L 254.164729 163.258991 
L 256.975754 176.498836 
L 259.63876 188.026666 
L 262.781723 200.632438 
L 266.312372 213.779663 
L 270.142287 227.098382 
L 274.191282 240.347861 
L 278.835406 254.724067 
L 283.898171 269.613433 
L 289.227878 284.590529 
L 295.02514 300.227188 
L 301.375521 316.707669 
L 308.023581 333.335728 
L 314.778324 349.637929 
L 319.632189 361 
L 319.632189 361 
" clip-path="url(#p05ac3304bb)" style="fill: none; stroke: #481f70; stroke-width: 1.5; stroke-linecap: square"/>
   </g>
   <g id="line2d_66">
    <path d="M 238.343847 314.728 
L 238.343847 26.88 
" clip-path="url(#p05ac3304bb)" style="fill: none; stroke-dasharray: 3.7,1.6; stroke-dashoffset: 0; stroke: #481f70; stroke-opacity: 0.66"/>
   </g>
   <g id="line2d_67">
    <path d="M 39.252766 170.798201 
L 120.666876 170.658882 
L 144.442213 170.431862 
L 160.551332 170.098657 
L 172.750619 169.657663 
L 182.572084 169.106726 
L 190.793174 168.443114 
L 197.863092 167.66347 
L 204.064984 166.763758 
L 209.588877 165.739192 
L 214.568511 164.584154 
L 219.10158 163.292091 
L 223.26163 161.855388 
L 227.10541 160.26522 
L 230.67763 158.511365 
L 234.014142 156.58198 
L 237.144136 154.463333 
L 240.091694 152.139472 
L 242.876916 149.591826 
L 245.516755 146.79873 
L 248.025638 143.734853 
L 250.415945 140.370546 
L 252.698382 136.671124 
L 254.882265 132.596172 
L 256.975754 128.099102 
L 258.986036 123.127467 
L 260.919472 117.62527 
L 262.781723 111.539978 
L 264.577844 104.840374 
L 266.312372 97.55852 
L 271.185322 76.011407 
L 271.698884 74.466053 
L 272.207285 73.318678 
L 272.710627 72.631815 
L 273.209009 72.452079 
L 273.70253 72.803326 
L 274.191282 73.682863 
L 274.675356 75.061883 
L 275.629827 79.102494 
L 276.566621 84.396316 
L 278.389717 96.717499 
L 282.266241 123.675405 
L 284.694808 138.804187 
L 287.012104 151.855745 
L 289.587918 165.027123 
L 292.379547 178.02517 
L 295.346318 190.693462 
L 298.450693 202.95951 
L 301.940727 215.803481 
L 305.729642 228.860212 
L 309.738505 241.886936 
L 314.340352 256.056869 
L 319.361207 270.764545 
L 324.830131 286.07692 
L 330.728619 301.924804 
L 337.144196 318.510135 
L 343.828828 335.166543 
L 350.598916 351.444739 
L 354.688036 361 
L 354.688036 361 
" clip-path="url(#p05ac3304bb)" style="fill: none; stroke: #443a83; stroke-width: 1.5; stroke-linecap: square"/>
   </g>
   <g id="line2d_68">
    <path d="M 273.406996 314.728 
L 273.406996 26.88 
" clip-path="url(#p05ac3304bb)" style="fill: none; stroke-dasharray: 3.7,1.6; stroke-dashoffset: 0; stroke: #443a83; stroke-opacity: 0.66"/>
   </g>
   <g id="line2d_69">
    <path d="M 39.252766 170.80255 
L 150.400318 170.686485 
L 179.505362 170.431879 
L 197.863092 170.03273 
L 209.588877 169.573598 
L 219.10158 169.004114 
L 227.10541 168.321445 
L 234.014142 167.522124 
L 240.091694 166.601997 
L 245.516755 165.556144 
L 250.415945 164.3788 
L 254.882265 163.063243 
L 258.986036 161.601668 
L 262.781723 159.985031 
L 266.312372 158.202856 
L 269.612592 156.243006 
L 272.207285 154.463982 
L 274.675356 152.542497 
L 277.028592 150.46795 
L 279.277203 148.22829 
L 281.4301 145.8098 
L 283.495098 143.196842 
L 285.479094 140.371585 
L 287.388205 137.313709 
L 289.227878 134.000127 
L 291.002988 130.404777 
L 292.717912 126.498621 
L 294.3766 122.250106 
L 296.297796 116.65413 
L 298.148689 110.467605 
L 299.934243 103.665984 
L 301.940727 95.027985 
L 305.989722 76.911682 
L 306.762033 74.466186 
L 307.270434 73.318738 
L 307.773776 72.631841 
L 308.272158 72.452117 
L 308.51952 72.560922 
L 309.010645 73.178435 
L 309.497047 74.312948 
L 310.217992 76.890579 
L 310.928806 80.331595 
L 312.09174 87.343177 
L 314.119936 101.478419 
L 317.32939 123.679029 
L 319.757957 138.808483 
L 322.075253 151.860627 
L 324.471367 164.153598 
L 327.102052 176.50653 
L 329.926931 188.708993 
L 333.060158 201.229081 
L 336.43867 213.790919 
L 340.13668 226.666515 
L 344.195834 239.975317 
L 348.627806 253.733573 
L 353.520123 268.183446 
L 358.900492 283.366616 
L 364.747075 299.189516 
L 371.002029 315.475123 
L 377.649029 332.157917 
L 384.46665 348.667913 
L 389.722075 361 
L 389.722075 361 
" clip-path="url(#p05ac3304bb)" style="fill: none; stroke: #3a538b; stroke-width: 1.5; stroke-linecap: square"/>
   </g>
   <g id="line2d_70">
    <path d="M 308.470145 314.728 
L 308.470145 26.88 
" clip-path="url(#p05ac3304bb)" style="fill: none; stroke-dasharray: 3.7,1.6; stroke-dashoffset: 0; stroke: #3a538b; stroke-opacity: 0.66"/>
   </g>
   <g id="line2d_71">
    <path d="M 39.252766 170.803638 
L 182.572084 170.699209 
L 212.962489 170.454899 
L 230.67763 170.09882 
L 243.772257 169.616258 
L 254.164729 169.004444 
L 262.168559 168.321897 
L 269.077291 167.522718 
L 275.154843 166.60275 
L 280.579904 165.557075 
L 285.479094 164.379926 
L 289.945414 163.064583 
L 293.719637 161.730806 
L 297.231708 160.26744 
L 300.515691 158.666565 
L 303.599414 156.91912 
L 306.505904 155.014725 
L 309.254431 152.941477 
L 311.861283 150.685701 
L 314.340352 148.231655 
L 316.703583 145.561187 
L 318.96132 142.653335 
L 321.12258 139.483878 
L 323.195271 136.024868 
L 325.186368 132.244196 
L 327.102052 128.10536 
L 328.947828 123.567747 
L 330.728619 118.588142 
L 332.448846 113.124968 
L 334.261055 106.579281 
L 336.15368 98.813435 
L 338.389865 88.597812 
L 340.662248 78.397072 
L 341.569053 75.194199 
L 342.206961 73.564955 
L 342.711558 72.757614 
L 343.08673 72.476595 
L 343.45914 72.489994 
L 343.828828 72.803834 
L 344.195834 73.415526 
L 344.681069 74.674413 
L 345.281141 76.892872 
L 346.109459 80.976182 
L 347.269726 88.106684 
L 349.403501 103.063921 
L 352.496092 124.370962 
L 354.821106 138.825671 
L 357.138401 151.88016 
L 359.624446 164.616218 
L 362.250577 176.914915 
L 365.070823 189.071795 
L 368.123307 201.260571 
L 371.501818 213.826946 
L 375.199829 226.70818 
L 379.258983 240.024123 
L 383.690954 253.791512 
L 388.583272 268.253385 
L 393.963641 283.452527 
L 399.810224 299.296767 
L 406.136879 315.794412 
L 412.806466 332.564608 
L 419.694483 349.283857 
L 424.669243 361 
L 424.669243 361 
" clip-path="url(#p05ac3304bb)" style="fill: none; stroke: #306a8e; stroke-width: 1.5; stroke-linecap: square"/>
   </g>
   <g id="line2d_72">
    <path d="M 343.533294 314.728 
L 343.533294 26.88 
" clip-path="url(#p05ac3304bb)" style="fill: none; stroke-dasharray: 3.7,1.6; stroke-dashoffset: 0; stroke: #306a8e; stroke-opacity: 0.66"/>
   </g>
   <g id="line2d_73">
    <path d="M 39.252766 170.803909 
L 219.10158 170.693031 
L 248.025638 170.455158 
L 265.740779 170.099343 
L 278.389717 169.638049 
L 288.500018 169.057454 
L 296.922316 168.354425 
L 303.87065 167.560745 
L 309.978817 166.646538 
L 315.428253 165.606919 
L 320.15162 164.48764 
L 324.471367 163.242065 
L 328.451077 161.863428 
L 332.140397 160.343936 
L 335.434103 158.750448 
L 338.526398 157.010878 
L 341.4405 155.114907 
L 344.195834 153.050702 
L 346.808808 150.804667 
L 349.183085 148.476754 
L 351.450901 145.953285 
L 353.621396 143.216318 
L 355.702579 140.245255 
L 357.70151 137.016469 
L 359.624446 133.502944 
L 361.563498 129.483263 
L 363.430957 125.077958 
L 365.231924 120.244274 
L 366.970969 114.939268 
L 368.727319 108.850981 
L 370.497252 101.897163 
L 372.486823 93.127145 
L 376.051125 77.154563 
L 376.888331 74.468852 
L 377.523038 73.102631 
L 377.962641 72.581391 
L 378.336426 72.446449 
L 378.645818 72.562182 
L 379.014608 72.97702 
L 379.441492 73.83369 
L 379.985102 75.488036 
L 380.641677 78.247153 
L 381.523491 83.010442 
L 382.789631 91.224585 
L 389.337917 135.623955 
L 391.679802 149.124773 
L 394.100174 161.797644 
L 396.713044 174.28968 
L 399.525235 186.636445 
L 402.575144 199.012474 
L 405.885478 211.507471 
L 409.497778 224.269391 
L 413.461605 237.452431 
L 417.824353 251.185054 
L 422.648245 265.626856 
L 427.967612 280.84217 
L 433.827377 296.920966 
L 440.20511 313.766278 
L 447.046554 331.206418 
L 454.220436 348.88606 
L 459.275378 361 
L 459.275378 361 
" clip-path="url(#p05ac3304bb)" style="fill: none; stroke: #277e8e; stroke-width: 1.5; stroke-linecap: square"/>
   </g>
   <g id="line2d_74">
    <path d="M 378.596443 314.728 
L 378.596443 26.88 
" clip-path="url(#p05ac3304bb)" style="fill: none; stroke-dasharray: 3.7,1.6; stroke-dashoffset: 0; stroke: #277e8e; stroke-opacity: 0.66"/>
   </g>
   <g id="line2d_75">
    <path d="M 39.252766 170.803977 
L 254.164729 170.693362 
L 283.088787 170.456196 
L 300.803928 170.101432 
L 313.676201 169.631088 
L 323.746116 169.049769 
L 332.140397 168.346278 
L 339.203589 167.534578 
L 345.281141 166.617803 
L 350.598916 165.598714 
L 355.410458 164.454045 
L 359.714216 163.20609 
L 363.680352 161.825008 
L 367.280835 160.337597 
L 370.641989 158.706829 
L 373.725712 156.964388 
L 376.632202 155.065226 
L 379.319892 153.046382 
L 381.871957 150.853705 
L 384.301428 148.472538 
L 386.619546 145.886033 
L 388.836074 143.074788 
L 390.959542 140.016449 
L 392.997451 136.685284 
L 394.956429 133.051773 
L 396.842363 129.082343 
L 398.660506 124.739482 
L 400.455661 119.866873 
L 402.228006 114.390343 
L 403.977752 108.238713 
L 405.777351 101.065265 
L 407.793255 92.063893 
L 411.016775 77.539555 
L 411.919535 74.563535 
L 412.55464 73.157425 
L 413.02579 72.582928 
L 413.399575 72.448568 
L 413.708967 72.566204 
L 414.047127 72.93866 
L 414.474268 73.774 
L 414.988137 75.301088 
L 415.645488 78.010732 
L 416.499147 82.564915 
L 417.710486 90.361126 
L 420.966289 113.45784 
L 423.468706 130.111992 
L 425.804597 144.164218 
L 428.199762 157.221085 
L 430.72956 169.786305 
L 433.452977 182.187463 
L 436.39305 194.540606 
L 439.598629 207.049268 
L 443.115773 219.873797 
L 446.982684 233.128314 
L 451.269555 247.02102 
L 456.042797 261.726711 
L 461.387195 277.462834 
L 467.42936 294.551072 
L 474.309265 313.329279 
L 482.221283 334.265065 
L 491.491842 358.150326 
L 492.611996 361 
L 492.611996 361 
" clip-path="url(#p05ac3304bb)" style="fill: none; stroke: #20928c; stroke-width: 1.5; stroke-linecap: square"/>
   </g>
   <g id="line2d_76">
    <path d="M 413.659591 314.728 
L 413.659591 26.88 
" clip-path="url(#p05ac3304bb)" style="fill: none; stroke-dasharray: 3.7,1.6; stroke-dashoffset: 0; stroke: #20928c; stroke-opacity: 0.66"/>
   </g>
   <g id="line2d_77">
    <path d="M 39.252766 170.803994 
L 289.587918 170.693115 
L 318.558247 170.45476 
L 336.296376 170.097827 
L 349.183085 169.624252 
L 359.263764 169.038528 
L 367.588814 168.336979 
L 374.601964 167.528245 
L 380.700945 166.605184 
L 386.036575 165.57799 
L 390.814251 164.436053 
L 395.134861 163.177083 
L 399.032916 161.813925 
L 402.613568 160.33043 
L 405.921469 158.722654 
L 408.992424 156.985962 
L 411.855584 155.114967 
L 414.565331 153.079076 
L 417.108442 150.891375 
L 419.529799 148.514511 
L 421.840528 145.931317 
L 424.025151 143.156052 
L 426.11932 140.137872 
L 428.153417 136.811042 
L 430.108872 133.179402 
L 431.991542 129.208537 
L 433.827377 124.806905 
L 435.598914 119.975319 
L 437.349177 114.542466 
L 439.078275 108.435815 
L 440.858537 101.303747 
L 442.856404 92.323574 
L 446.161186 77.315887 
L 447.030594 74.469154 
L 447.649335 73.117932 
L 448.120193 72.566378 
L 448.478239 72.458 
L 448.787536 72.59409 
L 449.140906 73.01724 
L 449.56779 73.909136 
L 450.096378 75.569158 
L 450.767975 78.477352 
L 451.649789 83.384778 
L 452.94434 92.010826 
L 459.126017 134.871575 
L 461.459254 148.713861 
L 463.895884 161.837366 
L 466.503728 174.663036 
L 469.323853 187.413251 
L 472.40266 200.299989 
L 475.804329 213.573443 
L 479.590542 227.442593 
L 483.873806 242.275776 
L 488.824537 258.602717 
L 494.819892 277.58191 
L 503.080996 302.935666 
L 519.804035 354.121467 
L 521.983864 361 
L 521.983864 361 
" clip-path="url(#p05ac3304bb)" style="fill: none; stroke: #22a785; stroke-width: 1.5; stroke-linecap: square"/>
   </g>
   <g id="line2d_78">
    <path d="M 448.72274 314.728 
L 448.72274 26.88 
" clip-path="url(#p05ac3304bb)" style="fill: none; stroke-dasharray: 3.7,1.6; stroke-dashoffset: 0; stroke: #22a785; stroke-opacity: 0.66"/>
   </g>
   <g id="line2d_79">
    <path d="M 39.252766 170.803999 
L 325.891403 170.693129 
L 354.821106 170.455292 
L 372.556452 170.098764 
L 385.39285 169.627703 
L 395.489848 169.041664 
L 403.752928 168.34605 
L 410.755857 167.539454 
L 416.819217 166.622469 
L 422.154725 165.595172 
L 426.909546 164.457144 
L 431.190129 163.207468 
L 435.075958 161.844738 
L 438.6468 160.358542 
L 441.929168 158.753353 
L 444.978232 157.015905 
L 447.822493 155.139799 
L 450.485498 153.117669 
L 453.001114 150.927872 
L 455.384001 148.557274 
L 457.646731 145.990781 
L 459.800167 143.211055 
L 461.865661 140.179559 
L 463.850116 136.868289 
L 465.759651 133.244844 
L 467.599717 129.271977 
L 469.385455 124.880569 
L 471.120213 120.016076 
L 472.816627 114.588297 
L 474.504378 108.427223 
L 476.227339 101.270809 
L 478.161672 92.230284 
L 481.362181 77.120334 
L 482.189428 74.347928 
L 482.783393 73.050902 
L 483.222383 72.562549 
L 483.549143 72.490542 
L 483.850685 72.657888 
L 484.196399 73.132983 
L 484.623347 74.136418 
L 485.159527 76.020612 
L 485.838536 79.292403 
L 486.742068 84.839696 
L 488.13514 94.959544 
L 493.025939 131.425174 
L 495.338532 146.519272 
L 497.749531 160.792443 
L 500.352131 174.861755 
L 503.223112 189.151194 
L 506.460218 204.121117 
L 510.235408 220.505163 
L 514.950527 239.935429 
L 523.180579 272.717418 
L 530.010105 300.327582 
L 534.449258 319.196521 
L 538.133601 335.815964 
L 541.365349 351.41437 
L 543.234235 361 
L 543.234235 361 
" clip-path="url(#p05ac3304bb)" style="fill: none; stroke: #3bbb75; stroke-width: 1.5; stroke-linecap: square"/>
   </g>
   <g id="line2d_80">
    <path d="M 483.785889 314.728 
L 483.785889 26.88 
" clip-path="url(#p05ac3304bb)" style="fill: none; stroke-dasharray: 3.7,1.6; stroke-dashoffset: 0; stroke: #3bbb75; stroke-opacity: 0.66"/>
   </g>
   <g id="line2d_81">
    <path d="M 39.252766 170.804 
L 366.502582 170.692884 
L 395.401334 170.454568 
L 413.057044 170.098386 
L 425.828876 169.627593 
L 435.818547 169.044468 
L 444.004759 168.350007 
L 450.901231 167.547319 
L 456.837973 166.63774 
L 462.043926 165.619451 
L 466.655571 164.494691 
L 470.781981 163.263271 
L 474.513651 161.920963 
L 477.910885 160.465671 
L 481.029087 158.890382 
L 483.904618 157.190752 
L 486.574337 155.356399 
L 489.06849 153.374161 
L 491.412243 151.227578 
L 493.62043 148.903394 
L 495.711858 146.37851 
L 497.702655 143.624392 
L 499.601126 140.615355 
L 501.420024 137.310805 
L 503.165261 133.672269 
L 504.842108 129.65465 
L 506.460218 125.191034 
L 508.028169 120.200654 
L 509.553616 114.58933 
L 511.061422 108.174412 
L 512.591138 100.665268 
L 514.317126 91.01022 
L 516.864733 76.704083 
L 517.578142 73.978237 
L 518.066513 72.872165 
L 518.406368 72.560148 
L 518.654926 72.596501 
L 518.913834 72.884487 
L 519.244233 73.630497 
L 519.667513 75.198151 
L 520.215163 78.17038 
L 520.942433 83.467555 
L 522.030413 93.23309 
L 527.627236 145.818596 
L 529.979143 164.664897 
L 532.689537 184.551181 
L 536.201877 208.582682 
L 545.772215 273.229895 
L 548.50532 293.758766 
L 550.824185 312.851837 
L 552.872279 331.558409 
L 554.719268 350.479957 
L 555.652317 361 
L 555.652317 361 
" clip-path="url(#p05ac3304bb)" style="fill: none; stroke: #65cb5e; stroke-width: 1.5; stroke-linecap: square"/>
   </g>
   <g id="line2d_82">
    <path d="M 518.849038 314.728 
L 518.849038 26.88 
" clip-path="url(#p05ac3304bb)" style="fill: none; stroke-dasharray: 3.7,1.6; stroke-dashoffset: 0; stroke: #65cb5e; stroke-opacity: 0.66"/>
   </g>
   <g id="line2d_83">
    <path d="M 39.252766 170.804 
L 438.947346 170.69289 
L 467.162023 170.456374 
L 483.842976 170.107357 
L 495.412191 169.653725 
L 504.041672 169.102113 
L 510.758906 168.458196 
L 516.149261 167.725354 
L 520.570781 166.906254 
L 524.26358 166.001842 
L 527.399607 165.009893 
L 530.099788 163.926864 
L 532.454146 162.746738 
L 534.537073 161.456527 
L 536.398675 160.043553 
L 538.083492 158.486075 
L 539.624495 156.757546 
L 541.045336 154.82721 
L 542.366783 152.652802 
L 543.604929 150.180688 
L 544.769584 147.349364 
L 545.869584 144.077409 
L 546.90851 140.272928 
L 547.891763 135.807366 
L 548.824269 130.507806 
L 549.706356 124.17318 
L 550.54652 116.470656 
L 551.354693 106.930781 
L 552.180119 94.404407 
L 553.55121 73.046881 
L 553.731633 72.484397 
L 553.752931 72.496223 
L 553.841898 72.738151 
L 554.000104 73.96134 
L 554.251826 77.958562 
L 554.658459 88.589018 
L 555.823814 127.576889 
L 557.285276 172.013822 
L 561.458816 293.549134 
L 562.444828 332.298779 
L 563.038795 361 
L 563.038795 361 
" clip-path="url(#p05ac3304bb)" style="fill: none; stroke: #9bd93c; stroke-width: 1.5; stroke-linecap: square"/>
   </g>
   <g id="line2d_84">
    <path d="M 553.912187 314.728 
L 553.912187 26.88 
" clip-path="url(#p05ac3304bb)" style="fill: none; stroke-dasharray: 3.7,1.6; stroke-dashoffset: 0; stroke: #9bd93c; stroke-opacity: 0.66"/>
   </g>
   <g id="patch_3">
    <path d="M 52.94 314.728 
L 52.94 26.88 
" style="fill: none; stroke: #000000; stroke-width: 0.8; stroke-linejoin: miter; stroke-linecap: square"/>
   </g>
   <g id="patch_4">
    <path d="M 565.2 314.728 
L 565.2 26.88 
" style="fill: none; stroke: #000000; stroke-width: 0.8; stroke-linejoin: miter; stroke-linecap: square"/>
   </g>
   <g id="patch_5">
    <path d="M 52.94 314.728 
L 565.2 314.728 
" style="fill: none; stroke: #000000; stroke-width: 0.8; stroke-linejoin: miter; stroke-linecap: square"/>
   </g>
   <g id="patch_6">
    <path d="M 52.94 26.88 
L 565.2 26.88 
" style="fill: none; stroke: #000000; stroke-width: 0.8; stroke-linejoin: miter; stroke-linecap: square"/>
   </g>
   <g id="text_16">
    <!-- 1-pole Complex Lowpass Response (R=0.9000) -->
    <g transform="translate(167.058437 20.88) scale(0.12 -0.12)">
     <defs>
      <path id="DejaVuSans-2d" d="M 313 2009 
L 1997 2009 
L 1997 1497 
L 313 1497 
L 313 2009 
z
" transform="scale(0.015625)"/>
      <path id="DejaVuSans-43" d="M 4122 4306 
L 4122 3641 
Q 3803 3938 3442 4084 
Q 3081 4231 2675 4231 
Q 1875 4231 1450 3742 
Q 1025 3253 1025 2328 
Q 1025 1406 1450 917 
Q 1875 428 2675 428 
Q 3081 428 3442 575 
Q 3803 722 4122 1019 
L 4122 359 
Q 3791 134 3420 21 
Q 3050 -91 2638 -91 
Q 1578 -91 968 557 
Q 359 1206 359 2328 
Q 359 3453 968 4101 
Q 1578 4750 2638 4750 
Q 3056 4750 3426 4639 
Q 3797 4528 4122 4306 
z
" transform="scale(0.015625)"/>
      <path id="DejaVuSans-78" d="M 3513 3500 
L 2247 1797 
L 3578 0 
L 2900 0 
L 1881 1375 
L 863 0 
L 184 0 
L 1544 1831 
L 300 3500 
L 978 3500 
L 1906 2253 
L 2834 3500 
L 3513 3500 
z
" transform="scale(0.015625)"/>
      <path id="DejaVuSans-4c" d="M 628 4666 
L 1259 4666 
L 1259 531 
L 3531 531 
L 3531 0 
L 628 0 
L 628 4666 
z
" transform="scale(0.015625)"/>
      <path id="DejaVuSans-77" d="M 269 3500 
L 844 3500 
L 1563 769 
L 2278 3500 
L 2956 3500 
L 3675 769 
L 4391 3500 
L 4966 3500 
L 4050 0 
L 3372 0 
L 2619 2869 
L 1863 0 
L 1184 0 
L 269 3500 
z
" transform="scale(0.015625)"/>
      <path id="DejaVuSans-73" d="M 2834 3397 
L 2834 2853 
Q 2591 2978 2328 3040 
Q 2066 3103 1784 3103 
Q 1356 3103 1142 2972 
Q 928 2841 928 2578 
Q 928 2378 1081 2264 
Q 1234 2150 1697 2047 
L 1894 2003 
Q 2506 1872 2764 1633 
Q 3022 1394 3022 966 
Q 3022 478 2636 193 
Q 2250 -91 1575 -91 
Q 1294 -91 989 -36 
Q 684 19 347 128 
L 347 722 
Q 666 556 975 473 
Q 1284 391 1588 391 
Q 1994 391 2212 530 
Q 2431 669 2431 922 
Q 2431 1156 2273 1281 
Q 2116 1406 1581 1522 
L 1381 1569 
Q 847 1681 609 1914 
Q 372 2147 372 2553 
Q 372 3047 722 3315 
Q 1072 3584 1716 3584 
Q 2034 3584 2315 3537 
Q 2597 3491 2834 3397 
z
" transform="scale(0.015625)"/>
      <path id="DejaVuSans-52" d="M 2841 2188 
Q 3044 2119 3236 1894 
Q 3428 1669 3622 1275 
L 4263 0 
L 3584 0 
L 2988 1197 
Q 2756 1666 2539 1819 
Q 2322 1972 1947 1972 
L 1259 1972 
L 1259 0 
L 628 0 
L 628 4666 
L 2053 4666 
Q 2853 4666 3247 4331 
Q 3641 3997 3641 3322 
Q 3641 2881 3436 2590 
Q 3231 2300 2841 2188 
z
M 1259 4147 
L 1259 2491 
L 2053 2491 
Q 2509 2491 2742 2702 
Q 2975 2913 2975 3322 
Q 2975 3731 2742 3939 
Q 2509 4147 2053 4147 
L 1259 4147 
z
" transform="scale(0.015625)"/>
      <path id="DejaVuSans-28" d="M 1984 4856 
Q 1566 4138 1362 3434 
Q 1159 2731 1159 2009 
Q 1159 1288 1364 580 
Q 1569 -128 1984 -844 
L 1484 -844 
Q 1016 -109 783 600 
Q 550 1309 550 2009 
Q 550 2706 781 3412 
Q 1013 4119 1484 4856 
L 1984 4856 
z
" transform="scale(0.015625)"/>
      <path id="DejaVuSans-3d" d="M 678 2906 
L 4684 2906 
L 4684 2381 
L 678 2381 
L 678 2906 
z
M 678 1631 
L 4684 1631 
L 4684 1100 
L 678 1100 
L 678 1631 
z
" transform="scale(0.015625)"/>
      <path id="DejaVuSans-2e" d="M 684 794 
L 1344 794 
L 1344 0 
L 684 0 
L 684 794 
z
" transform="scale(0.015625)"/>
      <path id="DejaVuSans-39" d="M 703 97 
L 703 672 
Q 941 559 1184 500 
Q 1428 441 1663 441 
Q 2288 441 2617 861 
Q 2947 1281 2994 2138 
Q 2813 1869 2534 1725 
Q 2256 1581 1919 1581 
Q 1219 1581 811 2004 
Q 403 2428 403 3163 
Q 403 3881 828 4315 
Q 1253 4750 1959 4750 
Q 2769 4750 3195 4129 
Q 3622 3509 3622 2328 
Q 3622 1225 3098 567 
Q 2575 -91 1691 -91 
Q 1453 -91 1209 -44 
Q 966 3 703 97 
z
M 1959 2075 
Q 2384 2075 2632 2365 
Q 2881 2656 2881 3163 
Q 2881 3666 2632 3958 
Q 2384 4250 1959 4250 
Q 1534 4250 1286 3958 
Q 1038 3666 1038 3163 
Q 1038 2656 1286 2365 
Q 1534 2075 1959 2075 
z
" transform="scale(0.015625)"/>
      <path id="DejaVuSans-29" d="M 513 4856 
L 1013 4856 
Q 1481 4119 1714 3412 
Q 1947 2706 1947 2009 
Q 1947 1309 1714 600 
Q 1481 -109 1013 -844 
L 513 -844 
Q 928 -128 1133 580 
Q 1338 1288 1338 2009 
Q 1338 2731 1133 3434 
Q 928 4138 513 4856 
z
" transform="scale(0.015625)"/>
     </defs>
     <use xlink:href="#DejaVuSans-31"/>
     <use xlink:href="#DejaVuSans-2d" transform="translate(63.623047 0)"/>
     <use xlink:href="#DejaVuSans-70" transform="translate(99.707031 0)"/>
     <use xlink:href="#DejaVuSans-6f" transform="translate(163.183594 0)"/>
     <use xlink:href="#DejaVuSans-6c" transform="translate(224.365234 0)"/>
     <use xlink:href="#DejaVuSans-65" transform="translate(252.148438 0)"/>
     <use xlink:href="#DejaVuSans-20" transform="translate(313.671875 0)"/>
     <use xlink:href="#DejaVuSans-43" transform="translate(345.458984 0)"/>
     <use xlink:href="#DejaVuSans-6f" transform="translate(415.283203 0)"/>
     <use xlink:href="#DejaVuSans-6d" transform="translate(476.464844 0)"/>
     <use xlink:href="#DejaVuSans-70" transform="translate(573.876953 0)"/>
     <use xlink:href="#DejaVuSans-6c" transform="translate(637.353516 0)"/>
     <use xlink:href="#DejaVuSans-65" transform="translate(665.136719 0)"/>
     <use xlink:href="#DejaVuSans-78" transform="translate(724.910156 0)"/>
     <use xlink:href="#DejaVuSans-20" transform="translate(784.089844 0)"/>
     <use xlink:href="#DejaVuSans-4c" transform="translate(815.876953 0)"/>
     <use xlink:href="#DejaVuSans-6f" transform="translate(869.839844 0)"/>
     <use xlink:href="#DejaVuSans-77" transform="translate(931.021484 0)"/>
     <use xlink:href="#DejaVuSans-70" transform="translate(1012.808594 0)"/>
     <use xlink:href="#DejaVuSans-61" transform="translate(1076.285156 0)"/>
     <use xlink:href="#DejaVuSans-73" transform="translate(1137.564453 0)"/>
     <use xlink:href="#DejaVuSans-73" transform="translate(1189.664062 0)"/>
     <use xlink:href="#DejaVuSans-20" transform="translate(1241.763672 0)"/>
     <use xlink:href="#DejaVuSans-52" transform="translate(1273.550781 0)"/>
     <use xlink:href="#DejaVuSans-65" transform="translate(1338.533203 0)"/>
     <use xlink:href="#DejaVuSans-73" transform="translate(1400.056641 0)"/>
     <use xlink:href="#DejaVuSans-70" transform="translate(1452.15625 0)"/>
     <use xlink:href="#DejaVuSans-6f" transform="translate(1515.632812 0)"/>
     <use xlink:href="#DejaVuSans-6e" transform="translate(1576.814453 0)"/>
     <use xlink:href="#DejaVuSans-73" transform="translate(1640.193359 0)"/>
     <use xlink:href="#DejaVuSans-65" transform="translate(1692.292969 0)"/>
     <use xlink:href="#DejaVuSans-20" transform="translate(1753.816406 0)"/>
     <use xlink:href="#DejaVuSans-28" transform="translate(1785.603516 0)"/>
     <use xlink:href="#DejaVuSans-52" transform="translate(1824.617188 0)"/>
     <use xlink:href="#DejaVuSans-3d" transform="translate(1894.099609 0)"/>
     <use xlink:href="#DejaVuSans-30" transform="translate(1977.888672 0)"/>
     <use xlink:href="#DejaVuSans-2e" transform="translate(2041.511719 0)"/>
     <use xlink:href="#DejaVuSans-39" transform="translate(2073.298828 0)"/>
     <use xlink:href="#DejaVuSans-30" transform="translate(2136.921875 0)"/>
     <use xlink:href="#DejaVuSans-30" transform="translate(2200.544922 0)"/>
     <use xlink:href="#DejaVuSans-30" transform="translate(2264.167969 0)"/>
     <use xlink:href="#DejaVuSans-29" transform="translate(2327.791016 0)"/>
    </g>
   </g>
   <g id="legend_1">
    <g id="patch_7">
     <path d="M 59.94 196.339375 
L 169.8775 196.339375 
Q 171.8775 196.339375 171.8775 194.339375 
L 171.8775 33.88 
Q 171.8775 31.88 169.8775 31.88 
L 59.94 31.88 
Q 57.94 31.88 57.94 33.88 
L 57.94 194.339375 
Q 57.94 196.339375 59.94 196.339375 
z
" style="fill: #ffffff; opacity: 0.8; stroke: #cccccc; stroke-linejoin: miter"/>
    </g>
    <g id="line2d_85">
     <path d="M 61.94 39.978438 
L 71.94 39.978438 
L 81.94 39.978438 
" style="fill: none; stroke: #440154; stroke-width: 1.5; stroke-linecap: square"/>
    </g>
    <g id="text_17">
     <!-- Cutoff: 0.00039 -->
     <g transform="translate(89.94 43.478438) scale(0.1 -0.1)">
      <defs>
       <path id="DejaVuSans-66" d="M 2375 4863 
L 2375 4384 
L 1825 4384 
Q 1516 4384 1395 4259 
Q 1275 4134 1275 3809 
L 1275 3500 
L 2222 3500 
L 2222 3053 
L 1275 3053 
L 1275 0 
L 697 0 
L 697 3053 
L 147 3053 
L 147 3500 
L 697 3500 
L 697 3744 
Q 697 4328 969 4595 
Q 1241 4863 1831 4863 
L 2375 4863 
z
" transform="scale(0.015625)"/>
       <path id="DejaVuSans-3a" d="M 750 794 
L 1409 794 
L 1409 0 
L 750 0 
L 750 794 
z
M 750 3309 
L 1409 3309 
L 1409 2516 
L 750 2516 
L 750 3309 
z
" transform="scale(0.015625)"/>
      </defs>
      <use xlink:href="#DejaVuSans-43"/>
      <use xlink:href="#DejaVuSans-75" transform="translate(69.824219 0)"/>
      <use xlink:href="#DejaVuSans-74" transform="translate(133.203125 0)"/>
      <use xlink:href="#DejaVuSans-6f" transform="translate(172.412109 0)"/>
      <use xlink:href="#DejaVuSans-66" transform="translate(233.59375 0)"/>
      <use xlink:href="#DejaVuSans-66" transform="translate(268.798828 0)"/>
      <use xlink:href="#DejaVuSans-3a" transform="translate(300.378906 0)"/>
      <use xlink:href="#DejaVuSans-20" transform="translate(334.070312 0)"/>
      <use xlink:href="#DejaVuSans-30" transform="translate(365.857422 0)"/>
      <use xlink:href="#DejaVuSans-2e" transform="translate(429.480469 0)"/>
      <use xlink:href="#DejaVuSans-30" transform="translate(461.267578 0)"/>
      <use xlink:href="#DejaVuSans-30" transform="translate(524.890625 0)"/>
      <use xlink:href="#DejaVuSans-30" transform="translate(588.513672 0)"/>
      <use xlink:href="#DejaVuSans-33" transform="translate(652.136719 0)"/>
      <use xlink:href="#DejaVuSans-39" transform="translate(715.759766 0)"/>
     </g>
    </g>
    <g id="line2d_86">
     <path d="M 61.94 54.656563 
L 71.94 54.656563 
L 81.94 54.656563 
" style="fill: none; stroke: #481f70; stroke-width: 1.5; stroke-linecap: square"/>
    </g>
    <g id="text_18">
     <!-- Cutoff: 0.00078 -->
     <g transform="translate(89.94 58.156563) scale(0.1 -0.1)">
      <defs>
       <path id="DejaVuSans-37" d="M 525 4666 
L 3525 4666 
L 3525 4397 
L 1831 0 
L 1172 0 
L 2766 4134 
L 525 4134 
L 525 4666 
z
" transform="scale(0.015625)"/>
       <path id="DejaVuSans-38" d="M 2034 2216 
Q 1584 2216 1326 1975 
Q 1069 1734 1069 1313 
Q 1069 891 1326 650 
Q 1584 409 2034 409 
Q 2484 409 2743 651 
Q 3003 894 3003 1313 
Q 3003 1734 2745 1975 
Q 2488 2216 2034 2216 
z
M 1403 2484 
Q 997 2584 770 2862 
Q 544 3141 544 3541 
Q 544 4100 942 4425 
Q 1341 4750 2034 4750 
Q 2731 4750 3128 4425 
Q 3525 4100 3525 3541 
Q 3525 3141 3298 2862 
Q 3072 2584 2669 2484 
Q 3125 2378 3379 2068 
Q 3634 1759 3634 1313 
Q 3634 634 3220 271 
Q 2806 -91 2034 -91 
Q 1263 -91 848 271 
Q 434 634 434 1313 
Q 434 1759 690 2068 
Q 947 2378 1403 2484 
z
M 1172 3481 
Q 1172 3119 1398 2916 
Q 1625 2713 2034 2713 
Q 2441 2713 2670 2916 
Q 2900 3119 2900 3481 
Q 2900 3844 2670 4047 
Q 2441 4250 2034 4250 
Q 1625 4250 1398 4047 
Q 1172 3844 1172 3481 
z
" transform="scale(0.015625)"/>
      </defs>
      <use xlink:href="#DejaVuSans-43"/>
      <use xlink:href="#DejaVuSans-75" transform="translate(69.824219 0)"/>
      <use xlink:href="#DejaVuSans-74" transform="translate(133.203125 0)"/>
      <use xlink:href="#DejaVuSans-6f" transform="translate(172.412109 0)"/>
      <use xlink:href="#DejaVuSans-66" transform="translate(233.59375 0)"/>
      <use xlink:href="#DejaVuSans-66" transform="translate(268.798828 0)"/>
      <use xlink:href="#DejaVuSans-3a" transform="translate(300.378906 0)"/>
      <use xlink:href="#DejaVuSans-20" transform="translate(334.070312 0)"/>
      <use xlink:href="#DejaVuSans-30" transform="translate(365.857422 0)"/>
      <use xlink:href="#DejaVuSans-2e" transform="translate(429.480469 0)"/>
      <use xlink:href="#DejaVuSans-30" transform="translate(461.267578 0)"/>
      <use xlink:href="#DejaVuSans-30" transform="translate(524.890625 0)"/>
      <use xlink:href="#DejaVuSans-30" transform="translate(588.513672 0)"/>
      <use xlink:href="#DejaVuSans-37" transform="translate(652.136719 0)"/>
      <use xlink:href="#DejaVuSans-38" transform="translate(715.759766 0)"/>
     </g>
    </g>
    <g id="line2d_87">
     <path d="M 61.94 69.334688 
L 71.94 69.334688 
L 81.94 69.334688 
" style="fill: none; stroke: #443a83; stroke-width: 1.5; stroke-linecap: square"/>
    </g>
    <g id="text_19">
     <!-- Cutoff: 0.00156 -->
     <g transform="translate(89.94 72.834688) scale(0.1 -0.1)">
      <defs>
       <path id="DejaVuSans-36" d="M 2113 2584 
Q 1688 2584 1439 2293 
Q 1191 2003 1191 1497 
Q 1191 994 1439 701 
Q 1688 409 2113 409 
Q 2538 409 2786 701 
Q 3034 994 3034 1497 
Q 3034 2003 2786 2293 
Q 2538 2584 2113 2584 
z
M 3366 4563 
L 3366 3988 
Q 3128 4100 2886 4159 
Q 2644 4219 2406 4219 
Q 1781 4219 1451 3797 
Q 1122 3375 1075 2522 
Q 1259 2794 1537 2939 
Q 1816 3084 2150 3084 
Q 2853 3084 3261 2657 
Q 3669 2231 3669 1497 
Q 3669 778 3244 343 
Q 2819 -91 2113 -91 
Q 1303 -91 875 529 
Q 447 1150 447 2328 
Q 447 3434 972 4092 
Q 1497 4750 2381 4750 
Q 2619 4750 2861 4703 
Q 3103 4656 3366 4563 
z
" transform="scale(0.015625)"/>
      </defs>
      <use xlink:href="#DejaVuSans-43"/>
      <use xlink:href="#DejaVuSans-75" transform="translate(69.824219 0)"/>
      <use xlink:href="#DejaVuSans-74" transform="translate(133.203125 0)"/>
      <use xlink:href="#DejaVuSans-6f" transform="translate(172.412109 0)"/>
      <use xlink:href="#DejaVuSans-66" transform="translate(233.59375 0)"/>
      <use xlink:href="#DejaVuSans-66" transform="translate(268.798828 0)"/>
      <use xlink:href="#DejaVuSans-3a" transform="translate(300.378906 0)"/>
      <use xlink:href="#DejaVuSans-20" transform="translate(334.070312 0)"/>
      <use xlink:href="#DejaVuSans-30" transform="translate(365.857422 0)"/>
      <use xlink:href="#DejaVuSans-2e" transform="translate(429.480469 0)"/>
      <use xlink:href="#DejaVuSans-30" transform="translate(461.267578 0)"/>
      <use xlink:href="#DejaVuSans-30" transform="translate(524.890625 0)"/>
      <use xlink:href="#DejaVuSans-31" transform="translate(588.513672 0)"/>
      <use xlink:href="#DejaVuSans-35" transform="translate(652.136719 0)"/>
      <use xlink:href="#DejaVuSans-36" transform="translate(715.759766 0)"/>
     </g>
    </g>
    <g id="line2d_88">
     <path d="M 61.94 84.012813 
L 71.94 84.012813 
L 81.94 84.012813 
" style="fill: none; stroke: #3a538b; stroke-width: 1.5; stroke-linecap: square"/>
    </g>
    <g id="text_20">
     <!-- Cutoff: 0.00312 -->
     <g transform="translate(89.94 87.512813) scale(0.1 -0.1)">
      <use xlink:href="#DejaVuSans-43"/>
      <use xlink:href="#DejaVuSans-75" transform="translate(69.824219 0)"/>
      <use xlink:href="#DejaVuSans-74" transform="translate(133.203125 0)"/>
      <use xlink:href="#DejaVuSans-6f" transform="translate(172.412109 0)"/>
      <use xlink:href="#DejaVuSans-66" transform="translate(233.59375 0)"/>
      <use xlink:href="#DejaVuSans-66" transform="translate(268.798828 0)"/>
      <use xlink:href="#DejaVuSans-3a" transform="translate(300.378906 0)"/>
      <use xlink:href="#DejaVuSans-20" transform="translate(334.070312 0)"/>
      <use xlink:href="#DejaVuSans-30" transform="translate(365.857422 0)"/>
      <use xlink:href="#DejaVuSans-2e" transform="translate(429.480469 0)"/>
      <use xlink:href="#DejaVuSans-30" transform="translate(461.267578 0)"/>
      <use xlink:href="#DejaVuSans-30" transform="translate(524.890625 0)"/>
      <use xlink:href="#DejaVuSans-33" transform="translate(588.513672 0)"/>
      <use xlink:href="#DejaVuSans-31" transform="translate(652.136719 0)"/>
      <use xlink:href="#DejaVuSans-32" transform="translate(715.759766 0)"/>
     </g>
    </g>
    <g id="line2d_89">
     <path d="M 61.94 98.690938 
L 71.94 98.690938 
L 81.94 98.690938 
" style="fill: none; stroke: #306a8e; stroke-width: 1.5; stroke-linecap: square"/>
    </g>
    <g id="text_21">
     <!-- Cutoff: 0.00625 -->
     <g transform="translate(89.94 102.190938) scale(0.1 -0.1)">
      <use xlink:href="#DejaVuSans-43"/>
      <use xlink:href="#DejaVuSans-75" transform="translate(69.824219 0)"/>
      <use xlink:href="#DejaVuSans-74" transform="translate(133.203125 0)"/>
      <use xlink:href="#DejaVuSans-6f" transform="translate(172.412109 0)"/>
      <use xlink:href="#DejaVuSans-66" transform="translate(233.59375 0)"/>
      <use xlink:href="#DejaVuSans-66" transform="translate(268.798828 0)"/>
      <use xlink:href="#DejaVuSans-3a" transform="translate(300.378906 0)"/>
      <use xlink:href="#DejaVuSans-20" transform="translate(334.070312 0)"/>
      <use xlink:href="#DejaVuSans-30" transform="translate(365.857422 0)"/>
      <use xlink:href="#DejaVuSans-2e" transform="translate(429.480469 0)"/>
      <use xlink:href="#DejaVuSans-30" transform="translate(461.267578 0)"/>
      <use xlink:href="#DejaVuSans-30" transform="translate(524.890625 0)"/>
      <use xlink:href="#DejaVuSans-36" transform="translate(588.513672 0)"/>
      <use xlink:href="#DejaVuSans-32" transform="translate(652.136719 0)"/>
      <use xlink:href="#DejaVuSans-35" transform="translate(715.759766 0)"/>
     </g>
    </g>
    <g id="line2d_90">
     <path d="M 61.94 113.369063 
L 71.94 113.369063 
L 81.94 113.369063 
" style="fill: none; stroke: #277e8e; stroke-width: 1.5; stroke-linecap: square"/>
    </g>
    <g id="text_22">
     <!-- Cutoff: 0.01250 -->
     <g transform="translate(89.94 116.869063) scale(0.1 -0.1)">
      <use xlink:href="#DejaVuSans-43"/>
      <use xlink:href="#DejaVuSans-75" transform="translate(69.824219 0)"/>
      <use xlink:href="#DejaVuSans-74" transform="translate(133.203125 0)"/>
      <use xlink:href="#DejaVuSans-6f" transform="translate(172.412109 0)"/>
      <use xlink:href="#DejaVuSans-66" transform="translate(233.59375 0)"/>
      <use xlink:href="#DejaVuSans-66" transform="translate(268.798828 0)"/>
      <use xlink:href="#DejaVuSans-3a" transform="translate(300.378906 0)"/>
      <use xlink:href="#DejaVuSans-20" transform="translate(334.070312 0)"/>
      <use xlink:href="#DejaVuSans-30" transform="translate(365.857422 0)"/>
      <use xlink:href="#DejaVuSans-2e" transform="translate(429.480469 0)"/>
      <use xlink:href="#DejaVuSans-30" transform="translate(461.267578 0)"/>
      <use xlink:href="#DejaVuSans-31" transform="translate(524.890625 0)"/>
      <use xlink:href="#DejaVuSans-32" transform="translate(588.513672 0)"/>
      <use xlink:href="#DejaVuSans-35" transform="translate(652.136719 0)"/>
      <use xlink:href="#DejaVuSans-30" transform="translate(715.759766 0)"/>
     </g>
    </g>
    <g id="line2d_91">
     <path d="M 61.94 128.047188 
L 71.94 128.047188 
L 81.94 128.047188 
" style="fill: none; stroke: #20928c; stroke-width: 1.5; stroke-linecap: square"/>
    </g>
    <g id="text_23">
     <!-- Cutoff: 0.02500 -->
     <g transform="translate(89.94 131.547188) scale(0.1 -0.1)">
      <use xlink:href="#DejaVuSans-43"/>
      <use xlink:href="#DejaVuSans-75" transform="translate(69.824219 0)"/>
      <use xlink:href="#DejaVuSans-74" transform="translate(133.203125 0)"/>
      <use xlink:href="#DejaVuSans-6f" transform="translate(172.412109 0)"/>
      <use xlink:href="#DejaVuSans-66" transform="translate(233.59375 0)"/>
      <use xlink:href="#DejaVuSans-66" transform="translate(268.798828 0)"/>
      <use xlink:href="#DejaVuSans-3a" transform="translate(300.378906 0)"/>
      <use xlink:href="#DejaVuSans-20" transform="translate(334.070312 0)"/>
      <use xlink:href="#DejaVuSans-30" transform="translate(365.857422 0)"/>
      <use xlink:href="#DejaVuSans-2e" transform="translate(429.480469 0)"/>
      <use xlink:href="#DejaVuSans-30" transform="translate(461.267578 0)"/>
      <use xlink:href="#DejaVuSans-32" transform="translate(524.890625 0)"/>
      <use xlink:href="#DejaVuSans-35" transform="translate(588.513672 0)"/>
      <use xlink:href="#DejaVuSans-30" transform="translate(652.136719 0)"/>
      <use xlink:href="#DejaVuSans-30" transform="translate(715.759766 0)"/>
     </g>
    </g>
    <g id="line2d_92">
     <path d="M 61.94 142.725313 
L 71.94 142.725313 
L 81.94 142.725313 
" style="fill: none; stroke: #22a785; stroke-width: 1.5; stroke-linecap: square"/>
    </g>
    <g id="text_24">
     <!-- Cutoff: 0.05000 -->
     <g transform="translate(89.94 146.225313) scale(0.1 -0.1)">
      <use xlink:href="#DejaVuSans-43"/>
      <use xlink:href="#DejaVuSans-75" transform="translate(69.824219 0)"/>
      <use xlink:href="#DejaVuSans-74" transform="translate(133.203125 0)"/>
      <use xlink:href="#DejaVuSans-6f" transform="translate(172.412109 0)"/>
      <use xlink:href="#DejaVuSans-66" transform="translate(233.59375 0)"/>
      <use xlink:href="#DejaVuSans-66" transform="translate(268.798828 0)"/>
      <use xlink:href="#DejaVuSans-3a" transform="translate(300.378906 0)"/>
      <use xlink:href="#DejaVuSans-20" transform="translate(334.070312 0)"/>
      <use xlink:href="#DejaVuSans-30" transform="translate(365.857422 0)"/>
      <use xlink:href="#DejaVuSans-2e" transform="translate(429.480469 0)"/>
      <use xlink:href="#DejaVuSans-30" transform="translate(461.267578 0)"/>
      <use xlink:href="#DejaVuSans-35" transform="translate(524.890625 0)"/>
      <use xlink:href="#DejaVuSans-30" transform="translate(588.513672 0)"/>
      <use xlink:href="#DejaVuSans-30" transform="translate(652.136719 0)"/>
      <use xlink:href="#DejaVuSans-30" transform="translate(715.759766 0)"/>
     </g>
    </g>
    <g id="line2d_93">
     <path d="M 61.94 157.403438 
L 71.94 157.403438 
L 81.94 157.403438 
" style="fill: none; stroke: #3bbb75; stroke-width: 1.5; stroke-linecap: square"/>
    </g>
    <g id="text_25">
     <!-- Cutoff: 0.10000 -->
     <g transform="translate(89.94 160.903438) scale(0.1 -0.1)">
      <use xlink:href="#DejaVuSans-43"/>
      <use xlink:href="#DejaVuSans-75" transform="translate(69.824219 0)"/>
      <use xlink:href="#DejaVuSans-74" transform="translate(133.203125 0)"/>
      <use xlink:href="#DejaVuSans-6f" transform="translate(172.412109 0)"/>
      <use xlink:href="#DejaVuSans-66" transform="translate(233.59375 0)"/>
      <use xlink:href="#DejaVuSans-66" transform="translate(268.798828 0)"/>
      <use xlink:href="#DejaVuSans-3a" transform="translate(300.378906 0)"/>
      <use xlink:href="#DejaVuSans-20" transform="translate(334.070312 0)"/>
      <use xlink:href="#DejaVuSans-30" transform="translate(365.857422 0)"/>
      <use xlink:href="#DejaVuSans-2e" transform="translate(429.480469 0)"/>
      <use xlink:href="#DejaVuSans-31" transform="translate(461.267578 0)"/>
      <use xlink:href="#DejaVuSans-30" transform="translate(524.890625 0)"/>
      <use xlink:href="#DejaVuSans-30" transform="translate(588.513672 0)"/>
      <use xlink:href="#DejaVuSans-30" transform="translate(652.136719 0)"/>
      <use xlink:href="#DejaVuSans-30" transform="translate(715.759766 0)"/>
     </g>
    </g>
    <g id="line2d_94">
     <path d="M 61.94 172.081563 
L 71.94 172.081563 
L 81.94 172.081563 
" style="fill: none; stroke: #65cb5e; stroke-width: 1.5; stroke-linecap: square"/>
    </g>
    <g id="text_26">
     <!-- Cutoff: 0.20000 -->
     <g transform="translate(89.94 175.581563) scale(0.1 -0.1)">
      <use xlink:href="#DejaVuSans-43"/>
      <use xlink:href="#DejaVuSans-75" transform="translate(69.824219 0)"/>
      <use xlink:href="#DejaVuSans-74" transform="translate(133.203125 0)"/>
      <use xlink:href="#DejaVuSans-6f" transform="translate(172.412109 0)"/>
      <use xlink:href="#DejaVuSans-66" transform="translate(233.59375 0)"/>
      <use xlink:href="#DejaVuSans-66" transform="translate(268.798828 0)"/>
      <use xlink:href="#DejaVuSans-3a" transform="translate(300.378906 0)"/>
      <use xlink:href="#DejaVuSans-20" transform="translate(334.070312 0)"/>
      <use xlink:href="#DejaVuSans-30" transform="translate(365.857422 0)"/>
      <use xlink:href="#DejaVuSans-2e" transform="translate(429.480469 0)"/>
      <use xlink:href="#DejaVuSans-32" transform="translate(461.267578 0)"/>
      <use xlink:href="#DejaVuSans-30" transform="translate(524.890625 0)"/>
      <use xlink:href="#DejaVuSans-30" transform="translate(588.513672 0)"/>
      <use xlink:href="#DejaVuSans-30" transform="translate(652.136719 0)"/>
      <use xlink:href="#DejaVuSans-30" transform="translate(715.759766 0)"/>
     </g>
    </g>
    <g id="line2d_95">
     <path d="M 61.94 186.759688 
L 71.94 186.759688 
L 81.94 186.759688 
" style="fill: none; stroke: #9bd93c; stroke-width: 1.5; stroke-linecap: square"/>
    </g>
    <g id="text_27">
     <!-- Cutoff: 0.40000 -->
     <g transform="translate(89.94 190.259688) scale(0.1 -0.1)">
      <use xlink:href="#DejaVuSans-43"/>
      <use xlink:href="#DejaVuSans-75" transform="translate(69.824219 0)"/>
      <use xlink:href="#DejaVuSans-74" transform="translate(133.203125 0)"/>
      <use xlink:href="#DejaVuSans-6f" transform="translate(172.412109 0)"/>
      <use xlink:href="#DejaVuSans-66" transform="translate(233.59375 0)"/>
      <use xlink:href="#DejaVuSans-66" transform="translate(268.798828 0)"/>
      <use xlink:href="#DejaVuSans-3a" transform="translate(300.378906 0)"/>
      <use xlink:href="#DejaVuSans-20" transform="translate(334.070312 0)"/>
      <use xlink:href="#DejaVuSans-30" transform="translate(365.857422 0)"/>
      <use xlink:href="#DejaVuSans-2e" transform="translate(429.480469 0)"/>
      <use xlink:href="#DejaVuSans-34" transform="translate(461.267578 0)"/>
      <use xlink:href="#DejaVuSans-30" transform="translate(524.890625 0)"/>
      <use xlink:href="#DejaVuSans-30" transform="translate(588.513672 0)"/>
      <use xlink:href="#DejaVuSans-30" transform="translate(652.136719 0)"/>
      <use xlink:href="#DejaVuSans-30" transform="translate(715.759766 0)"/>
     </g>
    </g>
   </g>
  </g>
 </g>
 <defs>
  <clipPath id="p05ac3304bb">
   <rect x="52.94" y="26.88" width="512.26" height="287.848"/>
  </clipPath>
 </defs>
</svg>
