<?xml version="1.0" encoding="utf-8" standalone="no"?>
<!DOCTYPE svg PUBLIC "-//W3C//DTD SVG 1.1//EN"
  "http://www.w3.org/Graphics/SVG/1.1/DTD/svg11.dtd">
<svg xmlns:xlink="http://www.w3.org/1999/xlink" width="576pt" height="360pt" viewBox="0 0 576 360" xmlns="http://www.w3.org/2000/svg" version="1.1">
 <metadata>
  <rdf:RDF xmlns:dc="http://purl.org/dc/elements/1.1/" xmlns:cc="http://creativecommons.org/ns#" xmlns:rdf="http://www.w3.org/1999/02/22-rdf-syntax-ns#">
   <cc:Work>
    <dc:type rdf:resource="http://purl.org/dc/dcmitype/StillImage"/>
    <dc:date>2026-06-28T11:10:05.070680</dc:date>
    <dc:format>image/svg+xml</dc:format>
    <dc:creator>
     <cc:Agent>
      <dc:title>Matplotlib v3.10.8, https://matplotlib.org/</dc:title>
     </cc:Agent>
    </dc:creator>
   </cc:Work>
  </rdf:RDF>
 </metadata>
 <defs>
  <style type="text/css">*{stroke-linejoin: round; stroke-linecap: butt}</style>
 </defs>
 <g id="figure_1">
  <g id="patch_1">
   <path d="M 0 360 
L 576 360 
L 576 0 
L 0 0 
z
" style="fill: #ffffff"/>
  </g>
  <g id="axes_1">
   <g id="patch_2">
    <path d="M 52.94 314.728 
L 565.2 314.728 
L 565.2 26.88 
L 52.94 26.88 
z
" style="fill: #ffffff"/>
   </g>
   <g id="matplotlib.axis_1">
    <g id="xtick_1">
     <g id="line2d_1">
      <path d="M 134.354111 314.728 
L 134.354111 26.88 
" clip-path="url(#pded0bf3288)" style="fill: none; stroke: #f0f0f0; stroke-width: 0.8; stroke-linecap: square"/>
     </g>
     <g id="line2d_2">
      <defs>
       <path id="m1afe0535b9" d="M 0 0 
L 0 3.5 
" style="stroke: #000000; stroke-width: 0.8"/>
      </defs>
      <g>
       <use xlink:href="#m1afe0535b9" x="134.354111" y="314.728" style="stroke: #000000; stroke-width: 0.8"/>
      </g>
     </g>
     <g id="text_1">
      <!-- $\mathdefault{10^{-4}}$ -->
      <g transform="translate(122.604111 329.326437) scale(0.1 -0.1)">
       <defs>
        <path id="DejaVuSans-31" d="M 794 531 
L 1825 531 
L 1825 4091 
L 703 3866 
L 703 4441 
L 1819 4666 
L 2450 4666 
L 2450 531 
L 3481 531 
L 3481 0 
L 794 0 
L 794 531 
z
" transform="scale(0.015625)"/>
        <path id="DejaVuSans-30" d="M 2034 4250 
Q 1547 4250 1301 3770 
Q 1056 3291 1056 2328 
Q 1056 1369 1301 889 
Q 1547 409 2034 409 
Q 2525 409 2770 889 
Q 3016 1369 3016 2328 
Q 3016 3291 2770 3770 
Q 2525 4250 2034 4250 
z
M 2034 4750 
Q 2819 4750 3233 4129 
Q 3647 3509 3647 2328 
Q 3647 1150 3233 529 
Q 2819 -91 2034 -91 
Q 1250 -91 836 529 
Q 422 1150 422 2328 
Q 422 3509 836 4129 
Q 1250 4750 2034 4750 
z
" transform="scale(0.015625)"/>
        <path id="DejaVuSans-2212" d="M 678 2272 
L 4684 2272 
L 4684 1741 
L 678 1741 
L 678 2272 
z
" transform="scale(0.015625)"/>
        <path id="DejaVuSans-34" d="M 2419 4116 
L 825 1625 
L 2419 1625 
L 2419 4116 
z
M 2253 4666 
L 3047 4666 
L 3047 1625 
L 3713 1625 
L 3713 1100 
L 3047 1100 
L 3047 0 
L 2419 0 
L 2419 1100 
L 313 1100 
L 313 1709 
L 2253 4666 
z
" transform="scale(0.015625)"/>
       </defs>
       <use xlink:href="#DejaVuSans-31" transform="translate(0 0.684375)"/>
       <use xlink:href="#DejaVuSans-30" transform="translate(63.623047 0.684375)"/>
       <use xlink:href="#DejaVuSans-2212" transform="translate(128.203125 38.965625) scale(0.7)"/>
       <use xlink:href="#DejaVuSans-34" transform="translate(186.855469 38.965625) scale(0.7)"/>
      </g>
     </g>
    </g>
    <g id="xtick_2">
     <g id="line2d_3">
      <path d="M 250.83137 314.728 
L 250.83137 26.88 
" clip-path="url(#pded0bf3288)" style="fill: none; stroke: #f0f0f0; stroke-width: 0.8; stroke-linecap: square"/>
     </g>
     <g id="line2d_4">
      <g>
       <use xlink:href="#m1afe0535b9" x="250.83137" y="314.728" style="stroke: #000000; stroke-width: 0.8"/>
      </g>
     </g>
     <g id="text_2">
      <!-- $\mathdefault{10^{-3}}$ -->
      <g transform="translate(239.08137 329.326437) scale(0.1 -0.1)">
       <defs>
        <path id="DejaVuSans-33" d="M 2597 2516 
Q 3050 2419 3304 2112 
Q 3559 1806 3559 1356 
Q 3559 666 3084 287 
Q 2609 -91 1734 -91 
Q 1441 -91 1130 -33 
Q 819 25 488 141 
L 488 750 
Q 750 597 1062 519 
Q 1375 441 1716 441 
Q 2309 441 2620 675 
Q 2931 909 2931 1356 
Q 2931 1769 2642 2001 
Q 2353 2234 1838 2234 
L 1294 2234 
L 1294 2753 
L 1863 2753 
Q 2328 2753 2575 2939 
Q 2822 3125 2822 3475 
Q 2822 3834 2567 4026 
Q 2313 4219 1838 4219 
Q 1578 4219 1281 4162 
Q 984 4106 628 3988 
L 628 4550 
Q 988 4650 1302 4700 
Q 1616 4750 1894 4750 
Q 2613 4750 3031 4423 
Q 3450 4097 3450 3541 
Q 3450 3153 3228 2886 
Q 3006 2619 2597 2516 
z
" transform="scale(0.015625)"/>
       </defs>
       <use xlink:href="#DejaVuSans-31" transform="translate(0 0.765625)"/>
       <use xlink:href="#DejaVuSans-30" transform="translate(63.623047 0.765625)"/>
       <use xlink:href="#DejaVuSans-2212" transform="translate(128.203125 39.046875) scale(0.7)"/>
       <use xlink:href="#DejaVuSans-33" transform="translate(186.855469 39.046875) scale(0.7)"/>
      </g>
     </g>
    </g>
    <g id="xtick_3">
     <g id="line2d_5">
      <path d="M 367.30863 314.728 
L 367.30863 26.88 
" clip-path="url(#pded0bf3288)" style="fill: none; stroke: #f0f0f0; stroke-width: 0.8; stroke-linecap: square"/>
     </g>
     <g id="line2d_6">
      <g>
       <use xlink:href="#m1afe0535b9" x="367.30863" y="314.728" style="stroke: #000000; stroke-width: 0.8"/>
      </g>
     </g>
     <g id="text_3">
      <!-- $\mathdefault{10^{-2}}$ -->
      <g transform="translate(355.55863 329.326437) scale(0.1 -0.1)">
       <defs>
        <path id="DejaVuSans-32" d="M 1228 531 
L 3431 531 
L 3431 0 
L 469 0 
L 469 531 
Q 828 903 1448 1529 
Q 2069 2156 2228 2338 
Q 2531 2678 2651 2914 
Q 2772 3150 2772 3378 
Q 2772 3750 2511 3984 
Q 2250 4219 1831 4219 
Q 1534 4219 1204 4116 
Q 875 4013 500 3803 
L 500 4441 
Q 881 4594 1212 4672 
Q 1544 4750 1819 4750 
Q 2544 4750 2975 4387 
Q 3406 4025 3406 3419 
Q 3406 3131 3298 2873 
Q 3191 2616 2906 2266 
Q 2828 2175 2409 1742 
Q 1991 1309 1228 531 
z
" transform="scale(0.015625)"/>
       </defs>
       <use xlink:href="#DejaVuSans-31" transform="translate(0 0.765625)"/>
       <use xlink:href="#DejaVuSans-30" transform="translate(63.623047 0.765625)"/>
       <use xlink:href="#DejaVuSans-2212" transform="translate(128.203125 39.046875) scale(0.7)"/>
       <use xlink:href="#DejaVuSans-32" transform="translate(186.855469 39.046875) scale(0.7)"/>
      </g>
     </g>
    </g>
    <g id="xtick_4">
     <g id="line2d_7">
      <path d="M 483.785889 314.728 
L 483.785889 26.88 
" clip-path="url(#pded0bf3288)" style="fill: none; stroke: #f0f0f0; stroke-width: 0.8; stroke-linecap: square"/>
     </g>
     <g id="line2d_8">
      <g>
       <use xlink:href="#m1afe0535b9" x="483.785889" y="314.728" style="stroke: #000000; stroke-width: 0.8"/>
      </g>
     </g>
     <g id="text_4">
      <!-- $\mathdefault{10^{-1}}$ -->
      <g transform="translate(472.035889 329.326437) scale(0.1 -0.1)">
       <use xlink:href="#DejaVuSans-31" transform="translate(0 0.684375)"/>
       <use xlink:href="#DejaVuSans-30" transform="translate(63.623047 0.684375)"/>
       <use xlink:href="#DejaVuSans-2212" transform="translate(128.203125 38.965625) scale(0.7)"/>
       <use xlink:href="#DejaVuSans-31" transform="translate(186.855469 38.965625) scale(0.7)"/>
      </g>
     </g>
    </g>
    <g id="xtick_5">
     <g id="line2d_9">
      <defs>
       <path id="mb301ce5b9a" d="M 0 0 
L 0 2 
" style="stroke: #000000; stroke-width: 0.6"/>
      </defs>
      <g>
       <use xlink:href="#mb301ce5b9a" x="52.94" y="314.728" style="stroke: #000000; stroke-width: 0.6"/>
      </g>
     </g>
    </g>
    <g id="xtick_6">
     <g id="line2d_10">
      <g>
       <use xlink:href="#mb301ce5b9a" x="73.450627" y="314.728" style="stroke: #000000; stroke-width: 0.6"/>
      </g>
     </g>
    </g>
    <g id="xtick_7">
     <g id="line2d_11">
      <g>
       <use xlink:href="#mb301ce5b9a" x="88.003149" y="314.728" style="stroke: #000000; stroke-width: 0.6"/>
      </g>
     </g>
    </g>
    <g id="xtick_8">
     <g id="line2d_12">
      <g>
       <use xlink:href="#mb301ce5b9a" x="99.290962" y="314.728" style="stroke: #000000; stroke-width: 0.6"/>
      </g>
     </g>
    </g>
    <g id="xtick_9">
     <g id="line2d_13">
      <g>
       <use xlink:href="#mb301ce5b9a" x="108.513776" y="314.728" style="stroke: #000000; stroke-width: 0.6"/>
      </g>
     </g>
    </g>
    <g id="xtick_10">
     <g id="line2d_14">
      <g>
       <use xlink:href="#mb301ce5b9a" x="116.311555" y="314.728" style="stroke: #000000; stroke-width: 0.6"/>
      </g>
     </g>
    </g>
    <g id="xtick_11">
     <g id="line2d_15">
      <g>
       <use xlink:href="#mb301ce5b9a" x="123.066298" y="314.728" style="stroke: #000000; stroke-width: 0.6"/>
      </g>
     </g>
    </g>
    <g id="xtick_12">
     <g id="line2d_16">
      <g>
       <use xlink:href="#mb301ce5b9a" x="129.024404" y="314.728" style="stroke: #000000; stroke-width: 0.6"/>
      </g>
     </g>
    </g>
    <g id="xtick_13">
     <g id="line2d_17">
      <g>
       <use xlink:href="#mb301ce5b9a" x="169.41726" y="314.728" style="stroke: #000000; stroke-width: 0.6"/>
      </g>
     </g>
    </g>
    <g id="xtick_14">
     <g id="line2d_18">
      <g>
       <use xlink:href="#mb301ce5b9a" x="189.927887" y="314.728" style="stroke: #000000; stroke-width: 0.6"/>
      </g>
     </g>
    </g>
    <g id="xtick_15">
     <g id="line2d_19">
      <g>
       <use xlink:href="#mb301ce5b9a" x="204.480409" y="314.728" style="stroke: #000000; stroke-width: 0.6"/>
      </g>
     </g>
    </g>
    <g id="xtick_16">
     <g id="line2d_20">
      <g>
       <use xlink:href="#mb301ce5b9a" x="215.768221" y="314.728" style="stroke: #000000; stroke-width: 0.6"/>
      </g>
     </g>
    </g>
    <g id="xtick_17">
     <g id="line2d_21">
      <g>
       <use xlink:href="#mb301ce5b9a" x="224.991036" y="314.728" style="stroke: #000000; stroke-width: 0.6"/>
      </g>
     </g>
    </g>
    <g id="xtick_18">
     <g id="line2d_22">
      <g>
       <use xlink:href="#mb301ce5b9a" x="232.788814" y="314.728" style="stroke: #000000; stroke-width: 0.6"/>
      </g>
     </g>
    </g>
    <g id="xtick_19">
     <g id="line2d_23">
      <g>
       <use xlink:href="#mb301ce5b9a" x="239.543557" y="314.728" style="stroke: #000000; stroke-width: 0.6"/>
      </g>
     </g>
    </g>
    <g id="xtick_20">
     <g id="line2d_24">
      <g>
       <use xlink:href="#mb301ce5b9a" x="245.501663" y="314.728" style="stroke: #000000; stroke-width: 0.6"/>
      </g>
     </g>
    </g>
    <g id="xtick_21">
     <g id="line2d_25">
      <g>
       <use xlink:href="#mb301ce5b9a" x="285.894519" y="314.728" style="stroke: #000000; stroke-width: 0.6"/>
      </g>
     </g>
    </g>
    <g id="xtick_22">
     <g id="line2d_26">
      <g>
       <use xlink:href="#mb301ce5b9a" x="306.405146" y="314.728" style="stroke: #000000; stroke-width: 0.6"/>
      </g>
     </g>
    </g>
    <g id="xtick_23">
     <g id="line2d_27">
      <g>
       <use xlink:href="#mb301ce5b9a" x="320.957668" y="314.728" style="stroke: #000000; stroke-width: 0.6"/>
      </g>
     </g>
    </g>
    <g id="xtick_24">
     <g id="line2d_28">
      <g>
       <use xlink:href="#mb301ce5b9a" x="332.245481" y="314.728" style="stroke: #000000; stroke-width: 0.6"/>
      </g>
     </g>
    </g>
    <g id="xtick_25">
     <g id="line2d_29">
      <g>
       <use xlink:href="#mb301ce5b9a" x="341.468295" y="314.728" style="stroke: #000000; stroke-width: 0.6"/>
      </g>
     </g>
    </g>
    <g id="xtick_26">
     <g id="line2d_30">
      <g>
       <use xlink:href="#mb301ce5b9a" x="349.266074" y="314.728" style="stroke: #000000; stroke-width: 0.6"/>
      </g>
     </g>
    </g>
    <g id="xtick_27">
     <g id="line2d_31">
      <g>
       <use xlink:href="#mb301ce5b9a" x="356.020817" y="314.728" style="stroke: #000000; stroke-width: 0.6"/>
      </g>
     </g>
    </g>
    <g id="xtick_28">
     <g id="line2d_32">
      <g>
       <use xlink:href="#mb301ce5b9a" x="361.978923" y="314.728" style="stroke: #000000; stroke-width: 0.6"/>
      </g>
     </g>
    </g>
    <g id="xtick_29">
     <g id="line2d_33">
      <g>
       <use xlink:href="#mb301ce5b9a" x="402.371779" y="314.728" style="stroke: #000000; stroke-width: 0.6"/>
      </g>
     </g>
    </g>
    <g id="xtick_30">
     <g id="line2d_34">
      <g>
       <use xlink:href="#mb301ce5b9a" x="422.882406" y="314.728" style="stroke: #000000; stroke-width: 0.6"/>
      </g>
     </g>
    </g>
    <g id="xtick_31">
     <g id="line2d_35">
      <g>
       <use xlink:href="#mb301ce5b9a" x="437.434928" y="314.728" style="stroke: #000000; stroke-width: 0.6"/>
      </g>
     </g>
    </g>
    <g id="xtick_32">
     <g id="line2d_36">
      <g>
       <use xlink:href="#mb301ce5b9a" x="448.72274" y="314.728" style="stroke: #000000; stroke-width: 0.6"/>
      </g>
     </g>
    </g>
    <g id="xtick_33">
     <g id="line2d_37">
      <g>
       <use xlink:href="#mb301ce5b9a" x="457.945555" y="314.728" style="stroke: #000000; stroke-width: 0.6"/>
      </g>
     </g>
    </g>
    <g id="xtick_34">
     <g id="line2d_38">
      <g>
       <use xlink:href="#mb301ce5b9a" x="465.743334" y="314.728" style="stroke: #000000; stroke-width: 0.6"/>
      </g>
     </g>
    </g>
    <g id="xtick_35">
     <g id="line2d_39">
      <g>
       <use xlink:href="#mb301ce5b9a" x="472.498077" y="314.728" style="stroke: #000000; stroke-width: 0.6"/>
      </g>
     </g>
    </g>
    <g id="xtick_36">
     <g id="line2d_40">
      <g>
       <use xlink:href="#mb301ce5b9a" x="478.456182" y="314.728" style="stroke: #000000; stroke-width: 0.6"/>
      </g>
     </g>
    </g>
    <g id="xtick_37">
     <g id="line2d_41">
      <g>
       <use xlink:href="#mb301ce5b9a" x="518.849038" y="314.728" style="stroke: #000000; stroke-width: 0.6"/>
      </g>
     </g>
    </g>
    <g id="xtick_38">
     <g id="line2d_42">
      <g>
       <use xlink:href="#mb301ce5b9a" x="539.359666" y="314.728" style="stroke: #000000; stroke-width: 0.6"/>
      </g>
     </g>
    </g>
    <g id="xtick_39">
     <g id="line2d_43">
      <g>
       <use xlink:href="#mb301ce5b9a" x="553.912187" y="314.728" style="stroke: #000000; stroke-width: 0.6"/>
      </g>
     </g>
    </g>
    <g id="xtick_40">
     <g id="line2d_44">
      <g>
       <use xlink:href="#mb301ce5b9a" x="565.2" y="314.728" style="stroke: #000000; stroke-width: 0.6"/>
      </g>
     </g>
    </g>
    <g id="text_5">
     <!-- Normalized Frequency [rad/2π] -->
     <g transform="translate(231.635625 343.004562) scale(0.1 -0.1)">
      <defs>
       <path id="DejaVuSans-4e" d="M 628 4666 
L 1478 4666 
L 3547 763 
L 3547 4666 
L 4159 4666 
L 4159 0 
L 3309 0 
L 1241 3903 
L 1241 0 
L 628 0 
L 628 4666 
z
" transform="scale(0.015625)"/>
       <path id="DejaVuSans-6f" d="M 1959 3097 
Q 1497 3097 1228 2736 
Q 959 2375 959 1747 
Q 959 1119 1226 758 
Q 1494 397 1959 397 
Q 2419 397 2687 759 
Q 2956 1122 2956 1747 
Q 2956 2369 2687 2733 
Q 2419 3097 1959 3097 
z
M 1959 3584 
Q 2709 3584 3137 3096 
Q 3566 2609 3566 1747 
Q 3566 888 3137 398 
Q 2709 -91 1959 -91 
Q 1206 -91 779 398 
Q 353 888 353 1747 
Q 353 2609 779 3096 
Q 1206 3584 1959 3584 
z
" transform="scale(0.015625)"/>
       <path id="DejaVuSans-72" d="M 2631 2963 
Q 2534 3019 2420 3045 
Q 2306 3072 2169 3072 
Q 1681 3072 1420 2755 
Q 1159 2438 1159 1844 
L 1159 0 
L 581 0 
L 581 3500 
L 1159 3500 
L 1159 2956 
Q 1341 3275 1631 3429 
Q 1922 3584 2338 3584 
Q 2397 3584 2469 3576 
Q 2541 3569 2628 3553 
L 2631 2963 
z
" transform="scale(0.015625)"/>
       <path id="DejaVuSans-6d" d="M 3328 2828 
Q 3544 3216 3844 3400 
Q 4144 3584 4550 3584 
Q 5097 3584 5394 3201 
Q 5691 2819 5691 2113 
L 5691 0 
L 5113 0 
L 5113 2094 
Q 5113 2597 4934 2840 
Q 4756 3084 4391 3084 
Q 3944 3084 3684 2787 
Q 3425 2491 3425 1978 
L 3425 0 
L 2847 0 
L 2847 2094 
Q 2847 2600 2669 2842 
Q 2491 3084 2119 3084 
Q 1678 3084 1418 2786 
Q 1159 2488 1159 1978 
L 1159 0 
L 581 0 
L 581 3500 
L 1159 3500 
L 1159 2956 
Q 1356 3278 1631 3431 
Q 1906 3584 2284 3584 
Q 2666 3584 2933 3390 
Q 3200 3197 3328 2828 
z
" transform="scale(0.015625)"/>
       <path id="DejaVuSans-61" d="M 2194 1759 
Q 1497 1759 1228 1600 
Q 959 1441 959 1056 
Q 959 750 1161 570 
Q 1363 391 1709 391 
Q 2188 391 2477 730 
Q 2766 1069 2766 1631 
L 2766 1759 
L 2194 1759 
z
M 3341 1997 
L 3341 0 
L 2766 0 
L 2766 531 
Q 2569 213 2275 61 
Q 1981 -91 1556 -91 
Q 1019 -91 701 211 
Q 384 513 384 1019 
Q 384 1609 779 1909 
Q 1175 2209 1959 2209 
L 2766 2209 
L 2766 2266 
Q 2766 2663 2505 2880 
Q 2244 3097 1772 3097 
Q 1472 3097 1187 3025 
Q 903 2953 641 2809 
L 641 3341 
Q 956 3463 1253 3523 
Q 1550 3584 1831 3584 
Q 2591 3584 2966 3190 
Q 3341 2797 3341 1997 
z
" transform="scale(0.015625)"/>
       <path id="DejaVuSans-6c" d="M 603 4863 
L 1178 4863 
L 1178 0 
L 603 0 
L 603 4863 
z
" transform="scale(0.015625)"/>
       <path id="DejaVuSans-69" d="M 603 3500 
L 1178 3500 
L 1178 0 
L 603 0 
L 603 3500 
z
M 603 4863 
L 1178 4863 
L 1178 4134 
L 603 4134 
L 603 4863 
z
" transform="scale(0.015625)"/>
       <path id="DejaVuSans-7a" d="M 353 3500 
L 3084 3500 
L 3084 2975 
L 922 459 
L 3084 459 
L 3084 0 
L 275 0 
L 275 525 
L 2438 3041 
L 353 3041 
L 353 3500 
z
" transform="scale(0.015625)"/>
       <path id="DejaVuSans-65" d="M 3597 1894 
L 3597 1613 
L 953 1613 
Q 991 1019 1311 708 
Q 1631 397 2203 397 
Q 2534 397 2845 478 
Q 3156 559 3463 722 
L 3463 178 
Q 3153 47 2828 -22 
Q 2503 -91 2169 -91 
Q 1331 -91 842 396 
Q 353 884 353 1716 
Q 353 2575 817 3079 
Q 1281 3584 2069 3584 
Q 2775 3584 3186 3129 
Q 3597 2675 3597 1894 
z
M 3022 2063 
Q 3016 2534 2758 2815 
Q 2500 3097 2075 3097 
Q 1594 3097 1305 2825 
Q 1016 2553 972 2059 
L 3022 2063 
z
" transform="scale(0.015625)"/>
       <path id="DejaVuSans-64" d="M 2906 2969 
L 2906 4863 
L 3481 4863 
L 3481 0 
L 2906 0 
L 2906 525 
Q 2725 213 2448 61 
Q 2172 -91 1784 -91 
Q 1150 -91 751 415 
Q 353 922 353 1747 
Q 353 2572 751 3078 
Q 1150 3584 1784 3584 
Q 2172 3584 2448 3432 
Q 2725 3281 2906 2969 
z
M 947 1747 
Q 947 1113 1208 752 
Q 1469 391 1925 391 
Q 2381 391 2643 752 
Q 2906 1113 2906 1747 
Q 2906 2381 2643 2742 
Q 2381 3103 1925 3103 
Q 1469 3103 1208 2742 
Q 947 2381 947 1747 
z
" transform="scale(0.015625)"/>
       <path id="DejaVuSans-20" transform="scale(0.015625)"/>
       <path id="DejaVuSans-46" d="M 628 4666 
L 3309 4666 
L 3309 4134 
L 1259 4134 
L 1259 2759 
L 3109 2759 
L 3109 2228 
L 1259 2228 
L 1259 0 
L 628 0 
L 628 4666 
z
" transform="scale(0.015625)"/>
       <path id="DejaVuSans-71" d="M 947 1747 
Q 947 1113 1208 752 
Q 1469 391 1925 391 
Q 2381 391 2643 752 
Q 2906 1113 2906 1747 
Q 2906 2381 2643 2742 
Q 2381 3103 1925 3103 
Q 1469 3103 1208 2742 
Q 947 2381 947 1747 
z
M 2906 525 
Q 2725 213 2448 61 
Q 2172 -91 1784 -91 
Q 1150 -91 751 415 
Q 353 922 353 1747 
Q 353 2572 751 3078 
Q 1150 3584 1784 3584 
Q 2172 3584 2448 3432 
Q 2725 3281 2906 2969 
L 2906 3500 
L 3481 3500 
L 3481 -1331 
L 2906 -1331 
L 2906 525 
z
" transform="scale(0.015625)"/>
       <path id="DejaVuSans-75" d="M 544 1381 
L 544 3500 
L 1119 3500 
L 1119 1403 
Q 1119 906 1312 657 
Q 1506 409 1894 409 
Q 2359 409 2629 706 
Q 2900 1003 2900 1516 
L 2900 3500 
L 3475 3500 
L 3475 0 
L 2900 0 
L 2900 538 
Q 2691 219 2414 64 
Q 2138 -91 1772 -91 
Q 1169 -91 856 284 
Q 544 659 544 1381 
z
M 1991 3584 
L 1991 3584 
z
" transform="scale(0.015625)"/>
       <path id="DejaVuSans-6e" d="M 3513 2113 
L 3513 0 
L 2938 0 
L 2938 2094 
Q 2938 2591 2744 2837 
Q 2550 3084 2163 3084 
Q 1697 3084 1428 2787 
Q 1159 2491 1159 1978 
L 1159 0 
L 581 0 
L 581 3500 
L 1159 3500 
L 1159 2956 
Q 1366 3272 1645 3428 
Q 1925 3584 2291 3584 
Q 2894 3584 3203 3211 
Q 3513 2838 3513 2113 
z
" transform="scale(0.015625)"/>
       <path id="DejaVuSans-63" d="M 3122 3366 
L 3122 2828 
Q 2878 2963 2633 3030 
Q 2388 3097 2138 3097 
Q 1578 3097 1268 2742 
Q 959 2388 959 1747 
Q 959 1106 1268 751 
Q 1578 397 2138 397 
Q 2388 397 2633 464 
Q 2878 531 3122 666 
L 3122 134 
Q 2881 22 2623 -34 
Q 2366 -91 2075 -91 
Q 1284 -91 818 406 
Q 353 903 353 1747 
Q 353 2603 823 3093 
Q 1294 3584 2113 3584 
Q 2378 3584 2631 3529 
Q 2884 3475 3122 3366 
z
" transform="scale(0.015625)"/>
       <path id="DejaVuSans-79" d="M 2059 -325 
Q 1816 -950 1584 -1140 
Q 1353 -1331 966 -1331 
L 506 -1331 
L 506 -850 
L 844 -850 
Q 1081 -850 1212 -737 
Q 1344 -625 1503 -206 
L 1606 56 
L 191 3500 
L 800 3500 
L 1894 763 
L 2988 3500 
L 3597 3500 
L 2059 -325 
z
" transform="scale(0.015625)"/>
       <path id="DejaVuSans-5b" d="M 550 4863 
L 1875 4863 
L 1875 4416 
L 1125 4416 
L 1125 -397 
L 1875 -397 
L 1875 -844 
L 550 -844 
L 550 4863 
z
" transform="scale(0.015625)"/>
       <path id="DejaVuSans-2f" d="M 1625 4666 
L 2156 4666 
L 531 -594 
L 0 -594 
L 1625 4666 
z
" transform="scale(0.015625)"/>
       <path id="DejaVuSans-3c0" d="M 231 3500 
L 3584 3500 
L 3584 2925 
L 3144 2925 
L 3144 775 
Q 3144 550 3220 451 
Q 3297 353 3469 353 
Q 3516 353 3584 361 
Q 3653 369 3675 372 
L 3675 -44 
Q 3566 -84 3450 -103 
Q 3334 -122 3219 -122 
Q 2844 -122 2700 83 
Q 2556 288 2556 838 
L 2556 2925 
L 1266 2925 
L 1266 0 
L 678 0 
L 678 2925 
L 231 2925 
L 231 3500 
z
" transform="scale(0.015625)"/>
       <path id="DejaVuSans-5d" d="M 1947 4863 
L 1947 -844 
L 622 -844 
L 622 -397 
L 1369 -397 
L 1369 4416 
L 622 4416 
L 622 4863 
L 1947 4863 
z
" transform="scale(0.015625)"/>
      </defs>
      <use xlink:href="#DejaVuSans-4e"/>
      <use xlink:href="#DejaVuSans-6f" transform="translate(74.804688 0)"/>
      <use xlink:href="#DejaVuSans-72" transform="translate(135.986328 0)"/>
      <use xlink:href="#DejaVuSans-6d" transform="translate(175.349609 0)"/>
      <use xlink:href="#DejaVuSans-61" transform="translate(272.761719 0)"/>
      <use xlink:href="#DejaVuSans-6c" transform="translate(334.041016 0)"/>
      <use xlink:href="#DejaVuSans-69" transform="translate(361.824219 0)"/>
      <use xlink:href="#DejaVuSans-7a" transform="translate(389.607422 0)"/>
      <use xlink:href="#DejaVuSans-65" transform="translate(442.097656 0)"/>
      <use xlink:href="#DejaVuSans-64" transform="translate(503.621094 0)"/>
      <use xlink:href="#DejaVuSans-20" transform="translate(567.097656 0)"/>
      <use xlink:href="#DejaVuSans-46" transform="translate(598.884766 0)"/>
      <use xlink:href="#DejaVuSans-72" transform="translate(649.154297 0)"/>
      <use xlink:href="#DejaVuSans-65" transform="translate(688.017578 0)"/>
      <use xlink:href="#DejaVuSans-71" transform="translate(749.541016 0)"/>
      <use xlink:href="#DejaVuSans-75" transform="translate(813.017578 0)"/>
      <use xlink:href="#DejaVuSans-65" transform="translate(876.396484 0)"/>
      <use xlink:href="#DejaVuSans-6e" transform="translate(937.919922 0)"/>
      <use xlink:href="#DejaVuSans-63" transform="translate(1001.298828 0)"/>
      <use xlink:href="#DejaVuSans-79" transform="translate(1056.279297 0)"/>
      <use xlink:href="#DejaVuSans-20" transform="translate(1115.458984 0)"/>
      <use xlink:href="#DejaVuSans-5b" transform="translate(1147.246094 0)"/>
      <use xlink:href="#DejaVuSans-72" transform="translate(1186.259766 0)"/>
      <use xlink:href="#DejaVuSans-61" transform="translate(1227.373047 0)"/>
      <use xlink:href="#DejaVuSans-64" transform="translate(1288.652344 0)"/>
      <use xlink:href="#DejaVuSans-2f" transform="translate(1352.128906 0)"/>
      <use xlink:href="#DejaVuSans-32" transform="translate(1385.820312 0)"/>
      <use xlink:href="#DejaVuSans-3c0" transform="translate(1449.443359 0)"/>
      <use xlink:href="#DejaVuSans-5d" transform="translate(1509.648438 0)"/>
     </g>
    </g>
   </g>
   <g id="matplotlib.axis_2">
    <g id="ytick_1">
     <g id="line2d_45">
      <path d="M 52.94 314.728 
L 565.2 314.728 
" clip-path="url(#pded0bf3288)" style="fill: none; stroke: #f0f0f0; stroke-width: 0.8; stroke-linecap: square"/>
     </g>
     <g id="line2d_46">
      <defs>
       <path id="m62703c87c9" d="M 0 0 
L -3.5 0 
" style="stroke: #000000; stroke-width: 0.8"/>
      </defs>
      <g>
       <use xlink:href="#m62703c87c9" x="52.94" y="314.728" style="stroke: #000000; stroke-width: 0.8"/>
      </g>
     </g>
     <g id="text_6">
      <!-- −20 -->
      <g transform="translate(24.835313 318.527219) scale(0.1 -0.1)">
       <use xlink:href="#DejaVuSans-2212"/>
       <use xlink:href="#DejaVuSans-32" transform="translate(83.789062 0)"/>
       <use xlink:href="#DejaVuSans-30" transform="translate(147.412109 0)"/>
      </g>
     </g>
    </g>
    <g id="ytick_2">
     <g id="line2d_47">
      <path d="M 52.94 278.747 
L 565.2 278.747 
" clip-path="url(#pded0bf3288)" style="fill: none; stroke: #f0f0f0; stroke-width: 0.8; stroke-linecap: square"/>
     </g>
     <g id="line2d_48">
      <g>
       <use xlink:href="#m62703c87c9" x="52.94" y="278.747" style="stroke: #000000; stroke-width: 0.8"/>
      </g>
     </g>
     <g id="text_7">
      <!-- −15 -->
      <g transform="translate(24.835313 282.546219) scale(0.1 -0.1)">
       <defs>
        <path id="DejaVuSans-35" d="M 691 4666 
L 3169 4666 
L 3169 4134 
L 1269 4134 
L 1269 2991 
Q 1406 3038 1543 3061 
Q 1681 3084 1819 3084 
Q 2600 3084 3056 2656 
Q 3513 2228 3513 1497 
Q 3513 744 3044 326 
Q 2575 -91 1722 -91 
Q 1428 -91 1123 -41 
Q 819 9 494 109 
L 494 744 
Q 775 591 1075 516 
Q 1375 441 1709 441 
Q 2250 441 2565 725 
Q 2881 1009 2881 1497 
Q 2881 1984 2565 2268 
Q 2250 2553 1709 2553 
Q 1456 2553 1204 2497 
Q 953 2441 691 2322 
L 691 4666 
z
" transform="scale(0.015625)"/>
       </defs>
       <use xlink:href="#DejaVuSans-2212"/>
       <use xlink:href="#DejaVuSans-31" transform="translate(83.789062 0)"/>
       <use xlink:href="#DejaVuSans-35" transform="translate(147.412109 0)"/>
      </g>
     </g>
    </g>
    <g id="ytick_3">
     <g id="line2d_49">
      <path d="M 52.94 242.766 
L 565.2 242.766 
" clip-path="url(#pded0bf3288)" style="fill: none; stroke: #f0f0f0; stroke-width: 0.8; stroke-linecap: square"/>
     </g>
     <g id="line2d_50">
      <g>
       <use xlink:href="#m62703c87c9" x="52.94" y="242.766" style="stroke: #000000; stroke-width: 0.8"/>
      </g>
     </g>
     <g id="text_8">
      <!-- −10 -->
      <g transform="translate(24.835313 246.565219) scale(0.1 -0.1)">
       <use xlink:href="#DejaVuSans-2212"/>
       <use xlink:href="#DejaVuSans-31" transform="translate(83.789062 0)"/>
       <use xlink:href="#DejaVuSans-30" transform="translate(147.412109 0)"/>
      </g>
     </g>
    </g>
    <g id="ytick_4">
     <g id="line2d_51">
      <path d="M 52.94 206.785 
L 565.2 206.785 
" clip-path="url(#pded0bf3288)" style="fill: none; stroke: #f0f0f0; stroke-width: 0.8; stroke-linecap: square"/>
     </g>
     <g id="line2d_52">
      <g>
       <use xlink:href="#m62703c87c9" x="52.94" y="206.785" style="stroke: #000000; stroke-width: 0.8"/>
      </g>
     </g>
     <g id="text_9">
      <!-- −5 -->
      <g transform="translate(31.197813 210.584219) scale(0.1 -0.1)">
       <use xlink:href="#DejaVuSans-2212"/>
       <use xlink:href="#DejaVuSans-35" transform="translate(83.789062 0)"/>
      </g>
     </g>
    </g>
    <g id="ytick_5">
     <g id="line2d_53">
      <path d="M 52.94 170.804 
L 565.2 170.804 
" clip-path="url(#pded0bf3288)" style="fill: none; stroke: #f0f0f0; stroke-width: 0.8; stroke-linecap: square"/>
     </g>
     <g id="line2d_54">
      <g>
       <use xlink:href="#m62703c87c9" x="52.94" y="170.804" style="stroke: #000000; stroke-width: 0.8"/>
      </g>
     </g>
     <g id="text_10">
      <!-- 0 -->
      <g transform="translate(39.5775 174.603219) scale(0.1 -0.1)">
       <use xlink:href="#DejaVuSans-30"/>
      </g>
     </g>
    </g>
    <g id="ytick_6">
     <g id="line2d_55">
      <path d="M 52.94 134.823 
L 565.2 134.823 
" clip-path="url(#pded0bf3288)" style="fill: none; stroke: #f0f0f0; stroke-width: 0.8; stroke-linecap: square"/>
     </g>
     <g id="line2d_56">
      <g>
       <use xlink:href="#m62703c87c9" x="52.94" y="134.823" style="stroke: #000000; stroke-width: 0.8"/>
      </g>
     </g>
     <g id="text_11">
      <!-- 5 -->
      <g transform="translate(39.5775 138.622219) scale(0.1 -0.1)">
       <use xlink:href="#DejaVuSans-35"/>
      </g>
     </g>
    </g>
    <g id="ytick_7">
     <g id="line2d_57">
      <path d="M 52.94 98.842 
L 565.2 98.842 
" clip-path="url(#pded0bf3288)" style="fill: none; stroke: #f0f0f0; stroke-width: 0.8; stroke-linecap: square"/>
     </g>
     <g id="line2d_58">
      <g>
       <use xlink:href="#m62703c87c9" x="52.94" y="98.842" style="stroke: #000000; stroke-width: 0.8"/>
      </g>
     </g>
     <g id="text_12">
      <!-- 10 -->
      <g transform="translate(33.215 102.641219) scale(0.1 -0.1)">
       <use xlink:href="#DejaVuSans-31"/>
       <use xlink:href="#DejaVuSans-30" transform="translate(63.623047 0)"/>
      </g>
     </g>
    </g>
    <g id="ytick_8">
     <g id="line2d_59">
      <path d="M 52.94 62.861 
L 565.2 62.861 
" clip-path="url(#pded0bf3288)" style="fill: none; stroke: #f0f0f0; stroke-width: 0.8; stroke-linecap: square"/>
     </g>
     <g id="line2d_60">
      <g>
       <use xlink:href="#m62703c87c9" x="52.94" y="62.861" style="stroke: #000000; stroke-width: 0.8"/>
      </g>
     </g>
     <g id="text_13">
      <!-- 15 -->
      <g transform="translate(33.215 66.660219) scale(0.1 -0.1)">
       <use xlink:href="#DejaVuSans-31"/>
       <use xlink:href="#DejaVuSans-35" transform="translate(63.623047 0)"/>
      </g>
     </g>
    </g>
    <g id="ytick_9">
     <g id="line2d_61">
      <path d="M 52.94 26.88 
L 565.2 26.88 
" clip-path="url(#pded0bf3288)" style="fill: none; stroke: #f0f0f0; stroke-width: 0.8; stroke-linecap: square"/>
     </g>
     <g id="line2d_62">
      <g>
       <use xlink:href="#m62703c87c9" x="52.94" y="26.88" style="stroke: #000000; stroke-width: 0.8"/>
      </g>
     </g>
     <g id="text_14">
      <!-- 20 -->
      <g transform="translate(33.215 30.679219) scale(0.1 -0.1)">
       <use xlink:href="#DejaVuSans-32"/>
       <use xlink:href="#DejaVuSans-30" transform="translate(63.623047 0)"/>
      </g>
     </g>
    </g>
    <g id="text_15">
     <!-- Amplitude [dB] -->
     <g transform="translate(18.755625 208.521969) rotate(-90) scale(0.1 -0.1)">
      <defs>
       <path id="DejaVuSans-41" d="M 2188 4044 
L 1331 1722 
L 3047 1722 
L 2188 4044 
z
M 1831 4666 
L 2547 4666 
L 4325 0 
L 3669 0 
L 3244 1197 
L 1141 1197 
L 716 0 
L 50 0 
L 1831 4666 
z
" transform="scale(0.015625)"/>
       <path id="DejaVuSans-70" d="M 1159 525 
L 1159 -1331 
L 581 -1331 
L 581 3500 
L 1159 3500 
L 1159 2969 
Q 1341 3281 1617 3432 
Q 1894 3584 2278 3584 
Q 2916 3584 3314 3078 
Q 3713 2572 3713 1747 
Q 3713 922 3314 415 
Q 2916 -91 2278 -91 
Q 1894 -91 1617 61 
Q 1341 213 1159 525 
z
M 3116 1747 
Q 3116 2381 2855 2742 
Q 2594 3103 2138 3103 
Q 1681 3103 1420 2742 
Q 1159 2381 1159 1747 
Q 1159 1113 1420 752 
Q 1681 391 2138 391 
Q 2594 391 2855 752 
Q 3116 1113 3116 1747 
z
" transform="scale(0.015625)"/>
       <path id="DejaVuSans-74" d="M 1172 4494 
L 1172 3500 
L 2356 3500 
L 2356 3053 
L 1172 3053 
L 1172 1153 
Q 1172 725 1289 603 
Q 1406 481 1766 481 
L 2356 481 
L 2356 0 
L 1766 0 
Q 1100 0 847 248 
Q 594 497 594 1153 
L 594 3053 
L 172 3053 
L 172 3500 
L 594 3500 
L 594 4494 
L 1172 4494 
z
" transform="scale(0.015625)"/>
       <path id="DejaVuSans-42" d="M 1259 2228 
L 1259 519 
L 2272 519 
Q 2781 519 3026 730 
Q 3272 941 3272 1375 
Q 3272 1813 3026 2020 
Q 2781 2228 2272 2228 
L 1259 2228 
z
M 1259 4147 
L 1259 2741 
L 2194 2741 
Q 2656 2741 2882 2914 
Q 3109 3088 3109 3444 
Q 3109 3797 2882 3972 
Q 2656 4147 2194 4147 
L 1259 4147 
z
M 628 4666 
L 2241 4666 
Q 2963 4666 3353 4366 
Q 3744 4066 3744 3513 
Q 3744 3084 3544 2831 
Q 3344 2578 2956 2516 
Q 3422 2416 3680 2098 
Q 3938 1781 3938 1306 
Q 3938 681 3513 340 
Q 3088 0 2303 0 
L 628 0 
L 628 4666 
z
" transform="scale(0.015625)"/>
      </defs>
      <use xlink:href="#DejaVuSans-41"/>
      <use xlink:href="#DejaVuSans-6d" transform="translate(68.408203 0)"/>
      <use xlink:href="#DejaVuSans-70" transform="translate(165.820312 0)"/>
      <use xlink:href="#DejaVuSans-6c" transform="translate(229.296875 0)"/>
      <use xlink:href="#DejaVuSans-69" transform="translate(257.080078 0)"/>
      <use xlink:href="#DejaVuSans-74" transform="translate(284.863281 0)"/>
      <use xlink:href="#DejaVuSans-75" transform="translate(324.072266 0)"/>
      <use xlink:href="#DejaVuSans-64" transform="translate(387.451172 0)"/>
      <use xlink:href="#DejaVuSans-65" transform="translate(450.927734 0)"/>
      <use xlink:href="#DejaVuSans-20" transform="translate(512.451172 0)"/>
      <use xlink:href="#DejaVuSans-5b" transform="translate(544.238281 0)"/>
      <use xlink:href="#DejaVuSans-64" transform="translate(583.251953 0)"/>
      <use xlink:href="#DejaVuSans-42" transform="translate(646.728516 0)"/>
      <use xlink:href="#DejaVuSans-5d" transform="translate(715.332031 0)"/>
     </g>
    </g>
   </g>
   <g id="line2d_63">
    <path d="M 39.252766 170.804008 
L 155.730025 170.882106 
L 172.750619 171.093902 
L 182.572084 171.413049 
L 190.793174 171.922865 
L 195.614481 172.390061 
L 200.015989 172.971254 
L 204.064984 173.673867 
L 207.813767 174.502233 
L 211.303802 175.457426 
L 214.568511 176.537322 
L 217.635233 177.736853 
L 220.526616 179.04843 
L 223.26163 180.462475 
L 227.10541 182.751374 
L 230.67763 185.205794 
L 234.014142 187.78512 
L 237.144136 190.451076 
L 241.037243 194.082148 
L 244.652026 197.740145 
L 248.835022 202.274358 
L 253.436869 207.572861 
L 258.986036 214.292431 
L 266.312372 223.530272 
L 278.835406 239.754992 
L 301.658913 269.317085 
L 319.361207 291.838322 
L 341.4405 319.542606 
L 374.786093 361 
L 374.786093 361 
" clip-path="url(#pded0bf3288)" style="fill: none; stroke: #440154; stroke-width: 1.5; stroke-linecap: square"/>
   </g>
   <g id="line2d_64">
    <path d="M 203.280698 314.728 
L 203.280698 26.88 
" clip-path="url(#pded0bf3288)" style="fill: none; stroke-dasharray: 3.7,1.6; stroke-dashoffset: 0; stroke: #440154; stroke-opacity: 0.66"/>
   </g>
   <g id="line2d_65">
    <path d="M 39.252766 170.804001 
L 193.261246 170.89861 
L 209.588877 171.135889 
L 219.10158 171.483576 
L 225.856323 171.922926 
L 231.814429 172.524412 
L 237.144136 173.307139 
L 241.965443 174.283366 
L 245.516755 175.206952 
L 248.835022 176.256063 
L 252.698382 177.737062 
L 256.287506 179.392991 
L 259.63876 181.204812 
L 262.781723 183.150385 
L 266.312372 185.628462 
L 269.612592 188.224844 
L 273.209009 191.353439 
L 277.028592 194.996958 
L 281.006788 199.108635 
L 285.479094 204.062287 
L 290.652914 210.143936 
L 296.922316 217.877665 
L 305.729642 229.138372 
L 349.950376 286.186522 
L 370.641989 312.235204 
L 403.110444 352.704125 
L 409.782198 361 
L 409.782198 361 
" clip-path="url(#pded0bf3288)" style="fill: none; stroke: #481f70; stroke-width: 1.5; stroke-linecap: square"/>
   </g>
   <g id="line2d_66">
    <path d="M 238.343847 314.728 
L 238.343847 26.88 
" clip-path="url(#pded0bf3288)" style="fill: none; stroke-dasharray: 3.7,1.6; stroke-dashoffset: 0; stroke: #481f70; stroke-opacity: 0.66"/>
   </g>
   <g id="line2d_67">
    <path d="M 39.252766 170.804 
L 229.514695 170.907814 
L 244.652026 171.136009 
L 254.164729 171.483757 
L 261.547871 171.975668 
L 267.436539 172.594598 
L 272.207285 173.30755 
L 276.566621 174.177347 
L 280.579904 175.207556 
L 284.298058 176.396558 
L 287.761531 177.737901 
L 291.002988 179.22101 
L 294.3766 181.018356 
L 297.539219 182.951767 
L 300.803928 185.207646 
L 304.14044 187.787245 
L 307.522731 190.678476 
L 311.163541 194.084948 
L 314.995896 197.971655 
L 319.361207 202.72667 
L 324.291027 208.440483 
L 330.249133 215.708959 
L 338.115688 225.689826 
L 352.702563 244.641177 
L 372.764766 270.598282 
L 390.911158 293.686052 
L 415.734469 324.874009 
L 444.579455 361 
L 444.579455 361 
" clip-path="url(#pded0bf3288)" style="fill: none; stroke: #443a83; stroke-width: 1.5; stroke-linecap: square"/>
   </g>
   <g id="line2d_68">
    <path d="M 273.406996 314.728 
L 273.406996 26.88 
" clip-path="url(#pded0bf3288)" style="fill: none; stroke-dasharray: 3.7,1.6; stroke-dashoffset: 0; stroke: #443a83; stroke-opacity: 0.66"/>
   </g>
   <g id="line2d_69">
    <path d="M 39.252766 170.804 
L 265.162653 170.912878 
L 280.149387 171.147633 
L 289.587918 171.502971 
L 296.61102 171.976675 
L 302.499688 172.595915 
L 307.522731 173.353361 
L 311.861283 174.232393 
L 315.856945 175.271925 
L 319.559971 176.470054 
L 323.010315 177.820076 
L 326.413804 179.39792 
L 329.602665 181.116524 
L 332.908021 183.156926 
L 336.15368 185.42439 
L 339.471947 188.013497 
L 342.961981 191.0245 
L 346.692919 194.551092 
L 350.706202 198.666468 
L 355.11664 203.521392 
L 360.160692 209.418919 
L 366.266752 216.919617 
L 374.46814 227.375782 
L 392.059788 250.276463 
L 411.016775 274.773134 
L 432.013027 301.508131 
L 470.26027 350.15502 
L 478.613803 361 
L 478.613803 361 
" clip-path="url(#pded0bf3288)" style="fill: none; stroke: #3a538b; stroke-width: 1.5; stroke-linecap: square"/>
   </g>
   <g id="line2d_70">
    <path d="M 308.470145 314.728 
L 308.470145 26.88 
" clip-path="url(#pded0bf3288)" style="fill: none; stroke-dasharray: 3.7,1.6; stroke-dashoffset: 0; stroke: #3a538b; stroke-opacity: 0.66"/>
   </g>
   <g id="line2d_71">
    <path d="M 39.252766 170.804 
L 300.225802 170.913906 
L 315.212536 171.149576 
L 324.651067 171.505911 
L 331.674169 171.980704 
L 337.423674 172.583505 
L 342.333583 173.315754 
L 346.692919 174.187383 
L 350.598916 175.188798 
L 354.224808 176.34063 
L 357.70151 177.676191 
L 361.041994 179.197352 
L 364.339455 180.947435 
L 367.588814 182.927705 
L 370.85832 185.18465 
L 374.199425 187.766399 
L 377.649029 190.717392 
L 381.289839 194.129766 
L 385.23063 198.137748 
L 389.537269 202.843519 
L 394.46247 208.56678 
L 400.335267 215.748076 
L 408.000857 225.49606 
L 421.153 242.642024 
L 448.182644 277.866483 
L 479.85819 319.068006 
L 490.797783 333.70702 
L 499.306661 345.45457 
L 506.356575 355.558282 
L 510.026544 361 
L 510.026544 361 
" clip-path="url(#pded0bf3288)" style="fill: none; stroke: #306a8e; stroke-width: 1.5; stroke-linecap: square"/>
   </g>
   <g id="line2d_72">
    <path d="M 343.533294 314.728 
L 343.533294 26.88 
" clip-path="url(#pded0bf3288)" style="fill: none; stroke-dasharray: 3.7,1.6; stroke-dashoffset: 0; stroke: #306a8e; stroke-opacity: 0.66"/>
   </g>
   <g id="line2d_73">
    <path d="M 39.252766 170.804 
L 334.850979 170.914296 
L 350.059045 171.15165 
L 359.624446 171.512954 
L 366.737318 171.996816 
L 372.486823 172.604446 
L 377.396732 173.342008 
L 381.756068 174.219505 
L 385.715736 175.24278 
L 389.387829 176.421379 
L 392.857904 177.768884 
L 396.192434 179.302576 
L 399.443514 181.042519 
L 402.690329 183.035218 
L 405.957435 185.305758 
L 409.296242 187.902566 
L 412.743627 190.870405 
L 416.382254 194.302115 
L 420.293779 198.304322 
L 424.600418 203.038574 
L 429.480474 208.745189 
L 435.257594 215.856917 
L 442.647948 225.328074 
L 453.733432 239.934964 
L 475.903649 269.576871 
L 489.943943 288.657539 
L 499.238464 301.651811 
L 506.56857 312.271929 
L 512.708926 321.551803 
L 518.01161 329.962218 
L 522.678584 337.776089 
L 526.835903 345.165702 
L 530.576446 352.264055 
L 533.967828 359.173868 
L 534.822023 361 
L 534.822023 361 
" clip-path="url(#pded0bf3288)" style="fill: none; stroke: #277e8e; stroke-width: 1.5; stroke-linecap: square"/>
   </g>
   <g id="line2d_74">
    <path d="M 378.596443 314.728 
L 378.596443 26.88 
" clip-path="url(#pded0bf3288)" style="fill: none; stroke-dasharray: 3.7,1.6; stroke-dashoffset: 0; stroke: #277e8e; stroke-opacity: 0.66"/>
   </g>
   <g id="line2d_75">
    <path d="M 39.252766 170.804 
L 368.047295 170.914652 
L 383.913798 171.15067 
L 393.689464 171.507295 
L 400.934391 171.986169 
L 406.777661 172.589351 
L 411.727438 173.318168 
L 416.118253 174.186534 
L 420.076674 175.193209 
L 423.747693 176.354043 
L 427.217489 177.683581 
L 430.552997 179.200283 
L 433.80665 180.925649 
L 437.019503 182.882832 
L 440.241634 185.108161 
L 443.528016 187.651965 
L 446.918733 190.562617 
L 450.470588 193.910192 
L 454.248124 197.781546 
L 458.353512 202.3138 
L 462.925944 207.701769 
L 468.159963 214.22435 
L 474.355789 222.314564 
L 481.901829 232.54817 
L 490.797783 244.994671 
L 499.640635 257.74085 
L 507.184698 268.993297 
L 513.487245 278.784156 
L 518.859843 287.533587 
L 523.540644 295.575047 
L 527.685604 303.133135 
L 531.396178 310.357676 
L 534.748899 317.369311 
L 537.797713 324.258934 
L 540.582841 331.10069 
L 543.139094 337.969352 
L 545.492655 344.931628 
L 547.663022 352.048113 
L 549.668596 359.390177 
L 550.078395 361 
L 550.078395 361 
" clip-path="url(#pded0bf3288)" style="fill: none; stroke: #20928c; stroke-width: 1.5; stroke-linecap: square"/>
   </g>
   <g id="line2d_76">
    <path d="M 413.659591 314.728 
L 413.659591 26.88 
" clip-path="url(#pded0bf3288)" style="fill: none; stroke-dasharray: 3.7,1.6; stroke-dashoffset: 0; stroke: #20928c; stroke-opacity: 0.66"/>
   </g>
   <g id="line2d_77">
    <path d="M 39.252766 170.804 
L 396.017701 170.915089 
L 414.230629 171.14436 
L 424.972098 171.4899 
L 432.738125 171.953753 
L 438.891129 172.537215 
L 444.055573 173.244611 
L 448.571227 174.083688 
L 452.616648 175.05817 
L 456.335815 176.180275 
L 459.824964 177.46427 
L 463.146969 178.923679 
L 466.351428 180.574222 
L 469.498197 182.446117 
L 472.624506 184.566495 
L 475.768164 186.969823 
L 478.966127 189.697285 
L 482.269028 192.810702 
L 485.712379 196.367137 
L 489.345861 200.445311 
L 493.218475 205.132115 
L 497.385098 210.530368 
L 501.875507 216.718501 
L 506.67178 223.712391 
L 511.652181 231.371229 
L 516.599129 239.386245 
L 521.300346 247.423663 
L 525.631947 255.265467 
L 529.568661 262.84799 
L 533.136694 270.199543 
L 536.371388 277.370359 
L 539.316422 284.437203 
L 542.009132 291.475385 
L 544.477436 298.549116 
L 546.746466 305.727591 
L 548.837071 313.081955 
L 550.764667 320.680264 
L 552.542255 328.59708 
L 554.180856 336.917072 
L 555.689852 345.739802 
L 557.075438 355.173104 
L 557.827738 361 
L 557.827738 361 
" clip-path="url(#pded0bf3288)" style="fill: none; stroke: #22a785; stroke-width: 1.5; stroke-linecap: square"/>
   </g>
   <g id="line2d_78">
    <path d="M 448.72274 314.728 
L 448.72274 26.88 
" clip-path="url(#pded0bf3288)" style="fill: none; stroke-dasharray: 3.7,1.6; stroke-dashoffset: 0; stroke: #22a785; stroke-opacity: 0.66"/>
   </g>
   <g id="line2d_79">
    <path d="M 39.252766 170.804 
L 411.016775 170.91503 
L 435.055736 171.144052 
L 448.478239 171.480455 
L 457.750152 171.925235 
L 464.847575 172.480458 
L 470.632039 173.149524 
L 475.559714 173.938517 
L 479.88321 174.852383 
L 483.765817 175.897349 
L 487.328384 177.084403 
L 490.649735 178.424137 
L 493.791723 179.930444 
L 496.80365 181.62055 
L 499.730825 183.518702 
L 502.60437 185.648765 
L 505.449322 188.036523 
L 508.290382 190.713616 
L 511.151375 193.717892 
L 514.050497 197.088359 
L 516.997014 200.858947 
L 519.996814 205.062991 
L 523.045779 209.722941 
L 526.129006 214.845816 
L 529.211453 220.402276 
L 532.253199 226.346369 
L 535.211817 232.618307 
L 538.046538 239.150557 
L 540.728295 245.890121 
L 543.241661 252.808587 
L 545.586013 259.914728 
L 547.76118 267.220079 
L 549.775509 274.767854 
L 551.636044 282.605738 
L 553.354534 290.814808 
L 554.937199 299.469743 
L 556.391064 308.668362 
L 557.723839 318.542618 
L 558.938606 329.227288 
L 560.039479 340.906403 
L 561.031481 353.843204 
L 561.494531 361 
L 561.494531 361 
" clip-path="url(#pded0bf3288)" style="fill: none; stroke: #3bbb75; stroke-width: 1.5; stroke-linecap: square"/>
   </g>
   <g id="line2d_80">
    <path d="M 483.785889 314.728 
L 483.785889 26.88 
" clip-path="url(#pded0bf3288)" style="fill: none; stroke-dasharray: 3.7,1.6; stroke-dashoffset: 0; stroke: #3bbb75; stroke-opacity: 0.66"/>
   </g>
   <g id="line2d_81">
    <path d="M 39.252766 170.804 
L 418.754103 170.91504 
L 446.307129 171.150178 
L 462.292445 171.495367 
L 473.331738 171.945517 
L 481.652856 172.498901 
L 488.283661 173.155787 
L 493.779055 173.917755 
L 498.470614 174.787569 
L 502.577759 175.770996 
L 506.242816 176.874015 
L 509.562891 178.102598 
L 512.621702 179.469765 
L 515.468932 180.984457 
L 518.156582 182.665612 
L 520.71605 184.529078 
L 523.177036 186.596812 
L 525.561021 188.891686 
L 527.889362 191.444025 
L 530.173887 194.281381 
L 532.424645 197.434932 
L 534.650157 200.940365 
L 536.84951 204.824086 
L 539.024595 209.121577 
L 541.16713 213.85279 
L 543.270247 219.042501 
L 545.319143 224.697332 
L 547.29927 230.821664 
L 549.198442 237.425375 
L 551.004365 244.517082 
L 552.708524 252.119551 
L 554.303552 260.262317 
L 555.786638 269.002548 
L 557.156944 278.422134 
L 558.415255 288.635625 
L 559.563704 299.803822 
L 560.602196 312.113576 
L 561.531902 325.826034 
L 562.35509 341.322481 
L 563.071797 359.103836 
L 563.136501 361 
L 563.136501 361 
" clip-path="url(#pded0bf3288)" style="fill: none; stroke: #65cb5e; stroke-width: 1.5; stroke-linecap: square"/>
   </g>
   <g id="line2d_82">
    <path d="M 518.849038 314.728 
L 518.849038 26.88 
" clip-path="url(#pded0bf3288)" style="fill: none; stroke-dasharray: 3.7,1.6; stroke-dashoffset: 0; stroke: #65cb5e; stroke-opacity: 0.66"/>
   </g>
   <g id="line2d_83">
    <path d="M 39.252766 170.804 
L 478.659547 170.915096 
L 500.552008 171.139338 
L 511.820977 171.460745 
L 519.044715 171.876625 
L 524.21501 172.387057 
L 528.17261 172.993068 
L 531.34797 173.697464 
L 533.990721 174.506147 
L 536.253884 175.427247 
L 538.238933 176.472271 
L 540.022206 177.66106 
L 541.653853 179.016216 
L 543.172511 180.567951 
L 544.609807 182.357475 
L 545.989339 184.435509 
L 547.327851 186.861543 
L 548.638281 189.706974 
L 549.932324 193.061524 
L 551.216481 197.024378 
L 552.496633 201.715932 
L 553.77422 207.266393 
L 555.04487 213.803223 
L 556.302792 221.46856 
L 557.531987 230.363389 
L 558.712719 240.567264 
L 559.820182 252.108009 
L 560.83665 265.067851 
L 561.750528 279.617591 
L 562.555557 296.060303 
L 563.250201 314.911201 
L 563.835619 337.015334 
L 564.273239 361 
L 564.273239 361 
" clip-path="url(#pded0bf3288)" style="fill: none; stroke: #9bd93c; stroke-width: 1.5; stroke-linecap: square"/>
   </g>
   <g id="line2d_84">
    <path d="M 553.912187 314.728 
L 553.912187 26.88 
" clip-path="url(#pded0bf3288)" style="fill: none; stroke-dasharray: 3.7,1.6; stroke-dashoffset: 0; stroke: #9bd93c; stroke-opacity: 0.66"/>
   </g>
   <g id="patch_3">
    <path d="M 52.94 314.728 
L 52.94 26.88 
" style="fill: none; stroke: #000000; stroke-width: 0.8; stroke-linejoin: miter; stroke-linecap: square"/>
   </g>
   <g id="patch_4">
    <path d="M 565.2 314.728 
L 565.2 26.88 
" style="fill: none; stroke: #000000; stroke-width: 0.8; stroke-linejoin: miter; stroke-linecap: square"/>
   </g>
   <g id="patch_5">
    <path d="M 52.94 314.728 
L 565.2 314.728 
" style="fill: none; stroke: #000000; stroke-width: 0.8; stroke-linejoin: miter; stroke-linecap: square"/>
   </g>
   <g id="patch_6">
    <path d="M 52.94 26.88 
L 565.2 26.88 
" style="fill: none; stroke: #000000; stroke-width: 0.8; stroke-linejoin: miter; stroke-linecap: square"/>
   </g>
   <g id="text_16">
    <!-- 1-pole Complex Lowpass Response (R=0.2431) -->
    <g transform="translate(167.058437 20.88) scale(0.12 -0.12)">
     <defs>
      <path id="DejaVuSans-2d" d="M 313 2009 
L 1997 2009 
L 1997 1497 
L 313 1497 
L 313 2009 
z
" transform="scale(0.015625)"/>
      <path id="DejaVuSans-43" d="M 4122 4306 
L 4122 3641 
Q 3803 3938 3442 4084 
Q 3081 4231 2675 4231 
Q 1875 4231 1450 3742 
Q 1025 3253 1025 2328 
Q 1025 1406 1450 917 
Q 1875 428 2675 428 
Q 3081 428 3442 575 
Q 3803 722 4122 1019 
L 4122 359 
Q 3791 134 3420 21 
Q 3050 -91 2638 -91 
Q 1578 -91 968 557 
Q 359 1206 359 2328 
Q 359 3453 968 4101 
Q 1578 4750 2638 4750 
Q 3056 4750 3426 4639 
Q 3797 4528 4122 4306 
z
" transform="scale(0.015625)"/>
      <path id="DejaVuSans-78" d="M 3513 3500 
L 2247 1797 
L 3578 0 
L 2900 0 
L 1881 1375 
L 863 0 
L 184 0 
L 1544 1831 
L 300 3500 
L 978 3500 
L 1906 2253 
L 2834 3500 
L 3513 3500 
z
" transform="scale(0.015625)"/>
      <path id="DejaVuSans-4c" d="M 628 4666 
L 1259 4666 
L 1259 531 
L 3531 531 
L 3531 0 
L 628 0 
L 628 4666 
z
" transform="scale(0.015625)"/>
      <path id="DejaVuSans-77" d="M 269 3500 
L 844 3500 
L 1563 769 
L 2278 3500 
L 2956 3500 
L 3675 769 
L 4391 3500 
L 4966 3500 
L 4050 0 
L 3372 0 
L 2619 2869 
L 1863 0 
L 1184 0 
L 269 3500 
z
" transform="scale(0.015625)"/>
      <path id="DejaVuSans-73" d="M 2834 3397 
L 2834 2853 
Q 2591 2978 2328 3040 
Q 2066 3103 1784 3103 
Q 1356 3103 1142 2972 
Q 928 2841 928 2578 
Q 928 2378 1081 2264 
Q 1234 2150 1697 2047 
L 1894 2003 
Q 2506 1872 2764 1633 
Q 3022 1394 3022 966 
Q 3022 478 2636 193 
Q 2250 -91 1575 -91 
Q 1294 -91 989 -36 
Q 684 19 347 128 
L 347 722 
Q 666 556 975 473 
Q 1284 391 1588 391 
Q 1994 391 2212 530 
Q 2431 669 2431 922 
Q 2431 1156 2273 1281 
Q 2116 1406 1581 1522 
L 1381 1569 
Q 847 1681 609 1914 
Q 372 2147 372 2553 
Q 372 3047 722 3315 
Q 1072 3584 1716 3584 
Q 2034 3584 2315 3537 
Q 2597 3491 2834 3397 
z
" transform="scale(0.015625)"/>
      <path id="DejaVuSans-52" d="M 2841 2188 
Q 3044 2119 3236 1894 
Q 3428 1669 3622 1275 
L 4263 0 
L 3584 0 
L 2988 1197 
Q 2756 1666 2539 1819 
Q 2322 1972 1947 1972 
L 1259 1972 
L 1259 0 
L 628 0 
L 628 4666 
L 2053 4666 
Q 2853 4666 3247 4331 
Q 3641 3997 3641 3322 
Q 3641 2881 3436 2590 
Q 3231 2300 2841 2188 
z
M 1259 4147 
L 1259 2491 
L 2053 2491 
Q 2509 2491 2742 2702 
Q 2975 2913 2975 3322 
Q 2975 3731 2742 3939 
Q 2509 4147 2053 4147 
L 1259 4147 
z
" transform="scale(0.015625)"/>
      <path id="DejaVuSans-28" d="M 1984 4856 
Q 1566 4138 1362 3434 
Q 1159 2731 1159 2009 
Q 1159 1288 1364 580 
Q 1569 -128 1984 -844 
L 1484 -844 
Q 1016 -109 783 600 
Q 550 1309 550 2009 
Q 550 2706 781 3412 
Q 1013 4119 1484 4856 
L 1984 4856 
z
" transform="scale(0.015625)"/>
      <path id="DejaVuSans-3d" d="M 678 2906 
L 4684 2906 
L 4684 2381 
L 678 2381 
L 678 2906 
z
M 678 1631 
L 4684 1631 
L 4684 1100 
L 678 1100 
L 678 1631 
z
" transform="scale(0.015625)"/>
      <path id="DejaVuSans-2e" d="M 684 794 
L 1344 794 
L 1344 0 
L 684 0 
L 684 794 
z
" transform="scale(0.015625)"/>
      <path id="DejaVuSans-29" d="M 513 4856 
L 1013 4856 
Q 1481 4119 1714 3412 
Q 1947 2706 1947 2009 
Q 1947 1309 1714 600 
Q 1481 -109 1013 -844 
L 513 -844 
Q 928 -128 1133 580 
Q 1338 1288 1338 2009 
Q 1338 2731 1133 3434 
Q 928 4138 513 4856 
z
" transform="scale(0.015625)"/>
     </defs>
     <use xlink:href="#DejaVuSans-31"/>
     <use xlink:href="#DejaVuSans-2d" transform="translate(63.623047 0)"/>
     <use xlink:href="#DejaVuSans-70" transform="translate(99.707031 0)"/>
     <use xlink:href="#DejaVuSans-6f" transform="translate(163.183594 0)"/>
     <use xlink:href="#DejaVuSans-6c" transform="translate(224.365234 0)"/>
     <use xlink:href="#DejaVuSans-65" transform="translate(252.148438 0)"/>
     <use xlink:href="#DejaVuSans-20" transform="translate(313.671875 0)"/>
     <use xlink:href="#DejaVuSans-43" transform="translate(345.458984 0)"/>
     <use xlink:href="#DejaVuSans-6f" transform="translate(415.283203 0)"/>
     <use xlink:href="#DejaVuSans-6d" transform="translate(476.464844 0)"/>
     <use xlink:href="#DejaVuSans-70" transform="translate(573.876953 0)"/>
     <use xlink:href="#DejaVuSans-6c" transform="translate(637.353516 0)"/>
     <use xlink:href="#DejaVuSans-65" transform="translate(665.136719 0)"/>
     <use xlink:href="#DejaVuSans-78" transform="translate(724.910156 0)"/>
     <use xlink:href="#DejaVuSans-20" transform="translate(784.089844 0)"/>
     <use xlink:href="#DejaVuSans-4c" transform="translate(815.876953 0)"/>
     <use xlink:href="#DejaVuSans-6f" transform="translate(869.839844 0)"/>
     <use xlink:href="#DejaVuSans-77" transform="translate(931.021484 0)"/>
     <use xlink:href="#DejaVuSans-70" transform="translate(1012.808594 0)"/>
     <use xlink:href="#DejaVuSans-61" transform="translate(1076.285156 0)"/>
     <use xlink:href="#DejaVuSans-73" transform="translate(1137.564453 0)"/>
     <use xlink:href="#DejaVuSans-73" transform="translate(1189.664062 0)"/>
     <use xlink:href="#DejaVuSans-20" transform="translate(1241.763672 0)"/>
     <use xlink:href="#DejaVuSans-52" transform="translate(1273.550781 0)"/>
     <use xlink:href="#DejaVuSans-65" transform="translate(1338.533203 0)"/>
     <use xlink:href="#DejaVuSans-73" transform="translate(1400.056641 0)"/>
     <use xlink:href="#DejaVuSans-70" transform="translate(1452.15625 0)"/>
     <use xlink:href="#DejaVuSans-6f" transform="translate(1515.632812 0)"/>
     <use xlink:href="#DejaVuSans-6e" transform="translate(1576.814453 0)"/>
     <use xlink:href="#DejaVuSans-73" transform="translate(1640.193359 0)"/>
     <use xlink:href="#DejaVuSans-65" transform="translate(1692.292969 0)"/>
     <use xlink:href="#DejaVuSans-20" transform="translate(1753.816406 0)"/>
     <use xlink:href="#DejaVuSans-28" transform="translate(1785.603516 0)"/>
     <use xlink:href="#DejaVuSans-52" transform="translate(1824.617188 0)"/>
     <use xlink:href="#DejaVuSans-3d" transform="translate(1894.099609 0)"/>
     <use xlink:href="#DejaVuSans-30" transform="translate(1977.888672 0)"/>
     <use xlink:href="#DejaVuSans-2e" transform="translate(2041.511719 0)"/>
     <use xlink:href="#DejaVuSans-32" transform="translate(2073.298828 0)"/>
     <use xlink:href="#DejaVuSans-34" transform="translate(2136.921875 0)"/>
     <use xlink:href="#DejaVuSans-33" transform="translate(2200.544922 0)"/>
     <use xlink:href="#DejaVuSans-31" transform="translate(2264.167969 0)"/>
     <use xlink:href="#DejaVuSans-29" transform="translate(2327.791016 0)"/>
    </g>
   </g>
   <g id="legend_1">
    <g id="patch_7">
     <path d="M 59.94 196.339375 
L 169.8775 196.339375 
Q 171.8775 196.339375 171.8775 194.339375 
L 171.8775 33.88 
Q 171.8775 31.88 169.8775 31.88 
L 59.94 31.88 
Q 57.94 31.88 57.94 33.88 
L 57.94 194.339375 
Q 57.94 196.339375 59.94 196.339375 
z
" style="fill: #ffffff; opacity: 0.8; stroke: #cccccc; stroke-linejoin: miter"/>
    </g>
    <g id="line2d_85">
     <path d="M 61.94 39.978438 
L 71.94 39.978438 
L 81.94 39.978438 
" style="fill: none; stroke: #440154; stroke-width: 1.5; stroke-linecap: square"/>
    </g>
    <g id="text_17">
     <!-- Cutoff: 0.00039 -->
     <g transform="translate(89.94 43.478438) scale(0.1 -0.1)">
      <defs>
       <path id="DejaVuSans-66" d="M 2375 4863 
L 2375 4384 
L 1825 4384 
Q 1516 4384 1395 4259 
Q 1275 4134 1275 3809 
L 1275 3500 
L 2222 3500 
L 2222 3053 
L 1275 3053 
L 1275 0 
L 697 0 
L 697 3053 
L 147 3053 
L 147 3500 
L 697 3500 
L 697 3744 
Q 697 4328 969 4595 
Q 1241 4863 1831 4863 
L 2375 4863 
z
" transform="scale(0.015625)"/>
       <path id="DejaVuSans-3a" d="M 750 794 
L 1409 794 
L 1409 0 
L 750 0 
L 750 794 
z
M 750 3309 
L 1409 3309 
L 1409 2516 
L 750 2516 
L 750 3309 
z
" transform="scale(0.015625)"/>
       <path id="DejaVuSans-39" d="M 703 97 
L 703 672 
Q 941 559 1184 500 
Q 1428 441 1663 441 
Q 2288 441 2617 861 
Q 2947 1281 2994 2138 
Q 2813 1869 2534 1725 
Q 2256 1581 1919 1581 
Q 1219 1581 811 2004 
Q 403 2428 403 3163 
Q 403 3881 828 4315 
Q 1253 4750 1959 4750 
Q 2769 4750 3195 4129 
Q 3622 3509 3622 2328 
Q 3622 1225 3098 567 
Q 2575 -91 1691 -91 
Q 1453 -91 1209 -44 
Q 966 3 703 97 
z
M 1959 2075 
Q 2384 2075 2632 2365 
Q 2881 2656 2881 3163 
Q 2881 3666 2632 3958 
Q 2384 4250 1959 4250 
Q 1534 4250 1286 3958 
Q 1038 3666 1038 3163 
Q 1038 2656 1286 2365 
Q 1534 2075 1959 2075 
z
" transform="scale(0.015625)"/>
      </defs>
      <use xlink:href="#DejaVuSans-43"/>
      <use xlink:href="#DejaVuSans-75" transform="translate(69.824219 0)"/>
      <use xlink:href="#DejaVuSans-74" transform="translate(133.203125 0)"/>
      <use xlink:href="#DejaVuSans-6f" transform="translate(172.412109 0)"/>
      <use xlink:href="#DejaVuSans-66" transform="translate(233.59375 0)"/>
      <use xlink:href="#DejaVuSans-66" transform="translate(268.798828 0)"/>
      <use xlink:href="#DejaVuSans-3a" transform="translate(300.378906 0)"/>
      <use xlink:href="#DejaVuSans-20" transform="translate(334.070312 0)"/>
      <use xlink:href="#DejaVuSans-30" transform="translate(365.857422 0)"/>
      <use xlink:href="#DejaVuSans-2e" transform="translate(429.480469 0)"/>
      <use xlink:href="#DejaVuSans-30" transform="translate(461.267578 0)"/>
      <use xlink:href="#DejaVuSans-30" transform="translate(524.890625 0)"/>
      <use xlink:href="#DejaVuSans-30" transform="translate(588.513672 0)"/>
      <use xlink:href="#DejaVuSans-33" transform="translate(652.136719 0)"/>
      <use xlink:href="#DejaVuSans-39" transform="translate(715.759766 0)"/>
     </g>
    </g>
    <g id="line2d_86">
     <path d="M 61.94 54.656563 
L 71.94 54.656563 
L 81.94 54.656563 
" style="fill: none; stroke: #481f70; stroke-width: 1.5; stroke-linecap: square"/>
    </g>
    <g id="text_18">
     <!-- Cutoff: 0.00078 -->
     <g transform="translate(89.94 58.156563) scale(0.1 -0.1)">
      <defs>
       <path id="DejaVuSans-37" d="M 525 4666 
L 3525 4666 
L 3525 4397 
L 1831 0 
L 1172 0 
L 2766 4134 
L 525 4134 
L 525 4666 
z
" transform="scale(0.015625)"/>
       <path id="DejaVuSans-38" d="M 2034 2216 
Q 1584 2216 1326 1975 
Q 1069 1734 1069 1313 
Q 1069 891 1326 650 
Q 1584 409 2034 409 
Q 2484 409 2743 651 
Q 3003 894 3003 1313 
Q 3003 1734 2745 1975 
Q 2488 2216 2034 2216 
z
M 1403 2484 
Q 997 2584 770 2862 
Q 544 3141 544 3541 
Q 544 4100 942 4425 
Q 1341 4750 2034 4750 
Q 2731 4750 3128 4425 
Q 3525 4100 3525 3541 
Q 3525 3141 3298 2862 
Q 3072 2584 2669 2484 
Q 3125 2378 3379 2068 
Q 3634 1759 3634 1313 
Q 3634 634 3220 271 
Q 2806 -91 2034 -91 
Q 1263 -91 848 271 
Q 434 634 434 1313 
Q 434 1759 690 2068 
Q 947 2378 1403 2484 
z
M 1172 3481 
Q 1172 3119 1398 2916 
Q 1625 2713 2034 2713 
Q 2441 2713 2670 2916 
Q 2900 3119 2900 3481 
Q 2900 3844 2670 4047 
Q 2441 4250 2034 4250 
Q 1625 4250 1398 4047 
Q 1172 3844 1172 3481 
z
" transform="scale(0.015625)"/>
      </defs>
      <use xlink:href="#DejaVuSans-43"/>
      <use xlink:href="#DejaVuSans-75" transform="translate(69.824219 0)"/>
      <use xlink:href="#DejaVuSans-74" transform="translate(133.203125 0)"/>
      <use xlink:href="#DejaVuSans-6f" transform="translate(172.412109 0)"/>
      <use xlink:href="#DejaVuSans-66" transform="translate(233.59375 0)"/>
      <use xlink:href="#DejaVuSans-66" transform="translate(268.798828 0)"/>
      <use xlink:href="#DejaVuSans-3a" transform="translate(300.378906 0)"/>
      <use xlink:href="#DejaVuSans-20" transform="translate(334.070312 0)"/>
      <use xlink:href="#DejaVuSans-30" transform="translate(365.857422 0)"/>
      <use xlink:href="#DejaVuSans-2e" transform="translate(429.480469 0)"/>
      <use xlink:href="#DejaVuSans-30" transform="translate(461.267578 0)"/>
      <use xlink:href="#DejaVuSans-30" transform="translate(524.890625 0)"/>
      <use xlink:href="#DejaVuSans-30" transform="translate(588.513672 0)"/>
      <use xlink:href="#DejaVuSans-37" transform="translate(652.136719 0)"/>
      <use xlink:href="#DejaVuSans-38" transform="translate(715.759766 0)"/>
     </g>
    </g>
    <g id="line2d_87">
     <path d="M 61.94 69.334688 
L 71.94 69.334688 
L 81.94 69.334688 
" style="fill: none; stroke: #443a83; stroke-width: 1.5; stroke-linecap: square"/>
    </g>
    <g id="text_19">
     <!-- Cutoff: 0.00156 -->
     <g transform="translate(89.94 72.834688) scale(0.1 -0.1)">
      <defs>
       <path id="DejaVuSans-36" d="M 2113 2584 
Q 1688 2584 1439 2293 
Q 1191 2003 1191 1497 
Q 1191 994 1439 701 
Q 1688 409 2113 409 
Q 2538 409 2786 701 
Q 3034 994 3034 1497 
Q 3034 2003 2786 2293 
Q 2538 2584 2113 2584 
z
M 3366 4563 
L 3366 3988 
Q 3128 4100 2886 4159 
Q 2644 4219 2406 4219 
Q 1781 4219 1451 3797 
Q 1122 3375 1075 2522 
Q 1259 2794 1537 2939 
Q 1816 3084 2150 3084 
Q 2853 3084 3261 2657 
Q 3669 2231 3669 1497 
Q 3669 778 3244 343 
Q 2819 -91 2113 -91 
Q 1303 -91 875 529 
Q 447 1150 447 2328 
Q 447 3434 972 4092 
Q 1497 4750 2381 4750 
Q 2619 4750 2861 4703 
Q 3103 4656 3366 4563 
z
" transform="scale(0.015625)"/>
      </defs>
      <use xlink:href="#DejaVuSans-43"/>
      <use xlink:href="#DejaVuSans-75" transform="translate(69.824219 0)"/>
      <use xlink:href="#DejaVuSans-74" transform="translate(133.203125 0)"/>
      <use xlink:href="#DejaVuSans-6f" transform="translate(172.412109 0)"/>
      <use xlink:href="#DejaVuSans-66" transform="translate(233.59375 0)"/>
      <use xlink:href="#DejaVuSans-66" transform="translate(268.798828 0)"/>
      <use xlink:href="#DejaVuSans-3a" transform="translate(300.378906 0)"/>
      <use xlink:href="#DejaVuSans-20" transform="translate(334.070312 0)"/>
      <use xlink:href="#DejaVuSans-30" transform="translate(365.857422 0)"/>
      <use xlink:href="#DejaVuSans-2e" transform="translate(429.480469 0)"/>
      <use xlink:href="#DejaVuSans-30" transform="translate(461.267578 0)"/>
      <use xlink:href="#DejaVuSans-30" transform="translate(524.890625 0)"/>
      <use xlink:href="#DejaVuSans-31" transform="translate(588.513672 0)"/>
      <use xlink:href="#DejaVuSans-35" transform="translate(652.136719 0)"/>
      <use xlink:href="#DejaVuSans-36" transform="translate(715.759766 0)"/>
     </g>
    </g>
    <g id="line2d_88">
     <path d="M 61.94 84.012813 
L 71.94 84.012813 
L 81.94 84.012813 
" style="fill: none; stroke: #3a538b; stroke-width: 1.5; stroke-linecap: square"/>
    </g>
    <g id="text_20">
     <!-- Cutoff: 0.00312 -->
     <g transform="translate(89.94 87.512813) scale(0.1 -0.1)">
      <use xlink:href="#DejaVuSans-43"/>
      <use xlink:href="#DejaVuSans-75" transform="translate(69.824219 0)"/>
      <use xlink:href="#DejaVuSans-74" transform="translate(133.203125 0)"/>
      <use xlink:href="#DejaVuSans-6f" transform="translate(172.412109 0)"/>
      <use xlink:href="#DejaVuSans-66" transform="translate(233.59375 0)"/>
      <use xlink:href="#DejaVuSans-66" transform="translate(268.798828 0)"/>
      <use xlink:href="#DejaVuSans-3a" transform="translate(300.378906 0)"/>
      <use xlink:href="#DejaVuSans-20" transform="translate(334.070312 0)"/>
      <use xlink:href="#DejaVuSans-30" transform="translate(365.857422 0)"/>
      <use xlink:href="#DejaVuSans-2e" transform="translate(429.480469 0)"/>
      <use xlink:href="#DejaVuSans-30" transform="translate(461.267578 0)"/>
      <use xlink:href="#DejaVuSans-30" transform="translate(524.890625 0)"/>
      <use xlink:href="#DejaVuSans-33" transform="translate(588.513672 0)"/>
      <use xlink:href="#DejaVuSans-31" transform="translate(652.136719 0)"/>
      <use xlink:href="#DejaVuSans-32" transform="translate(715.759766 0)"/>
     </g>
    </g>
    <g id="line2d_89">
     <path d="M 61.94 98.690938 
L 71.94 98.690938 
L 81.94 98.690938 
" style="fill: none; stroke: #306a8e; stroke-width: 1.5; stroke-linecap: square"/>
    </g>
    <g id="text_21">
     <!-- Cutoff: 0.00625 -->
     <g transform="translate(89.94 102.190938) scale(0.1 -0.1)">
      <use xlink:href="#DejaVuSans-43"/>
      <use xlink:href="#DejaVuSans-75" transform="translate(69.824219 0)"/>
      <use xlink:href="#DejaVuSans-74" transform="translate(133.203125 0)"/>
      <use xlink:href="#DejaVuSans-6f" transform="translate(172.412109 0)"/>
      <use xlink:href="#DejaVuSans-66" transform="translate(233.59375 0)"/>
      <use xlink:href="#DejaVuSans-66" transform="translate(268.798828 0)"/>
      <use xlink:href="#DejaVuSans-3a" transform="translate(300.378906 0)"/>
      <use xlink:href="#DejaVuSans-20" transform="translate(334.070312 0)"/>
      <use xlink:href="#DejaVuSans-30" transform="translate(365.857422 0)"/>
      <use xlink:href="#DejaVuSans-2e" transform="translate(429.480469 0)"/>
      <use xlink:href="#DejaVuSans-30" transform="translate(461.267578 0)"/>
      <use xlink:href="#DejaVuSans-30" transform="translate(524.890625 0)"/>
      <use xlink:href="#DejaVuSans-36" transform="translate(588.513672 0)"/>
      <use xlink:href="#DejaVuSans-32" transform="translate(652.136719 0)"/>
      <use xlink:href="#DejaVuSans-35" transform="translate(715.759766 0)"/>
     </g>
    </g>
    <g id="line2d_90">
     <path d="M 61.94 113.369063 
L 71.94 113.369063 
L 81.94 113.369063 
" style="fill: none; stroke: #277e8e; stroke-width: 1.5; stroke-linecap: square"/>
    </g>
    <g id="text_22">
     <!-- Cutoff: 0.01250 -->
     <g transform="translate(89.94 116.869063) scale(0.1 -0.1)">
      <use xlink:href="#DejaVuSans-43"/>
      <use xlink:href="#DejaVuSans-75" transform="translate(69.824219 0)"/>
      <use xlink:href="#DejaVuSans-74" transform="translate(133.203125 0)"/>
      <use xlink:href="#DejaVuSans-6f" transform="translate(172.412109 0)"/>
      <use xlink:href="#DejaVuSans-66" transform="translate(233.59375 0)"/>
      <use xlink:href="#DejaVuSans-66" transform="translate(268.798828 0)"/>
      <use xlink:href="#DejaVuSans-3a" transform="translate(300.378906 0)"/>
      <use xlink:href="#DejaVuSans-20" transform="translate(334.070312 0)"/>
      <use xlink:href="#DejaVuSans-30" transform="translate(365.857422 0)"/>
      <use xlink:href="#DejaVuSans-2e" transform="translate(429.480469 0)"/>
      <use xlink:href="#DejaVuSans-30" transform="translate(461.267578 0)"/>
      <use xlink:href="#DejaVuSans-31" transform="translate(524.890625 0)"/>
      <use xlink:href="#DejaVuSans-32" transform="translate(588.513672 0)"/>
      <use xlink:href="#DejaVuSans-35" transform="translate(652.136719 0)"/>
      <use xlink:href="#DejaVuSans-30" transform="translate(715.759766 0)"/>
     </g>
    </g>
    <g id="line2d_91">
     <path d="M 61.94 128.047188 
L 71.94 128.047188 
L 81.94 128.047188 
" style="fill: none; stroke: #20928c; stroke-width: 1.5; stroke-linecap: square"/>
    </g>
    <g id="text_23">
     <!-- Cutoff: 0.02500 -->
     <g transform="translate(89.94 131.547188) scale(0.1 -0.1)">
      <use xlink:href="#DejaVuSans-43"/>
      <use xlink:href="#DejaVuSans-75" transform="translate(69.824219 0)"/>
      <use xlink:href="#DejaVuSans-74" transform="translate(133.203125 0)"/>
      <use xlink:href="#DejaVuSans-6f" transform="translate(172.412109 0)"/>
      <use xlink:href="#DejaVuSans-66" transform="translate(233.59375 0)"/>
      <use xlink:href="#DejaVuSans-66" transform="translate(268.798828 0)"/>
      <use xlink:href="#DejaVuSans-3a" transform="translate(300.378906 0)"/>
      <use xlink:href="#DejaVuSans-20" transform="translate(334.070312 0)"/>
      <use xlink:href="#DejaVuSans-30" transform="translate(365.857422 0)"/>
      <use xlink:href="#DejaVuSans-2e" transform="translate(429.480469 0)"/>
      <use xlink:href="#DejaVuSans-30" transform="translate(461.267578 0)"/>
      <use xlink:href="#DejaVuSans-32" transform="translate(524.890625 0)"/>
      <use xlink:href="#DejaVuSans-35" transform="translate(588.513672 0)"/>
      <use xlink:href="#DejaVuSans-30" transform="translate(652.136719 0)"/>
      <use xlink:href="#DejaVuSans-30" transform="translate(715.759766 0)"/>
     </g>
    </g>
    <g id="line2d_92">
     <path d="M 61.94 142.725313 
L 71.94 142.725313 
L 81.94 142.725313 
" style="fill: none; stroke: #22a785; stroke-width: 1.5; stroke-linecap: square"/>
    </g>
    <g id="text_24">
     <!-- Cutoff: 0.05000 -->
     <g transform="translate(89.94 146.225313) scale(0.1 -0.1)">
      <use xlink:href="#DejaVuSans-43"/>
      <use xlink:href="#DejaVuSans-75" transform="translate(69.824219 0)"/>
      <use xlink:href="#DejaVuSans-74" transform="translate(133.203125 0)"/>
      <use xlink:href="#DejaVuSans-6f" transform="translate(172.412109 0)"/>
      <use xlink:href="#DejaVuSans-66" transform="translate(233.59375 0)"/>
      <use xlink:href="#DejaVuSans-66" transform="translate(268.798828 0)"/>
      <use xlink:href="#DejaVuSans-3a" transform="translate(300.378906 0)"/>
      <use xlink:href="#DejaVuSans-20" transform="translate(334.070312 0)"/>
      <use xlink:href="#DejaVuSans-30" transform="translate(365.857422 0)"/>
      <use xlink:href="#DejaVuSans-2e" transform="translate(429.480469 0)"/>
      <use xlink:href="#DejaVuSans-30" transform="translate(461.267578 0)"/>
      <use xlink:href="#DejaVuSans-35" transform="translate(524.890625 0)"/>
      <use xlink:href="#DejaVuSans-30" transform="translate(588.513672 0)"/>
      <use xlink:href="#DejaVuSans-30" transform="translate(652.136719 0)"/>
      <use xlink:href="#DejaVuSans-30" transform="translate(715.759766 0)"/>
     </g>
    </g>
    <g id="line2d_93">
     <path d="M 61.94 157.403438 
L 71.94 157.403438 
L 81.94 157.403438 
" style="fill: none; stroke: #3bbb75; stroke-width: 1.5; stroke-linecap: square"/>
    </g>
    <g id="text_25">
     <!-- Cutoff: 0.10000 -->
     <g transform="translate(89.94 160.903438) scale(0.1 -0.1)">
      <use xlink:href="#DejaVuSans-43"/>
      <use xlink:href="#DejaVuSans-75" transform="translate(69.824219 0)"/>
      <use xlink:href="#DejaVuSans-74" transform="translate(133.203125 0)"/>
      <use xlink:href="#DejaVuSans-6f" transform="translate(172.412109 0)"/>
      <use xlink:href="#DejaVuSans-66" transform="translate(233.59375 0)"/>
      <use xlink:href="#DejaVuSans-66" transform="translate(268.798828 0)"/>
      <use xlink:href="#DejaVuSans-3a" transform="translate(300.378906 0)"/>
      <use xlink:href="#DejaVuSans-20" transform="translate(334.070312 0)"/>
      <use xlink:href="#DejaVuSans-30" transform="translate(365.857422 0)"/>
      <use xlink:href="#DejaVuSans-2e" transform="translate(429.480469 0)"/>
      <use xlink:href="#DejaVuSans-31" transform="translate(461.267578 0)"/>
      <use xlink:href="#DejaVuSans-30" transform="translate(524.890625 0)"/>
      <use xlink:href="#DejaVuSans-30" transform="translate(588.513672 0)"/>
      <use xlink:href="#DejaVuSans-30" transform="translate(652.136719 0)"/>
      <use xlink:href="#DejaVuSans-30" transform="translate(715.759766 0)"/>
     </g>
    </g>
    <g id="line2d_94">
     <path d="M 61.94 172.081563 
L 71.94 172.081563 
L 81.94 172.081563 
" style="fill: none; stroke: #65cb5e; stroke-width: 1.5; stroke-linecap: square"/>
    </g>
    <g id="text_26">
     <!-- Cutoff: 0.20000 -->
     <g transform="translate(89.94 175.581563) scale(0.1 -0.1)">
      <use xlink:href="#DejaVuSans-43"/>
      <use xlink:href="#DejaVuSans-75" transform="translate(69.824219 0)"/>
      <use xlink:href="#DejaVuSans-74" transform="translate(133.203125 0)"/>
      <use xlink:href="#DejaVuSans-6f" transform="translate(172.412109 0)"/>
      <use xlink:href="#DejaVuSans-66" transform="translate(233.59375 0)"/>
      <use xlink:href="#DejaVuSans-66" transform="translate(268.798828 0)"/>
      <use xlink:href="#DejaVuSans-3a" transform="translate(300.378906 0)"/>
      <use xlink:href="#DejaVuSans-20" transform="translate(334.070312 0)"/>
      <use xlink:href="#DejaVuSans-30" transform="translate(365.857422 0)"/>
      <use xlink:href="#DejaVuSans-2e" transform="translate(429.480469 0)"/>
      <use xlink:href="#DejaVuSans-32" transform="translate(461.267578 0)"/>
      <use xlink:href="#DejaVuSans-30" transform="translate(524.890625 0)"/>
      <use xlink:href="#DejaVuSans-30" transform="translate(588.513672 0)"/>
      <use xlink:href="#DejaVuSans-30" transform="translate(652.136719 0)"/>
      <use xlink:href="#DejaVuSans-30" transform="translate(715.759766 0)"/>
     </g>
    </g>
    <g id="line2d_95">
     <path d="M 61.94 186.759688 
L 71.94 186.759688 
L 81.94 186.759688 
" style="fill: none; stroke: #9bd93c; stroke-width: 1.5; stroke-linecap: square"/>
    </g>
    <g id="text_27">
     <!-- Cutoff: 0.40000 -->
     <g transform="translate(89.94 190.259688) scale(0.1 -0.1)">
      <use xlink:href="#DejaVuSans-43"/>
      <use xlink:href="#DejaVuSans-75" transform="translate(69.824219 0)"/>
      <use xlink:href="#DejaVuSans-74" transform="translate(133.203125 0)"/>
      <use xlink:href="#DejaVuSans-6f" transform="translate(172.412109 0)"/>
      <use xlink:href="#DejaVuSans-66" transform="translate(233.59375 0)"/>
      <use xlink:href="#DejaVuSans-66" transform="translate(268.798828 0)"/>
      <use xlink:href="#DejaVuSans-3a" transform="translate(300.378906 0)"/>
      <use xlink:href="#DejaVuSans-20" transform="translate(334.070312 0)"/>
      <use xlink:href="#DejaVuSans-30" transform="translate(365.857422 0)"/>
      <use xlink:href="#DejaVuSans-2e" transform="translate(429.480469 0)"/>
      <use xlink:href="#DejaVuSans-34" transform="translate(461.267578 0)"/>
      <use xlink:href="#DejaVuSans-30" transform="translate(524.890625 0)"/>
      <use xlink:href="#DejaVuSans-30" transform="translate(588.513672 0)"/>
      <use xlink:href="#DejaVuSans-30" transform="translate(652.136719 0)"/>
      <use xlink:href="#DejaVuSans-30" transform="translate(715.759766 0)"/>
     </g>
    </g>
   </g>
  </g>
 </g>
 <defs>
  <clipPath id="pded0bf3288">
   <rect x="52.94" y="26.88" width="512.26" height="287.848"/>
  </clipPath>
 </defs>
</svg>
