<?xml version="1.0" encoding="UTF-8" standalone="no"?>
<!DOCTYPE svg PUBLIC "-//W3C//DTD SVG 1.0//EN" "http://www.w3.org/TR/2001/PR-SVG-20010719/DTD/svg10.dtd">
<svg width="28cm" height="18cm" viewBox="32 -9 554 341" xmlns="http://www.w3.org/2000/svg" xmlns:xlink="http://www.w3.org/1999/xlink">
  <defs/>
  <g id="Background">
    <rect style="fill: none; stroke-opacity: 1; stroke-width: 2; stroke-dasharray: 4; stroke: #888888" x="100" y="192" width="148" height="116" rx="0" ry="0"/>
    <polyline style="fill: none; stroke-opacity: 1; stroke-width: 2; stroke: #000000" points="160,250 187,250 190,240 196,260 202,240 208,260 214,240 220,260 223,250 250,250 "/>
    <g>
      <line style="fill: none; stroke-opacity: 1; stroke-width: 2; stroke: #000000" x1="90" y1="250" x2="114.001" y2="250"/>
      <line style="fill: none; stroke-opacity: 1; stroke-width: 2; stroke: #000000" x1="114.001" y1="240" x2="114.001" y2="260"/>
      <line style="fill: none; stroke-opacity: 1; stroke-width: 2; stroke: #000000" x1="126.002" y1="240" x2="126.002" y2="260"/>
      <line style="fill: none; stroke-opacity: 1; stroke-width: 2; stroke: #000000" x1="126.002" y1="250" x2="150.003" y2="250"/>
    </g>
    <line style="fill: none; stroke-opacity: 1; stroke-width: 2; stroke: #000000" x1="150.003" y1="250" x2="160" y2="250"/>
    <polyline style="fill: none; stroke-opacity: 1; stroke-width: 2; stroke: #000000" points="360,140 360,164 350,166.667 370,172 350,177.333 370,182.667 350,188 370,193.333 360,196 360,220 "/>
    <g>
      <line style="fill: none; stroke-opacity: 1; stroke-width: 2; stroke: #000000" x1="270" y1="140" x2="294" y2="140"/>
      <line style="fill: none; stroke-opacity: 1; stroke-width: 2; stroke: #000000" x1="294" y1="130" x2="294" y2="150"/>
      <line style="fill: none; stroke-opacity: 1; stroke-width: 2; stroke: #000000" x1="306" y1="130" x2="306" y2="150"/>
      <line style="fill: none; stroke-opacity: 1; stroke-width: 2; stroke: #000000" x1="306" y1="140" x2="330" y2="140"/>
    </g>
    <g>
      <line style="fill: none; stroke-opacity: 1; stroke-width: 2; stroke: #000000" x1="390" y1="140" x2="414" y2="140"/>
      <line style="fill: none; stroke-opacity: 1; stroke-width: 2; stroke: #000000" x1="414" y1="130" x2="414" y2="150"/>
      <line style="fill: none; stroke-opacity: 1; stroke-width: 2; stroke: #000000" x1="426" y1="130" x2="426" y2="150"/>
      <line style="fill: none; stroke-opacity: 1; stroke-width: 2; stroke: #000000" x1="426" y1="140" x2="450" y2="140"/>
    </g>
    <line style="fill: none; stroke-opacity: 1; stroke-width: 2; stroke: #000000" x1="330" y1="140" x2="390" y2="140"/>
    <line style="fill: none; stroke-opacity: 1; stroke-width: 2; stroke: #000000" x1="270" y1="244.414" x2="270" y2="140"/>
    <line style="fill: none; stroke-opacity: 1; stroke-width: 2; stroke: #000000" x1="360" y1="140" x2="360" y2="140"/>
    <polyline style="fill: none; stroke-opacity: 1; stroke-width: 2; stroke: #000000" points="300,60 336,60 340,50 348,70 356,50 364,70 372,50 380,70 384,60 420,60 "/>
    <polyline style="fill: none; stroke-opacity: 1; stroke-width: 2; stroke: #000000" points="270,140 270,60 300,60 300,60 "/>
    <polyline style="fill: none; stroke-opacity: 1; stroke-width: 2; stroke: #000000" points="420,60 450,60 450,140 450,140 "/>
    <line style="fill: none; stroke-opacity: 1; stroke-width: 2; stroke: #000000" x1="450" y1="140" x2="450" y2="263.994"/>
    <g>
      <line style="fill: none; stroke-opacity: 1; stroke-width: 2; stroke: #000000" x1="360" y1="210" x2="360" y2="220"/>
      <line style="fill: none; stroke-opacity: 1; stroke-width: 2; stroke: #000000" x1="350" y1="220" x2="370" y2="220"/>
      <line style="fill: none; stroke-opacity: 1; stroke-width: 2; stroke: #000000" x1="353.35" y1="225" x2="366.65" y2="225"/>
      <line style="fill: none; stroke-opacity: 1; stroke-width: 2; stroke: #000000" x1="356.7" y1="230" x2="363.3" y2="230"/>
    </g>
    <line style="fill: none; stroke-opacity: 1; stroke-width: 2; stroke: #000000" x1="360" y1="220" x2="360" y2="210"/>
    <text font-size="18.0622" style="fill: #000000; fill-opacity: 1; stroke: none;text-anchor:start;font-family:monospace;font-style:normal;font-weight:normal" x="320" y="190">
      <tspan x="320" y="190">G2</tspan>
    </text>
    <text font-size="18.0622" style="fill: #000000; fill-opacity: 1; stroke: none;text-anchor:start;font-family:monospace;font-style:normal;font-weight:normal" x="290" y="120">
      <tspan x="290" y="120">C1</tspan>
    </text>
    <text font-size="18.0622" style="fill: #000000; fill-opacity: 1; stroke: none;text-anchor:start;font-family:monospace;font-style:normal;font-weight:normal" x="410" y="120">
      <tspan x="410" y="120">C2</tspan>
    </text>
    <text font-size="18.0622" style="fill: #000000; fill-opacity: 1; stroke: none;text-anchor:start;font-family:monospace;font-style:normal;font-weight:normal" x="350" y="40">
      <tspan x="350" y="40">G1</tspan>
    </text>
    <g>
      <line style="fill: none; stroke-opacity: 1; stroke-width: 2; stroke: #000000" x1="320" y1="255" x2="335" y2="255"/>
      <line style="fill: none; stroke-opacity: 1; stroke-width: 2; stroke: #000000" x1="320" y1="285" x2="335" y2="285"/>
      <polygon style="fill: #ffffff; fill-opacity: 1; stroke-opacity: 1; stroke-width: 2; stroke: #000000" fill-rule="evenodd" points="335,240 335,300 387.5,270 "/>
      <line style="fill: none; stroke-opacity: 1; stroke-width: 2; stroke: #000000" x1="338" y1="255" x2="350" y2="255"/>
      <line style="fill: none; stroke-opacity: 1; stroke-width: 2; stroke: #000000" x1="344" y1="249" x2="344" y2="261"/>
      <line style="fill: none; stroke-opacity: 1; stroke-width: 2; stroke: #000000" x1="338" y1="285" x2="350" y2="285"/>
      <line style="fill: none; stroke-opacity: 1; stroke-width: 2; stroke: #000000" x1="387.5" y1="270" x2="402.5" y2="270"/>
    </g>
    <polyline style="fill: none; stroke-opacity: 1; stroke-width: 2; stroke: #000000" points="250,250 300,250 300,255 320,255 "/>
    <ellipse style="fill: #000000; fill-opacity: 1; stroke-opacity: 1; stroke-width: 2; stroke: #000000" cx="270" cy="250" rx="5" ry="5"/>
    <ellipse style="fill: #000000; fill-opacity: 1; stroke-opacity: 1; stroke-width: 2; stroke: #000000" cx="270" cy="140" rx="5" ry="5"/>
    <ellipse style="fill: #000000; fill-opacity: 1; stroke-opacity: 1; stroke-width: 2; stroke: #000000" cx="360" cy="140" rx="5" ry="5"/>
    <ellipse style="fill: #000000; fill-opacity: 1; stroke-opacity: 1; stroke-width: 2; stroke: #000000" cx="450" cy="140" rx="5" ry="5"/>
    <g>
      <line style="fill: none; stroke-opacity: 1; stroke-width: 2; stroke: #000000" x1="402.5" y1="270" x2="500.264" y2="270"/>
      <polygon style="fill: #000000; fill-opacity: 1; stroke-opacity: 1; stroke-width: 2; stroke: #000000" fill-rule="evenodd" points="507.764,270 497.764,275 500.264,270 497.764,265 "/>
    </g>
    <g>
      <line style="fill: none; stroke-opacity: 1; stroke-width: 2; stroke: #000000" x1="300" y1="310" x2="300" y2="320"/>
      <line style="fill: none; stroke-opacity: 1; stroke-width: 2; stroke: #000000" x1="290" y1="320" x2="310" y2="320"/>
      <line style="fill: none; stroke-opacity: 1; stroke-width: 2; stroke: #000000" x1="293.35" y1="325" x2="306.65" y2="325"/>
      <line style="fill: none; stroke-opacity: 1; stroke-width: 2; stroke: #000000" x1="296.7" y1="330" x2="303.3" y2="330"/>
    </g>
    <polyline style="fill: none; stroke-opacity: 1; stroke-width: 2; stroke: #000000" points="320,285 300,285 300,310 "/>
    <ellipse style="fill: #000000; fill-opacity: 1; stroke-opacity: 1; stroke-width: 2; stroke: #000000" cx="450" cy="270" rx="5" ry="5"/>
    <text font-size="18.0622" style="fill: #000000; fill-opacity: 1; stroke: none;text-anchor:start;font-family:monospace;font-style:normal;font-weight:normal" x="32" y="256">
      <tspan x="32" y="256">Input</tspan>
    </text>
    <text font-size="18.0622" style="fill: #000000; fill-opacity: 1; stroke: none;text-anchor:start;font-family:monospace;font-style:normal;font-weight:normal" x="110" y="230">
      <tspan x="110" y="230">C</tspan>
    </text>
    <text font-size="18.0622" style="fill: #000000; fill-opacity: 1; stroke: none;text-anchor:start;font-family:monospace;font-style:normal;font-weight:normal" x="200" y="230">
      <tspan x="200" y="230">G</tspan>
    </text>
    <text font-size="18.0622" style="fill: #000000; fill-opacity: 1; stroke: none;text-anchor:start;font-family:monospace;font-style:normal;font-weight:normal" x="520" y="276">
      <tspan x="520" y="276">Output</tspan>
    </text>
    <text font-size="18.0622" style="fill: #888888; fill-opacity: 1; stroke: none;text-anchor:start;font-family:monospace;font-style:normal;font-weight:normal" x="104" y="180">
      <tspan x="104" y="180">y_a</tspan>
    </text>
    <rect style="fill: none; stroke-opacity: 1; stroke-width: 2; stroke-dasharray: 4; stroke: #888888" x="260" y="20" width="200" height="216" rx="0" ry="0"/>
    <text font-size="18.0622" style="fill: #888888; fill-opacity: 1; stroke: none;text-anchor:start;font-family:monospace;font-style:normal;font-weight:normal" x="264" y="8">
      <tspan x="264" y="8">y_b</tspan>
    </text>
  </g>
</svg>
