<?xml version="1.0" encoding="utf-8" standalone="no"?>
<!DOCTYPE svg PUBLIC "-//W3C//DTD SVG 1.1//EN"
  "http://www.w3.org/Graphics/SVG/1.1/DTD/svg11.dtd">
<!-- Created with matplotlib (https://matplotlib.org/) -->
<svg height="345.6pt" version="1.1" viewBox="0 0 460.8 345.6" width="460.8pt" xmlns="http://www.w3.org/2000/svg" xmlns:xlink="http://www.w3.org/1999/xlink">
 <metadata>
  <rdf:RDF xmlns:cc="http://creativecommons.org/ns#" xmlns:dc="http://purl.org/dc/elements/1.1/" xmlns:rdf="http://www.w3.org/1999/02/22-rdf-syntax-ns#">
   <cc:Work>
    <dc:type rdf:resource="http://purl.org/dc/dcmitype/StillImage"/>
    <dc:date>2021-01-06T15:39:01.496872</dc:date>
    <dc:format>image/svg+xml</dc:format>
    <dc:creator>
     <cc:Agent>
      <dc:title>Matplotlib v3.3.3, https://matplotlib.org/</dc:title>
     </cc:Agent>
    </dc:creator>
   </cc:Work>
  </rdf:RDF>
 </metadata>
 <defs>
  <style type="text/css">*{stroke-linecap:butt;stroke-linejoin:round;}</style>
 </defs>
 <g id="figure_1">
  <g id="patch_1">
   <path d="M 0 345.6 
L 460.8 345.6 
L 460.8 0 
L 0 0 
z
" style="fill:#ffffff;"/>
  </g>
  <g id="axes_1">
   <g id="patch_2">
    <path d="M 57.6 307.584 
L 414.72 307.584 
L 414.72 41.472 
L 57.6 41.472 
z
" style="fill:#ffffff;"/>
   </g>
   <g id="matplotlib.axis_1">
    <g id="xtick_1">
     <g id="line2d_1">
      <path clip-path="url(#p408cdbb55d)" d="M 73.832727 307.584 
L 73.832727 41.472 
" style="fill:none;stroke:#b0b0b0;stroke-linecap:square;stroke-width:0.8;"/>
     </g>
     <g id="line2d_2">
      <defs>
       <path d="M 0 0 
L 0 3.5 
" id="mafcbcd6dac" style="stroke:#000000;stroke-width:0.8;"/>
      </defs>
      <g>
       <use style="stroke:#000000;stroke-width:0.8;" x="73.832727" xlink:href="#mafcbcd6dac" y="307.584"/>
      </g>
     </g>
     <g id="text_1">
      <!-- 0 -->
      <g transform="translate(70.651477 322.182437)scale(0.1 -0.1)">
       <defs>
        <path d="M 31.78125 66.40625 
Q 24.171875 66.40625 20.328125 58.90625 
Q 16.5 51.421875 16.5 36.375 
Q 16.5 21.390625 20.328125 13.890625 
Q 24.171875 6.390625 31.78125 6.390625 
Q 39.453125 6.390625 43.28125 13.890625 
Q 47.125 21.390625 47.125 36.375 
Q 47.125 51.421875 43.28125 58.90625 
Q 39.453125 66.40625 31.78125 66.40625 
z
M 31.78125 74.21875 
Q 44.046875 74.21875 50.515625 64.515625 
Q 56.984375 54.828125 56.984375 36.375 
Q 56.984375 17.96875 50.515625 8.265625 
Q 44.046875 -1.421875 31.78125 -1.421875 
Q 19.53125 -1.421875 13.0625 8.265625 
Q 6.59375 17.96875 6.59375 36.375 
Q 6.59375 54.828125 13.0625 64.515625 
Q 19.53125 74.21875 31.78125 74.21875 
z
" id="DejaVuSans-48"/>
       </defs>
       <use xlink:href="#DejaVuSans-48"/>
      </g>
     </g>
    </g>
    <g id="xtick_2">
     <g id="line2d_3">
      <path clip-path="url(#p408cdbb55d)" d="M 141.502133 307.584 
L 141.502133 41.472 
" style="fill:none;stroke:#b0b0b0;stroke-linecap:square;stroke-width:0.8;"/>
     </g>
     <g id="line2d_4">
      <g>
       <use style="stroke:#000000;stroke-width:0.8;" x="141.502133" xlink:href="#mafcbcd6dac" y="307.584"/>
      </g>
     </g>
     <g id="text_2">
      <!-- 20000 -->
      <g transform="translate(125.595883 322.182437)scale(0.1 -0.1)">
       <defs>
        <path d="M 19.1875 8.296875 
L 53.609375 8.296875 
L 53.609375 0 
L 7.328125 0 
L 7.328125 8.296875 
Q 12.9375 14.109375 22.625 23.890625 
Q 32.328125 33.6875 34.8125 36.53125 
Q 39.546875 41.84375 41.421875 45.53125 
Q 43.3125 49.21875 43.3125 52.78125 
Q 43.3125 58.59375 39.234375 62.25 
Q 35.15625 65.921875 28.609375 65.921875 
Q 23.96875 65.921875 18.8125 64.3125 
Q 13.671875 62.703125 7.8125 59.421875 
L 7.8125 69.390625 
Q 13.765625 71.78125 18.9375 73 
Q 24.125 74.21875 28.421875 74.21875 
Q 39.75 74.21875 46.484375 68.546875 
Q 53.21875 62.890625 53.21875 53.421875 
Q 53.21875 48.921875 51.53125 44.890625 
Q 49.859375 40.875 45.40625 35.40625 
Q 44.1875 33.984375 37.640625 27.21875 
Q 31.109375 20.453125 19.1875 8.296875 
z
" id="DejaVuSans-50"/>
       </defs>
       <use xlink:href="#DejaVuSans-50"/>
       <use x="63.623047" xlink:href="#DejaVuSans-48"/>
       <use x="127.246094" xlink:href="#DejaVuSans-48"/>
       <use x="190.869141" xlink:href="#DejaVuSans-48"/>
       <use x="254.492188" xlink:href="#DejaVuSans-48"/>
      </g>
     </g>
    </g>
    <g id="xtick_3">
     <g id="line2d_5">
      <path clip-path="url(#p408cdbb55d)" d="M 209.171538 307.584 
L 209.171538 41.472 
" style="fill:none;stroke:#b0b0b0;stroke-linecap:square;stroke-width:0.8;"/>
     </g>
     <g id="line2d_6">
      <g>
       <use style="stroke:#000000;stroke-width:0.8;" x="209.171538" xlink:href="#mafcbcd6dac" y="307.584"/>
      </g>
     </g>
     <g id="text_3">
      <!-- 40000 -->
      <g transform="translate(193.265288 322.182437)scale(0.1 -0.1)">
       <defs>
        <path d="M 37.796875 64.3125 
L 12.890625 25.390625 
L 37.796875 25.390625 
z
M 35.203125 72.90625 
L 47.609375 72.90625 
L 47.609375 25.390625 
L 58.015625 25.390625 
L 58.015625 17.1875 
L 47.609375 17.1875 
L 47.609375 0 
L 37.796875 0 
L 37.796875 17.1875 
L 4.890625 17.1875 
L 4.890625 26.703125 
z
" id="DejaVuSans-52"/>
       </defs>
       <use xlink:href="#DejaVuSans-52"/>
       <use x="63.623047" xlink:href="#DejaVuSans-48"/>
       <use x="127.246094" xlink:href="#DejaVuSans-48"/>
       <use x="190.869141" xlink:href="#DejaVuSans-48"/>
       <use x="254.492188" xlink:href="#DejaVuSans-48"/>
      </g>
     </g>
    </g>
    <g id="xtick_4">
     <g id="line2d_7">
      <path clip-path="url(#p408cdbb55d)" d="M 276.840943 307.584 
L 276.840943 41.472 
" style="fill:none;stroke:#b0b0b0;stroke-linecap:square;stroke-width:0.8;"/>
     </g>
     <g id="line2d_8">
      <g>
       <use style="stroke:#000000;stroke-width:0.8;" x="276.840943" xlink:href="#mafcbcd6dac" y="307.584"/>
      </g>
     </g>
     <g id="text_4">
      <!-- 60000 -->
      <g transform="translate(260.934693 322.182437)scale(0.1 -0.1)">
       <defs>
        <path d="M 33.015625 40.375 
Q 26.375 40.375 22.484375 35.828125 
Q 18.609375 31.296875 18.609375 23.390625 
Q 18.609375 15.53125 22.484375 10.953125 
Q 26.375 6.390625 33.015625 6.390625 
Q 39.65625 6.390625 43.53125 10.953125 
Q 47.40625 15.53125 47.40625 23.390625 
Q 47.40625 31.296875 43.53125 35.828125 
Q 39.65625 40.375 33.015625 40.375 
z
M 52.59375 71.296875 
L 52.59375 62.3125 
Q 48.875 64.0625 45.09375 64.984375 
Q 41.3125 65.921875 37.59375 65.921875 
Q 27.828125 65.921875 22.671875 59.328125 
Q 17.53125 52.734375 16.796875 39.40625 
Q 19.671875 43.65625 24.015625 45.921875 
Q 28.375 48.1875 33.59375 48.1875 
Q 44.578125 48.1875 50.953125 41.515625 
Q 57.328125 34.859375 57.328125 23.390625 
Q 57.328125 12.15625 50.6875 5.359375 
Q 44.046875 -1.421875 33.015625 -1.421875 
Q 20.359375 -1.421875 13.671875 8.265625 
Q 6.984375 17.96875 6.984375 36.375 
Q 6.984375 53.65625 15.1875 63.9375 
Q 23.390625 74.21875 37.203125 74.21875 
Q 40.921875 74.21875 44.703125 73.484375 
Q 48.484375 72.75 52.59375 71.296875 
z
" id="DejaVuSans-54"/>
       </defs>
       <use xlink:href="#DejaVuSans-54"/>
       <use x="63.623047" xlink:href="#DejaVuSans-48"/>
       <use x="127.246094" xlink:href="#DejaVuSans-48"/>
       <use x="190.869141" xlink:href="#DejaVuSans-48"/>
       <use x="254.492188" xlink:href="#DejaVuSans-48"/>
      </g>
     </g>
    </g>
    <g id="xtick_5">
     <g id="line2d_9">
      <path clip-path="url(#p408cdbb55d)" d="M 344.510349 307.584 
L 344.510349 41.472 
" style="fill:none;stroke:#b0b0b0;stroke-linecap:square;stroke-width:0.8;"/>
     </g>
     <g id="line2d_10">
      <g>
       <use style="stroke:#000000;stroke-width:0.8;" x="344.510349" xlink:href="#mafcbcd6dac" y="307.584"/>
      </g>
     </g>
     <g id="text_5">
      <!-- 80000 -->
      <g transform="translate(328.604099 322.182437)scale(0.1 -0.1)">
       <defs>
        <path d="M 31.78125 34.625 
Q 24.75 34.625 20.71875 30.859375 
Q 16.703125 27.09375 16.703125 20.515625 
Q 16.703125 13.921875 20.71875 10.15625 
Q 24.75 6.390625 31.78125 6.390625 
Q 38.8125 6.390625 42.859375 10.171875 
Q 46.921875 13.96875 46.921875 20.515625 
Q 46.921875 27.09375 42.890625 30.859375 
Q 38.875 34.625 31.78125 34.625 
z
M 21.921875 38.8125 
Q 15.578125 40.375 12.03125 44.71875 
Q 8.5 49.078125 8.5 55.328125 
Q 8.5 64.0625 14.71875 69.140625 
Q 20.953125 74.21875 31.78125 74.21875 
Q 42.671875 74.21875 48.875 69.140625 
Q 55.078125 64.0625 55.078125 55.328125 
Q 55.078125 49.078125 51.53125 44.71875 
Q 48 40.375 41.703125 38.8125 
Q 48.828125 37.15625 52.796875 32.3125 
Q 56.78125 27.484375 56.78125 20.515625 
Q 56.78125 9.90625 50.3125 4.234375 
Q 43.84375 -1.421875 31.78125 -1.421875 
Q 19.734375 -1.421875 13.25 4.234375 
Q 6.78125 9.90625 6.78125 20.515625 
Q 6.78125 27.484375 10.78125 32.3125 
Q 14.796875 37.15625 21.921875 38.8125 
z
M 18.3125 54.390625 
Q 18.3125 48.734375 21.84375 45.5625 
Q 25.390625 42.390625 31.78125 42.390625 
Q 38.140625 42.390625 41.71875 45.5625 
Q 45.3125 48.734375 45.3125 54.390625 
Q 45.3125 60.0625 41.71875 63.234375 
Q 38.140625 66.40625 31.78125 66.40625 
Q 25.390625 66.40625 21.84375 63.234375 
Q 18.3125 60.0625 18.3125 54.390625 
z
" id="DejaVuSans-56"/>
       </defs>
       <use xlink:href="#DejaVuSans-56"/>
       <use x="63.623047" xlink:href="#DejaVuSans-48"/>
       <use x="127.246094" xlink:href="#DejaVuSans-48"/>
       <use x="190.869141" xlink:href="#DejaVuSans-48"/>
       <use x="254.492188" xlink:href="#DejaVuSans-48"/>
      </g>
     </g>
    </g>
    <g id="xtick_6">
     <g id="line2d_11">
      <path clip-path="url(#p408cdbb55d)" d="M 412.179754 307.584 
L 412.179754 41.472 
" style="fill:none;stroke:#b0b0b0;stroke-linecap:square;stroke-width:0.8;"/>
     </g>
     <g id="line2d_12">
      <g>
       <use style="stroke:#000000;stroke-width:0.8;" x="412.179754" xlink:href="#mafcbcd6dac" y="307.584"/>
      </g>
     </g>
     <g id="text_6">
      <!-- 100000 -->
      <g transform="translate(393.092254 322.182437)scale(0.1 -0.1)">
       <defs>
        <path d="M 12.40625 8.296875 
L 28.515625 8.296875 
L 28.515625 63.921875 
L 10.984375 60.40625 
L 10.984375 69.390625 
L 28.421875 72.90625 
L 38.28125 72.90625 
L 38.28125 8.296875 
L 54.390625 8.296875 
L 54.390625 0 
L 12.40625 0 
z
" id="DejaVuSans-49"/>
       </defs>
       <use xlink:href="#DejaVuSans-49"/>
       <use x="63.623047" xlink:href="#DejaVuSans-48"/>
       <use x="127.246094" xlink:href="#DejaVuSans-48"/>
       <use x="190.869141" xlink:href="#DejaVuSans-48"/>
       <use x="254.492188" xlink:href="#DejaVuSans-48"/>
       <use x="318.115234" xlink:href="#DejaVuSans-48"/>
      </g>
     </g>
    </g>
   </g>
   <g id="matplotlib.axis_2">
    <g id="ytick_1">
     <g id="line2d_13">
      <path clip-path="url(#p408cdbb55d)" d="M 57.6 307.56518 
L 414.72 307.56518 
" style="fill:none;stroke:#b0b0b0;stroke-linecap:square;stroke-width:0.8;"/>
     </g>
     <g id="line2d_14">
      <defs>
       <path d="M 0 0 
L -3.5 0 
" id="m341272f78f" style="stroke:#000000;stroke-width:0.8;"/>
      </defs>
      <g>
       <use style="stroke:#000000;stroke-width:0.8;" x="57.6" xlink:href="#m341272f78f" y="307.56518"/>
      </g>
     </g>
     <g id="text_7">
      <!-- −120 -->
      <g transform="translate(23.132812 311.364399)scale(0.1 -0.1)">
       <defs>
        <path d="M 10.59375 35.5 
L 73.1875 35.5 
L 73.1875 27.203125 
L 10.59375 27.203125 
z
" id="DejaVuSans-8722"/>
       </defs>
       <use xlink:href="#DejaVuSans-8722"/>
       <use x="83.789062" xlink:href="#DejaVuSans-49"/>
       <use x="147.412109" xlink:href="#DejaVuSans-50"/>
       <use x="211.035156" xlink:href="#DejaVuSans-48"/>
      </g>
     </g>
    </g>
    <g id="ytick_2">
     <g id="line2d_15">
      <path clip-path="url(#p408cdbb55d)" d="M 57.6 265.235085 
L 414.72 265.235085 
" style="fill:none;stroke:#b0b0b0;stroke-linecap:square;stroke-width:0.8;"/>
     </g>
     <g id="line2d_16">
      <g>
       <use style="stroke:#000000;stroke-width:0.8;" x="57.6" xlink:href="#m341272f78f" y="265.235085"/>
      </g>
     </g>
     <g id="text_8">
      <!-- −100 -->
      <g transform="translate(23.132812 269.034304)scale(0.1 -0.1)">
       <use xlink:href="#DejaVuSans-8722"/>
       <use x="83.789062" xlink:href="#DejaVuSans-49"/>
       <use x="147.412109" xlink:href="#DejaVuSans-48"/>
       <use x="211.035156" xlink:href="#DejaVuSans-48"/>
      </g>
     </g>
    </g>
    <g id="ytick_3">
     <g id="line2d_17">
      <path clip-path="url(#p408cdbb55d)" d="M 57.6 222.90499 
L 414.72 222.90499 
" style="fill:none;stroke:#b0b0b0;stroke-linecap:square;stroke-width:0.8;"/>
     </g>
     <g id="line2d_18">
      <g>
       <use style="stroke:#000000;stroke-width:0.8;" x="57.6" xlink:href="#m341272f78f" y="222.90499"/>
      </g>
     </g>
     <g id="text_9">
      <!-- −80 -->
      <g transform="translate(29.495313 226.704208)scale(0.1 -0.1)">
       <use xlink:href="#DejaVuSans-8722"/>
       <use x="83.789062" xlink:href="#DejaVuSans-56"/>
       <use x="147.412109" xlink:href="#DejaVuSans-48"/>
      </g>
     </g>
    </g>
    <g id="ytick_4">
     <g id="line2d_19">
      <path clip-path="url(#p408cdbb55d)" d="M 57.6 180.574894 
L 414.72 180.574894 
" style="fill:none;stroke:#b0b0b0;stroke-linecap:square;stroke-width:0.8;"/>
     </g>
     <g id="line2d_20">
      <g>
       <use style="stroke:#000000;stroke-width:0.8;" x="57.6" xlink:href="#m341272f78f" y="180.574894"/>
      </g>
     </g>
     <g id="text_10">
      <!-- −60 -->
      <g transform="translate(29.495313 184.374113)scale(0.1 -0.1)">
       <use xlink:href="#DejaVuSans-8722"/>
       <use x="83.789062" xlink:href="#DejaVuSans-54"/>
       <use x="147.412109" xlink:href="#DejaVuSans-48"/>
      </g>
     </g>
    </g>
    <g id="ytick_5">
     <g id="line2d_21">
      <path clip-path="url(#p408cdbb55d)" d="M 57.6 138.244799 
L 414.72 138.244799 
" style="fill:none;stroke:#b0b0b0;stroke-linecap:square;stroke-width:0.8;"/>
     </g>
     <g id="line2d_22">
      <g>
       <use style="stroke:#000000;stroke-width:0.8;" x="57.6" xlink:href="#m341272f78f" y="138.244799"/>
      </g>
     </g>
     <g id="text_11">
      <!-- −40 -->
      <g transform="translate(29.495313 142.044017)scale(0.1 -0.1)">
       <use xlink:href="#DejaVuSans-8722"/>
       <use x="83.789062" xlink:href="#DejaVuSans-52"/>
       <use x="147.412109" xlink:href="#DejaVuSans-48"/>
      </g>
     </g>
    </g>
    <g id="ytick_6">
     <g id="line2d_23">
      <path clip-path="url(#p408cdbb55d)" d="M 57.6 95.914703 
L 414.72 95.914703 
" style="fill:none;stroke:#b0b0b0;stroke-linecap:square;stroke-width:0.8;"/>
     </g>
     <g id="line2d_24">
      <g>
       <use style="stroke:#000000;stroke-width:0.8;" x="57.6" xlink:href="#m341272f78f" y="95.914703"/>
      </g>
     </g>
     <g id="text_12">
      <!-- −20 -->
      <g transform="translate(29.495313 99.713922)scale(0.1 -0.1)">
       <use xlink:href="#DejaVuSans-8722"/>
       <use x="83.789062" xlink:href="#DejaVuSans-50"/>
       <use x="147.412109" xlink:href="#DejaVuSans-48"/>
      </g>
     </g>
    </g>
    <g id="ytick_7">
     <g id="line2d_25">
      <path clip-path="url(#p408cdbb55d)" d="M 57.6 53.584608 
L 414.72 53.584608 
" style="fill:none;stroke:#b0b0b0;stroke-linecap:square;stroke-width:0.8;"/>
     </g>
     <g id="line2d_26">
      <g>
       <use style="stroke:#000000;stroke-width:0.8;" x="57.6" xlink:href="#m341272f78f" y="53.584608"/>
      </g>
     </g>
     <g id="text_13">
      <!-- 0 -->
      <g transform="translate(44.2375 57.383827)scale(0.1 -0.1)">
       <use xlink:href="#DejaVuSans-48"/>
      </g>
     </g>
    </g>
   </g>
   <g id="line2d_27">
    <path clip-path="url(#p408cdbb55d)" d="M 73.832727 53.60085 
L 135.528193 53.673465 
L 136.796994 53.933443 
L 137.907195 54.373465 
L 138.858796 54.96482 
L 139.810397 55.802254 
L 140.761998 56.931719 
L 141.7136 58.399098 
L 142.665201 60.250693 
L 143.775402 62.960439 
L 144.885603 66.340146 
L 145.995804 70.48309 
L 147.106005 75.502175 
L 148.216206 81.542743 
L 149.326408 88.804409 
L 150.436609 97.582253 
L 151.54681 108.355482 
L 152.498411 119.832666 
L 153.291412 131.821544 
L 153.925812 144.062025 
L 154.560213 161.052953 
L 154.877414 173.773442 
L 155.194614 196.859506 
L 155.353214 246.774302 
L 155.511814 203.978544 
L 155.829015 187.36604 
L 156.146215 182.961762 
L 156.304815 182.425705 
L 156.463415 182.649505 
L 156.622015 183.539403 
L 156.939216 187.297635 
L 157.256416 194.440143 
L 157.573616 208.950058 
L 157.890817 235.827368 
L 158.208017 202.866464 
L 158.525217 192.823945 
L 159.001018 185.769112 
L 159.318218 183.590322 
L 159.635419 182.741895 
L 159.794019 182.745023 
L 159.952619 183.017689 
L 160.269819 184.378798 
L 160.58702 186.935628 
L 160.90422 191.0195 
L 161.22142 197.46341 
L 161.538621 208.893905 
L 161.697221 219.798739 
L 161.855821 250.941501 
L 162.173021 213.223202 
L 162.490222 199.854233 
L 162.966022 190.377352 
L 163.441823 185.556207 
L 163.917623 183.256713 
L 164.234823 182.774328 
L 164.393424 182.817859 
L 164.710624 183.467769 
L 165.027824 184.907206 
L 165.345025 187.255852 
L 165.820825 193.111277 
L 166.138025 199.606211 
L 166.455226 210.890347 
L 166.613826 221.480636 
L 166.772426 249.837018 
L 167.248227 207.706632 
L 167.724027 194.851357 
L 168.199828 188.406109 
L 168.675628 184.824109 
L 168.992829 183.499143 
L 169.310029 182.870375 
L 169.468629 182.798201 
L 169.627229 182.883711 
L 169.94443 183.533138 
L 170.26163 184.859215 
L 170.73743 188.360979 
L 171.213231 194.484973 
L 171.530431 201.191579 
L 171.847632 212.922512 
L 172.006232 224.236511 
L 172.164832 260.04173 
L 172.482032 216.001984 
L 172.799233 202.753192 
L 173.275033 192.968653 
L 173.750834 187.59426 
L 174.226634 184.529325 
L 174.543834 183.402556 
L 174.861035 182.89715 
L 175.019635 182.864259 
L 175.178235 182.975875 
L 175.495435 183.640486 
L 175.812636 184.932345 
L 176.288436 188.271254 
L 176.764237 194.002771 
L 177.081437 200.130851 
L 177.398637 210.325236 
L 177.557238 219.204959 
L 177.874438 244.057409 
L 178.191638 211.653194 
L 178.508839 200.877416 
L 178.984639 192.193913 
L 179.46044 187.253106 
L 179.93624 184.397228 
L 180.253441 183.343764 
L 180.570641 182.874837 
L 180.729241 182.84839 
L 180.887841 182.959092 
L 181.205042 183.599891 
L 181.522242 184.836259 
L 181.998042 188.013379 
L 182.473843 193.411701 
L 182.791043 199.084012 
L 183.108244 208.18499 
L 183.266844 215.610143 
L 183.425444 228.529149 
L 183.584044 295.488 
L 183.742644 227.600882 
L 184.059845 207.900526 
L 184.535645 195.859667 
L 185.011446 189.479305 
L 185.487246 185.703957 
L 185.963047 183.60998 
L 186.280247 182.959288 
L 186.597447 182.850082 
L 186.914648 183.274778 
L 187.231848 184.257914 
L 187.549048 185.862486 
L 188.024849 189.72173 
L 188.500649 196.213905 
L 188.81785 203.293425 
L 189.13505 215.963831 
L 189.29365 229.017589 
L 189.45225 287.725597 
L 189.61085 227.576618 
L 189.928051 208.032592 
L 190.403851 196.0151 
L 190.879652 189.619721 
L 191.355452 185.810679 
L 191.831253 183.666393 
L 192.148453 182.971869 
L 192.465654 182.808804 
L 192.782854 183.166959 
L 193.100054 184.066573 
L 193.417255 185.563413 
L 193.893055 189.18413 
L 194.368856 195.231922 
L 194.686056 201.6862 
L 195.003256 212.62087 
L 195.161856 222.574742 
L 195.320457 246.326873 
L 195.479057 237.161377 
L 195.796257 210.861391 
L 196.272058 197.382503 
L 196.747858 190.46719 
L 197.223659 186.353106 
L 197.699459 183.977101 
L 198.016659 183.1424 
L 198.33386 182.839787 
L 198.49246 182.881213 
L 198.80966 183.352109 
L 199.126861 184.36606 
L 199.602661 187.058889 
L 200.078462 191.62086 
L 200.554262 199.358493 
L 200.871462 208.305987 
L 201.030063 215.527942 
L 201.188663 227.835242 
L 201.347263 286.983994 
L 201.505863 229.368147 
L 201.823063 208.8155 
L 202.298864 196.520469 
L 202.774664 190.001066 
L 203.250465 186.095725 
L 203.726265 183.855316 
L 204.043466 183.090282 
L 204.360666 182.847696 
L 204.519266 182.91676 
L 204.836467 183.440203 
L 205.153667 184.505622 
L 205.629468 187.281685 
L 206.105268 191.953659 
L 206.581069 199.892101 
L 206.898269 209.168989 
L 207.056869 216.794958 
L 207.215469 230.322274 
L 207.374069 273.800478 
L 207.53267 227.168704 
L 207.84987 208.144456 
L 208.32567 196.245206 
L 208.801471 189.861649 
L 209.277271 186.024804 
L 209.753072 183.824265 
L 210.070272 183.076609 
L 210.387473 182.846177 
L 210.546073 182.919674 
L 210.863273 183.449028 
L 211.180473 184.516571 
L 211.656274 187.28809 
L 212.132074 191.942366 
L 212.607875 199.83355 
L 212.925075 209.022863 
L 213.083675 216.537542 
L 213.242276 229.716588 
L 213.400876 283.10966 
L 213.559476 227.812343 
L 213.876676 208.402755 
L 214.352477 196.392945 
L 214.828277 189.962056 
L 215.304078 186.091051 
L 215.779878 183.858601 
L 216.097079 183.088496 
L 216.414279 182.833381 
L 216.572879 182.893327 
L 216.890079 183.392244 
L 217.20728 184.423198 
L 217.68308 187.120936 
L 218.158881 191.656626 
L 218.634681 199.30588 
L 218.951882 208.086277 
L 219.269082 226.827099 
L 219.427682 268.963509 
L 219.744883 217.150142 
L 220.062083 204.108791 
L 220.537883 194.272823 
L 221.013684 188.701985 
L 221.489484 185.334085 
L 221.965285 183.464368 
L 222.282485 182.900049 
L 222.599686 182.838435 
L 222.916886 183.275961 
L 223.234086 184.237139 
L 223.709887 186.801493 
L 224.185687 191.132428 
L 224.661488 198.380254 
L 224.978688 206.514373 
L 225.295888 222.607391 
L 225.454489 245.510789 
L 225.613089 238.272603 
L 225.930289 211.383047 
L 226.40609 197.77884 
L 226.88189 190.787441 
L 227.357691 186.593798 
L 227.833491 184.122332 
L 228.150691 183.21095 
L 228.467892 182.817782 
L 228.626492 182.807501 
L 228.943692 183.15872 
L 229.260893 184.024664 
L 229.578093 185.456736 
L 230.053894 188.897708 
L 230.529694 194.574929 
L 230.846894 200.510053 
L 231.164095 210.136618 
L 231.322695 218.203732 
L 231.639895 257.519379 
L 231.957096 214.366152 
L 232.274296 202.786541 
L 232.750096 193.614114 
L 233.225897 188.333371 
L 233.701697 185.140313 
L 234.177498 183.396447 
L 234.494698 182.902307 
L 234.653298 182.842291 
L 234.811899 182.905298 
L 235.129099 183.405387 
L 235.446299 184.430567 
L 235.9221 187.103524 
L 236.3979 191.583325 
L 236.873701 199.101476 
L 237.190901 207.653875 
L 237.508101 225.388144 
L 237.666702 257.387408 
L 237.983902 218.286107 
L 238.301102 204.713366 
L 238.776903 194.648865 
L 239.252703 188.972395 
L 239.728504 185.530809 
L 240.204304 183.595942 
L 240.521505 182.987554 
L 240.838705 182.878571 
L 241.155905 183.262905 
L 241.473106 184.161801 
L 241.948906 186.604157 
L 242.424707 190.746031 
L 242.900507 197.629637 
L 243.217708 205.205574 
L 243.534908 219.34391 
L 243.852108 250.430673 
L 244.169309 213.639746 
L 244.486509 202.446772 
L 244.962309 193.456838 
L 245.43811 188.252078 
L 245.91391 185.099503 
L 246.389711 183.379134 
L 246.706911 182.894776 
L 246.865511 182.838287 
L 247.024112 182.904015 
L 247.341312 183.407302 
L 247.658512 184.432797 
L 248.134313 187.100363 
L 248.610113 191.564999 
L 249.085914 199.047107 
L 249.403114 207.539006 
L 249.720314 225.023574 
L 249.878915 255.261259 
L 250.196115 218.583145 
L 250.513315 204.858397 
L 250.989116 194.723897 
L 251.464916 189.008957 
L 251.940717 185.535064 
L 252.416517 183.567 
L 252.733718 182.93399 
L 253.050918 182.797055 
L 253.368118 183.148657 
L 253.685319 184.007979 
L 254.002519 185.425374 
L 254.478319 188.823315 
L 254.95412 194.410307 
L 255.27132 200.220679 
L 255.588521 209.548834 
L 255.747121 217.227055 
L 255.905721 230.909564 
L 256.064321 271.269293 
L 256.222921 227.228505 
L 256.540122 208.35612 
L 257.015922 196.482431 
L 257.491723 190.08306 
L 257.967523 186.208072 
L 258.443324 183.948566 
L 258.760524 183.148587 
L 259.077724 182.853269 
L 259.236325 182.888712 
L 259.553525 183.328098 
L 259.870725 184.281861 
L 260.346526 186.813986 
L 260.822326 191.073203 
L 261.298127 198.1584 
L 261.615327 206.02615 
L 261.932527 221.137795 
L 262.091128 240.412195 
L 262.249728 243.190096 
L 262.566928 212.559136 
L 263.042729 198.396739 
L 263.518529 191.214023 
L 263.99433 186.902363 
L 264.47013 184.333331 
L 264.945931 183.066315 
L 265.263131 182.852676 
L 265.580331 183.12613 
L 265.897532 183.90156 
L 266.214732 185.223807 
L 266.690532 188.437917 
L 267.166333 193.729401 
L 267.483533 199.179676 
L 267.800734 207.71659 
L 268.117934 225.381192 
L 268.276534 256.875617 
L 268.593735 218.454024 
L 268.910935 204.83401 
L 269.386735 194.736991 
L 269.862536 189.031028 
L 270.338336 185.555182 
L 270.814137 183.57785 
L 271.131337 182.934867 
L 271.448538 182.784615 
L 271.765738 183.118921 
L 272.082938 183.95587 
L 272.400139 185.343956 
L 272.875939 188.67703 
L 273.35174 194.147558 
L 273.66894 199.807216 
L 273.98614 208.790386 
L 274.14474 216.038861 
L 274.303341 228.409703 
L 274.461941 290.74651 
L 274.620541 229.691197 
L 274.937741 209.219851 
L 275.413542 196.919099 
L 275.889342 190.359219 
L 276.365143 186.387223 
L 276.840943 184.052094 
L 277.158144 183.205452 
L 277.475344 182.863058 
L 277.633944 182.874029 
L 277.951144 183.260958 
L 278.268345 184.154881 
L 278.744145 186.572779 
L 279.219946 190.659014 
L 279.695746 197.417678 
L 280.012947 204.796514 
L 280.330147 218.291101 
L 280.488747 233.108578 
L 280.647347 258.927667 
L 280.964548 214.689484 
L 281.281748 203.048202 
L 281.757549 193.830826 
L 282.233349 188.510244 
L 282.70915 185.271387 
L 283.18495 183.47086 
L 283.50215 182.930543 
L 283.819351 182.878406 
L 284.136551 183.311597 
L 284.453751 184.253808 
L 284.929552 186.755549 
L 285.405352 190.958488 
L 285.881153 197.926018 
L 286.198353 205.609386 
L 286.515554 220.084197 
L 286.832754 247.606259 
L 287.149954 213.357549 
L 287.467155 202.361036 
L 287.942955 193.458653 
L 288.418756 188.279659 
L 288.894556 185.127028 
L 289.370357 183.388923 
L 289.687557 182.88353 
L 290.004757 182.863588 
L 290.321958 183.327941 
L 290.639158 184.301928 
L 291.114958 186.857034 
L 291.590759 191.131381 
L 292.066559 198.223004 
L 292.38376 206.086521 
L 292.70096 221.1661 
L 292.85956 240.324411 
L 293.018161 243.495851 
L 293.335361 212.692183 
L 293.811161 198.504315 
L 294.286962 191.307128 
L 294.762762 186.979393 
L 295.238563 184.389793 
L 295.714363 183.095676 
L 296.031564 182.859092 
L 296.190164 182.921302 
L 296.507364 183.41083 
L 296.824565 184.412421 
L 297.300365 187.018502 
L 297.776166 191.369045 
L 298.251966 198.60707 
L 298.569166 206.698805 
L 298.886367 222.606774 
L 299.044967 244.743207 
L 299.203567 239.353414 
L 299.520767 211.860106 
L 299.996568 198.138416 
L 300.472368 191.081966 
L 300.948169 186.823334 
L 301.423969 184.275141 
L 301.89977 183.0085 
L 302.21697 182.785397 
L 302.534171 183.041343 
L 302.851371 183.789955 
L 303.168571 185.073526 
L 303.644372 188.195956 
L 304.120172 193.317041 
L 304.595973 202.080588 
L 304.913173 212.793225 
L 305.071773 222.380407 
L 305.230373 243.965692 
L 305.388974 239.989391 
L 305.706174 212.019505 
L 306.181975 198.230628 
L 306.657775 191.157729 
L 307.133576 186.893737 
L 307.609376 184.344467 
L 308.085177 183.079083 
L 308.402377 182.857824 
L 308.719577 183.116442 
L 309.036778 183.868728 
L 309.353978 185.157332 
L 309.829778 188.291489 
L 310.305579 193.434774 
L 310.781379 202.252711 
L 311.09858 213.079002 
L 311.25718 222.844013 
L 311.41578 245.440719 
L 311.57438 238.92912 
L 311.891581 211.803051 
L 312.367381 198.14005 
L 312.843182 191.10113 
L 313.318982 186.849781 
L 313.794783 184.303967 
L 314.270583 183.03629 
L 314.587783 182.810767 
L 314.904984 183.062816 
L 315.222184 183.805809 
L 315.539384 185.081576 
L 316.015185 188.186199 
L 316.490985 193.275581 
L 316.966786 201.967783 
L 317.283986 212.541431 
L 317.442586 221.920253 
L 317.601187 242.410992 
L 317.759787 241.433583 
L 318.076987 212.353818 
L 318.552788 198.396493 
L 319.028588 191.265644 
L 319.504389 186.966169 
L 319.980189 184.38801 
L 320.45599 183.094592 
L 320.77319 182.853374 
L 320.93179 182.91172 
L 321.248991 183.390118 
L 321.566191 184.37523 
L 322.041991 186.942457 
L 322.517792 191.224203 
L 322.993592 198.318879 
L 323.310793 206.181795 
L 323.627993 221.256746 
L 323.786593 240.402964 
L 323.945193 243.609318 
L 324.262394 212.784867 
L 324.738194 198.584783 
L 325.213995 191.372502 
L 325.689795 187.024977 
L 326.165596 184.409603 
L 326.641396 183.081917 
L 326.958597 182.817241 
L 327.117197 182.863232 
L 327.434397 183.314841 
L 327.751597 184.268972 
L 328.227398 186.776082 
L 328.703198 190.964991 
L 329.178999 197.880677 
L 329.496199 205.470265 
L 329.8134 219.614827 
L 330.1306 250.739892 
L 330.4478 213.922616 
L 330.765001 202.721486 
L 331.240801 193.71118 
L 331.716602 188.473584 
L 332.192402 185.273479 
L 332.668203 183.487603 
L 332.985403 182.947051 
L 333.302603 182.887314 
L 333.619804 183.305174 
L 333.937004 184.223098 
L 334.412805 186.665665 
L 334.888605 190.763183 
L 335.364406 197.515268 
L 335.681606 204.868861 
L 335.998806 218.269829 
L 336.157406 232.864101 
L 336.316007 260.82822 
L 336.633207 214.992115 
L 336.950407 203.271442 
L 337.426208 194.00347 
L 337.902008 188.643442 
L 338.377809 185.361809 
L 338.853609 183.509559 
L 339.17081 182.927405 
L 339.48801 182.825452 
L 339.80521 183.198272 
L 340.122411 184.065704 
L 340.598211 186.413634 
L 341.074012 190.370423 
L 341.549812 196.862623 
L 341.867012 203.840837 
L 342.184213 216.117776 
L 342.342813 228.354587 
L 342.501413 284.181513 
L 342.660013 230.205917 
L 342.977214 209.526904 
L 343.453014 197.161872 
L 343.928815 190.561574 
L 344.404615 186.54734 
L 344.880416 184.161383 
L 345.197616 183.273757 
L 345.514816 182.882841 
L 345.673417 182.866074 
L 345.990617 183.188805 
L 346.307817 184.003509 
L 346.625018 185.356456 
L 347.100818 188.602025 
L 347.576619 193.906475 
L 347.893819 199.350701 
L 348.211019 207.855143 
L 348.52822 225.353782 
L 348.68682 255.654702 
L 349.00402 218.884957 
L 349.32122 205.157103 
L 349.797021 195.001181 
L 350.272821 189.249777 
L 350.748622 185.72335 
L 351.224422 183.683622 
L 351.541623 182.989695 
L 351.858823 182.778583 
L 352.176023 183.039137 
L 352.493224 183.785023 
L 352.810424 185.057752 
L 353.286225 188.143851 
L 353.762025 193.186851 
L 354.237826 201.759503 
L 354.555026 212.091624 
L 354.713626 221.112575 
L 354.872226 239.880602 
L 355.030826 244.407105 
L 355.348027 212.989643 
L 355.823827 198.716773 
L 356.299628 191.480539 
L 356.775428 187.116736 
L 357.251229 184.485402 
L 357.727029 183.139157 
L 358.04423 182.859591 
L 358.20283 182.897117 
L 358.52003 183.329179 
L 358.837231 184.259201 
L 359.313031 186.717027 
L 359.788832 190.827739 
L 360.264632 197.593579 
L 360.581832 204.960796 
L 360.899033 218.397065 
L 361.057633 233.06922 
L 361.216233 260.264781 
L 361.533433 215.005311 
L 361.850634 203.309077 
L 362.326434 194.049668 
L 362.802235 188.689079 
L 363.278035 185.402076 
L 363.753836 183.540336 
L 364.071036 182.949407 
L 364.388236 182.836372 
L 364.705437 183.195282 
L 365.022637 184.045136 
L 365.498438 186.356574 
L 365.974238 190.25531 
L 366.450039 196.638252 
L 366.767239 203.461348 
L 367.084439 215.300399 
L 367.243039 226.731259 
L 367.40164 264.039841 
L 367.71884 218.061042 
L 368.03604 204.807021 
L 368.511841 194.849768 
L 368.987641 189.183488 
L 369.463442 185.70842 
L 369.939242 183.705887 
L 370.256443 183.032817 
L 370.573643 182.840975 
L 370.890843 183.120234 
L 371.208044 183.88526 
L 371.525244 185.178762 
L 372.001045 188.303177 
L 372.476845 193.405123 
L 372.952646 202.102462 
L 373.269846 212.672794 
L 373.428446 222.043408 
L 373.587046 242.490444 
L 373.745646 241.638337 
L 374.062847 212.506305 
L 374.538647 198.532867 
L 375.014448 191.385227 
L 375.490248 187.063869 
L 375.966049 184.45699 
L 376.441849 183.126008 
L 376.75905 182.853373 
L 376.91765 182.893618 
L 377.23485 183.329844 
L 377.55205 184.262512 
L 378.027851 186.721602 
L 378.503651 190.829853 
L 378.979452 197.586921 
L 379.296652 204.93937 
L 379.613853 218.328768 
L 379.772453 232.893333 
L 379.931053 261.161256 
L 380.248253 215.093577 
L 380.565454 203.359583 
L 381.041254 194.078759 
L 381.517055 188.704491 
L 381.992855 185.404843 
L 382.468656 183.529352 
L 382.785856 182.92794 
L 383.103056 182.802853 
L 383.420257 183.147547 
L 383.737457 183.980172 
L 384.213258 186.256962 
L 384.689058 190.101593 
L 385.164859 196.383378 
L 385.482059 203.063687 
L 385.799259 214.508726 
L 385.957859 225.255872 
L 386.11646 254.890213 
L 386.43366 219.072071 
L 386.75086 205.286376 
L 387.226661 195.109972 
L 387.702461 189.350737 
L 388.178262 185.818762 
L 388.654062 183.773205 
L 388.971263 183.074661 
L 389.288463 182.858053 
L 389.605663 183.111961 
L 389.922864 183.849706 
L 390.240064 185.112284 
L 390.715864 188.177406 
L 391.191665 193.186334 
L 391.667465 201.688364 
L 391.984666 211.892368 
L 392.143266 220.733561 
L 392.460466 246.192001 
L 392.777667 213.346866 
L 393.094867 202.467971 
L 393.570667 193.609586 
L 394.046468 188.429944 
L 394.522269 185.25363 
L 394.998069 183.472571 
L 395.315269 182.927167 
L 395.63247 182.856484 
L 395.94967 183.256854 
L 396.26687 184.149543 
L 396.742671 186.534179 
L 397.218471 190.532393 
L 397.694272 197.086986 
L 398.011472 204.146897 
L 398.328673 216.654719 
L 398.487273 229.338833 
L 398.487273 229.338833 
" style="fill:none;stroke:#1f77b4;stroke-linecap:square;stroke-width:1.5;"/>
   </g>
   <g id="patch_3">
    <path d="M 57.6 307.584 
L 57.6 41.472 
" style="fill:none;stroke:#000000;stroke-linecap:square;stroke-linejoin:miter;stroke-width:0.8;"/>
   </g>
   <g id="patch_4">
    <path d="M 414.72 307.584 
L 414.72 41.472 
" style="fill:none;stroke:#000000;stroke-linecap:square;stroke-linejoin:miter;stroke-width:0.8;"/>
   </g>
   <g id="patch_5">
    <path d="M 57.6 307.584 
L 414.72 307.584 
" style="fill:none;stroke:#000000;stroke-linecap:square;stroke-linejoin:miter;stroke-width:0.8;"/>
   </g>
   <g id="patch_6">
    <path d="M 57.6 41.472 
L 414.72 41.472 
" style="fill:none;stroke:#000000;stroke-linecap:square;stroke-linejoin:miter;stroke-width:0.8;"/>
   </g>
   <g id="legend_1">
    <g id="patch_7">
     <path d="M 363.43875 64.150125 
L 407.72 64.150125 
Q 409.72 64.150125 409.72 62.150125 
L 409.72 48.472 
Q 409.72 46.472 407.72 46.472 
L 363.43875 46.472 
Q 361.43875 46.472 361.43875 48.472 
L 361.43875 62.150125 
Q 361.43875 64.150125 363.43875 64.150125 
z
" style="fill:#ffffff;opacity:0.8;stroke:#cccccc;stroke-linejoin:miter;"/>
    </g>
    <g id="line2d_28">
     <path d="M 365.43875 54.570438 
L 385.43875 54.570438 
" style="fill:none;stroke:#1f77b4;stroke-linecap:square;stroke-width:1.5;"/>
    </g>
    <g id="line2d_29"/>
    <g id="text_14">
     <!-- 4x -->
     <g transform="translate(393.43875 58.070438)scale(0.1 -0.1)">
      <defs>
       <path d="M 54.890625 54.6875 
L 35.109375 28.078125 
L 55.90625 0 
L 45.3125 0 
L 29.390625 21.484375 
L 13.484375 0 
L 2.875 0 
L 24.125 28.609375 
L 4.6875 54.6875 
L 15.28125 54.6875 
L 29.78125 35.203125 
L 44.28125 54.6875 
z
" id="DejaVuSans-120"/>
      </defs>
      <use xlink:href="#DejaVuSans-52"/>
      <use x="63.623047" xlink:href="#DejaVuSans-120"/>
     </g>
    </g>
   </g>
  </g>
 </g>
 <defs>
  <clipPath id="p408cdbb55d">
   <rect height="266.112" width="357.12" x="57.6" y="41.472"/>
  </clipPath>
 </defs>
</svg>
