<?xml version="1.0" encoding="utf-8" standalone="no"?>
<!DOCTYPE svg PUBLIC "-//W3C//DTD SVG 1.1//EN"
  "http://www.w3.org/Graphics/SVG/1.1/DTD/svg11.dtd">
<svg xmlns:xlink="http://www.w3.org/1999/xlink" width="357.12pt" height="266.112pt" viewBox="0 0 357.12 266.112" xmlns="http://www.w3.org/2000/svg" version="1.1">
 <metadata>
  <rdf:RDF xmlns:dc="http://purl.org/dc/elements/1.1/" xmlns:cc="http://creativecommons.org/ns#" xmlns:rdf="http://www.w3.org/1999/02/22-rdf-syntax-ns#">
   <cc:Work>
    <dc:type rdf:resource="http://purl.org/dc/dcmitype/StillImage"/>
    <dc:date>2026-06-26T08:24:22.018511</dc:date>
    <dc:format>image/svg+xml</dc:format>
    <dc:creator>
     <cc:Agent>
      <dc:title>Matplotlib v3.10.8, https://matplotlib.org/</dc:title>
     </cc:Agent>
    </dc:creator>
   </cc:Work>
  </rdf:RDF>
 </metadata>
 <defs>
  <style type="text/css">*{stroke-linejoin: round; stroke-linecap: butt}</style>
 </defs>
 <g id="figure_1">
  <g id="patch_1">
   <path d="M 0 266.112 
L 357.12 266.112 
L 357.12 0 
L 0 0 
L 0 266.112 
z
" style="fill: none"/>
  </g>
  <g id="axes_1">
   <g id="line2d_1">
    <path d="M 91.153007 254.016 
L 96.521013 233.662935 
L 101.767018 214.636381 
L 106.891024 196.876755 
L 111.893029 180.325861 
L 116.773034 164.926887 
L 121.531039 150.624409 
L 126.289044 137.024446 
L 130.925049 124.448925 
L 135.439054 112.845194 
L 139.831059 102.161982 
L 144.101063 92.349409 
L 148.249068 83.358977 
L 152.275072 75.143573 
L 156.301076 67.431154 
L 160.20508 60.432796 
L 163.987084 54.10416 
L 167.647088 48.40229 
L 171.185092 43.285619 
L 174.723096 38.557386 
L 178.1391 34.360773 
L 181.433103 30.656982 
L 184.727107 27.2899 
L 187.89911 24.365758 
L 190.949113 21.848529 
L 193.999116 19.619974 
L 196.92712 17.752144 
L 199.855123 16.150355 
L 202.661126 14.864952 
L 205.467129 13.823881 
L 208.151131 13.056704 
L 210.835134 12.513075 
L 213.519137 12.192994 
L 216.20314 12.096462 
L 218.887143 12.223478 
L 221.571146 12.574043 
L 224.255149 13.148155 
L 226.939151 13.945817 
L 229.745154 15.018757 
L 232.551157 16.336029 
L 235.35716 17.897635 
L 238.285164 19.787635 
L 241.213167 21.943676 
L 244.26317 24.472452 
L 247.313173 27.2899 
L 250.485177 30.526271 
L 253.77918 34.217591 
L 257.073184 38.245619 
L 260.489187 42.778478 
L 264.027191 47.854966 
L 267.565195 53.319893 
L 271.225199 59.382026 
L 275.007203 66.082935 
L 278.911207 73.465575 
L 282.815211 81.321176 
L 286.841215 89.917628 
L 290.98922 99.300655 
L 295.259224 109.517371 
L 299.651229 120.616271 
L 304.165234 132.647239 
L 308.679238 145.310516 
L 313.315243 158.974218 
L 318.073248 173.691 
L 322.953254 189.5149 
L 327.955259 206.501345 
L 333.079264 224.707144 
L 338.32527 244.190494 
L 340.887273 254.016 
L 340.887273 254.016 
" clip-path="url(#pe869a6b1ba)" style="fill: none; stroke-dasharray: 1.5,2.475; stroke-dashoffset: 0; stroke: #2288ff; stroke-width: 1.5"/>
   </g>
   <g id="line2d_2">
    <path d="M 53.692867 254.016 
L 59.060873 233.662935 
L 64.306878 214.636381 
L 69.430884 196.876755 
L 74.432889 180.325861 
L 79.312894 164.926887 
L 84.070899 150.624409 
L 88.828905 137.024446 
L 93.464909 124.448925 
L 97.978914 112.845194 
L 102.370919 102.161982 
L 106.640923 92.349409 
L 110.788928 83.358977 
L 114.814932 75.143573 
L 118.840936 67.431154 
L 122.744941 60.432796 
L 126.526945 54.10416 
L 130.186949 48.40229 
L 133.724952 43.285619 
L 137.262956 38.557386 
L 140.67896 34.360773 
L 143.972963 30.656982 
L 147.266967 27.2899 
L 150.43897 24.365758 
L 153.488973 21.848529 
L 156.538977 19.619974 
L 159.46698 17.752144 
L 162.394983 16.150355 
L 165.200986 14.864952 
L 168.006989 13.823881 
L 170.690992 13.056704 
L 173.374994 12.513075 
L 176.058997 12.192994 
L 178.743 12.096462 
L 181.427003 12.223478 
L 184.111006 12.574043 
L 186.795009 13.148155 
L 189.479012 13.945817 
L 192.285015 15.018757 
L 195.091018 16.336029 
L 197.897021 17.897635 
L 200.825024 19.787635 
L 203.753027 21.943676 
L 206.80303 24.472452 
L 209.853033 27.2899 
L 213.025037 30.526271 
L 216.31904 34.217591 
L 219.613044 38.245619 
L 223.029047 42.778478 
L 226.567051 47.854966 
L 230.105055 53.319893 
L 233.765059 59.382026 
L 237.547063 66.082935 
L 241.451067 73.465575 
L 245.355071 81.321176 
L 249.381075 89.917628 
L 253.52908 99.300655 
L 257.799084 109.517371 
L 262.191089 120.616271 
L 266.705094 132.647239 
L 271.219099 145.310516 
L 275.855104 158.974218 
L 280.613109 173.691 
L 285.493114 189.5149 
L 290.495119 206.501345 
L 295.619125 224.707144 
L 300.86513 244.190494 
L 303.427133 254.016 
L 303.427133 254.016 
" clip-path="url(#pe869a6b1ba)" style="fill: none; stroke: #000000; stroke-width: 1.5; stroke-linecap: square"/>
   </g>
   <g id="line2d_3">
    <path d="M 16.232727 254.016 
L 21.600733 233.662935 
L 26.846739 214.636381 
L 31.970744 196.876755 
L 36.972749 180.325861 
L 41.852755 164.926887 
L 46.61076 150.624409 
L 51.368765 137.024446 
L 56.00477 124.448925 
L 60.518774 112.845194 
L 64.910779 102.161982 
L 69.180784 92.349409 
L 73.328788 83.358977 
L 77.354792 75.143573 
L 81.380797 67.431154 
L 85.284801 60.432796 
L 89.066805 54.10416 
L 92.726809 48.40229 
L 96.264812 43.285619 
L 99.802816 38.557386 
L 103.21882 34.360773 
L 106.512823 30.656982 
L 109.806827 27.2899 
L 112.97883 24.365758 
L 116.028833 21.848529 
L 119.078837 19.619974 
L 122.00684 17.752144 
L 124.934843 16.150355 
L 127.740846 14.864952 
L 130.546849 13.823881 
L 133.230852 13.056704 
L 135.914855 12.513075 
L 138.598857 12.192994 
L 141.28286 12.096462 
L 143.966863 12.223478 
L 146.650866 12.574043 
L 149.334869 13.148155 
L 152.018872 13.945817 
L 154.824875 15.018757 
L 157.630878 16.336029 
L 160.436881 17.897635 
L 163.364884 19.787635 
L 166.292887 21.943676 
L 169.34289 24.472452 
L 172.392893 27.2899 
L 175.564897 30.526271 
L 178.8589 34.217591 
L 182.152904 38.245619 
L 185.568907 42.778478 
L 189.106911 47.854966 
L 192.644915 53.319893 
L 196.304919 59.382026 
L 200.086923 66.082935 
L 203.990927 73.465575 
L 207.894931 81.321176 
L 211.920935 89.917628 
L 216.06894 99.300655 
L 220.338944 109.517371 
L 224.730949 120.616271 
L 229.244954 132.647239 
L 233.758959 145.310516 
L 238.394964 158.974218 
L 243.152969 173.691 
L 248.032974 189.5149 
L 253.034979 206.501345 
L 258.158985 224.707144 
L 263.40499 244.190494 
L 265.966993 254.016 
L 265.966993 254.016 
" clip-path="url(#pe869a6b1ba)" style="fill: none; stroke-dasharray: 1.5,2.475; stroke-dashoffset: 0; stroke: #ff6688; stroke-width: 1.5"/>
   </g>
  </g>
 </g>
 <defs>
  <clipPath id="pe869a6b1ba">
   <rect x="0" y="-0" width="357.12" height="266.112"/>
  </clipPath>
 </defs>
</svg>
