<?xml version="1.0" encoding="utf-8" standalone="no"?>
<!DOCTYPE svg PUBLIC "-//W3C//DTD SVG 1.1//EN"
  "http://www.w3.org/Graphics/SVG/1.1/DTD/svg11.dtd">
<svg xmlns:xlink="http://www.w3.org/1999/xlink" width="432pt" height="432pt" viewBox="0 0 432 432" xmlns="http://www.w3.org/2000/svg" version="1.1">
 <metadata>
  <rdf:RDF xmlns:dc="http://purl.org/dc/elements/1.1/" xmlns:cc="http://creativecommons.org/ns#" xmlns:rdf="http://www.w3.org/1999/02/22-rdf-syntax-ns#">
   <cc:Work>
    <dc:type rdf:resource="http://purl.org/dc/dcmitype/StillImage"/>
    <dc:date>2024-08-25T00:20:04.186260</dc:date>
    <dc:format>image/svg+xml</dc:format>
    <dc:creator>
     <cc:Agent>
      <dc:title>Matplotlib v3.8.2, https://matplotlib.org/</dc:title>
     </cc:Agent>
    </dc:creator>
   </cc:Work>
  </rdf:RDF>
 </metadata>
 <defs>
  <style type="text/css">*{stroke-linejoin: round; stroke-linecap: butt}</style>
 </defs>
 <g id="figure_1">
  <g id="patch_1">
   <path d="M 0 432 
L 432 432 
L 432 0 
L 0 0 
z
" style="fill: #ffffff"/>
  </g>
  <g id="axes_1">
   <g id="patch_2">
    <path d="M 68.6 186.028 
L 421.2 186.028 
L 421.2 34.56 
L 68.6 34.56 
z
" style="fill: #ffffff"/>
   </g>
   <g id="matplotlib.axis_1">
    <g id="xtick_1">
     <g id="line2d_1">
      <path d="M 143.905327 186.028 
L 143.905327 34.56 
" clip-path="url(#p38265bc2a4)" style="fill: none; stroke: #f0f0f0; stroke-width: 0.8; stroke-linecap: square"/>
     </g>
     <g id="line2d_2">
      <defs>
       <path id="m23e9e2199d" d="M 0 0 
L 0 3.5 
" style="stroke: #000000; stroke-width: 0.8"/>
      </defs>
      <g>
       <use xlink:href="#m23e9e2199d" x="143.905327" y="186.028" style="stroke: #000000; stroke-width: 0.8"/>
      </g>
     </g>
     <g id="text_1">
      <!-- $\mathdefault{10^{-3}}$ -->
      <g transform="translate(132.155327 200.626437) scale(0.1 -0.1)">
       <defs>
        <path id="DejaVuSans-31" d="M 794 531 
L 1825 531 
L 1825 4091 
L 703 3866 
L 703 4441 
L 1819 4666 
L 2450 4666 
L 2450 531 
L 3481 531 
L 3481 0 
L 794 0 
L 794 531 
z
" transform="scale(0.015625)"/>
        <path id="DejaVuSans-30" d="M 2034 4250 
Q 1547 4250 1301 3770 
Q 1056 3291 1056 2328 
Q 1056 1369 1301 889 
Q 1547 409 2034 409 
Q 2525 409 2770 889 
Q 3016 1369 3016 2328 
Q 3016 3291 2770 3770 
Q 2525 4250 2034 4250 
z
M 2034 4750 
Q 2819 4750 3233 4129 
Q 3647 3509 3647 2328 
Q 3647 1150 3233 529 
Q 2819 -91 2034 -91 
Q 1250 -91 836 529 
Q 422 1150 422 2328 
Q 422 3509 836 4129 
Q 1250 4750 2034 4750 
z
" transform="scale(0.015625)"/>
        <path id="DejaVuSans-2212" d="M 678 2272 
L 4684 2272 
L 4684 1741 
L 678 1741 
L 678 2272 
z
" transform="scale(0.015625)"/>
        <path id="DejaVuSans-33" d="M 2597 2516 
Q 3050 2419 3304 2112 
Q 3559 1806 3559 1356 
Q 3559 666 3084 287 
Q 2609 -91 1734 -91 
Q 1441 -91 1130 -33 
Q 819 25 488 141 
L 488 750 
Q 750 597 1062 519 
Q 1375 441 1716 441 
Q 2309 441 2620 675 
Q 2931 909 2931 1356 
Q 2931 1769 2642 2001 
Q 2353 2234 1838 2234 
L 1294 2234 
L 1294 2753 
L 1863 2753 
Q 2328 2753 2575 2939 
Q 2822 3125 2822 3475 
Q 2822 3834 2567 4026 
Q 2313 4219 1838 4219 
Q 1578 4219 1281 4162 
Q 984 4106 628 3988 
L 628 4550 
Q 988 4650 1302 4700 
Q 1616 4750 1894 4750 
Q 2613 4750 3031 4423 
Q 3450 4097 3450 3541 
Q 3450 3153 3228 2886 
Q 3006 2619 2597 2516 
z
" transform="scale(0.015625)"/>
       </defs>
       <use xlink:href="#DejaVuSans-31" transform="translate(0 0.765625)"/>
       <use xlink:href="#DejaVuSans-30" transform="translate(63.623047 0.765625)"/>
       <use xlink:href="#DejaVuSans-2212" transform="translate(128.203125 39.046875) scale(0.7)"/>
       <use xlink:href="#DejaVuSans-33" transform="translate(186.855469 39.046875) scale(0.7)"/>
      </g>
     </g>
    </g>
    <g id="xtick_2">
     <g id="line2d_3">
      <path d="M 240.707959 186.028 
L 240.707959 34.56 
" clip-path="url(#p38265bc2a4)" style="fill: none; stroke: #f0f0f0; stroke-width: 0.8; stroke-linecap: square"/>
     </g>
     <g id="line2d_4">
      <g>
       <use xlink:href="#m23e9e2199d" x="240.707959" y="186.028" style="stroke: #000000; stroke-width: 0.8"/>
      </g>
     </g>
     <g id="text_2">
      <!-- $\mathdefault{10^{-2}}$ -->
      <g transform="translate(228.957959 200.626437) scale(0.1 -0.1)">
       <defs>
        <path id="DejaVuSans-32" d="M 1228 531 
L 3431 531 
L 3431 0 
L 469 0 
L 469 531 
Q 828 903 1448 1529 
Q 2069 2156 2228 2338 
Q 2531 2678 2651 2914 
Q 2772 3150 2772 3378 
Q 2772 3750 2511 3984 
Q 2250 4219 1831 4219 
Q 1534 4219 1204 4116 
Q 875 4013 500 3803 
L 500 4441 
Q 881 4594 1212 4672 
Q 1544 4750 1819 4750 
Q 2544 4750 2975 4387 
Q 3406 4025 3406 3419 
Q 3406 3131 3298 2873 
Q 3191 2616 2906 2266 
Q 2828 2175 2409 1742 
Q 1991 1309 1228 531 
z
" transform="scale(0.015625)"/>
       </defs>
       <use xlink:href="#DejaVuSans-31" transform="translate(0 0.765625)"/>
       <use xlink:href="#DejaVuSans-30" transform="translate(63.623047 0.765625)"/>
       <use xlink:href="#DejaVuSans-2212" transform="translate(128.203125 39.046875) scale(0.7)"/>
       <use xlink:href="#DejaVuSans-32" transform="translate(186.855469 39.046875) scale(0.7)"/>
      </g>
     </g>
    </g>
    <g id="xtick_3">
     <g id="line2d_5">
      <path d="M 337.510591 186.028 
L 337.510591 34.56 
" clip-path="url(#p38265bc2a4)" style="fill: none; stroke: #f0f0f0; stroke-width: 0.8; stroke-linecap: square"/>
     </g>
     <g id="line2d_6">
      <g>
       <use xlink:href="#m23e9e2199d" x="337.510591" y="186.028" style="stroke: #000000; stroke-width: 0.8"/>
      </g>
     </g>
     <g id="text_3">
      <!-- $\mathdefault{10^{-1}}$ -->
      <g transform="translate(325.760591 200.626437) scale(0.1 -0.1)">
       <use xlink:href="#DejaVuSans-31" transform="translate(0 0.684375)"/>
       <use xlink:href="#DejaVuSans-30" transform="translate(63.623047 0.684375)"/>
       <use xlink:href="#DejaVuSans-2212" transform="translate(128.203125 38.965625) scale(0.7)"/>
       <use xlink:href="#DejaVuSans-31" transform="translate(186.855469 38.965625) scale(0.7)"/>
      </g>
     </g>
    </g>
    <g id="xtick_4">
     <g id="line2d_7">
      <path d="M 76.243191 186.028 
L 76.243191 34.56 
" clip-path="url(#p38265bc2a4)" style="fill: none; stroke: #f0f0f0; stroke-width: 0.8; stroke-linecap: square"/>
     </g>
     <g id="line2d_8">
      <defs>
       <path id="m7385a72c03" d="M 0 0 
L 0 2 
" style="stroke: #000000; stroke-width: 0.6"/>
      </defs>
      <g>
       <use xlink:href="#m7385a72c03" x="76.243191" y="186.028" style="stroke: #000000; stroke-width: 0.6"/>
      </g>
     </g>
    </g>
    <g id="xtick_5">
     <g id="line2d_9">
      <path d="M 93.289289 186.028 
L 93.289289 34.56 
" clip-path="url(#p38265bc2a4)" style="fill: none; stroke: #f0f0f0; stroke-width: 0.8; stroke-linecap: square"/>
     </g>
     <g id="line2d_10">
      <g>
       <use xlink:href="#m7385a72c03" x="93.289289" y="186.028" style="stroke: #000000; stroke-width: 0.6"/>
      </g>
     </g>
    </g>
    <g id="xtick_6">
     <g id="line2d_11">
      <path d="M 105.383687 186.028 
L 105.383687 34.56 
" clip-path="url(#p38265bc2a4)" style="fill: none; stroke: #f0f0f0; stroke-width: 0.8; stroke-linecap: square"/>
     </g>
     <g id="line2d_12">
      <g>
       <use xlink:href="#m7385a72c03" x="105.383687" y="186.028" style="stroke: #000000; stroke-width: 0.6"/>
      </g>
     </g>
    </g>
    <g id="xtick_7">
     <g id="line2d_13">
      <path d="M 114.764832 186.028 
L 114.764832 34.56 
" clip-path="url(#p38265bc2a4)" style="fill: none; stroke: #f0f0f0; stroke-width: 0.8; stroke-linecap: square"/>
     </g>
     <g id="line2d_14">
      <g>
       <use xlink:href="#m7385a72c03" x="114.764832" y="186.028" style="stroke: #000000; stroke-width: 0.6"/>
      </g>
     </g>
    </g>
    <g id="xtick_8">
     <g id="line2d_15">
      <path d="M 122.429785 186.028 
L 122.429785 34.56 
" clip-path="url(#p38265bc2a4)" style="fill: none; stroke: #f0f0f0; stroke-width: 0.8; stroke-linecap: square"/>
     </g>
     <g id="line2d_16">
      <g>
       <use xlink:href="#m7385a72c03" x="122.429785" y="186.028" style="stroke: #000000; stroke-width: 0.6"/>
      </g>
     </g>
    </g>
    <g id="xtick_9">
     <g id="line2d_17">
      <path d="M 128.91041 186.028 
L 128.91041 34.56 
" clip-path="url(#p38265bc2a4)" style="fill: none; stroke: #f0f0f0; stroke-width: 0.8; stroke-linecap: square"/>
     </g>
     <g id="line2d_18">
      <g>
       <use xlink:href="#m7385a72c03" x="128.91041" y="186.028" style="stroke: #000000; stroke-width: 0.6"/>
      </g>
     </g>
    </g>
    <g id="xtick_10">
     <g id="line2d_19">
      <path d="M 134.524183 186.028 
L 134.524183 34.56 
" clip-path="url(#p38265bc2a4)" style="fill: none; stroke: #f0f0f0; stroke-width: 0.8; stroke-linecap: square"/>
     </g>
     <g id="line2d_20">
      <g>
       <use xlink:href="#m7385a72c03" x="134.524183" y="186.028" style="stroke: #000000; stroke-width: 0.6"/>
      </g>
     </g>
    </g>
    <g id="xtick_11">
     <g id="line2d_21">
      <path d="M 139.475882 186.028 
L 139.475882 34.56 
" clip-path="url(#p38265bc2a4)" style="fill: none; stroke: #f0f0f0; stroke-width: 0.8; stroke-linecap: square"/>
     </g>
     <g id="line2d_22">
      <g>
       <use xlink:href="#m7385a72c03" x="139.475882" y="186.028" style="stroke: #000000; stroke-width: 0.6"/>
      </g>
     </g>
    </g>
    <g id="xtick_12">
     <g id="line2d_23">
      <path d="M 173.045823 186.028 
L 173.045823 34.56 
" clip-path="url(#p38265bc2a4)" style="fill: none; stroke: #f0f0f0; stroke-width: 0.8; stroke-linecap: square"/>
     </g>
     <g id="line2d_24">
      <g>
       <use xlink:href="#m7385a72c03" x="173.045823" y="186.028" style="stroke: #000000; stroke-width: 0.6"/>
      </g>
     </g>
    </g>
    <g id="xtick_13">
     <g id="line2d_25">
      <path d="M 190.091921 186.028 
L 190.091921 34.56 
" clip-path="url(#p38265bc2a4)" style="fill: none; stroke: #f0f0f0; stroke-width: 0.8; stroke-linecap: square"/>
     </g>
     <g id="line2d_26">
      <g>
       <use xlink:href="#m7385a72c03" x="190.091921" y="186.028" style="stroke: #000000; stroke-width: 0.6"/>
      </g>
     </g>
    </g>
    <g id="xtick_14">
     <g id="line2d_27">
      <path d="M 202.186319 186.028 
L 202.186319 34.56 
" clip-path="url(#p38265bc2a4)" style="fill: none; stroke: #f0f0f0; stroke-width: 0.8; stroke-linecap: square"/>
     </g>
     <g id="line2d_28">
      <g>
       <use xlink:href="#m7385a72c03" x="202.186319" y="186.028" style="stroke: #000000; stroke-width: 0.6"/>
      </g>
     </g>
    </g>
    <g id="xtick_15">
     <g id="line2d_29">
      <path d="M 211.567463 186.028 
L 211.567463 34.56 
" clip-path="url(#p38265bc2a4)" style="fill: none; stroke: #f0f0f0; stroke-width: 0.8; stroke-linecap: square"/>
     </g>
     <g id="line2d_30">
      <g>
       <use xlink:href="#m7385a72c03" x="211.567463" y="186.028" style="stroke: #000000; stroke-width: 0.6"/>
      </g>
     </g>
    </g>
    <g id="xtick_16">
     <g id="line2d_31">
      <path d="M 219.232416 186.028 
L 219.232416 34.56 
" clip-path="url(#p38265bc2a4)" style="fill: none; stroke: #f0f0f0; stroke-width: 0.8; stroke-linecap: square"/>
     </g>
     <g id="line2d_32">
      <g>
       <use xlink:href="#m7385a72c03" x="219.232416" y="186.028" style="stroke: #000000; stroke-width: 0.6"/>
      </g>
     </g>
    </g>
    <g id="xtick_17">
     <g id="line2d_33">
      <path d="M 225.713042 186.028 
L 225.713042 34.56 
" clip-path="url(#p38265bc2a4)" style="fill: none; stroke: #f0f0f0; stroke-width: 0.8; stroke-linecap: square"/>
     </g>
     <g id="line2d_34">
      <g>
       <use xlink:href="#m7385a72c03" x="225.713042" y="186.028" style="stroke: #000000; stroke-width: 0.6"/>
      </g>
     </g>
    </g>
    <g id="xtick_18">
     <g id="line2d_35">
      <path d="M 231.326815 186.028 
L 231.326815 34.56 
" clip-path="url(#p38265bc2a4)" style="fill: none; stroke: #f0f0f0; stroke-width: 0.8; stroke-linecap: square"/>
     </g>
     <g id="line2d_36">
      <g>
       <use xlink:href="#m7385a72c03" x="231.326815" y="186.028" style="stroke: #000000; stroke-width: 0.6"/>
      </g>
     </g>
    </g>
    <g id="xtick_19">
     <g id="line2d_37">
      <path d="M 236.278514 186.028 
L 236.278514 34.56 
" clip-path="url(#p38265bc2a4)" style="fill: none; stroke: #f0f0f0; stroke-width: 0.8; stroke-linecap: square"/>
     </g>
     <g id="line2d_38">
      <g>
       <use xlink:href="#m7385a72c03" x="236.278514" y="186.028" style="stroke: #000000; stroke-width: 0.6"/>
      </g>
     </g>
    </g>
    <g id="xtick_20">
     <g id="line2d_39">
      <path d="M 269.848455 186.028 
L 269.848455 34.56 
" clip-path="url(#p38265bc2a4)" style="fill: none; stroke: #f0f0f0; stroke-width: 0.8; stroke-linecap: square"/>
     </g>
     <g id="line2d_40">
      <g>
       <use xlink:href="#m7385a72c03" x="269.848455" y="186.028" style="stroke: #000000; stroke-width: 0.6"/>
      </g>
     </g>
    </g>
    <g id="xtick_21">
     <g id="line2d_41">
      <path d="M 286.894552 186.028 
L 286.894552 34.56 
" clip-path="url(#p38265bc2a4)" style="fill: none; stroke: #f0f0f0; stroke-width: 0.8; stroke-linecap: square"/>
     </g>
     <g id="line2d_42">
      <g>
       <use xlink:href="#m7385a72c03" x="286.894552" y="186.028" style="stroke: #000000; stroke-width: 0.6"/>
      </g>
     </g>
    </g>
    <g id="xtick_22">
     <g id="line2d_43">
      <path d="M 298.988951 186.028 
L 298.988951 34.56 
" clip-path="url(#p38265bc2a4)" style="fill: none; stroke: #f0f0f0; stroke-width: 0.8; stroke-linecap: square"/>
     </g>
     <g id="line2d_44">
      <g>
       <use xlink:href="#m7385a72c03" x="298.988951" y="186.028" style="stroke: #000000; stroke-width: 0.6"/>
      </g>
     </g>
    </g>
    <g id="xtick_23">
     <g id="line2d_45">
      <path d="M 308.370095 186.028 
L 308.370095 34.56 
" clip-path="url(#p38265bc2a4)" style="fill: none; stroke: #f0f0f0; stroke-width: 0.8; stroke-linecap: square"/>
     </g>
     <g id="line2d_46">
      <g>
       <use xlink:href="#m7385a72c03" x="308.370095" y="186.028" style="stroke: #000000; stroke-width: 0.6"/>
      </g>
     </g>
    </g>
    <g id="xtick_24">
     <g id="line2d_47">
      <path d="M 316.035048 186.028 
L 316.035048 34.56 
" clip-path="url(#p38265bc2a4)" style="fill: none; stroke: #f0f0f0; stroke-width: 0.8; stroke-linecap: square"/>
     </g>
     <g id="line2d_48">
      <g>
       <use xlink:href="#m7385a72c03" x="316.035048" y="186.028" style="stroke: #000000; stroke-width: 0.6"/>
      </g>
     </g>
    </g>
    <g id="xtick_25">
     <g id="line2d_49">
      <path d="M 322.515674 186.028 
L 322.515674 34.56 
" clip-path="url(#p38265bc2a4)" style="fill: none; stroke: #f0f0f0; stroke-width: 0.8; stroke-linecap: square"/>
     </g>
     <g id="line2d_50">
      <g>
       <use xlink:href="#m7385a72c03" x="322.515674" y="186.028" style="stroke: #000000; stroke-width: 0.6"/>
      </g>
     </g>
    </g>
    <g id="xtick_26">
     <g id="line2d_51">
      <path d="M 328.129447 186.028 
L 328.129447 34.56 
" clip-path="url(#p38265bc2a4)" style="fill: none; stroke: #f0f0f0; stroke-width: 0.8; stroke-linecap: square"/>
     </g>
     <g id="line2d_52">
      <g>
       <use xlink:href="#m7385a72c03" x="328.129447" y="186.028" style="stroke: #000000; stroke-width: 0.6"/>
      </g>
     </g>
    </g>
    <g id="xtick_27">
     <g id="line2d_53">
      <path d="M 333.081146 186.028 
L 333.081146 34.56 
" clip-path="url(#p38265bc2a4)" style="fill: none; stroke: #f0f0f0; stroke-width: 0.8; stroke-linecap: square"/>
     </g>
     <g id="line2d_54">
      <g>
       <use xlink:href="#m7385a72c03" x="333.081146" y="186.028" style="stroke: #000000; stroke-width: 0.6"/>
      </g>
     </g>
    </g>
    <g id="xtick_28">
     <g id="line2d_55">
      <path d="M 366.651087 186.028 
L 366.651087 34.56 
" clip-path="url(#p38265bc2a4)" style="fill: none; stroke: #f0f0f0; stroke-width: 0.8; stroke-linecap: square"/>
     </g>
     <g id="line2d_56">
      <g>
       <use xlink:href="#m7385a72c03" x="366.651087" y="186.028" style="stroke: #000000; stroke-width: 0.6"/>
      </g>
     </g>
    </g>
    <g id="xtick_29">
     <g id="line2d_57">
      <path d="M 383.697184 186.028 
L 383.697184 34.56 
" clip-path="url(#p38265bc2a4)" style="fill: none; stroke: #f0f0f0; stroke-width: 0.8; stroke-linecap: square"/>
     </g>
     <g id="line2d_58">
      <g>
       <use xlink:href="#m7385a72c03" x="383.697184" y="186.028" style="stroke: #000000; stroke-width: 0.6"/>
      </g>
     </g>
    </g>
    <g id="xtick_30">
     <g id="line2d_59">
      <path d="M 395.791583 186.028 
L 395.791583 34.56 
" clip-path="url(#p38265bc2a4)" style="fill: none; stroke: #f0f0f0; stroke-width: 0.8; stroke-linecap: square"/>
     </g>
     <g id="line2d_60">
      <g>
       <use xlink:href="#m7385a72c03" x="395.791583" y="186.028" style="stroke: #000000; stroke-width: 0.6"/>
      </g>
     </g>
    </g>
    <g id="xtick_31">
     <g id="line2d_61">
      <path d="M 405.172727 186.028 
L 405.172727 34.56 
" clip-path="url(#p38265bc2a4)" style="fill: none; stroke: #f0f0f0; stroke-width: 0.8; stroke-linecap: square"/>
     </g>
     <g id="line2d_62">
      <g>
       <use xlink:href="#m7385a72c03" x="405.172727" y="186.028" style="stroke: #000000; stroke-width: 0.6"/>
      </g>
     </g>
    </g>
    <g id="xtick_32">
     <g id="line2d_63">
      <path d="M 412.83768 186.028 
L 412.83768 34.56 
" clip-path="url(#p38265bc2a4)" style="fill: none; stroke: #f0f0f0; stroke-width: 0.8; stroke-linecap: square"/>
     </g>
     <g id="line2d_64">
      <g>
       <use xlink:href="#m7385a72c03" x="412.83768" y="186.028" style="stroke: #000000; stroke-width: 0.6"/>
      </g>
     </g>
    </g>
    <g id="xtick_33">
     <g id="line2d_65">
      <path d="M 419.318306 186.028 
L 419.318306 34.56 
" clip-path="url(#p38265bc2a4)" style="fill: none; stroke: #f0f0f0; stroke-width: 0.8; stroke-linecap: square"/>
     </g>
     <g id="line2d_66">
      <g>
       <use xlink:href="#m7385a72c03" x="419.318306" y="186.028" style="stroke: #000000; stroke-width: 0.6"/>
      </g>
     </g>
    </g>
    <g id="text_4">
     <!-- Target Frequency [rad/2π] -->
     <g transform="translate(180.349219 214.304562) scale(0.1 -0.1)">
      <defs>
       <path id="DejaVuSans-54" d="M -19 4666 
L 3928 4666 
L 3928 4134 
L 2272 4134 
L 2272 0 
L 1638 0 
L 1638 4134 
L -19 4134 
L -19 4666 
z
" transform="scale(0.015625)"/>
       <path id="DejaVuSans-61" d="M 2194 1759 
Q 1497 1759 1228 1600 
Q 959 1441 959 1056 
Q 959 750 1161 570 
Q 1363 391 1709 391 
Q 2188 391 2477 730 
Q 2766 1069 2766 1631 
L 2766 1759 
L 2194 1759 
z
M 3341 1997 
L 3341 0 
L 2766 0 
L 2766 531 
Q 2569 213 2275 61 
Q 1981 -91 1556 -91 
Q 1019 -91 701 211 
Q 384 513 384 1019 
Q 384 1609 779 1909 
Q 1175 2209 1959 2209 
L 2766 2209 
L 2766 2266 
Q 2766 2663 2505 2880 
Q 2244 3097 1772 3097 
Q 1472 3097 1187 3025 
Q 903 2953 641 2809 
L 641 3341 
Q 956 3463 1253 3523 
Q 1550 3584 1831 3584 
Q 2591 3584 2966 3190 
Q 3341 2797 3341 1997 
z
" transform="scale(0.015625)"/>
       <path id="DejaVuSans-72" d="M 2631 2963 
Q 2534 3019 2420 3045 
Q 2306 3072 2169 3072 
Q 1681 3072 1420 2755 
Q 1159 2438 1159 1844 
L 1159 0 
L 581 0 
L 581 3500 
L 1159 3500 
L 1159 2956 
Q 1341 3275 1631 3429 
Q 1922 3584 2338 3584 
Q 2397 3584 2469 3576 
Q 2541 3569 2628 3553 
L 2631 2963 
z
" transform="scale(0.015625)"/>
       <path id="DejaVuSans-67" d="M 2906 1791 
Q 2906 2416 2648 2759 
Q 2391 3103 1925 3103 
Q 1463 3103 1205 2759 
Q 947 2416 947 1791 
Q 947 1169 1205 825 
Q 1463 481 1925 481 
Q 2391 481 2648 825 
Q 2906 1169 2906 1791 
z
M 3481 434 
Q 3481 -459 3084 -895 
Q 2688 -1331 1869 -1331 
Q 1566 -1331 1297 -1286 
Q 1028 -1241 775 -1147 
L 775 -588 
Q 1028 -725 1275 -790 
Q 1522 -856 1778 -856 
Q 2344 -856 2625 -561 
Q 2906 -266 2906 331 
L 2906 616 
Q 2728 306 2450 153 
Q 2172 0 1784 0 
Q 1141 0 747 490 
Q 353 981 353 1791 
Q 353 2603 747 3093 
Q 1141 3584 1784 3584 
Q 2172 3584 2450 3431 
Q 2728 3278 2906 2969 
L 2906 3500 
L 3481 3500 
L 3481 434 
z
" transform="scale(0.015625)"/>
       <path id="DejaVuSans-65" d="M 3597 1894 
L 3597 1613 
L 953 1613 
Q 991 1019 1311 708 
Q 1631 397 2203 397 
Q 2534 397 2845 478 
Q 3156 559 3463 722 
L 3463 178 
Q 3153 47 2828 -22 
Q 2503 -91 2169 -91 
Q 1331 -91 842 396 
Q 353 884 353 1716 
Q 353 2575 817 3079 
Q 1281 3584 2069 3584 
Q 2775 3584 3186 3129 
Q 3597 2675 3597 1894 
z
M 3022 2063 
Q 3016 2534 2758 2815 
Q 2500 3097 2075 3097 
Q 1594 3097 1305 2825 
Q 1016 2553 972 2059 
L 3022 2063 
z
" transform="scale(0.015625)"/>
       <path id="DejaVuSans-74" d="M 1172 4494 
L 1172 3500 
L 2356 3500 
L 2356 3053 
L 1172 3053 
L 1172 1153 
Q 1172 725 1289 603 
Q 1406 481 1766 481 
L 2356 481 
L 2356 0 
L 1766 0 
Q 1100 0 847 248 
Q 594 497 594 1153 
L 594 3053 
L 172 3053 
L 172 3500 
L 594 3500 
L 594 4494 
L 1172 4494 
z
" transform="scale(0.015625)"/>
       <path id="DejaVuSans-20" transform="scale(0.015625)"/>
       <path id="DejaVuSans-46" d="M 628 4666 
L 3309 4666 
L 3309 4134 
L 1259 4134 
L 1259 2759 
L 3109 2759 
L 3109 2228 
L 1259 2228 
L 1259 0 
L 628 0 
L 628 4666 
z
" transform="scale(0.015625)"/>
       <path id="DejaVuSans-71" d="M 947 1747 
Q 947 1113 1208 752 
Q 1469 391 1925 391 
Q 2381 391 2643 752 
Q 2906 1113 2906 1747 
Q 2906 2381 2643 2742 
Q 2381 3103 1925 3103 
Q 1469 3103 1208 2742 
Q 947 2381 947 1747 
z
M 2906 525 
Q 2725 213 2448 61 
Q 2172 -91 1784 -91 
Q 1150 -91 751 415 
Q 353 922 353 1747 
Q 353 2572 751 3078 
Q 1150 3584 1784 3584 
Q 2172 3584 2448 3432 
Q 2725 3281 2906 2969 
L 2906 3500 
L 3481 3500 
L 3481 -1331 
L 2906 -1331 
L 2906 525 
z
" transform="scale(0.015625)"/>
       <path id="DejaVuSans-75" d="M 544 1381 
L 544 3500 
L 1119 3500 
L 1119 1403 
Q 1119 906 1312 657 
Q 1506 409 1894 409 
Q 2359 409 2629 706 
Q 2900 1003 2900 1516 
L 2900 3500 
L 3475 3500 
L 3475 0 
L 2900 0 
L 2900 538 
Q 2691 219 2414 64 
Q 2138 -91 1772 -91 
Q 1169 -91 856 284 
Q 544 659 544 1381 
z
M 1991 3584 
L 1991 3584 
z
" transform="scale(0.015625)"/>
       <path id="DejaVuSans-6e" d="M 3513 2113 
L 3513 0 
L 2938 0 
L 2938 2094 
Q 2938 2591 2744 2837 
Q 2550 3084 2163 3084 
Q 1697 3084 1428 2787 
Q 1159 2491 1159 1978 
L 1159 0 
L 581 0 
L 581 3500 
L 1159 3500 
L 1159 2956 
Q 1366 3272 1645 3428 
Q 1925 3584 2291 3584 
Q 2894 3584 3203 3211 
Q 3513 2838 3513 2113 
z
" transform="scale(0.015625)"/>
       <path id="DejaVuSans-63" d="M 3122 3366 
L 3122 2828 
Q 2878 2963 2633 3030 
Q 2388 3097 2138 3097 
Q 1578 3097 1268 2742 
Q 959 2388 959 1747 
Q 959 1106 1268 751 
Q 1578 397 2138 397 
Q 2388 397 2633 464 
Q 2878 531 3122 666 
L 3122 134 
Q 2881 22 2623 -34 
Q 2366 -91 2075 -91 
Q 1284 -91 818 406 
Q 353 903 353 1747 
Q 353 2603 823 3093 
Q 1294 3584 2113 3584 
Q 2378 3584 2631 3529 
Q 2884 3475 3122 3366 
z
" transform="scale(0.015625)"/>
       <path id="DejaVuSans-79" d="M 2059 -325 
Q 1816 -950 1584 -1140 
Q 1353 -1331 966 -1331 
L 506 -1331 
L 506 -850 
L 844 -850 
Q 1081 -850 1212 -737 
Q 1344 -625 1503 -206 
L 1606 56 
L 191 3500 
L 800 3500 
L 1894 763 
L 2988 3500 
L 3597 3500 
L 2059 -325 
z
" transform="scale(0.015625)"/>
       <path id="DejaVuSans-5b" d="M 550 4863 
L 1875 4863 
L 1875 4416 
L 1125 4416 
L 1125 -397 
L 1875 -397 
L 1875 -844 
L 550 -844 
L 550 4863 
z
" transform="scale(0.015625)"/>
       <path id="DejaVuSans-64" d="M 2906 2969 
L 2906 4863 
L 3481 4863 
L 3481 0 
L 2906 0 
L 2906 525 
Q 2725 213 2448 61 
Q 2172 -91 1784 -91 
Q 1150 -91 751 415 
Q 353 922 353 1747 
Q 353 2572 751 3078 
Q 1150 3584 1784 3584 
Q 2172 3584 2448 3432 
Q 2725 3281 2906 2969 
z
M 947 1747 
Q 947 1113 1208 752 
Q 1469 391 1925 391 
Q 2381 391 2643 752 
Q 2906 1113 2906 1747 
Q 2906 2381 2643 2742 
Q 2381 3103 1925 3103 
Q 1469 3103 1208 2742 
Q 947 2381 947 1747 
z
" transform="scale(0.015625)"/>
       <path id="DejaVuSans-2f" d="M 1625 4666 
L 2156 4666 
L 531 -594 
L 0 -594 
L 1625 4666 
z
" transform="scale(0.015625)"/>
       <path id="DejaVuSans-3c0" d="M 231 3500 
L 3584 3500 
L 3584 2925 
L 3144 2925 
L 3144 775 
Q 3144 550 3220 451 
Q 3297 353 3469 353 
Q 3516 353 3584 361 
Q 3653 369 3675 372 
L 3675 -44 
Q 3566 -84 3450 -103 
Q 3334 -122 3219 -122 
Q 2844 -122 2700 83 
Q 2556 288 2556 838 
L 2556 2925 
L 1266 2925 
L 1266 0 
L 678 0 
L 678 2925 
L 231 2925 
L 231 3500 
z
" transform="scale(0.015625)"/>
       <path id="DejaVuSans-5d" d="M 1947 4863 
L 1947 -844 
L 622 -844 
L 622 -397 
L 1369 -397 
L 1369 4416 
L 622 4416 
L 622 4863 
L 1947 4863 
z
" transform="scale(0.015625)"/>
      </defs>
      <use xlink:href="#DejaVuSans-54"/>
      <use xlink:href="#DejaVuSans-61" x="44.583984"/>
      <use xlink:href="#DejaVuSans-72" x="105.863281"/>
      <use xlink:href="#DejaVuSans-67" x="145.226562"/>
      <use xlink:href="#DejaVuSans-65" x="208.703125"/>
      <use xlink:href="#DejaVuSans-74" x="270.226562"/>
      <use xlink:href="#DejaVuSans-20" x="309.435547"/>
      <use xlink:href="#DejaVuSans-46" x="341.222656"/>
      <use xlink:href="#DejaVuSans-72" x="391.492188"/>
      <use xlink:href="#DejaVuSans-65" x="430.355469"/>
      <use xlink:href="#DejaVuSans-71" x="491.878906"/>
      <use xlink:href="#DejaVuSans-75" x="555.355469"/>
      <use xlink:href="#DejaVuSans-65" x="618.734375"/>
      <use xlink:href="#DejaVuSans-6e" x="680.257812"/>
      <use xlink:href="#DejaVuSans-63" x="743.636719"/>
      <use xlink:href="#DejaVuSans-79" x="798.617188"/>
      <use xlink:href="#DejaVuSans-20" x="857.796875"/>
      <use xlink:href="#DejaVuSans-5b" x="889.583984"/>
      <use xlink:href="#DejaVuSans-72" x="928.597656"/>
      <use xlink:href="#DejaVuSans-61" x="969.710938"/>
      <use xlink:href="#DejaVuSans-64" x="1030.990234"/>
      <use xlink:href="#DejaVuSans-2f" x="1094.466797"/>
      <use xlink:href="#DejaVuSans-32" x="1128.158203"/>
      <use xlink:href="#DejaVuSans-3c0" x="1191.78125"/>
      <use xlink:href="#DejaVuSans-5d" x="1251.986328"/>
     </g>
    </g>
   </g>
   <g id="matplotlib.axis_2">
    <g id="ytick_1">
     <g id="line2d_67">
      <path d="M 68.6 179.143091 
L 421.2 179.143091 
" clip-path="url(#p38265bc2a4)" style="fill: none; stroke: #f0f0f0; stroke-width: 0.8; stroke-linecap: square"/>
     </g>
     <g id="line2d_68">
      <defs>
       <path id="m46885d4158" d="M 0 0 
L -3.5 0 
" style="stroke: #000000; stroke-width: 0.8"/>
      </defs>
      <g>
       <use xlink:href="#m46885d4158" x="68.6" y="179.143091" style="stroke: #000000; stroke-width: 0.8"/>
      </g>
     </g>
     <g id="text_5">
      <!-- 0.0 -->
      <g transform="translate(45.696875 182.94231) scale(0.1 -0.1)">
       <defs>
        <path id="DejaVuSans-2e" d="M 684 794 
L 1344 794 
L 1344 0 
L 684 0 
L 684 794 
z
" transform="scale(0.015625)"/>
       </defs>
       <use xlink:href="#DejaVuSans-30"/>
       <use xlink:href="#DejaVuSans-2e" x="63.623047"/>
       <use xlink:href="#DejaVuSans-30" x="95.410156"/>
      </g>
     </g>
    </g>
    <g id="ytick_2">
     <g id="line2d_69">
      <path d="M 68.6 144.276353 
L 421.2 144.276353 
" clip-path="url(#p38265bc2a4)" style="fill: none; stroke: #f0f0f0; stroke-width: 0.8; stroke-linecap: square"/>
     </g>
     <g id="line2d_70">
      <g>
       <use xlink:href="#m46885d4158" x="68.6" y="144.276353" style="stroke: #000000; stroke-width: 0.8"/>
      </g>
     </g>
     <g id="text_6">
      <!-- 0.1 -->
      <g transform="translate(45.696875 148.075572) scale(0.1 -0.1)">
       <use xlink:href="#DejaVuSans-30"/>
       <use xlink:href="#DejaVuSans-2e" x="63.623047"/>
       <use xlink:href="#DejaVuSans-31" x="95.410156"/>
      </g>
     </g>
    </g>
    <g id="ytick_3">
     <g id="line2d_71">
      <path d="M 68.6 109.409615 
L 421.2 109.409615 
" clip-path="url(#p38265bc2a4)" style="fill: none; stroke: #f0f0f0; stroke-width: 0.8; stroke-linecap: square"/>
     </g>
     <g id="line2d_72">
      <g>
       <use xlink:href="#m46885d4158" x="68.6" y="109.409615" style="stroke: #000000; stroke-width: 0.8"/>
      </g>
     </g>
     <g id="text_7">
      <!-- 0.2 -->
      <g transform="translate(45.696875 113.208834) scale(0.1 -0.1)">
       <use xlink:href="#DejaVuSans-30"/>
       <use xlink:href="#DejaVuSans-2e" x="63.623047"/>
       <use xlink:href="#DejaVuSans-32" x="95.410156"/>
      </g>
     </g>
    </g>
    <g id="ytick_4">
     <g id="line2d_73">
      <path d="M 68.6 74.542877 
L 421.2 74.542877 
" clip-path="url(#p38265bc2a4)" style="fill: none; stroke: #f0f0f0; stroke-width: 0.8; stroke-linecap: square"/>
     </g>
     <g id="line2d_74">
      <g>
       <use xlink:href="#m46885d4158" x="68.6" y="74.542877" style="stroke: #000000; stroke-width: 0.8"/>
      </g>
     </g>
     <g id="text_8">
      <!-- 0.3 -->
      <g transform="translate(45.696875 78.342096) scale(0.1 -0.1)">
       <use xlink:href="#DejaVuSans-30"/>
       <use xlink:href="#DejaVuSans-2e" x="63.623047"/>
       <use xlink:href="#DejaVuSans-33" x="95.410156"/>
      </g>
     </g>
    </g>
    <g id="ytick_5">
     <g id="line2d_75">
      <path d="M 68.6 39.67614 
L 421.2 39.67614 
" clip-path="url(#p38265bc2a4)" style="fill: none; stroke: #f0f0f0; stroke-width: 0.8; stroke-linecap: square"/>
     </g>
     <g id="line2d_76">
      <g>
       <use xlink:href="#m46885d4158" x="68.6" y="39.67614" style="stroke: #000000; stroke-width: 0.8"/>
      </g>
     </g>
     <g id="text_9">
      <!-- 0.4 -->
      <g transform="translate(45.696875 43.475358) scale(0.1 -0.1)">
       <defs>
        <path id="DejaVuSans-34" d="M 2419 4116 
L 825 1625 
L 2419 1625 
L 2419 4116 
z
M 2253 4666 
L 3047 4666 
L 3047 1625 
L 3713 1625 
L 3713 1100 
L 3047 1100 
L 3047 0 
L 2419 0 
L 2419 1100 
L 313 1100 
L 313 1709 
L 2253 4666 
z
" transform="scale(0.015625)"/>
       </defs>
       <use xlink:href="#DejaVuSans-30"/>
       <use xlink:href="#DejaVuSans-2e" x="63.623047"/>
       <use xlink:href="#DejaVuSans-34" x="95.410156"/>
      </g>
     </g>
    </g>
    <g id="text_10">
     <!-- Phase Error Avg. [rad/2π] -->
     <g transform="translate(39.617188 173.095563) rotate(-90) scale(0.1 -0.1)">
      <defs>
       <path id="DejaVuSans-50" d="M 1259 4147 
L 1259 2394 
L 2053 2394 
Q 2494 2394 2734 2622 
Q 2975 2850 2975 3272 
Q 2975 3691 2734 3919 
Q 2494 4147 2053 4147 
L 1259 4147 
z
M 628 4666 
L 2053 4666 
Q 2838 4666 3239 4311 
Q 3641 3956 3641 3272 
Q 3641 2581 3239 2228 
Q 2838 1875 2053 1875 
L 1259 1875 
L 1259 0 
L 628 0 
L 628 4666 
z
" transform="scale(0.015625)"/>
       <path id="DejaVuSans-68" d="M 3513 2113 
L 3513 0 
L 2938 0 
L 2938 2094 
Q 2938 2591 2744 2837 
Q 2550 3084 2163 3084 
Q 1697 3084 1428 2787 
Q 1159 2491 1159 1978 
L 1159 0 
L 581 0 
L 581 4863 
L 1159 4863 
L 1159 2956 
Q 1366 3272 1645 3428 
Q 1925 3584 2291 3584 
Q 2894 3584 3203 3211 
Q 3513 2838 3513 2113 
z
" transform="scale(0.015625)"/>
       <path id="DejaVuSans-73" d="M 2834 3397 
L 2834 2853 
Q 2591 2978 2328 3040 
Q 2066 3103 1784 3103 
Q 1356 3103 1142 2972 
Q 928 2841 928 2578 
Q 928 2378 1081 2264 
Q 1234 2150 1697 2047 
L 1894 2003 
Q 2506 1872 2764 1633 
Q 3022 1394 3022 966 
Q 3022 478 2636 193 
Q 2250 -91 1575 -91 
Q 1294 -91 989 -36 
Q 684 19 347 128 
L 347 722 
Q 666 556 975 473 
Q 1284 391 1588 391 
Q 1994 391 2212 530 
Q 2431 669 2431 922 
Q 2431 1156 2273 1281 
Q 2116 1406 1581 1522 
L 1381 1569 
Q 847 1681 609 1914 
Q 372 2147 372 2553 
Q 372 3047 722 3315 
Q 1072 3584 1716 3584 
Q 2034 3584 2315 3537 
Q 2597 3491 2834 3397 
z
" transform="scale(0.015625)"/>
       <path id="DejaVuSans-45" d="M 628 4666 
L 3578 4666 
L 3578 4134 
L 1259 4134 
L 1259 2753 
L 3481 2753 
L 3481 2222 
L 1259 2222 
L 1259 531 
L 3634 531 
L 3634 0 
L 628 0 
L 628 4666 
z
" transform="scale(0.015625)"/>
       <path id="DejaVuSans-6f" d="M 1959 3097 
Q 1497 3097 1228 2736 
Q 959 2375 959 1747 
Q 959 1119 1226 758 
Q 1494 397 1959 397 
Q 2419 397 2687 759 
Q 2956 1122 2956 1747 
Q 2956 2369 2687 2733 
Q 2419 3097 1959 3097 
z
M 1959 3584 
Q 2709 3584 3137 3096 
Q 3566 2609 3566 1747 
Q 3566 888 3137 398 
Q 2709 -91 1959 -91 
Q 1206 -91 779 398 
Q 353 888 353 1747 
Q 353 2609 779 3096 
Q 1206 3584 1959 3584 
z
" transform="scale(0.015625)"/>
       <path id="DejaVuSans-41" d="M 2188 4044 
L 1331 1722 
L 3047 1722 
L 2188 4044 
z
M 1831 4666 
L 2547 4666 
L 4325 0 
L 3669 0 
L 3244 1197 
L 1141 1197 
L 716 0 
L 50 0 
L 1831 4666 
z
" transform="scale(0.015625)"/>
       <path id="DejaVuSans-76" d="M 191 3500 
L 800 3500 
L 1894 563 
L 2988 3500 
L 3597 3500 
L 2284 0 
L 1503 0 
L 191 3500 
z
" transform="scale(0.015625)"/>
      </defs>
      <use xlink:href="#DejaVuSans-50"/>
      <use xlink:href="#DejaVuSans-68" x="60.302734"/>
      <use xlink:href="#DejaVuSans-61" x="123.681641"/>
      <use xlink:href="#DejaVuSans-73" x="184.960938"/>
      <use xlink:href="#DejaVuSans-65" x="237.060547"/>
      <use xlink:href="#DejaVuSans-20" x="298.583984"/>
      <use xlink:href="#DejaVuSans-45" x="330.371094"/>
      <use xlink:href="#DejaVuSans-72" x="393.554688"/>
      <use xlink:href="#DejaVuSans-72" x="432.917969"/>
      <use xlink:href="#DejaVuSans-6f" x="471.78125"/>
      <use xlink:href="#DejaVuSans-72" x="532.962891"/>
      <use xlink:href="#DejaVuSans-20" x="574.076172"/>
      <use xlink:href="#DejaVuSans-41" x="605.863281"/>
      <use xlink:href="#DejaVuSans-76" x="668.396484"/>
      <use xlink:href="#DejaVuSans-67" x="727.576172"/>
      <use xlink:href="#DejaVuSans-2e" x="791.052734"/>
      <use xlink:href="#DejaVuSans-20" x="822.839844"/>
      <use xlink:href="#DejaVuSans-5b" x="854.626953"/>
      <use xlink:href="#DejaVuSans-72" x="893.640625"/>
      <use xlink:href="#DejaVuSans-61" x="934.753906"/>
      <use xlink:href="#DejaVuSans-64" x="996.033203"/>
      <use xlink:href="#DejaVuSans-2f" x="1059.509766"/>
      <use xlink:href="#DejaVuSans-32" x="1093.201172"/>
      <use xlink:href="#DejaVuSans-3c0" x="1156.824219"/>
      <use xlink:href="#DejaVuSans-5d" x="1217.029297"/>
     </g>
    </g>
   </g>
   <g id="line2d_77">
    <path d="M 84.627273 179.143091 
L 405.172727 179.143091 
L 405.172727 179.143091 
" clip-path="url(#p38265bc2a4)" style="fill: none; stroke: #0b0000; stroke-opacity: 0.75; stroke-width: 1.5; stroke-linecap: square"/>
   </g>
   <g id="line2d_78">
    <path d="M 84.627273 179.143091 
L 405.172727 179.143091 
L 405.172727 179.143091 
" clip-path="url(#p38265bc2a4)" style="fill: none; stroke: #b30000; stroke-opacity: 0.75; stroke-width: 1.5; stroke-linecap: square"/>
   </g>
   <g id="line2d_79">
    <path d="M 84.627273 117.744763 
L 93.42656 119.212337 
L 104.739929 121.703124 
L 112.282175 124.015506 
L 117.310339 125.883891 
L 119.824421 126.946783 
L 122.338503 128.15312 
L 127.366667 130.981737 
L 131.13779 133.488112 
L 134.908913 136.773388 
L 137.422995 139.329882 
L 139.937077 142.362892 
L 141.194118 144.238807 
L 143.7082 148.817512 
L 144.965241 151.905933 
L 146.222282 155.561513 
L 147.479323 160.202649 
L 148.736364 116.720572 
L 149.993405 117.390094 
L 153.764528 119.916935 
L 157.535651 122.973494 
L 160.049733 125.318836 
L 162.563815 128.019313 
L 165.077897 131.337318 
L 167.591979 135.281036 
L 168.84902 137.654962 
L 170.106061 140.34381 
L 171.363102 143.585329 
L 172.620143 147.569842 
L 173.877184 153.275761 
L 175.134225 162.317912 
L 176.391266 119.548991 
L 178.905348 122.557793 
L 181.41943 126.091247 
L 183.933512 130.505627 
L 185.190553 133.022546 
L 186.447594 136.046932 
L 187.704635 139.509434 
L 188.961676 144.080494 
L 190.218717 150.28444 
L 191.475758 162.730505 
L 192.732799 122.041655 
L 195.246881 126.520803 
L 196.503922 129.129829 
L 197.760963 132.152216 
L 199.018004 135.67438 
L 200.275045 139.987841 
L 201.532086 145.66278 
L 202.789127 155.091512 
L 204.046168 123.841538 
L 205.303209 126.44713 
L 206.56025 129.395849 
L 207.817291 132.854586 
L 209.074332 136.956364 
L 210.331373 142.367443 
L 211.588414 150.32907 
L 212.845455 125.474073 
L 214.102496 128.491091 
L 215.359537 131.955552 
L 216.616578 136.227058 
L 217.873619 141.677887 
L 219.13066 149.70807 
L 220.387701 127.942259 
L 221.644742 131.432811 
L 222.901783 135.54416 
L 224.158824 140.864258 
L 225.415865 148.484299 
L 226.672906 130.188197 
L 227.929947 134.024926 
L 229.186988 138.692805 
L 230.444029 144.974228 
L 231.70107 156.954963 
L 232.958111 135.138213 
L 234.215152 139.856903 
L 235.472193 146.270832 
L 236.729234 159.851776 
L 237.986275 138.474276 
L 239.243316 143.690475 
L 240.500357 151.689412 
L 241.757398 139.178894 
L 243.014439 144.065231 
L 244.27148 150.959145 
L 245.52852 141.438204 
L 246.785561 146.269321 
L 248.042602 153.263086 
L 249.299643 145.017923 
L 250.556684 150.085342 
L 251.813725 158.338744 
L 253.070766 149.841539 
L 254.327807 155.576313 
L 255.584848 151.179208 
L 256.841889 156.008368 
L 258.09893 165.217287 
L 259.355971 158.009449 
L 260.613012 164.455543 
L 261.870053 161.148912 
L 263.127094 166.59746 
L 264.384135 165.263616 
L 265.641176 170.04788 
L 266.898217 170.370715 
L 268.155258 174.324087 
L 269.412299 177.006046 
L 270.66934 177.083137 
L 273.183422 168.303111 
L 274.440463 166.294386 
L 275.697504 166.139194 
L 276.954545 159.187754 
L 278.211586 158.168028 
L 279.468627 158.534444 
L 280.725668 162.457689 
L 281.982709 148.549158 
L 283.23975 147.981919 
L 284.496791 148.070739 
L 285.753832 148.87613 
L 287.010873 150.443049 
L 288.267914 152.927061 
L 289.524955 156.052536 
L 290.781996 159.477293 
L 292.039037 159.808696 
L 293.296078 155.781012 
L 294.553119 150.093322 
L 295.81016 143.763353 
L 298.324242 129.185135 
L 300.838324 113.308355 
L 302.095365 142.980798 
L 303.352406 124.190054 
L 304.609447 109.906008 
L 305.866488 139.487202 
L 307.123529 113.613524 
L 308.38057 148.4906 
L 309.637611 111.615229 
L 310.894652 141.465892 
L 312.151693 101.305372 
L 313.408734 118.802561 
L 314.665775 141.93409 
L 315.922816 91.414112 
L 318.436898 106.616483 
L 319.693939 111.615746 
L 320.95098 112.67223 
L 322.208021 108.890508 
L 323.465062 100.30615 
L 324.722103 88.035524 
L 325.979144 132.166258 
L 327.236185 121.7533 
L 328.493226 93.397386 
L 329.750267 126.095214 
L 331.007308 95.995982 
L 332.264349 119.481177 
L 333.52139 73.959432 
L 334.778431 93.584912 
L 336.035472 103.542184 
L 337.292513 105.768852 
L 338.549554 103.784858 
L 339.806595 97.615223 
L 341.063636 84.614596 
L 342.320677 122.797918 
L 343.577718 99.834445 
L 344.834759 125.372322 
L 346.0918 92.132281 
L 347.348841 110.208759 
L 348.605882 119.195358 
L 349.862923 120.26689 
L 351.119964 117.245991 
L 352.377005 107.410824 
L 353.634046 85.880157 
L 354.891087 114.949333 
L 356.148128 83.633673 
L 357.405169 99.921203 
L 358.66221 105.698482 
L 359.919251 104.288634 
L 361.176292 94.878901 
L 362.433333 75.459435 
L 363.690374 106.272712 
L 364.947415 65.533727 
L 366.204456 76.112451 
L 367.461497 75.801014 
L 368.718538 111.543013 
L 369.975579 102.33189 
L 371.23262 68.635905 
L 372.489661 83.400112 
L 373.746702 84.745723 
L 375.003743 74.041902 
L 376.260784 108.06317 
L 377.517825 71.14919 
L 378.774866 80.987424 
L 380.031907 75.227072 
L 381.288948 108.371884 
L 382.545989 79.617487 
L 383.80303 87.711262 
L 385.060071 80.386265 
L 386.317112 108.641136 
L 387.574153 76.206862 
L 388.831194 77.896454 
L 390.088235 106.965134 
L 391.345276 84.368676 
L 392.602317 89.864444 
L 393.859358 75.267261 
L 395.116399 98.508431 
L 396.37344 100.659056 
L 397.630481 86.154251 
L 398.887522 102.323801 
L 400.144563 100.13692 
L 401.401604 76.53529 
L 402.658645 84.789158 
L 403.915686 68.347421 
L 405.172727 84.316799 
L 405.172727 84.316799 
" clip-path="url(#p38265bc2a4)" style="fill: none; stroke: #ff5c00; stroke-opacity: 0.75; stroke-width: 1.5; stroke-linecap: square"/>
   </g>
   <g id="line2d_80">
    <path d="M 84.627273 92.03958 
L 89.655437 91.87363 
L 94.683601 91.959663 
L 100.968806 92.250216 
L 104.739929 92.062548 
L 111.025134 91.481118 
L 113.539216 91.646855 
L 118.56738 92.440455 
L 119.824421 92.45036 
L 121.081462 92.349018 
L 124.852585 91.764507 
L 126.109626 91.701052 
L 127.366667 91.754419 
L 129.880749 92.055187 
L 131.13779 92.068637 
L 134.908913 91.689361 
L 136.165954 91.802721 
L 138.680036 92.3922 
L 139.937077 92.462441 
L 141.194118 92.241743 
L 142.451159 91.757704 
L 143.7082 91.487164 
L 144.965241 91.559953 
L 146.222282 91.954945 
L 147.479323 92.216249 
L 148.736364 92.199484 
L 149.993405 91.919131 
L 151.250446 91.888272 
L 152.507487 92.163476 
L 153.764528 92.22694 
L 156.27861 91.474136 
L 157.535651 91.674892 
L 158.792692 92.347575 
L 160.049733 92.426232 
L 161.306774 91.884301 
L 162.563815 91.687726 
L 163.820856 92.041025 
L 165.077897 91.966206 
L 166.334938 91.692073 
L 167.591979 92.159327 
L 168.84902 92.459338 
L 170.106061 91.66931 
L 171.363102 91.558557 
L 172.620143 92.220842 
L 173.877184 91.986212 
L 175.134225 91.976547 
L 176.391266 92.197124 
L 177.648307 91.472132 
L 178.905348 92.0691 
L 180.162389 92.394628 
L 181.41943 91.660597 
L 182.676471 92.085636 
L 183.933512 91.671709 
L 185.190553 92.421413 
L 186.447594 91.780692 
L 187.704635 91.802094 
L 188.961676 92.1355 
L 190.218717 92.10047 
L 191.475758 91.728703 
L 192.732799 92.104439 
L 193.98984 91.99057 
L 195.246881 92.026563 
L 196.503922 91.680765 
L 197.760963 92.490355 
L 199.018004 91.510222 
L 200.275045 92.058086 
L 201.532086 92.273807 
L 202.789127 91.539168 
L 204.046168 92.062522 
L 206.56025 92.184749 
L 207.817291 91.354212 
L 209.074332 92.121116 
L 210.331373 92.16252 
L 211.588414 92.471513 
L 212.845455 91.749659 
L 214.102496 91.866082 
L 215.359537 91.302346 
L 216.616578 91.851028 
L 217.873619 91.348269 
L 219.13066 91.802932 
L 220.387701 91.638773 
L 221.644742 91.305036 
L 222.901783 91.817017 
L 224.158824 91.571074 
L 225.415865 91.8309 
L 226.672906 92.683854 
L 227.929947 92.391314 
L 229.186988 91.241287 
L 230.444029 91.629908 
L 231.70107 92.644422 
L 232.958111 91.84898 
L 234.215152 92.463221 
L 235.472193 91.722482 
L 236.729234 91.823362 
L 237.986275 91.303036 
L 239.243316 92.106156 
L 240.500357 91.006585 
L 243.014439 92.194703 
L 245.52852 91.387142 
L 246.785561 91.616731 
L 248.042602 91.699532 
L 249.299643 91.127975 
L 250.556684 90.724298 
L 251.813725 92.132694 
L 253.070766 93.28279 
L 254.327807 91.4974 
L 255.584848 91.621192 
L 256.841889 92.564867 
L 258.09893 91.304999 
L 259.355971 92.506117 
L 260.613012 92.37836 
L 261.870053 89.562577 
L 263.127094 91.725068 
L 264.384135 95.461704 
L 265.641176 95.927919 
L 266.898217 93.135871 
L 268.155258 83.401981 
L 269.412299 41.444909 
L 270.66934 84.234242 
L 271.926381 99.473911 
L 273.183422 87.312903 
L 274.440463 91.79128 
L 275.697504 94.220784 
L 276.954545 93.782063 
L 278.211586 92.059376 
L 279.468627 93.906158 
L 280.725668 91.222487 
L 281.982709 91.536186 
L 283.23975 92.787891 
L 284.496791 92.544006 
L 285.753832 91.373893 
L 287.010873 91.252564 
L 288.267914 91.786629 
L 289.524955 92.710815 
L 290.781996 91.793251 
L 292.039037 92.119258 
L 293.296078 92.240632 
L 294.553119 91.549557 
L 295.81016 92.211978 
L 297.067201 92.473364 
L 298.324242 91.818782 
L 300.838324 92.344613 
L 303.352406 91.632492 
L 304.609447 92.256112 
L 305.866488 92.187707 
L 307.123529 91.996643 
L 308.38057 92.046339 
L 309.637611 91.742938 
L 310.894652 92.026461 
L 312.151693 91.813277 
L 314.665775 92.027551 
L 317.179857 92.029276 
L 318.436898 91.969568 
L 319.693939 91.764724 
L 320.95098 91.889241 
L 322.208021 92.171494 
L 324.722103 91.999254 
L 328.493226 91.876948 
L 329.750267 91.985711 
L 331.007308 91.828942 
L 332.264349 92.103594 
L 333.52139 92.088957 
L 334.778431 91.855208 
L 336.035472 91.995605 
L 339.806595 91.992483 
L 341.063636 92.039067 
L 342.320677 91.919462 
L 371.23262 91.969442 
L 372.489661 91.929074 
L 373.746702 92.008323 
L 375.003743 91.966612 
L 376.260784 92.041637 
L 378.774866 91.952322 
L 385.060071 91.988435 
L 388.831194 91.946459 
L 393.859358 91.927654 
L 400.144563 92.02602 
L 402.658645 91.908345 
L 405.172727 91.941842 
L 405.172727 91.941842 
" clip-path="url(#p38265bc2a4)" style="fill: none; stroke: #ffff07; stroke-opacity: 0.75; stroke-width: 1.5; stroke-linecap: square"/>
   </g>
   <g id="line2d_81">
    <path d="M 269.848455 186.028 
L 269.848455 34.56 
" clip-path="url(#p38265bc2a4)" style="fill: none; stroke-dasharray: 3.7,1.6; stroke-dashoffset: 0; stroke: #000000; stroke-opacity: 0.75"/>
   </g>
   <g id="patch_3">
    <path d="M 68.6 186.028 
L 68.6 34.56 
" style="fill: none; stroke: #000000; stroke-width: 0.8; stroke-linejoin: miter; stroke-linecap: square"/>
   </g>
   <g id="patch_4">
    <path d="M 421.2 186.028 
L 421.2 34.56 
" style="fill: none; stroke: #000000; stroke-width: 0.8; stroke-linejoin: miter; stroke-linecap: square"/>
   </g>
   <g id="patch_5">
    <path d="M 68.6 186.028 
L 421.2 186.028 
" style="fill: none; stroke: #000000; stroke-width: 0.8; stroke-linejoin: miter; stroke-linecap: square"/>
   </g>
   <g id="patch_6">
    <path d="M 68.6 34.56 
L 421.2 34.56 
" style="fill: none; stroke: #000000; stroke-width: 0.8; stroke-linejoin: miter; stroke-linecap: square"/>
   </g>
   <g id="legend_1">
    <g id="patch_7">
     <path d="M 75.6 115.950625 
L 157.528125 115.950625 
Q 159.528125 115.950625 159.528125 113.950625 
L 159.528125 41.56 
Q 159.528125 39.56 157.528125 39.56 
L 75.6 39.56 
Q 73.6 39.56 73.6 41.56 
L 73.6 113.950625 
Q 73.6 115.950625 75.6 115.950625 
z
" style="fill: #ffffff; opacity: 0.8; stroke: #cccccc; stroke-linejoin: miter"/>
    </g>
    <g id="line2d_82">
     <path d="M 77.6 47.658438 
L 87.6 47.658438 
L 97.6 47.658438 
" style="fill: none; stroke: #0b0000; stroke-opacity: 0.75; stroke-width: 1.5; stroke-linecap: square"/>
    </g>
    <g id="text_11">
     <!-- K=0.1 -->
     <g transform="translate(105.6 51.158438) scale(0.1 -0.1)">
      <defs>
       <path id="DejaVuSans-4b" d="M 628 4666 
L 1259 4666 
L 1259 2694 
L 3353 4666 
L 4166 4666 
L 1850 2491 
L 4331 0 
L 3500 0 
L 1259 2247 
L 1259 0 
L 628 0 
L 628 4666 
z
" transform="scale(0.015625)"/>
       <path id="DejaVuSans-3d" d="M 678 2906 
L 4684 2906 
L 4684 2381 
L 678 2381 
L 678 2906 
z
M 678 1631 
L 4684 1631 
L 4684 1100 
L 678 1100 
L 678 1631 
z
" transform="scale(0.015625)"/>
      </defs>
      <use xlink:href="#DejaVuSans-4b"/>
      <use xlink:href="#DejaVuSans-3d" x="65.576172"/>
      <use xlink:href="#DejaVuSans-30" x="149.365234"/>
      <use xlink:href="#DejaVuSans-2e" x="212.988281"/>
      <use xlink:href="#DejaVuSans-31" x="244.775391"/>
     </g>
    </g>
    <g id="line2d_83">
     <path d="M 77.6 62.336563 
L 87.6 62.336563 
L 97.6 62.336563 
" style="fill: none; stroke: #b30000; stroke-opacity: 0.75; stroke-width: 1.5; stroke-linecap: square"/>
    </g>
    <g id="text_12">
     <!-- K=0.01 -->
     <g transform="translate(105.6 65.836563) scale(0.1 -0.1)">
      <use xlink:href="#DejaVuSans-4b"/>
      <use xlink:href="#DejaVuSans-3d" x="65.576172"/>
      <use xlink:href="#DejaVuSans-30" x="149.365234"/>
      <use xlink:href="#DejaVuSans-2e" x="212.988281"/>
      <use xlink:href="#DejaVuSans-30" x="244.775391"/>
      <use xlink:href="#DejaVuSans-31" x="308.398438"/>
     </g>
    </g>
    <g id="line2d_84">
     <path d="M 77.6 77.014688 
L 87.6 77.014688 
L 97.6 77.014688 
" style="fill: none; stroke: #ff5c00; stroke-opacity: 0.75; stroke-width: 1.5; stroke-linecap: square"/>
    </g>
    <g id="text_13">
     <!-- K=0.001 -->
     <g transform="translate(105.6 80.514688) scale(0.1 -0.1)">
      <use xlink:href="#DejaVuSans-4b"/>
      <use xlink:href="#DejaVuSans-3d" x="65.576172"/>
      <use xlink:href="#DejaVuSans-30" x="149.365234"/>
      <use xlink:href="#DejaVuSans-2e" x="212.988281"/>
      <use xlink:href="#DejaVuSans-30" x="244.775391"/>
      <use xlink:href="#DejaVuSans-30" x="308.398438"/>
      <use xlink:href="#DejaVuSans-31" x="372.021484"/>
     </g>
    </g>
    <g id="line2d_85">
     <path d="M 77.6 91.692813 
L 87.6 91.692813 
L 97.6 91.692813 
" style="fill: none; stroke: #ffff07; stroke-opacity: 0.75; stroke-width: 1.5; stroke-linecap: square"/>
    </g>
    <g id="text_14">
     <!-- K=0.0001 -->
     <g transform="translate(105.6 95.192813) scale(0.1 -0.1)">
      <use xlink:href="#DejaVuSans-4b"/>
      <use xlink:href="#DejaVuSans-3d" x="65.576172"/>
      <use xlink:href="#DejaVuSans-30" x="149.365234"/>
      <use xlink:href="#DejaVuSans-2e" x="212.988281"/>
      <use xlink:href="#DejaVuSans-30" x="244.775391"/>
      <use xlink:href="#DejaVuSans-30" x="308.398438"/>
      <use xlink:href="#DejaVuSans-30" x="372.021484"/>
      <use xlink:href="#DejaVuSans-31" x="435.644531"/>
     </g>
    </g>
    <g id="line2d_86">
     <path d="M 77.6 106.370938 
L 87.6 106.370938 
L 97.6 106.370938 
" style="fill: none; stroke-dasharray: 3.7,1.6; stroke-dashoffset: 0; stroke: #000000; stroke-opacity: 0.75"/>
    </g>
    <g id="text_15">
     <!-- ω -->
     <g transform="translate(105.6 109.870938) scale(0.1 -0.1)">
      <defs>
       <path id="DejaVuSans-3c9" d="M 1719 -91 
Q 422 -91 422 1766 
Q 422 2500 906 3500 
L 1525 3500 
Q 1078 2500 1078 1750 
Q 1078 397 1772 397 
Q 2406 397 2406 2078 
L 2938 2078 
Q 2938 397 3572 397 
Q 4266 397 4266 1750 
Q 4266 2500 3819 3500 
L 4438 3500 
Q 4922 2500 4922 1766 
Q 4922 -91 3625 -91 
Q 2775 -91 2672 844 
Q 2544 -91 1719 -91 
z
" transform="scale(0.015625)"/>
      </defs>
      <use xlink:href="#DejaVuSans-3c9"/>
     </g>
    </g>
   </g>
  </g>
  <g id="axes_2">
   <g id="patch_8">
    <path d="M 68.6 386.728 
L 421.2 386.728 
L 421.2 235.26 
L 68.6 235.26 
z
" style="fill: #ffffff"/>
   </g>
   <g id="matplotlib.axis_3">
    <g id="xtick_34">
     <g id="line2d_87">
      <path d="M 143.905327 386.728 
L 143.905327 235.26 
" clip-path="url(#p55af967581)" style="fill: none; stroke: #f0f0f0; stroke-width: 0.8; stroke-linecap: square"/>
     </g>
     <g id="line2d_88">
      <g>
       <use xlink:href="#m23e9e2199d" x="143.905327" y="386.728" style="stroke: #000000; stroke-width: 0.8"/>
      </g>
     </g>
     <g id="text_16">
      <!-- $\mathdefault{10^{-3}}$ -->
      <g transform="translate(132.155327 401.326437) scale(0.1 -0.1)">
       <use xlink:href="#DejaVuSans-31" transform="translate(0 0.765625)"/>
       <use xlink:href="#DejaVuSans-30" transform="translate(63.623047 0.765625)"/>
       <use xlink:href="#DejaVuSans-2212" transform="translate(128.203125 39.046875) scale(0.7)"/>
       <use xlink:href="#DejaVuSans-33" transform="translate(186.855469 39.046875) scale(0.7)"/>
      </g>
     </g>
    </g>
    <g id="xtick_35">
     <g id="line2d_89">
      <path d="M 240.707959 386.728 
L 240.707959 235.26 
" clip-path="url(#p55af967581)" style="fill: none; stroke: #f0f0f0; stroke-width: 0.8; stroke-linecap: square"/>
     </g>
     <g id="line2d_90">
      <g>
       <use xlink:href="#m23e9e2199d" x="240.707959" y="386.728" style="stroke: #000000; stroke-width: 0.8"/>
      </g>
     </g>
     <g id="text_17">
      <!-- $\mathdefault{10^{-2}}$ -->
      <g transform="translate(228.957959 401.326437) scale(0.1 -0.1)">
       <use xlink:href="#DejaVuSans-31" transform="translate(0 0.765625)"/>
       <use xlink:href="#DejaVuSans-30" transform="translate(63.623047 0.765625)"/>
       <use xlink:href="#DejaVuSans-2212" transform="translate(128.203125 39.046875) scale(0.7)"/>
       <use xlink:href="#DejaVuSans-32" transform="translate(186.855469 39.046875) scale(0.7)"/>
      </g>
     </g>
    </g>
    <g id="xtick_36">
     <g id="line2d_91">
      <path d="M 337.510591 386.728 
L 337.510591 235.26 
" clip-path="url(#p55af967581)" style="fill: none; stroke: #f0f0f0; stroke-width: 0.8; stroke-linecap: square"/>
     </g>
     <g id="line2d_92">
      <g>
       <use xlink:href="#m23e9e2199d" x="337.510591" y="386.728" style="stroke: #000000; stroke-width: 0.8"/>
      </g>
     </g>
     <g id="text_18">
      <!-- $\mathdefault{10^{-1}}$ -->
      <g transform="translate(325.760591 401.326437) scale(0.1 -0.1)">
       <use xlink:href="#DejaVuSans-31" transform="translate(0 0.684375)"/>
       <use xlink:href="#DejaVuSans-30" transform="translate(63.623047 0.684375)"/>
       <use xlink:href="#DejaVuSans-2212" transform="translate(128.203125 38.965625) scale(0.7)"/>
       <use xlink:href="#DejaVuSans-31" transform="translate(186.855469 38.965625) scale(0.7)"/>
      </g>
     </g>
    </g>
    <g id="xtick_37">
     <g id="line2d_93">
      <path d="M 76.243191 386.728 
L 76.243191 235.26 
" clip-path="url(#p55af967581)" style="fill: none; stroke: #f0f0f0; stroke-width: 0.8; stroke-linecap: square"/>
     </g>
     <g id="line2d_94">
      <g>
       <use xlink:href="#m7385a72c03" x="76.243191" y="386.728" style="stroke: #000000; stroke-width: 0.6"/>
      </g>
     </g>
    </g>
    <g id="xtick_38">
     <g id="line2d_95">
      <path d="M 93.289289 386.728 
L 93.289289 235.26 
" clip-path="url(#p55af967581)" style="fill: none; stroke: #f0f0f0; stroke-width: 0.8; stroke-linecap: square"/>
     </g>
     <g id="line2d_96">
      <g>
       <use xlink:href="#m7385a72c03" x="93.289289" y="386.728" style="stroke: #000000; stroke-width: 0.6"/>
      </g>
     </g>
    </g>
    <g id="xtick_39">
     <g id="line2d_97">
      <path d="M 105.383687 386.728 
L 105.383687 235.26 
" clip-path="url(#p55af967581)" style="fill: none; stroke: #f0f0f0; stroke-width: 0.8; stroke-linecap: square"/>
     </g>
     <g id="line2d_98">
      <g>
       <use xlink:href="#m7385a72c03" x="105.383687" y="386.728" style="stroke: #000000; stroke-width: 0.6"/>
      </g>
     </g>
    </g>
    <g id="xtick_40">
     <g id="line2d_99">
      <path d="M 114.764832 386.728 
L 114.764832 235.26 
" clip-path="url(#p55af967581)" style="fill: none; stroke: #f0f0f0; stroke-width: 0.8; stroke-linecap: square"/>
     </g>
     <g id="line2d_100">
      <g>
       <use xlink:href="#m7385a72c03" x="114.764832" y="386.728" style="stroke: #000000; stroke-width: 0.6"/>
      </g>
     </g>
    </g>
    <g id="xtick_41">
     <g id="line2d_101">
      <path d="M 122.429785 386.728 
L 122.429785 235.26 
" clip-path="url(#p55af967581)" style="fill: none; stroke: #f0f0f0; stroke-width: 0.8; stroke-linecap: square"/>
     </g>
     <g id="line2d_102">
      <g>
       <use xlink:href="#m7385a72c03" x="122.429785" y="386.728" style="stroke: #000000; stroke-width: 0.6"/>
      </g>
     </g>
    </g>
    <g id="xtick_42">
     <g id="line2d_103">
      <path d="M 128.91041 386.728 
L 128.91041 235.26 
" clip-path="url(#p55af967581)" style="fill: none; stroke: #f0f0f0; stroke-width: 0.8; stroke-linecap: square"/>
     </g>
     <g id="line2d_104">
      <g>
       <use xlink:href="#m7385a72c03" x="128.91041" y="386.728" style="stroke: #000000; stroke-width: 0.6"/>
      </g>
     </g>
    </g>
    <g id="xtick_43">
     <g id="line2d_105">
      <path d="M 134.524183 386.728 
L 134.524183 235.26 
" clip-path="url(#p55af967581)" style="fill: none; stroke: #f0f0f0; stroke-width: 0.8; stroke-linecap: square"/>
     </g>
     <g id="line2d_106">
      <g>
       <use xlink:href="#m7385a72c03" x="134.524183" y="386.728" style="stroke: #000000; stroke-width: 0.6"/>
      </g>
     </g>
    </g>
    <g id="xtick_44">
     <g id="line2d_107">
      <path d="M 139.475882 386.728 
L 139.475882 235.26 
" clip-path="url(#p55af967581)" style="fill: none; stroke: #f0f0f0; stroke-width: 0.8; stroke-linecap: square"/>
     </g>
     <g id="line2d_108">
      <g>
       <use xlink:href="#m7385a72c03" x="139.475882" y="386.728" style="stroke: #000000; stroke-width: 0.6"/>
      </g>
     </g>
    </g>
    <g id="xtick_45">
     <g id="line2d_109">
      <path d="M 173.045823 386.728 
L 173.045823 235.26 
" clip-path="url(#p55af967581)" style="fill: none; stroke: #f0f0f0; stroke-width: 0.8; stroke-linecap: square"/>
     </g>
     <g id="line2d_110">
      <g>
       <use xlink:href="#m7385a72c03" x="173.045823" y="386.728" style="stroke: #000000; stroke-width: 0.6"/>
      </g>
     </g>
    </g>
    <g id="xtick_46">
     <g id="line2d_111">
      <path d="M 190.091921 386.728 
L 190.091921 235.26 
" clip-path="url(#p55af967581)" style="fill: none; stroke: #f0f0f0; stroke-width: 0.8; stroke-linecap: square"/>
     </g>
     <g id="line2d_112">
      <g>
       <use xlink:href="#m7385a72c03" x="190.091921" y="386.728" style="stroke: #000000; stroke-width: 0.6"/>
      </g>
     </g>
    </g>
    <g id="xtick_47">
     <g id="line2d_113">
      <path d="M 202.186319 386.728 
L 202.186319 235.26 
" clip-path="url(#p55af967581)" style="fill: none; stroke: #f0f0f0; stroke-width: 0.8; stroke-linecap: square"/>
     </g>
     <g id="line2d_114">
      <g>
       <use xlink:href="#m7385a72c03" x="202.186319" y="386.728" style="stroke: #000000; stroke-width: 0.6"/>
      </g>
     </g>
    </g>
    <g id="xtick_48">
     <g id="line2d_115">
      <path d="M 211.567463 386.728 
L 211.567463 235.26 
" clip-path="url(#p55af967581)" style="fill: none; stroke: #f0f0f0; stroke-width: 0.8; stroke-linecap: square"/>
     </g>
     <g id="line2d_116">
      <g>
       <use xlink:href="#m7385a72c03" x="211.567463" y="386.728" style="stroke: #000000; stroke-width: 0.6"/>
      </g>
     </g>
    </g>
    <g id="xtick_49">
     <g id="line2d_117">
      <path d="M 219.232416 386.728 
L 219.232416 235.26 
" clip-path="url(#p55af967581)" style="fill: none; stroke: #f0f0f0; stroke-width: 0.8; stroke-linecap: square"/>
     </g>
     <g id="line2d_118">
      <g>
       <use xlink:href="#m7385a72c03" x="219.232416" y="386.728" style="stroke: #000000; stroke-width: 0.6"/>
      </g>
     </g>
    </g>
    <g id="xtick_50">
     <g id="line2d_119">
      <path d="M 225.713042 386.728 
L 225.713042 235.26 
" clip-path="url(#p55af967581)" style="fill: none; stroke: #f0f0f0; stroke-width: 0.8; stroke-linecap: square"/>
     </g>
     <g id="line2d_120">
      <g>
       <use xlink:href="#m7385a72c03" x="225.713042" y="386.728" style="stroke: #000000; stroke-width: 0.6"/>
      </g>
     </g>
    </g>
    <g id="xtick_51">
     <g id="line2d_121">
      <path d="M 231.326815 386.728 
L 231.326815 235.26 
" clip-path="url(#p55af967581)" style="fill: none; stroke: #f0f0f0; stroke-width: 0.8; stroke-linecap: square"/>
     </g>
     <g id="line2d_122">
      <g>
       <use xlink:href="#m7385a72c03" x="231.326815" y="386.728" style="stroke: #000000; stroke-width: 0.6"/>
      </g>
     </g>
    </g>
    <g id="xtick_52">
     <g id="line2d_123">
      <path d="M 236.278514 386.728 
L 236.278514 235.26 
" clip-path="url(#p55af967581)" style="fill: none; stroke: #f0f0f0; stroke-width: 0.8; stroke-linecap: square"/>
     </g>
     <g id="line2d_124">
      <g>
       <use xlink:href="#m7385a72c03" x="236.278514" y="386.728" style="stroke: #000000; stroke-width: 0.6"/>
      </g>
     </g>
    </g>
    <g id="xtick_53">
     <g id="line2d_125">
      <path d="M 269.848455 386.728 
L 269.848455 235.26 
" clip-path="url(#p55af967581)" style="fill: none; stroke: #f0f0f0; stroke-width: 0.8; stroke-linecap: square"/>
     </g>
     <g id="line2d_126">
      <g>
       <use xlink:href="#m7385a72c03" x="269.848455" y="386.728" style="stroke: #000000; stroke-width: 0.6"/>
      </g>
     </g>
    </g>
    <g id="xtick_54">
     <g id="line2d_127">
      <path d="M 286.894552 386.728 
L 286.894552 235.26 
" clip-path="url(#p55af967581)" style="fill: none; stroke: #f0f0f0; stroke-width: 0.8; stroke-linecap: square"/>
     </g>
     <g id="line2d_128">
      <g>
       <use xlink:href="#m7385a72c03" x="286.894552" y="386.728" style="stroke: #000000; stroke-width: 0.6"/>
      </g>
     </g>
    </g>
    <g id="xtick_55">
     <g id="line2d_129">
      <path d="M 298.988951 386.728 
L 298.988951 235.26 
" clip-path="url(#p55af967581)" style="fill: none; stroke: #f0f0f0; stroke-width: 0.8; stroke-linecap: square"/>
     </g>
     <g id="line2d_130">
      <g>
       <use xlink:href="#m7385a72c03" x="298.988951" y="386.728" style="stroke: #000000; stroke-width: 0.6"/>
      </g>
     </g>
    </g>
    <g id="xtick_56">
     <g id="line2d_131">
      <path d="M 308.370095 386.728 
L 308.370095 235.26 
" clip-path="url(#p55af967581)" style="fill: none; stroke: #f0f0f0; stroke-width: 0.8; stroke-linecap: square"/>
     </g>
     <g id="line2d_132">
      <g>
       <use xlink:href="#m7385a72c03" x="308.370095" y="386.728" style="stroke: #000000; stroke-width: 0.6"/>
      </g>
     </g>
    </g>
    <g id="xtick_57">
     <g id="line2d_133">
      <path d="M 316.035048 386.728 
L 316.035048 235.26 
" clip-path="url(#p55af967581)" style="fill: none; stroke: #f0f0f0; stroke-width: 0.8; stroke-linecap: square"/>
     </g>
     <g id="line2d_134">
      <g>
       <use xlink:href="#m7385a72c03" x="316.035048" y="386.728" style="stroke: #000000; stroke-width: 0.6"/>
      </g>
     </g>
    </g>
    <g id="xtick_58">
     <g id="line2d_135">
      <path d="M 322.515674 386.728 
L 322.515674 235.26 
" clip-path="url(#p55af967581)" style="fill: none; stroke: #f0f0f0; stroke-width: 0.8; stroke-linecap: square"/>
     </g>
     <g id="line2d_136">
      <g>
       <use xlink:href="#m7385a72c03" x="322.515674" y="386.728" style="stroke: #000000; stroke-width: 0.6"/>
      </g>
     </g>
    </g>
    <g id="xtick_59">
     <g id="line2d_137">
      <path d="M 328.129447 386.728 
L 328.129447 235.26 
" clip-path="url(#p55af967581)" style="fill: none; stroke: #f0f0f0; stroke-width: 0.8; stroke-linecap: square"/>
     </g>
     <g id="line2d_138">
      <g>
       <use xlink:href="#m7385a72c03" x="328.129447" y="386.728" style="stroke: #000000; stroke-width: 0.6"/>
      </g>
     </g>
    </g>
    <g id="xtick_60">
     <g id="line2d_139">
      <path d="M 333.081146 386.728 
L 333.081146 235.26 
" clip-path="url(#p55af967581)" style="fill: none; stroke: #f0f0f0; stroke-width: 0.8; stroke-linecap: square"/>
     </g>
     <g id="line2d_140">
      <g>
       <use xlink:href="#m7385a72c03" x="333.081146" y="386.728" style="stroke: #000000; stroke-width: 0.6"/>
      </g>
     </g>
    </g>
    <g id="xtick_61">
     <g id="line2d_141">
      <path d="M 366.651087 386.728 
L 366.651087 235.26 
" clip-path="url(#p55af967581)" style="fill: none; stroke: #f0f0f0; stroke-width: 0.8; stroke-linecap: square"/>
     </g>
     <g id="line2d_142">
      <g>
       <use xlink:href="#m7385a72c03" x="366.651087" y="386.728" style="stroke: #000000; stroke-width: 0.6"/>
      </g>
     </g>
    </g>
    <g id="xtick_62">
     <g id="line2d_143">
      <path d="M 383.697184 386.728 
L 383.697184 235.26 
" clip-path="url(#p55af967581)" style="fill: none; stroke: #f0f0f0; stroke-width: 0.8; stroke-linecap: square"/>
     </g>
     <g id="line2d_144">
      <g>
       <use xlink:href="#m7385a72c03" x="383.697184" y="386.728" style="stroke: #000000; stroke-width: 0.6"/>
      </g>
     </g>
    </g>
    <g id="xtick_63">
     <g id="line2d_145">
      <path d="M 395.791583 386.728 
L 395.791583 235.26 
" clip-path="url(#p55af967581)" style="fill: none; stroke: #f0f0f0; stroke-width: 0.8; stroke-linecap: square"/>
     </g>
     <g id="line2d_146">
      <g>
       <use xlink:href="#m7385a72c03" x="395.791583" y="386.728" style="stroke: #000000; stroke-width: 0.6"/>
      </g>
     </g>
    </g>
    <g id="xtick_64">
     <g id="line2d_147">
      <path d="M 405.172727 386.728 
L 405.172727 235.26 
" clip-path="url(#p55af967581)" style="fill: none; stroke: #f0f0f0; stroke-width: 0.8; stroke-linecap: square"/>
     </g>
     <g id="line2d_148">
      <g>
       <use xlink:href="#m7385a72c03" x="405.172727" y="386.728" style="stroke: #000000; stroke-width: 0.6"/>
      </g>
     </g>
    </g>
    <g id="xtick_65">
     <g id="line2d_149">
      <path d="M 412.83768 386.728 
L 412.83768 235.26 
" clip-path="url(#p55af967581)" style="fill: none; stroke: #f0f0f0; stroke-width: 0.8; stroke-linecap: square"/>
     </g>
     <g id="line2d_150">
      <g>
       <use xlink:href="#m7385a72c03" x="412.83768" y="386.728" style="stroke: #000000; stroke-width: 0.6"/>
      </g>
     </g>
    </g>
    <g id="xtick_66">
     <g id="line2d_151">
      <path d="M 419.318306 386.728 
L 419.318306 235.26 
" clip-path="url(#p55af967581)" style="fill: none; stroke: #f0f0f0; stroke-width: 0.8; stroke-linecap: square"/>
     </g>
     <g id="line2d_152">
      <g>
       <use xlink:href="#m7385a72c03" x="419.318306" y="386.728" style="stroke: #000000; stroke-width: 0.6"/>
      </g>
     </g>
    </g>
    <g id="text_19">
     <!-- Target Frequency [rad/2π] -->
     <g transform="translate(180.349219 415.004562) scale(0.1 -0.1)">
      <use xlink:href="#DejaVuSans-54"/>
      <use xlink:href="#DejaVuSans-61" x="44.583984"/>
      <use xlink:href="#DejaVuSans-72" x="105.863281"/>
      <use xlink:href="#DejaVuSans-67" x="145.226562"/>
      <use xlink:href="#DejaVuSans-65" x="208.703125"/>
      <use xlink:href="#DejaVuSans-74" x="270.226562"/>
      <use xlink:href="#DejaVuSans-20" x="309.435547"/>
      <use xlink:href="#DejaVuSans-46" x="341.222656"/>
      <use xlink:href="#DejaVuSans-72" x="391.492188"/>
      <use xlink:href="#DejaVuSans-65" x="430.355469"/>
      <use xlink:href="#DejaVuSans-71" x="491.878906"/>
      <use xlink:href="#DejaVuSans-75" x="555.355469"/>
      <use xlink:href="#DejaVuSans-65" x="618.734375"/>
      <use xlink:href="#DejaVuSans-6e" x="680.257812"/>
      <use xlink:href="#DejaVuSans-63" x="743.636719"/>
      <use xlink:href="#DejaVuSans-79" x="798.617188"/>
      <use xlink:href="#DejaVuSans-20" x="857.796875"/>
      <use xlink:href="#DejaVuSans-5b" x="889.583984"/>
      <use xlink:href="#DejaVuSans-72" x="928.597656"/>
      <use xlink:href="#DejaVuSans-61" x="969.710938"/>
      <use xlink:href="#DejaVuSans-64" x="1030.990234"/>
      <use xlink:href="#DejaVuSans-2f" x="1094.466797"/>
      <use xlink:href="#DejaVuSans-32" x="1128.158203"/>
      <use xlink:href="#DejaVuSans-3c0" x="1191.78125"/>
      <use xlink:href="#DejaVuSans-5d" x="1251.986328"/>
     </g>
    </g>
   </g>
   <g id="matplotlib.axis_4">
    <g id="ytick_6">
     <g id="line2d_153">
      <path d="M 68.6 386.728 
L 421.2 386.728 
" clip-path="url(#p55af967581)" style="fill: none; stroke: #f0f0f0; stroke-width: 0.8; stroke-linecap: square"/>
     </g>
     <g id="line2d_154">
      <g>
       <use xlink:href="#m46885d4158" x="68.6" y="386.728" style="stroke: #000000; stroke-width: 0.8"/>
      </g>
     </g>
     <g id="text_20">
      <!-- −0.002 -->
      <g transform="translate(24.592188 390.527219) scale(0.1 -0.1)">
       <use xlink:href="#DejaVuSans-2212"/>
       <use xlink:href="#DejaVuSans-30" x="83.789062"/>
       <use xlink:href="#DejaVuSans-2e" x="147.412109"/>
       <use xlink:href="#DejaVuSans-30" x="179.199219"/>
       <use xlink:href="#DejaVuSans-30" x="242.822266"/>
       <use xlink:href="#DejaVuSans-32" x="306.445312"/>
      </g>
     </g>
    </g>
    <g id="ytick_7">
     <g id="line2d_155">
      <path d="M 68.6 365.089714 
L 421.2 365.089714 
" clip-path="url(#p55af967581)" style="fill: none; stroke: #f0f0f0; stroke-width: 0.8; stroke-linecap: square"/>
     </g>
     <g id="line2d_156">
      <g>
       <use xlink:href="#m46885d4158" x="68.6" y="365.089714" style="stroke: #000000; stroke-width: 0.8"/>
      </g>
     </g>
     <g id="text_21">
      <!-- 0.000 -->
      <g transform="translate(32.971875 368.888933) scale(0.1 -0.1)">
       <use xlink:href="#DejaVuSans-30"/>
       <use xlink:href="#DejaVuSans-2e" x="63.623047"/>
       <use xlink:href="#DejaVuSans-30" x="95.410156"/>
       <use xlink:href="#DejaVuSans-30" x="159.033203"/>
       <use xlink:href="#DejaVuSans-30" x="222.65625"/>
      </g>
     </g>
    </g>
    <g id="ytick_8">
     <g id="line2d_157">
      <path d="M 68.6 343.451429 
L 421.2 343.451429 
" clip-path="url(#p55af967581)" style="fill: none; stroke: #f0f0f0; stroke-width: 0.8; stroke-linecap: square"/>
     </g>
     <g id="line2d_158">
      <g>
       <use xlink:href="#m46885d4158" x="68.6" y="343.451429" style="stroke: #000000; stroke-width: 0.8"/>
      </g>
     </g>
     <g id="text_22">
      <!-- 0.002 -->
      <g transform="translate(32.971875 347.250647) scale(0.1 -0.1)">
       <use xlink:href="#DejaVuSans-30"/>
       <use xlink:href="#DejaVuSans-2e" x="63.623047"/>
       <use xlink:href="#DejaVuSans-30" x="95.410156"/>
       <use xlink:href="#DejaVuSans-30" x="159.033203"/>
       <use xlink:href="#DejaVuSans-32" x="222.65625"/>
      </g>
     </g>
    </g>
    <g id="ytick_9">
     <g id="line2d_159">
      <path d="M 68.6 321.813143 
L 421.2 321.813143 
" clip-path="url(#p55af967581)" style="fill: none; stroke: #f0f0f0; stroke-width: 0.8; stroke-linecap: square"/>
     </g>
     <g id="line2d_160">
      <g>
       <use xlink:href="#m46885d4158" x="68.6" y="321.813143" style="stroke: #000000; stroke-width: 0.8"/>
      </g>
     </g>
     <g id="text_23">
      <!-- 0.004 -->
      <g transform="translate(32.971875 325.612362) scale(0.1 -0.1)">
       <use xlink:href="#DejaVuSans-30"/>
       <use xlink:href="#DejaVuSans-2e" x="63.623047"/>
       <use xlink:href="#DejaVuSans-30" x="95.410156"/>
       <use xlink:href="#DejaVuSans-30" x="159.033203"/>
       <use xlink:href="#DejaVuSans-34" x="222.65625"/>
      </g>
     </g>
    </g>
    <g id="ytick_10">
     <g id="line2d_161">
      <path d="M 68.6 300.174857 
L 421.2 300.174857 
" clip-path="url(#p55af967581)" style="fill: none; stroke: #f0f0f0; stroke-width: 0.8; stroke-linecap: square"/>
     </g>
     <g id="line2d_162">
      <g>
       <use xlink:href="#m46885d4158" x="68.6" y="300.174857" style="stroke: #000000; stroke-width: 0.8"/>
      </g>
     </g>
     <g id="text_24">
      <!-- 0.006 -->
      <g transform="translate(32.971875 303.974076) scale(0.1 -0.1)">
       <defs>
        <path id="DejaVuSans-36" d="M 2113 2584 
Q 1688 2584 1439 2293 
Q 1191 2003 1191 1497 
Q 1191 994 1439 701 
Q 1688 409 2113 409 
Q 2538 409 2786 701 
Q 3034 994 3034 1497 
Q 3034 2003 2786 2293 
Q 2538 2584 2113 2584 
z
M 3366 4563 
L 3366 3988 
Q 3128 4100 2886 4159 
Q 2644 4219 2406 4219 
Q 1781 4219 1451 3797 
Q 1122 3375 1075 2522 
Q 1259 2794 1537 2939 
Q 1816 3084 2150 3084 
Q 2853 3084 3261 2657 
Q 3669 2231 3669 1497 
Q 3669 778 3244 343 
Q 2819 -91 2113 -91 
Q 1303 -91 875 529 
Q 447 1150 447 2328 
Q 447 3434 972 4092 
Q 1497 4750 2381 4750 
Q 2619 4750 2861 4703 
Q 3103 4656 3366 4563 
z
" transform="scale(0.015625)"/>
       </defs>
       <use xlink:href="#DejaVuSans-30"/>
       <use xlink:href="#DejaVuSans-2e" x="63.623047"/>
       <use xlink:href="#DejaVuSans-30" x="95.410156"/>
       <use xlink:href="#DejaVuSans-30" x="159.033203"/>
       <use xlink:href="#DejaVuSans-36" x="222.65625"/>
      </g>
     </g>
    </g>
    <g id="ytick_11">
     <g id="line2d_163">
      <path d="M 68.6 278.536571 
L 421.2 278.536571 
" clip-path="url(#p55af967581)" style="fill: none; stroke: #f0f0f0; stroke-width: 0.8; stroke-linecap: square"/>
     </g>
     <g id="line2d_164">
      <g>
       <use xlink:href="#m46885d4158" x="68.6" y="278.536571" style="stroke: #000000; stroke-width: 0.8"/>
      </g>
     </g>
     <g id="text_25">
      <!-- 0.008 -->
      <g transform="translate(32.971875 282.33579) scale(0.1 -0.1)">
       <defs>
        <path id="DejaVuSans-38" d="M 2034 2216 
Q 1584 2216 1326 1975 
Q 1069 1734 1069 1313 
Q 1069 891 1326 650 
Q 1584 409 2034 409 
Q 2484 409 2743 651 
Q 3003 894 3003 1313 
Q 3003 1734 2745 1975 
Q 2488 2216 2034 2216 
z
M 1403 2484 
Q 997 2584 770 2862 
Q 544 3141 544 3541 
Q 544 4100 942 4425 
Q 1341 4750 2034 4750 
Q 2731 4750 3128 4425 
Q 3525 4100 3525 3541 
Q 3525 3141 3298 2862 
Q 3072 2584 2669 2484 
Q 3125 2378 3379 2068 
Q 3634 1759 3634 1313 
Q 3634 634 3220 271 
Q 2806 -91 2034 -91 
Q 1263 -91 848 271 
Q 434 634 434 1313 
Q 434 1759 690 2068 
Q 947 2378 1403 2484 
z
M 1172 3481 
Q 1172 3119 1398 2916 
Q 1625 2713 2034 2713 
Q 2441 2713 2670 2916 
Q 2900 3119 2900 3481 
Q 2900 3844 2670 4047 
Q 2441 4250 2034 4250 
Q 1625 4250 1398 4047 
Q 1172 3844 1172 3481 
z
" transform="scale(0.015625)"/>
       </defs>
       <use xlink:href="#DejaVuSans-30"/>
       <use xlink:href="#DejaVuSans-2e" x="63.623047"/>
       <use xlink:href="#DejaVuSans-30" x="95.410156"/>
       <use xlink:href="#DejaVuSans-30" x="159.033203"/>
       <use xlink:href="#DejaVuSans-38" x="222.65625"/>
      </g>
     </g>
    </g>
    <g id="ytick_12">
     <g id="line2d_165">
      <path d="M 68.6 256.898286 
L 421.2 256.898286 
" clip-path="url(#p55af967581)" style="fill: none; stroke: #f0f0f0; stroke-width: 0.8; stroke-linecap: square"/>
     </g>
     <g id="line2d_166">
      <g>
       <use xlink:href="#m46885d4158" x="68.6" y="256.898286" style="stroke: #000000; stroke-width: 0.8"/>
      </g>
     </g>
     <g id="text_26">
      <!-- 0.010 -->
      <g transform="translate(32.971875 260.697504) scale(0.1 -0.1)">
       <use xlink:href="#DejaVuSans-30"/>
       <use xlink:href="#DejaVuSans-2e" x="63.623047"/>
       <use xlink:href="#DejaVuSans-30" x="95.410156"/>
       <use xlink:href="#DejaVuSans-31" x="159.033203"/>
       <use xlink:href="#DejaVuSans-30" x="222.65625"/>
      </g>
     </g>
    </g>
    <g id="ytick_13">
     <g id="line2d_167">
      <path d="M 68.6 235.26 
L 421.2 235.26 
" clip-path="url(#p55af967581)" style="fill: none; stroke: #f0f0f0; stroke-width: 0.8; stroke-linecap: square"/>
     </g>
     <g id="line2d_168">
      <g>
       <use xlink:href="#m46885d4158" x="68.6" y="235.26" style="stroke: #000000; stroke-width: 0.8"/>
      </g>
     </g>
     <g id="text_27">
      <!-- 0.012 -->
      <g transform="translate(32.971875 239.059219) scale(0.1 -0.1)">
       <use xlink:href="#DejaVuSans-30"/>
       <use xlink:href="#DejaVuSans-2e" x="63.623047"/>
       <use xlink:href="#DejaVuSans-30" x="95.410156"/>
       <use xlink:href="#DejaVuSans-31" x="159.033203"/>
       <use xlink:href="#DejaVuSans-32" x="222.65625"/>
      </g>
     </g>
    </g>
    <g id="text_28">
     <!-- Frequency Error Avg. [rad/2π] -->
     <g transform="translate(18.5125 384.696344) rotate(-90) scale(0.1 -0.1)">
      <use xlink:href="#DejaVuSans-46"/>
      <use xlink:href="#DejaVuSans-72" x="50.269531"/>
      <use xlink:href="#DejaVuSans-65" x="89.132812"/>
      <use xlink:href="#DejaVuSans-71" x="150.65625"/>
      <use xlink:href="#DejaVuSans-75" x="214.132812"/>
      <use xlink:href="#DejaVuSans-65" x="277.511719"/>
      <use xlink:href="#DejaVuSans-6e" x="339.035156"/>
      <use xlink:href="#DejaVuSans-63" x="402.414062"/>
      <use xlink:href="#DejaVuSans-79" x="457.394531"/>
      <use xlink:href="#DejaVuSans-20" x="516.574219"/>
      <use xlink:href="#DejaVuSans-45" x="548.361328"/>
      <use xlink:href="#DejaVuSans-72" x="611.544922"/>
      <use xlink:href="#DejaVuSans-72" x="650.908203"/>
      <use xlink:href="#DejaVuSans-6f" x="689.771484"/>
      <use xlink:href="#DejaVuSans-72" x="750.953125"/>
      <use xlink:href="#DejaVuSans-20" x="792.066406"/>
      <use xlink:href="#DejaVuSans-41" x="823.853516"/>
      <use xlink:href="#DejaVuSans-76" x="886.386719"/>
      <use xlink:href="#DejaVuSans-67" x="945.566406"/>
      <use xlink:href="#DejaVuSans-2e" x="1009.042969"/>
      <use xlink:href="#DejaVuSans-20" x="1040.830078"/>
      <use xlink:href="#DejaVuSans-5b" x="1072.617188"/>
      <use xlink:href="#DejaVuSans-72" x="1111.630859"/>
      <use xlink:href="#DejaVuSans-61" x="1152.744141"/>
      <use xlink:href="#DejaVuSans-64" x="1214.023438"/>
      <use xlink:href="#DejaVuSans-2f" x="1277.5"/>
      <use xlink:href="#DejaVuSans-32" x="1311.191406"/>
      <use xlink:href="#DejaVuSans-3c0" x="1374.814453"/>
      <use xlink:href="#DejaVuSans-5d" x="1435.019531"/>
     </g>
    </g>
   </g>
   <g id="line2d_169">
    <path d="M 84.627273 365.089714 
L 405.172727 365.089714 
L 405.172727 365.089714 
" clip-path="url(#p55af967581)" style="fill: none; stroke: #0b0000; stroke-opacity: 0.75; stroke-width: 1.5; stroke-linecap: square"/>
   </g>
   <g id="line2d_170">
    <path d="M 84.627273 365.089714 
L 405.172727 365.089714 
L 405.172727 365.089714 
" clip-path="url(#p55af967581)" style="fill: none; stroke: #b30000; stroke-opacity: 0.75; stroke-width: 1.5; stroke-linecap: square"/>
   </g>
   <g id="line2d_171">
    <path d="M 84.627273 364.035591 
L 119.824421 364.30741 
L 144.965241 364.554905 
L 147.479323 364.447143 
L 148.736364 363.965976 
L 161.306774 364.257487 
L 173.877184 364.584041 
L 175.134225 364.440581 
L 176.391266 364.008769 
L 185.190553 364.405052 
L 190.218717 364.627569 
L 191.475758 364.498704 
L 192.732799 364.04179 
L 199.018004 364.44264 
L 201.532086 364.629486 
L 202.789127 364.646973 
L 204.046168 364.055137 
L 209.074332 364.439288 
L 211.588414 364.676278 
L 212.845455 364.063851 
L 216.616578 364.376743 
L 219.13066 364.686101 
L 220.387701 364.096802 
L 224.158824 364.472917 
L 225.415865 364.670313 
L 226.672906 364.123646 
L 230.444029 364.553592 
L 231.70107 364.763534 
L 232.958111 364.227504 
L 235.472193 364.550938 
L 236.729234 364.793294 
L 237.986275 364.285505 
L 240.500357 364.670767 
L 241.757398 364.26946 
L 244.27148 364.607852 
L 245.52852 364.298111 
L 248.042602 364.635332 
L 249.299643 364.363851 
L 251.813725 364.744706 
L 253.070766 364.463941 
L 254.327807 364.624377 
L 255.584848 364.469816 
L 256.841889 364.601063 
L 258.09893 364.867679 
L 259.355971 364.624184 
L 260.613012 364.803866 
L 261.870053 364.680235 
L 263.127094 364.8277 
L 264.384135 364.764003 
L 265.641176 364.889517 
L 266.898217 364.875865 
L 269.412299 365.032284 
L 270.66934 365.042777 
L 274.440463 364.79042 
L 275.697504 364.814787 
L 276.954545 364.629104 
L 279.468627 364.671732 
L 280.725668 364.82639 
L 281.982709 364.4286 
L 285.753832 364.546715 
L 289.524955 364.759927 
L 297.067201 364.508746 
L 300.838324 363.985954 
L 302.095365 364.45504 
L 303.352406 364.343225 
L 304.609447 364.049429 
L 305.866488 364.330134 
L 308.38057 364.086479 
L 309.637611 364.168514 
L 312.151693 364.032579 
L 313.408734 364.098541 
L 314.665775 363.766232 
L 317.179857 363.942204 
L 324.722103 363.626915 
L 325.979144 362.967332 
L 327.236185 363.076334 
L 328.493226 363.369924 
L 329.750267 362.721272 
L 331.007308 363.151161 
L 332.264349 362.556721 
L 333.52139 363.109742 
L 337.292513 362.234749 
L 339.806595 362.061861 
L 341.063636 362.210447 
L 342.320677 361.7213 
L 343.577718 361.752798 
L 344.834759 361.348369 
L 346.0918 361.540321 
L 349.862923 360.666354 
L 351.119964 360.530489 
L 353.634046 360.655759 
L 354.891087 360.028777 
L 356.148128 360.293114 
L 357.405169 359.775237 
L 359.919251 359.382061 
L 362.433333 359.205342 
L 363.690374 358.707495 
L 364.947415 358.850634 
L 367.461497 358.320262 
L 368.718538 357.510618 
L 369.975579 357.373723 
L 371.23262 357.607748 
L 372.489661 357.077697 
L 373.746702 356.756242 
L 375.003743 356.572267 
L 376.260784 355.846244 
L 377.517825 356.013889 
L 378.774866 355.588943 
L 380.031907 355.31672 
L 381.288948 354.422734 
L 382.545989 354.490075 
L 383.80303 354.012326 
L 385.060071 353.727788 
L 386.317112 352.766934 
L 387.574153 352.995364 
L 388.831194 352.545489 
L 390.088235 351.475045 
L 391.345276 351.521518 
L 392.602317 350.994877 
L 393.859358 350.731976 
L 395.116399 349.811077 
L 396.37344 349.262074 
L 397.630481 349.004396 
L 398.887522 348.158074 
L 400.144563 347.630724 
L 401.401604 347.513342 
L 402.658645 346.740883 
L 403.915686 346.405483 
L 405.172727 345.536754 
L 405.172727 345.536754 
" clip-path="url(#p55af967581)" style="fill: none; stroke: #ff5c00; stroke-opacity: 0.75; stroke-width: 1.5; stroke-linecap: square"/>
   </g>
   <g id="line2d_172">
    <path d="M 84.627273 248.656647 
L 100.968806 249.33974 
L 113.539216 250.083223 
L 124.852585 250.963281 
L 134.908913 251.977878 
L 143.7082 253.084665 
L 152.507487 254.450716 
L 160.049733 255.871194 
L 166.334938 257.266957 
L 172.620143 258.88819 
L 177.648307 260.369513 
L 183.933512 262.491066 
L 188.961676 264.429549 
L 193.98984 266.614956 
L 199.018004 269.083451 
L 202.789127 271.135875 
L 206.56025 273.382411 
L 210.331373 275.831113 
L 214.102496 278.520534 
L 217.873619 281.456045 
L 221.644742 284.667396 
L 225.415865 288.184939 
L 229.186988 292.028566 
L 232.958111 296.232902 
L 236.729234 300.838519 
L 240.500357 305.866407 
L 244.27148 311.374419 
L 248.042602 317.388859 
L 251.813725 323.984274 
L 254.327807 328.702034 
L 258.09893 336.354398 
L 260.613012 341.857345 
L 263.127094 347.664567 
L 266.898217 357.10835 
L 268.155258 360.444124 
L 269.412299 364.158462 
L 270.66934 362.851952 
L 274.440463 351.504121 
L 278.211586 339.145721 
L 280.725668 330.293451 
L 284.496791 315.951627 
L 287.010873 305.662348 
L 290.781996 289.028112 
L 293.296078 277.073076 
L 295.81016 264.386136 
L 298.324242 250.915393 
L 300.838324 236.618301 
L 303.352406 221.435387 
L 305.866488 205.316768 
L 308.38057 188.209606 
L 310.894652 170.046073 
L 313.408734 150.761836 
L 315.922816 130.289638 
L 318.436898 108.554332 
L 320.95098 85.483881 
L 323.465062 60.987772 
L 325.979144 34.984485 
L 329.222735 -1 
L 329.222735 -1 
" clip-path="url(#p55af967581)" style="fill: none; stroke: #ffff07; stroke-opacity: 0.75; stroke-width: 1.5; stroke-linecap: square"/>
   </g>
   <g id="line2d_173">
    <path d="M 269.848455 386.728 
L 269.848455 235.26 
" clip-path="url(#p55af967581)" style="fill: none; stroke-dasharray: 3.7,1.6; stroke-dashoffset: 0; stroke: #000000; stroke-opacity: 0.75"/>
   </g>
   <g id="patch_9">
    <path d="M 68.6 386.728 
L 68.6 235.26 
" style="fill: none; stroke: #000000; stroke-width: 0.8; stroke-linejoin: miter; stroke-linecap: square"/>
   </g>
   <g id="patch_10">
    <path d="M 421.2 386.728 
L 421.2 235.26 
" style="fill: none; stroke: #000000; stroke-width: 0.8; stroke-linejoin: miter; stroke-linecap: square"/>
   </g>
   <g id="patch_11">
    <path d="M 68.6 386.728 
L 421.2 386.728 
" style="fill: none; stroke: #000000; stroke-width: 0.8; stroke-linejoin: miter; stroke-linecap: square"/>
   </g>
   <g id="patch_12">
    <path d="M 68.6 235.26 
L 421.2 235.26 
" style="fill: none; stroke: #000000; stroke-width: 0.8; stroke-linejoin: miter; stroke-linecap: square"/>
   </g>
   <g id="legend_2">
    <g id="patch_13">
     <path d="M 332.271875 316.650625 
L 414.2 316.650625 
Q 416.2 316.650625 416.2 314.650625 
L 416.2 242.26 
Q 416.2 240.26 414.2 240.26 
L 332.271875 240.26 
Q 330.271875 240.26 330.271875 242.26 
L 330.271875 314.650625 
Q 330.271875 316.650625 332.271875 316.650625 
z
" style="fill: #ffffff; opacity: 0.8; stroke: #cccccc; stroke-linejoin: miter"/>
    </g>
    <g id="line2d_174">
     <path d="M 334.271875 248.358437 
L 344.271875 248.358437 
L 354.271875 248.358437 
" style="fill: none; stroke: #0b0000; stroke-opacity: 0.75; stroke-width: 1.5; stroke-linecap: square"/>
    </g>
    <g id="text_29">
     <!-- K=0.1 -->
     <g transform="translate(362.271875 251.858437) scale(0.1 -0.1)">
      <use xlink:href="#DejaVuSans-4b"/>
      <use xlink:href="#DejaVuSans-3d" x="65.576172"/>
      <use xlink:href="#DejaVuSans-30" x="149.365234"/>
      <use xlink:href="#DejaVuSans-2e" x="212.988281"/>
      <use xlink:href="#DejaVuSans-31" x="244.775391"/>
     </g>
    </g>
    <g id="line2d_175">
     <path d="M 334.271875 263.036562 
L 344.271875 263.036562 
L 354.271875 263.036562 
" style="fill: none; stroke: #b30000; stroke-opacity: 0.75; stroke-width: 1.5; stroke-linecap: square"/>
    </g>
    <g id="text_30">
     <!-- K=0.01 -->
     <g transform="translate(362.271875 266.536562) scale(0.1 -0.1)">
      <use xlink:href="#DejaVuSans-4b"/>
      <use xlink:href="#DejaVuSans-3d" x="65.576172"/>
      <use xlink:href="#DejaVuSans-30" x="149.365234"/>
      <use xlink:href="#DejaVuSans-2e" x="212.988281"/>
      <use xlink:href="#DejaVuSans-30" x="244.775391"/>
      <use xlink:href="#DejaVuSans-31" x="308.398438"/>
     </g>
    </g>
    <g id="line2d_176">
     <path d="M 334.271875 277.714687 
L 344.271875 277.714687 
L 354.271875 277.714687 
" style="fill: none; stroke: #ff5c00; stroke-opacity: 0.75; stroke-width: 1.5; stroke-linecap: square"/>
    </g>
    <g id="text_31">
     <!-- K=0.001 -->
     <g transform="translate(362.271875 281.214687) scale(0.1 -0.1)">
      <use xlink:href="#DejaVuSans-4b"/>
      <use xlink:href="#DejaVuSans-3d" x="65.576172"/>
      <use xlink:href="#DejaVuSans-30" x="149.365234"/>
      <use xlink:href="#DejaVuSans-2e" x="212.988281"/>
      <use xlink:href="#DejaVuSans-30" x="244.775391"/>
      <use xlink:href="#DejaVuSans-30" x="308.398438"/>
      <use xlink:href="#DejaVuSans-31" x="372.021484"/>
     </g>
    </g>
    <g id="line2d_177">
     <path d="M 334.271875 292.392812 
L 344.271875 292.392812 
L 354.271875 292.392812 
" style="fill: none; stroke: #ffff07; stroke-opacity: 0.75; stroke-width: 1.5; stroke-linecap: square"/>
    </g>
    <g id="text_32">
     <!-- K=0.0001 -->
     <g transform="translate(362.271875 295.892812) scale(0.1 -0.1)">
      <use xlink:href="#DejaVuSans-4b"/>
      <use xlink:href="#DejaVuSans-3d" x="65.576172"/>
      <use xlink:href="#DejaVuSans-30" x="149.365234"/>
      <use xlink:href="#DejaVuSans-2e" x="212.988281"/>
      <use xlink:href="#DejaVuSans-30" x="244.775391"/>
      <use xlink:href="#DejaVuSans-30" x="308.398438"/>
      <use xlink:href="#DejaVuSans-30" x="372.021484"/>
      <use xlink:href="#DejaVuSans-31" x="435.644531"/>
     </g>
    </g>
    <g id="line2d_178">
     <path d="M 334.271875 307.070938 
L 344.271875 307.070938 
L 354.271875 307.070938 
" style="fill: none; stroke-dasharray: 3.7,1.6; stroke-dashoffset: 0; stroke: #000000; stroke-opacity: 0.75"/>
    </g>
    <g id="text_33">
     <!-- ω -->
     <g transform="translate(362.271875 310.570938) scale(0.1 -0.1)">
      <use xlink:href="#DejaVuSans-3c9"/>
     </g>
    </g>
   </g>
  </g>
  <g id="text_34">
   <!-- Synchronization Error(EMA Filter, ω=0.020) -->
   <g transform="translate(85.851562 17.758125) scale(0.12 -0.12)">
    <defs>
     <path id="DejaVuSans-53" d="M 3425 4513 
L 3425 3897 
Q 3066 4069 2747 4153 
Q 2428 4238 2131 4238 
Q 1616 4238 1336 4038 
Q 1056 3838 1056 3469 
Q 1056 3159 1242 3001 
Q 1428 2844 1947 2747 
L 2328 2669 
Q 3034 2534 3370 2195 
Q 3706 1856 3706 1288 
Q 3706 609 3251 259 
Q 2797 -91 1919 -91 
Q 1588 -91 1214 -16 
Q 841 59 441 206 
L 441 856 
Q 825 641 1194 531 
Q 1563 422 1919 422 
Q 2459 422 2753 634 
Q 3047 847 3047 1241 
Q 3047 1584 2836 1778 
Q 2625 1972 2144 2069 
L 1759 2144 
Q 1053 2284 737 2584 
Q 422 2884 422 3419 
Q 422 4038 858 4394 
Q 1294 4750 2059 4750 
Q 2388 4750 2728 4690 
Q 3069 4631 3425 4513 
z
" transform="scale(0.015625)"/>
     <path id="DejaVuSans-69" d="M 603 3500 
L 1178 3500 
L 1178 0 
L 603 0 
L 603 3500 
z
M 603 4863 
L 1178 4863 
L 1178 4134 
L 603 4134 
L 603 4863 
z
" transform="scale(0.015625)"/>
     <path id="DejaVuSans-7a" d="M 353 3500 
L 3084 3500 
L 3084 2975 
L 922 459 
L 3084 459 
L 3084 0 
L 275 0 
L 275 525 
L 2438 3041 
L 353 3041 
L 353 3500 
z
" transform="scale(0.015625)"/>
     <path id="DejaVuSans-28" d="M 1984 4856 
Q 1566 4138 1362 3434 
Q 1159 2731 1159 2009 
Q 1159 1288 1364 580 
Q 1569 -128 1984 -844 
L 1484 -844 
Q 1016 -109 783 600 
Q 550 1309 550 2009 
Q 550 2706 781 3412 
Q 1013 4119 1484 4856 
L 1984 4856 
z
" transform="scale(0.015625)"/>
     <path id="DejaVuSans-4d" d="M 628 4666 
L 1569 4666 
L 2759 1491 
L 3956 4666 
L 4897 4666 
L 4897 0 
L 4281 0 
L 4281 4097 
L 3078 897 
L 2444 897 
L 1241 4097 
L 1241 0 
L 628 0 
L 628 4666 
z
" transform="scale(0.015625)"/>
     <path id="DejaVuSans-6c" d="M 603 4863 
L 1178 4863 
L 1178 0 
L 603 0 
L 603 4863 
z
" transform="scale(0.015625)"/>
     <path id="DejaVuSans-2c" d="M 750 794 
L 1409 794 
L 1409 256 
L 897 -744 
L 494 -744 
L 750 256 
L 750 794 
z
" transform="scale(0.015625)"/>
     <path id="DejaVuSans-29" d="M 513 4856 
L 1013 4856 
Q 1481 4119 1714 3412 
Q 1947 2706 1947 2009 
Q 1947 1309 1714 600 
Q 1481 -109 1013 -844 
L 513 -844 
Q 928 -128 1133 580 
Q 1338 1288 1338 2009 
Q 1338 2731 1133 3434 
Q 928 4138 513 4856 
z
" transform="scale(0.015625)"/>
    </defs>
    <use xlink:href="#DejaVuSans-53"/>
    <use xlink:href="#DejaVuSans-79" x="63.476562"/>
    <use xlink:href="#DejaVuSans-6e" x="122.65625"/>
    <use xlink:href="#DejaVuSans-63" x="186.035156"/>
    <use xlink:href="#DejaVuSans-68" x="241.015625"/>
    <use xlink:href="#DejaVuSans-72" x="304.394531"/>
    <use xlink:href="#DejaVuSans-6f" x="343.257812"/>
    <use xlink:href="#DejaVuSans-6e" x="404.439453"/>
    <use xlink:href="#DejaVuSans-69" x="467.818359"/>
    <use xlink:href="#DejaVuSans-7a" x="495.601562"/>
    <use xlink:href="#DejaVuSans-61" x="548.091797"/>
    <use xlink:href="#DejaVuSans-74" x="609.371094"/>
    <use xlink:href="#DejaVuSans-69" x="648.580078"/>
    <use xlink:href="#DejaVuSans-6f" x="676.363281"/>
    <use xlink:href="#DejaVuSans-6e" x="737.544922"/>
    <use xlink:href="#DejaVuSans-20" x="800.923828"/>
    <use xlink:href="#DejaVuSans-45" x="832.710938"/>
    <use xlink:href="#DejaVuSans-72" x="895.894531"/>
    <use xlink:href="#DejaVuSans-72" x="935.257812"/>
    <use xlink:href="#DejaVuSans-6f" x="974.121094"/>
    <use xlink:href="#DejaVuSans-72" x="1035.302734"/>
    <use xlink:href="#DejaVuSans-28" x="1076.416016"/>
    <use xlink:href="#DejaVuSans-45" x="1115.429688"/>
    <use xlink:href="#DejaVuSans-4d" x="1178.613281"/>
    <use xlink:href="#DejaVuSans-41" x="1264.892578"/>
    <use xlink:href="#DejaVuSans-20" x="1333.300781"/>
    <use xlink:href="#DejaVuSans-46" x="1365.087891"/>
    <use xlink:href="#DejaVuSans-69" x="1415.357422"/>
    <use xlink:href="#DejaVuSans-6c" x="1443.140625"/>
    <use xlink:href="#DejaVuSans-74" x="1470.923828"/>
    <use xlink:href="#DejaVuSans-65" x="1510.132812"/>
    <use xlink:href="#DejaVuSans-72" x="1571.65625"/>
    <use xlink:href="#DejaVuSans-2c" x="1612.769531"/>
    <use xlink:href="#DejaVuSans-20" x="1644.556641"/>
    <use xlink:href="#DejaVuSans-3c9" x="1676.34375"/>
    <use xlink:href="#DejaVuSans-3d" x="1760.083984"/>
    <use xlink:href="#DejaVuSans-30" x="1843.873047"/>
    <use xlink:href="#DejaVuSans-2e" x="1907.496094"/>
    <use xlink:href="#DejaVuSans-30" x="1939.283203"/>
    <use xlink:href="#DejaVuSans-32" x="2002.90625"/>
    <use xlink:href="#DejaVuSans-30" x="2066.529297"/>
    <use xlink:href="#DejaVuSans-29" x="2130.152344"/>
   </g>
  </g>
 </g>
 <defs>
  <clipPath id="p38265bc2a4">
   <rect x="68.6" y="34.56" width="352.6" height="151.468"/>
  </clipPath>
  <clipPath id="p55af967581">
   <rect x="68.6" y="235.26" width="352.6" height="151.468"/>
  </clipPath>
 </defs>
</svg>
