<?xml version="1.0" encoding="utf-8" standalone="no"?>
<!DOCTYPE svg PUBLIC "-//W3C//DTD SVG 1.1//EN"
  "http://www.w3.org/Graphics/SVG/1.1/DTD/svg11.dtd">
<svg xmlns:xlink="http://www.w3.org/1999/xlink" width="576pt" height="576pt" viewBox="0 0 576 576" xmlns="http://www.w3.org/2000/svg" version="1.1">
 <metadata>
  <rdf:RDF xmlns:dc="http://purl.org/dc/elements/1.1/" xmlns:cc="http://creativecommons.org/ns#" xmlns:rdf="http://www.w3.org/1999/02/22-rdf-syntax-ns#">
   <cc:Work>
    <dc:type rdf:resource="http://purl.org/dc/dcmitype/StillImage"/>
    <dc:date>2024-08-23T10:58:33.805597</dc:date>
    <dc:format>image/svg+xml</dc:format>
    <dc:creator>
     <cc:Agent>
      <dc:title>Matplotlib v3.8.2, https://matplotlib.org/</dc:title>
     </cc:Agent>
    </dc:creator>
   </cc:Work>
  </rdf:RDF>
 </metadata>
 <defs>
  <style type="text/css">*{stroke-linejoin: round; stroke-linecap: butt}</style>
 </defs>
 <g id="figure_1">
  <g id="patch_1">
   <path d="M 0 576 
L 576 576 
L 576 0 
L 0 0 
z
" style="fill: #ffffff"/>
  </g>
  <g id="axes_1">
   <g id="patch_2">
    <path d="M 68.69 179.826667 
L 565.2 179.826667 
L 565.2 34.56 
L 68.69 34.56 
z
" style="fill: #ffffff"/>
   </g>
   <g id="matplotlib.axis_1">
    <g id="xtick_1">
     <g id="line2d_1">
      <path d="M 91.258636 179.826667 
L 91.258636 34.56 
" clip-path="url(#p148969acec)" style="fill: none; stroke: #b0b0b0; stroke-width: 0.8; stroke-linecap: square"/>
     </g>
     <g id="line2d_2">
      <defs>
       <path id="m9f1ffd332d" d="M 0 0 
L 0 3.5 
" style="stroke: #000000; stroke-width: 0.8"/>
      </defs>
      <g>
       <use xlink:href="#m9f1ffd332d" x="91.258636" y="179.826667" style="stroke: #000000; stroke-width: 0.8"/>
      </g>
     </g>
     <g id="text_1">
      <!-- 0 -->
      <g transform="translate(88.077386 194.425104) scale(0.1 -0.1)">
       <defs>
        <path id="DejaVuSans-30" d="M 2034 4250 
Q 1547 4250 1301 3770 
Q 1056 3291 1056 2328 
Q 1056 1369 1301 889 
Q 1547 409 2034 409 
Q 2525 409 2770 889 
Q 3016 1369 3016 2328 
Q 3016 3291 2770 3770 
Q 2525 4250 2034 4250 
z
M 2034 4750 
Q 2819 4750 3233 4129 
Q 3647 3509 3647 2328 
Q 3647 1150 3233 529 
Q 2819 -91 2034 -91 
Q 1250 -91 836 529 
Q 422 1150 422 2328 
Q 422 3509 836 4129 
Q 1250 4750 2034 4750 
z
" transform="scale(0.015625)"/>
       </defs>
       <use xlink:href="#DejaVuSans-30"/>
      </g>
     </g>
    </g>
    <g id="xtick_2">
     <g id="line2d_3">
      <path d="M 164.730229 179.826667 
L 164.730229 34.56 
" clip-path="url(#p148969acec)" style="fill: none; stroke: #b0b0b0; stroke-width: 0.8; stroke-linecap: square"/>
     </g>
     <g id="line2d_4">
      <g>
       <use xlink:href="#m9f1ffd332d" x="164.730229" y="179.826667" style="stroke: #000000; stroke-width: 0.8"/>
      </g>
     </g>
     <g id="text_2">
      <!-- 2000 -->
      <g transform="translate(152.005229 194.425104) scale(0.1 -0.1)">
       <defs>
        <path id="DejaVuSans-32" d="M 1228 531 
L 3431 531 
L 3431 0 
L 469 0 
L 469 531 
Q 828 903 1448 1529 
Q 2069 2156 2228 2338 
Q 2531 2678 2651 2914 
Q 2772 3150 2772 3378 
Q 2772 3750 2511 3984 
Q 2250 4219 1831 4219 
Q 1534 4219 1204 4116 
Q 875 4013 500 3803 
L 500 4441 
Q 881 4594 1212 4672 
Q 1544 4750 1819 4750 
Q 2544 4750 2975 4387 
Q 3406 4025 3406 3419 
Q 3406 3131 3298 2873 
Q 3191 2616 2906 2266 
Q 2828 2175 2409 1742 
Q 1991 1309 1228 531 
z
" transform="scale(0.015625)"/>
       </defs>
       <use xlink:href="#DejaVuSans-32"/>
       <use xlink:href="#DejaVuSans-30" x="63.623047"/>
       <use xlink:href="#DejaVuSans-30" x="127.246094"/>
       <use xlink:href="#DejaVuSans-30" x="190.869141"/>
      </g>
     </g>
    </g>
    <g id="xtick_3">
     <g id="line2d_5">
      <path d="M 238.201821 179.826667 
L 238.201821 34.56 
" clip-path="url(#p148969acec)" style="fill: none; stroke: #b0b0b0; stroke-width: 0.8; stroke-linecap: square"/>
     </g>
     <g id="line2d_6">
      <g>
       <use xlink:href="#m9f1ffd332d" x="238.201821" y="179.826667" style="stroke: #000000; stroke-width: 0.8"/>
      </g>
     </g>
     <g id="text_3">
      <!-- 4000 -->
      <g transform="translate(225.476821 194.425104) scale(0.1 -0.1)">
       <defs>
        <path id="DejaVuSans-34" d="M 2419 4116 
L 825 1625 
L 2419 1625 
L 2419 4116 
z
M 2253 4666 
L 3047 4666 
L 3047 1625 
L 3713 1625 
L 3713 1100 
L 3047 1100 
L 3047 0 
L 2419 0 
L 2419 1100 
L 313 1100 
L 313 1709 
L 2253 4666 
z
" transform="scale(0.015625)"/>
       </defs>
       <use xlink:href="#DejaVuSans-34"/>
       <use xlink:href="#DejaVuSans-30" x="63.623047"/>
       <use xlink:href="#DejaVuSans-30" x="127.246094"/>
       <use xlink:href="#DejaVuSans-30" x="190.869141"/>
      </g>
     </g>
    </g>
    <g id="xtick_4">
     <g id="line2d_7">
      <path d="M 311.673413 179.826667 
L 311.673413 34.56 
" clip-path="url(#p148969acec)" style="fill: none; stroke: #b0b0b0; stroke-width: 0.8; stroke-linecap: square"/>
     </g>
     <g id="line2d_8">
      <g>
       <use xlink:href="#m9f1ffd332d" x="311.673413" y="179.826667" style="stroke: #000000; stroke-width: 0.8"/>
      </g>
     </g>
     <g id="text_4">
      <!-- 6000 -->
      <g transform="translate(298.948413 194.425104) scale(0.1 -0.1)">
       <defs>
        <path id="DejaVuSans-36" d="M 2113 2584 
Q 1688 2584 1439 2293 
Q 1191 2003 1191 1497 
Q 1191 994 1439 701 
Q 1688 409 2113 409 
Q 2538 409 2786 701 
Q 3034 994 3034 1497 
Q 3034 2003 2786 2293 
Q 2538 2584 2113 2584 
z
M 3366 4563 
L 3366 3988 
Q 3128 4100 2886 4159 
Q 2644 4219 2406 4219 
Q 1781 4219 1451 3797 
Q 1122 3375 1075 2522 
Q 1259 2794 1537 2939 
Q 1816 3084 2150 3084 
Q 2853 3084 3261 2657 
Q 3669 2231 3669 1497 
Q 3669 778 3244 343 
Q 2819 -91 2113 -91 
Q 1303 -91 875 529 
Q 447 1150 447 2328 
Q 447 3434 972 4092 
Q 1497 4750 2381 4750 
Q 2619 4750 2861 4703 
Q 3103 4656 3366 4563 
z
" transform="scale(0.015625)"/>
       </defs>
       <use xlink:href="#DejaVuSans-36"/>
       <use xlink:href="#DejaVuSans-30" x="63.623047"/>
       <use xlink:href="#DejaVuSans-30" x="127.246094"/>
       <use xlink:href="#DejaVuSans-30" x="190.869141"/>
      </g>
     </g>
    </g>
    <g id="xtick_5">
     <g id="line2d_9">
      <path d="M 385.145006 179.826667 
L 385.145006 34.56 
" clip-path="url(#p148969acec)" style="fill: none; stroke: #b0b0b0; stroke-width: 0.8; stroke-linecap: square"/>
     </g>
     <g id="line2d_10">
      <g>
       <use xlink:href="#m9f1ffd332d" x="385.145006" y="179.826667" style="stroke: #000000; stroke-width: 0.8"/>
      </g>
     </g>
     <g id="text_5">
      <!-- 8000 -->
      <g transform="translate(372.420006 194.425104) scale(0.1 -0.1)">
       <defs>
        <path id="DejaVuSans-38" d="M 2034 2216 
Q 1584 2216 1326 1975 
Q 1069 1734 1069 1313 
Q 1069 891 1326 650 
Q 1584 409 2034 409 
Q 2484 409 2743 651 
Q 3003 894 3003 1313 
Q 3003 1734 2745 1975 
Q 2488 2216 2034 2216 
z
M 1403 2484 
Q 997 2584 770 2862 
Q 544 3141 544 3541 
Q 544 4100 942 4425 
Q 1341 4750 2034 4750 
Q 2731 4750 3128 4425 
Q 3525 4100 3525 3541 
Q 3525 3141 3298 2862 
Q 3072 2584 2669 2484 
Q 3125 2378 3379 2068 
Q 3634 1759 3634 1313 
Q 3634 634 3220 271 
Q 2806 -91 2034 -91 
Q 1263 -91 848 271 
Q 434 634 434 1313 
Q 434 1759 690 2068 
Q 947 2378 1403 2484 
z
M 1172 3481 
Q 1172 3119 1398 2916 
Q 1625 2713 2034 2713 
Q 2441 2713 2670 2916 
Q 2900 3119 2900 3481 
Q 2900 3844 2670 4047 
Q 2441 4250 2034 4250 
Q 1625 4250 1398 4047 
Q 1172 3844 1172 3481 
z
" transform="scale(0.015625)"/>
       </defs>
       <use xlink:href="#DejaVuSans-38"/>
       <use xlink:href="#DejaVuSans-30" x="63.623047"/>
       <use xlink:href="#DejaVuSans-30" x="127.246094"/>
       <use xlink:href="#DejaVuSans-30" x="190.869141"/>
      </g>
     </g>
    </g>
    <g id="xtick_6">
     <g id="line2d_11">
      <path d="M 458.616598 179.826667 
L 458.616598 34.56 
" clip-path="url(#p148969acec)" style="fill: none; stroke: #b0b0b0; stroke-width: 0.8; stroke-linecap: square"/>
     </g>
     <g id="line2d_12">
      <g>
       <use xlink:href="#m9f1ffd332d" x="458.616598" y="179.826667" style="stroke: #000000; stroke-width: 0.8"/>
      </g>
     </g>
     <g id="text_6">
      <!-- 10000 -->
      <g transform="translate(442.710348 194.425104) scale(0.1 -0.1)">
       <defs>
        <path id="DejaVuSans-31" d="M 794 531 
L 1825 531 
L 1825 4091 
L 703 3866 
L 703 4441 
L 1819 4666 
L 2450 4666 
L 2450 531 
L 3481 531 
L 3481 0 
L 794 0 
L 794 531 
z
" transform="scale(0.015625)"/>
       </defs>
       <use xlink:href="#DejaVuSans-31"/>
       <use xlink:href="#DejaVuSans-30" x="63.623047"/>
       <use xlink:href="#DejaVuSans-30" x="127.246094"/>
       <use xlink:href="#DejaVuSans-30" x="190.869141"/>
       <use xlink:href="#DejaVuSans-30" x="254.492188"/>
      </g>
     </g>
    </g>
    <g id="xtick_7">
     <g id="line2d_13">
      <path d="M 532.08819 179.826667 
L 532.08819 34.56 
" clip-path="url(#p148969acec)" style="fill: none; stroke: #b0b0b0; stroke-width: 0.8; stroke-linecap: square"/>
     </g>
     <g id="line2d_14">
      <g>
       <use xlink:href="#m9f1ffd332d" x="532.08819" y="179.826667" style="stroke: #000000; stroke-width: 0.8"/>
      </g>
     </g>
     <g id="text_7">
      <!-- 12000 -->
      <g transform="translate(516.18194 194.425104) scale(0.1 -0.1)">
       <use xlink:href="#DejaVuSans-31"/>
       <use xlink:href="#DejaVuSans-32" x="63.623047"/>
       <use xlink:href="#DejaVuSans-30" x="127.246094"/>
       <use xlink:href="#DejaVuSans-30" x="190.869141"/>
       <use xlink:href="#DejaVuSans-30" x="254.492188"/>
      </g>
     </g>
    </g>
   </g>
   <g id="matplotlib.axis_2">
    <g id="ytick_1">
     <g id="line2d_15">
      <path d="M 68.69 173.223636 
L 565.2 173.223636 
" clip-path="url(#p148969acec)" style="fill: none; stroke: #b0b0b0; stroke-width: 0.8; stroke-linecap: square"/>
     </g>
     <g id="line2d_16">
      <defs>
       <path id="m6108754a37" d="M 0 0 
L -3.5 0 
" style="stroke: #000000; stroke-width: 0.8"/>
      </defs>
      <g>
       <use xlink:href="#m6108754a37" x="68.69" y="173.223636" style="stroke: #000000; stroke-width: 0.8"/>
      </g>
     </g>
     <g id="text_8">
      <!-- 0.0 -->
      <g transform="translate(45.786875 177.022855) scale(0.1 -0.1)">
       <defs>
        <path id="DejaVuSans-2e" d="M 684 794 
L 1344 794 
L 1344 0 
L 684 0 
L 684 794 
z
" transform="scale(0.015625)"/>
       </defs>
       <use xlink:href="#DejaVuSans-30"/>
       <use xlink:href="#DejaVuSans-2e" x="63.623047"/>
       <use xlink:href="#DejaVuSans-30" x="95.410156"/>
      </g>
     </g>
    </g>
    <g id="ytick_2">
     <g id="line2d_17">
      <path d="M 68.69 146.809143 
L 565.2 146.809143 
" clip-path="url(#p148969acec)" style="fill: none; stroke: #b0b0b0; stroke-width: 0.8; stroke-linecap: square"/>
     </g>
     <g id="line2d_18">
      <g>
       <use xlink:href="#m6108754a37" x="68.69" y="146.809143" style="stroke: #000000; stroke-width: 0.8"/>
      </g>
     </g>
     <g id="text_9">
      <!-- 0.2 -->
      <g transform="translate(45.786875 150.608361) scale(0.1 -0.1)">
       <use xlink:href="#DejaVuSans-30"/>
       <use xlink:href="#DejaVuSans-2e" x="63.623047"/>
       <use xlink:href="#DejaVuSans-32" x="95.410156"/>
      </g>
     </g>
    </g>
    <g id="ytick_3">
     <g id="line2d_19">
      <path d="M 68.69 120.394649 
L 565.2 120.394649 
" clip-path="url(#p148969acec)" style="fill: none; stroke: #b0b0b0; stroke-width: 0.8; stroke-linecap: square"/>
     </g>
     <g id="line2d_20">
      <g>
       <use xlink:href="#m6108754a37" x="68.69" y="120.394649" style="stroke: #000000; stroke-width: 0.8"/>
      </g>
     </g>
     <g id="text_10">
      <!-- 0.4 -->
      <g transform="translate(45.786875 124.193868) scale(0.1 -0.1)">
       <use xlink:href="#DejaVuSans-30"/>
       <use xlink:href="#DejaVuSans-2e" x="63.623047"/>
       <use xlink:href="#DejaVuSans-34" x="95.410156"/>
      </g>
     </g>
    </g>
    <g id="ytick_4">
     <g id="line2d_21">
      <path d="M 68.69 93.980155 
L 565.2 93.980155 
" clip-path="url(#p148969acec)" style="fill: none; stroke: #b0b0b0; stroke-width: 0.8; stroke-linecap: square"/>
     </g>
     <g id="line2d_22">
      <g>
       <use xlink:href="#m6108754a37" x="68.69" y="93.980155" style="stroke: #000000; stroke-width: 0.8"/>
      </g>
     </g>
     <g id="text_11">
      <!-- 0.6 -->
      <g transform="translate(45.786875 97.779374) scale(0.1 -0.1)">
       <use xlink:href="#DejaVuSans-30"/>
       <use xlink:href="#DejaVuSans-2e" x="63.623047"/>
       <use xlink:href="#DejaVuSans-36" x="95.410156"/>
      </g>
     </g>
    </g>
    <g id="ytick_5">
     <g id="line2d_23">
      <path d="M 68.69 67.565661 
L 565.2 67.565661 
" clip-path="url(#p148969acec)" style="fill: none; stroke: #b0b0b0; stroke-width: 0.8; stroke-linecap: square"/>
     </g>
     <g id="line2d_24">
      <g>
       <use xlink:href="#m6108754a37" x="68.69" y="67.565661" style="stroke: #000000; stroke-width: 0.8"/>
      </g>
     </g>
     <g id="text_12">
      <!-- 0.8 -->
      <g transform="translate(45.786875 71.36488) scale(0.1 -0.1)">
       <use xlink:href="#DejaVuSans-30"/>
       <use xlink:href="#DejaVuSans-2e" x="63.623047"/>
       <use xlink:href="#DejaVuSans-38" x="95.410156"/>
      </g>
     </g>
    </g>
    <g id="ytick_6">
     <g id="line2d_25">
      <path d="M 68.69 41.151167 
L 565.2 41.151167 
" clip-path="url(#p148969acec)" style="fill: none; stroke: #b0b0b0; stroke-width: 0.8; stroke-linecap: square"/>
     </g>
     <g id="line2d_26">
      <g>
       <use xlink:href="#m6108754a37" x="68.69" y="41.151167" style="stroke: #000000; stroke-width: 0.8"/>
      </g>
     </g>
     <g id="text_13">
      <!-- 1.0 -->
      <g transform="translate(45.786875 44.950386) scale(0.1 -0.1)">
       <use xlink:href="#DejaVuSans-31"/>
       <use xlink:href="#DejaVuSans-2e" x="63.623047"/>
       <use xlink:href="#DejaVuSans-30" x="95.410156"/>
      </g>
     </g>
    </g>
    <g id="text_14">
     <!-- Phase [rad/2π] -->
     <g transform="translate(39.707188 143.782396) rotate(-90) scale(0.1 -0.1)">
      <defs>
       <path id="DejaVuSans-50" d="M 1259 4147 
L 1259 2394 
L 2053 2394 
Q 2494 2394 2734 2622 
Q 2975 2850 2975 3272 
Q 2975 3691 2734 3919 
Q 2494 4147 2053 4147 
L 1259 4147 
z
M 628 4666 
L 2053 4666 
Q 2838 4666 3239 4311 
Q 3641 3956 3641 3272 
Q 3641 2581 3239 2228 
Q 2838 1875 2053 1875 
L 1259 1875 
L 1259 0 
L 628 0 
L 628 4666 
z
" transform="scale(0.015625)"/>
       <path id="DejaVuSans-68" d="M 3513 2113 
L 3513 0 
L 2938 0 
L 2938 2094 
Q 2938 2591 2744 2837 
Q 2550 3084 2163 3084 
Q 1697 3084 1428 2787 
Q 1159 2491 1159 1978 
L 1159 0 
L 581 0 
L 581 4863 
L 1159 4863 
L 1159 2956 
Q 1366 3272 1645 3428 
Q 1925 3584 2291 3584 
Q 2894 3584 3203 3211 
Q 3513 2838 3513 2113 
z
" transform="scale(0.015625)"/>
       <path id="DejaVuSans-61" d="M 2194 1759 
Q 1497 1759 1228 1600 
Q 959 1441 959 1056 
Q 959 750 1161 570 
Q 1363 391 1709 391 
Q 2188 391 2477 730 
Q 2766 1069 2766 1631 
L 2766 1759 
L 2194 1759 
z
M 3341 1997 
L 3341 0 
L 2766 0 
L 2766 531 
Q 2569 213 2275 61 
Q 1981 -91 1556 -91 
Q 1019 -91 701 211 
Q 384 513 384 1019 
Q 384 1609 779 1909 
Q 1175 2209 1959 2209 
L 2766 2209 
L 2766 2266 
Q 2766 2663 2505 2880 
Q 2244 3097 1772 3097 
Q 1472 3097 1187 3025 
Q 903 2953 641 2809 
L 641 3341 
Q 956 3463 1253 3523 
Q 1550 3584 1831 3584 
Q 2591 3584 2966 3190 
Q 3341 2797 3341 1997 
z
" transform="scale(0.015625)"/>
       <path id="DejaVuSans-73" d="M 2834 3397 
L 2834 2853 
Q 2591 2978 2328 3040 
Q 2066 3103 1784 3103 
Q 1356 3103 1142 2972 
Q 928 2841 928 2578 
Q 928 2378 1081 2264 
Q 1234 2150 1697 2047 
L 1894 2003 
Q 2506 1872 2764 1633 
Q 3022 1394 3022 966 
Q 3022 478 2636 193 
Q 2250 -91 1575 -91 
Q 1294 -91 989 -36 
Q 684 19 347 128 
L 347 722 
Q 666 556 975 473 
Q 1284 391 1588 391 
Q 1994 391 2212 530 
Q 2431 669 2431 922 
Q 2431 1156 2273 1281 
Q 2116 1406 1581 1522 
L 1381 1569 
Q 847 1681 609 1914 
Q 372 2147 372 2553 
Q 372 3047 722 3315 
Q 1072 3584 1716 3584 
Q 2034 3584 2315 3537 
Q 2597 3491 2834 3397 
z
" transform="scale(0.015625)"/>
       <path id="DejaVuSans-65" d="M 3597 1894 
L 3597 1613 
L 953 1613 
Q 991 1019 1311 708 
Q 1631 397 2203 397 
Q 2534 397 2845 478 
Q 3156 559 3463 722 
L 3463 178 
Q 3153 47 2828 -22 
Q 2503 -91 2169 -91 
Q 1331 -91 842 396 
Q 353 884 353 1716 
Q 353 2575 817 3079 
Q 1281 3584 2069 3584 
Q 2775 3584 3186 3129 
Q 3597 2675 3597 1894 
z
M 3022 2063 
Q 3016 2534 2758 2815 
Q 2500 3097 2075 3097 
Q 1594 3097 1305 2825 
Q 1016 2553 972 2059 
L 3022 2063 
z
" transform="scale(0.015625)"/>
       <path id="DejaVuSans-20" transform="scale(0.015625)"/>
       <path id="DejaVuSans-5b" d="M 550 4863 
L 1875 4863 
L 1875 4416 
L 1125 4416 
L 1125 -397 
L 1875 -397 
L 1875 -844 
L 550 -844 
L 550 4863 
z
" transform="scale(0.015625)"/>
       <path id="DejaVuSans-72" d="M 2631 2963 
Q 2534 3019 2420 3045 
Q 2306 3072 2169 3072 
Q 1681 3072 1420 2755 
Q 1159 2438 1159 1844 
L 1159 0 
L 581 0 
L 581 3500 
L 1159 3500 
L 1159 2956 
Q 1341 3275 1631 3429 
Q 1922 3584 2338 3584 
Q 2397 3584 2469 3576 
Q 2541 3569 2628 3553 
L 2631 2963 
z
" transform="scale(0.015625)"/>
       <path id="DejaVuSans-64" d="M 2906 2969 
L 2906 4863 
L 3481 4863 
L 3481 0 
L 2906 0 
L 2906 525 
Q 2725 213 2448 61 
Q 2172 -91 1784 -91 
Q 1150 -91 751 415 
Q 353 922 353 1747 
Q 353 2572 751 3078 
Q 1150 3584 1784 3584 
Q 2172 3584 2448 3432 
Q 2725 3281 2906 2969 
z
M 947 1747 
Q 947 1113 1208 752 
Q 1469 391 1925 391 
Q 2381 391 2643 752 
Q 2906 1113 2906 1747 
Q 2906 2381 2643 2742 
Q 2381 3103 1925 3103 
Q 1469 3103 1208 2742 
Q 947 2381 947 1747 
z
" transform="scale(0.015625)"/>
       <path id="DejaVuSans-2f" d="M 1625 4666 
L 2156 4666 
L 531 -594 
L 0 -594 
L 1625 4666 
z
" transform="scale(0.015625)"/>
       <path id="DejaVuSans-3c0" d="M 231 3500 
L 3584 3500 
L 3584 2925 
L 3144 2925 
L 3144 775 
Q 3144 550 3220 451 
Q 3297 353 3469 353 
Q 3516 353 3584 361 
Q 3653 369 3675 372 
L 3675 -44 
Q 3566 -84 3450 -103 
Q 3334 -122 3219 -122 
Q 2844 -122 2700 83 
Q 2556 288 2556 838 
L 2556 2925 
L 1266 2925 
L 1266 0 
L 678 0 
L 678 2925 
L 231 2925 
L 231 3500 
z
" transform="scale(0.015625)"/>
       <path id="DejaVuSans-5d" d="M 1947 4863 
L 1947 -844 
L 622 -844 
L 622 -397 
L 1369 -397 
L 1369 4416 
L 622 4416 
L 622 4863 
L 1947 4863 
z
" transform="scale(0.015625)"/>
      </defs>
      <use xlink:href="#DejaVuSans-50"/>
      <use xlink:href="#DejaVuSans-68" x="60.302734"/>
      <use xlink:href="#DejaVuSans-61" x="123.681641"/>
      <use xlink:href="#DejaVuSans-73" x="184.960938"/>
      <use xlink:href="#DejaVuSans-65" x="237.060547"/>
      <use xlink:href="#DejaVuSans-20" x="298.583984"/>
      <use xlink:href="#DejaVuSans-5b" x="330.371094"/>
      <use xlink:href="#DejaVuSans-72" x="369.384766"/>
      <use xlink:href="#DejaVuSans-61" x="410.498047"/>
      <use xlink:href="#DejaVuSans-64" x="471.777344"/>
      <use xlink:href="#DejaVuSans-2f" x="535.253906"/>
      <use xlink:href="#DejaVuSans-32" x="568.945312"/>
      <use xlink:href="#DejaVuSans-3c0" x="632.568359"/>
      <use xlink:href="#DejaVuSans-5d" x="692.773438"/>
     </g>
    </g>
   </g>
   <g id="line2d_27">
    <path d="M 91.258636 173.223636 
L 241.728457 60.521796 
L 241.765193 126.44797 
L 241.875401 126.117789 
L 270.198699 41.261228 
L 270.235435 173.223636 
L 270.345643 172.893455 
L 314.281655 41.261228 
L 314.318391 173.223636 
L 314.428598 172.893455 
L 358.36461 41.261228 
L 358.401346 173.223636 
L 358.511553 172.893455 
L 392.198278 71.968077 
L 392.235014 137.454009 
L 392.308486 136.353405 
L 398.627043 41.701469 
L 398.663779 173.223636 
L 398.773986 171.572731 
L 407.443634 41.701469 
L 407.48037 173.223636 
L 407.590577 171.572731 
L 416.260225 41.701469 
L 416.296961 173.223636 
L 416.407168 171.572731 
L 425.076816 41.701469 
L 425.113552 173.223636 
L 425.223759 171.572731 
L 433.893407 41.701469 
L 433.930143 173.223636 
L 434.04035 171.572731 
L 442.709998 41.701469 
L 442.746734 173.223636 
L 442.856941 171.572731 
L 451.526589 41.701469 
L 451.563325 173.223636 
L 451.673532 171.572731 
L 460.34318 41.701469 
L 460.379916 173.223636 
L 460.490123 171.572731 
L 469.159771 41.701469 
L 469.196507 173.223636 
L 469.306715 171.572731 
L 477.976362 41.701469 
L 478.013098 173.223636 
L 478.123306 171.572731 
L 486.792953 41.701469 
L 486.829689 173.223636 
L 486.939897 171.572731 
L 495.609545 41.701469 
L 495.64628 173.223636 
L 495.756488 171.572731 
L 504.426136 41.701469 
L 504.462871 173.223636 
L 504.573079 171.572731 
L 513.242727 41.701469 
L 513.279463 173.223636 
L 513.38967 171.572731 
L 522.059318 41.701469 
L 522.096054 173.223636 
L 522.206261 171.572731 
L 530.875909 41.701469 
L 530.912645 173.223636 
L 531.022852 171.572731 
L 539.6925 41.701469 
L 539.729236 173.223636 
L 539.839443 171.572731 
L 542.631364 129.749782 
L 542.631364 129.749782 
" clip-path="url(#p148969acec)" style="fill: none; stroke: #0000ff; stroke-opacity: 0.5; stroke-linecap: square"/>
   </g>
   <g id="line2d_28">
    <path d="M 91.258636 173.223636 
L 92.617861 168.560839 
L 94.013821 164.548487 
L 95.519989 160.893023 
L 97.136364 157.554448 
L 98.899682 154.423782 
L 100.846679 151.421657 
L 103.050827 148.439929 
L 105.548861 145.442264 
L 108.450989 142.315382 
L 111.867418 138.967793 
L 116.055299 135.186034 
L 121.345253 130.72148 
L 128.471998 125.015646 
L 139.051907 116.854845 
L 158.815765 101.937096 
L 239.928403 41.16303 
L 239.965139 173.207984 
L 240.075347 173.125439 
L 241.765193 171.859743 
L 244.042813 155.781952 
L 248.267429 125.757292 
L 250.214426 113.744029 
L 252.087952 103.57287 
L 254.034949 94.236118 
L 256.165625 85.12291 
L 258.590188 75.749834 
L 261.45558 65.576824 
L 265.092424 53.517034 
L 268.986418 41.191739 
L 269.023154 173.14977 
L 269.133361 172.806616 
L 276.480521 150.303284 
L 292.534063 102.019108 
L 312.812223 41.252619 
L 312.848959 173.215025 
L 312.959166 172.884836 
L 356.895178 41.252167 
L 356.931914 173.214575 
L 357.042121 172.884394 
L 392.528901 66.215872 
L 393.190145 64.051741 
L 393.741182 62.908751 
L 394.218747 62.361325 
L 394.733048 62.111539 
L 395.982065 61.702991 
L 396.422895 61.184454 
L 396.90046 60.22536 
L 397.451497 58.554911 
L 398.112742 55.778097 
L 398.957665 51.190799 
L 400.13321 43.458193 
L 400.427097 41.371289 
L 400.463833 173.180154 
L 400.57404 172.386277 
L 403.659847 150.867313 
L 404.614978 145.846594 
L 405.349693 143.038182 
L 405.937466 141.553279 
L 406.451767 140.7945 
L 406.929333 140.45757 
L 407.590577 140.306339 
L 408.215086 140.102526 
L 408.655915 139.703837 
L 409.096745 138.980137 
L 409.611046 137.658097 
L 410.235554 135.348027 
L 411.007006 131.536935 
L 412.035608 125.202825 
L 413.725455 113.158466 
L 415.819395 98.578448 
L 416.847998 92.862601 
L 417.619449 89.689674 
L 418.243958 87.963174 
L 418.758259 87.110312 
L 419.235824 86.708386 
L 419.786861 86.541359 
L 420.631785 86.299812 
L 421.072614 85.895414 
L 421.513444 85.164529 
L 422.027745 83.8334 
L 422.652253 81.51272 
L 423.423705 77.690639 
L 424.452307 71.346474 
L 426.17889 59.026708 
L 428.236094 44.726261 
L 428.823867 41.286343 
L 428.860603 173.158965 
L 428.97081 172.571236 
L 429.815734 168.72491 
L 430.476978 166.643207 
L 431.028015 165.567224 
L 431.50558 165.067642 
L 432.019881 164.849215 
L 433.158691 164.493256 
L 433.599521 164.008265 
L 434.077086 163.092427 
L 434.628123 161.473808 
L 435.289367 158.754057 
L 436.134291 154.224414 
L 437.309836 146.540595 
L 441.387509 118.727578 
L 442.232433 114.894105 
L 442.893677 112.823943 
L 443.444714 111.757248 
L 443.922279 111.264197 
L 444.436581 111.049902 
L 445.538654 110.716686 
L 445.979484 110.251173 
L 446.420314 109.444993 
L 446.934615 108.01988 
L 447.559123 105.590592 
L 448.367311 101.447581 
L 449.432649 94.71303 
L 451.416382 80.419193 
L 453.142964 68.643092 
L 454.134831 63.242903 
L 454.906282 60.159909 
L 455.530791 58.51196 
L 456.045092 57.718165 
L 456.522657 57.357475 
L 457.147166 57.200843 
L 457.845146 56.986382 
L 458.285976 56.588614 
L 458.726805 55.866075 
L 459.241106 54.545506 
L 459.865615 52.237155 
L 460.637067 48.427846 
L 461.665669 42.095368 
L 461.775876 41.354562 
L 461.812612 173.178 
L 461.922819 172.424986 
L 464.200439 155.977824 
L 465.706607 145.981593 
L 466.661737 140.971441 
L 467.396453 138.17331 
L 467.984226 136.697036 
L 468.498527 135.944985 
L 468.976092 135.612559 
L 469.637337 135.463263 
L 470.261845 135.256153 
L 470.702675 134.852682 
L 471.143504 134.122962 
L 471.657805 132.793304 
L 472.282314 130.47434 
L 473.053766 126.654036 
L 474.082368 120.311496 
L 475.80895 107.992663 
L 477.866155 93.690599 
L 478.894757 87.985243 
L 479.666209 84.822778 
L 480.290718 83.105475 
L 480.805019 82.25959 
L 481.282584 81.862607 
L 481.833621 81.698277 
L 482.641809 81.475327 
L 483.082638 81.089753 
L 483.523468 80.382668 
L 484.037769 79.081735 
L 484.662277 76.796379 
L 485.433729 73.010946 
L 486.462331 66.700377 
L 488.152178 54.669752 
L 490.062439 41.230175 
L 490.099175 173.067253 
L 490.209383 172.36923 
L 491.274721 166.394596 
L 492.046172 163.192749 
L 492.670681 161.440751 
L 493.184982 160.568459 
L 493.662547 160.152668 
L 494.213584 159.977907 
L 495.058508 159.745297 
L 495.499337 159.354105 
L 495.940167 158.639884 
L 496.454468 157.32987 
L 497.078976 155.033869 
L 497.850428 151.237374 
L 498.87903 144.916644 
L 500.568877 132.880065 
L 502.699553 118.058922 
L 503.728156 112.378727 
L 504.499607 109.241296 
L 505.124116 107.545935 
L 505.638417 106.716631 
L 506.115982 106.33132 
L 506.703755 106.167567 
L 507.475207 105.942706 
L 507.916036 105.545857 
L 508.356866 104.824478 
L 508.871167 103.505381 
L 509.495676 101.198749 
L 510.267127 97.391223 
L 511.29573 91.060378 
L 512.985576 79.01791 
L 515.079517 64.434684 
L 516.108119 58.714793 
L 516.879571 55.537828 
L 517.504079 53.807776 
L 518.01838 52.952215 
L 518.495946 52.548371 
L 519.046983 52.380289 
L 519.891906 52.140022 
L 520.332735 51.737477 
L 520.773565 51.008921 
L 521.287866 49.680734 
L 521.912375 47.363488 
L 522.683826 43.544962 
L 523.08792 41.196059 
L 523.124656 173.044964 
L 523.234863 172.365099 
L 524.520616 163.653858 
L 527.826838 140.665094 
L 528.781968 135.772315 
L 529.516684 133.087401 
L 530.104457 131.705149 
L 530.618758 131.025287 
L 531.096324 130.739852 
L 532.639227 130.131255 
L 533.080057 129.483824 
L 533.557622 128.364733 
L 534.145395 126.362588 
L 534.880111 122.961162 
L 535.835241 117.349035 
L 537.267937 107.401272 
L 540.023122 88.126375 
L 541.014989 82.761693 
L 541.78644 79.714661 
L 542.410949 78.097802 
L 542.631364 77.709349 
L 542.631364 77.709349 
" clip-path="url(#p148969acec)" style="fill: none; stroke: #ff0000; stroke-opacity: 0.5; stroke-linecap: square"/>
   </g>
   <g id="patch_3">
    <path d="M 68.69 179.826667 
L 68.69 34.56 
" style="fill: none; stroke: #000000; stroke-width: 0.8; stroke-linejoin: miter; stroke-linecap: square"/>
   </g>
   <g id="patch_4">
    <path d="M 565.2 179.826667 
L 565.2 34.56 
" style="fill: none; stroke: #000000; stroke-width: 0.8; stroke-linejoin: miter; stroke-linecap: square"/>
   </g>
   <g id="patch_5">
    <path d="M 68.69 179.826667 
L 565.2 179.826667 
" style="fill: none; stroke: #000000; stroke-width: 0.8; stroke-linejoin: miter; stroke-linecap: square"/>
   </g>
   <g id="patch_6">
    <path d="M 68.69 34.56 
L 565.2 34.56 
" style="fill: none; stroke: #000000; stroke-width: 0.8; stroke-linejoin: miter; stroke-linecap: square"/>
   </g>
   <g id="legend_1">
    <g id="patch_7">
     <path d="M 75.69 71.91625 
L 149.315 71.91625 
Q 151.315 71.91625 151.315 69.91625 
L 151.315 41.56 
Q 151.315 39.56 149.315 39.56 
L 75.69 39.56 
Q 73.69 39.56 73.69 41.56 
L 73.69 69.91625 
Q 73.69 71.91625 75.69 71.91625 
z
" style="fill: #ffffff; opacity: 0.8; stroke: #cccccc; stroke-linejoin: miter"/>
    </g>
    <g id="line2d_29">
     <path d="M 77.69 47.658437 
L 87.69 47.658437 
L 97.69 47.658437 
" style="fill: none; stroke: #0000ff; stroke-opacity: 0.5; stroke-linecap: square"/>
    </g>
    <g id="text_15">
     <!-- Target -->
     <g transform="translate(105.69 51.158437) scale(0.1 -0.1)">
      <defs>
       <path id="DejaVuSans-54" d="M -19 4666 
L 3928 4666 
L 3928 4134 
L 2272 4134 
L 2272 0 
L 1638 0 
L 1638 4134 
L -19 4134 
L -19 4666 
z
" transform="scale(0.015625)"/>
       <path id="DejaVuSans-67" d="M 2906 1791 
Q 2906 2416 2648 2759 
Q 2391 3103 1925 3103 
Q 1463 3103 1205 2759 
Q 947 2416 947 1791 
Q 947 1169 1205 825 
Q 1463 481 1925 481 
Q 2391 481 2648 825 
Q 2906 1169 2906 1791 
z
M 3481 434 
Q 3481 -459 3084 -895 
Q 2688 -1331 1869 -1331 
Q 1566 -1331 1297 -1286 
Q 1028 -1241 775 -1147 
L 775 -588 
Q 1028 -725 1275 -790 
Q 1522 -856 1778 -856 
Q 2344 -856 2625 -561 
Q 2906 -266 2906 331 
L 2906 616 
Q 2728 306 2450 153 
Q 2172 0 1784 0 
Q 1141 0 747 490 
Q 353 981 353 1791 
Q 353 2603 747 3093 
Q 1141 3584 1784 3584 
Q 2172 3584 2450 3431 
Q 2728 3278 2906 2969 
L 2906 3500 
L 3481 3500 
L 3481 434 
z
" transform="scale(0.015625)"/>
       <path id="DejaVuSans-74" d="M 1172 4494 
L 1172 3500 
L 2356 3500 
L 2356 3053 
L 1172 3053 
L 1172 1153 
Q 1172 725 1289 603 
Q 1406 481 1766 481 
L 2356 481 
L 2356 0 
L 1766 0 
Q 1100 0 847 248 
Q 594 497 594 1153 
L 594 3053 
L 172 3053 
L 172 3500 
L 594 3500 
L 594 4494 
L 1172 4494 
z
" transform="scale(0.015625)"/>
      </defs>
      <use xlink:href="#DejaVuSans-54"/>
      <use xlink:href="#DejaVuSans-61" x="44.583984"/>
      <use xlink:href="#DejaVuSans-72" x="105.863281"/>
      <use xlink:href="#DejaVuSans-67" x="145.226562"/>
      <use xlink:href="#DejaVuSans-65" x="208.703125"/>
      <use xlink:href="#DejaVuSans-74" x="270.226562"/>
     </g>
    </g>
    <g id="line2d_30">
     <path d="M 77.69 62.336563 
L 87.69 62.336563 
L 97.69 62.336563 
" style="fill: none; stroke: #ff0000; stroke-opacity: 0.5; stroke-linecap: square"/>
    </g>
    <g id="text_16">
     <!-- Follower -->
     <g transform="translate(105.69 65.836563) scale(0.1 -0.1)">
      <defs>
       <path id="DejaVuSans-46" d="M 628 4666 
L 3309 4666 
L 3309 4134 
L 1259 4134 
L 1259 2759 
L 3109 2759 
L 3109 2228 
L 1259 2228 
L 1259 0 
L 628 0 
L 628 4666 
z
" transform="scale(0.015625)"/>
       <path id="DejaVuSans-6f" d="M 1959 3097 
Q 1497 3097 1228 2736 
Q 959 2375 959 1747 
Q 959 1119 1226 758 
Q 1494 397 1959 397 
Q 2419 397 2687 759 
Q 2956 1122 2956 1747 
Q 2956 2369 2687 2733 
Q 2419 3097 1959 3097 
z
M 1959 3584 
Q 2709 3584 3137 3096 
Q 3566 2609 3566 1747 
Q 3566 888 3137 398 
Q 2709 -91 1959 -91 
Q 1206 -91 779 398 
Q 353 888 353 1747 
Q 353 2609 779 3096 
Q 1206 3584 1959 3584 
z
" transform="scale(0.015625)"/>
       <path id="DejaVuSans-6c" d="M 603 4863 
L 1178 4863 
L 1178 0 
L 603 0 
L 603 4863 
z
" transform="scale(0.015625)"/>
       <path id="DejaVuSans-77" d="M 269 3500 
L 844 3500 
L 1563 769 
L 2278 3500 
L 2956 3500 
L 3675 769 
L 4391 3500 
L 4966 3500 
L 4050 0 
L 3372 0 
L 2619 2869 
L 1863 0 
L 1184 0 
L 269 3500 
z
" transform="scale(0.015625)"/>
      </defs>
      <use xlink:href="#DejaVuSans-46"/>
      <use xlink:href="#DejaVuSans-6f" x="53.894531"/>
      <use xlink:href="#DejaVuSans-6c" x="115.076172"/>
      <use xlink:href="#DejaVuSans-6c" x="142.859375"/>
      <use xlink:href="#DejaVuSans-6f" x="170.642578"/>
      <use xlink:href="#DejaVuSans-77" x="231.824219"/>
      <use xlink:href="#DejaVuSans-65" x="313.611328"/>
      <use xlink:href="#DejaVuSans-72" x="375.134766"/>
     </g>
    </g>
   </g>
  </g>
  <g id="axes_2">
   <g id="patch_8">
    <path d="M 68.69 356.933333 
L 565.2 356.933333 
L 565.2 211.666667 
L 68.69 211.666667 
z
" style="fill: #ffffff"/>
   </g>
   <g id="matplotlib.axis_3">
    <g id="xtick_8">
     <g id="line2d_31">
      <path d="M 91.258636 356.933333 
L 91.258636 211.666667 
" clip-path="url(#pb3209212e8)" style="fill: none; stroke: #b0b0b0; stroke-width: 0.8; stroke-linecap: square"/>
     </g>
     <g id="line2d_32">
      <g>
       <use xlink:href="#m9f1ffd332d" x="91.258636" y="356.933333" style="stroke: #000000; stroke-width: 0.8"/>
      </g>
     </g>
     <g id="text_17">
      <!-- 0 -->
      <g transform="translate(88.077386 371.531771) scale(0.1 -0.1)">
       <use xlink:href="#DejaVuSans-30"/>
      </g>
     </g>
    </g>
    <g id="xtick_9">
     <g id="line2d_33">
      <path d="M 164.730229 356.933333 
L 164.730229 211.666667 
" clip-path="url(#pb3209212e8)" style="fill: none; stroke: #b0b0b0; stroke-width: 0.8; stroke-linecap: square"/>
     </g>
     <g id="line2d_34">
      <g>
       <use xlink:href="#m9f1ffd332d" x="164.730229" y="356.933333" style="stroke: #000000; stroke-width: 0.8"/>
      </g>
     </g>
     <g id="text_18">
      <!-- 2000 -->
      <g transform="translate(152.005229 371.531771) scale(0.1 -0.1)">
       <use xlink:href="#DejaVuSans-32"/>
       <use xlink:href="#DejaVuSans-30" x="63.623047"/>
       <use xlink:href="#DejaVuSans-30" x="127.246094"/>
       <use xlink:href="#DejaVuSans-30" x="190.869141"/>
      </g>
     </g>
    </g>
    <g id="xtick_10">
     <g id="line2d_35">
      <path d="M 238.201821 356.933333 
L 238.201821 211.666667 
" clip-path="url(#pb3209212e8)" style="fill: none; stroke: #b0b0b0; stroke-width: 0.8; stroke-linecap: square"/>
     </g>
     <g id="line2d_36">
      <g>
       <use xlink:href="#m9f1ffd332d" x="238.201821" y="356.933333" style="stroke: #000000; stroke-width: 0.8"/>
      </g>
     </g>
     <g id="text_19">
      <!-- 4000 -->
      <g transform="translate(225.476821 371.531771) scale(0.1 -0.1)">
       <use xlink:href="#DejaVuSans-34"/>
       <use xlink:href="#DejaVuSans-30" x="63.623047"/>
       <use xlink:href="#DejaVuSans-30" x="127.246094"/>
       <use xlink:href="#DejaVuSans-30" x="190.869141"/>
      </g>
     </g>
    </g>
    <g id="xtick_11">
     <g id="line2d_37">
      <path d="M 311.673413 356.933333 
L 311.673413 211.666667 
" clip-path="url(#pb3209212e8)" style="fill: none; stroke: #b0b0b0; stroke-width: 0.8; stroke-linecap: square"/>
     </g>
     <g id="line2d_38">
      <g>
       <use xlink:href="#m9f1ffd332d" x="311.673413" y="356.933333" style="stroke: #000000; stroke-width: 0.8"/>
      </g>
     </g>
     <g id="text_20">
      <!-- 6000 -->
      <g transform="translate(298.948413 371.531771) scale(0.1 -0.1)">
       <use xlink:href="#DejaVuSans-36"/>
       <use xlink:href="#DejaVuSans-30" x="63.623047"/>
       <use xlink:href="#DejaVuSans-30" x="127.246094"/>
       <use xlink:href="#DejaVuSans-30" x="190.869141"/>
      </g>
     </g>
    </g>
    <g id="xtick_12">
     <g id="line2d_39">
      <path d="M 385.145006 356.933333 
L 385.145006 211.666667 
" clip-path="url(#pb3209212e8)" style="fill: none; stroke: #b0b0b0; stroke-width: 0.8; stroke-linecap: square"/>
     </g>
     <g id="line2d_40">
      <g>
       <use xlink:href="#m9f1ffd332d" x="385.145006" y="356.933333" style="stroke: #000000; stroke-width: 0.8"/>
      </g>
     </g>
     <g id="text_21">
      <!-- 8000 -->
      <g transform="translate(372.420006 371.531771) scale(0.1 -0.1)">
       <use xlink:href="#DejaVuSans-38"/>
       <use xlink:href="#DejaVuSans-30" x="63.623047"/>
       <use xlink:href="#DejaVuSans-30" x="127.246094"/>
       <use xlink:href="#DejaVuSans-30" x="190.869141"/>
      </g>
     </g>
    </g>
    <g id="xtick_13">
     <g id="line2d_41">
      <path d="M 458.616598 356.933333 
L 458.616598 211.666667 
" clip-path="url(#pb3209212e8)" style="fill: none; stroke: #b0b0b0; stroke-width: 0.8; stroke-linecap: square"/>
     </g>
     <g id="line2d_42">
      <g>
       <use xlink:href="#m9f1ffd332d" x="458.616598" y="356.933333" style="stroke: #000000; stroke-width: 0.8"/>
      </g>
     </g>
     <g id="text_22">
      <!-- 10000 -->
      <g transform="translate(442.710348 371.531771) scale(0.1 -0.1)">
       <use xlink:href="#DejaVuSans-31"/>
       <use xlink:href="#DejaVuSans-30" x="63.623047"/>
       <use xlink:href="#DejaVuSans-30" x="127.246094"/>
       <use xlink:href="#DejaVuSans-30" x="190.869141"/>
       <use xlink:href="#DejaVuSans-30" x="254.492188"/>
      </g>
     </g>
    </g>
    <g id="xtick_14">
     <g id="line2d_43">
      <path d="M 532.08819 356.933333 
L 532.08819 211.666667 
" clip-path="url(#pb3209212e8)" style="fill: none; stroke: #b0b0b0; stroke-width: 0.8; stroke-linecap: square"/>
     </g>
     <g id="line2d_44">
      <g>
       <use xlink:href="#m9f1ffd332d" x="532.08819" y="356.933333" style="stroke: #000000; stroke-width: 0.8"/>
      </g>
     </g>
     <g id="text_23">
      <!-- 12000 -->
      <g transform="translate(516.18194 371.531771) scale(0.1 -0.1)">
       <use xlink:href="#DejaVuSans-31"/>
       <use xlink:href="#DejaVuSans-32" x="63.623047"/>
       <use xlink:href="#DejaVuSans-30" x="127.246094"/>
       <use xlink:href="#DejaVuSans-30" x="190.869141"/>
       <use xlink:href="#DejaVuSans-30" x="254.492188"/>
      </g>
     </g>
    </g>
   </g>
   <g id="matplotlib.axis_4">
    <g id="ytick_7">
     <g id="line2d_45">
      <path d="M 68.69 337.136168 
L 565.2 337.136168 
" clip-path="url(#pb3209212e8)" style="fill: none; stroke: #b0b0b0; stroke-width: 0.8; stroke-linecap: square"/>
     </g>
     <g id="line2d_46">
      <g>
       <use xlink:href="#m6108754a37" x="68.69" y="337.136168" style="stroke: #000000; stroke-width: 0.8"/>
      </g>
     </g>
     <g id="text_24">
      <!-- −0.4 -->
      <g transform="translate(37.407188 340.935387) scale(0.1 -0.1)">
       <defs>
        <path id="DejaVuSans-2212" d="M 678 2272 
L 4684 2272 
L 4684 1741 
L 678 1741 
L 678 2272 
z
" transform="scale(0.015625)"/>
       </defs>
       <use xlink:href="#DejaVuSans-2212"/>
       <use xlink:href="#DejaVuSans-30" x="83.789062"/>
       <use xlink:href="#DejaVuSans-2e" x="147.412109"/>
       <use xlink:href="#DejaVuSans-34" x="179.199219"/>
      </g>
     </g>
    </g>
    <g id="ytick_8">
     <g id="line2d_47">
      <path d="M 68.69 310.720847 
L 565.2 310.720847 
" clip-path="url(#pb3209212e8)" style="fill: none; stroke: #b0b0b0; stroke-width: 0.8; stroke-linecap: square"/>
     </g>
     <g id="line2d_48">
      <g>
       <use xlink:href="#m6108754a37" x="68.69" y="310.720847" style="stroke: #000000; stroke-width: 0.8"/>
      </g>
     </g>
     <g id="text_25">
      <!-- −0.2 -->
      <g transform="translate(37.407188 314.520065) scale(0.1 -0.1)">
       <use xlink:href="#DejaVuSans-2212"/>
       <use xlink:href="#DejaVuSans-30" x="83.789062"/>
       <use xlink:href="#DejaVuSans-2e" x="147.412109"/>
       <use xlink:href="#DejaVuSans-32" x="179.199219"/>
      </g>
     </g>
    </g>
    <g id="ytick_9">
     <g id="line2d_49">
      <path d="M 68.69 284.305525 
L 565.2 284.305525 
" clip-path="url(#pb3209212e8)" style="fill: none; stroke: #b0b0b0; stroke-width: 0.8; stroke-linecap: square"/>
     </g>
     <g id="line2d_50">
      <g>
       <use xlink:href="#m6108754a37" x="68.69" y="284.305525" style="stroke: #000000; stroke-width: 0.8"/>
      </g>
     </g>
     <g id="text_26">
      <!-- 0.0 -->
      <g transform="translate(45.786875 288.104744) scale(0.1 -0.1)">
       <use xlink:href="#DejaVuSans-30"/>
       <use xlink:href="#DejaVuSans-2e" x="63.623047"/>
       <use xlink:href="#DejaVuSans-30" x="95.410156"/>
      </g>
     </g>
    </g>
    <g id="ytick_10">
     <g id="line2d_51">
      <path d="M 68.69 257.890203 
L 565.2 257.890203 
" clip-path="url(#pb3209212e8)" style="fill: none; stroke: #b0b0b0; stroke-width: 0.8; stroke-linecap: square"/>
     </g>
     <g id="line2d_52">
      <g>
       <use xlink:href="#m6108754a37" x="68.69" y="257.890203" style="stroke: #000000; stroke-width: 0.8"/>
      </g>
     </g>
     <g id="text_27">
      <!-- 0.2 -->
      <g transform="translate(45.786875 261.689422) scale(0.1 -0.1)">
       <use xlink:href="#DejaVuSans-30"/>
       <use xlink:href="#DejaVuSans-2e" x="63.623047"/>
       <use xlink:href="#DejaVuSans-32" x="95.410156"/>
      </g>
     </g>
    </g>
    <g id="ytick_11">
     <g id="line2d_53">
      <path d="M 68.69 231.474882 
L 565.2 231.474882 
" clip-path="url(#pb3209212e8)" style="fill: none; stroke: #b0b0b0; stroke-width: 0.8; stroke-linecap: square"/>
     </g>
     <g id="line2d_54">
      <g>
       <use xlink:href="#m6108754a37" x="68.69" y="231.474882" style="stroke: #000000; stroke-width: 0.8"/>
      </g>
     </g>
     <g id="text_28">
      <!-- 0.4 -->
      <g transform="translate(45.786875 235.2741) scale(0.1 -0.1)">
       <use xlink:href="#DejaVuSans-30"/>
       <use xlink:href="#DejaVuSans-2e" x="63.623047"/>
       <use xlink:href="#DejaVuSans-34" x="95.410156"/>
      </g>
     </g>
    </g>
    <g id="text_29">
     <!-- Phase Error [rad/2π] -->
     <g transform="translate(31.3275 334.663281) rotate(-90) scale(0.1 -0.1)">
      <defs>
       <path id="DejaVuSans-45" d="M 628 4666 
L 3578 4666 
L 3578 4134 
L 1259 4134 
L 1259 2753 
L 3481 2753 
L 3481 2222 
L 1259 2222 
L 1259 531 
L 3634 531 
L 3634 0 
L 628 0 
L 628 4666 
z
" transform="scale(0.015625)"/>
      </defs>
      <use xlink:href="#DejaVuSans-50"/>
      <use xlink:href="#DejaVuSans-68" x="60.302734"/>
      <use xlink:href="#DejaVuSans-61" x="123.681641"/>
      <use xlink:href="#DejaVuSans-73" x="184.960938"/>
      <use xlink:href="#DejaVuSans-65" x="237.060547"/>
      <use xlink:href="#DejaVuSans-20" x="298.583984"/>
      <use xlink:href="#DejaVuSans-45" x="330.371094"/>
      <use xlink:href="#DejaVuSans-72" x="393.554688"/>
      <use xlink:href="#DejaVuSans-72" x="432.917969"/>
      <use xlink:href="#DejaVuSans-6f" x="471.78125"/>
      <use xlink:href="#DejaVuSans-72" x="532.962891"/>
      <use xlink:href="#DejaVuSans-20" x="574.076172"/>
      <use xlink:href="#DejaVuSans-5b" x="605.863281"/>
      <use xlink:href="#DejaVuSans-72" x="644.876953"/>
      <use xlink:href="#DejaVuSans-61" x="685.990234"/>
      <use xlink:href="#DejaVuSans-64" x="747.269531"/>
      <use xlink:href="#DejaVuSans-2f" x="810.746094"/>
      <use xlink:href="#DejaVuSans-32" x="844.4375"/>
      <use xlink:href="#DejaVuSans-3c0" x="908.060547"/>
      <use xlink:href="#DejaVuSans-5d" x="968.265625"/>
     </g>
    </g>
   </g>
   <g id="line2d_55">
    <path d="M 91.258636 284.305525 
L 92.470918 281.015256 
L 93.719935 278.262657 
L 95.005688 275.962226 
L 96.328176 274.03729 
L 97.760872 272.34428 
L 99.26704 270.904915 
L 100.920151 269.633795 
L 102.720205 268.530315 
L 104.740674 267.555055 
L 107.018293 266.704748 
L 109.66327 265.959531 
L 112.785813 265.318305 
L 116.532864 264.782762 
L 121.235046 264.345577 
L 127.369924 264.011205 
L 136.039572 263.778214 
L 150.293061 263.644395 
L 185.669632 263.59949 
L 241.728457 263.597869 
L 241.765193 329.718721 
L 241.875401 329.305415 
L 243.565247 322.503614 
L 248.193958 303.35861 
L 249.663389 298.511306 
L 250.985878 294.881969 
L 252.271631 291.977707 
L 253.557384 289.612415 
L 254.843137 287.701126 
L 256.165625 286.124195 
L 257.561586 284.804243 
L 259.031017 283.717181 
L 260.647392 282.798886 
L 262.447446 282.034862 
L 264.504651 281.405716 
L 266.965949 280.89185 
L 270.01502 280.491045 
L 274.055958 280.196575 
L 280.007157 280.005302 
L 290.99116 279.911537 
L 334.633286 279.893921 
L 392.198278 279.89391 
L 392.345222 347.543491 
L 392.565636 349.952034 
L 392.602372 218.285703 
L 392.71258 219.532067 
L 393.851389 233.812057 
L 395.614707 259.401099 
L 397.084139 279.22747 
L 398.259685 292.158076 
L 399.545438 303.836763 
L 401.418963 318.567517 
L 403.476168 335.149352 
L 404.688449 346.853972 
L 404.982335 350.05038 
L 405.019071 218.384667 
L 405.129279 219.632907 
L 406.268088 233.932403 
L 408.068142 260.064574 
L 409.500838 279.334481 
L 410.676384 292.245862 
L 411.962137 303.910617 
L 413.835662 318.634999 
L 415.856131 334.903176 
L 417.068412 346.558594 
L 417.399035 350.148873 
L 417.43577 218.483779 
L 417.545978 219.733898 
L 418.684787 234.052883 
L 420.484841 260.192877 
L 421.917537 279.441336 
L 423.093083 292.333524 
L 424.378836 303.984404 
L 426.289097 318.983434 
L 428.27283 334.98094 
L 429.485111 346.651863 
L 429.815734 350.247515 
L 429.852469 218.583041 
L 429.962677 219.835041 
L 431.101487 234.173498 
L 432.938276 260.853906 
L 434.370972 279.99041 
L 435.546518 292.784067 
L 436.832271 304.364229 
L 438.779268 319.613329 
L 440.726265 335.383733 
L 441.938546 347.135509 
L 442.195697 349.936128 
L 442.232433 218.269697 
L 442.34264 219.515757 
L 443.48145 233.792588 
L 445.244768 259.38026 
L 446.7142 279.210132 
L 447.889745 292.143854 
L 449.175498 303.824801 
L 451.049024 318.556593 
L 453.106228 335.136727 
L 454.31851 346.838816 
L 454.612396 350.034449 
L 454.649132 218.368636 
L 454.759339 219.616572 
L 455.898149 233.912912 
L 457.698203 260.043797 
L 459.130899 279.317169 
L 460.306444 292.231659 
L 461.592197 303.898666 
L 463.465723 318.624075 
L 465.486192 334.890596 
L 466.698473 346.543509 
L 467.029095 350.132919 
L 467.065831 218.467724 
L 467.176038 219.717539 
L 468.314848 234.033371 
L 470.114902 260.172112 
L 471.547598 279.424049 
L 472.723144 292.319341 
L 474.008896 303.972464 
L 475.882422 318.691562 
L 477.902891 334.968345 
L 479.115172 346.636755 
L 479.445794 350.231537 
L 479.48253 218.566962 
L 479.592737 219.818658 
L 480.731547 234.153964 
L 482.568337 260.833208 
L 484.001033 279.973254 
L 485.176578 292.769987 
L 486.462331 304.352344 
L 488.409329 319.602386 
L 490.356326 335.371065 
L 491.568607 347.120285 
L 491.862493 350.330303 
L 491.899229 218.666349 
L 492.009437 219.919928 
L 493.148246 234.27469 
L 495.021772 261.492103 
L 496.417732 280.079167 
L 497.593278 292.856913 
L 498.87903 304.425735 
L 500.826028 319.669991 
L 502.736289 335.124105 
L 503.94857 346.823663 
L 504.242457 350.018523 
L 504.279192 218.35261 
L 504.3894 219.600242 
L 505.52821 233.893424 
L 507.291528 259.488129 
L 508.76096 279.299852 
L 509.936505 292.217454 
L 511.222258 303.886713 
L 513.095784 318.61315 
L 515.116252 334.878018 
L 516.328534 346.528427 
L 516.659156 350.116968 
L 516.695892 218.451674 
L 516.806099 219.701184 
L 517.944909 234.013861 
L 519.744963 260.151346 
L 521.177659 279.406757 
L 522.353204 292.305155 
L 523.638957 303.960521 
L 525.512483 318.680637 
L 527.532951 334.955753 
L 528.745233 346.621651 
L 529.075855 350.215562 
L 529.112591 218.550887 
L 529.222798 219.802278 
L 530.361608 234.134433 
L 532.198398 260.812508 
L 533.631094 279.956094 
L 534.806639 292.755904 
L 536.092392 304.340457 
L 538.039389 319.591443 
L 539.986386 335.3584 
L 541.198668 347.105065 
L 541.492554 350.314304 
L 541.52929 218.65025 
L 541.639497 219.903524 
L 542.631364 232.263461 
L 542.631364 232.263461 
" clip-path="url(#pb3209212e8)" style="fill: none; stroke: #ff0000; stroke-opacity: 0.5; stroke-linecap: square"/>
   </g>
   <g id="patch_9">
    <path d="M 68.69 356.933333 
L 68.69 211.666667 
" style="fill: none; stroke: #000000; stroke-width: 0.8; stroke-linejoin: miter; stroke-linecap: square"/>
   </g>
   <g id="patch_10">
    <path d="M 565.2 356.933333 
L 565.2 211.666667 
" style="fill: none; stroke: #000000; stroke-width: 0.8; stroke-linejoin: miter; stroke-linecap: square"/>
   </g>
   <g id="patch_11">
    <path d="M 68.69 356.933333 
L 565.2 356.933333 
" style="fill: none; stroke: #000000; stroke-width: 0.8; stroke-linejoin: miter; stroke-linecap: square"/>
   </g>
   <g id="patch_12">
    <path d="M 68.69 211.666667 
L 565.2 211.666667 
" style="fill: none; stroke: #000000; stroke-width: 0.8; stroke-linejoin: miter; stroke-linecap: square"/>
   </g>
  </g>
  <g id="axes_3">
   <g id="patch_13">
    <path d="M 68.69 534.04 
L 565.2 534.04 
L 565.2 388.773333 
L 68.69 388.773333 
z
" style="fill: #ffffff"/>
   </g>
   <g id="matplotlib.axis_5">
    <g id="xtick_15">
     <g id="line2d_56">
      <path d="M 91.258636 534.04 
L 91.258636 388.773333 
" clip-path="url(#p81f2763b41)" style="fill: none; stroke: #b0b0b0; stroke-width: 0.8; stroke-linecap: square"/>
     </g>
     <g id="line2d_57">
      <g>
       <use xlink:href="#m9f1ffd332d" x="91.258636" y="534.04" style="stroke: #000000; stroke-width: 0.8"/>
      </g>
     </g>
     <g id="text_30">
      <!-- 0 -->
      <g transform="translate(88.077386 548.638438) scale(0.1 -0.1)">
       <use xlink:href="#DejaVuSans-30"/>
      </g>
     </g>
    </g>
    <g id="xtick_16">
     <g id="line2d_58">
      <path d="M 164.736209 534.04 
L 164.736209 388.773333 
" clip-path="url(#p81f2763b41)" style="fill: none; stroke: #b0b0b0; stroke-width: 0.8; stroke-linecap: square"/>
     </g>
     <g id="line2d_59">
      <g>
       <use xlink:href="#m9f1ffd332d" x="164.736209" y="534.04" style="stroke: #000000; stroke-width: 0.8"/>
      </g>
     </g>
     <g id="text_31">
      <!-- 2000 -->
      <g transform="translate(152.011209 548.638438) scale(0.1 -0.1)">
       <use xlink:href="#DejaVuSans-32"/>
       <use xlink:href="#DejaVuSans-30" x="63.623047"/>
       <use xlink:href="#DejaVuSans-30" x="127.246094"/>
       <use xlink:href="#DejaVuSans-30" x="190.869141"/>
      </g>
     </g>
    </g>
    <g id="xtick_17">
     <g id="line2d_60">
      <path d="M 238.213781 534.04 
L 238.213781 388.773333 
" clip-path="url(#p81f2763b41)" style="fill: none; stroke: #b0b0b0; stroke-width: 0.8; stroke-linecap: square"/>
     </g>
     <g id="line2d_61">
      <g>
       <use xlink:href="#m9f1ffd332d" x="238.213781" y="534.04" style="stroke: #000000; stroke-width: 0.8"/>
      </g>
     </g>
     <g id="text_32">
      <!-- 4000 -->
      <g transform="translate(225.488781 548.638438) scale(0.1 -0.1)">
       <use xlink:href="#DejaVuSans-34"/>
       <use xlink:href="#DejaVuSans-30" x="63.623047"/>
       <use xlink:href="#DejaVuSans-30" x="127.246094"/>
       <use xlink:href="#DejaVuSans-30" x="190.869141"/>
      </g>
     </g>
    </g>
    <g id="xtick_18">
     <g id="line2d_62">
      <path d="M 311.691354 534.04 
L 311.691354 388.773333 
" clip-path="url(#p81f2763b41)" style="fill: none; stroke: #b0b0b0; stroke-width: 0.8; stroke-linecap: square"/>
     </g>
     <g id="line2d_63">
      <g>
       <use xlink:href="#m9f1ffd332d" x="311.691354" y="534.04" style="stroke: #000000; stroke-width: 0.8"/>
      </g>
     </g>
     <g id="text_33">
      <!-- 6000 -->
      <g transform="translate(298.966354 548.638438) scale(0.1 -0.1)">
       <use xlink:href="#DejaVuSans-36"/>
       <use xlink:href="#DejaVuSans-30" x="63.623047"/>
       <use xlink:href="#DejaVuSans-30" x="127.246094"/>
       <use xlink:href="#DejaVuSans-30" x="190.869141"/>
      </g>
     </g>
    </g>
    <g id="xtick_19">
     <g id="line2d_64">
      <path d="M 385.168926 534.04 
L 385.168926 388.773333 
" clip-path="url(#p81f2763b41)" style="fill: none; stroke: #b0b0b0; stroke-width: 0.8; stroke-linecap: square"/>
     </g>
     <g id="line2d_65">
      <g>
       <use xlink:href="#m9f1ffd332d" x="385.168926" y="534.04" style="stroke: #000000; stroke-width: 0.8"/>
      </g>
     </g>
     <g id="text_34">
      <!-- 8000 -->
      <g transform="translate(372.443926 548.638438) scale(0.1 -0.1)">
       <use xlink:href="#DejaVuSans-38"/>
       <use xlink:href="#DejaVuSans-30" x="63.623047"/>
       <use xlink:href="#DejaVuSans-30" x="127.246094"/>
       <use xlink:href="#DejaVuSans-30" x="190.869141"/>
      </g>
     </g>
    </g>
    <g id="xtick_20">
     <g id="line2d_66">
      <path d="M 458.646498 534.04 
L 458.646498 388.773333 
" clip-path="url(#p81f2763b41)" style="fill: none; stroke: #b0b0b0; stroke-width: 0.8; stroke-linecap: square"/>
     </g>
     <g id="line2d_67">
      <g>
       <use xlink:href="#m9f1ffd332d" x="458.646498" y="534.04" style="stroke: #000000; stroke-width: 0.8"/>
      </g>
     </g>
     <g id="text_35">
      <!-- 10000 -->
      <g transform="translate(442.740248 548.638438) scale(0.1 -0.1)">
       <use xlink:href="#DejaVuSans-31"/>
       <use xlink:href="#DejaVuSans-30" x="63.623047"/>
       <use xlink:href="#DejaVuSans-30" x="127.246094"/>
       <use xlink:href="#DejaVuSans-30" x="190.869141"/>
       <use xlink:href="#DejaVuSans-30" x="254.492188"/>
      </g>
     </g>
    </g>
    <g id="xtick_21">
     <g id="line2d_68">
      <path d="M 532.124071 534.04 
L 532.124071 388.773333 
" clip-path="url(#p81f2763b41)" style="fill: none; stroke: #b0b0b0; stroke-width: 0.8; stroke-linecap: square"/>
     </g>
     <g id="line2d_69">
      <g>
       <use xlink:href="#m9f1ffd332d" x="532.124071" y="534.04" style="stroke: #000000; stroke-width: 0.8"/>
      </g>
     </g>
     <g id="text_36">
      <!-- 12000 -->
      <g transform="translate(516.217821 548.638438) scale(0.1 -0.1)">
       <use xlink:href="#DejaVuSans-31"/>
       <use xlink:href="#DejaVuSans-32" x="63.623047"/>
       <use xlink:href="#DejaVuSans-30" x="127.246094"/>
       <use xlink:href="#DejaVuSans-30" x="190.869141"/>
       <use xlink:href="#DejaVuSans-30" x="254.492188"/>
      </g>
     </g>
    </g>
    <g id="text_37">
     <!-- Time [sample] -->
     <g transform="translate(281.041875 562.316563) scale(0.1 -0.1)">
      <defs>
       <path id="DejaVuSans-69" d="M 603 3500 
L 1178 3500 
L 1178 0 
L 603 0 
L 603 3500 
z
M 603 4863 
L 1178 4863 
L 1178 4134 
L 603 4134 
L 603 4863 
z
" transform="scale(0.015625)"/>
       <path id="DejaVuSans-6d" d="M 3328 2828 
Q 3544 3216 3844 3400 
Q 4144 3584 4550 3584 
Q 5097 3584 5394 3201 
Q 5691 2819 5691 2113 
L 5691 0 
L 5113 0 
L 5113 2094 
Q 5113 2597 4934 2840 
Q 4756 3084 4391 3084 
Q 3944 3084 3684 2787 
Q 3425 2491 3425 1978 
L 3425 0 
L 2847 0 
L 2847 2094 
Q 2847 2600 2669 2842 
Q 2491 3084 2119 3084 
Q 1678 3084 1418 2786 
Q 1159 2488 1159 1978 
L 1159 0 
L 581 0 
L 581 3500 
L 1159 3500 
L 1159 2956 
Q 1356 3278 1631 3431 
Q 1906 3584 2284 3584 
Q 2666 3584 2933 3390 
Q 3200 3197 3328 2828 
z
" transform="scale(0.015625)"/>
       <path id="DejaVuSans-70" d="M 1159 525 
L 1159 -1331 
L 581 -1331 
L 581 3500 
L 1159 3500 
L 1159 2969 
Q 1341 3281 1617 3432 
Q 1894 3584 2278 3584 
Q 2916 3584 3314 3078 
Q 3713 2572 3713 1747 
Q 3713 922 3314 415 
Q 2916 -91 2278 -91 
Q 1894 -91 1617 61 
Q 1341 213 1159 525 
z
M 3116 1747 
Q 3116 2381 2855 2742 
Q 2594 3103 2138 3103 
Q 1681 3103 1420 2742 
Q 1159 2381 1159 1747 
Q 1159 1113 1420 752 
Q 1681 391 2138 391 
Q 2594 391 2855 752 
Q 3116 1113 3116 1747 
z
" transform="scale(0.015625)"/>
      </defs>
      <use xlink:href="#DejaVuSans-54"/>
      <use xlink:href="#DejaVuSans-69" x="57.958984"/>
      <use xlink:href="#DejaVuSans-6d" x="85.742188"/>
      <use xlink:href="#DejaVuSans-65" x="183.154297"/>
      <use xlink:href="#DejaVuSans-20" x="244.677734"/>
      <use xlink:href="#DejaVuSans-5b" x="276.464844"/>
      <use xlink:href="#DejaVuSans-73" x="315.478516"/>
      <use xlink:href="#DejaVuSans-61" x="367.578125"/>
      <use xlink:href="#DejaVuSans-6d" x="428.857422"/>
      <use xlink:href="#DejaVuSans-70" x="526.269531"/>
      <use xlink:href="#DejaVuSans-6c" x="589.746094"/>
      <use xlink:href="#DejaVuSans-65" x="617.529297"/>
      <use xlink:href="#DejaVuSans-5d" x="679.052734"/>
     </g>
    </g>
   </g>
   <g id="matplotlib.axis_6">
    <g id="ytick_12">
     <g id="line2d_70">
      <path d="M 68.69 534.04 
L 565.2 534.04 
" clip-path="url(#p81f2763b41)" style="fill: none; stroke: #b0b0b0; stroke-width: 0.8; stroke-linecap: square"/>
     </g>
     <g id="line2d_71">
      <g>
       <use xlink:href="#m6108754a37" x="68.69" y="534.04" style="stroke: #000000; stroke-width: 0.8"/>
      </g>
     </g>
     <g id="text_38">
      <!-- −0.010 -->
      <g transform="translate(24.682188 537.839219) scale(0.1 -0.1)">
       <use xlink:href="#DejaVuSans-2212"/>
       <use xlink:href="#DejaVuSans-30" x="83.789062"/>
       <use xlink:href="#DejaVuSans-2e" x="147.412109"/>
       <use xlink:href="#DejaVuSans-30" x="179.199219"/>
       <use xlink:href="#DejaVuSans-31" x="242.822266"/>
       <use xlink:href="#DejaVuSans-30" x="306.445312"/>
      </g>
     </g>
    </g>
    <g id="ytick_13">
     <g id="line2d_72">
      <path d="M 68.69 497.723333 
L 565.2 497.723333 
" clip-path="url(#p81f2763b41)" style="fill: none; stroke: #b0b0b0; stroke-width: 0.8; stroke-linecap: square"/>
     </g>
     <g id="line2d_73">
      <g>
       <use xlink:href="#m6108754a37" x="68.69" y="497.723333" style="stroke: #000000; stroke-width: 0.8"/>
      </g>
     </g>
     <g id="text_39">
      <!-- −0.005 -->
      <g transform="translate(24.682188 501.522552) scale(0.1 -0.1)">
       <defs>
        <path id="DejaVuSans-35" d="M 691 4666 
L 3169 4666 
L 3169 4134 
L 1269 4134 
L 1269 2991 
Q 1406 3038 1543 3061 
Q 1681 3084 1819 3084 
Q 2600 3084 3056 2656 
Q 3513 2228 3513 1497 
Q 3513 744 3044 326 
Q 2575 -91 1722 -91 
Q 1428 -91 1123 -41 
Q 819 9 494 109 
L 494 744 
Q 775 591 1075 516 
Q 1375 441 1709 441 
Q 2250 441 2565 725 
Q 2881 1009 2881 1497 
Q 2881 1984 2565 2268 
Q 2250 2553 1709 2553 
Q 1456 2553 1204 2497 
Q 953 2441 691 2322 
L 691 4666 
z
" transform="scale(0.015625)"/>
       </defs>
       <use xlink:href="#DejaVuSans-2212"/>
       <use xlink:href="#DejaVuSans-30" x="83.789062"/>
       <use xlink:href="#DejaVuSans-2e" x="147.412109"/>
       <use xlink:href="#DejaVuSans-30" x="179.199219"/>
       <use xlink:href="#DejaVuSans-30" x="242.822266"/>
       <use xlink:href="#DejaVuSans-35" x="306.445312"/>
      </g>
     </g>
    </g>
    <g id="ytick_14">
     <g id="line2d_74">
      <path d="M 68.69 461.406667 
L 565.2 461.406667 
" clip-path="url(#p81f2763b41)" style="fill: none; stroke: #b0b0b0; stroke-width: 0.8; stroke-linecap: square"/>
     </g>
     <g id="line2d_75">
      <g>
       <use xlink:href="#m6108754a37" x="68.69" y="461.406667" style="stroke: #000000; stroke-width: 0.8"/>
      </g>
     </g>
     <g id="text_40">
      <!-- 0.000 -->
      <g transform="translate(33.061875 465.205885) scale(0.1 -0.1)">
       <use xlink:href="#DejaVuSans-30"/>
       <use xlink:href="#DejaVuSans-2e" x="63.623047"/>
       <use xlink:href="#DejaVuSans-30" x="95.410156"/>
       <use xlink:href="#DejaVuSans-30" x="159.033203"/>
       <use xlink:href="#DejaVuSans-30" x="222.65625"/>
      </g>
     </g>
    </g>
    <g id="ytick_15">
     <g id="line2d_76">
      <path d="M 68.69 425.09 
L 565.2 425.09 
" clip-path="url(#p81f2763b41)" style="fill: none; stroke: #b0b0b0; stroke-width: 0.8; stroke-linecap: square"/>
     </g>
     <g id="line2d_77">
      <g>
       <use xlink:href="#m6108754a37" x="68.69" y="425.09" style="stroke: #000000; stroke-width: 0.8"/>
      </g>
     </g>
     <g id="text_41">
      <!-- 0.005 -->
      <g transform="translate(33.061875 428.889219) scale(0.1 -0.1)">
       <use xlink:href="#DejaVuSans-30"/>
       <use xlink:href="#DejaVuSans-2e" x="63.623047"/>
       <use xlink:href="#DejaVuSans-30" x="95.410156"/>
       <use xlink:href="#DejaVuSans-30" x="159.033203"/>
       <use xlink:href="#DejaVuSans-35" x="222.65625"/>
      </g>
     </g>
    </g>
    <g id="ytick_16">
     <g id="line2d_78">
      <path d="M 68.69 388.773333 
L 565.2 388.773333 
" clip-path="url(#p81f2763b41)" style="fill: none; stroke: #b0b0b0; stroke-width: 0.8; stroke-linecap: square"/>
     </g>
     <g id="line2d_79">
      <g>
       <use xlink:href="#m6108754a37" x="68.69" y="388.773333" style="stroke: #000000; stroke-width: 0.8"/>
      </g>
     </g>
     <g id="text_42">
      <!-- 0.010 -->
      <g transform="translate(33.061875 392.572552) scale(0.1 -0.1)">
       <use xlink:href="#DejaVuSans-30"/>
       <use xlink:href="#DejaVuSans-2e" x="63.623047"/>
       <use xlink:href="#DejaVuSans-30" x="95.410156"/>
       <use xlink:href="#DejaVuSans-31" x="159.033203"/>
       <use xlink:href="#DejaVuSans-30" x="222.65625"/>
      </g>
     </g>
    </g>
    <g id="text_43">
     <!-- Frequency Error [rad/(2π * sample)] -->
     <g transform="translate(18.6025 550.429323) rotate(-90) scale(0.1 -0.1)">
      <defs>
       <path id="DejaVuSans-71" d="M 947 1747 
Q 947 1113 1208 752 
Q 1469 391 1925 391 
Q 2381 391 2643 752 
Q 2906 1113 2906 1747 
Q 2906 2381 2643 2742 
Q 2381 3103 1925 3103 
Q 1469 3103 1208 2742 
Q 947 2381 947 1747 
z
M 2906 525 
Q 2725 213 2448 61 
Q 2172 -91 1784 -91 
Q 1150 -91 751 415 
Q 353 922 353 1747 
Q 353 2572 751 3078 
Q 1150 3584 1784 3584 
Q 2172 3584 2448 3432 
Q 2725 3281 2906 2969 
L 2906 3500 
L 3481 3500 
L 3481 -1331 
L 2906 -1331 
L 2906 525 
z
" transform="scale(0.015625)"/>
       <path id="DejaVuSans-75" d="M 544 1381 
L 544 3500 
L 1119 3500 
L 1119 1403 
Q 1119 906 1312 657 
Q 1506 409 1894 409 
Q 2359 409 2629 706 
Q 2900 1003 2900 1516 
L 2900 3500 
L 3475 3500 
L 3475 0 
L 2900 0 
L 2900 538 
Q 2691 219 2414 64 
Q 2138 -91 1772 -91 
Q 1169 -91 856 284 
Q 544 659 544 1381 
z
M 1991 3584 
L 1991 3584 
z
" transform="scale(0.015625)"/>
       <path id="DejaVuSans-6e" d="M 3513 2113 
L 3513 0 
L 2938 0 
L 2938 2094 
Q 2938 2591 2744 2837 
Q 2550 3084 2163 3084 
Q 1697 3084 1428 2787 
Q 1159 2491 1159 1978 
L 1159 0 
L 581 0 
L 581 3500 
L 1159 3500 
L 1159 2956 
Q 1366 3272 1645 3428 
Q 1925 3584 2291 3584 
Q 2894 3584 3203 3211 
Q 3513 2838 3513 2113 
z
" transform="scale(0.015625)"/>
       <path id="DejaVuSans-63" d="M 3122 3366 
L 3122 2828 
Q 2878 2963 2633 3030 
Q 2388 3097 2138 3097 
Q 1578 3097 1268 2742 
Q 959 2388 959 1747 
Q 959 1106 1268 751 
Q 1578 397 2138 397 
Q 2388 397 2633 464 
Q 2878 531 3122 666 
L 3122 134 
Q 2881 22 2623 -34 
Q 2366 -91 2075 -91 
Q 1284 -91 818 406 
Q 353 903 353 1747 
Q 353 2603 823 3093 
Q 1294 3584 2113 3584 
Q 2378 3584 2631 3529 
Q 2884 3475 3122 3366 
z
" transform="scale(0.015625)"/>
       <path id="DejaVuSans-79" d="M 2059 -325 
Q 1816 -950 1584 -1140 
Q 1353 -1331 966 -1331 
L 506 -1331 
L 506 -850 
L 844 -850 
Q 1081 -850 1212 -737 
Q 1344 -625 1503 -206 
L 1606 56 
L 191 3500 
L 800 3500 
L 1894 763 
L 2988 3500 
L 3597 3500 
L 2059 -325 
z
" transform="scale(0.015625)"/>
       <path id="DejaVuSans-28" d="M 1984 4856 
Q 1566 4138 1362 3434 
Q 1159 2731 1159 2009 
Q 1159 1288 1364 580 
Q 1569 -128 1984 -844 
L 1484 -844 
Q 1016 -109 783 600 
Q 550 1309 550 2009 
Q 550 2706 781 3412 
Q 1013 4119 1484 4856 
L 1984 4856 
z
" transform="scale(0.015625)"/>
       <path id="DejaVuSans-2a" d="M 3009 3897 
L 1888 3291 
L 3009 2681 
L 2828 2375 
L 1778 3009 
L 1778 1831 
L 1422 1831 
L 1422 3009 
L 372 2375 
L 191 2681 
L 1313 3291 
L 191 3897 
L 372 4206 
L 1422 3572 
L 1422 4750 
L 1778 4750 
L 1778 3572 
L 2828 4206 
L 3009 3897 
z
" transform="scale(0.015625)"/>
       <path id="DejaVuSans-29" d="M 513 4856 
L 1013 4856 
Q 1481 4119 1714 3412 
Q 1947 2706 1947 2009 
Q 1947 1309 1714 600 
Q 1481 -109 1013 -844 
L 513 -844 
Q 928 -128 1133 580 
Q 1338 1288 1338 2009 
Q 1338 2731 1133 3434 
Q 928 4138 513 4856 
z
" transform="scale(0.015625)"/>
      </defs>
      <use xlink:href="#DejaVuSans-46"/>
      <use xlink:href="#DejaVuSans-72" x="50.269531"/>
      <use xlink:href="#DejaVuSans-65" x="89.132812"/>
      <use xlink:href="#DejaVuSans-71" x="150.65625"/>
      <use xlink:href="#DejaVuSans-75" x="214.132812"/>
      <use xlink:href="#DejaVuSans-65" x="277.511719"/>
      <use xlink:href="#DejaVuSans-6e" x="339.035156"/>
      <use xlink:href="#DejaVuSans-63" x="402.414062"/>
      <use xlink:href="#DejaVuSans-79" x="457.394531"/>
      <use xlink:href="#DejaVuSans-20" x="516.574219"/>
      <use xlink:href="#DejaVuSans-45" x="548.361328"/>
      <use xlink:href="#DejaVuSans-72" x="611.544922"/>
      <use xlink:href="#DejaVuSans-72" x="650.908203"/>
      <use xlink:href="#DejaVuSans-6f" x="689.771484"/>
      <use xlink:href="#DejaVuSans-72" x="750.953125"/>
      <use xlink:href="#DejaVuSans-20" x="792.066406"/>
      <use xlink:href="#DejaVuSans-5b" x="823.853516"/>
      <use xlink:href="#DejaVuSans-72" x="862.867188"/>
      <use xlink:href="#DejaVuSans-61" x="903.980469"/>
      <use xlink:href="#DejaVuSans-64" x="965.259766"/>
      <use xlink:href="#DejaVuSans-2f" x="1028.736328"/>
      <use xlink:href="#DejaVuSans-28" x="1062.427734"/>
      <use xlink:href="#DejaVuSans-32" x="1101.441406"/>
      <use xlink:href="#DejaVuSans-3c0" x="1165.064453"/>
      <use xlink:href="#DejaVuSans-20" x="1225.269531"/>
      <use xlink:href="#DejaVuSans-2a" x="1257.056641"/>
      <use xlink:href="#DejaVuSans-20" x="1307.056641"/>
      <use xlink:href="#DejaVuSans-73" x="1338.84375"/>
      <use xlink:href="#DejaVuSans-61" x="1390.943359"/>
      <use xlink:href="#DejaVuSans-6d" x="1452.222656"/>
      <use xlink:href="#DejaVuSans-70" x="1549.634766"/>
      <use xlink:href="#DejaVuSans-6c" x="1613.111328"/>
      <use xlink:href="#DejaVuSans-65" x="1640.894531"/>
      <use xlink:href="#DejaVuSans-29" x="1702.417969"/>
      <use xlink:href="#DejaVuSans-5d" x="1741.431641"/>
     </g>
    </g>
   </g>
   <g id="line2d_80">
    <path d="M 91.258636 455.353889 
L 92.617971 456.607006 
L 94.050784 457.623703 
L 95.630552 458.464012 
L 97.430752 459.162207 
L 99.598341 459.753586 
L 102.280272 460.244495 
L 105.770457 460.646912 
L 110.619977 460.966842 
L 117.820779 461.199878 
L 130.018056 461.344711 
L 158.196705 461.40246 
L 241.703966 461.406665 
L 241.70865 -1 
M 241.772827 -1 
L 241.777443 453.856509 
L 241.88766 453.778273 
L 243.136779 453.032043 
L 244.091987 452.703081 
L 244.936979 452.633939 
L 245.781971 452.783449 
L 246.73718 453.191654 
L 247.912821 453.95465 
L 250.300842 455.851136 
L 252.431691 457.396743 
L 254.231892 458.427321 
L 256.10557 459.238794 
L 258.162942 459.882839 
L 260.587702 460.401055 
L 263.600282 460.805317 
L 267.568071 461.099918 
L 273.446277 461.292872 
L 284.24748 461.388138 
L 326.01948 461.40665 
L 392.186034 461.406667 
L 392.190743 -1 
M 392.254614 -1 
L 392.369728 483.139833 
L 394.574055 490.898816 
L 394.941443 491.32849 
L 395.198615 491.346332 
L 395.455786 491.127599 
L 395.786435 490.521881 
L 396.264039 489.12252 
L 397.182509 485.543511 
L 398.35815 481.221702 
L 399.166404 479.076712 
L 399.86444 477.82415 
L 400.452261 477.173618 
L 401.003343 476.878416 
L 401.480947 476.860324 
L 401.958551 477.061895 
L 402.472894 477.530224 
L 403.060715 478.400007 
L 403.685274 479.739646 
L 404.42005 481.883507 
L 405.375258 485.455783 
L 406.624377 490.071412 
L 407.101981 491.088043 
L 407.43263 491.360155 
L 407.689802 491.301719 
L 407.983712 490.949453 
L 408.387839 490.022065 
L 408.975659 488.014964 
L 411.06977 480.329587 
L 411.804546 478.605519 
L 412.465844 477.571762 
L 413.053665 477.036645 
L 413.568008 476.848441 
L 414.045612 476.90181 
L 414.523216 477.175805 
L 415.074298 477.774803 
L 415.662119 478.766153 
L 416.323417 480.34293 
L 417.094931 482.803716 
L 418.417527 487.98553 
L 419.152303 490.385713 
L 419.593169 491.191383 
L 419.887079 491.367195 
L 420.14425 491.266645 
L 420.438161 490.869034 
L 420.842287 489.890047 
L 421.466847 487.695356 
L 423.377264 480.616626 
L 424.148778 478.73236 
L 424.810076 477.65217 
L 425.397897 477.078548 
L 425.91224 476.858046 
L 426.389844 476.881757 
L 426.867448 477.125621 
L 427.381791 477.641197 
L 427.969612 478.568207 
L 428.63091 480.068687 
L 429.365686 482.31706 
L 430.431111 486.418467 
L 431.459797 490.120294 
L 431.937401 491.112139 
L 432.26805 491.363773 
L 432.525221 491.289002 
L 432.819132 490.919081 
L 433.223258 489.971498 
L 433.847818 487.804415 
L 435.831712 480.486152 
L 436.603227 478.642471 
L 437.264525 477.595043 
L 437.852345 477.048586 
L 438.366688 476.850859 
L 438.844293 476.895472 
L 439.321897 477.16056 
L 439.83624 477.699913 
L 440.42406 478.655752 
L 441.085359 480.190479 
L 441.856873 482.604824 
L 443.032514 487.191919 
L 443.914245 490.242863 
L 444.391849 491.169472 
L 444.68576 491.365159 
L 444.942931 491.282229 
L 445.236841 490.90352 
L 445.640968 489.945935 
L 446.265527 487.769994 
L 448.212683 480.565789 
L 448.984198 478.697254 
L 449.645496 477.629778 
L 450.233316 477.066696 
L 450.747659 476.855025 
L 451.225264 476.886833 
L 451.702868 477.138914 
L 452.217211 477.66369 
L 452.805031 478.601853 
L 453.46633 480.115593 
L 454.237844 482.506494 
L 455.340008 486.786066 
L 456.295216 490.168405 
L 456.77282 491.135187 
L 457.103469 491.366265 
L 457.360641 491.27518 
L 457.654551 490.887712 
L 458.058678 489.920189 
L 458.683237 487.735507 
L 460.630393 480.540505 
L 461.401907 478.679833 
L 462.063205 477.618705 
L 462.651026 477.060885 
L 463.165369 476.853626 
L 463.642973 476.889484 
L 464.120578 477.145676 
L 464.634921 477.675059 
L 465.222741 478.618806 
L 465.884039 480.13918 
L 466.655554 482.537511 
L 467.794456 486.968984 
L 468.712926 490.192168 
L 469.19053 491.146316 
L 469.521179 491.367088 
L 469.778351 491.267857 
L 470.072261 490.871656 
L 470.476388 489.894261 
L 471.100947 487.700956 
L 473.011364 480.620757 
L 473.782878 478.735217 
L 474.444176 477.653997 
L 475.031997 477.079521 
L 475.54634 476.858304 
L 476.023944 476.881359 
L 476.501548 477.124558 
L 477.015891 477.63939 
L 477.603712 478.565499 
L 478.26501 480.064907 
L 478.999786 482.312123 
L 480.065211 486.41269 
L 481.093897 490.116366 
L 481.571501 491.110227 
L 481.90215 491.363522 
L 482.159322 491.290072 
L 482.453232 490.921576 
L 482.857358 489.975619 
L 483.481918 487.809981 
L 485.465812 480.490207 
L 486.237327 478.645255 
L 486.898625 477.596802 
L 487.486446 477.049494 
L 488.000789 476.851054 
L 488.478393 476.895011 
L 488.955997 477.159433 
L 489.47034 477.698039 
L 490.058161 478.652972 
L 490.719459 480.186623 
L 491.490973 482.599771 
L 492.666614 487.186231 
L 493.548345 490.239099 
L 494.025949 491.167781 
L 494.31986 491.364954 
L 494.577031 491.283344 
L 494.870942 490.906056 
L 495.275068 489.950086 
L 495.899628 487.775571 
L 497.846783 480.56989 
L 498.618298 478.700083 
L 499.279596 477.631579 
L 499.867416 477.067644 
L 500.38176 476.855258 
L 500.859364 476.886411 
L 501.336968 477.137827 
L 501.851311 477.661857 
L 502.439132 478.599117 
L 503.10043 480.111783 
L 503.871944 482.50148 
L 504.974108 486.780319 
L 505.929316 490.16454 
L 506.40692 491.133361 
L 506.73757 491.366105 
L 506.994741 491.27634 
L 507.288651 490.890288 
L 507.692778 489.924369 
L 508.317337 487.741094 
L 510.264493 480.544592 
L 511.036008 478.682648 
L 511.697306 477.620492 
L 512.285126 477.061821 
L 512.799469 476.853847 
L 513.277073 476.88905 
L 513.754678 477.144576 
L 514.269021 477.673213 
L 514.856841 478.616056 
L 515.518139 480.135356 
L 516.289654 482.532485 
L 517.428556 486.963259 
L 518.347026 490.188334 
L 518.82463 491.144532 
L 519.155279 491.366974 
L 519.412451 491.269061 
L 519.706361 490.874272 
L 520.110488 489.898471 
L 520.735047 487.706553 
L 522.645464 480.62489 
L 523.416978 478.738076 
L 524.078277 477.655826 
L 524.666097 477.080496 
L 525.18044 476.858564 
L 525.658044 476.880963 
L 526.135649 477.123498 
L 526.649992 477.637586 
L 527.237812 478.562793 
L 527.89911 480.061128 
L 528.633886 482.307188 
L 529.662572 486.258296 
L 530.727997 490.112433 
L 531.205601 491.108309 
L 531.53625 491.363263 
L 531.793422 491.291136 
L 532.087332 490.924065 
L 532.491459 489.979734 
L 533.116018 487.815545 
L 535.099912 480.494265 
L 535.871427 478.648041 
L 536.532725 477.598563 
L 537.120546 477.050405 
L 537.634889 476.851251 
L 538.112493 476.894552 
L 538.590097 477.158308 
L 539.10444 477.696167 
L 539.692261 478.650193 
L 540.353559 480.18277 
L 541.125073 482.594721 
L 542.263976 487.033928 
L 542.631364 488.456378 
L 542.631364 488.456378 
" clip-path="url(#p81f2763b41)" style="fill: none; stroke: #ff0000; stroke-opacity: 0.5; stroke-linecap: square"/>
   </g>
   <g id="patch_14">
    <path d="M 68.69 534.04 
L 68.69 388.773333 
" style="fill: none; stroke: #000000; stroke-width: 0.8; stroke-linejoin: miter; stroke-linecap: square"/>
   </g>
   <g id="patch_15">
    <path d="M 565.2 534.04 
L 565.2 388.773333 
" style="fill: none; stroke: #000000; stroke-width: 0.8; stroke-linejoin: miter; stroke-linecap: square"/>
   </g>
   <g id="patch_16">
    <path d="M 68.69 534.04 
L 565.2 534.04 
" style="fill: none; stroke: #000000; stroke-width: 0.8; stroke-linejoin: miter; stroke-linecap: square"/>
   </g>
   <g id="patch_17">
    <path d="M 68.69 388.773333 
L 565.2 388.773333 
" style="fill: none; stroke: #000000; stroke-width: 0.8; stroke-linejoin: miter; stroke-linecap: square"/>
   </g>
  </g>
  <g id="text_44">
   <!-- Kuramoto Model Example -->
   <g transform="translate(211.019063 20.638125) scale(0.12 -0.12)">
    <defs>
     <path id="DejaVuSans-4b" d="M 628 4666 
L 1259 4666 
L 1259 2694 
L 3353 4666 
L 4166 4666 
L 1850 2491 
L 4331 0 
L 3500 0 
L 1259 2247 
L 1259 0 
L 628 0 
L 628 4666 
z
" transform="scale(0.015625)"/>
     <path id="DejaVuSans-4d" d="M 628 4666 
L 1569 4666 
L 2759 1491 
L 3956 4666 
L 4897 4666 
L 4897 0 
L 4281 0 
L 4281 4097 
L 3078 897 
L 2444 897 
L 1241 4097 
L 1241 0 
L 628 0 
L 628 4666 
z
" transform="scale(0.015625)"/>
     <path id="DejaVuSans-78" d="M 3513 3500 
L 2247 1797 
L 3578 0 
L 2900 0 
L 1881 1375 
L 863 0 
L 184 0 
L 1544 1831 
L 300 3500 
L 978 3500 
L 1906 2253 
L 2834 3500 
L 3513 3500 
z
" transform="scale(0.015625)"/>
    </defs>
    <use xlink:href="#DejaVuSans-4b"/>
    <use xlink:href="#DejaVuSans-75" x="60.576172"/>
    <use xlink:href="#DejaVuSans-72" x="123.955078"/>
    <use xlink:href="#DejaVuSans-61" x="165.068359"/>
    <use xlink:href="#DejaVuSans-6d" x="226.347656"/>
    <use xlink:href="#DejaVuSans-6f" x="323.759766"/>
    <use xlink:href="#DejaVuSans-74" x="384.941406"/>
    <use xlink:href="#DejaVuSans-6f" x="424.150391"/>
    <use xlink:href="#DejaVuSans-20" x="485.332031"/>
    <use xlink:href="#DejaVuSans-4d" x="517.119141"/>
    <use xlink:href="#DejaVuSans-6f" x="603.398438"/>
    <use xlink:href="#DejaVuSans-64" x="664.580078"/>
    <use xlink:href="#DejaVuSans-65" x="728.056641"/>
    <use xlink:href="#DejaVuSans-6c" x="789.580078"/>
    <use xlink:href="#DejaVuSans-20" x="817.363281"/>
    <use xlink:href="#DejaVuSans-45" x="849.150391"/>
    <use xlink:href="#DejaVuSans-78" x="912.333984"/>
    <use xlink:href="#DejaVuSans-61" x="971.513672"/>
    <use xlink:href="#DejaVuSans-6d" x="1032.792969"/>
    <use xlink:href="#DejaVuSans-70" x="1130.205078"/>
    <use xlink:href="#DejaVuSans-6c" x="1193.681641"/>
    <use xlink:href="#DejaVuSans-65" x="1221.464844"/>
   </g>
  </g>
 </g>
 <defs>
  <clipPath id="p148969acec">
   <rect x="68.69" y="34.56" width="496.51" height="145.266667"/>
  </clipPath>
  <clipPath id="pb3209212e8">
   <rect x="68.69" y="211.666667" width="496.51" height="145.266667"/>
  </clipPath>
  <clipPath id="p81f2763b41">
   <rect x="68.69" y="388.773333" width="496.51" height="145.266667"/>
  </clipPath>
 </defs>
</svg>
