<?xml version="1.0" encoding="utf-8" standalone="no"?>
<!DOCTYPE svg PUBLIC "-//W3C//DTD SVG 1.1//EN"
  "http://www.w3.org/Graphics/SVG/1.1/DTD/svg11.dtd">
<svg xmlns:xlink="http://www.w3.org/1999/xlink" width="432pt" height="432pt" viewBox="0 0 432 432" xmlns="http://www.w3.org/2000/svg" version="1.1">
 <metadata>
  <rdf:RDF xmlns:dc="http://purl.org/dc/elements/1.1/" xmlns:cc="http://creativecommons.org/ns#" xmlns:rdf="http://www.w3.org/1999/02/22-rdf-syntax-ns#">
   <cc:Work>
    <dc:type rdf:resource="http://purl.org/dc/dcmitype/StillImage"/>
    <dc:date>2024-08-25T00:22:22.500578</dc:date>
    <dc:format>image/svg+xml</dc:format>
    <dc:creator>
     <cc:Agent>
      <dc:title>Matplotlib v3.8.2, https://matplotlib.org/</dc:title>
     </cc:Agent>
    </dc:creator>
   </cc:Work>
  </rdf:RDF>
 </metadata>
 <defs>
  <style type="text/css">*{stroke-linejoin: round; stroke-linecap: butt}</style>
 </defs>
 <g id="figure_1">
  <g id="patch_1">
   <path d="M 0 432 
L 432 432 
L 432 0 
L 0 0 
z
" style="fill: #ffffff"/>
  </g>
  <g id="axes_1">
   <g id="patch_2">
    <path d="M 60.32 186.858769 
L 421.2 186.858769 
L 421.2 34.56 
L 60.32 34.56 
z
" style="fill: #ffffff"/>
   </g>
   <g id="matplotlib.axis_1">
    <g id="xtick_1">
     <g id="line2d_1">
      <path d="M 137.3937 186.858769 
L 137.3937 34.56 
" clip-path="url(#pa609330e28)" style="fill: none; stroke: #f0f0f0; stroke-width: 0.8; stroke-linecap: square"/>
     </g>
     <g id="line2d_2">
      <defs>
       <path id="me739408a39" d="M 0 0 
L 0 3.5 
" style="stroke: #000000; stroke-width: 0.8"/>
      </defs>
      <g>
       <use xlink:href="#me739408a39" x="137.3937" y="186.858769" style="stroke: #000000; stroke-width: 0.8"/>
      </g>
     </g>
     <g id="text_1">
      <!-- $\mathdefault{10^{-3}}$ -->
      <g transform="translate(125.6437 201.457207) scale(0.1 -0.1)">
       <defs>
        <path id="DejaVuSans-31" d="M 794 531 
L 1825 531 
L 1825 4091 
L 703 3866 
L 703 4441 
L 1819 4666 
L 2450 4666 
L 2450 531 
L 3481 531 
L 3481 0 
L 794 0 
L 794 531 
z
" transform="scale(0.015625)"/>
        <path id="DejaVuSans-30" d="M 2034 4250 
Q 1547 4250 1301 3770 
Q 1056 3291 1056 2328 
Q 1056 1369 1301 889 
Q 1547 409 2034 409 
Q 2525 409 2770 889 
Q 3016 1369 3016 2328 
Q 3016 3291 2770 3770 
Q 2525 4250 2034 4250 
z
M 2034 4750 
Q 2819 4750 3233 4129 
Q 3647 3509 3647 2328 
Q 3647 1150 3233 529 
Q 2819 -91 2034 -91 
Q 1250 -91 836 529 
Q 422 1150 422 2328 
Q 422 3509 836 4129 
Q 1250 4750 2034 4750 
z
" transform="scale(0.015625)"/>
        <path id="DejaVuSans-2212" d="M 678 2272 
L 4684 2272 
L 4684 1741 
L 678 1741 
L 678 2272 
z
" transform="scale(0.015625)"/>
        <path id="DejaVuSans-33" d="M 2597 2516 
Q 3050 2419 3304 2112 
Q 3559 1806 3559 1356 
Q 3559 666 3084 287 
Q 2609 -91 1734 -91 
Q 1441 -91 1130 -33 
Q 819 25 488 141 
L 488 750 
Q 750 597 1062 519 
Q 1375 441 1716 441 
Q 2309 441 2620 675 
Q 2931 909 2931 1356 
Q 2931 1769 2642 2001 
Q 2353 2234 1838 2234 
L 1294 2234 
L 1294 2753 
L 1863 2753 
Q 2328 2753 2575 2939 
Q 2822 3125 2822 3475 
Q 2822 3834 2567 4026 
Q 2313 4219 1838 4219 
Q 1578 4219 1281 4162 
Q 984 4106 628 3988 
L 628 4550 
Q 988 4650 1302 4700 
Q 1616 4750 1894 4750 
Q 2613 4750 3031 4423 
Q 3450 4097 3450 3541 
Q 3450 3153 3228 2886 
Q 3006 2619 2597 2516 
z
" transform="scale(0.015625)"/>
       </defs>
       <use xlink:href="#DejaVuSans-31" transform="translate(0 0.765625)"/>
       <use xlink:href="#DejaVuSans-30" transform="translate(63.623047 0.765625)"/>
       <use xlink:href="#DejaVuSans-2212" transform="translate(128.203125 39.046875) scale(0.7)"/>
       <use xlink:href="#DejaVuSans-33" transform="translate(186.855469 39.046875) scale(0.7)"/>
      </g>
     </g>
    </g>
    <g id="xtick_2">
     <g id="line2d_3">
      <path d="M 236.469519 186.858769 
L 236.469519 34.56 
" clip-path="url(#pa609330e28)" style="fill: none; stroke: #f0f0f0; stroke-width: 0.8; stroke-linecap: square"/>
     </g>
     <g id="line2d_4">
      <g>
       <use xlink:href="#me739408a39" x="236.469519" y="186.858769" style="stroke: #000000; stroke-width: 0.8"/>
      </g>
     </g>
     <g id="text_2">
      <!-- $\mathdefault{10^{-2}}$ -->
      <g transform="translate(224.719519 201.457207) scale(0.1 -0.1)">
       <defs>
        <path id="DejaVuSans-32" d="M 1228 531 
L 3431 531 
L 3431 0 
L 469 0 
L 469 531 
Q 828 903 1448 1529 
Q 2069 2156 2228 2338 
Q 2531 2678 2651 2914 
Q 2772 3150 2772 3378 
Q 2772 3750 2511 3984 
Q 2250 4219 1831 4219 
Q 1534 4219 1204 4116 
Q 875 4013 500 3803 
L 500 4441 
Q 881 4594 1212 4672 
Q 1544 4750 1819 4750 
Q 2544 4750 2975 4387 
Q 3406 4025 3406 3419 
Q 3406 3131 3298 2873 
Q 3191 2616 2906 2266 
Q 2828 2175 2409 1742 
Q 1991 1309 1228 531 
z
" transform="scale(0.015625)"/>
       </defs>
       <use xlink:href="#DejaVuSans-31" transform="translate(0 0.765625)"/>
       <use xlink:href="#DejaVuSans-30" transform="translate(63.623047 0.765625)"/>
       <use xlink:href="#DejaVuSans-2212" transform="translate(128.203125 39.046875) scale(0.7)"/>
       <use xlink:href="#DejaVuSans-32" transform="translate(186.855469 39.046875) scale(0.7)"/>
      </g>
     </g>
    </g>
    <g id="xtick_3">
     <g id="line2d_5">
      <path d="M 335.545338 186.858769 
L 335.545338 34.56 
" clip-path="url(#pa609330e28)" style="fill: none; stroke: #f0f0f0; stroke-width: 0.8; stroke-linecap: square"/>
     </g>
     <g id="line2d_6">
      <g>
       <use xlink:href="#me739408a39" x="335.545338" y="186.858769" style="stroke: #000000; stroke-width: 0.8"/>
      </g>
     </g>
     <g id="text_3">
      <!-- $\mathdefault{10^{-1}}$ -->
      <g transform="translate(323.795338 201.457207) scale(0.1 -0.1)">
       <use xlink:href="#DejaVuSans-31" transform="translate(0 0.684375)"/>
       <use xlink:href="#DejaVuSans-30" transform="translate(63.623047 0.684375)"/>
       <use xlink:href="#DejaVuSans-2212" transform="translate(128.203125 38.965625) scale(0.7)"/>
       <use xlink:href="#DejaVuSans-31" transform="translate(186.855469 38.965625) scale(0.7)"/>
      </g>
     </g>
    </g>
    <g id="xtick_4">
     <g id="line2d_7">
      <path d="M 68.142674 186.858769 
L 68.142674 34.56 
" clip-path="url(#pa609330e28)" style="fill: none; stroke: #f0f0f0; stroke-width: 0.8; stroke-linecap: square"/>
     </g>
     <g id="line2d_8">
      <defs>
       <path id="m2debc9e75a" d="M 0 0 
L 0 2 
" style="stroke: #000000; stroke-width: 0.6"/>
      </defs>
      <g>
       <use xlink:href="#m2debc9e75a" x="68.142674" y="186.858769" style="stroke: #000000; stroke-width: 0.6"/>
      </g>
     </g>
    </g>
    <g id="xtick_5">
     <g id="line2d_9">
      <path d="M 85.58906 186.858769 
L 85.58906 34.56 
" clip-path="url(#pa609330e28)" style="fill: none; stroke: #f0f0f0; stroke-width: 0.8; stroke-linecap: square"/>
     </g>
     <g id="line2d_10">
      <g>
       <use xlink:href="#m2debc9e75a" x="85.58906" y="186.858769" style="stroke: #000000; stroke-width: 0.6"/>
      </g>
     </g>
    </g>
    <g id="xtick_6">
     <g id="line2d_11">
      <path d="M 97.967467 186.858769 
L 97.967467 34.56 
" clip-path="url(#pa609330e28)" style="fill: none; stroke: #f0f0f0; stroke-width: 0.8; stroke-linecap: square"/>
     </g>
     <g id="line2d_12">
      <g>
       <use xlink:href="#m2debc9e75a" x="97.967467" y="186.858769" style="stroke: #000000; stroke-width: 0.6"/>
      </g>
     </g>
    </g>
    <g id="xtick_7">
     <g id="line2d_13">
      <path d="M 107.568906 186.858769 
L 107.568906 34.56 
" clip-path="url(#pa609330e28)" style="fill: none; stroke: #f0f0f0; stroke-width: 0.8; stroke-linecap: square"/>
     </g>
     <g id="line2d_14">
      <g>
       <use xlink:href="#m2debc9e75a" x="107.568906" y="186.858769" style="stroke: #000000; stroke-width: 0.6"/>
      </g>
     </g>
    </g>
    <g id="xtick_8">
     <g id="line2d_15">
      <path d="M 115.413853 186.858769 
L 115.413853 34.56 
" clip-path="url(#pa609330e28)" style="fill: none; stroke: #f0f0f0; stroke-width: 0.8; stroke-linecap: square"/>
     </g>
     <g id="line2d_16">
      <g>
       <use xlink:href="#m2debc9e75a" x="115.413853" y="186.858769" style="stroke: #000000; stroke-width: 0.6"/>
      </g>
     </g>
    </g>
    <g id="xtick_9">
     <g id="line2d_17">
      <path d="M 122.046661 186.858769 
L 122.046661 34.56 
" clip-path="url(#pa609330e28)" style="fill: none; stroke: #f0f0f0; stroke-width: 0.8; stroke-linecap: square"/>
     </g>
     <g id="line2d_18">
      <g>
       <use xlink:href="#m2debc9e75a" x="122.046661" y="186.858769" style="stroke: #000000; stroke-width: 0.6"/>
      </g>
     </g>
    </g>
    <g id="xtick_10">
     <g id="line2d_19">
      <path d="M 127.792261 186.858769 
L 127.792261 34.56 
" clip-path="url(#pa609330e28)" style="fill: none; stroke: #f0f0f0; stroke-width: 0.8; stroke-linecap: square"/>
     </g>
     <g id="line2d_20">
      <g>
       <use xlink:href="#m2debc9e75a" x="127.792261" y="186.858769" style="stroke: #000000; stroke-width: 0.6"/>
      </g>
     </g>
    </g>
    <g id="xtick_11">
     <g id="line2d_21">
      <path d="M 132.860239 186.858769 
L 132.860239 34.56 
" clip-path="url(#pa609330e28)" style="fill: none; stroke: #f0f0f0; stroke-width: 0.8; stroke-linecap: square"/>
     </g>
     <g id="line2d_22">
      <g>
       <use xlink:href="#m2debc9e75a" x="132.860239" y="186.858769" style="stroke: #000000; stroke-width: 0.6"/>
      </g>
     </g>
    </g>
    <g id="xtick_12">
     <g id="line2d_23">
      <path d="M 167.218493 186.858769 
L 167.218493 34.56 
" clip-path="url(#pa609330e28)" style="fill: none; stroke: #f0f0f0; stroke-width: 0.8; stroke-linecap: square"/>
     </g>
     <g id="line2d_24">
      <g>
       <use xlink:href="#m2debc9e75a" x="167.218493" y="186.858769" style="stroke: #000000; stroke-width: 0.6"/>
      </g>
     </g>
    </g>
    <g id="xtick_13">
     <g id="line2d_25">
      <path d="M 184.664879 186.858769 
L 184.664879 34.56 
" clip-path="url(#pa609330e28)" style="fill: none; stroke: #f0f0f0; stroke-width: 0.8; stroke-linecap: square"/>
     </g>
     <g id="line2d_26">
      <g>
       <use xlink:href="#m2debc9e75a" x="184.664879" y="186.858769" style="stroke: #000000; stroke-width: 0.6"/>
      </g>
     </g>
    </g>
    <g id="xtick_14">
     <g id="line2d_27">
      <path d="M 197.043287 186.858769 
L 197.043287 34.56 
" clip-path="url(#pa609330e28)" style="fill: none; stroke: #f0f0f0; stroke-width: 0.8; stroke-linecap: square"/>
     </g>
     <g id="line2d_28">
      <g>
       <use xlink:href="#m2debc9e75a" x="197.043287" y="186.858769" style="stroke: #000000; stroke-width: 0.6"/>
      </g>
     </g>
    </g>
    <g id="xtick_15">
     <g id="line2d_29">
      <path d="M 206.644725 186.858769 
L 206.644725 34.56 
" clip-path="url(#pa609330e28)" style="fill: none; stroke: #f0f0f0; stroke-width: 0.8; stroke-linecap: square"/>
     </g>
     <g id="line2d_30">
      <g>
       <use xlink:href="#m2debc9e75a" x="206.644725" y="186.858769" style="stroke: #000000; stroke-width: 0.6"/>
      </g>
     </g>
    </g>
    <g id="xtick_16">
     <g id="line2d_31">
      <path d="M 214.489672 186.858769 
L 214.489672 34.56 
" clip-path="url(#pa609330e28)" style="fill: none; stroke: #f0f0f0; stroke-width: 0.8; stroke-linecap: square"/>
     </g>
     <g id="line2d_32">
      <g>
       <use xlink:href="#m2debc9e75a" x="214.489672" y="186.858769" style="stroke: #000000; stroke-width: 0.6"/>
      </g>
     </g>
    </g>
    <g id="xtick_17">
     <g id="line2d_33">
      <path d="M 221.12248 186.858769 
L 221.12248 34.56 
" clip-path="url(#pa609330e28)" style="fill: none; stroke: #f0f0f0; stroke-width: 0.8; stroke-linecap: square"/>
     </g>
     <g id="line2d_34">
      <g>
       <use xlink:href="#m2debc9e75a" x="221.12248" y="186.858769" style="stroke: #000000; stroke-width: 0.6"/>
      </g>
     </g>
    </g>
    <g id="xtick_18">
     <g id="line2d_35">
      <path d="M 226.86808 186.858769 
L 226.86808 34.56 
" clip-path="url(#pa609330e28)" style="fill: none; stroke: #f0f0f0; stroke-width: 0.8; stroke-linecap: square"/>
     </g>
     <g id="line2d_36">
      <g>
       <use xlink:href="#m2debc9e75a" x="226.86808" y="186.858769" style="stroke: #000000; stroke-width: 0.6"/>
      </g>
     </g>
    </g>
    <g id="xtick_19">
     <g id="line2d_37">
      <path d="M 231.936058 186.858769 
L 231.936058 34.56 
" clip-path="url(#pa609330e28)" style="fill: none; stroke: #f0f0f0; stroke-width: 0.8; stroke-linecap: square"/>
     </g>
     <g id="line2d_38">
      <g>
       <use xlink:href="#m2debc9e75a" x="231.936058" y="186.858769" style="stroke: #000000; stroke-width: 0.6"/>
      </g>
     </g>
    </g>
    <g id="xtick_20">
     <g id="line2d_39">
      <path d="M 266.294312 186.858769 
L 266.294312 34.56 
" clip-path="url(#pa609330e28)" style="fill: none; stroke: #f0f0f0; stroke-width: 0.8; stroke-linecap: square"/>
     </g>
     <g id="line2d_40">
      <g>
       <use xlink:href="#m2debc9e75a" x="266.294312" y="186.858769" style="stroke: #000000; stroke-width: 0.6"/>
      </g>
     </g>
    </g>
    <g id="xtick_21">
     <g id="line2d_41">
      <path d="M 283.740698 186.858769 
L 283.740698 34.56 
" clip-path="url(#pa609330e28)" style="fill: none; stroke: #f0f0f0; stroke-width: 0.8; stroke-linecap: square"/>
     </g>
     <g id="line2d_42">
      <g>
       <use xlink:href="#m2debc9e75a" x="283.740698" y="186.858769" style="stroke: #000000; stroke-width: 0.6"/>
      </g>
     </g>
    </g>
    <g id="xtick_22">
     <g id="line2d_43">
      <path d="M 296.119106 186.858769 
L 296.119106 34.56 
" clip-path="url(#pa609330e28)" style="fill: none; stroke: #f0f0f0; stroke-width: 0.8; stroke-linecap: square"/>
     </g>
     <g id="line2d_44">
      <g>
       <use xlink:href="#m2debc9e75a" x="296.119106" y="186.858769" style="stroke: #000000; stroke-width: 0.6"/>
      </g>
     </g>
    </g>
    <g id="xtick_23">
     <g id="line2d_45">
      <path d="M 305.720545 186.858769 
L 305.720545 34.56 
" clip-path="url(#pa609330e28)" style="fill: none; stroke: #f0f0f0; stroke-width: 0.8; stroke-linecap: square"/>
     </g>
     <g id="line2d_46">
      <g>
       <use xlink:href="#m2debc9e75a" x="305.720545" y="186.858769" style="stroke: #000000; stroke-width: 0.6"/>
      </g>
     </g>
    </g>
    <g id="xtick_24">
     <g id="line2d_47">
      <path d="M 313.565491 186.858769 
L 313.565491 34.56 
" clip-path="url(#pa609330e28)" style="fill: none; stroke: #f0f0f0; stroke-width: 0.8; stroke-linecap: square"/>
     </g>
     <g id="line2d_48">
      <g>
       <use xlink:href="#m2debc9e75a" x="313.565491" y="186.858769" style="stroke: #000000; stroke-width: 0.6"/>
      </g>
     </g>
    </g>
    <g id="xtick_25">
     <g id="line2d_49">
      <path d="M 320.198299 186.858769 
L 320.198299 34.56 
" clip-path="url(#pa609330e28)" style="fill: none; stroke: #f0f0f0; stroke-width: 0.8; stroke-linecap: square"/>
     </g>
     <g id="line2d_50">
      <g>
       <use xlink:href="#m2debc9e75a" x="320.198299" y="186.858769" style="stroke: #000000; stroke-width: 0.6"/>
      </g>
     </g>
    </g>
    <g id="xtick_26">
     <g id="line2d_51">
      <path d="M 325.943899 186.858769 
L 325.943899 34.56 
" clip-path="url(#pa609330e28)" style="fill: none; stroke: #f0f0f0; stroke-width: 0.8; stroke-linecap: square"/>
     </g>
     <g id="line2d_52">
      <g>
       <use xlink:href="#m2debc9e75a" x="325.943899" y="186.858769" style="stroke: #000000; stroke-width: 0.6"/>
      </g>
     </g>
    </g>
    <g id="xtick_27">
     <g id="line2d_53">
      <path d="M 331.011877 186.858769 
L 331.011877 34.56 
" clip-path="url(#pa609330e28)" style="fill: none; stroke: #f0f0f0; stroke-width: 0.8; stroke-linecap: square"/>
     </g>
     <g id="line2d_54">
      <g>
       <use xlink:href="#m2debc9e75a" x="331.011877" y="186.858769" style="stroke: #000000; stroke-width: 0.6"/>
      </g>
     </g>
    </g>
    <g id="xtick_28">
     <g id="line2d_55">
      <path d="M 365.370131 186.858769 
L 365.370131 34.56 
" clip-path="url(#pa609330e28)" style="fill: none; stroke: #f0f0f0; stroke-width: 0.8; stroke-linecap: square"/>
     </g>
     <g id="line2d_56">
      <g>
       <use xlink:href="#m2debc9e75a" x="365.370131" y="186.858769" style="stroke: #000000; stroke-width: 0.6"/>
      </g>
     </g>
    </g>
    <g id="xtick_29">
     <g id="line2d_57">
      <path d="M 382.816517 186.858769 
L 382.816517 34.56 
" clip-path="url(#pa609330e28)" style="fill: none; stroke: #f0f0f0; stroke-width: 0.8; stroke-linecap: square"/>
     </g>
     <g id="line2d_58">
      <g>
       <use xlink:href="#m2debc9e75a" x="382.816517" y="186.858769" style="stroke: #000000; stroke-width: 0.6"/>
      </g>
     </g>
    </g>
    <g id="xtick_30">
     <g id="line2d_59">
      <path d="M 395.194925 186.858769 
L 395.194925 34.56 
" clip-path="url(#pa609330e28)" style="fill: none; stroke: #f0f0f0; stroke-width: 0.8; stroke-linecap: square"/>
     </g>
     <g id="line2d_60">
      <g>
       <use xlink:href="#m2debc9e75a" x="395.194925" y="186.858769" style="stroke: #000000; stroke-width: 0.6"/>
      </g>
     </g>
    </g>
    <g id="xtick_31">
     <g id="line2d_61">
      <path d="M 404.796364 186.858769 
L 404.796364 34.56 
" clip-path="url(#pa609330e28)" style="fill: none; stroke: #f0f0f0; stroke-width: 0.8; stroke-linecap: square"/>
     </g>
     <g id="line2d_62">
      <g>
       <use xlink:href="#m2debc9e75a" x="404.796364" y="186.858769" style="stroke: #000000; stroke-width: 0.6"/>
      </g>
     </g>
    </g>
    <g id="xtick_32">
     <g id="line2d_63">
      <path d="M 412.64131 186.858769 
L 412.64131 34.56 
" clip-path="url(#pa609330e28)" style="fill: none; stroke: #f0f0f0; stroke-width: 0.8; stroke-linecap: square"/>
     </g>
     <g id="line2d_64">
      <g>
       <use xlink:href="#m2debc9e75a" x="412.64131" y="186.858769" style="stroke: #000000; stroke-width: 0.6"/>
      </g>
     </g>
    </g>
    <g id="xtick_33">
     <g id="line2d_65">
      <path d="M 419.274118 186.858769 
L 419.274118 34.56 
" clip-path="url(#pa609330e28)" style="fill: none; stroke: #f0f0f0; stroke-width: 0.8; stroke-linecap: square"/>
     </g>
     <g id="line2d_66">
      <g>
       <use xlink:href="#m2debc9e75a" x="419.274118" y="186.858769" style="stroke: #000000; stroke-width: 0.6"/>
      </g>
     </g>
    </g>
    <g id="text_4">
     <!-- Target Frequency [rad/2π] -->
     <g transform="translate(176.209219 215.135332) scale(0.1 -0.1)">
      <defs>
       <path id="DejaVuSans-54" d="M -19 4666 
L 3928 4666 
L 3928 4134 
L 2272 4134 
L 2272 0 
L 1638 0 
L 1638 4134 
L -19 4134 
L -19 4666 
z
" transform="scale(0.015625)"/>
       <path id="DejaVuSans-61" d="M 2194 1759 
Q 1497 1759 1228 1600 
Q 959 1441 959 1056 
Q 959 750 1161 570 
Q 1363 391 1709 391 
Q 2188 391 2477 730 
Q 2766 1069 2766 1631 
L 2766 1759 
L 2194 1759 
z
M 3341 1997 
L 3341 0 
L 2766 0 
L 2766 531 
Q 2569 213 2275 61 
Q 1981 -91 1556 -91 
Q 1019 -91 701 211 
Q 384 513 384 1019 
Q 384 1609 779 1909 
Q 1175 2209 1959 2209 
L 2766 2209 
L 2766 2266 
Q 2766 2663 2505 2880 
Q 2244 3097 1772 3097 
Q 1472 3097 1187 3025 
Q 903 2953 641 2809 
L 641 3341 
Q 956 3463 1253 3523 
Q 1550 3584 1831 3584 
Q 2591 3584 2966 3190 
Q 3341 2797 3341 1997 
z
" transform="scale(0.015625)"/>
       <path id="DejaVuSans-72" d="M 2631 2963 
Q 2534 3019 2420 3045 
Q 2306 3072 2169 3072 
Q 1681 3072 1420 2755 
Q 1159 2438 1159 1844 
L 1159 0 
L 581 0 
L 581 3500 
L 1159 3500 
L 1159 2956 
Q 1341 3275 1631 3429 
Q 1922 3584 2338 3584 
Q 2397 3584 2469 3576 
Q 2541 3569 2628 3553 
L 2631 2963 
z
" transform="scale(0.015625)"/>
       <path id="DejaVuSans-67" d="M 2906 1791 
Q 2906 2416 2648 2759 
Q 2391 3103 1925 3103 
Q 1463 3103 1205 2759 
Q 947 2416 947 1791 
Q 947 1169 1205 825 
Q 1463 481 1925 481 
Q 2391 481 2648 825 
Q 2906 1169 2906 1791 
z
M 3481 434 
Q 3481 -459 3084 -895 
Q 2688 -1331 1869 -1331 
Q 1566 -1331 1297 -1286 
Q 1028 -1241 775 -1147 
L 775 -588 
Q 1028 -725 1275 -790 
Q 1522 -856 1778 -856 
Q 2344 -856 2625 -561 
Q 2906 -266 2906 331 
L 2906 616 
Q 2728 306 2450 153 
Q 2172 0 1784 0 
Q 1141 0 747 490 
Q 353 981 353 1791 
Q 353 2603 747 3093 
Q 1141 3584 1784 3584 
Q 2172 3584 2450 3431 
Q 2728 3278 2906 2969 
L 2906 3500 
L 3481 3500 
L 3481 434 
z
" transform="scale(0.015625)"/>
       <path id="DejaVuSans-65" d="M 3597 1894 
L 3597 1613 
L 953 1613 
Q 991 1019 1311 708 
Q 1631 397 2203 397 
Q 2534 397 2845 478 
Q 3156 559 3463 722 
L 3463 178 
Q 3153 47 2828 -22 
Q 2503 -91 2169 -91 
Q 1331 -91 842 396 
Q 353 884 353 1716 
Q 353 2575 817 3079 
Q 1281 3584 2069 3584 
Q 2775 3584 3186 3129 
Q 3597 2675 3597 1894 
z
M 3022 2063 
Q 3016 2534 2758 2815 
Q 2500 3097 2075 3097 
Q 1594 3097 1305 2825 
Q 1016 2553 972 2059 
L 3022 2063 
z
" transform="scale(0.015625)"/>
       <path id="DejaVuSans-74" d="M 1172 4494 
L 1172 3500 
L 2356 3500 
L 2356 3053 
L 1172 3053 
L 1172 1153 
Q 1172 725 1289 603 
Q 1406 481 1766 481 
L 2356 481 
L 2356 0 
L 1766 0 
Q 1100 0 847 248 
Q 594 497 594 1153 
L 594 3053 
L 172 3053 
L 172 3500 
L 594 3500 
L 594 4494 
L 1172 4494 
z
" transform="scale(0.015625)"/>
       <path id="DejaVuSans-20" transform="scale(0.015625)"/>
       <path id="DejaVuSans-46" d="M 628 4666 
L 3309 4666 
L 3309 4134 
L 1259 4134 
L 1259 2759 
L 3109 2759 
L 3109 2228 
L 1259 2228 
L 1259 0 
L 628 0 
L 628 4666 
z
" transform="scale(0.015625)"/>
       <path id="DejaVuSans-71" d="M 947 1747 
Q 947 1113 1208 752 
Q 1469 391 1925 391 
Q 2381 391 2643 752 
Q 2906 1113 2906 1747 
Q 2906 2381 2643 2742 
Q 2381 3103 1925 3103 
Q 1469 3103 1208 2742 
Q 947 2381 947 1747 
z
M 2906 525 
Q 2725 213 2448 61 
Q 2172 -91 1784 -91 
Q 1150 -91 751 415 
Q 353 922 353 1747 
Q 353 2572 751 3078 
Q 1150 3584 1784 3584 
Q 2172 3584 2448 3432 
Q 2725 3281 2906 2969 
L 2906 3500 
L 3481 3500 
L 3481 -1331 
L 2906 -1331 
L 2906 525 
z
" transform="scale(0.015625)"/>
       <path id="DejaVuSans-75" d="M 544 1381 
L 544 3500 
L 1119 3500 
L 1119 1403 
Q 1119 906 1312 657 
Q 1506 409 1894 409 
Q 2359 409 2629 706 
Q 2900 1003 2900 1516 
L 2900 3500 
L 3475 3500 
L 3475 0 
L 2900 0 
L 2900 538 
Q 2691 219 2414 64 
Q 2138 -91 1772 -91 
Q 1169 -91 856 284 
Q 544 659 544 1381 
z
M 1991 3584 
L 1991 3584 
z
" transform="scale(0.015625)"/>
       <path id="DejaVuSans-6e" d="M 3513 2113 
L 3513 0 
L 2938 0 
L 2938 2094 
Q 2938 2591 2744 2837 
Q 2550 3084 2163 3084 
Q 1697 3084 1428 2787 
Q 1159 2491 1159 1978 
L 1159 0 
L 581 0 
L 581 3500 
L 1159 3500 
L 1159 2956 
Q 1366 3272 1645 3428 
Q 1925 3584 2291 3584 
Q 2894 3584 3203 3211 
Q 3513 2838 3513 2113 
z
" transform="scale(0.015625)"/>
       <path id="DejaVuSans-63" d="M 3122 3366 
L 3122 2828 
Q 2878 2963 2633 3030 
Q 2388 3097 2138 3097 
Q 1578 3097 1268 2742 
Q 959 2388 959 1747 
Q 959 1106 1268 751 
Q 1578 397 2138 397 
Q 2388 397 2633 464 
Q 2878 531 3122 666 
L 3122 134 
Q 2881 22 2623 -34 
Q 2366 -91 2075 -91 
Q 1284 -91 818 406 
Q 353 903 353 1747 
Q 353 2603 823 3093 
Q 1294 3584 2113 3584 
Q 2378 3584 2631 3529 
Q 2884 3475 3122 3366 
z
" transform="scale(0.015625)"/>
       <path id="DejaVuSans-79" d="M 2059 -325 
Q 1816 -950 1584 -1140 
Q 1353 -1331 966 -1331 
L 506 -1331 
L 506 -850 
L 844 -850 
Q 1081 -850 1212 -737 
Q 1344 -625 1503 -206 
L 1606 56 
L 191 3500 
L 800 3500 
L 1894 763 
L 2988 3500 
L 3597 3500 
L 2059 -325 
z
" transform="scale(0.015625)"/>
       <path id="DejaVuSans-5b" d="M 550 4863 
L 1875 4863 
L 1875 4416 
L 1125 4416 
L 1125 -397 
L 1875 -397 
L 1875 -844 
L 550 -844 
L 550 4863 
z
" transform="scale(0.015625)"/>
       <path id="DejaVuSans-64" d="M 2906 2969 
L 2906 4863 
L 3481 4863 
L 3481 0 
L 2906 0 
L 2906 525 
Q 2725 213 2448 61 
Q 2172 -91 1784 -91 
Q 1150 -91 751 415 
Q 353 922 353 1747 
Q 353 2572 751 3078 
Q 1150 3584 1784 3584 
Q 2172 3584 2448 3432 
Q 2725 3281 2906 2969 
z
M 947 1747 
Q 947 1113 1208 752 
Q 1469 391 1925 391 
Q 2381 391 2643 752 
Q 2906 1113 2906 1747 
Q 2906 2381 2643 2742 
Q 2381 3103 1925 3103 
Q 1469 3103 1208 2742 
Q 947 2381 947 1747 
z
" transform="scale(0.015625)"/>
       <path id="DejaVuSans-2f" d="M 1625 4666 
L 2156 4666 
L 531 -594 
L 0 -594 
L 1625 4666 
z
" transform="scale(0.015625)"/>
       <path id="DejaVuSans-3c0" d="M 231 3500 
L 3584 3500 
L 3584 2925 
L 3144 2925 
L 3144 775 
Q 3144 550 3220 451 
Q 3297 353 3469 353 
Q 3516 353 3584 361 
Q 3653 369 3675 372 
L 3675 -44 
Q 3566 -84 3450 -103 
Q 3334 -122 3219 -122 
Q 2844 -122 2700 83 
Q 2556 288 2556 838 
L 2556 2925 
L 1266 2925 
L 1266 0 
L 678 0 
L 678 2925 
L 231 2925 
L 231 3500 
z
" transform="scale(0.015625)"/>
       <path id="DejaVuSans-5d" d="M 1947 4863 
L 1947 -844 
L 622 -844 
L 622 -397 
L 1369 -397 
L 1369 4416 
L 622 4416 
L 622 4863 
L 1947 4863 
z
" transform="scale(0.015625)"/>
      </defs>
      <use xlink:href="#DejaVuSans-54"/>
      <use xlink:href="#DejaVuSans-61" x="44.583984"/>
      <use xlink:href="#DejaVuSans-72" x="105.863281"/>
      <use xlink:href="#DejaVuSans-67" x="145.226562"/>
      <use xlink:href="#DejaVuSans-65" x="208.703125"/>
      <use xlink:href="#DejaVuSans-74" x="270.226562"/>
      <use xlink:href="#DejaVuSans-20" x="309.435547"/>
      <use xlink:href="#DejaVuSans-46" x="341.222656"/>
      <use xlink:href="#DejaVuSans-72" x="391.492188"/>
      <use xlink:href="#DejaVuSans-65" x="430.355469"/>
      <use xlink:href="#DejaVuSans-71" x="491.878906"/>
      <use xlink:href="#DejaVuSans-75" x="555.355469"/>
      <use xlink:href="#DejaVuSans-65" x="618.734375"/>
      <use xlink:href="#DejaVuSans-6e" x="680.257812"/>
      <use xlink:href="#DejaVuSans-63" x="743.636719"/>
      <use xlink:href="#DejaVuSans-79" x="798.617188"/>
      <use xlink:href="#DejaVuSans-20" x="857.796875"/>
      <use xlink:href="#DejaVuSans-5b" x="889.583984"/>
      <use xlink:href="#DejaVuSans-72" x="928.597656"/>
      <use xlink:href="#DejaVuSans-61" x="969.710938"/>
      <use xlink:href="#DejaVuSans-64" x="1030.990234"/>
      <use xlink:href="#DejaVuSans-2f" x="1094.466797"/>
      <use xlink:href="#DejaVuSans-32" x="1128.158203"/>
      <use xlink:href="#DejaVuSans-3c0" x="1191.78125"/>
      <use xlink:href="#DejaVuSans-5d" x="1251.986328"/>
     </g>
    </g>
   </g>
   <g id="matplotlib.axis_2">
    <g id="ytick_1">
     <g id="line2d_67">
      <path d="M 60.32 179.949079 
L 421.2 179.949079 
" clip-path="url(#pa609330e28)" style="fill: none; stroke: #f0f0f0; stroke-width: 0.8; stroke-linecap: square"/>
     </g>
     <g id="line2d_68">
      <defs>
       <path id="md03b55fb05" d="M 0 0 
L -3.5 0 
" style="stroke: #000000; stroke-width: 0.8"/>
      </defs>
      <g>
       <use xlink:href="#md03b55fb05" x="60.32" y="179.949079" style="stroke: #000000; stroke-width: 0.8"/>
      </g>
     </g>
     <g id="text_5">
      <!-- 0.0 -->
      <g transform="translate(37.416875 183.748298) scale(0.1 -0.1)">
       <defs>
        <path id="DejaVuSans-2e" d="M 684 794 
L 1344 794 
L 1344 0 
L 684 0 
L 684 794 
z
" transform="scale(0.015625)"/>
       </defs>
       <use xlink:href="#DejaVuSans-30"/>
       <use xlink:href="#DejaVuSans-2e" x="63.623047"/>
       <use xlink:href="#DejaVuSans-30" x="95.410156"/>
      </g>
     </g>
    </g>
    <g id="ytick_2">
     <g id="line2d_69">
      <path d="M 60.32 139.467255 
L 421.2 139.467255 
" clip-path="url(#pa609330e28)" style="fill: none; stroke: #f0f0f0; stroke-width: 0.8; stroke-linecap: square"/>
     </g>
     <g id="line2d_70">
      <g>
       <use xlink:href="#md03b55fb05" x="60.32" y="139.467255" style="stroke: #000000; stroke-width: 0.8"/>
      </g>
     </g>
     <g id="text_6">
      <!-- 0.1 -->
      <g transform="translate(37.416875 143.266474) scale(0.1 -0.1)">
       <use xlink:href="#DejaVuSans-30"/>
       <use xlink:href="#DejaVuSans-2e" x="63.623047"/>
       <use xlink:href="#DejaVuSans-31" x="95.410156"/>
      </g>
     </g>
    </g>
    <g id="ytick_3">
     <g id="line2d_71">
      <path d="M 60.32 98.985431 
L 421.2 98.985431 
" clip-path="url(#pa609330e28)" style="fill: none; stroke: #f0f0f0; stroke-width: 0.8; stroke-linecap: square"/>
     </g>
     <g id="line2d_72">
      <g>
       <use xlink:href="#md03b55fb05" x="60.32" y="98.985431" style="stroke: #000000; stroke-width: 0.8"/>
      </g>
     </g>
     <g id="text_7">
      <!-- 0.2 -->
      <g transform="translate(37.416875 102.78465) scale(0.1 -0.1)">
       <use xlink:href="#DejaVuSans-30"/>
       <use xlink:href="#DejaVuSans-2e" x="63.623047"/>
       <use xlink:href="#DejaVuSans-32" x="95.410156"/>
      </g>
     </g>
    </g>
    <g id="ytick_4">
     <g id="line2d_73">
      <path d="M 60.32 58.503607 
L 421.2 58.503607 
" clip-path="url(#pa609330e28)" style="fill: none; stroke: #f0f0f0; stroke-width: 0.8; stroke-linecap: square"/>
     </g>
     <g id="line2d_74">
      <g>
       <use xlink:href="#md03b55fb05" x="60.32" y="58.503607" style="stroke: #000000; stroke-width: 0.8"/>
      </g>
     </g>
     <g id="text_8">
      <!-- 0.3 -->
      <g transform="translate(37.416875 62.302825) scale(0.1 -0.1)">
       <use xlink:href="#DejaVuSans-30"/>
       <use xlink:href="#DejaVuSans-2e" x="63.623047"/>
       <use xlink:href="#DejaVuSans-33" x="95.410156"/>
      </g>
     </g>
    </g>
    <g id="text_9">
     <!-- Phase Error Avg. [rad/2π] -->
     <g transform="translate(31.337188 173.510947) rotate(-90) scale(0.1 -0.1)">
      <defs>
       <path id="DejaVuSans-50" d="M 1259 4147 
L 1259 2394 
L 2053 2394 
Q 2494 2394 2734 2622 
Q 2975 2850 2975 3272 
Q 2975 3691 2734 3919 
Q 2494 4147 2053 4147 
L 1259 4147 
z
M 628 4666 
L 2053 4666 
Q 2838 4666 3239 4311 
Q 3641 3956 3641 3272 
Q 3641 2581 3239 2228 
Q 2838 1875 2053 1875 
L 1259 1875 
L 1259 0 
L 628 0 
L 628 4666 
z
" transform="scale(0.015625)"/>
       <path id="DejaVuSans-68" d="M 3513 2113 
L 3513 0 
L 2938 0 
L 2938 2094 
Q 2938 2591 2744 2837 
Q 2550 3084 2163 3084 
Q 1697 3084 1428 2787 
Q 1159 2491 1159 1978 
L 1159 0 
L 581 0 
L 581 4863 
L 1159 4863 
L 1159 2956 
Q 1366 3272 1645 3428 
Q 1925 3584 2291 3584 
Q 2894 3584 3203 3211 
Q 3513 2838 3513 2113 
z
" transform="scale(0.015625)"/>
       <path id="DejaVuSans-73" d="M 2834 3397 
L 2834 2853 
Q 2591 2978 2328 3040 
Q 2066 3103 1784 3103 
Q 1356 3103 1142 2972 
Q 928 2841 928 2578 
Q 928 2378 1081 2264 
Q 1234 2150 1697 2047 
L 1894 2003 
Q 2506 1872 2764 1633 
Q 3022 1394 3022 966 
Q 3022 478 2636 193 
Q 2250 -91 1575 -91 
Q 1294 -91 989 -36 
Q 684 19 347 128 
L 347 722 
Q 666 556 975 473 
Q 1284 391 1588 391 
Q 1994 391 2212 530 
Q 2431 669 2431 922 
Q 2431 1156 2273 1281 
Q 2116 1406 1581 1522 
L 1381 1569 
Q 847 1681 609 1914 
Q 372 2147 372 2553 
Q 372 3047 722 3315 
Q 1072 3584 1716 3584 
Q 2034 3584 2315 3537 
Q 2597 3491 2834 3397 
z
" transform="scale(0.015625)"/>
       <path id="DejaVuSans-45" d="M 628 4666 
L 3578 4666 
L 3578 4134 
L 1259 4134 
L 1259 2753 
L 3481 2753 
L 3481 2222 
L 1259 2222 
L 1259 531 
L 3634 531 
L 3634 0 
L 628 0 
L 628 4666 
z
" transform="scale(0.015625)"/>
       <path id="DejaVuSans-6f" d="M 1959 3097 
Q 1497 3097 1228 2736 
Q 959 2375 959 1747 
Q 959 1119 1226 758 
Q 1494 397 1959 397 
Q 2419 397 2687 759 
Q 2956 1122 2956 1747 
Q 2956 2369 2687 2733 
Q 2419 3097 1959 3097 
z
M 1959 3584 
Q 2709 3584 3137 3096 
Q 3566 2609 3566 1747 
Q 3566 888 3137 398 
Q 2709 -91 1959 -91 
Q 1206 -91 779 398 
Q 353 888 353 1747 
Q 353 2609 779 3096 
Q 1206 3584 1959 3584 
z
" transform="scale(0.015625)"/>
       <path id="DejaVuSans-41" d="M 2188 4044 
L 1331 1722 
L 3047 1722 
L 2188 4044 
z
M 1831 4666 
L 2547 4666 
L 4325 0 
L 3669 0 
L 3244 1197 
L 1141 1197 
L 716 0 
L 50 0 
L 1831 4666 
z
" transform="scale(0.015625)"/>
       <path id="DejaVuSans-76" d="M 191 3500 
L 800 3500 
L 1894 563 
L 2988 3500 
L 3597 3500 
L 2284 0 
L 1503 0 
L 191 3500 
z
" transform="scale(0.015625)"/>
      </defs>
      <use xlink:href="#DejaVuSans-50"/>
      <use xlink:href="#DejaVuSans-68" x="60.302734"/>
      <use xlink:href="#DejaVuSans-61" x="123.681641"/>
      <use xlink:href="#DejaVuSans-73" x="184.960938"/>
      <use xlink:href="#DejaVuSans-65" x="237.060547"/>
      <use xlink:href="#DejaVuSans-20" x="298.583984"/>
      <use xlink:href="#DejaVuSans-45" x="330.371094"/>
      <use xlink:href="#DejaVuSans-72" x="393.554688"/>
      <use xlink:href="#DejaVuSans-72" x="432.917969"/>
      <use xlink:href="#DejaVuSans-6f" x="471.78125"/>
      <use xlink:href="#DejaVuSans-72" x="532.962891"/>
      <use xlink:href="#DejaVuSans-20" x="574.076172"/>
      <use xlink:href="#DejaVuSans-41" x="605.863281"/>
      <use xlink:href="#DejaVuSans-76" x="668.396484"/>
      <use xlink:href="#DejaVuSans-67" x="727.576172"/>
      <use xlink:href="#DejaVuSans-2e" x="791.052734"/>
      <use xlink:href="#DejaVuSans-20" x="822.839844"/>
      <use xlink:href="#DejaVuSans-5b" x="854.626953"/>
      <use xlink:href="#DejaVuSans-72" x="893.640625"/>
      <use xlink:href="#DejaVuSans-61" x="934.753906"/>
      <use xlink:href="#DejaVuSans-64" x="996.033203"/>
      <use xlink:href="#DejaVuSans-2f" x="1059.509766"/>
      <use xlink:href="#DejaVuSans-32" x="1093.201172"/>
      <use xlink:href="#DejaVuSans-3c0" x="1156.824219"/>
      <use xlink:href="#DejaVuSans-5d" x="1217.029297"/>
     </g>
    </g>
   </g>
   <g id="line2d_75">
    <path d="M 76.723636 178.817742 
L 119.180107 179.082412 
L 147.484421 179.475069 
L 170.642496 179.842349 
L 186.081212 179.240095 
L 200.233369 178.462041 
L 211.812406 177.60461 
L 222.104884 176.622004 
L 231.110802 175.545789 
L 238.83016 174.424656 
L 246.549519 173.08098 
L 252.982317 171.75872 
L 259.415116 170.218834 
L 265.847914 168.423511 
L 270.994153 166.773019 
L 276.140392 164.902201 
L 281.286631 162.777999 
L 286.43287 160.360636 
L 290.292549 158.326333 
L 294.152228 156.075057 
L 298.011907 153.576853 
L 301.871586 150.794988 
L 305.731266 147.683334 
L 309.590945 144.182227 
L 312.164064 141.593386 
L 314.737184 138.765417 
L 317.310303 135.658285 
L 319.883422 132.218664 
L 322.456542 128.372428 
L 325.029661 124.010546 
L 327.602781 118.959437 
L 328.88934 116.087554 
L 330.1759 112.907605 
L 331.46246 109.322639 
L 332.74902 105.167176 
L 334.035579 100.109508 
L 335.322139 93.231749 
L 336.608699 76.548826 
L 337.895258 73.543261 
L 339.181818 72.148489 
L 340.468378 71.178397 
L 341.754938 70.439962 
L 345.614617 68.975396 
L 349.474296 68.049757 
L 350.760856 67.980394 
L 352.047415 67.636867 
L 354.620535 67.285956 
L 355.907094 69.442103 
L 357.193654 66.988201 
L 359.766774 66.806475 
L 363.626453 66.410285 
L 366.199572 66.34657 
L 368.772692 66.210063 
L 370.059251 65.259303 
L 371.345811 65.999162 
L 376.49205 65.879555 
L 377.77861 73.994592 
L 379.065169 65.613514 
L 382.924848 65.523473 
L 385.497968 65.347877 
L 386.784528 65.079264 
L 388.071087 63.058849 
L 389.357647 66.921071 
L 390.644207 66.050878 
L 393.217326 65.75174 
L 394.503886 65.669062 
L 395.790446 66.103868 
L 397.077005 65.692029 
L 400.936684 65.567649 
L 402.223244 65.56121 
L 403.509804 65.291824 
L 404.796364 77.453224 
L 404.796364 77.453224 
" clip-path="url(#pa609330e28)" style="fill: none; stroke: #0b0000; stroke-opacity: 0.75; stroke-width: 1.5; stroke-linecap: square"/>
   </g>
   <g id="line2d_76">
    <path d="M 76.723636 168.577333 
L 92.162353 169.266325 
L 105.02795 170.061258 
L 116.606988 171.009077 
L 126.899465 172.092317 
L 135.905383 173.275223 
L 143.624742 174.503671 
L 151.3441 175.970947 
L 157.776898 177.409635 
L 164.209697 179.078781 
L 166.782816 179.819264 
L 168.069376 179.691726 
L 173.215615 178.021632 
L 178.361854 176.137743 
L 183.508093 174.010509 
L 188.654332 171.605082 
L 192.514011 169.593684 
L 196.37369 167.381721 
L 200.233369 164.944756 
L 204.093048 162.253656 
L 207.952727 159.273053 
L 211.812406 155.95904 
L 215.672086 152.255611 
L 218.245205 149.53481 
L 220.818324 146.580451 
L 223.391444 143.356877 
L 225.964563 139.81767 
L 228.537683 135.900215 
L 231.110802 131.516053 
L 233.683922 126.532254 
L 236.257041 120.730636 
L 237.543601 117.408557 
L 238.83016 113.700273 
L 240.11672 109.465403 
L 241.40328 104.443938 
L 242.68984 98.029645 
L 245.262959 77.282614 
L 246.549519 78.320033 
L 247.836078 78.003794 
L 249.122638 77.331404 
L 250.409198 78.019637 
L 254.268877 77.842436 
L 255.555437 77.482981 
L 256.841996 77.554056 
L 258.128556 78.011757 
L 259.415116 77.598341 
L 260.701676 77.721746 
L 261.988235 77.406633 
L 263.274795 77.36154 
L 264.561355 77.732962 
L 265.847914 77.866448 
L 269.707594 77.819105 
L 270.994153 77.644191 
L 272.280713 77.246165 
L 273.567273 77.564453 
L 280.000071 77.48801 
L 281.286631 77.517564 
L 282.573191 77.281755 
L 283.85975 77.424997 
L 285.14631 77.441055 
L 286.43287 77.300151 
L 287.71943 77.490235 
L 290.292549 77.35821 
L 292.865668 77.45941 
L 294.152228 77.336105 
L 295.438788 77.416926 
L 296.725348 77.336441 
L 298.011907 77.474417 
L 299.298467 77.492484 
L 300.585027 77.362711 
L 301.871586 77.59448 
L 303.158146 77.507613 
L 305.731266 77.578169 
L 307.017825 77.402616 
L 308.304385 77.56084 
L 310.877504 77.484162 
L 312.164064 77.449986 
L 313.450624 77.556224 
L 316.023743 77.38909 
L 318.596863 77.475249 
L 319.883422 77.537953 
L 322.456542 77.451834 
L 323.743102 77.525076 
L 327.602781 77.470426 
L 328.88934 77.532581 
L 331.46246 77.445773 
L 334.035579 77.456558 
L 335.322139 77.481667 
L 336.608699 77.262095 
L 337.895258 77.482458 
L 339.181818 77.405475 
L 341.754938 77.48559 
L 343.041497 77.411047 
L 345.614617 77.456206 
L 349.474296 77.441177 
L 367.486132 77.488925 
L 370.059251 77.459855 
L 379.065169 77.473434 
L 384.211408 77.438665 
L 390.644207 77.48546 
L 394.503886 77.443343 
L 404.796364 77.433748 
L 404.796364 77.433748 
" clip-path="url(#pa609330e28)" style="fill: none; stroke: #b30000; stroke-opacity: 0.75; stroke-width: 1.5; stroke-linecap: square"/>
   </g>
   <g id="line2d_77">
    <path d="M 76.723636 79.390796 
L 78.010196 79.396241 
L 79.296756 79.253947 
L 80.583316 78.954405 
L 81.869875 78.468829 
L 83.156435 77.739344 
L 84.442995 76.65552 
L 85.729554 75.228891 
L 87.016114 74.588612 
L 88.302674 75.234968 
L 89.589234 77.041234 
L 90.875793 78.650246 
L 92.162353 79.88874 
L 93.448913 80.885802 
L 94.735472 81.656132 
L 96.022032 81.650623 
L 97.308592 80.323161 
L 98.595152 78.421308 
L 99.881711 78.295791 
L 101.168271 79.299743 
L 102.454831 79.562257 
L 103.74139 79.231135 
L 105.02795 78.274253 
L 106.31451 76.311332 
L 107.60107 73.869445 
L 108.887629 76.001693 
L 110.174189 79.033468 
L 111.460749 80.943266 
L 112.747308 82.168822 
L 115.320428 78.217819 
L 116.606988 79.72456 
L 117.893547 79.367565 
L 119.180107 77.325905 
L 120.466667 72.814809 
L 121.753226 77.830843 
L 123.039786 81.115862 
L 124.326346 82.391567 
L 125.612906 78.656361 
L 126.899465 79.932009 
L 128.186025 76.940575 
L 129.472585 75.184471 
L 130.759144 81.341385 
L 132.045704 78.126844 
L 133.332264 79.814069 
L 134.618824 73.922112 
L 135.905383 83.519311 
L 137.191943 76.885672 
L 138.478503 93.354215 
L 139.765062 100.538112 
L 141.051622 106.090896 
L 142.338182 110.872626 
L 144.911301 119.217836 
L 147.484421 126.685335 
L 151.3441 137.104351 
L 162.923137 167.631959 
L 166.782816 178.650839 
L 168.069376 177.374865 
L 170.642496 169.226651 
L 173.215615 160.377878 
L 175.788734 150.538125 
L 178.361854 139.19388 
L 179.648414 132.656926 
L 180.934973 125.222031 
L 182.221533 116.356009 
L 183.508093 104.622021 
L 184.794652 72.068229 
L 186.081212 80.493978 
L 187.367772 77.381036 
L 188.654332 80.141883 
L 189.940891 79.337336 
L 191.227451 74.029247 
L 192.514011 79.249511 
L 193.80057 76.908918 
L 195.08713 81.419541 
L 196.37369 78.87896 
L 197.66025 80.217343 
L 198.946809 79.123188 
L 200.233369 76.890826 
L 201.519929 78.480288 
L 202.806488 77.600377 
L 204.093048 80.470276 
L 205.379608 78.928122 
L 206.666168 76.618088 
L 207.952727 80.11999 
L 209.239287 78.950268 
L 210.525847 76.896734 
L 211.812406 80.062115 
L 213.098966 78.380898 
L 214.385526 78.58689 
L 215.672086 77.392451 
L 216.958645 79.76129 
L 218.245205 78.790202 
L 219.531765 78.601465 
L 220.818324 78.782019 
L 223.391444 77.560742 
L 224.678004 77.69796 
L 225.964563 78.003618 
L 227.251123 78.139289 
L 231.110802 77.83081 
L 232.397362 78.447778 
L 233.683922 78.758252 
L 234.970481 78.491389 
L 236.257041 79.280632 
L 237.543601 78.14852 
L 238.83016 78.652522 
L 240.11672 78.62329 
L 241.40328 78.394851 
L 243.976399 79.149513 
L 245.262959 78.671902 
L 246.549519 79.082341 
L 249.122638 78.180174 
L 250.409198 78.96418 
L 251.695758 78.632909 
L 254.268877 78.229392 
L 255.555437 78.682931 
L 256.841996 78.897536 
L 258.128556 78.886934 
L 259.415116 78.661473 
L 260.701676 78.275631 
L 261.988235 78.557593 
L 263.274795 78.559776 
L 264.561355 78.927052 
L 265.847914 78.494021 
L 267.134474 78.743299 
L 268.421034 78.507459 
L 269.707594 78.879318 
L 270.994153 78.561704 
L 272.280713 78.638454 
L 273.567273 78.414255 
L 276.140392 78.405499 
L 277.426952 78.611121 
L 278.713512 78.576096 
L 280.000071 78.829166 
L 281.286631 78.617801 
L 282.573191 78.81393 
L 285.14631 78.442106 
L 287.71943 78.57189 
L 289.005989 78.452296 
L 290.292549 78.61249 
L 291.579109 78.621114 
L 292.865668 78.457937 
L 294.152228 78.720528 
L 295.438788 78.600519 
L 299.298467 78.606852 
L 313.450624 78.623707 
L 314.737184 78.702954 
L 317.310303 78.623559 
L 325.029661 78.573971 
L 327.602781 78.683369 
L 328.88934 78.550794 
L 330.1759 78.679268 
L 341.754938 78.61813 
L 345.614617 78.664114 
L 348.187736 78.640197 
L 353.333975 78.601267 
L 355.907094 78.627987 
L 366.199572 78.598966 
L 370.059251 78.63122 
L 379.065169 78.611845 
L 397.077005 78.640484 
L 398.363565 77.831089 
L 399.650125 78.6106 
L 404.796364 78.604848 
L 404.796364 78.604848 
" clip-path="url(#pa609330e28)" style="fill: none; stroke: #ff5c00; stroke-opacity: 0.75; stroke-width: 1.5; stroke-linecap: square"/>
   </g>
   <g id="line2d_78">
    <path d="M 76.723636 79.039138 
L 78.010196 78.580158 
L 79.296756 78.276996 
L 80.583316 78.148593 
L 81.869875 78.213957 
L 83.156435 78.490423 
L 84.442995 78.946424 
L 85.729554 79.2582 
L 87.016114 79.349352 
L 88.302674 79.199681 
L 89.589234 78.783922 
L 90.875793 78.069875 
L 93.448913 75.896812 
L 94.735472 75.322193 
L 96.022032 75.385313 
L 97.308592 76.166698 
L 98.595152 77.742515 
L 99.881711 79.879847 
L 101.168271 81.442039 
L 102.454831 82.209041 
L 103.74139 82.085232 
L 105.02795 80.944193 
L 106.31451 79.306981 
L 107.60107 78.305927 
L 108.887629 78.072141 
L 111.460749 79.408392 
L 112.747308 79.261756 
L 114.033868 78.159679 
L 115.320428 75.994442 
L 116.606988 74.667941 
L 117.893547 75.455061 
L 120.466667 81.926734 
L 121.753226 82.909048 
L 123.039786 81.205221 
L 124.326346 78.612675 
L 125.612906 77.969681 
L 126.899465 79.287524 
L 128.186025 79.386921 
L 129.472585 77.150323 
L 130.759144 73.91136 
L 132.045704 75.252362 
L 133.332264 81.21593 
L 134.618824 83.86818 
L 137.191943 77.781123 
L 138.478503 79.352809 
L 139.765062 79.177427 
L 141.051622 74.058121 
L 142.338182 73.403596 
L 143.624742 82.453971 
L 144.911301 84.877899 
L 146.197861 78.31073 
L 147.484421 79.180257 
L 148.77098 79.005956 
L 150.05754 70.415176 
L 151.3441 77.534916 
L 152.63066 88.087523 
L 153.917219 78.386441 
L 155.203779 80.486299 
L 156.490339 75.481807 
L 157.776898 66.234682 
L 159.063458 92.66081 
L 160.350018 79.453328 
L 161.636578 83.804008 
L 162.923137 56.262971 
L 164.209697 89.17584 
L 165.496257 142.476074 
L 166.782816 155.168608 
L 168.069376 166.020747 
L 169.355936 123.101885 
L 170.642496 41.482671 
L 171.929055 83.3443 
L 173.215615 81.442156 
L 174.502175 81.289477 
L 175.788734 75.287182 
L 177.075294 76.872433 
L 178.361854 86.446329 
L 179.648414 72.840474 
L 180.934973 77.609674 
L 182.221533 84.266993 
L 183.508093 75.958335 
L 184.794652 77.932154 
L 186.081212 78.865376 
L 187.367772 79.457389 
L 188.654332 82.171627 
L 189.940891 75.022184 
L 191.227451 78.129891 
L 192.514011 76.823773 
L 193.80057 78.858965 
L 195.08713 80.178304 
L 196.37369 79.255654 
L 197.66025 80.760373 
L 198.946809 79.202949 
L 200.233369 80.096682 
L 202.806488 77.820522 
L 204.093048 78.374004 
L 205.379608 76.922327 
L 206.666168 80.328437 
L 209.239287 77.691876 
L 210.525847 79.207985 
L 211.812406 78.997445 
L 213.098966 77.43576 
L 214.385526 80.073053 
L 215.672086 78.49588 
L 216.958645 78.722504 
L 218.245205 77.546787 
L 219.531765 79.516447 
L 220.818324 79.574899 
L 222.104884 78.617775 
L 223.391444 78.62115 
L 224.678004 78.890128 
L 231.110802 78.822171 
L 232.397362 78.589686 
L 233.683922 78.851714 
L 234.970481 79.453325 
L 236.257041 78.270316 
L 237.543601 78.61148 
L 238.83016 78.609199 
L 240.11672 79.319014 
L 241.40328 78.352277 
L 242.68984 78.662818 
L 243.976399 78.325977 
L 245.262959 78.641634 
L 246.549519 78.341226 
L 247.836078 78.692301 
L 249.122638 78.532761 
L 250.409198 79.052704 
L 251.695758 78.706332 
L 252.982317 78.808381 
L 254.268877 78.497714 
L 255.555437 78.331464 
L 258.128556 78.481116 
L 259.415116 78.379647 
L 260.701676 78.49988 
L 261.988235 78.791234 
L 264.561355 78.781712 
L 265.847914 78.773615 
L 267.134474 79.033949 
L 268.421034 78.768126 
L 272.280713 78.767561 
L 276.140392 78.665399 
L 277.426952 78.771211 
L 278.713512 78.700644 
L 280.000071 78.857809 
L 281.286631 78.754691 
L 282.573191 78.923608 
L 283.85975 78.710033 
L 287.71943 78.589497 
L 289.005989 78.563869 
L 290.292549 78.756433 
L 291.579109 78.798708 
L 292.865668 78.598448 
L 294.152228 78.879994 
L 295.438788 78.700024 
L 299.298467 78.75677 
L 300.585027 78.656521 
L 303.158146 78.669971 
L 305.731266 78.618473 
L 308.304385 78.812105 
L 312.164064 78.63732 
L 314.737184 78.827038 
L 316.023743 78.725138 
L 322.456542 78.737553 
L 325.029661 78.679713 
L 326.316221 78.802074 
L 327.602781 78.801102 
L 328.88934 78.669846 
L 330.1759 78.797531 
L 363.626453 78.754798 
L 372.632371 78.719938 
L 386.784528 78.734183 
L 388.071087 78.667472 
L 390.644207 78.725531 
L 397.077005 78.75643 
L 398.363565 77.825325 
L 399.650125 78.727049 
L 404.796364 78.722013 
L 404.796364 78.722013 
" clip-path="url(#pa609330e28)" style="fill: none; stroke: #ffff07; stroke-opacity: 0.75; stroke-width: 1.5; stroke-linecap: square"/>
   </g>
   <g id="line2d_79">
    <path d="M 167.218493 186.858769 
L 167.218493 34.56 
" clip-path="url(#pa609330e28)" style="fill: none; stroke-dasharray: 3.7,1.6; stroke-dashoffset: 0; stroke: #000000; stroke-opacity: 0.75"/>
   </g>
   <g id="patch_3">
    <path d="M 60.32 186.858769 
L 60.32 34.56 
" style="fill: none; stroke: #000000; stroke-width: 0.8; stroke-linejoin: miter; stroke-linecap: square"/>
   </g>
   <g id="patch_4">
    <path d="M 421.2 186.858769 
L 421.2 34.56 
" style="fill: none; stroke: #000000; stroke-width: 0.8; stroke-linejoin: miter; stroke-linecap: square"/>
   </g>
   <g id="patch_5">
    <path d="M 60.32 186.858769 
L 421.2 186.858769 
" style="fill: none; stroke: #000000; stroke-width: 0.8; stroke-linejoin: miter; stroke-linecap: square"/>
   </g>
   <g id="patch_6">
    <path d="M 60.32 34.56 
L 421.2 34.56 
" style="fill: none; stroke: #000000; stroke-width: 0.8; stroke-linejoin: miter; stroke-linecap: square"/>
   </g>
   <g id="legend_1">
    <g id="patch_7">
     <path d="M 332.271875 181.858769 
L 414.2 181.858769 
Q 416.2 181.858769 416.2 179.858769 
L 416.2 107.468144 
Q 416.2 105.468144 414.2 105.468144 
L 332.271875 105.468144 
Q 330.271875 105.468144 330.271875 107.468144 
L 330.271875 179.858769 
Q 330.271875 181.858769 332.271875 181.858769 
z
" style="fill: #ffffff; opacity: 0.8; stroke: #cccccc; stroke-linejoin: miter"/>
    </g>
    <g id="line2d_80">
     <path d="M 334.271875 113.566582 
L 344.271875 113.566582 
L 354.271875 113.566582 
" style="fill: none; stroke: #0b0000; stroke-opacity: 0.75; stroke-width: 1.5; stroke-linecap: square"/>
    </g>
    <g id="text_10">
     <!-- K=0.1 -->
     <g transform="translate(362.271875 117.066582) scale(0.1 -0.1)">
      <defs>
       <path id="DejaVuSans-4b" d="M 628 4666 
L 1259 4666 
L 1259 2694 
L 3353 4666 
L 4166 4666 
L 1850 2491 
L 4331 0 
L 3500 0 
L 1259 2247 
L 1259 0 
L 628 0 
L 628 4666 
z
" transform="scale(0.015625)"/>
       <path id="DejaVuSans-3d" d="M 678 2906 
L 4684 2906 
L 4684 2381 
L 678 2381 
L 678 2906 
z
M 678 1631 
L 4684 1631 
L 4684 1100 
L 678 1100 
L 678 1631 
z
" transform="scale(0.015625)"/>
      </defs>
      <use xlink:href="#DejaVuSans-4b"/>
      <use xlink:href="#DejaVuSans-3d" x="65.576172"/>
      <use xlink:href="#DejaVuSans-30" x="149.365234"/>
      <use xlink:href="#DejaVuSans-2e" x="212.988281"/>
      <use xlink:href="#DejaVuSans-31" x="244.775391"/>
     </g>
    </g>
    <g id="line2d_81">
     <path d="M 334.271875 128.244707 
L 344.271875 128.244707 
L 354.271875 128.244707 
" style="fill: none; stroke: #b30000; stroke-opacity: 0.75; stroke-width: 1.5; stroke-linecap: square"/>
    </g>
    <g id="text_11">
     <!-- K=0.01 -->
     <g transform="translate(362.271875 131.744707) scale(0.1 -0.1)">
      <use xlink:href="#DejaVuSans-4b"/>
      <use xlink:href="#DejaVuSans-3d" x="65.576172"/>
      <use xlink:href="#DejaVuSans-30" x="149.365234"/>
      <use xlink:href="#DejaVuSans-2e" x="212.988281"/>
      <use xlink:href="#DejaVuSans-30" x="244.775391"/>
      <use xlink:href="#DejaVuSans-31" x="308.398438"/>
     </g>
    </g>
    <g id="line2d_82">
     <path d="M 334.271875 142.922832 
L 344.271875 142.922832 
L 354.271875 142.922832 
" style="fill: none; stroke: #ff5c00; stroke-opacity: 0.75; stroke-width: 1.5; stroke-linecap: square"/>
    </g>
    <g id="text_12">
     <!-- K=0.001 -->
     <g transform="translate(362.271875 146.422832) scale(0.1 -0.1)">
      <use xlink:href="#DejaVuSans-4b"/>
      <use xlink:href="#DejaVuSans-3d" x="65.576172"/>
      <use xlink:href="#DejaVuSans-30" x="149.365234"/>
      <use xlink:href="#DejaVuSans-2e" x="212.988281"/>
      <use xlink:href="#DejaVuSans-30" x="244.775391"/>
      <use xlink:href="#DejaVuSans-30" x="308.398438"/>
      <use xlink:href="#DejaVuSans-31" x="372.021484"/>
     </g>
    </g>
    <g id="line2d_83">
     <path d="M 334.271875 157.600957 
L 344.271875 157.600957 
L 354.271875 157.600957 
" style="fill: none; stroke: #ffff07; stroke-opacity: 0.75; stroke-width: 1.5; stroke-linecap: square"/>
    </g>
    <g id="text_13">
     <!-- K=0.0001 -->
     <g transform="translate(362.271875 161.100957) scale(0.1 -0.1)">
      <use xlink:href="#DejaVuSans-4b"/>
      <use xlink:href="#DejaVuSans-3d" x="65.576172"/>
      <use xlink:href="#DejaVuSans-30" x="149.365234"/>
      <use xlink:href="#DejaVuSans-2e" x="212.988281"/>
      <use xlink:href="#DejaVuSans-30" x="244.775391"/>
      <use xlink:href="#DejaVuSans-30" x="308.398438"/>
      <use xlink:href="#DejaVuSans-30" x="372.021484"/>
      <use xlink:href="#DejaVuSans-31" x="435.644531"/>
     </g>
    </g>
    <g id="line2d_84">
     <path d="M 334.271875 172.279082 
L 344.271875 172.279082 
L 354.271875 172.279082 
" style="fill: none; stroke-dasharray: 3.7,1.6; stroke-dashoffset: 0; stroke: #000000; stroke-opacity: 0.75"/>
    </g>
    <g id="text_14">
     <!-- ω -->
     <g transform="translate(362.271875 175.779082) scale(0.1 -0.1)">
      <defs>
       <path id="DejaVuSans-3c9" d="M 1719 -91 
Q 422 -91 422 1766 
Q 422 2500 906 3500 
L 1525 3500 
Q 1078 2500 1078 1750 
Q 1078 397 1772 397 
Q 2406 397 2406 2078 
L 2938 2078 
Q 2938 397 3572 397 
Q 4266 397 4266 1750 
Q 4266 2500 3819 3500 
L 4438 3500 
Q 4922 2500 4922 1766 
Q 4922 -91 3625 -91 
Q 2775 -91 2672 844 
Q 2544 -91 1719 -91 
z
" transform="scale(0.015625)"/>
      </defs>
      <use xlink:href="#DejaVuSans-3c9"/>
     </g>
    </g>
   </g>
  </g>
  <g id="axes_2">
   <g id="patch_8">
    <path d="M 60.32 386.728 
L 421.2 386.728 
L 421.2 234.429231 
L 60.32 234.429231 
z
" style="fill: #ffffff"/>
   </g>
   <g id="matplotlib.axis_3">
    <g id="xtick_34">
     <g id="line2d_85">
      <path d="M 137.3937 386.728 
L 137.3937 234.429231 
" clip-path="url(#p5411347ae3)" style="fill: none; stroke: #f0f0f0; stroke-width: 0.8; stroke-linecap: square"/>
     </g>
     <g id="line2d_86">
      <g>
       <use xlink:href="#me739408a39" x="137.3937" y="386.728" style="stroke: #000000; stroke-width: 0.8"/>
      </g>
     </g>
     <g id="text_15">
      <!-- $\mathdefault{10^{-3}}$ -->
      <g transform="translate(125.6437 401.326437) scale(0.1 -0.1)">
       <use xlink:href="#DejaVuSans-31" transform="translate(0 0.765625)"/>
       <use xlink:href="#DejaVuSans-30" transform="translate(63.623047 0.765625)"/>
       <use xlink:href="#DejaVuSans-2212" transform="translate(128.203125 39.046875) scale(0.7)"/>
       <use xlink:href="#DejaVuSans-33" transform="translate(186.855469 39.046875) scale(0.7)"/>
      </g>
     </g>
    </g>
    <g id="xtick_35">
     <g id="line2d_87">
      <path d="M 236.469519 386.728 
L 236.469519 234.429231 
" clip-path="url(#p5411347ae3)" style="fill: none; stroke: #f0f0f0; stroke-width: 0.8; stroke-linecap: square"/>
     </g>
     <g id="line2d_88">
      <g>
       <use xlink:href="#me739408a39" x="236.469519" y="386.728" style="stroke: #000000; stroke-width: 0.8"/>
      </g>
     </g>
     <g id="text_16">
      <!-- $\mathdefault{10^{-2}}$ -->
      <g transform="translate(224.719519 401.326437) scale(0.1 -0.1)">
       <use xlink:href="#DejaVuSans-31" transform="translate(0 0.765625)"/>
       <use xlink:href="#DejaVuSans-30" transform="translate(63.623047 0.765625)"/>
       <use xlink:href="#DejaVuSans-2212" transform="translate(128.203125 39.046875) scale(0.7)"/>
       <use xlink:href="#DejaVuSans-32" transform="translate(186.855469 39.046875) scale(0.7)"/>
      </g>
     </g>
    </g>
    <g id="xtick_36">
     <g id="line2d_89">
      <path d="M 335.545338 386.728 
L 335.545338 234.429231 
" clip-path="url(#p5411347ae3)" style="fill: none; stroke: #f0f0f0; stroke-width: 0.8; stroke-linecap: square"/>
     </g>
     <g id="line2d_90">
      <g>
       <use xlink:href="#me739408a39" x="335.545338" y="386.728" style="stroke: #000000; stroke-width: 0.8"/>
      </g>
     </g>
     <g id="text_17">
      <!-- $\mathdefault{10^{-1}}$ -->
      <g transform="translate(323.795338 401.326437) scale(0.1 -0.1)">
       <use xlink:href="#DejaVuSans-31" transform="translate(0 0.684375)"/>
       <use xlink:href="#DejaVuSans-30" transform="translate(63.623047 0.684375)"/>
       <use xlink:href="#DejaVuSans-2212" transform="translate(128.203125 38.965625) scale(0.7)"/>
       <use xlink:href="#DejaVuSans-31" transform="translate(186.855469 38.965625) scale(0.7)"/>
      </g>
     </g>
    </g>
    <g id="xtick_37">
     <g id="line2d_91">
      <path d="M 68.142674 386.728 
L 68.142674 234.429231 
" clip-path="url(#p5411347ae3)" style="fill: none; stroke: #f0f0f0; stroke-width: 0.8; stroke-linecap: square"/>
     </g>
     <g id="line2d_92">
      <g>
       <use xlink:href="#m2debc9e75a" x="68.142674" y="386.728" style="stroke: #000000; stroke-width: 0.6"/>
      </g>
     </g>
    </g>
    <g id="xtick_38">
     <g id="line2d_93">
      <path d="M 85.58906 386.728 
L 85.58906 234.429231 
" clip-path="url(#p5411347ae3)" style="fill: none; stroke: #f0f0f0; stroke-width: 0.8; stroke-linecap: square"/>
     </g>
     <g id="line2d_94">
      <g>
       <use xlink:href="#m2debc9e75a" x="85.58906" y="386.728" style="stroke: #000000; stroke-width: 0.6"/>
      </g>
     </g>
    </g>
    <g id="xtick_39">
     <g id="line2d_95">
      <path d="M 97.967467 386.728 
L 97.967467 234.429231 
" clip-path="url(#p5411347ae3)" style="fill: none; stroke: #f0f0f0; stroke-width: 0.8; stroke-linecap: square"/>
     </g>
     <g id="line2d_96">
      <g>
       <use xlink:href="#m2debc9e75a" x="97.967467" y="386.728" style="stroke: #000000; stroke-width: 0.6"/>
      </g>
     </g>
    </g>
    <g id="xtick_40">
     <g id="line2d_97">
      <path d="M 107.568906 386.728 
L 107.568906 234.429231 
" clip-path="url(#p5411347ae3)" style="fill: none; stroke: #f0f0f0; stroke-width: 0.8; stroke-linecap: square"/>
     </g>
     <g id="line2d_98">
      <g>
       <use xlink:href="#m2debc9e75a" x="107.568906" y="386.728" style="stroke: #000000; stroke-width: 0.6"/>
      </g>
     </g>
    </g>
    <g id="xtick_41">
     <g id="line2d_99">
      <path d="M 115.413853 386.728 
L 115.413853 234.429231 
" clip-path="url(#p5411347ae3)" style="fill: none; stroke: #f0f0f0; stroke-width: 0.8; stroke-linecap: square"/>
     </g>
     <g id="line2d_100">
      <g>
       <use xlink:href="#m2debc9e75a" x="115.413853" y="386.728" style="stroke: #000000; stroke-width: 0.6"/>
      </g>
     </g>
    </g>
    <g id="xtick_42">
     <g id="line2d_101">
      <path d="M 122.046661 386.728 
L 122.046661 234.429231 
" clip-path="url(#p5411347ae3)" style="fill: none; stroke: #f0f0f0; stroke-width: 0.8; stroke-linecap: square"/>
     </g>
     <g id="line2d_102">
      <g>
       <use xlink:href="#m2debc9e75a" x="122.046661" y="386.728" style="stroke: #000000; stroke-width: 0.6"/>
      </g>
     </g>
    </g>
    <g id="xtick_43">
     <g id="line2d_103">
      <path d="M 127.792261 386.728 
L 127.792261 234.429231 
" clip-path="url(#p5411347ae3)" style="fill: none; stroke: #f0f0f0; stroke-width: 0.8; stroke-linecap: square"/>
     </g>
     <g id="line2d_104">
      <g>
       <use xlink:href="#m2debc9e75a" x="127.792261" y="386.728" style="stroke: #000000; stroke-width: 0.6"/>
      </g>
     </g>
    </g>
    <g id="xtick_44">
     <g id="line2d_105">
      <path d="M 132.860239 386.728 
L 132.860239 234.429231 
" clip-path="url(#p5411347ae3)" style="fill: none; stroke: #f0f0f0; stroke-width: 0.8; stroke-linecap: square"/>
     </g>
     <g id="line2d_106">
      <g>
       <use xlink:href="#m2debc9e75a" x="132.860239" y="386.728" style="stroke: #000000; stroke-width: 0.6"/>
      </g>
     </g>
    </g>
    <g id="xtick_45">
     <g id="line2d_107">
      <path d="M 167.218493 386.728 
L 167.218493 234.429231 
" clip-path="url(#p5411347ae3)" style="fill: none; stroke: #f0f0f0; stroke-width: 0.8; stroke-linecap: square"/>
     </g>
     <g id="line2d_108">
      <g>
       <use xlink:href="#m2debc9e75a" x="167.218493" y="386.728" style="stroke: #000000; stroke-width: 0.6"/>
      </g>
     </g>
    </g>
    <g id="xtick_46">
     <g id="line2d_109">
      <path d="M 184.664879 386.728 
L 184.664879 234.429231 
" clip-path="url(#p5411347ae3)" style="fill: none; stroke: #f0f0f0; stroke-width: 0.8; stroke-linecap: square"/>
     </g>
     <g id="line2d_110">
      <g>
       <use xlink:href="#m2debc9e75a" x="184.664879" y="386.728" style="stroke: #000000; stroke-width: 0.6"/>
      </g>
     </g>
    </g>
    <g id="xtick_47">
     <g id="line2d_111">
      <path d="M 197.043287 386.728 
L 197.043287 234.429231 
" clip-path="url(#p5411347ae3)" style="fill: none; stroke: #f0f0f0; stroke-width: 0.8; stroke-linecap: square"/>
     </g>
     <g id="line2d_112">
      <g>
       <use xlink:href="#m2debc9e75a" x="197.043287" y="386.728" style="stroke: #000000; stroke-width: 0.6"/>
      </g>
     </g>
    </g>
    <g id="xtick_48">
     <g id="line2d_113">
      <path d="M 206.644725 386.728 
L 206.644725 234.429231 
" clip-path="url(#p5411347ae3)" style="fill: none; stroke: #f0f0f0; stroke-width: 0.8; stroke-linecap: square"/>
     </g>
     <g id="line2d_114">
      <g>
       <use xlink:href="#m2debc9e75a" x="206.644725" y="386.728" style="stroke: #000000; stroke-width: 0.6"/>
      </g>
     </g>
    </g>
    <g id="xtick_49">
     <g id="line2d_115">
      <path d="M 214.489672 386.728 
L 214.489672 234.429231 
" clip-path="url(#p5411347ae3)" style="fill: none; stroke: #f0f0f0; stroke-width: 0.8; stroke-linecap: square"/>
     </g>
     <g id="line2d_116">
      <g>
       <use xlink:href="#m2debc9e75a" x="214.489672" y="386.728" style="stroke: #000000; stroke-width: 0.6"/>
      </g>
     </g>
    </g>
    <g id="xtick_50">
     <g id="line2d_117">
      <path d="M 221.12248 386.728 
L 221.12248 234.429231 
" clip-path="url(#p5411347ae3)" style="fill: none; stroke: #f0f0f0; stroke-width: 0.8; stroke-linecap: square"/>
     </g>
     <g id="line2d_118">
      <g>
       <use xlink:href="#m2debc9e75a" x="221.12248" y="386.728" style="stroke: #000000; stroke-width: 0.6"/>
      </g>
     </g>
    </g>
    <g id="xtick_51">
     <g id="line2d_119">
      <path d="M 226.86808 386.728 
L 226.86808 234.429231 
" clip-path="url(#p5411347ae3)" style="fill: none; stroke: #f0f0f0; stroke-width: 0.8; stroke-linecap: square"/>
     </g>
     <g id="line2d_120">
      <g>
       <use xlink:href="#m2debc9e75a" x="226.86808" y="386.728" style="stroke: #000000; stroke-width: 0.6"/>
      </g>
     </g>
    </g>
    <g id="xtick_52">
     <g id="line2d_121">
      <path d="M 231.936058 386.728 
L 231.936058 234.429231 
" clip-path="url(#p5411347ae3)" style="fill: none; stroke: #f0f0f0; stroke-width: 0.8; stroke-linecap: square"/>
     </g>
     <g id="line2d_122">
      <g>
       <use xlink:href="#m2debc9e75a" x="231.936058" y="386.728" style="stroke: #000000; stroke-width: 0.6"/>
      </g>
     </g>
    </g>
    <g id="xtick_53">
     <g id="line2d_123">
      <path d="M 266.294312 386.728 
L 266.294312 234.429231 
" clip-path="url(#p5411347ae3)" style="fill: none; stroke: #f0f0f0; stroke-width: 0.8; stroke-linecap: square"/>
     </g>
     <g id="line2d_124">
      <g>
       <use xlink:href="#m2debc9e75a" x="266.294312" y="386.728" style="stroke: #000000; stroke-width: 0.6"/>
      </g>
     </g>
    </g>
    <g id="xtick_54">
     <g id="line2d_125">
      <path d="M 283.740698 386.728 
L 283.740698 234.429231 
" clip-path="url(#p5411347ae3)" style="fill: none; stroke: #f0f0f0; stroke-width: 0.8; stroke-linecap: square"/>
     </g>
     <g id="line2d_126">
      <g>
       <use xlink:href="#m2debc9e75a" x="283.740698" y="386.728" style="stroke: #000000; stroke-width: 0.6"/>
      </g>
     </g>
    </g>
    <g id="xtick_55">
     <g id="line2d_127">
      <path d="M 296.119106 386.728 
L 296.119106 234.429231 
" clip-path="url(#p5411347ae3)" style="fill: none; stroke: #f0f0f0; stroke-width: 0.8; stroke-linecap: square"/>
     </g>
     <g id="line2d_128">
      <g>
       <use xlink:href="#m2debc9e75a" x="296.119106" y="386.728" style="stroke: #000000; stroke-width: 0.6"/>
      </g>
     </g>
    </g>
    <g id="xtick_56">
     <g id="line2d_129">
      <path d="M 305.720545 386.728 
L 305.720545 234.429231 
" clip-path="url(#p5411347ae3)" style="fill: none; stroke: #f0f0f0; stroke-width: 0.8; stroke-linecap: square"/>
     </g>
     <g id="line2d_130">
      <g>
       <use xlink:href="#m2debc9e75a" x="305.720545" y="386.728" style="stroke: #000000; stroke-width: 0.6"/>
      </g>
     </g>
    </g>
    <g id="xtick_57">
     <g id="line2d_131">
      <path d="M 313.565491 386.728 
L 313.565491 234.429231 
" clip-path="url(#p5411347ae3)" style="fill: none; stroke: #f0f0f0; stroke-width: 0.8; stroke-linecap: square"/>
     </g>
     <g id="line2d_132">
      <g>
       <use xlink:href="#m2debc9e75a" x="313.565491" y="386.728" style="stroke: #000000; stroke-width: 0.6"/>
      </g>
     </g>
    </g>
    <g id="xtick_58">
     <g id="line2d_133">
      <path d="M 320.198299 386.728 
L 320.198299 234.429231 
" clip-path="url(#p5411347ae3)" style="fill: none; stroke: #f0f0f0; stroke-width: 0.8; stroke-linecap: square"/>
     </g>
     <g id="line2d_134">
      <g>
       <use xlink:href="#m2debc9e75a" x="320.198299" y="386.728" style="stroke: #000000; stroke-width: 0.6"/>
      </g>
     </g>
    </g>
    <g id="xtick_59">
     <g id="line2d_135">
      <path d="M 325.943899 386.728 
L 325.943899 234.429231 
" clip-path="url(#p5411347ae3)" style="fill: none; stroke: #f0f0f0; stroke-width: 0.8; stroke-linecap: square"/>
     </g>
     <g id="line2d_136">
      <g>
       <use xlink:href="#m2debc9e75a" x="325.943899" y="386.728" style="stroke: #000000; stroke-width: 0.6"/>
      </g>
     </g>
    </g>
    <g id="xtick_60">
     <g id="line2d_137">
      <path d="M 331.011877 386.728 
L 331.011877 234.429231 
" clip-path="url(#p5411347ae3)" style="fill: none; stroke: #f0f0f0; stroke-width: 0.8; stroke-linecap: square"/>
     </g>
     <g id="line2d_138">
      <g>
       <use xlink:href="#m2debc9e75a" x="331.011877" y="386.728" style="stroke: #000000; stroke-width: 0.6"/>
      </g>
     </g>
    </g>
    <g id="xtick_61">
     <g id="line2d_139">
      <path d="M 365.370131 386.728 
L 365.370131 234.429231 
" clip-path="url(#p5411347ae3)" style="fill: none; stroke: #f0f0f0; stroke-width: 0.8; stroke-linecap: square"/>
     </g>
     <g id="line2d_140">
      <g>
       <use xlink:href="#m2debc9e75a" x="365.370131" y="386.728" style="stroke: #000000; stroke-width: 0.6"/>
      </g>
     </g>
    </g>
    <g id="xtick_62">
     <g id="line2d_141">
      <path d="M 382.816517 386.728 
L 382.816517 234.429231 
" clip-path="url(#p5411347ae3)" style="fill: none; stroke: #f0f0f0; stroke-width: 0.8; stroke-linecap: square"/>
     </g>
     <g id="line2d_142">
      <g>
       <use xlink:href="#m2debc9e75a" x="382.816517" y="386.728" style="stroke: #000000; stroke-width: 0.6"/>
      </g>
     </g>
    </g>
    <g id="xtick_63">
     <g id="line2d_143">
      <path d="M 395.194925 386.728 
L 395.194925 234.429231 
" clip-path="url(#p5411347ae3)" style="fill: none; stroke: #f0f0f0; stroke-width: 0.8; stroke-linecap: square"/>
     </g>
     <g id="line2d_144">
      <g>
       <use xlink:href="#m2debc9e75a" x="395.194925" y="386.728" style="stroke: #000000; stroke-width: 0.6"/>
      </g>
     </g>
    </g>
    <g id="xtick_64">
     <g id="line2d_145">
      <path d="M 404.796364 386.728 
L 404.796364 234.429231 
" clip-path="url(#p5411347ae3)" style="fill: none; stroke: #f0f0f0; stroke-width: 0.8; stroke-linecap: square"/>
     </g>
     <g id="line2d_146">
      <g>
       <use xlink:href="#m2debc9e75a" x="404.796364" y="386.728" style="stroke: #000000; stroke-width: 0.6"/>
      </g>
     </g>
    </g>
    <g id="xtick_65">
     <g id="line2d_147">
      <path d="M 412.64131 386.728 
L 412.64131 234.429231 
" clip-path="url(#p5411347ae3)" style="fill: none; stroke: #f0f0f0; stroke-width: 0.8; stroke-linecap: square"/>
     </g>
     <g id="line2d_148">
      <g>
       <use xlink:href="#m2debc9e75a" x="412.64131" y="386.728" style="stroke: #000000; stroke-width: 0.6"/>
      </g>
     </g>
    </g>
    <g id="xtick_66">
     <g id="line2d_149">
      <path d="M 419.274118 386.728 
L 419.274118 234.429231 
" clip-path="url(#p5411347ae3)" style="fill: none; stroke: #f0f0f0; stroke-width: 0.8; stroke-linecap: square"/>
     </g>
     <g id="line2d_150">
      <g>
       <use xlink:href="#m2debc9e75a" x="419.274118" y="386.728" style="stroke: #000000; stroke-width: 0.6"/>
      </g>
     </g>
    </g>
    <g id="text_18">
     <!-- Target Frequency [rad/2π] -->
     <g transform="translate(176.209219 415.004563) scale(0.1 -0.1)">
      <use xlink:href="#DejaVuSans-54"/>
      <use xlink:href="#DejaVuSans-61" x="44.583984"/>
      <use xlink:href="#DejaVuSans-72" x="105.863281"/>
      <use xlink:href="#DejaVuSans-67" x="145.226562"/>
      <use xlink:href="#DejaVuSans-65" x="208.703125"/>
      <use xlink:href="#DejaVuSans-74" x="270.226562"/>
      <use xlink:href="#DejaVuSans-20" x="309.435547"/>
      <use xlink:href="#DejaVuSans-46" x="341.222656"/>
      <use xlink:href="#DejaVuSans-72" x="391.492188"/>
      <use xlink:href="#DejaVuSans-65" x="430.355469"/>
      <use xlink:href="#DejaVuSans-71" x="491.878906"/>
      <use xlink:href="#DejaVuSans-75" x="555.355469"/>
      <use xlink:href="#DejaVuSans-65" x="618.734375"/>
      <use xlink:href="#DejaVuSans-6e" x="680.257812"/>
      <use xlink:href="#DejaVuSans-63" x="743.636719"/>
      <use xlink:href="#DejaVuSans-79" x="798.617188"/>
      <use xlink:href="#DejaVuSans-20" x="857.796875"/>
      <use xlink:href="#DejaVuSans-5b" x="889.583984"/>
      <use xlink:href="#DejaVuSans-72" x="928.597656"/>
      <use xlink:href="#DejaVuSans-61" x="969.710938"/>
      <use xlink:href="#DejaVuSans-64" x="1030.990234"/>
      <use xlink:href="#DejaVuSans-2f" x="1094.466797"/>
      <use xlink:href="#DejaVuSans-32" x="1128.158203"/>
      <use xlink:href="#DejaVuSans-3c0" x="1191.78125"/>
      <use xlink:href="#DejaVuSans-5d" x="1251.986328"/>
     </g>
    </g>
   </g>
   <g id="matplotlib.axis_4">
    <g id="ytick_5">
     <g id="line2d_151">
      <path d="M 60.32 369.991872 
L 421.2 369.991872 
" clip-path="url(#p5411347ae3)" style="fill: none; stroke: #f0f0f0; stroke-width: 0.8; stroke-linecap: square"/>
     </g>
     <g id="line2d_152">
      <g>
       <use xlink:href="#md03b55fb05" x="60.32" y="369.991872" style="stroke: #000000; stroke-width: 0.8"/>
      </g>
     </g>
     <g id="text_19">
      <!-- 0.000 -->
      <g transform="translate(24.691875 373.79109) scale(0.1 -0.1)">
       <use xlink:href="#DejaVuSans-30"/>
       <use xlink:href="#DejaVuSans-2e" x="63.623047"/>
       <use xlink:href="#DejaVuSans-30" x="95.410156"/>
       <use xlink:href="#DejaVuSans-30" x="159.033203"/>
       <use xlink:href="#DejaVuSans-30" x="222.65625"/>
      </g>
     </g>
    </g>
    <g id="ytick_6">
     <g id="line2d_153">
      <path d="M 60.32 336.519615 
L 421.2 336.519615 
" clip-path="url(#p5411347ae3)" style="fill: none; stroke: #f0f0f0; stroke-width: 0.8; stroke-linecap: square"/>
     </g>
     <g id="line2d_154">
      <g>
       <use xlink:href="#md03b55fb05" x="60.32" y="336.519615" style="stroke: #000000; stroke-width: 0.8"/>
      </g>
     </g>
     <g id="text_20">
      <!-- 0.001 -->
      <g transform="translate(24.691875 340.318833) scale(0.1 -0.1)">
       <use xlink:href="#DejaVuSans-30"/>
       <use xlink:href="#DejaVuSans-2e" x="63.623047"/>
       <use xlink:href="#DejaVuSans-30" x="95.410156"/>
       <use xlink:href="#DejaVuSans-30" x="159.033203"/>
       <use xlink:href="#DejaVuSans-31" x="222.65625"/>
      </g>
     </g>
    </g>
    <g id="ytick_7">
     <g id="line2d_155">
      <path d="M 60.32 303.047358 
L 421.2 303.047358 
" clip-path="url(#p5411347ae3)" style="fill: none; stroke: #f0f0f0; stroke-width: 0.8; stroke-linecap: square"/>
     </g>
     <g id="line2d_156">
      <g>
       <use xlink:href="#md03b55fb05" x="60.32" y="303.047358" style="stroke: #000000; stroke-width: 0.8"/>
      </g>
     </g>
     <g id="text_21">
      <!-- 0.002 -->
      <g transform="translate(24.691875 306.846576) scale(0.1 -0.1)">
       <use xlink:href="#DejaVuSans-30"/>
       <use xlink:href="#DejaVuSans-2e" x="63.623047"/>
       <use xlink:href="#DejaVuSans-30" x="95.410156"/>
       <use xlink:href="#DejaVuSans-30" x="159.033203"/>
       <use xlink:href="#DejaVuSans-32" x="222.65625"/>
      </g>
     </g>
    </g>
    <g id="ytick_8">
     <g id="line2d_157">
      <path d="M 60.32 269.575101 
L 421.2 269.575101 
" clip-path="url(#p5411347ae3)" style="fill: none; stroke: #f0f0f0; stroke-width: 0.8; stroke-linecap: square"/>
     </g>
     <g id="line2d_158">
      <g>
       <use xlink:href="#md03b55fb05" x="60.32" y="269.575101" style="stroke: #000000; stroke-width: 0.8"/>
      </g>
     </g>
     <g id="text_22">
      <!-- 0.003 -->
      <g transform="translate(24.691875 273.374319) scale(0.1 -0.1)">
       <use xlink:href="#DejaVuSans-30"/>
       <use xlink:href="#DejaVuSans-2e" x="63.623047"/>
       <use xlink:href="#DejaVuSans-30" x="95.410156"/>
       <use xlink:href="#DejaVuSans-30" x="159.033203"/>
       <use xlink:href="#DejaVuSans-33" x="222.65625"/>
      </g>
     </g>
    </g>
    <g id="ytick_9">
     <g id="line2d_159">
      <path d="M 60.32 236.102844 
L 421.2 236.102844 
" clip-path="url(#p5411347ae3)" style="fill: none; stroke: #f0f0f0; stroke-width: 0.8; stroke-linecap: square"/>
     </g>
     <g id="line2d_160">
      <g>
       <use xlink:href="#md03b55fb05" x="60.32" y="236.102844" style="stroke: #000000; stroke-width: 0.8"/>
      </g>
     </g>
     <g id="text_23">
      <!-- 0.004 -->
      <g transform="translate(24.691875 239.902062) scale(0.1 -0.1)">
       <defs>
        <path id="DejaVuSans-34" d="M 2419 4116 
L 825 1625 
L 2419 1625 
L 2419 4116 
z
M 2253 4666 
L 3047 4666 
L 3047 1625 
L 3713 1625 
L 3713 1100 
L 3047 1100 
L 3047 0 
L 2419 0 
L 2419 1100 
L 313 1100 
L 313 1709 
L 2253 4666 
z
" transform="scale(0.015625)"/>
       </defs>
       <use xlink:href="#DejaVuSans-30"/>
       <use xlink:href="#DejaVuSans-2e" x="63.623047"/>
       <use xlink:href="#DejaVuSans-30" x="95.410156"/>
       <use xlink:href="#DejaVuSans-30" x="159.033203"/>
       <use xlink:href="#DejaVuSans-34" x="222.65625"/>
      </g>
     </g>
    </g>
    <g id="text_24">
     <!-- Frequency Error Avg. [rad/2π] -->
     <g transform="translate(18.612188 384.280959) rotate(-90) scale(0.1 -0.1)">
      <use xlink:href="#DejaVuSans-46"/>
      <use xlink:href="#DejaVuSans-72" x="50.269531"/>
      <use xlink:href="#DejaVuSans-65" x="89.132812"/>
      <use xlink:href="#DejaVuSans-71" x="150.65625"/>
      <use xlink:href="#DejaVuSans-75" x="214.132812"/>
      <use xlink:href="#DejaVuSans-65" x="277.511719"/>
      <use xlink:href="#DejaVuSans-6e" x="339.035156"/>
      <use xlink:href="#DejaVuSans-63" x="402.414062"/>
      <use xlink:href="#DejaVuSans-79" x="457.394531"/>
      <use xlink:href="#DejaVuSans-20" x="516.574219"/>
      <use xlink:href="#DejaVuSans-45" x="548.361328"/>
      <use xlink:href="#DejaVuSans-72" x="611.544922"/>
      <use xlink:href="#DejaVuSans-72" x="650.908203"/>
      <use xlink:href="#DejaVuSans-6f" x="689.771484"/>
      <use xlink:href="#DejaVuSans-72" x="750.953125"/>
      <use xlink:href="#DejaVuSans-20" x="792.066406"/>
      <use xlink:href="#DejaVuSans-41" x="823.853516"/>
      <use xlink:href="#DejaVuSans-76" x="886.386719"/>
      <use xlink:href="#DejaVuSans-67" x="945.566406"/>
      <use xlink:href="#DejaVuSans-2e" x="1009.042969"/>
      <use xlink:href="#DejaVuSans-20" x="1040.830078"/>
      <use xlink:href="#DejaVuSans-5b" x="1072.617188"/>
      <use xlink:href="#DejaVuSans-72" x="1111.630859"/>
      <use xlink:href="#DejaVuSans-61" x="1152.744141"/>
      <use xlink:href="#DejaVuSans-64" x="1214.023438"/>
      <use xlink:href="#DejaVuSans-2f" x="1277.5"/>
      <use xlink:href="#DejaVuSans-32" x="1311.191406"/>
      <use xlink:href="#DejaVuSans-3c0" x="1374.814453"/>
      <use xlink:href="#DejaVuSans-5d" x="1435.019531"/>
     </g>
    </g>
   </g>
   <g id="line2d_161">
    <path d="M 76.723636 369.991872 
L 335.322139 369.991872 
L 336.68801 -1 
L 336.68801 -1 
" clip-path="url(#p5411347ae3)" style="fill: none; stroke: #0b0000; stroke-opacity: 0.75; stroke-width: 1.5; stroke-linecap: square"/>
   </g>
   <g id="line2d_162">
    <path d="M 76.723636 369.991872 
L 243.976399 369.991872 
L 245.262959 290.338033 
L 246.549519 247.783014 
L 249.122638 184.10033 
L 251.695758 133.358908 
L 255.555437 60.929447 
L 256.841996 41.181425 
L 259.110081 -1 
L 259.110081 -1 
" clip-path="url(#p5411347ae3)" style="fill: none; stroke: #b30000; stroke-opacity: 0.75; stroke-width: 1.5; stroke-linecap: square"/>
   </g>
   <g id="line2d_163">
    <path d="M 76.723636 321.485484 
L 81.869875 322.022518 
L 83.156435 322.284526 
L 84.442995 322.712943 
L 85.729554 323.44983 
L 88.302674 325.853276 
L 89.589234 326.696701 
L 90.875793 327.14643 
L 92.162353 327.348601 
L 93.448913 327.384963 
L 97.308592 327.069502 
L 98.595152 327.728578 
L 99.881711 328.892042 
L 101.168271 329.482811 
L 105.02795 330.171477 
L 106.31451 330.820034 
L 107.60107 332.646681 
L 108.887629 334.874411 
L 110.174189 335.66569 
L 111.460749 335.796974 
L 114.033868 335.267754 
L 115.320428 337.015362 
L 116.606988 337.791635 
L 117.893547 337.995306 
L 119.180107 338.45374 
L 120.466667 341.029091 
L 121.753226 343.959629 
L 123.039786 344.260842 
L 124.326346 343.614585 
L 125.612906 345.482187 
L 128.186025 346.477704 
L 129.472585 351.993074 
L 130.759144 352.778464 
L 132.045704 352.444556 
L 133.332264 354.084104 
L 134.618824 360.571613 
L 135.905383 360.484066 
L 137.191943 369.792923 
L 138.478503 369.989611 
L 183.508093 369.991807 
L 184.794652 362.469305 
L 187.367772 346.390993 
L 188.654332 344.264018 
L 189.940891 337.613264 
L 191.227451 333.589775 
L 192.514011 327.262474 
L 193.80057 322.608059 
L 195.08713 318.895928 
L 196.37369 313.732387 
L 197.66025 310.678207 
L 198.946809 305.038606 
L 200.233369 301.347394 
L 201.519929 295.089358 
L 202.806488 290.033054 
L 204.093048 285.923275 
L 205.379608 280.440983 
L 206.666168 275.488934 
L 209.239287 264.259731 
L 211.812406 253.0751 
L 216.958645 228.389474 
L 218.245205 221.204614 
L 219.531765 214.701034 
L 224.678004 185.734627 
L 227.251123 169.935941 
L 229.824242 152.885906 
L 233.683922 125.418359 
L 237.543601 96.050998 
L 242.68984 51.862488 
L 245.262959 27.839517 
L 248.181135 -1 
L 248.181135 -1 
" clip-path="url(#p5411347ae3)" style="fill: none; stroke: #ff5c00; stroke-opacity: 0.75; stroke-width: 1.5; stroke-linecap: square"/>
   </g>
   <g id="line2d_164">
    <path d="M 76.723636 311.235159 
L 83.156435 312.633059 
L 92.162353 314.765864 
L 96.022032 316.012831 
L 101.168271 317.693116 
L 105.02795 318.852552 
L 107.60107 319.841362 
L 116.606988 323.828786 
L 119.180107 325.285821 
L 124.326346 327.787898 
L 126.899465 329.406362 
L 129.472585 330.909343 
L 133.332264 333.872146 
L 135.905383 335.407018 
L 141.051622 339.558716 
L 142.338182 340.987752 
L 143.624742 342.19567 
L 144.911301 343.049883 
L 146.197861 344.187081 
L 147.484421 345.593475 
L 148.77098 346.708818 
L 150.05754 348.177816 
L 151.3441 350.031262 
L 152.63066 351.070234 
L 153.917219 352.280335 
L 155.203779 354.003813 
L 156.490339 355.257062 
L 157.776898 357.6798 
L 159.063458 359.276759 
L 160.350018 360.251929 
L 161.636578 362.401831 
L 162.923137 363.863355 
L 164.209697 368.63979 
L 165.496257 369.178723 
L 166.782816 368.219619 
L 168.069376 368.873464 
L 169.355936 369.124507 
L 170.642496 366.491108 
L 171.929055 362.62487 
L 173.215615 360.08421 
L 174.502175 358.792014 
L 175.788734 355.27585 
L 178.361854 350.748717 
L 179.648414 347.647227 
L 182.221533 342.4507 
L 183.508093 339.212623 
L 186.081212 333.547754 
L 188.654332 326.824119 
L 192.514011 316.674923 
L 197.66025 301.286038 
L 202.806488 284.01832 
L 206.666168 269.522578 
L 209.239287 259.290646 
L 213.098966 242.573873 
L 216.958645 224.24962 
L 219.531765 211.213297 
L 223.391444 189.973817 
L 225.964563 174.737819 
L 228.537683 158.573855 
L 231.110802 141.431872 
L 233.683922 123.200301 
L 236.257041 103.910966 
L 240.11672 72.63591 
L 243.976399 38.450364 
L 246.549519 13.887943 
L 248.032226 -1 
L 248.032226 -1 
" clip-path="url(#p5411347ae3)" style="fill: none; stroke: #ffff07; stroke-opacity: 0.75; stroke-width: 1.5; stroke-linecap: square"/>
   </g>
   <g id="line2d_165">
    <path d="M 167.218493 386.728 
L 167.218493 234.429231 
" clip-path="url(#p5411347ae3)" style="fill: none; stroke-dasharray: 3.7,1.6; stroke-dashoffset: 0; stroke: #000000; stroke-opacity: 0.75"/>
   </g>
   <g id="patch_9">
    <path d="M 60.32 386.728 
L 60.32 234.429231 
" style="fill: none; stroke: #000000; stroke-width: 0.8; stroke-linejoin: miter; stroke-linecap: square"/>
   </g>
   <g id="patch_10">
    <path d="M 421.2 386.728 
L 421.2 234.429231 
" style="fill: none; stroke: #000000; stroke-width: 0.8; stroke-linejoin: miter; stroke-linecap: square"/>
   </g>
   <g id="patch_11">
    <path d="M 60.32 386.728 
L 421.2 386.728 
" style="fill: none; stroke: #000000; stroke-width: 0.8; stroke-linejoin: miter; stroke-linecap: square"/>
   </g>
   <g id="patch_12">
    <path d="M 60.32 234.429231 
L 421.2 234.429231 
" style="fill: none; stroke: #000000; stroke-width: 0.8; stroke-linejoin: miter; stroke-linecap: square"/>
   </g>
   <g id="legend_2">
    <g id="patch_13">
     <path d="M 332.271875 315.819856 
L 414.2 315.819856 
Q 416.2 315.819856 416.2 313.819856 
L 416.2 241.429231 
Q 416.2 239.429231 414.2 239.429231 
L 332.271875 239.429231 
Q 330.271875 239.429231 330.271875 241.429231 
L 330.271875 313.819856 
Q 330.271875 315.819856 332.271875 315.819856 
z
" style="fill: #ffffff; opacity: 0.8; stroke: #cccccc; stroke-linejoin: miter"/>
    </g>
    <g id="line2d_166">
     <path d="M 334.271875 247.527668 
L 344.271875 247.527668 
L 354.271875 247.527668 
" style="fill: none; stroke: #0b0000; stroke-opacity: 0.75; stroke-width: 1.5; stroke-linecap: square"/>
    </g>
    <g id="text_25">
     <!-- K=0.1 -->
     <g transform="translate(362.271875 251.027668) scale(0.1 -0.1)">
      <use xlink:href="#DejaVuSans-4b"/>
      <use xlink:href="#DejaVuSans-3d" x="65.576172"/>
      <use xlink:href="#DejaVuSans-30" x="149.365234"/>
      <use xlink:href="#DejaVuSans-2e" x="212.988281"/>
      <use xlink:href="#DejaVuSans-31" x="244.775391"/>
     </g>
    </g>
    <g id="line2d_167">
     <path d="M 334.271875 262.205793 
L 344.271875 262.205793 
L 354.271875 262.205793 
" style="fill: none; stroke: #b30000; stroke-opacity: 0.75; stroke-width: 1.5; stroke-linecap: square"/>
    </g>
    <g id="text_26">
     <!-- K=0.01 -->
     <g transform="translate(362.271875 265.705793) scale(0.1 -0.1)">
      <use xlink:href="#DejaVuSans-4b"/>
      <use xlink:href="#DejaVuSans-3d" x="65.576172"/>
      <use xlink:href="#DejaVuSans-30" x="149.365234"/>
      <use xlink:href="#DejaVuSans-2e" x="212.988281"/>
      <use xlink:href="#DejaVuSans-30" x="244.775391"/>
      <use xlink:href="#DejaVuSans-31" x="308.398438"/>
     </g>
    </g>
    <g id="line2d_168">
     <path d="M 334.271875 276.883918 
L 344.271875 276.883918 
L 354.271875 276.883918 
" style="fill: none; stroke: #ff5c00; stroke-opacity: 0.75; stroke-width: 1.5; stroke-linecap: square"/>
    </g>
    <g id="text_27">
     <!-- K=0.001 -->
     <g transform="translate(362.271875 280.383918) scale(0.1 -0.1)">
      <use xlink:href="#DejaVuSans-4b"/>
      <use xlink:href="#DejaVuSans-3d" x="65.576172"/>
      <use xlink:href="#DejaVuSans-30" x="149.365234"/>
      <use xlink:href="#DejaVuSans-2e" x="212.988281"/>
      <use xlink:href="#DejaVuSans-30" x="244.775391"/>
      <use xlink:href="#DejaVuSans-30" x="308.398438"/>
      <use xlink:href="#DejaVuSans-31" x="372.021484"/>
     </g>
    </g>
    <g id="line2d_169">
     <path d="M 334.271875 291.562043 
L 344.271875 291.562043 
L 354.271875 291.562043 
" style="fill: none; stroke: #ffff07; stroke-opacity: 0.75; stroke-width: 1.5; stroke-linecap: square"/>
    </g>
    <g id="text_28">
     <!-- K=0.0001 -->
     <g transform="translate(362.271875 295.062043) scale(0.1 -0.1)">
      <use xlink:href="#DejaVuSans-4b"/>
      <use xlink:href="#DejaVuSans-3d" x="65.576172"/>
      <use xlink:href="#DejaVuSans-30" x="149.365234"/>
      <use xlink:href="#DejaVuSans-2e" x="212.988281"/>
      <use xlink:href="#DejaVuSans-30" x="244.775391"/>
      <use xlink:href="#DejaVuSans-30" x="308.398438"/>
      <use xlink:href="#DejaVuSans-30" x="372.021484"/>
      <use xlink:href="#DejaVuSans-31" x="435.644531"/>
     </g>
    </g>
    <g id="line2d_170">
     <path d="M 334.271875 306.240168 
L 344.271875 306.240168 
L 354.271875 306.240168 
" style="fill: none; stroke-dasharray: 3.7,1.6; stroke-dashoffset: 0; stroke: #000000; stroke-opacity: 0.75"/>
    </g>
    <g id="text_29">
     <!-- ω -->
     <g transform="translate(362.271875 309.740168) scale(0.1 -0.1)">
      <use xlink:href="#DejaVuSans-3c9"/>
     </g>
    </g>
   </g>
  </g>
  <g id="text_30">
   <!-- Synchronization Error(EMA Filter, ω=0.002) -->
   <g transform="translate(85.851562 17.758125) scale(0.12 -0.12)">
    <defs>
     <path id="DejaVuSans-53" d="M 3425 4513 
L 3425 3897 
Q 3066 4069 2747 4153 
Q 2428 4238 2131 4238 
Q 1616 4238 1336 4038 
Q 1056 3838 1056 3469 
Q 1056 3159 1242 3001 
Q 1428 2844 1947 2747 
L 2328 2669 
Q 3034 2534 3370 2195 
Q 3706 1856 3706 1288 
Q 3706 609 3251 259 
Q 2797 -91 1919 -91 
Q 1588 -91 1214 -16 
Q 841 59 441 206 
L 441 856 
Q 825 641 1194 531 
Q 1563 422 1919 422 
Q 2459 422 2753 634 
Q 3047 847 3047 1241 
Q 3047 1584 2836 1778 
Q 2625 1972 2144 2069 
L 1759 2144 
Q 1053 2284 737 2584 
Q 422 2884 422 3419 
Q 422 4038 858 4394 
Q 1294 4750 2059 4750 
Q 2388 4750 2728 4690 
Q 3069 4631 3425 4513 
z
" transform="scale(0.015625)"/>
     <path id="DejaVuSans-69" d="M 603 3500 
L 1178 3500 
L 1178 0 
L 603 0 
L 603 3500 
z
M 603 4863 
L 1178 4863 
L 1178 4134 
L 603 4134 
L 603 4863 
z
" transform="scale(0.015625)"/>
     <path id="DejaVuSans-7a" d="M 353 3500 
L 3084 3500 
L 3084 2975 
L 922 459 
L 3084 459 
L 3084 0 
L 275 0 
L 275 525 
L 2438 3041 
L 353 3041 
L 353 3500 
z
" transform="scale(0.015625)"/>
     <path id="DejaVuSans-28" d="M 1984 4856 
Q 1566 4138 1362 3434 
Q 1159 2731 1159 2009 
Q 1159 1288 1364 580 
Q 1569 -128 1984 -844 
L 1484 -844 
Q 1016 -109 783 600 
Q 550 1309 550 2009 
Q 550 2706 781 3412 
Q 1013 4119 1484 4856 
L 1984 4856 
z
" transform="scale(0.015625)"/>
     <path id="DejaVuSans-4d" d="M 628 4666 
L 1569 4666 
L 2759 1491 
L 3956 4666 
L 4897 4666 
L 4897 0 
L 4281 0 
L 4281 4097 
L 3078 897 
L 2444 897 
L 1241 4097 
L 1241 0 
L 628 0 
L 628 4666 
z
" transform="scale(0.015625)"/>
     <path id="DejaVuSans-6c" d="M 603 4863 
L 1178 4863 
L 1178 0 
L 603 0 
L 603 4863 
z
" transform="scale(0.015625)"/>
     <path id="DejaVuSans-2c" d="M 750 794 
L 1409 794 
L 1409 256 
L 897 -744 
L 494 -744 
L 750 256 
L 750 794 
z
" transform="scale(0.015625)"/>
     <path id="DejaVuSans-29" d="M 513 4856 
L 1013 4856 
Q 1481 4119 1714 3412 
Q 1947 2706 1947 2009 
Q 1947 1309 1714 600 
Q 1481 -109 1013 -844 
L 513 -844 
Q 928 -128 1133 580 
Q 1338 1288 1338 2009 
Q 1338 2731 1133 3434 
Q 928 4138 513 4856 
z
" transform="scale(0.015625)"/>
    </defs>
    <use xlink:href="#DejaVuSans-53"/>
    <use xlink:href="#DejaVuSans-79" x="63.476562"/>
    <use xlink:href="#DejaVuSans-6e" x="122.65625"/>
    <use xlink:href="#DejaVuSans-63" x="186.035156"/>
    <use xlink:href="#DejaVuSans-68" x="241.015625"/>
    <use xlink:href="#DejaVuSans-72" x="304.394531"/>
    <use xlink:href="#DejaVuSans-6f" x="343.257812"/>
    <use xlink:href="#DejaVuSans-6e" x="404.439453"/>
    <use xlink:href="#DejaVuSans-69" x="467.818359"/>
    <use xlink:href="#DejaVuSans-7a" x="495.601562"/>
    <use xlink:href="#DejaVuSans-61" x="548.091797"/>
    <use xlink:href="#DejaVuSans-74" x="609.371094"/>
    <use xlink:href="#DejaVuSans-69" x="648.580078"/>
    <use xlink:href="#DejaVuSans-6f" x="676.363281"/>
    <use xlink:href="#DejaVuSans-6e" x="737.544922"/>
    <use xlink:href="#DejaVuSans-20" x="800.923828"/>
    <use xlink:href="#DejaVuSans-45" x="832.710938"/>
    <use xlink:href="#DejaVuSans-72" x="895.894531"/>
    <use xlink:href="#DejaVuSans-72" x="935.257812"/>
    <use xlink:href="#DejaVuSans-6f" x="974.121094"/>
    <use xlink:href="#DejaVuSans-72" x="1035.302734"/>
    <use xlink:href="#DejaVuSans-28" x="1076.416016"/>
    <use xlink:href="#DejaVuSans-45" x="1115.429688"/>
    <use xlink:href="#DejaVuSans-4d" x="1178.613281"/>
    <use xlink:href="#DejaVuSans-41" x="1264.892578"/>
    <use xlink:href="#DejaVuSans-20" x="1333.300781"/>
    <use xlink:href="#DejaVuSans-46" x="1365.087891"/>
    <use xlink:href="#DejaVuSans-69" x="1415.357422"/>
    <use xlink:href="#DejaVuSans-6c" x="1443.140625"/>
    <use xlink:href="#DejaVuSans-74" x="1470.923828"/>
    <use xlink:href="#DejaVuSans-65" x="1510.132812"/>
    <use xlink:href="#DejaVuSans-72" x="1571.65625"/>
    <use xlink:href="#DejaVuSans-2c" x="1612.769531"/>
    <use xlink:href="#DejaVuSans-20" x="1644.556641"/>
    <use xlink:href="#DejaVuSans-3c9" x="1676.34375"/>
    <use xlink:href="#DejaVuSans-3d" x="1760.083984"/>
    <use xlink:href="#DejaVuSans-30" x="1843.873047"/>
    <use xlink:href="#DejaVuSans-2e" x="1907.496094"/>
    <use xlink:href="#DejaVuSans-30" x="1939.283203"/>
    <use xlink:href="#DejaVuSans-30" x="2002.90625"/>
    <use xlink:href="#DejaVuSans-32" x="2066.529297"/>
    <use xlink:href="#DejaVuSans-29" x="2130.152344"/>
   </g>
  </g>
 </g>
 <defs>
  <clipPath id="pa609330e28">
   <rect x="60.32" y="34.56" width="360.88" height="152.298769"/>
  </clipPath>
  <clipPath id="p5411347ae3">
   <rect x="60.32" y="234.429231" width="360.88" height="152.298769"/>
  </clipPath>
 </defs>
</svg>
