<?xml version="1.0" encoding="utf-8" standalone="no"?>
<!DOCTYPE svg PUBLIC "-//W3C//DTD SVG 1.1//EN"
  "http://www.w3.org/Graphics/SVG/1.1/DTD/svg11.dtd">
<svg xmlns:xlink="http://www.w3.org/1999/xlink" width="432pt" height="432pt" viewBox="0 0 432 432" xmlns="http://www.w3.org/2000/svg" version="1.1">
 <metadata>
  <rdf:RDF xmlns:dc="http://purl.org/dc/elements/1.1/" xmlns:cc="http://creativecommons.org/ns#" xmlns:rdf="http://www.w3.org/1999/02/22-rdf-syntax-ns#">
   <cc:Work>
    <dc:type rdf:resource="http://purl.org/dc/dcmitype/StillImage"/>
    <dc:date>2024-08-25T00:21:44.498101</dc:date>
    <dc:format>image/svg+xml</dc:format>
    <dc:creator>
     <cc:Agent>
      <dc:title>Matplotlib v3.8.2, https://matplotlib.org/</dc:title>
     </cc:Agent>
    </dc:creator>
   </cc:Work>
  </rdf:RDF>
 </metadata>
 <defs>
  <style type="text/css">*{stroke-linejoin: round; stroke-linecap: butt}</style>
 </defs>
 <g id="figure_1">
  <g id="patch_1">
   <path d="M 0 432 
L 432 432 
L 432 0 
L 0 0 
z
" style="fill: #ffffff"/>
  </g>
  <g id="axes_1">
   <g id="patch_2">
    <path d="M 54.02 188.008 
L 421.2 188.008 
L 421.2 34.56 
L 54.02 34.56 
z
" style="fill: #ffffff"/>
   </g>
   <g id="matplotlib.axis_1">
    <g id="xtick_1">
     <g id="line2d_1">
      <path d="M 132.439201 188.008 
L 132.439201 34.56 
" clip-path="url(#p63c888dccd)" style="fill: none; stroke: #f0f0f0; stroke-width: 0.8; stroke-linecap: square"/>
     </g>
     <g id="line2d_2">
      <defs>
       <path id="m03be9a371d" d="M 0 0 
L 0 3.5 
" style="stroke: #000000; stroke-width: 0.8"/>
      </defs>
      <g>
       <use xlink:href="#m03be9a371d" x="132.439201" y="188.008" style="stroke: #000000; stroke-width: 0.8"/>
      </g>
     </g>
     <g id="text_1">
      <!-- $\mathdefault{10^{-3}}$ -->
      <g transform="translate(120.689201 202.606438) scale(0.1 -0.1)">
       <defs>
        <path id="DejaVuSans-31" d="M 794 531 
L 1825 531 
L 1825 4091 
L 703 3866 
L 703 4441 
L 1819 4666 
L 2450 4666 
L 2450 531 
L 3481 531 
L 3481 0 
L 794 0 
L 794 531 
z
" transform="scale(0.015625)"/>
        <path id="DejaVuSans-30" d="M 2034 4250 
Q 1547 4250 1301 3770 
Q 1056 3291 1056 2328 
Q 1056 1369 1301 889 
Q 1547 409 2034 409 
Q 2525 409 2770 889 
Q 3016 1369 3016 2328 
Q 3016 3291 2770 3770 
Q 2525 4250 2034 4250 
z
M 2034 4750 
Q 2819 4750 3233 4129 
Q 3647 3509 3647 2328 
Q 3647 1150 3233 529 
Q 2819 -91 2034 -91 
Q 1250 -91 836 529 
Q 422 1150 422 2328 
Q 422 3509 836 4129 
Q 1250 4750 2034 4750 
z
" transform="scale(0.015625)"/>
        <path id="DejaVuSans-2212" d="M 678 2272 
L 4684 2272 
L 4684 1741 
L 678 1741 
L 678 2272 
z
" transform="scale(0.015625)"/>
        <path id="DejaVuSans-33" d="M 2597 2516 
Q 3050 2419 3304 2112 
Q 3559 1806 3559 1356 
Q 3559 666 3084 287 
Q 2609 -91 1734 -91 
Q 1441 -91 1130 -33 
Q 819 25 488 141 
L 488 750 
Q 750 597 1062 519 
Q 1375 441 1716 441 
Q 2309 441 2620 675 
Q 2931 909 2931 1356 
Q 2931 1769 2642 2001 
Q 2353 2234 1838 2234 
L 1294 2234 
L 1294 2753 
L 1863 2753 
Q 2328 2753 2575 2939 
Q 2822 3125 2822 3475 
Q 2822 3834 2567 4026 
Q 2313 4219 1838 4219 
Q 1578 4219 1281 4162 
Q 984 4106 628 3988 
L 628 4550 
Q 988 4650 1302 4700 
Q 1616 4750 1894 4750 
Q 2613 4750 3031 4423 
Q 3450 4097 3450 3541 
Q 3450 3153 3228 2886 
Q 3006 2619 2597 2516 
z
" transform="scale(0.015625)"/>
       </defs>
       <use xlink:href="#DejaVuSans-31" transform="translate(0 0.765625)"/>
       <use xlink:href="#DejaVuSans-30" transform="translate(63.623047 0.765625)"/>
       <use xlink:href="#DejaVuSans-2212" transform="translate(128.203125 39.046875) scale(0.7)"/>
       <use xlink:href="#DejaVuSans-33" transform="translate(186.855469 39.046875) scale(0.7)"/>
      </g>
     </g>
    </g>
    <g id="xtick_2">
     <g id="line2d_3">
      <path d="M 233.244619 188.008 
L 233.244619 34.56 
" clip-path="url(#p63c888dccd)" style="fill: none; stroke: #f0f0f0; stroke-width: 0.8; stroke-linecap: square"/>
     </g>
     <g id="line2d_4">
      <g>
       <use xlink:href="#m03be9a371d" x="233.244619" y="188.008" style="stroke: #000000; stroke-width: 0.8"/>
      </g>
     </g>
     <g id="text_2">
      <!-- $\mathdefault{10^{-2}}$ -->
      <g transform="translate(221.494619 202.606438) scale(0.1 -0.1)">
       <defs>
        <path id="DejaVuSans-32" d="M 1228 531 
L 3431 531 
L 3431 0 
L 469 0 
L 469 531 
Q 828 903 1448 1529 
Q 2069 2156 2228 2338 
Q 2531 2678 2651 2914 
Q 2772 3150 2772 3378 
Q 2772 3750 2511 3984 
Q 2250 4219 1831 4219 
Q 1534 4219 1204 4116 
Q 875 4013 500 3803 
L 500 4441 
Q 881 4594 1212 4672 
Q 1544 4750 1819 4750 
Q 2544 4750 2975 4387 
Q 3406 4025 3406 3419 
Q 3406 3131 3298 2873 
Q 3191 2616 2906 2266 
Q 2828 2175 2409 1742 
Q 1991 1309 1228 531 
z
" transform="scale(0.015625)"/>
       </defs>
       <use xlink:href="#DejaVuSans-31" transform="translate(0 0.765625)"/>
       <use xlink:href="#DejaVuSans-30" transform="translate(63.623047 0.765625)"/>
       <use xlink:href="#DejaVuSans-2212" transform="translate(128.203125 39.046875) scale(0.7)"/>
       <use xlink:href="#DejaVuSans-32" transform="translate(186.855469 39.046875) scale(0.7)"/>
      </g>
     </g>
    </g>
    <g id="xtick_3">
     <g id="line2d_5">
      <path d="M 334.050037 188.008 
L 334.050037 34.56 
" clip-path="url(#p63c888dccd)" style="fill: none; stroke: #f0f0f0; stroke-width: 0.8; stroke-linecap: square"/>
     </g>
     <g id="line2d_6">
      <g>
       <use xlink:href="#m03be9a371d" x="334.050037" y="188.008" style="stroke: #000000; stroke-width: 0.8"/>
      </g>
     </g>
     <g id="text_3">
      <!-- $\mathdefault{10^{-1}}$ -->
      <g transform="translate(322.300037 202.606438) scale(0.1 -0.1)">
       <use xlink:href="#DejaVuSans-31" transform="translate(0 0.684375)"/>
       <use xlink:href="#DejaVuSans-30" transform="translate(63.623047 0.684375)"/>
       <use xlink:href="#DejaVuSans-2212" transform="translate(128.203125 38.965625) scale(0.7)"/>
       <use xlink:href="#DejaVuSans-31" transform="translate(186.855469 38.965625) scale(0.7)"/>
      </g>
     </g>
    </g>
    <g id="xtick_4">
     <g id="line2d_7">
      <path d="M 61.979237 188.008 
L 61.979237 34.56 
" clip-path="url(#p63c888dccd)" style="fill: none; stroke: #f0f0f0; stroke-width: 0.8; stroke-linecap: square"/>
     </g>
     <g id="line2d_8">
      <defs>
       <path id="m2b05c53382" d="M 0 0 
L 0 2 
" style="stroke: #000000; stroke-width: 0.6"/>
      </defs>
      <g>
       <use xlink:href="#m2b05c53382" x="61.979237" y="188.008" style="stroke: #000000; stroke-width: 0.6"/>
      </g>
     </g>
    </g>
    <g id="xtick_5">
     <g id="line2d_9">
      <path d="M 79.73019 188.008 
L 79.73019 34.56 
" clip-path="url(#p63c888dccd)" style="fill: none; stroke: #f0f0f0; stroke-width: 0.8; stroke-linecap: square"/>
     </g>
     <g id="line2d_10">
      <g>
       <use xlink:href="#m2b05c53382" x="79.73019" y="188.008" style="stroke: #000000; stroke-width: 0.6"/>
      </g>
     </g>
    </g>
    <g id="xtick_6">
     <g id="line2d_11">
      <path d="M 92.324692 188.008 
L 92.324692 34.56 
" clip-path="url(#p63c888dccd)" style="fill: none; stroke: #f0f0f0; stroke-width: 0.8; stroke-linecap: square"/>
     </g>
     <g id="line2d_12">
      <g>
       <use xlink:href="#m2b05c53382" x="92.324692" y="188.008" style="stroke: #000000; stroke-width: 0.6"/>
      </g>
     </g>
    </g>
    <g id="xtick_7">
     <g id="line2d_13">
      <path d="M 102.093746 188.008 
L 102.093746 34.56 
" clip-path="url(#p63c888dccd)" style="fill: none; stroke: #f0f0f0; stroke-width: 0.8; stroke-linecap: square"/>
     </g>
     <g id="line2d_14">
      <g>
       <use xlink:href="#m2b05c53382" x="102.093746" y="188.008" style="stroke: #000000; stroke-width: 0.6"/>
      </g>
     </g>
    </g>
    <g id="xtick_8">
     <g id="line2d_15">
      <path d="M 110.075645 188.008 
L 110.075645 34.56 
" clip-path="url(#p63c888dccd)" style="fill: none; stroke: #f0f0f0; stroke-width: 0.8; stroke-linecap: square"/>
     </g>
     <g id="line2d_16">
      <g>
       <use xlink:href="#m2b05c53382" x="110.075645" y="188.008" style="stroke: #000000; stroke-width: 0.6"/>
      </g>
     </g>
    </g>
    <g id="xtick_9">
     <g id="line2d_17">
      <path d="M 116.824244 188.008 
L 116.824244 34.56 
" clip-path="url(#p63c888dccd)" style="fill: none; stroke: #f0f0f0; stroke-width: 0.8; stroke-linecap: square"/>
     </g>
     <g id="line2d_18">
      <g>
       <use xlink:href="#m2b05c53382" x="116.824244" y="188.008" style="stroke: #000000; stroke-width: 0.6"/>
      </g>
     </g>
    </g>
    <g id="xtick_10">
     <g id="line2d_19">
      <path d="M 122.670146 188.008 
L 122.670146 34.56 
" clip-path="url(#p63c888dccd)" style="fill: none; stroke: #f0f0f0; stroke-width: 0.8; stroke-linecap: square"/>
     </g>
     <g id="line2d_20">
      <g>
       <use xlink:href="#m2b05c53382" x="122.670146" y="188.008" style="stroke: #000000; stroke-width: 0.6"/>
      </g>
     </g>
    </g>
    <g id="xtick_11">
     <g id="line2d_21">
      <path d="M 127.826598 188.008 
L 127.826598 34.56 
" clip-path="url(#p63c888dccd)" style="fill: none; stroke: #f0f0f0; stroke-width: 0.8; stroke-linecap: square"/>
     </g>
     <g id="line2d_22">
      <g>
       <use xlink:href="#m2b05c53382" x="127.826598" y="188.008" style="stroke: #000000; stroke-width: 0.6"/>
      </g>
     </g>
    </g>
    <g id="xtick_12">
     <g id="line2d_23">
      <path d="M 162.784655 188.008 
L 162.784655 34.56 
" clip-path="url(#p63c888dccd)" style="fill: none; stroke: #f0f0f0; stroke-width: 0.8; stroke-linecap: square"/>
     </g>
     <g id="line2d_24">
      <g>
       <use xlink:href="#m2b05c53382" x="162.784655" y="188.008" style="stroke: #000000; stroke-width: 0.6"/>
      </g>
     </g>
    </g>
    <g id="xtick_13">
     <g id="line2d_25">
      <path d="M 180.535608 188.008 
L 180.535608 34.56 
" clip-path="url(#p63c888dccd)" style="fill: none; stroke: #f0f0f0; stroke-width: 0.8; stroke-linecap: square"/>
     </g>
     <g id="line2d_26">
      <g>
       <use xlink:href="#m2b05c53382" x="180.535608" y="188.008" style="stroke: #000000; stroke-width: 0.6"/>
      </g>
     </g>
    </g>
    <g id="xtick_14">
     <g id="line2d_27">
      <path d="M 193.13011 188.008 
L 193.13011 34.56 
" clip-path="url(#p63c888dccd)" style="fill: none; stroke: #f0f0f0; stroke-width: 0.8; stroke-linecap: square"/>
     </g>
     <g id="line2d_28">
      <g>
       <use xlink:href="#m2b05c53382" x="193.13011" y="188.008" style="stroke: #000000; stroke-width: 0.6"/>
      </g>
     </g>
    </g>
    <g id="xtick_15">
     <g id="line2d_29">
      <path d="M 202.899164 188.008 
L 202.899164 34.56 
" clip-path="url(#p63c888dccd)" style="fill: none; stroke: #f0f0f0; stroke-width: 0.8; stroke-linecap: square"/>
     </g>
     <g id="line2d_30">
      <g>
       <use xlink:href="#m2b05c53382" x="202.899164" y="188.008" style="stroke: #000000; stroke-width: 0.6"/>
      </g>
     </g>
    </g>
    <g id="xtick_16">
     <g id="line2d_31">
      <path d="M 210.881063 188.008 
L 210.881063 34.56 
" clip-path="url(#p63c888dccd)" style="fill: none; stroke: #f0f0f0; stroke-width: 0.8; stroke-linecap: square"/>
     </g>
     <g id="line2d_32">
      <g>
       <use xlink:href="#m2b05c53382" x="210.881063" y="188.008" style="stroke: #000000; stroke-width: 0.6"/>
      </g>
     </g>
    </g>
    <g id="xtick_17">
     <g id="line2d_33">
      <path d="M 217.629662 188.008 
L 217.629662 34.56 
" clip-path="url(#p63c888dccd)" style="fill: none; stroke: #f0f0f0; stroke-width: 0.8; stroke-linecap: square"/>
     </g>
     <g id="line2d_34">
      <g>
       <use xlink:href="#m2b05c53382" x="217.629662" y="188.008" style="stroke: #000000; stroke-width: 0.6"/>
      </g>
     </g>
    </g>
    <g id="xtick_18">
     <g id="line2d_35">
      <path d="M 223.475564 188.008 
L 223.475564 34.56 
" clip-path="url(#p63c888dccd)" style="fill: none; stroke: #f0f0f0; stroke-width: 0.8; stroke-linecap: square"/>
     </g>
     <g id="line2d_36">
      <g>
       <use xlink:href="#m2b05c53382" x="223.475564" y="188.008" style="stroke: #000000; stroke-width: 0.6"/>
      </g>
     </g>
    </g>
    <g id="xtick_19">
     <g id="line2d_37">
      <path d="M 228.632016 188.008 
L 228.632016 34.56 
" clip-path="url(#p63c888dccd)" style="fill: none; stroke: #f0f0f0; stroke-width: 0.8; stroke-linecap: square"/>
     </g>
     <g id="line2d_38">
      <g>
       <use xlink:href="#m2b05c53382" x="228.632016" y="188.008" style="stroke: #000000; stroke-width: 0.6"/>
      </g>
     </g>
    </g>
    <g id="xtick_20">
     <g id="line2d_39">
      <path d="M 263.590073 188.008 
L 263.590073 34.56 
" clip-path="url(#p63c888dccd)" style="fill: none; stroke: #f0f0f0; stroke-width: 0.8; stroke-linecap: square"/>
     </g>
     <g id="line2d_40">
      <g>
       <use xlink:href="#m2b05c53382" x="263.590073" y="188.008" style="stroke: #000000; stroke-width: 0.6"/>
      </g>
     </g>
    </g>
    <g id="xtick_21">
     <g id="line2d_41">
      <path d="M 281.341026 188.008 
L 281.341026 34.56 
" clip-path="url(#p63c888dccd)" style="fill: none; stroke: #f0f0f0; stroke-width: 0.8; stroke-linecap: square"/>
     </g>
     <g id="line2d_42">
      <g>
       <use xlink:href="#m2b05c53382" x="281.341026" y="188.008" style="stroke: #000000; stroke-width: 0.6"/>
      </g>
     </g>
    </g>
    <g id="xtick_22">
     <g id="line2d_43">
      <path d="M 293.935528 188.008 
L 293.935528 34.56 
" clip-path="url(#p63c888dccd)" style="fill: none; stroke: #f0f0f0; stroke-width: 0.8; stroke-linecap: square"/>
     </g>
     <g id="line2d_44">
      <g>
       <use xlink:href="#m2b05c53382" x="293.935528" y="188.008" style="stroke: #000000; stroke-width: 0.6"/>
      </g>
     </g>
    </g>
    <g id="xtick_23">
     <g id="line2d_45">
      <path d="M 303.704582 188.008 
L 303.704582 34.56 
" clip-path="url(#p63c888dccd)" style="fill: none; stroke: #f0f0f0; stroke-width: 0.8; stroke-linecap: square"/>
     </g>
     <g id="line2d_46">
      <g>
       <use xlink:href="#m2b05c53382" x="303.704582" y="188.008" style="stroke: #000000; stroke-width: 0.6"/>
      </g>
     </g>
    </g>
    <g id="xtick_24">
     <g id="line2d_47">
      <path d="M 311.686481 188.008 
L 311.686481 34.56 
" clip-path="url(#p63c888dccd)" style="fill: none; stroke: #f0f0f0; stroke-width: 0.8; stroke-linecap: square"/>
     </g>
     <g id="line2d_48">
      <g>
       <use xlink:href="#m2b05c53382" x="311.686481" y="188.008" style="stroke: #000000; stroke-width: 0.6"/>
      </g>
     </g>
    </g>
    <g id="xtick_25">
     <g id="line2d_49">
      <path d="M 318.43508 188.008 
L 318.43508 34.56 
" clip-path="url(#p63c888dccd)" style="fill: none; stroke: #f0f0f0; stroke-width: 0.8; stroke-linecap: square"/>
     </g>
     <g id="line2d_50">
      <g>
       <use xlink:href="#m2b05c53382" x="318.43508" y="188.008" style="stroke: #000000; stroke-width: 0.6"/>
      </g>
     </g>
    </g>
    <g id="xtick_26">
     <g id="line2d_51">
      <path d="M 324.280982 188.008 
L 324.280982 34.56 
" clip-path="url(#p63c888dccd)" style="fill: none; stroke: #f0f0f0; stroke-width: 0.8; stroke-linecap: square"/>
     </g>
     <g id="line2d_52">
      <g>
       <use xlink:href="#m2b05c53382" x="324.280982" y="188.008" style="stroke: #000000; stroke-width: 0.6"/>
      </g>
     </g>
    </g>
    <g id="xtick_27">
     <g id="line2d_53">
      <path d="M 329.437434 188.008 
L 329.437434 34.56 
" clip-path="url(#p63c888dccd)" style="fill: none; stroke: #f0f0f0; stroke-width: 0.8; stroke-linecap: square"/>
     </g>
     <g id="line2d_54">
      <g>
       <use xlink:href="#m2b05c53382" x="329.437434" y="188.008" style="stroke: #000000; stroke-width: 0.6"/>
      </g>
     </g>
    </g>
    <g id="xtick_28">
     <g id="line2d_55">
      <path d="M 364.395491 188.008 
L 364.395491 34.56 
" clip-path="url(#p63c888dccd)" style="fill: none; stroke: #f0f0f0; stroke-width: 0.8; stroke-linecap: square"/>
     </g>
     <g id="line2d_56">
      <g>
       <use xlink:href="#m2b05c53382" x="364.395491" y="188.008" style="stroke: #000000; stroke-width: 0.6"/>
      </g>
     </g>
    </g>
    <g id="xtick_29">
     <g id="line2d_57">
      <path d="M 382.146444 188.008 
L 382.146444 34.56 
" clip-path="url(#p63c888dccd)" style="fill: none; stroke: #f0f0f0; stroke-width: 0.8; stroke-linecap: square"/>
     </g>
     <g id="line2d_58">
      <g>
       <use xlink:href="#m2b05c53382" x="382.146444" y="188.008" style="stroke: #000000; stroke-width: 0.6"/>
      </g>
     </g>
    </g>
    <g id="xtick_30">
     <g id="line2d_59">
      <path d="M 394.740946 188.008 
L 394.740946 34.56 
" clip-path="url(#p63c888dccd)" style="fill: none; stroke: #f0f0f0; stroke-width: 0.8; stroke-linecap: square"/>
     </g>
     <g id="line2d_60">
      <g>
       <use xlink:href="#m2b05c53382" x="394.740946" y="188.008" style="stroke: #000000; stroke-width: 0.6"/>
      </g>
     </g>
    </g>
    <g id="xtick_31">
     <g id="line2d_61">
      <path d="M 404.51 188.008 
L 404.51 34.56 
" clip-path="url(#p63c888dccd)" style="fill: none; stroke: #f0f0f0; stroke-width: 0.8; stroke-linecap: square"/>
     </g>
     <g id="line2d_62">
      <g>
       <use xlink:href="#m2b05c53382" x="404.51" y="188.008" style="stroke: #000000; stroke-width: 0.6"/>
      </g>
     </g>
    </g>
    <g id="xtick_32">
     <g id="line2d_63">
      <path d="M 412.491899 188.008 
L 412.491899 34.56 
" clip-path="url(#p63c888dccd)" style="fill: none; stroke: #f0f0f0; stroke-width: 0.8; stroke-linecap: square"/>
     </g>
     <g id="line2d_64">
      <g>
       <use xlink:href="#m2b05c53382" x="412.491899" y="188.008" style="stroke: #000000; stroke-width: 0.6"/>
      </g>
     </g>
    </g>
    <g id="xtick_33">
     <g id="line2d_65">
      <path d="M 419.240498 188.008 
L 419.240498 34.56 
" clip-path="url(#p63c888dccd)" style="fill: none; stroke: #f0f0f0; stroke-width: 0.8; stroke-linecap: square"/>
     </g>
     <g id="line2d_66">
      <g>
       <use xlink:href="#m2b05c53382" x="419.240498" y="188.008" style="stroke: #000000; stroke-width: 0.6"/>
      </g>
     </g>
    </g>
    <g id="text_4">
     <!-- Target Frequency [rad/2π] -->
     <g transform="translate(173.059219 216.284563) scale(0.1 -0.1)">
      <defs>
       <path id="DejaVuSans-54" d="M -19 4666 
L 3928 4666 
L 3928 4134 
L 2272 4134 
L 2272 0 
L 1638 0 
L 1638 4134 
L -19 4134 
L -19 4666 
z
" transform="scale(0.015625)"/>
       <path id="DejaVuSans-61" d="M 2194 1759 
Q 1497 1759 1228 1600 
Q 959 1441 959 1056 
Q 959 750 1161 570 
Q 1363 391 1709 391 
Q 2188 391 2477 730 
Q 2766 1069 2766 1631 
L 2766 1759 
L 2194 1759 
z
M 3341 1997 
L 3341 0 
L 2766 0 
L 2766 531 
Q 2569 213 2275 61 
Q 1981 -91 1556 -91 
Q 1019 -91 701 211 
Q 384 513 384 1019 
Q 384 1609 779 1909 
Q 1175 2209 1959 2209 
L 2766 2209 
L 2766 2266 
Q 2766 2663 2505 2880 
Q 2244 3097 1772 3097 
Q 1472 3097 1187 3025 
Q 903 2953 641 2809 
L 641 3341 
Q 956 3463 1253 3523 
Q 1550 3584 1831 3584 
Q 2591 3584 2966 3190 
Q 3341 2797 3341 1997 
z
" transform="scale(0.015625)"/>
       <path id="DejaVuSans-72" d="M 2631 2963 
Q 2534 3019 2420 3045 
Q 2306 3072 2169 3072 
Q 1681 3072 1420 2755 
Q 1159 2438 1159 1844 
L 1159 0 
L 581 0 
L 581 3500 
L 1159 3500 
L 1159 2956 
Q 1341 3275 1631 3429 
Q 1922 3584 2338 3584 
Q 2397 3584 2469 3576 
Q 2541 3569 2628 3553 
L 2631 2963 
z
" transform="scale(0.015625)"/>
       <path id="DejaVuSans-67" d="M 2906 1791 
Q 2906 2416 2648 2759 
Q 2391 3103 1925 3103 
Q 1463 3103 1205 2759 
Q 947 2416 947 1791 
Q 947 1169 1205 825 
Q 1463 481 1925 481 
Q 2391 481 2648 825 
Q 2906 1169 2906 1791 
z
M 3481 434 
Q 3481 -459 3084 -895 
Q 2688 -1331 1869 -1331 
Q 1566 -1331 1297 -1286 
Q 1028 -1241 775 -1147 
L 775 -588 
Q 1028 -725 1275 -790 
Q 1522 -856 1778 -856 
Q 2344 -856 2625 -561 
Q 2906 -266 2906 331 
L 2906 616 
Q 2728 306 2450 153 
Q 2172 0 1784 0 
Q 1141 0 747 490 
Q 353 981 353 1791 
Q 353 2603 747 3093 
Q 1141 3584 1784 3584 
Q 2172 3584 2450 3431 
Q 2728 3278 2906 2969 
L 2906 3500 
L 3481 3500 
L 3481 434 
z
" transform="scale(0.015625)"/>
       <path id="DejaVuSans-65" d="M 3597 1894 
L 3597 1613 
L 953 1613 
Q 991 1019 1311 708 
Q 1631 397 2203 397 
Q 2534 397 2845 478 
Q 3156 559 3463 722 
L 3463 178 
Q 3153 47 2828 -22 
Q 2503 -91 2169 -91 
Q 1331 -91 842 396 
Q 353 884 353 1716 
Q 353 2575 817 3079 
Q 1281 3584 2069 3584 
Q 2775 3584 3186 3129 
Q 3597 2675 3597 1894 
z
M 3022 2063 
Q 3016 2534 2758 2815 
Q 2500 3097 2075 3097 
Q 1594 3097 1305 2825 
Q 1016 2553 972 2059 
L 3022 2063 
z
" transform="scale(0.015625)"/>
       <path id="DejaVuSans-74" d="M 1172 4494 
L 1172 3500 
L 2356 3500 
L 2356 3053 
L 1172 3053 
L 1172 1153 
Q 1172 725 1289 603 
Q 1406 481 1766 481 
L 2356 481 
L 2356 0 
L 1766 0 
Q 1100 0 847 248 
Q 594 497 594 1153 
L 594 3053 
L 172 3053 
L 172 3500 
L 594 3500 
L 594 4494 
L 1172 4494 
z
" transform="scale(0.015625)"/>
       <path id="DejaVuSans-20" transform="scale(0.015625)"/>
       <path id="DejaVuSans-46" d="M 628 4666 
L 3309 4666 
L 3309 4134 
L 1259 4134 
L 1259 2759 
L 3109 2759 
L 3109 2228 
L 1259 2228 
L 1259 0 
L 628 0 
L 628 4666 
z
" transform="scale(0.015625)"/>
       <path id="DejaVuSans-71" d="M 947 1747 
Q 947 1113 1208 752 
Q 1469 391 1925 391 
Q 2381 391 2643 752 
Q 2906 1113 2906 1747 
Q 2906 2381 2643 2742 
Q 2381 3103 1925 3103 
Q 1469 3103 1208 2742 
Q 947 2381 947 1747 
z
M 2906 525 
Q 2725 213 2448 61 
Q 2172 -91 1784 -91 
Q 1150 -91 751 415 
Q 353 922 353 1747 
Q 353 2572 751 3078 
Q 1150 3584 1784 3584 
Q 2172 3584 2448 3432 
Q 2725 3281 2906 2969 
L 2906 3500 
L 3481 3500 
L 3481 -1331 
L 2906 -1331 
L 2906 525 
z
" transform="scale(0.015625)"/>
       <path id="DejaVuSans-75" d="M 544 1381 
L 544 3500 
L 1119 3500 
L 1119 1403 
Q 1119 906 1312 657 
Q 1506 409 1894 409 
Q 2359 409 2629 706 
Q 2900 1003 2900 1516 
L 2900 3500 
L 3475 3500 
L 3475 0 
L 2900 0 
L 2900 538 
Q 2691 219 2414 64 
Q 2138 -91 1772 -91 
Q 1169 -91 856 284 
Q 544 659 544 1381 
z
M 1991 3584 
L 1991 3584 
z
" transform="scale(0.015625)"/>
       <path id="DejaVuSans-6e" d="M 3513 2113 
L 3513 0 
L 2938 0 
L 2938 2094 
Q 2938 2591 2744 2837 
Q 2550 3084 2163 3084 
Q 1697 3084 1428 2787 
Q 1159 2491 1159 1978 
L 1159 0 
L 581 0 
L 581 3500 
L 1159 3500 
L 1159 2956 
Q 1366 3272 1645 3428 
Q 1925 3584 2291 3584 
Q 2894 3584 3203 3211 
Q 3513 2838 3513 2113 
z
" transform="scale(0.015625)"/>
       <path id="DejaVuSans-63" d="M 3122 3366 
L 3122 2828 
Q 2878 2963 2633 3030 
Q 2388 3097 2138 3097 
Q 1578 3097 1268 2742 
Q 959 2388 959 1747 
Q 959 1106 1268 751 
Q 1578 397 2138 397 
Q 2388 397 2633 464 
Q 2878 531 3122 666 
L 3122 134 
Q 2881 22 2623 -34 
Q 2366 -91 2075 -91 
Q 1284 -91 818 406 
Q 353 903 353 1747 
Q 353 2603 823 3093 
Q 1294 3584 2113 3584 
Q 2378 3584 2631 3529 
Q 2884 3475 3122 3366 
z
" transform="scale(0.015625)"/>
       <path id="DejaVuSans-79" d="M 2059 -325 
Q 1816 -950 1584 -1140 
Q 1353 -1331 966 -1331 
L 506 -1331 
L 506 -850 
L 844 -850 
Q 1081 -850 1212 -737 
Q 1344 -625 1503 -206 
L 1606 56 
L 191 3500 
L 800 3500 
L 1894 763 
L 2988 3500 
L 3597 3500 
L 2059 -325 
z
" transform="scale(0.015625)"/>
       <path id="DejaVuSans-5b" d="M 550 4863 
L 1875 4863 
L 1875 4416 
L 1125 4416 
L 1125 -397 
L 1875 -397 
L 1875 -844 
L 550 -844 
L 550 4863 
z
" transform="scale(0.015625)"/>
       <path id="DejaVuSans-64" d="M 2906 2969 
L 2906 4863 
L 3481 4863 
L 3481 0 
L 2906 0 
L 2906 525 
Q 2725 213 2448 61 
Q 2172 -91 1784 -91 
Q 1150 -91 751 415 
Q 353 922 353 1747 
Q 353 2572 751 3078 
Q 1150 3584 1784 3584 
Q 2172 3584 2448 3432 
Q 2725 3281 2906 2969 
z
M 947 1747 
Q 947 1113 1208 752 
Q 1469 391 1925 391 
Q 2381 391 2643 752 
Q 2906 1113 2906 1747 
Q 2906 2381 2643 2742 
Q 2381 3103 1925 3103 
Q 1469 3103 1208 2742 
Q 947 2381 947 1747 
z
" transform="scale(0.015625)"/>
       <path id="DejaVuSans-2f" d="M 1625 4666 
L 2156 4666 
L 531 -594 
L 0 -594 
L 1625 4666 
z
" transform="scale(0.015625)"/>
       <path id="DejaVuSans-3c0" d="M 231 3500 
L 3584 3500 
L 3584 2925 
L 3144 2925 
L 3144 775 
Q 3144 550 3220 451 
Q 3297 353 3469 353 
Q 3516 353 3584 361 
Q 3653 369 3675 372 
L 3675 -44 
Q 3566 -84 3450 -103 
Q 3334 -122 3219 -122 
Q 2844 -122 2700 83 
Q 2556 288 2556 838 
L 2556 2925 
L 1266 2925 
L 1266 0 
L 678 0 
L 678 2925 
L 231 2925 
L 231 3500 
z
" transform="scale(0.015625)"/>
       <path id="DejaVuSans-5d" d="M 1947 4863 
L 1947 -844 
L 622 -844 
L 622 -397 
L 1369 -397 
L 1369 4416 
L 622 4416 
L 622 4863 
L 1947 4863 
z
" transform="scale(0.015625)"/>
      </defs>
      <use xlink:href="#DejaVuSans-54"/>
      <use xlink:href="#DejaVuSans-61" x="44.583984"/>
      <use xlink:href="#DejaVuSans-72" x="105.863281"/>
      <use xlink:href="#DejaVuSans-67" x="145.226562"/>
      <use xlink:href="#DejaVuSans-65" x="208.703125"/>
      <use xlink:href="#DejaVuSans-74" x="270.226562"/>
      <use xlink:href="#DejaVuSans-20" x="309.435547"/>
      <use xlink:href="#DejaVuSans-46" x="341.222656"/>
      <use xlink:href="#DejaVuSans-72" x="391.492188"/>
      <use xlink:href="#DejaVuSans-65" x="430.355469"/>
      <use xlink:href="#DejaVuSans-71" x="491.878906"/>
      <use xlink:href="#DejaVuSans-75" x="555.355469"/>
      <use xlink:href="#DejaVuSans-65" x="618.734375"/>
      <use xlink:href="#DejaVuSans-6e" x="680.257812"/>
      <use xlink:href="#DejaVuSans-63" x="743.636719"/>
      <use xlink:href="#DejaVuSans-79" x="798.617188"/>
      <use xlink:href="#DejaVuSans-20" x="857.796875"/>
      <use xlink:href="#DejaVuSans-5b" x="889.583984"/>
      <use xlink:href="#DejaVuSans-72" x="928.597656"/>
      <use xlink:href="#DejaVuSans-61" x="969.710938"/>
      <use xlink:href="#DejaVuSans-64" x="1030.990234"/>
      <use xlink:href="#DejaVuSans-2f" x="1094.466797"/>
      <use xlink:href="#DejaVuSans-32" x="1128.158203"/>
      <use xlink:href="#DejaVuSans-3c0" x="1191.78125"/>
      <use xlink:href="#DejaVuSans-5d" x="1251.986328"/>
     </g>
    </g>
   </g>
   <g id="matplotlib.axis_2">
    <g id="ytick_1">
     <g id="line2d_67">
      <path d="M 54.02 181.194619 
L 421.2 181.194619 
" clip-path="url(#p63c888dccd)" style="fill: none; stroke: #f0f0f0; stroke-width: 0.8; stroke-linecap: square"/>
     </g>
     <g id="line2d_68">
      <defs>
       <path id="m947f6f315f" d="M 0 0 
L -3.5 0 
" style="stroke: #000000; stroke-width: 0.8"/>
      </defs>
      <g>
       <use xlink:href="#m947f6f315f" x="54.02" y="181.194619" style="stroke: #000000; stroke-width: 0.8"/>
      </g>
     </g>
     <g id="text_5">
      <!-- 0.00 -->
      <g transform="translate(24.754375 184.993838) scale(0.1 -0.1)">
       <defs>
        <path id="DejaVuSans-2e" d="M 684 794 
L 1344 794 
L 1344 0 
L 684 0 
L 684 794 
z
" transform="scale(0.015625)"/>
       </defs>
       <use xlink:href="#DejaVuSans-30"/>
       <use xlink:href="#DejaVuSans-2e" x="63.623047"/>
       <use xlink:href="#DejaVuSans-30" x="95.410156"/>
       <use xlink:href="#DejaVuSans-30" x="159.033203"/>
      </g>
     </g>
    </g>
    <g id="ytick_2">
     <g id="line2d_69">
      <path d="M 54.02 156.6108 
L 421.2 156.6108 
" clip-path="url(#p63c888dccd)" style="fill: none; stroke: #f0f0f0; stroke-width: 0.8; stroke-linecap: square"/>
     </g>
     <g id="line2d_70">
      <g>
       <use xlink:href="#m947f6f315f" x="54.02" y="156.6108" style="stroke: #000000; stroke-width: 0.8"/>
      </g>
     </g>
     <g id="text_6">
      <!-- 0.05 -->
      <g transform="translate(24.754375 160.410019) scale(0.1 -0.1)">
       <defs>
        <path id="DejaVuSans-35" d="M 691 4666 
L 3169 4666 
L 3169 4134 
L 1269 4134 
L 1269 2991 
Q 1406 3038 1543 3061 
Q 1681 3084 1819 3084 
Q 2600 3084 3056 2656 
Q 3513 2228 3513 1497 
Q 3513 744 3044 326 
Q 2575 -91 1722 -91 
Q 1428 -91 1123 -41 
Q 819 9 494 109 
L 494 744 
Q 775 591 1075 516 
Q 1375 441 1709 441 
Q 2250 441 2565 725 
Q 2881 1009 2881 1497 
Q 2881 1984 2565 2268 
Q 2250 2553 1709 2553 
Q 1456 2553 1204 2497 
Q 953 2441 691 2322 
L 691 4666 
z
" transform="scale(0.015625)"/>
       </defs>
       <use xlink:href="#DejaVuSans-30"/>
       <use xlink:href="#DejaVuSans-2e" x="63.623047"/>
       <use xlink:href="#DejaVuSans-30" x="95.410156"/>
       <use xlink:href="#DejaVuSans-35" x="159.033203"/>
      </g>
     </g>
    </g>
    <g id="ytick_3">
     <g id="line2d_71">
      <path d="M 54.02 132.026981 
L 421.2 132.026981 
" clip-path="url(#p63c888dccd)" style="fill: none; stroke: #f0f0f0; stroke-width: 0.8; stroke-linecap: square"/>
     </g>
     <g id="line2d_72">
      <g>
       <use xlink:href="#m947f6f315f" x="54.02" y="132.026981" style="stroke: #000000; stroke-width: 0.8"/>
      </g>
     </g>
     <g id="text_7">
      <!-- 0.10 -->
      <g transform="translate(24.754375 135.8262) scale(0.1 -0.1)">
       <use xlink:href="#DejaVuSans-30"/>
       <use xlink:href="#DejaVuSans-2e" x="63.623047"/>
       <use xlink:href="#DejaVuSans-31" x="95.410156"/>
       <use xlink:href="#DejaVuSans-30" x="159.033203"/>
      </g>
     </g>
    </g>
    <g id="ytick_4">
     <g id="line2d_73">
      <path d="M 54.02 107.443162 
L 421.2 107.443162 
" clip-path="url(#p63c888dccd)" style="fill: none; stroke: #f0f0f0; stroke-width: 0.8; stroke-linecap: square"/>
     </g>
     <g id="line2d_74">
      <g>
       <use xlink:href="#m947f6f315f" x="54.02" y="107.443162" style="stroke: #000000; stroke-width: 0.8"/>
      </g>
     </g>
     <g id="text_8">
      <!-- 0.15 -->
      <g transform="translate(24.754375 111.242381) scale(0.1 -0.1)">
       <use xlink:href="#DejaVuSans-30"/>
       <use xlink:href="#DejaVuSans-2e" x="63.623047"/>
       <use xlink:href="#DejaVuSans-31" x="95.410156"/>
       <use xlink:href="#DejaVuSans-35" x="159.033203"/>
      </g>
     </g>
    </g>
    <g id="ytick_5">
     <g id="line2d_75">
      <path d="M 54.02 82.859343 
L 421.2 82.859343 
" clip-path="url(#p63c888dccd)" style="fill: none; stroke: #f0f0f0; stroke-width: 0.8; stroke-linecap: square"/>
     </g>
     <g id="line2d_76">
      <g>
       <use xlink:href="#m947f6f315f" x="54.02" y="82.859343" style="stroke: #000000; stroke-width: 0.8"/>
      </g>
     </g>
     <g id="text_9">
      <!-- 0.20 -->
      <g transform="translate(24.754375 86.658562) scale(0.1 -0.1)">
       <use xlink:href="#DejaVuSans-30"/>
       <use xlink:href="#DejaVuSans-2e" x="63.623047"/>
       <use xlink:href="#DejaVuSans-32" x="95.410156"/>
       <use xlink:href="#DejaVuSans-30" x="159.033203"/>
      </g>
     </g>
    </g>
    <g id="ytick_6">
     <g id="line2d_77">
      <path d="M 54.02 58.275524 
L 421.2 58.275524 
" clip-path="url(#p63c888dccd)" style="fill: none; stroke: #f0f0f0; stroke-width: 0.8; stroke-linecap: square"/>
     </g>
     <g id="line2d_78">
      <g>
       <use xlink:href="#m947f6f315f" x="54.02" y="58.275524" style="stroke: #000000; stroke-width: 0.8"/>
      </g>
     </g>
     <g id="text_10">
      <!-- 0.25 -->
      <g transform="translate(24.754375 62.074743) scale(0.1 -0.1)">
       <use xlink:href="#DejaVuSans-30"/>
       <use xlink:href="#DejaVuSans-2e" x="63.623047"/>
       <use xlink:href="#DejaVuSans-32" x="95.410156"/>
       <use xlink:href="#DejaVuSans-35" x="159.033203"/>
      </g>
     </g>
    </g>
    <g id="text_11">
     <!-- Phase Error Avg. [rad/2π] -->
     <g transform="translate(18.674688 174.085563) rotate(-90) scale(0.1 -0.1)">
      <defs>
       <path id="DejaVuSans-50" d="M 1259 4147 
L 1259 2394 
L 2053 2394 
Q 2494 2394 2734 2622 
Q 2975 2850 2975 3272 
Q 2975 3691 2734 3919 
Q 2494 4147 2053 4147 
L 1259 4147 
z
M 628 4666 
L 2053 4666 
Q 2838 4666 3239 4311 
Q 3641 3956 3641 3272 
Q 3641 2581 3239 2228 
Q 2838 1875 2053 1875 
L 1259 1875 
L 1259 0 
L 628 0 
L 628 4666 
z
" transform="scale(0.015625)"/>
       <path id="DejaVuSans-68" d="M 3513 2113 
L 3513 0 
L 2938 0 
L 2938 2094 
Q 2938 2591 2744 2837 
Q 2550 3084 2163 3084 
Q 1697 3084 1428 2787 
Q 1159 2491 1159 1978 
L 1159 0 
L 581 0 
L 581 4863 
L 1159 4863 
L 1159 2956 
Q 1366 3272 1645 3428 
Q 1925 3584 2291 3584 
Q 2894 3584 3203 3211 
Q 3513 2838 3513 2113 
z
" transform="scale(0.015625)"/>
       <path id="DejaVuSans-73" d="M 2834 3397 
L 2834 2853 
Q 2591 2978 2328 3040 
Q 2066 3103 1784 3103 
Q 1356 3103 1142 2972 
Q 928 2841 928 2578 
Q 928 2378 1081 2264 
Q 1234 2150 1697 2047 
L 1894 2003 
Q 2506 1872 2764 1633 
Q 3022 1394 3022 966 
Q 3022 478 2636 193 
Q 2250 -91 1575 -91 
Q 1294 -91 989 -36 
Q 684 19 347 128 
L 347 722 
Q 666 556 975 473 
Q 1284 391 1588 391 
Q 1994 391 2212 530 
Q 2431 669 2431 922 
Q 2431 1156 2273 1281 
Q 2116 1406 1581 1522 
L 1381 1569 
Q 847 1681 609 1914 
Q 372 2147 372 2553 
Q 372 3047 722 3315 
Q 1072 3584 1716 3584 
Q 2034 3584 2315 3537 
Q 2597 3491 2834 3397 
z
" transform="scale(0.015625)"/>
       <path id="DejaVuSans-45" d="M 628 4666 
L 3578 4666 
L 3578 4134 
L 1259 4134 
L 1259 2753 
L 3481 2753 
L 3481 2222 
L 1259 2222 
L 1259 531 
L 3634 531 
L 3634 0 
L 628 0 
L 628 4666 
z
" transform="scale(0.015625)"/>
       <path id="DejaVuSans-6f" d="M 1959 3097 
Q 1497 3097 1228 2736 
Q 959 2375 959 1747 
Q 959 1119 1226 758 
Q 1494 397 1959 397 
Q 2419 397 2687 759 
Q 2956 1122 2956 1747 
Q 2956 2369 2687 2733 
Q 2419 3097 1959 3097 
z
M 1959 3584 
Q 2709 3584 3137 3096 
Q 3566 2609 3566 1747 
Q 3566 888 3137 398 
Q 2709 -91 1959 -91 
Q 1206 -91 779 398 
Q 353 888 353 1747 
Q 353 2609 779 3096 
Q 1206 3584 1959 3584 
z
" transform="scale(0.015625)"/>
       <path id="DejaVuSans-41" d="M 2188 4044 
L 1331 1722 
L 3047 1722 
L 2188 4044 
z
M 1831 4666 
L 2547 4666 
L 4325 0 
L 3669 0 
L 3244 1197 
L 1141 1197 
L 716 0 
L 50 0 
L 1831 4666 
z
" transform="scale(0.015625)"/>
       <path id="DejaVuSans-76" d="M 191 3500 
L 800 3500 
L 1894 563 
L 2988 3500 
L 3597 3500 
L 2284 0 
L 1503 0 
L 191 3500 
z
" transform="scale(0.015625)"/>
      </defs>
      <use xlink:href="#DejaVuSans-50"/>
      <use xlink:href="#DejaVuSans-68" x="60.302734"/>
      <use xlink:href="#DejaVuSans-61" x="123.681641"/>
      <use xlink:href="#DejaVuSans-73" x="184.960938"/>
      <use xlink:href="#DejaVuSans-65" x="237.060547"/>
      <use xlink:href="#DejaVuSans-20" x="298.583984"/>
      <use xlink:href="#DejaVuSans-45" x="330.371094"/>
      <use xlink:href="#DejaVuSans-72" x="393.554688"/>
      <use xlink:href="#DejaVuSans-72" x="432.917969"/>
      <use xlink:href="#DejaVuSans-6f" x="471.78125"/>
      <use xlink:href="#DejaVuSans-72" x="532.962891"/>
      <use xlink:href="#DejaVuSans-20" x="574.076172"/>
      <use xlink:href="#DejaVuSans-41" x="605.863281"/>
      <use xlink:href="#DejaVuSans-76" x="668.396484"/>
      <use xlink:href="#DejaVuSans-67" x="727.576172"/>
      <use xlink:href="#DejaVuSans-2e" x="791.052734"/>
      <use xlink:href="#DejaVuSans-20" x="822.839844"/>
      <use xlink:href="#DejaVuSans-5b" x="854.626953"/>
      <use xlink:href="#DejaVuSans-72" x="893.640625"/>
      <use xlink:href="#DejaVuSans-61" x="934.753906"/>
      <use xlink:href="#DejaVuSans-64" x="996.033203"/>
      <use xlink:href="#DejaVuSans-2f" x="1059.509766"/>
      <use xlink:href="#DejaVuSans-32" x="1093.201172"/>
      <use xlink:href="#DejaVuSans-3c0" x="1156.824219"/>
      <use xlink:href="#DejaVuSans-5d" x="1217.029297"/>
     </g>
    </g>
   </g>
   <g id="line2d_79">
    <path d="M 70.71 165.63275 
L 109.980588 165.915677 
L 136.16098 166.306376 
L 157.105294 166.838318 
L 172.813529 167.441341 
L 187.212745 168.219074 
L 198.993922 169.074404 
L 209.466078 170.052299 
L 218.629216 171.120464 
L 226.483333 172.229911 
L 234.337451 173.555012 
L 240.882549 174.853976 
L 247.427647 176.360235 
L 253.972745 178.107177 
L 259.208824 179.704107 
L 263.135882 181.033091 
L 264.444902 180.886025 
L 269.68098 178.858101 
L 274.917059 176.57058 
L 280.153137 173.987582 
L 284.080196 171.831265 
L 288.007255 169.464311 
L 291.934314 166.862694 
L 295.861373 163.998335 
L 299.788431 160.837945 
L 303.71549 157.341367 
L 307.642549 153.459151 
L 311.569608 149.128829 
L 314.187647 145.95383 
L 316.805686 142.51337 
L 319.423725 138.769106 
L 322.041765 134.671874 
L 324.659804 130.156605 
L 327.277843 125.133626 
L 329.895882 119.472642 
L 332.513922 112.969964 
L 333.822941 109.302193 
L 335.131961 105.270732 
L 336.44098 100.771285 
L 337.75 95.634116 
L 339.05902 89.545278 
L 340.368039 81.774759 
L 341.677059 69.176898 
L 342.986078 52.656244 
L 344.295098 50.449398 
L 345.604118 49.046453 
L 348.222157 47.258261 
L 352.149216 45.722404 
L 356.076275 44.734289 
L 357.385294 44.442726 
L 361.312353 43.889395 
L 362.621373 43.325197 
L 363.930392 43.609044 
L 374.402549 42.795737 
L 378.329608 42.678748 
L 379.638627 42.932742 
L 380.947647 42.316803 
L 383.565686 42.314115 
L 387.492745 41.938572 
L 388.801765 41.534909 
L 390.110784 52.589297 
L 391.419804 43.274688 
L 392.728824 42.736487 
L 396.655882 42.371855 
L 397.964902 42.444224 
L 399.273922 42.33837 
L 401.891961 42.301767 
L 403.20098 42.270078 
L 404.51 42.110114 
L 404.51 42.110114 
" clip-path="url(#p63c888dccd)" style="fill: none; stroke: #0b0000; stroke-opacity: 0.75; stroke-width: 1.5; stroke-linecap: square"/>
   </g>
   <g id="line2d_80">
    <path d="M 70.71 56.857205 
L 74.637059 56.642821 
L 77.255098 56.44397 
L 79.873137 56.548996 
L 83.800196 56.982196 
L 86.418235 57.154057 
L 89.036275 57.07434 
L 91.654314 56.791693 
L 99.508431 56.720903 
L 100.817451 56.512478 
L 102.126471 56.440201 
L 107.362549 57.181088 
L 108.671569 57.078845 
L 109.980588 56.827805 
L 111.289608 56.807921 
L 112.598627 56.913642 
L 115.216667 56.785255 
L 116.525686 56.509559 
L 117.834706 56.493104 
L 119.143725 56.862186 
L 120.452745 57.114117 
L 121.761765 57.147679 
L 123.070784 56.834156 
L 125.688824 56.922652 
L 126.997843 56.790158 
L 128.306863 56.446203 
L 130.924902 57.093618 
L 132.233922 57.125034 
L 133.542941 56.786956 
L 134.851961 56.930507 
L 136.16098 56.812414 
L 137.47 56.427483 
L 138.77902 56.896889 
L 140.088039 57.191284 
L 141.397059 56.806138 
L 142.706078 56.935623 
L 145.324118 56.536322 
L 146.633137 57.131435 
L 147.942157 56.89258 
L 149.251176 56.94019 
L 150.560196 56.695539 
L 151.869216 56.750376 
L 153.178235 57.20204 
L 154.487255 56.836145 
L 155.796275 56.837431 
L 157.105294 56.613352 
L 158.414314 57.211167 
L 161.032353 56.702915 
L 162.341373 56.95807 
L 166.268431 56.670735 
L 167.577451 57.083889 
L 170.19549 56.705782 
L 171.50451 56.936977 
L 172.813529 56.855591 
L 174.122549 57.054378 
L 175.431569 56.913219 
L 176.740588 56.410887 
L 178.049608 57.066708 
L 179.358627 56.791035 
L 180.667647 57.255506 
L 181.976667 56.945435 
L 183.285686 57.169439 
L 184.594706 56.975527 
L 185.903725 57.187642 
L 187.212745 56.94281 
L 188.521765 57.293393 
L 189.830784 56.701157 
L 191.139804 56.900902 
L 192.448824 56.684702 
L 195.066863 57.312973 
L 196.375882 56.447867 
L 197.684902 57.029894 
L 200.302941 57.115127 
L 201.611961 56.399285 
L 202.92098 57.003181 
L 204.23 57.055349 
L 205.53902 56.934873 
L 206.848039 57.351285 
L 209.466078 57.417422 
L 210.775098 57.453613 
L 212.084118 57.374537 
L 213.393137 56.957375 
L 214.702157 57.181715 
L 216.011176 56.677309 
L 217.320196 57.281526 
L 218.629216 57.151875 
L 219.938235 56.36134 
L 221.247255 57.089507 
L 222.556275 57.220816 
L 223.865294 56.878861 
L 225.174314 57.293277 
L 226.483333 57.181191 
L 227.792353 57.304112 
L 229.101373 57.581624 
L 230.410392 57.579911 
L 231.719412 57.894235 
L 233.028431 58.496777 
L 234.337451 75.90714 
L 235.646471 84.681356 
L 236.95549 91.437552 
L 238.26451 97.251266 
L 240.882549 107.393307 
L 243.500588 116.466161 
L 247.427647 129.122823 
L 259.208824 166.198784 
L 263.135882 179.579221 
L 264.444902 178.10788 
L 267.062941 168.214387 
L 269.68098 157.471173 
L 272.29902 145.526229 
L 274.917059 131.757567 
L 276.226078 123.825496 
L 277.535098 114.806447 
L 278.844118 104.057116 
L 280.153137 89.850259 
L 281.462157 58.11652 
L 282.771176 57.439568 
L 284.080196 57.129847 
L 285.389216 57.030437 
L 286.698235 56.374852 
L 288.007255 56.914262 
L 289.316275 57.066776 
L 290.625294 56.869546 
L 291.934314 57.084672 
L 293.243333 56.883126 
L 294.552353 56.469083 
L 295.861373 57.047542 
L 298.479412 56.74092 
L 299.788431 56.733781 
L 301.097451 56.952614 
L 302.406471 56.682446 
L 303.71549 56.794334 
L 305.02451 56.695623 
L 306.333529 56.901017 
L 307.642549 56.74926 
L 308.951569 56.873047 
L 310.260588 56.677275 
L 311.569608 56.747081 
L 312.878627 56.572446 
L 316.805686 56.734596 
L 318.114706 56.6304 
L 319.423725 56.853148 
L 322.041765 56.685433 
L 323.350784 56.834426 
L 329.895882 56.662811 
L 333.822941 56.706699 
L 336.44098 56.793734 
L 337.75 56.684471 
L 344.295098 56.70234 
L 348.222157 56.674037 
L 352.149216 56.7172 
L 354.767255 56.70214 
L 365.239412 56.710353 
L 369.166471 56.660314 
L 370.47549 56.739319 
L 374.402549 56.71471 
L 378.329608 56.691492 
L 379.638627 56.872327 
L 380.947647 56.6941 
L 384.874706 56.733716 
L 387.492745 56.69424 
L 391.419804 56.750177 
L 395.346863 56.703298 
L 397.964902 56.739082 
L 403.20098 56.706588 
L 404.51 56.714521 
L 404.51 56.714521 
" clip-path="url(#p63c888dccd)" style="fill: none; stroke: #b30000; stroke-opacity: 0.75; stroke-width: 1.5; stroke-linecap: square"/>
   </g>
   <g id="line2d_81">
    <path d="M 70.71 58.090059 
L 78.564118 57.788837 
L 81.182157 57.94319 
L 86.418235 58.443625 
L 89.036275 58.423359 
L 94.272353 58.054543 
L 100.817451 58.106421 
L 104.74451 57.772571 
L 106.053529 57.863481 
L 108.671569 58.356603 
L 109.980588 58.464238 
L 111.289608 58.411008 
L 113.907647 58.072976 
L 116.525686 58.159257 
L 117.834706 58.167946 
L 121.761765 57.799218 
L 124.379804 58.421571 
L 125.688824 58.438802 
L 126.997843 58.173656 
L 128.306863 58.049607 
L 130.924902 58.147934 
L 132.233922 57.884204 
L 133.542941 57.785144 
L 134.851961 58.193103 
L 136.16098 58.473435 
L 138.77902 58.04957 
L 140.088039 58.179556 
L 142.706078 57.761311 
L 144.015098 58.231264 
L 145.324118 58.460475 
L 146.633137 58.086977 
L 147.942157 58.153671 
L 149.251176 58.047621 
L 150.560196 57.772957 
L 151.869216 58.392577 
L 155.796275 58.105178 
L 157.105294 57.767957 
L 158.414314 58.458429 
L 159.723333 58.121256 
L 161.032353 58.182413 
L 162.341373 57.783059 
L 163.650392 58.324175 
L 164.959412 58.180834 
L 166.268431 58.182963 
L 167.577451 57.742276 
L 168.886471 58.474153 
L 170.19549 58.047418 
L 175.431569 58.163163 
L 176.740588 57.959661 
L 178.049608 58.171806 
L 179.358627 58.128009 
L 180.667647 58.239038 
L 183.285686 57.79582 
L 184.594706 58.505123 
L 185.903725 58.190198 
L 187.212745 58.1991 
L 188.521765 58.053781 
L 189.830784 57.744076 
L 191.139804 58.07405 
L 192.448824 57.699947 
L 193.757843 58.130511 
L 195.066863 57.696202 
L 196.375882 58.082543 
L 197.684902 57.711109 
L 198.993922 58.043212 
L 200.302941 58.190252 
L 201.611961 58.195371 
L 202.92098 58.513989 
L 204.23 57.671683 
L 206.848039 58.572214 
L 208.157059 57.677129 
L 209.466078 58.15342 
L 210.775098 58.438631 
L 212.084118 58.030958 
L 213.393137 57.837486 
L 214.702157 58.194837 
L 216.011176 58.062055 
L 217.320196 58.575669 
L 218.629216 58.4869 
L 219.938235 57.882468 
L 221.247255 57.590022 
L 226.483333 57.519597 
L 227.792353 57.641081 
L 229.101373 58.289895 
L 230.410392 58.746276 
L 231.719412 58.132171 
L 233.028431 58.216023 
L 234.337451 57.594243 
L 235.646471 58.557996 
L 236.95549 58.004897 
L 238.26451 57.770577 
L 239.573529 58.902031 
L 240.882549 58.275017 
L 242.191569 58.786709 
L 243.500588 58.253452 
L 244.809608 58.960246 
L 246.118627 57.066316 
L 247.427647 58.28147 
L 250.045686 58.974374 
L 251.354706 57.085465 
L 252.663725 56.50782 
L 253.972745 56.308076 
L 255.281765 56.420237 
L 256.590784 59.565149 
L 257.899804 57.908132 
L 259.208824 54.674901 
L 260.517843 58.191225 
L 263.135882 164.924821 
L 264.444902 149.473594 
L 265.753922 57.832288 
L 267.062941 59.57772 
L 268.371961 55.959352 
L 269.68098 56.681056 
L 270.99 57.130751 
L 272.29902 56.835847 
L 273.608039 56.829404 
L 274.917059 58.217728 
L 276.226078 57.957827 
L 277.535098 58.457532 
L 278.844118 58.26973 
L 280.153137 58.473102 
L 281.462157 57.999858 
L 282.771176 58.178078 
L 284.080196 57.712371 
L 285.389216 57.682485 
L 286.698235 58.067197 
L 288.007255 58.063796 
L 289.316275 58.511901 
L 290.625294 58.16683 
L 291.934314 58.175954 
L 293.243333 58.300659 
L 294.552353 58.088226 
L 295.861373 58.161768 
L 297.170392 58.387354 
L 298.479412 57.975359 
L 299.788431 58.315961 
L 301.097451 58.148 
L 305.02451 58.074267 
L 306.333529 58.157352 
L 307.642549 58.079068 
L 310.260588 58.147153 
L 312.878627 58.018417 
L 314.187647 58.170446 
L 315.496667 58.1087 
L 316.805686 58.223728 
L 318.114706 57.984211 
L 319.423725 58.235787 
L 320.732745 58.140921 
L 322.041765 58.240582 
L 324.659804 58.052242 
L 325.968824 58.03087 
L 327.277843 58.131981 
L 329.895882 58.065261 
L 332.513922 58.109376 
L 378.329608 58.126392 
L 384.874706 58.123144 
L 403.20098 58.102288 
L 404.51 57.929472 
L 404.51 57.929472 
" clip-path="url(#p63c888dccd)" style="fill: none; stroke: #ff5c00; stroke-opacity: 0.75; stroke-width: 1.5; stroke-linecap: square"/>
   </g>
   <g id="line2d_82">
    <path d="M 70.71 58.318321 
L 74.637059 58.236725 
L 81.182157 57.919915 
L 83.800196 58.029019 
L 90.345294 58.606767 
L 91.654314 58.592597 
L 95.581373 58.233257 
L 98.199412 58.205838 
L 100.817451 58.317891 
L 103.43549 58.203166 
L 106.053529 57.922851 
L 107.362549 57.947901 
L 108.671569 58.120872 
L 109.980588 58.41872 
L 111.289608 58.589728 
L 112.598627 58.587315 
L 115.216667 58.234671 
L 116.525686 58.192388 
L 119.143725 58.314752 
L 120.452745 58.194639 
L 121.761765 57.95747 
L 123.070784 57.939776 
L 125.688824 58.571123 
L 126.997843 58.571192 
L 128.306863 58.295054 
L 129.615882 58.190256 
L 130.924902 58.303825 
L 132.233922 58.264003 
L 133.542941 57.969968 
L 134.851961 57.971808 
L 136.16098 58.447876 
L 137.47 58.606376 
L 138.77902 58.281742 
L 140.088039 58.207915 
L 141.397059 58.314424 
L 142.706078 58.018572 
L 144.015098 57.98434 
L 145.324118 58.553861 
L 146.633137 58.463103 
L 147.942157 58.187756 
L 149.251176 58.320091 
L 150.560196 57.972071 
L 151.869216 58.13184 
L 153.178235 58.626578 
L 154.487255 58.216247 
L 155.796275 58.321726 
L 157.105294 57.970309 
L 159.723333 58.542858 
L 161.032353 58.200381 
L 162.341373 58.20488 
L 163.650392 58.026446 
L 164.959412 58.606091 
L 166.268431 58.19948 
L 167.577451 58.127148 
L 170.19549 58.357577 
L 171.50451 58.325145 
L 172.813529 57.898701 
L 174.122549 58.60851 
L 176.740588 57.870163 
L 178.049608 58.620601 
L 180.667647 57.92971 
L 181.976667 58.372544 
L 183.285686 58.25072 
L 184.594706 58.543891 
L 187.212745 57.895168 
L 188.521765 58.259592 
L 189.830784 57.938131 
L 191.139804 58.526167 
L 192.448824 58.140783 
L 193.757843 58.627552 
L 195.066863 58.156255 
L 196.375882 58.570584 
L 197.684902 57.966333 
L 198.993922 58.293354 
L 200.302941 57.84572 
L 202.92098 58.60113 
L 204.23 58.187356 
L 206.848039 58.252336 
L 209.466078 58.18603 
L 210.775098 58.693755 
L 212.084118 57.774331 
L 213.393137 58.336991 
L 214.702157 58.165045 
L 216.011176 58.673821 
L 217.320196 58.57081 
L 218.629216 57.846503 
L 219.938235 57.767353 
L 221.247255 58.064908 
L 222.556275 58.246544 
L 225.174314 58.299299 
L 226.483333 58.213554 
L 229.101373 57.643138 
L 230.410392 58.077563 
L 231.719412 58.912516 
L 233.028431 58.233316 
L 234.337451 58.38331 
L 235.646471 57.543183 
L 236.95549 58.992794 
L 239.573529 57.608408 
L 240.882549 58.199181 
L 242.191569 57.401278 
L 243.500588 58.176699 
L 244.809608 57.550334 
L 247.427647 59.154795 
L 248.736667 57.450214 
L 250.045686 57.999273 
L 251.354706 58.410618 
L 252.663725 57.975722 
L 253.972745 58.160683 
L 255.281765 58.174961 
L 256.590784 57.850465 
L 257.899804 58.508876 
L 259.208824 57.545746 
L 260.517843 55.724366 
L 261.826863 61.158821 
L 264.444902 42.957596 
L 265.753922 57.592718 
L 267.062941 56.273723 
L 268.371961 59.866614 
L 269.68098 59.048277 
L 270.99 57.919107 
L 272.29902 58.111062 
L 273.608039 58.03307 
L 274.917059 58.371241 
L 276.226078 59.123599 
L 277.535098 57.589435 
L 278.844118 58.188286 
L 280.153137 57.536607 
L 281.462157 58.847524 
L 282.771176 58.175695 
L 284.080196 58.349895 
L 289.316275 58.218065 
L 290.625294 58.280175 
L 291.934314 57.944925 
L 293.243333 58.610521 
L 294.552353 58.411733 
L 295.861373 58.507512 
L 298.479412 58.250697 
L 299.788431 58.525328 
L 301.097451 58.224954 
L 303.71549 58.296876 
L 306.333529 58.159035 
L 308.951569 58.268932 
L 311.569608 58.265855 
L 312.878627 58.110825 
L 314.187647 58.369359 
L 315.496667 58.253824 
L 316.805686 58.395935 
L 318.114706 58.138737 
L 319.423725 58.39299 
L 320.732745 58.31325 
L 322.041765 58.367479 
L 325.968824 58.160175 
L 327.277843 58.269656 
L 328.586863 58.172865 
L 340.368039 58.293712 
L 341.677059 58.201593 
L 342.986078 58.321007 
L 344.295098 58.19943 
L 345.604118 58.323995 
L 346.913137 58.235765 
L 349.531176 58.311433 
L 350.840196 58.247158 
L 352.149216 58.316244 
L 354.767255 58.256336 
L 358.694314 58.272148 
L 363.930392 58.234612 
L 370.47549 58.279674 
L 378.329608 58.266858 
L 383.565686 58.279866 
L 392.728824 58.24782 
L 396.655882 58.268514 
L 403.20098 58.243299 
L 404.51 58.058352 
L 404.51 58.058352 
" clip-path="url(#p63c888dccd)" style="fill: none; stroke: #ffff07; stroke-opacity: 0.75; stroke-width: 1.5; stroke-linecap: square"/>
   </g>
   <g id="line2d_83">
    <path d="M 263.590073 188.008 
L 263.590073 34.56 
" clip-path="url(#p63c888dccd)" style="fill: none; stroke-dasharray: 3.7,1.6; stroke-dashoffset: 0; stroke: #000000; stroke-opacity: 0.75"/>
   </g>
   <g id="patch_3">
    <path d="M 54.02 188.008 
L 54.02 34.56 
" style="fill: none; stroke: #000000; stroke-width: 0.8; stroke-linejoin: miter; stroke-linecap: square"/>
   </g>
   <g id="patch_4">
    <path d="M 421.2 188.008 
L 421.2 34.56 
" style="fill: none; stroke: #000000; stroke-width: 0.8; stroke-linejoin: miter; stroke-linecap: square"/>
   </g>
   <g id="patch_5">
    <path d="M 54.02 188.008 
L 421.2 188.008 
" style="fill: none; stroke: #000000; stroke-width: 0.8; stroke-linejoin: miter; stroke-linecap: square"/>
   </g>
   <g id="patch_6">
    <path d="M 54.02 34.56 
L 421.2 34.56 
" style="fill: none; stroke: #000000; stroke-width: 0.8; stroke-linejoin: miter; stroke-linecap: square"/>
   </g>
   <g id="legend_1">
    <g id="patch_7">
     <path d="M 61.02 149.479313 
L 142.948125 149.479313 
Q 144.948125 149.479313 144.948125 147.479313 
L 144.948125 75.088688 
Q 144.948125 73.088688 142.948125 73.088688 
L 61.02 73.088688 
Q 59.02 73.088688 59.02 75.088688 
L 59.02 147.479313 
Q 59.02 149.479313 61.02 149.479313 
z
" style="fill: #ffffff; opacity: 0.8; stroke: #cccccc; stroke-linejoin: miter"/>
    </g>
    <g id="line2d_84">
     <path d="M 63.02 81.187125 
L 73.02 81.187125 
L 83.02 81.187125 
" style="fill: none; stroke: #0b0000; stroke-opacity: 0.75; stroke-width: 1.5; stroke-linecap: square"/>
    </g>
    <g id="text_12">
     <!-- K=0.1 -->
     <g transform="translate(91.02 84.687125) scale(0.1 -0.1)">
      <defs>
       <path id="DejaVuSans-4b" d="M 628 4666 
L 1259 4666 
L 1259 2694 
L 3353 4666 
L 4166 4666 
L 1850 2491 
L 4331 0 
L 3500 0 
L 1259 2247 
L 1259 0 
L 628 0 
L 628 4666 
z
" transform="scale(0.015625)"/>
       <path id="DejaVuSans-3d" d="M 678 2906 
L 4684 2906 
L 4684 2381 
L 678 2381 
L 678 2906 
z
M 678 1631 
L 4684 1631 
L 4684 1100 
L 678 1100 
L 678 1631 
z
" transform="scale(0.015625)"/>
      </defs>
      <use xlink:href="#DejaVuSans-4b"/>
      <use xlink:href="#DejaVuSans-3d" x="65.576172"/>
      <use xlink:href="#DejaVuSans-30" x="149.365234"/>
      <use xlink:href="#DejaVuSans-2e" x="212.988281"/>
      <use xlink:href="#DejaVuSans-31" x="244.775391"/>
     </g>
    </g>
    <g id="line2d_85">
     <path d="M 63.02 95.86525 
L 73.02 95.86525 
L 83.02 95.86525 
" style="fill: none; stroke: #b30000; stroke-opacity: 0.75; stroke-width: 1.5; stroke-linecap: square"/>
    </g>
    <g id="text_13">
     <!-- K=0.01 -->
     <g transform="translate(91.02 99.36525) scale(0.1 -0.1)">
      <use xlink:href="#DejaVuSans-4b"/>
      <use xlink:href="#DejaVuSans-3d" x="65.576172"/>
      <use xlink:href="#DejaVuSans-30" x="149.365234"/>
      <use xlink:href="#DejaVuSans-2e" x="212.988281"/>
      <use xlink:href="#DejaVuSans-30" x="244.775391"/>
      <use xlink:href="#DejaVuSans-31" x="308.398438"/>
     </g>
    </g>
    <g id="line2d_86">
     <path d="M 63.02 110.543375 
L 73.02 110.543375 
L 83.02 110.543375 
" style="fill: none; stroke: #ff5c00; stroke-opacity: 0.75; stroke-width: 1.5; stroke-linecap: square"/>
    </g>
    <g id="text_14">
     <!-- K=0.001 -->
     <g transform="translate(91.02 114.043375) scale(0.1 -0.1)">
      <use xlink:href="#DejaVuSans-4b"/>
      <use xlink:href="#DejaVuSans-3d" x="65.576172"/>
      <use xlink:href="#DejaVuSans-30" x="149.365234"/>
      <use xlink:href="#DejaVuSans-2e" x="212.988281"/>
      <use xlink:href="#DejaVuSans-30" x="244.775391"/>
      <use xlink:href="#DejaVuSans-30" x="308.398438"/>
      <use xlink:href="#DejaVuSans-31" x="372.021484"/>
     </g>
    </g>
    <g id="line2d_87">
     <path d="M 63.02 125.2215 
L 73.02 125.2215 
L 83.02 125.2215 
" style="fill: none; stroke: #ffff07; stroke-opacity: 0.75; stroke-width: 1.5; stroke-linecap: square"/>
    </g>
    <g id="text_15">
     <!-- K=0.0001 -->
     <g transform="translate(91.02 128.7215) scale(0.1 -0.1)">
      <use xlink:href="#DejaVuSans-4b"/>
      <use xlink:href="#DejaVuSans-3d" x="65.576172"/>
      <use xlink:href="#DejaVuSans-30" x="149.365234"/>
      <use xlink:href="#DejaVuSans-2e" x="212.988281"/>
      <use xlink:href="#DejaVuSans-30" x="244.775391"/>
      <use xlink:href="#DejaVuSans-30" x="308.398438"/>
      <use xlink:href="#DejaVuSans-30" x="372.021484"/>
      <use xlink:href="#DejaVuSans-31" x="435.644531"/>
     </g>
    </g>
    <g id="line2d_88">
     <path d="M 63.02 139.899625 
L 73.02 139.899625 
L 83.02 139.899625 
" style="fill: none; stroke-dasharray: 3.7,1.6; stroke-dashoffset: 0; stroke: #000000; stroke-opacity: 0.75"/>
    </g>
    <g id="text_16">
     <!-- ω -->
     <g transform="translate(91.02 143.399625) scale(0.1 -0.1)">
      <defs>
       <path id="DejaVuSans-3c9" d="M 1719 -91 
Q 422 -91 422 1766 
Q 422 2500 906 3500 
L 1525 3500 
Q 1078 2500 1078 1750 
Q 1078 397 1772 397 
Q 2406 397 2406 2078 
L 2938 2078 
Q 2938 397 3572 397 
Q 4266 397 4266 1750 
Q 4266 2500 3819 3500 
L 4438 3500 
Q 4922 2500 4922 1766 
Q 4922 -91 3625 -91 
Q 2775 -91 2672 844 
Q 2544 -91 1719 -91 
z
" transform="scale(0.015625)"/>
      </defs>
      <use xlink:href="#DejaVuSans-3c9"/>
     </g>
    </g>
   </g>
  </g>
  <g id="axes_2">
   <g id="patch_8">
    <path d="M 54.02 386.728 
L 421.2 386.728 
L 421.2 233.28 
L 54.02 233.28 
z
" style="fill: #ffffff"/>
   </g>
   <g id="matplotlib.axis_3">
    <g id="xtick_34">
     <g id="line2d_89">
      <path d="M 132.439201 386.728 
L 132.439201 233.28 
" clip-path="url(#p2e088a73ab)" style="fill: none; stroke: #f0f0f0; stroke-width: 0.8; stroke-linecap: square"/>
     </g>
     <g id="line2d_90">
      <g>
       <use xlink:href="#m03be9a371d" x="132.439201" y="386.728" style="stroke: #000000; stroke-width: 0.8"/>
      </g>
     </g>
     <g id="text_17">
      <!-- $\mathdefault{10^{-3}}$ -->
      <g transform="translate(120.689201 401.326437) scale(0.1 -0.1)">
       <use xlink:href="#DejaVuSans-31" transform="translate(0 0.765625)"/>
       <use xlink:href="#DejaVuSans-30" transform="translate(63.623047 0.765625)"/>
       <use xlink:href="#DejaVuSans-2212" transform="translate(128.203125 39.046875) scale(0.7)"/>
       <use xlink:href="#DejaVuSans-33" transform="translate(186.855469 39.046875) scale(0.7)"/>
      </g>
     </g>
    </g>
    <g id="xtick_35">
     <g id="line2d_91">
      <path d="M 233.244619 386.728 
L 233.244619 233.28 
" clip-path="url(#p2e088a73ab)" style="fill: none; stroke: #f0f0f0; stroke-width: 0.8; stroke-linecap: square"/>
     </g>
     <g id="line2d_92">
      <g>
       <use xlink:href="#m03be9a371d" x="233.244619" y="386.728" style="stroke: #000000; stroke-width: 0.8"/>
      </g>
     </g>
     <g id="text_18">
      <!-- $\mathdefault{10^{-2}}$ -->
      <g transform="translate(221.494619 401.326437) scale(0.1 -0.1)">
       <use xlink:href="#DejaVuSans-31" transform="translate(0 0.765625)"/>
       <use xlink:href="#DejaVuSans-30" transform="translate(63.623047 0.765625)"/>
       <use xlink:href="#DejaVuSans-2212" transform="translate(128.203125 39.046875) scale(0.7)"/>
       <use xlink:href="#DejaVuSans-32" transform="translate(186.855469 39.046875) scale(0.7)"/>
      </g>
     </g>
    </g>
    <g id="xtick_36">
     <g id="line2d_93">
      <path d="M 334.050037 386.728 
L 334.050037 233.28 
" clip-path="url(#p2e088a73ab)" style="fill: none; stroke: #f0f0f0; stroke-width: 0.8; stroke-linecap: square"/>
     </g>
     <g id="line2d_94">
      <g>
       <use xlink:href="#m03be9a371d" x="334.050037" y="386.728" style="stroke: #000000; stroke-width: 0.8"/>
      </g>
     </g>
     <g id="text_19">
      <!-- $\mathdefault{10^{-1}}$ -->
      <g transform="translate(322.300037 401.326437) scale(0.1 -0.1)">
       <use xlink:href="#DejaVuSans-31" transform="translate(0 0.684375)"/>
       <use xlink:href="#DejaVuSans-30" transform="translate(63.623047 0.684375)"/>
       <use xlink:href="#DejaVuSans-2212" transform="translate(128.203125 38.965625) scale(0.7)"/>
       <use xlink:href="#DejaVuSans-31" transform="translate(186.855469 38.965625) scale(0.7)"/>
      </g>
     </g>
    </g>
    <g id="xtick_37">
     <g id="line2d_95">
      <path d="M 61.979237 386.728 
L 61.979237 233.28 
" clip-path="url(#p2e088a73ab)" style="fill: none; stroke: #f0f0f0; stroke-width: 0.8; stroke-linecap: square"/>
     </g>
     <g id="line2d_96">
      <g>
       <use xlink:href="#m2b05c53382" x="61.979237" y="386.728" style="stroke: #000000; stroke-width: 0.6"/>
      </g>
     </g>
    </g>
    <g id="xtick_38">
     <g id="line2d_97">
      <path d="M 79.73019 386.728 
L 79.73019 233.28 
" clip-path="url(#p2e088a73ab)" style="fill: none; stroke: #f0f0f0; stroke-width: 0.8; stroke-linecap: square"/>
     </g>
     <g id="line2d_98">
      <g>
       <use xlink:href="#m2b05c53382" x="79.73019" y="386.728" style="stroke: #000000; stroke-width: 0.6"/>
      </g>
     </g>
    </g>
    <g id="xtick_39">
     <g id="line2d_99">
      <path d="M 92.324692 386.728 
L 92.324692 233.28 
" clip-path="url(#p2e088a73ab)" style="fill: none; stroke: #f0f0f0; stroke-width: 0.8; stroke-linecap: square"/>
     </g>
     <g id="line2d_100">
      <g>
       <use xlink:href="#m2b05c53382" x="92.324692" y="386.728" style="stroke: #000000; stroke-width: 0.6"/>
      </g>
     </g>
    </g>
    <g id="xtick_40">
     <g id="line2d_101">
      <path d="M 102.093746 386.728 
L 102.093746 233.28 
" clip-path="url(#p2e088a73ab)" style="fill: none; stroke: #f0f0f0; stroke-width: 0.8; stroke-linecap: square"/>
     </g>
     <g id="line2d_102">
      <g>
       <use xlink:href="#m2b05c53382" x="102.093746" y="386.728" style="stroke: #000000; stroke-width: 0.6"/>
      </g>
     </g>
    </g>
    <g id="xtick_41">
     <g id="line2d_103">
      <path d="M 110.075645 386.728 
L 110.075645 233.28 
" clip-path="url(#p2e088a73ab)" style="fill: none; stroke: #f0f0f0; stroke-width: 0.8; stroke-linecap: square"/>
     </g>
     <g id="line2d_104">
      <g>
       <use xlink:href="#m2b05c53382" x="110.075645" y="386.728" style="stroke: #000000; stroke-width: 0.6"/>
      </g>
     </g>
    </g>
    <g id="xtick_42">
     <g id="line2d_105">
      <path d="M 116.824244 386.728 
L 116.824244 233.28 
" clip-path="url(#p2e088a73ab)" style="fill: none; stroke: #f0f0f0; stroke-width: 0.8; stroke-linecap: square"/>
     </g>
     <g id="line2d_106">
      <g>
       <use xlink:href="#m2b05c53382" x="116.824244" y="386.728" style="stroke: #000000; stroke-width: 0.6"/>
      </g>
     </g>
    </g>
    <g id="xtick_43">
     <g id="line2d_107">
      <path d="M 122.670146 386.728 
L 122.670146 233.28 
" clip-path="url(#p2e088a73ab)" style="fill: none; stroke: #f0f0f0; stroke-width: 0.8; stroke-linecap: square"/>
     </g>
     <g id="line2d_108">
      <g>
       <use xlink:href="#m2b05c53382" x="122.670146" y="386.728" style="stroke: #000000; stroke-width: 0.6"/>
      </g>
     </g>
    </g>
    <g id="xtick_44">
     <g id="line2d_109">
      <path d="M 127.826598 386.728 
L 127.826598 233.28 
" clip-path="url(#p2e088a73ab)" style="fill: none; stroke: #f0f0f0; stroke-width: 0.8; stroke-linecap: square"/>
     </g>
     <g id="line2d_110">
      <g>
       <use xlink:href="#m2b05c53382" x="127.826598" y="386.728" style="stroke: #000000; stroke-width: 0.6"/>
      </g>
     </g>
    </g>
    <g id="xtick_45">
     <g id="line2d_111">
      <path d="M 162.784655 386.728 
L 162.784655 233.28 
" clip-path="url(#p2e088a73ab)" style="fill: none; stroke: #f0f0f0; stroke-width: 0.8; stroke-linecap: square"/>
     </g>
     <g id="line2d_112">
      <g>
       <use xlink:href="#m2b05c53382" x="162.784655" y="386.728" style="stroke: #000000; stroke-width: 0.6"/>
      </g>
     </g>
    </g>
    <g id="xtick_46">
     <g id="line2d_113">
      <path d="M 180.535608 386.728 
L 180.535608 233.28 
" clip-path="url(#p2e088a73ab)" style="fill: none; stroke: #f0f0f0; stroke-width: 0.8; stroke-linecap: square"/>
     </g>
     <g id="line2d_114">
      <g>
       <use xlink:href="#m2b05c53382" x="180.535608" y="386.728" style="stroke: #000000; stroke-width: 0.6"/>
      </g>
     </g>
    </g>
    <g id="xtick_47">
     <g id="line2d_115">
      <path d="M 193.13011 386.728 
L 193.13011 233.28 
" clip-path="url(#p2e088a73ab)" style="fill: none; stroke: #f0f0f0; stroke-width: 0.8; stroke-linecap: square"/>
     </g>
     <g id="line2d_116">
      <g>
       <use xlink:href="#m2b05c53382" x="193.13011" y="386.728" style="stroke: #000000; stroke-width: 0.6"/>
      </g>
     </g>
    </g>
    <g id="xtick_48">
     <g id="line2d_117">
      <path d="M 202.899164 386.728 
L 202.899164 233.28 
" clip-path="url(#p2e088a73ab)" style="fill: none; stroke: #f0f0f0; stroke-width: 0.8; stroke-linecap: square"/>
     </g>
     <g id="line2d_118">
      <g>
       <use xlink:href="#m2b05c53382" x="202.899164" y="386.728" style="stroke: #000000; stroke-width: 0.6"/>
      </g>
     </g>
    </g>
    <g id="xtick_49">
     <g id="line2d_119">
      <path d="M 210.881063 386.728 
L 210.881063 233.28 
" clip-path="url(#p2e088a73ab)" style="fill: none; stroke: #f0f0f0; stroke-width: 0.8; stroke-linecap: square"/>
     </g>
     <g id="line2d_120">
      <g>
       <use xlink:href="#m2b05c53382" x="210.881063" y="386.728" style="stroke: #000000; stroke-width: 0.6"/>
      </g>
     </g>
    </g>
    <g id="xtick_50">
     <g id="line2d_121">
      <path d="M 217.629662 386.728 
L 217.629662 233.28 
" clip-path="url(#p2e088a73ab)" style="fill: none; stroke: #f0f0f0; stroke-width: 0.8; stroke-linecap: square"/>
     </g>
     <g id="line2d_122">
      <g>
       <use xlink:href="#m2b05c53382" x="217.629662" y="386.728" style="stroke: #000000; stroke-width: 0.6"/>
      </g>
     </g>
    </g>
    <g id="xtick_51">
     <g id="line2d_123">
      <path d="M 223.475564 386.728 
L 223.475564 233.28 
" clip-path="url(#p2e088a73ab)" style="fill: none; stroke: #f0f0f0; stroke-width: 0.8; stroke-linecap: square"/>
     </g>
     <g id="line2d_124">
      <g>
       <use xlink:href="#m2b05c53382" x="223.475564" y="386.728" style="stroke: #000000; stroke-width: 0.6"/>
      </g>
     </g>
    </g>
    <g id="xtick_52">
     <g id="line2d_125">
      <path d="M 228.632016 386.728 
L 228.632016 233.28 
" clip-path="url(#p2e088a73ab)" style="fill: none; stroke: #f0f0f0; stroke-width: 0.8; stroke-linecap: square"/>
     </g>
     <g id="line2d_126">
      <g>
       <use xlink:href="#m2b05c53382" x="228.632016" y="386.728" style="stroke: #000000; stroke-width: 0.6"/>
      </g>
     </g>
    </g>
    <g id="xtick_53">
     <g id="line2d_127">
      <path d="M 263.590073 386.728 
L 263.590073 233.28 
" clip-path="url(#p2e088a73ab)" style="fill: none; stroke: #f0f0f0; stroke-width: 0.8; stroke-linecap: square"/>
     </g>
     <g id="line2d_128">
      <g>
       <use xlink:href="#m2b05c53382" x="263.590073" y="386.728" style="stroke: #000000; stroke-width: 0.6"/>
      </g>
     </g>
    </g>
    <g id="xtick_54">
     <g id="line2d_129">
      <path d="M 281.341026 386.728 
L 281.341026 233.28 
" clip-path="url(#p2e088a73ab)" style="fill: none; stroke: #f0f0f0; stroke-width: 0.8; stroke-linecap: square"/>
     </g>
     <g id="line2d_130">
      <g>
       <use xlink:href="#m2b05c53382" x="281.341026" y="386.728" style="stroke: #000000; stroke-width: 0.6"/>
      </g>
     </g>
    </g>
    <g id="xtick_55">
     <g id="line2d_131">
      <path d="M 293.935528 386.728 
L 293.935528 233.28 
" clip-path="url(#p2e088a73ab)" style="fill: none; stroke: #f0f0f0; stroke-width: 0.8; stroke-linecap: square"/>
     </g>
     <g id="line2d_132">
      <g>
       <use xlink:href="#m2b05c53382" x="293.935528" y="386.728" style="stroke: #000000; stroke-width: 0.6"/>
      </g>
     </g>
    </g>
    <g id="xtick_56">
     <g id="line2d_133">
      <path d="M 303.704582 386.728 
L 303.704582 233.28 
" clip-path="url(#p2e088a73ab)" style="fill: none; stroke: #f0f0f0; stroke-width: 0.8; stroke-linecap: square"/>
     </g>
     <g id="line2d_134">
      <g>
       <use xlink:href="#m2b05c53382" x="303.704582" y="386.728" style="stroke: #000000; stroke-width: 0.6"/>
      </g>
     </g>
    </g>
    <g id="xtick_57">
     <g id="line2d_135">
      <path d="M 311.686481 386.728 
L 311.686481 233.28 
" clip-path="url(#p2e088a73ab)" style="fill: none; stroke: #f0f0f0; stroke-width: 0.8; stroke-linecap: square"/>
     </g>
     <g id="line2d_136">
      <g>
       <use xlink:href="#m2b05c53382" x="311.686481" y="386.728" style="stroke: #000000; stroke-width: 0.6"/>
      </g>
     </g>
    </g>
    <g id="xtick_58">
     <g id="line2d_137">
      <path d="M 318.43508 386.728 
L 318.43508 233.28 
" clip-path="url(#p2e088a73ab)" style="fill: none; stroke: #f0f0f0; stroke-width: 0.8; stroke-linecap: square"/>
     </g>
     <g id="line2d_138">
      <g>
       <use xlink:href="#m2b05c53382" x="318.43508" y="386.728" style="stroke: #000000; stroke-width: 0.6"/>
      </g>
     </g>
    </g>
    <g id="xtick_59">
     <g id="line2d_139">
      <path d="M 324.280982 386.728 
L 324.280982 233.28 
" clip-path="url(#p2e088a73ab)" style="fill: none; stroke: #f0f0f0; stroke-width: 0.8; stroke-linecap: square"/>
     </g>
     <g id="line2d_140">
      <g>
       <use xlink:href="#m2b05c53382" x="324.280982" y="386.728" style="stroke: #000000; stroke-width: 0.6"/>
      </g>
     </g>
    </g>
    <g id="xtick_60">
     <g id="line2d_141">
      <path d="M 329.437434 386.728 
L 329.437434 233.28 
" clip-path="url(#p2e088a73ab)" style="fill: none; stroke: #f0f0f0; stroke-width: 0.8; stroke-linecap: square"/>
     </g>
     <g id="line2d_142">
      <g>
       <use xlink:href="#m2b05c53382" x="329.437434" y="386.728" style="stroke: #000000; stroke-width: 0.6"/>
      </g>
     </g>
    </g>
    <g id="xtick_61">
     <g id="line2d_143">
      <path d="M 364.395491 386.728 
L 364.395491 233.28 
" clip-path="url(#p2e088a73ab)" style="fill: none; stroke: #f0f0f0; stroke-width: 0.8; stroke-linecap: square"/>
     </g>
     <g id="line2d_144">
      <g>
       <use xlink:href="#m2b05c53382" x="364.395491" y="386.728" style="stroke: #000000; stroke-width: 0.6"/>
      </g>
     </g>
    </g>
    <g id="xtick_62">
     <g id="line2d_145">
      <path d="M 382.146444 386.728 
L 382.146444 233.28 
" clip-path="url(#p2e088a73ab)" style="fill: none; stroke: #f0f0f0; stroke-width: 0.8; stroke-linecap: square"/>
     </g>
     <g id="line2d_146">
      <g>
       <use xlink:href="#m2b05c53382" x="382.146444" y="386.728" style="stroke: #000000; stroke-width: 0.6"/>
      </g>
     </g>
    </g>
    <g id="xtick_63">
     <g id="line2d_147">
      <path d="M 394.740946 386.728 
L 394.740946 233.28 
" clip-path="url(#p2e088a73ab)" style="fill: none; stroke: #f0f0f0; stroke-width: 0.8; stroke-linecap: square"/>
     </g>
     <g id="line2d_148">
      <g>
       <use xlink:href="#m2b05c53382" x="394.740946" y="386.728" style="stroke: #000000; stroke-width: 0.6"/>
      </g>
     </g>
    </g>
    <g id="xtick_64">
     <g id="line2d_149">
      <path d="M 404.51 386.728 
L 404.51 233.28 
" clip-path="url(#p2e088a73ab)" style="fill: none; stroke: #f0f0f0; stroke-width: 0.8; stroke-linecap: square"/>
     </g>
     <g id="line2d_150">
      <g>
       <use xlink:href="#m2b05c53382" x="404.51" y="386.728" style="stroke: #000000; stroke-width: 0.6"/>
      </g>
     </g>
    </g>
    <g id="xtick_65">
     <g id="line2d_151">
      <path d="M 412.491899 386.728 
L 412.491899 233.28 
" clip-path="url(#p2e088a73ab)" style="fill: none; stroke: #f0f0f0; stroke-width: 0.8; stroke-linecap: square"/>
     </g>
     <g id="line2d_152">
      <g>
       <use xlink:href="#m2b05c53382" x="412.491899" y="386.728" style="stroke: #000000; stroke-width: 0.6"/>
      </g>
     </g>
    </g>
    <g id="xtick_66">
     <g id="line2d_153">
      <path d="M 419.240498 386.728 
L 419.240498 233.28 
" clip-path="url(#p2e088a73ab)" style="fill: none; stroke: #f0f0f0; stroke-width: 0.8; stroke-linecap: square"/>
     </g>
     <g id="line2d_154">
      <g>
       <use xlink:href="#m2b05c53382" x="419.240498" y="386.728" style="stroke: #000000; stroke-width: 0.6"/>
      </g>
     </g>
    </g>
    <g id="text_20">
     <!-- Target Frequency [rad/2π] -->
     <g transform="translate(173.059219 415.004563) scale(0.1 -0.1)">
      <use xlink:href="#DejaVuSans-54"/>
      <use xlink:href="#DejaVuSans-61" x="44.583984"/>
      <use xlink:href="#DejaVuSans-72" x="105.863281"/>
      <use xlink:href="#DejaVuSans-67" x="145.226562"/>
      <use xlink:href="#DejaVuSans-65" x="208.703125"/>
      <use xlink:href="#DejaVuSans-74" x="270.226562"/>
      <use xlink:href="#DejaVuSans-20" x="309.435547"/>
      <use xlink:href="#DejaVuSans-46" x="341.222656"/>
      <use xlink:href="#DejaVuSans-72" x="391.492188"/>
      <use xlink:href="#DejaVuSans-65" x="430.355469"/>
      <use xlink:href="#DejaVuSans-71" x="491.878906"/>
      <use xlink:href="#DejaVuSans-75" x="555.355469"/>
      <use xlink:href="#DejaVuSans-65" x="618.734375"/>
      <use xlink:href="#DejaVuSans-6e" x="680.257812"/>
      <use xlink:href="#DejaVuSans-63" x="743.636719"/>
      <use xlink:href="#DejaVuSans-79" x="798.617188"/>
      <use xlink:href="#DejaVuSans-20" x="857.796875"/>
      <use xlink:href="#DejaVuSans-5b" x="889.583984"/>
      <use xlink:href="#DejaVuSans-72" x="928.597656"/>
      <use xlink:href="#DejaVuSans-61" x="969.710938"/>
      <use xlink:href="#DejaVuSans-64" x="1030.990234"/>
      <use xlink:href="#DejaVuSans-2f" x="1094.466797"/>
      <use xlink:href="#DejaVuSans-32" x="1128.158203"/>
      <use xlink:href="#DejaVuSans-3c0" x="1191.78125"/>
      <use xlink:href="#DejaVuSans-5d" x="1251.986328"/>
     </g>
    </g>
   </g>
   <g id="matplotlib.axis_4">
    <g id="ytick_7">
     <g id="line2d_155">
      <path d="M 54.02 379.753091 
L 421.2 379.753091 
" clip-path="url(#p2e088a73ab)" style="fill: none; stroke: #f0f0f0; stroke-width: 0.8; stroke-linecap: square"/>
     </g>
     <g id="line2d_156">
      <g>
       <use xlink:href="#m947f6f315f" x="54.02" y="379.753091" style="stroke: #000000; stroke-width: 0.8"/>
      </g>
     </g>
     <g id="text_21">
      <!-- 0.00 -->
      <g transform="translate(24.754375 383.55231) scale(0.1 -0.1)">
       <use xlink:href="#DejaVuSans-30"/>
       <use xlink:href="#DejaVuSans-2e" x="63.623047"/>
       <use xlink:href="#DejaVuSans-30" x="95.410156"/>
       <use xlink:href="#DejaVuSans-30" x="159.033203"/>
      </g>
     </g>
    </g>
    <g id="ytick_8">
     <g id="line2d_157">
      <path d="M 54.02 344.878545 
L 421.2 344.878545 
" clip-path="url(#p2e088a73ab)" style="fill: none; stroke: #f0f0f0; stroke-width: 0.8; stroke-linecap: square"/>
     </g>
     <g id="line2d_158">
      <g>
       <use xlink:href="#m947f6f315f" x="54.02" y="344.878545" style="stroke: #000000; stroke-width: 0.8"/>
      </g>
     </g>
     <g id="text_22">
      <!-- 0.01 -->
      <g transform="translate(24.754375 348.677764) scale(0.1 -0.1)">
       <use xlink:href="#DejaVuSans-30"/>
       <use xlink:href="#DejaVuSans-2e" x="63.623047"/>
       <use xlink:href="#DejaVuSans-30" x="95.410156"/>
       <use xlink:href="#DejaVuSans-31" x="159.033203"/>
      </g>
     </g>
    </g>
    <g id="ytick_9">
     <g id="line2d_159">
      <path d="M 54.02 310.004 
L 421.2 310.004 
" clip-path="url(#p2e088a73ab)" style="fill: none; stroke: #f0f0f0; stroke-width: 0.8; stroke-linecap: square"/>
     </g>
     <g id="line2d_160">
      <g>
       <use xlink:href="#m947f6f315f" x="54.02" y="310.004" style="stroke: #000000; stroke-width: 0.8"/>
      </g>
     </g>
     <g id="text_23">
      <!-- 0.02 -->
      <g transform="translate(24.754375 313.803219) scale(0.1 -0.1)">
       <use xlink:href="#DejaVuSans-30"/>
       <use xlink:href="#DejaVuSans-2e" x="63.623047"/>
       <use xlink:href="#DejaVuSans-30" x="95.410156"/>
       <use xlink:href="#DejaVuSans-32" x="159.033203"/>
      </g>
     </g>
    </g>
    <g id="ytick_10">
     <g id="line2d_161">
      <path d="M 54.02 275.129455 
L 421.2 275.129455 
" clip-path="url(#p2e088a73ab)" style="fill: none; stroke: #f0f0f0; stroke-width: 0.8; stroke-linecap: square"/>
     </g>
     <g id="line2d_162">
      <g>
       <use xlink:href="#m947f6f315f" x="54.02" y="275.129455" style="stroke: #000000; stroke-width: 0.8"/>
      </g>
     </g>
     <g id="text_24">
      <!-- 0.03 -->
      <g transform="translate(24.754375 278.928673) scale(0.1 -0.1)">
       <use xlink:href="#DejaVuSans-30"/>
       <use xlink:href="#DejaVuSans-2e" x="63.623047"/>
       <use xlink:href="#DejaVuSans-30" x="95.410156"/>
       <use xlink:href="#DejaVuSans-33" x="159.033203"/>
      </g>
     </g>
    </g>
    <g id="ytick_11">
     <g id="line2d_163">
      <path d="M 54.02 240.254909 
L 421.2 240.254909 
" clip-path="url(#p2e088a73ab)" style="fill: none; stroke: #f0f0f0; stroke-width: 0.8; stroke-linecap: square"/>
     </g>
     <g id="line2d_164">
      <g>
       <use xlink:href="#m947f6f315f" x="54.02" y="240.254909" style="stroke: #000000; stroke-width: 0.8"/>
      </g>
     </g>
     <g id="text_25">
      <!-- 0.04 -->
      <g transform="translate(24.754375 244.054128) scale(0.1 -0.1)">
       <defs>
        <path id="DejaVuSans-34" d="M 2419 4116 
L 825 1625 
L 2419 1625 
L 2419 4116 
z
M 2253 4666 
L 3047 4666 
L 3047 1625 
L 3713 1625 
L 3713 1100 
L 3047 1100 
L 3047 0 
L 2419 0 
L 2419 1100 
L 313 1100 
L 313 1709 
L 2253 4666 
z
" transform="scale(0.015625)"/>
       </defs>
       <use xlink:href="#DejaVuSans-30"/>
       <use xlink:href="#DejaVuSans-2e" x="63.623047"/>
       <use xlink:href="#DejaVuSans-30" x="95.410156"/>
       <use xlink:href="#DejaVuSans-34" x="159.033203"/>
      </g>
     </g>
    </g>
    <g id="text_26">
     <!-- Frequency Error Avg. [rad/2π] -->
     <g transform="translate(18.674688 383.706344) rotate(-90) scale(0.1 -0.1)">
      <use xlink:href="#DejaVuSans-46"/>
      <use xlink:href="#DejaVuSans-72" x="50.269531"/>
      <use xlink:href="#DejaVuSans-65" x="89.132812"/>
      <use xlink:href="#DejaVuSans-71" x="150.65625"/>
      <use xlink:href="#DejaVuSans-75" x="214.132812"/>
      <use xlink:href="#DejaVuSans-65" x="277.511719"/>
      <use xlink:href="#DejaVuSans-6e" x="339.035156"/>
      <use xlink:href="#DejaVuSans-63" x="402.414062"/>
      <use xlink:href="#DejaVuSans-79" x="457.394531"/>
      <use xlink:href="#DejaVuSans-20" x="516.574219"/>
      <use xlink:href="#DejaVuSans-45" x="548.361328"/>
      <use xlink:href="#DejaVuSans-72" x="611.544922"/>
      <use xlink:href="#DejaVuSans-72" x="650.908203"/>
      <use xlink:href="#DejaVuSans-6f" x="689.771484"/>
      <use xlink:href="#DejaVuSans-72" x="750.953125"/>
      <use xlink:href="#DejaVuSans-20" x="792.066406"/>
      <use xlink:href="#DejaVuSans-41" x="823.853516"/>
      <use xlink:href="#DejaVuSans-76" x="886.386719"/>
      <use xlink:href="#DejaVuSans-67" x="945.566406"/>
      <use xlink:href="#DejaVuSans-2e" x="1009.042969"/>
      <use xlink:href="#DejaVuSans-20" x="1040.830078"/>
      <use xlink:href="#DejaVuSans-5b" x="1072.617188"/>
      <use xlink:href="#DejaVuSans-72" x="1111.630859"/>
      <use xlink:href="#DejaVuSans-61" x="1152.744141"/>
      <use xlink:href="#DejaVuSans-64" x="1214.023438"/>
      <use xlink:href="#DejaVuSans-2f" x="1277.5"/>
      <use xlink:href="#DejaVuSans-32" x="1311.191406"/>
      <use xlink:href="#DejaVuSans-3c0" x="1374.814453"/>
      <use xlink:href="#DejaVuSans-5d" x="1435.019531"/>
     </g>
    </g>
   </g>
   <g id="line2d_165">
    <path d="M 70.71 379.753091 
L 341.677059 379.753091 
L 342.986078 298.781325 
L 344.295098 252.057078 
L 345.604118 216.300296 
L 348.222157 156.766884 
L 350.840196 104.514682 
L 354.767255 30.274157 
L 356.4463 -1 
L 356.4463 -1 
" clip-path="url(#p2e088a73ab)" style="fill: none; stroke: #0b0000; stroke-opacity: 0.75; stroke-width: 1.5; stroke-linecap: square"/>
   </g>
   <g id="line2d_166">
    <path d="M 70.71 320.248288 
L 75.946078 320.398442 
L 82.491176 320.76147 
L 94.272353 321.027306 
L 100.817451 321.252431 
L 103.43549 321.555117 
L 106.053529 321.637888 
L 109.980588 321.705985 
L 112.598627 321.898323 
L 116.525686 322.10586 
L 119.143725 322.466723 
L 123.070784 322.555336 
L 125.688824 322.772797 
L 126.997843 322.831151 
L 130.924902 323.344399 
L 132.233922 323.329169 
L 134.851961 323.610145 
L 136.16098 323.674888 
L 138.77902 324.178662 
L 141.397059 324.294203 
L 144.015098 324.552149 
L 145.324118 324.930568 
L 150.560196 325.42331 
L 151.869216 325.853447 
L 153.178235 325.88922 
L 155.796275 326.222327 
L 157.105294 326.668148 
L 158.414314 326.742264 
L 161.032353 327.123503 
L 162.341373 327.599973 
L 163.650392 327.645734 
L 164.959412 327.900157 
L 166.268431 328.391415 
L 167.577451 328.445394 
L 168.886471 328.742629 
L 170.19549 329.254192 
L 171.50451 329.328054 
L 172.813529 329.625211 
L 174.122549 330.169095 
L 175.431569 330.385539 
L 176.740588 330.780315 
L 178.049608 331.004317 
L 179.358627 331.350656 
L 180.667647 331.867583 
L 181.976667 332.153979 
L 183.285686 332.73163 
L 184.594706 332.996293 
L 185.903725 333.584765 
L 187.212745 333.860683 
L 188.521765 334.42021 
L 189.830784 334.788774 
L 191.139804 335.325264 
L 192.448824 336.073927 
L 193.757843 336.392566 
L 195.066863 336.968048 
L 196.375882 337.683157 
L 197.684902 338.099366 
L 198.993922 338.684898 
L 200.302941 339.561584 
L 202.92098 340.667186 
L 205.53902 342.154542 
L 208.157059 343.805942 
L 213.393137 347.348962 
L 216.011176 349.275852 
L 217.320196 350.671718 
L 218.629216 351.676207 
L 221.247255 354.190973 
L 222.556275 355.793467 
L 223.865294 356.889099 
L 226.483333 360.244289 
L 227.792353 362.630725 
L 229.101373 364.469286 
L 230.410392 367.022598 
L 231.719412 370.416168 
L 233.028431 376.30457 
L 234.337451 379.753091 
L 280.153137 379.753091 
L 281.462157 375.476322 
L 282.771176 363.625804 
L 284.080196 356.842722 
L 288.007255 341.244434 
L 290.625294 331.325536 
L 293.243333 321.878223 
L 298.479412 302.206516 
L 302.406471 286.612441 
L 306.333529 269.679114 
L 310.260588 251.671133 
L 314.187647 232.04609 
L 318.114706 210.742417 
L 322.041765 187.495874 
L 324.659804 170.917266 
L 327.277843 153.351645 
L 329.895882 134.74161 
L 332.513922 115.011214 
L 335.131961 94.133462 
L 339.05902 60.32275 
L 341.677059 36.116761 
L 345.406192 -1 
L 345.406192 -1 
" clip-path="url(#p2e088a73ab)" style="fill: none; stroke: #b30000; stroke-opacity: 0.75; stroke-width: 1.5; stroke-linecap: square"/>
   </g>
   <g id="line2d_167">
    <path d="M 70.71 310.935809 
L 91.654314 311.459266 
L 108.671569 312.130586 
L 119.143725 312.66036 
L 133.542941 313.679895 
L 146.633137 314.915001 
L 157.105294 316.233502 
L 164.959412 317.423494 
L 174.122549 319.13279 
L 180.667647 320.615707 
L 185.903725 321.931766 
L 195.066863 324.695559 
L 198.993922 326.065261 
L 205.53902 328.643685 
L 210.775098 330.993689 
L 217.320196 334.37221 
L 223.865294 338.295198 
L 227.792353 340.969413 
L 233.028431 344.878922 
L 236.95549 348.146649 
L 240.882549 351.733579 
L 246.118627 357.070366 
L 248.736667 359.965305 
L 253.972745 366.451418 
L 257.899804 371.95461 
L 259.208824 374.045275 
L 260.517843 376.434311 
L 261.826863 379.753091 
L 264.444902 379.753091 
L 265.753922 378.926576 
L 267.062941 375.309328 
L 269.68098 370.024 
L 273.608039 362.153332 
L 277.535098 353.856648 
L 281.462157 344.755966 
L 285.389216 334.871575 
L 289.316275 324.088884 
L 293.243333 312.27499 
L 295.861373 303.803966 
L 298.479412 294.81321 
L 301.097451 285.273794 
L 303.71549 275.139512 
L 306.333529 264.397979 
L 308.951569 252.971747 
L 311.569608 240.854603 
L 314.187647 227.988766 
L 316.805686 214.333013 
L 319.423725 199.836328 
L 322.041765 184.448576 
L 324.659804 168.11381 
L 327.277843 150.763542 
L 329.895882 132.355105 
L 332.513922 112.807051 
L 335.131961 92.049668 
L 337.75 70.019347 
L 340.368039 46.631074 
L 342.986078 21.80328 
L 345.256114 -1 
L 345.256114 -1 
" clip-path="url(#p2e088a73ab)" style="fill: none; stroke: #ff5c00; stroke-opacity: 0.75; stroke-width: 1.5; stroke-linecap: square"/>
   </g>
   <g id="line2d_168">
    <path d="M 70.71 310.855981 
L 90.345294 311.338284 
L 106.053529 311.913715 
L 120.452745 312.656263 
L 132.233922 313.475306 
L 142.706078 314.41349 
L 153.178235 315.605595 
L 161.032353 316.706161 
L 168.886471 318.024566 
L 175.431569 319.31598 
L 181.976667 320.816628 
L 188.521765 322.560343 
L 193.757843 324.15583 
L 198.993922 325.953404 
L 204.23 327.979611 
L 209.466078 330.263887 
L 214.702157 332.838005 
L 218.629216 334.982869 
L 222.556275 337.324141 
L 226.483333 339.888017 
L 230.410392 342.696476 
L 234.337451 345.761311 
L 238.26451 349.117597 
L 242.191569 352.788472 
L 246.118627 356.803561 
L 250.045686 361.19341 
L 253.972745 365.998343 
L 257.899804 371.258762 
L 261.826863 377.003157 
L 263.135882 379.040549 
L 264.444902 378.46845 
L 269.68098 369.342421 
L 273.608039 361.821621 
L 277.535098 353.59073 
L 281.462157 344.58961 
L 284.080196 338.124076 
L 286.698235 331.260682 
L 289.316275 323.975672 
L 291.934314 316.239066 
L 294.552353 308.024781 
L 297.170392 299.307927 
L 299.788431 290.050909 
L 302.406471 280.224188 
L 305.02451 269.79239 
L 307.642549 258.717686 
L 310.260588 246.960681 
L 312.878627 234.479439 
L 315.496667 221.227891 
L 318.114706 207.160617 
L 320.732745 192.226005 
L 323.350784 176.371287 
L 325.968824 159.540031 
L 328.586863 141.671034 
L 331.204902 122.700365 
L 333.822941 102.561643 
L 336.44098 81.181118 
L 339.05902 58.482965 
L 341.677059 34.386654 
L 345.254628 -1 
L 345.254628 -1 
" clip-path="url(#p2e088a73ab)" style="fill: none; stroke: #ffff07; stroke-opacity: 0.75; stroke-width: 1.5; stroke-linecap: square"/>
   </g>
   <g id="line2d_169">
    <path d="M 263.590073 386.728 
L 263.590073 233.28 
" clip-path="url(#p2e088a73ab)" style="fill: none; stroke-dasharray: 3.7,1.6; stroke-dashoffset: 0; stroke: #000000; stroke-opacity: 0.75"/>
   </g>
   <g id="patch_9">
    <path d="M 54.02 386.728 
L 54.02 233.28 
" style="fill: none; stroke: #000000; stroke-width: 0.8; stroke-linejoin: miter; stroke-linecap: square"/>
   </g>
   <g id="patch_10">
    <path d="M 421.2 386.728 
L 421.2 233.28 
" style="fill: none; stroke: #000000; stroke-width: 0.8; stroke-linejoin: miter; stroke-linecap: square"/>
   </g>
   <g id="patch_11">
    <path d="M 54.02 386.728 
L 421.2 386.728 
" style="fill: none; stroke: #000000; stroke-width: 0.8; stroke-linejoin: miter; stroke-linecap: square"/>
   </g>
   <g id="patch_12">
    <path d="M 54.02 233.28 
L 421.2 233.28 
" style="fill: none; stroke: #000000; stroke-width: 0.8; stroke-linejoin: miter; stroke-linecap: square"/>
   </g>
   <g id="legend_2">
    <g id="patch_13">
     <path d="M 196.645938 314.670625 
L 278.574063 314.670625 
Q 280.574063 314.670625 280.574063 312.670625 
L 280.574063 240.28 
Q 280.574063 238.28 278.574063 238.28 
L 196.645938 238.28 
Q 194.645938 238.28 194.645938 240.28 
L 194.645938 312.670625 
Q 194.645938 314.670625 196.645938 314.670625 
z
" style="fill: #ffffff; opacity: 0.8; stroke: #cccccc; stroke-linejoin: miter"/>
    </g>
    <g id="line2d_170">
     <path d="M 198.645938 246.378438 
L 208.645938 246.378438 
L 218.645938 246.378438 
" style="fill: none; stroke: #0b0000; stroke-opacity: 0.75; stroke-width: 1.5; stroke-linecap: square"/>
    </g>
    <g id="text_27">
     <!-- K=0.1 -->
     <g transform="translate(226.645938 249.878438) scale(0.1 -0.1)">
      <use xlink:href="#DejaVuSans-4b"/>
      <use xlink:href="#DejaVuSans-3d" x="65.576172"/>
      <use xlink:href="#DejaVuSans-30" x="149.365234"/>
      <use xlink:href="#DejaVuSans-2e" x="212.988281"/>
      <use xlink:href="#DejaVuSans-31" x="244.775391"/>
     </g>
    </g>
    <g id="line2d_171">
     <path d="M 198.645938 261.056563 
L 208.645938 261.056563 
L 218.645938 261.056563 
" style="fill: none; stroke: #b30000; stroke-opacity: 0.75; stroke-width: 1.5; stroke-linecap: square"/>
    </g>
    <g id="text_28">
     <!-- K=0.01 -->
     <g transform="translate(226.645938 264.556563) scale(0.1 -0.1)">
      <use xlink:href="#DejaVuSans-4b"/>
      <use xlink:href="#DejaVuSans-3d" x="65.576172"/>
      <use xlink:href="#DejaVuSans-30" x="149.365234"/>
      <use xlink:href="#DejaVuSans-2e" x="212.988281"/>
      <use xlink:href="#DejaVuSans-30" x="244.775391"/>
      <use xlink:href="#DejaVuSans-31" x="308.398438"/>
     </g>
    </g>
    <g id="line2d_172">
     <path d="M 198.645938 275.734688 
L 208.645938 275.734688 
L 218.645938 275.734688 
" style="fill: none; stroke: #ff5c00; stroke-opacity: 0.75; stroke-width: 1.5; stroke-linecap: square"/>
    </g>
    <g id="text_29">
     <!-- K=0.001 -->
     <g transform="translate(226.645938 279.234688) scale(0.1 -0.1)">
      <use xlink:href="#DejaVuSans-4b"/>
      <use xlink:href="#DejaVuSans-3d" x="65.576172"/>
      <use xlink:href="#DejaVuSans-30" x="149.365234"/>
      <use xlink:href="#DejaVuSans-2e" x="212.988281"/>
      <use xlink:href="#DejaVuSans-30" x="244.775391"/>
      <use xlink:href="#DejaVuSans-30" x="308.398438"/>
      <use xlink:href="#DejaVuSans-31" x="372.021484"/>
     </g>
    </g>
    <g id="line2d_173">
     <path d="M 198.645938 290.412813 
L 208.645938 290.412813 
L 218.645938 290.412813 
" style="fill: none; stroke: #ffff07; stroke-opacity: 0.75; stroke-width: 1.5; stroke-linecap: square"/>
    </g>
    <g id="text_30">
     <!-- K=0.0001 -->
     <g transform="translate(226.645938 293.912813) scale(0.1 -0.1)">
      <use xlink:href="#DejaVuSans-4b"/>
      <use xlink:href="#DejaVuSans-3d" x="65.576172"/>
      <use xlink:href="#DejaVuSans-30" x="149.365234"/>
      <use xlink:href="#DejaVuSans-2e" x="212.988281"/>
      <use xlink:href="#DejaVuSans-30" x="244.775391"/>
      <use xlink:href="#DejaVuSans-30" x="308.398438"/>
      <use xlink:href="#DejaVuSans-30" x="372.021484"/>
      <use xlink:href="#DejaVuSans-31" x="435.644531"/>
     </g>
    </g>
    <g id="line2d_174">
     <path d="M 198.645938 305.090937 
L 208.645938 305.090937 
L 218.645938 305.090937 
" style="fill: none; stroke-dasharray: 3.7,1.6; stroke-dashoffset: 0; stroke: #000000; stroke-opacity: 0.75"/>
    </g>
    <g id="text_31">
     <!-- ω -->
     <g transform="translate(226.645938 308.590937) scale(0.1 -0.1)">
      <use xlink:href="#DejaVuSans-3c9"/>
     </g>
    </g>
   </g>
  </g>
  <g id="text_32">
   <!-- Synchronization Error(EMA Filter, ω=0.020) -->
   <g transform="translate(85.851562 17.758125) scale(0.12 -0.12)">
    <defs>
     <path id="DejaVuSans-53" d="M 3425 4513 
L 3425 3897 
Q 3066 4069 2747 4153 
Q 2428 4238 2131 4238 
Q 1616 4238 1336 4038 
Q 1056 3838 1056 3469 
Q 1056 3159 1242 3001 
Q 1428 2844 1947 2747 
L 2328 2669 
Q 3034 2534 3370 2195 
Q 3706 1856 3706 1288 
Q 3706 609 3251 259 
Q 2797 -91 1919 -91 
Q 1588 -91 1214 -16 
Q 841 59 441 206 
L 441 856 
Q 825 641 1194 531 
Q 1563 422 1919 422 
Q 2459 422 2753 634 
Q 3047 847 3047 1241 
Q 3047 1584 2836 1778 
Q 2625 1972 2144 2069 
L 1759 2144 
Q 1053 2284 737 2584 
Q 422 2884 422 3419 
Q 422 4038 858 4394 
Q 1294 4750 2059 4750 
Q 2388 4750 2728 4690 
Q 3069 4631 3425 4513 
z
" transform="scale(0.015625)"/>
     <path id="DejaVuSans-69" d="M 603 3500 
L 1178 3500 
L 1178 0 
L 603 0 
L 603 3500 
z
M 603 4863 
L 1178 4863 
L 1178 4134 
L 603 4134 
L 603 4863 
z
" transform="scale(0.015625)"/>
     <path id="DejaVuSans-7a" d="M 353 3500 
L 3084 3500 
L 3084 2975 
L 922 459 
L 3084 459 
L 3084 0 
L 275 0 
L 275 525 
L 2438 3041 
L 353 3041 
L 353 3500 
z
" transform="scale(0.015625)"/>
     <path id="DejaVuSans-28" d="M 1984 4856 
Q 1566 4138 1362 3434 
Q 1159 2731 1159 2009 
Q 1159 1288 1364 580 
Q 1569 -128 1984 -844 
L 1484 -844 
Q 1016 -109 783 600 
Q 550 1309 550 2009 
Q 550 2706 781 3412 
Q 1013 4119 1484 4856 
L 1984 4856 
z
" transform="scale(0.015625)"/>
     <path id="DejaVuSans-4d" d="M 628 4666 
L 1569 4666 
L 2759 1491 
L 3956 4666 
L 4897 4666 
L 4897 0 
L 4281 0 
L 4281 4097 
L 3078 897 
L 2444 897 
L 1241 4097 
L 1241 0 
L 628 0 
L 628 4666 
z
" transform="scale(0.015625)"/>
     <path id="DejaVuSans-6c" d="M 603 4863 
L 1178 4863 
L 1178 0 
L 603 0 
L 603 4863 
z
" transform="scale(0.015625)"/>
     <path id="DejaVuSans-2c" d="M 750 794 
L 1409 794 
L 1409 256 
L 897 -744 
L 494 -744 
L 750 256 
L 750 794 
z
" transform="scale(0.015625)"/>
     <path id="DejaVuSans-29" d="M 513 4856 
L 1013 4856 
Q 1481 4119 1714 3412 
Q 1947 2706 1947 2009 
Q 1947 1309 1714 600 
Q 1481 -109 1013 -844 
L 513 -844 
Q 928 -128 1133 580 
Q 1338 1288 1338 2009 
Q 1338 2731 1133 3434 
Q 928 4138 513 4856 
z
" transform="scale(0.015625)"/>
    </defs>
    <use xlink:href="#DejaVuSans-53"/>
    <use xlink:href="#DejaVuSans-79" x="63.476562"/>
    <use xlink:href="#DejaVuSans-6e" x="122.65625"/>
    <use xlink:href="#DejaVuSans-63" x="186.035156"/>
    <use xlink:href="#DejaVuSans-68" x="241.015625"/>
    <use xlink:href="#DejaVuSans-72" x="304.394531"/>
    <use xlink:href="#DejaVuSans-6f" x="343.257812"/>
    <use xlink:href="#DejaVuSans-6e" x="404.439453"/>
    <use xlink:href="#DejaVuSans-69" x="467.818359"/>
    <use xlink:href="#DejaVuSans-7a" x="495.601562"/>
    <use xlink:href="#DejaVuSans-61" x="548.091797"/>
    <use xlink:href="#DejaVuSans-74" x="609.371094"/>
    <use xlink:href="#DejaVuSans-69" x="648.580078"/>
    <use xlink:href="#DejaVuSans-6f" x="676.363281"/>
    <use xlink:href="#DejaVuSans-6e" x="737.544922"/>
    <use xlink:href="#DejaVuSans-20" x="800.923828"/>
    <use xlink:href="#DejaVuSans-45" x="832.710938"/>
    <use xlink:href="#DejaVuSans-72" x="895.894531"/>
    <use xlink:href="#DejaVuSans-72" x="935.257812"/>
    <use xlink:href="#DejaVuSans-6f" x="974.121094"/>
    <use xlink:href="#DejaVuSans-72" x="1035.302734"/>
    <use xlink:href="#DejaVuSans-28" x="1076.416016"/>
    <use xlink:href="#DejaVuSans-45" x="1115.429688"/>
    <use xlink:href="#DejaVuSans-4d" x="1178.613281"/>
    <use xlink:href="#DejaVuSans-41" x="1264.892578"/>
    <use xlink:href="#DejaVuSans-20" x="1333.300781"/>
    <use xlink:href="#DejaVuSans-46" x="1365.087891"/>
    <use xlink:href="#DejaVuSans-69" x="1415.357422"/>
    <use xlink:href="#DejaVuSans-6c" x="1443.140625"/>
    <use xlink:href="#DejaVuSans-74" x="1470.923828"/>
    <use xlink:href="#DejaVuSans-65" x="1510.132812"/>
    <use xlink:href="#DejaVuSans-72" x="1571.65625"/>
    <use xlink:href="#DejaVuSans-2c" x="1612.769531"/>
    <use xlink:href="#DejaVuSans-20" x="1644.556641"/>
    <use xlink:href="#DejaVuSans-3c9" x="1676.34375"/>
    <use xlink:href="#DejaVuSans-3d" x="1760.083984"/>
    <use xlink:href="#DejaVuSans-30" x="1843.873047"/>
    <use xlink:href="#DejaVuSans-2e" x="1907.496094"/>
    <use xlink:href="#DejaVuSans-30" x="1939.283203"/>
    <use xlink:href="#DejaVuSans-32" x="2002.90625"/>
    <use xlink:href="#DejaVuSans-30" x="2066.529297"/>
    <use xlink:href="#DejaVuSans-29" x="2130.152344"/>
   </g>
  </g>
 </g>
 <defs>
  <clipPath id="p63c888dccd">
   <rect x="54.02" y="34.56" width="367.18" height="153.448"/>
  </clipPath>
  <clipPath id="p2e088a73ab">
   <rect x="54.02" y="233.28" width="367.18" height="153.448"/>
  </clipPath>
 </defs>
</svg>
