<?xml version="1.0" encoding="utf-8" standalone="no"?>
<!DOCTYPE svg PUBLIC "-//W3C//DTD SVG 1.1//EN"
  "http://www.w3.org/Graphics/SVG/1.1/DTD/svg11.dtd">
<svg xmlns:xlink="http://www.w3.org/1999/xlink" width="576pt" height="288pt" viewBox="0 0 576 288" xmlns="http://www.w3.org/2000/svg" version="1.1">
 <metadata>
  <rdf:RDF xmlns:dc="http://purl.org/dc/elements/1.1/" xmlns:cc="http://creativecommons.org/ns#" xmlns:rdf="http://www.w3.org/1999/02/22-rdf-syntax-ns#">
   <cc:Work>
    <dc:type rdf:resource="http://purl.org/dc/dcmitype/StillImage"/>
    <dc:date>2022-08-28T20:26:00.855269</dc:date>
    <dc:format>image/svg+xml</dc:format>
    <dc:creator>
     <cc:Agent>
      <dc:title>Matplotlib v3.5.3, https://matplotlib.org/</dc:title>
     </cc:Agent>
    </dc:creator>
   </cc:Work>
  </rdf:RDF>
 </metadata>
 <defs>
  <style type="text/css">*{stroke-linejoin: round; stroke-linecap: butt}</style>
 </defs>
 <g id="figure_1">
  <g id="patch_1">
   <path d="M 0 288 
L 576 288 
L 576 0 
L 0 0 
z
" style="fill: #ffffff"/>
  </g>
  <g id="axes_1">
   <g id="patch_2">
    <path d="M 54.02 246.04 
L 565.2 246.04 
L 565.2 26.88 
L 54.02 26.88 
z
" style="fill: #ffffff"/>
   </g>
   <g id="matplotlib.axis_1">
    <g id="xtick_1">
     <g id="line2d_1">
      <path d="M 77.255455 246.04 
L 77.255455 26.88 
" clip-path="url(#p2eb6c96807)" style="fill: none; stroke: #b0b0b0; stroke-width: 0.8; stroke-linecap: square"/>
     </g>
     <g id="line2d_2">
      <defs>
       <path id="mceae0763b2" d="M 0 0 
L 0 3.5 
" style="stroke: #000000; stroke-width: 0.8"/>
      </defs>
      <g>
       <use xlink:href="#mceae0763b2" x="77.255455" y="246.04" style="stroke: #000000; stroke-width: 0.8"/>
      </g>
     </g>
     <g id="text_1">
      <!-- 0 -->
      <g transform="translate(74.074205 260.638438)scale(0.1 -0.1)">
       <defs>
        <path id="DejaVuSans-30" d="M 2034 4250 
Q 1547 4250 1301 3770 
Q 1056 3291 1056 2328 
Q 1056 1369 1301 889 
Q 1547 409 2034 409 
Q 2525 409 2770 889 
Q 3016 1369 3016 2328 
Q 3016 3291 2770 3770 
Q 2525 4250 2034 4250 
z
M 2034 4750 
Q 2819 4750 3233 4129 
Q 3647 3509 3647 2328 
Q 3647 1150 3233 529 
Q 2819 -91 2034 -91 
Q 1250 -91 836 529 
Q 422 1150 422 2328 
Q 422 3509 836 4129 
Q 1250 4750 2034 4750 
z
" transform="scale(0.015625)"/>
       </defs>
       <use xlink:href="#DejaVuSans-30"/>
      </g>
     </g>
    </g>
    <g id="xtick_2">
     <g id="line2d_3">
      <path d="M 170.206568 246.04 
L 170.206568 26.88 
" clip-path="url(#p2eb6c96807)" style="fill: none; stroke: #b0b0b0; stroke-width: 0.8; stroke-linecap: square"/>
     </g>
     <g id="line2d_4">
      <g>
       <use xlink:href="#mceae0763b2" x="170.206568" y="246.04" style="stroke: #000000; stroke-width: 0.8"/>
      </g>
     </g>
     <g id="text_2">
      <!-- 2000 -->
      <g transform="translate(157.481568 260.638438)scale(0.1 -0.1)">
       <defs>
        <path id="DejaVuSans-32" d="M 1228 531 
L 3431 531 
L 3431 0 
L 469 0 
L 469 531 
Q 828 903 1448 1529 
Q 2069 2156 2228 2338 
Q 2531 2678 2651 2914 
Q 2772 3150 2772 3378 
Q 2772 3750 2511 3984 
Q 2250 4219 1831 4219 
Q 1534 4219 1204 4116 
Q 875 4013 500 3803 
L 500 4441 
Q 881 4594 1212 4672 
Q 1544 4750 1819 4750 
Q 2544 4750 2975 4387 
Q 3406 4025 3406 3419 
Q 3406 3131 3298 2873 
Q 3191 2616 2906 2266 
Q 2828 2175 2409 1742 
Q 1991 1309 1228 531 
z
" transform="scale(0.015625)"/>
       </defs>
       <use xlink:href="#DejaVuSans-32"/>
       <use xlink:href="#DejaVuSans-30" x="63.623047"/>
       <use xlink:href="#DejaVuSans-30" x="127.246094"/>
       <use xlink:href="#DejaVuSans-30" x="190.869141"/>
      </g>
     </g>
    </g>
    <g id="xtick_3">
     <g id="line2d_5">
      <path d="M 263.157681 246.04 
L 263.157681 26.88 
" clip-path="url(#p2eb6c96807)" style="fill: none; stroke: #b0b0b0; stroke-width: 0.8; stroke-linecap: square"/>
     </g>
     <g id="line2d_6">
      <g>
       <use xlink:href="#mceae0763b2" x="263.157681" y="246.04" style="stroke: #000000; stroke-width: 0.8"/>
      </g>
     </g>
     <g id="text_3">
      <!-- 4000 -->
      <g transform="translate(250.432681 260.638438)scale(0.1 -0.1)">
       <defs>
        <path id="DejaVuSans-34" d="M 2419 4116 
L 825 1625 
L 2419 1625 
L 2419 4116 
z
M 2253 4666 
L 3047 4666 
L 3047 1625 
L 3713 1625 
L 3713 1100 
L 3047 1100 
L 3047 0 
L 2419 0 
L 2419 1100 
L 313 1100 
L 313 1709 
L 2253 4666 
z
" transform="scale(0.015625)"/>
       </defs>
       <use xlink:href="#DejaVuSans-34"/>
       <use xlink:href="#DejaVuSans-30" x="63.623047"/>
       <use xlink:href="#DejaVuSans-30" x="127.246094"/>
       <use xlink:href="#DejaVuSans-30" x="190.869141"/>
      </g>
     </g>
    </g>
    <g id="xtick_4">
     <g id="line2d_7">
      <path d="M 356.108794 246.04 
L 356.108794 26.88 
" clip-path="url(#p2eb6c96807)" style="fill: none; stroke: #b0b0b0; stroke-width: 0.8; stroke-linecap: square"/>
     </g>
     <g id="line2d_8">
      <g>
       <use xlink:href="#mceae0763b2" x="356.108794" y="246.04" style="stroke: #000000; stroke-width: 0.8"/>
      </g>
     </g>
     <g id="text_4">
      <!-- 6000 -->
      <g transform="translate(343.383794 260.638438)scale(0.1 -0.1)">
       <defs>
        <path id="DejaVuSans-36" d="M 2113 2584 
Q 1688 2584 1439 2293 
Q 1191 2003 1191 1497 
Q 1191 994 1439 701 
Q 1688 409 2113 409 
Q 2538 409 2786 701 
Q 3034 994 3034 1497 
Q 3034 2003 2786 2293 
Q 2538 2584 2113 2584 
z
M 3366 4563 
L 3366 3988 
Q 3128 4100 2886 4159 
Q 2644 4219 2406 4219 
Q 1781 4219 1451 3797 
Q 1122 3375 1075 2522 
Q 1259 2794 1537 2939 
Q 1816 3084 2150 3084 
Q 2853 3084 3261 2657 
Q 3669 2231 3669 1497 
Q 3669 778 3244 343 
Q 2819 -91 2113 -91 
Q 1303 -91 875 529 
Q 447 1150 447 2328 
Q 447 3434 972 4092 
Q 1497 4750 2381 4750 
Q 2619 4750 2861 4703 
Q 3103 4656 3366 4563 
z
" transform="scale(0.015625)"/>
       </defs>
       <use xlink:href="#DejaVuSans-36"/>
       <use xlink:href="#DejaVuSans-30" x="63.623047"/>
       <use xlink:href="#DejaVuSans-30" x="127.246094"/>
       <use xlink:href="#DejaVuSans-30" x="190.869141"/>
      </g>
     </g>
    </g>
    <g id="xtick_5">
     <g id="line2d_9">
      <path d="M 449.059908 246.04 
L 449.059908 26.88 
" clip-path="url(#p2eb6c96807)" style="fill: none; stroke: #b0b0b0; stroke-width: 0.8; stroke-linecap: square"/>
     </g>
     <g id="line2d_10">
      <g>
       <use xlink:href="#mceae0763b2" x="449.059908" y="246.04" style="stroke: #000000; stroke-width: 0.8"/>
      </g>
     </g>
     <g id="text_5">
      <!-- 8000 -->
      <g transform="translate(436.334908 260.638438)scale(0.1 -0.1)">
       <defs>
        <path id="DejaVuSans-38" d="M 2034 2216 
Q 1584 2216 1326 1975 
Q 1069 1734 1069 1313 
Q 1069 891 1326 650 
Q 1584 409 2034 409 
Q 2484 409 2743 651 
Q 3003 894 3003 1313 
Q 3003 1734 2745 1975 
Q 2488 2216 2034 2216 
z
M 1403 2484 
Q 997 2584 770 2862 
Q 544 3141 544 3541 
Q 544 4100 942 4425 
Q 1341 4750 2034 4750 
Q 2731 4750 3128 4425 
Q 3525 4100 3525 3541 
Q 3525 3141 3298 2862 
Q 3072 2584 2669 2484 
Q 3125 2378 3379 2068 
Q 3634 1759 3634 1313 
Q 3634 634 3220 271 
Q 2806 -91 2034 -91 
Q 1263 -91 848 271 
Q 434 634 434 1313 
Q 434 1759 690 2068 
Q 947 2378 1403 2484 
z
M 1172 3481 
Q 1172 3119 1398 2916 
Q 1625 2713 2034 2713 
Q 2441 2713 2670 2916 
Q 2900 3119 2900 3481 
Q 2900 3844 2670 4047 
Q 2441 4250 2034 4250 
Q 1625 4250 1398 4047 
Q 1172 3844 1172 3481 
z
" transform="scale(0.015625)"/>
       </defs>
       <use xlink:href="#DejaVuSans-38"/>
       <use xlink:href="#DejaVuSans-30" x="63.623047"/>
       <use xlink:href="#DejaVuSans-30" x="127.246094"/>
       <use xlink:href="#DejaVuSans-30" x="190.869141"/>
      </g>
     </g>
    </g>
    <g id="xtick_6">
     <g id="line2d_11">
      <path d="M 542.011021 246.04 
L 542.011021 26.88 
" clip-path="url(#p2eb6c96807)" style="fill: none; stroke: #b0b0b0; stroke-width: 0.8; stroke-linecap: square"/>
     </g>
     <g id="line2d_12">
      <g>
       <use xlink:href="#mceae0763b2" x="542.011021" y="246.04" style="stroke: #000000; stroke-width: 0.8"/>
      </g>
     </g>
     <g id="text_6">
      <!-- 10000 -->
      <g transform="translate(526.104771 260.638438)scale(0.1 -0.1)">
       <defs>
        <path id="DejaVuSans-31" d="M 794 531 
L 1825 531 
L 1825 4091 
L 703 3866 
L 703 4441 
L 1819 4666 
L 2450 4666 
L 2450 531 
L 3481 531 
L 3481 0 
L 794 0 
L 794 531 
z
" transform="scale(0.015625)"/>
       </defs>
       <use xlink:href="#DejaVuSans-31"/>
       <use xlink:href="#DejaVuSans-30" x="63.623047"/>
       <use xlink:href="#DejaVuSans-30" x="127.246094"/>
       <use xlink:href="#DejaVuSans-30" x="190.869141"/>
       <use xlink:href="#DejaVuSans-30" x="254.492188"/>
      </g>
     </g>
    </g>
    <g id="text_7">
     <!-- Time [sample] -->
     <g transform="translate(273.706875 274.316562)scale(0.1 -0.1)">
      <defs>
       <path id="DejaVuSans-54" d="M -19 4666 
L 3928 4666 
L 3928 4134 
L 2272 4134 
L 2272 0 
L 1638 0 
L 1638 4134 
L -19 4134 
L -19 4666 
z
" transform="scale(0.015625)"/>
       <path id="DejaVuSans-69" d="M 603 3500 
L 1178 3500 
L 1178 0 
L 603 0 
L 603 3500 
z
M 603 4863 
L 1178 4863 
L 1178 4134 
L 603 4134 
L 603 4863 
z
" transform="scale(0.015625)"/>
       <path id="DejaVuSans-6d" d="M 3328 2828 
Q 3544 3216 3844 3400 
Q 4144 3584 4550 3584 
Q 5097 3584 5394 3201 
Q 5691 2819 5691 2113 
L 5691 0 
L 5113 0 
L 5113 2094 
Q 5113 2597 4934 2840 
Q 4756 3084 4391 3084 
Q 3944 3084 3684 2787 
Q 3425 2491 3425 1978 
L 3425 0 
L 2847 0 
L 2847 2094 
Q 2847 2600 2669 2842 
Q 2491 3084 2119 3084 
Q 1678 3084 1418 2786 
Q 1159 2488 1159 1978 
L 1159 0 
L 581 0 
L 581 3500 
L 1159 3500 
L 1159 2956 
Q 1356 3278 1631 3431 
Q 1906 3584 2284 3584 
Q 2666 3584 2933 3390 
Q 3200 3197 3328 2828 
z
" transform="scale(0.015625)"/>
       <path id="DejaVuSans-65" d="M 3597 1894 
L 3597 1613 
L 953 1613 
Q 991 1019 1311 708 
Q 1631 397 2203 397 
Q 2534 397 2845 478 
Q 3156 559 3463 722 
L 3463 178 
Q 3153 47 2828 -22 
Q 2503 -91 2169 -91 
Q 1331 -91 842 396 
Q 353 884 353 1716 
Q 353 2575 817 3079 
Q 1281 3584 2069 3584 
Q 2775 3584 3186 3129 
Q 3597 2675 3597 1894 
z
M 3022 2063 
Q 3016 2534 2758 2815 
Q 2500 3097 2075 3097 
Q 1594 3097 1305 2825 
Q 1016 2553 972 2059 
L 3022 2063 
z
" transform="scale(0.015625)"/>
       <path id="DejaVuSans-20" transform="scale(0.015625)"/>
       <path id="DejaVuSans-5b" d="M 550 4863 
L 1875 4863 
L 1875 4416 
L 1125 4416 
L 1125 -397 
L 1875 -397 
L 1875 -844 
L 550 -844 
L 550 4863 
z
" transform="scale(0.015625)"/>
       <path id="DejaVuSans-73" d="M 2834 3397 
L 2834 2853 
Q 2591 2978 2328 3040 
Q 2066 3103 1784 3103 
Q 1356 3103 1142 2972 
Q 928 2841 928 2578 
Q 928 2378 1081 2264 
Q 1234 2150 1697 2047 
L 1894 2003 
Q 2506 1872 2764 1633 
Q 3022 1394 3022 966 
Q 3022 478 2636 193 
Q 2250 -91 1575 -91 
Q 1294 -91 989 -36 
Q 684 19 347 128 
L 347 722 
Q 666 556 975 473 
Q 1284 391 1588 391 
Q 1994 391 2212 530 
Q 2431 669 2431 922 
Q 2431 1156 2273 1281 
Q 2116 1406 1581 1522 
L 1381 1569 
Q 847 1681 609 1914 
Q 372 2147 372 2553 
Q 372 3047 722 3315 
Q 1072 3584 1716 3584 
Q 2034 3584 2315 3537 
Q 2597 3491 2834 3397 
z
" transform="scale(0.015625)"/>
       <path id="DejaVuSans-61" d="M 2194 1759 
Q 1497 1759 1228 1600 
Q 959 1441 959 1056 
Q 959 750 1161 570 
Q 1363 391 1709 391 
Q 2188 391 2477 730 
Q 2766 1069 2766 1631 
L 2766 1759 
L 2194 1759 
z
M 3341 1997 
L 3341 0 
L 2766 0 
L 2766 531 
Q 2569 213 2275 61 
Q 1981 -91 1556 -91 
Q 1019 -91 701 211 
Q 384 513 384 1019 
Q 384 1609 779 1909 
Q 1175 2209 1959 2209 
L 2766 2209 
L 2766 2266 
Q 2766 2663 2505 2880 
Q 2244 3097 1772 3097 
Q 1472 3097 1187 3025 
Q 903 2953 641 2809 
L 641 3341 
Q 956 3463 1253 3523 
Q 1550 3584 1831 3584 
Q 2591 3584 2966 3190 
Q 3341 2797 3341 1997 
z
" transform="scale(0.015625)"/>
       <path id="DejaVuSans-70" d="M 1159 525 
L 1159 -1331 
L 581 -1331 
L 581 3500 
L 1159 3500 
L 1159 2969 
Q 1341 3281 1617 3432 
Q 1894 3584 2278 3584 
Q 2916 3584 3314 3078 
Q 3713 2572 3713 1747 
Q 3713 922 3314 415 
Q 2916 -91 2278 -91 
Q 1894 -91 1617 61 
Q 1341 213 1159 525 
z
M 3116 1747 
Q 3116 2381 2855 2742 
Q 2594 3103 2138 3103 
Q 1681 3103 1420 2742 
Q 1159 2381 1159 1747 
Q 1159 1113 1420 752 
Q 1681 391 2138 391 
Q 2594 391 2855 752 
Q 3116 1113 3116 1747 
z
" transform="scale(0.015625)"/>
       <path id="DejaVuSans-6c" d="M 603 4863 
L 1178 4863 
L 1178 0 
L 603 0 
L 603 4863 
z
" transform="scale(0.015625)"/>
       <path id="DejaVuSans-5d" d="M 1947 4863 
L 1947 -844 
L 622 -844 
L 622 -397 
L 1369 -397 
L 1369 4416 
L 622 4416 
L 622 4863 
L 1947 4863 
z
" transform="scale(0.015625)"/>
      </defs>
      <use xlink:href="#DejaVuSans-54"/>
      <use xlink:href="#DejaVuSans-69" x="57.958984"/>
      <use xlink:href="#DejaVuSans-6d" x="85.742188"/>
      <use xlink:href="#DejaVuSans-65" x="183.154297"/>
      <use xlink:href="#DejaVuSans-20" x="244.677734"/>
      <use xlink:href="#DejaVuSans-5b" x="276.464844"/>
      <use xlink:href="#DejaVuSans-73" x="315.478516"/>
      <use xlink:href="#DejaVuSans-61" x="367.578125"/>
      <use xlink:href="#DejaVuSans-6d" x="428.857422"/>
      <use xlink:href="#DejaVuSans-70" x="526.269531"/>
      <use xlink:href="#DejaVuSans-6c" x="589.746094"/>
      <use xlink:href="#DejaVuSans-65" x="617.529297"/>
      <use xlink:href="#DejaVuSans-5d" x="679.052734"/>
     </g>
    </g>
   </g>
   <g id="matplotlib.axis_2">
    <g id="ytick_1">
     <g id="line2d_13">
      <path d="M 54.02 236.078182 
L 565.2 236.078182 
" clip-path="url(#p2eb6c96807)" style="fill: none; stroke: #b0b0b0; stroke-width: 0.8; stroke-linecap: square"/>
     </g>
     <g id="line2d_14">
      <defs>
       <path id="m588ca7870d" d="M 0 0 
L -3.5 0 
" style="stroke: #000000; stroke-width: 0.8"/>
      </defs>
      <g>
       <use xlink:href="#m588ca7870d" x="54.02" y="236.078182" style="stroke: #000000; stroke-width: 0.8"/>
      </g>
     </g>
     <g id="text_8">
      <!-- 0.0 -->
      <g transform="translate(31.116875 239.877401)scale(0.1 -0.1)">
       <defs>
        <path id="DejaVuSans-2e" d="M 684 794 
L 1344 794 
L 1344 0 
L 684 0 
L 684 794 
z
" transform="scale(0.015625)"/>
       </defs>
       <use xlink:href="#DejaVuSans-30"/>
       <use xlink:href="#DejaVuSans-2e" x="63.623047"/>
       <use xlink:href="#DejaVuSans-30" x="95.410156"/>
      </g>
     </g>
    </g>
    <g id="ytick_2">
     <g id="line2d_15">
      <path d="M 54.02 196.230909 
L 565.2 196.230909 
" clip-path="url(#p2eb6c96807)" style="fill: none; stroke: #b0b0b0; stroke-width: 0.8; stroke-linecap: square"/>
     </g>
     <g id="line2d_16">
      <g>
       <use xlink:href="#m588ca7870d" x="54.02" y="196.230909" style="stroke: #000000; stroke-width: 0.8"/>
      </g>
     </g>
     <g id="text_9">
      <!-- 0.2 -->
      <g transform="translate(31.116875 200.030128)scale(0.1 -0.1)">
       <use xlink:href="#DejaVuSans-30"/>
       <use xlink:href="#DejaVuSans-2e" x="63.623047"/>
       <use xlink:href="#DejaVuSans-32" x="95.410156"/>
      </g>
     </g>
    </g>
    <g id="ytick_3">
     <g id="line2d_17">
      <path d="M 54.02 156.383636 
L 565.2 156.383636 
" clip-path="url(#p2eb6c96807)" style="fill: none; stroke: #b0b0b0; stroke-width: 0.8; stroke-linecap: square"/>
     </g>
     <g id="line2d_18">
      <g>
       <use xlink:href="#m588ca7870d" x="54.02" y="156.383636" style="stroke: #000000; stroke-width: 0.8"/>
      </g>
     </g>
     <g id="text_10">
      <!-- 0.4 -->
      <g transform="translate(31.116875 160.182855)scale(0.1 -0.1)">
       <use xlink:href="#DejaVuSans-30"/>
       <use xlink:href="#DejaVuSans-2e" x="63.623047"/>
       <use xlink:href="#DejaVuSans-34" x="95.410156"/>
      </g>
     </g>
    </g>
    <g id="ytick_4">
     <g id="line2d_19">
      <path d="M 54.02 116.536364 
L 565.2 116.536364 
" clip-path="url(#p2eb6c96807)" style="fill: none; stroke: #b0b0b0; stroke-width: 0.8; stroke-linecap: square"/>
     </g>
     <g id="line2d_20">
      <g>
       <use xlink:href="#m588ca7870d" x="54.02" y="116.536364" style="stroke: #000000; stroke-width: 0.8"/>
      </g>
     </g>
     <g id="text_11">
      <!-- 0.6 -->
      <g transform="translate(31.116875 120.335582)scale(0.1 -0.1)">
       <use xlink:href="#DejaVuSans-30"/>
       <use xlink:href="#DejaVuSans-2e" x="63.623047"/>
       <use xlink:href="#DejaVuSans-36" x="95.410156"/>
      </g>
     </g>
    </g>
    <g id="ytick_5">
     <g id="line2d_21">
      <path d="M 54.02 76.689091 
L 565.2 76.689091 
" clip-path="url(#p2eb6c96807)" style="fill: none; stroke: #b0b0b0; stroke-width: 0.8; stroke-linecap: square"/>
     </g>
     <g id="line2d_22">
      <g>
       <use xlink:href="#m588ca7870d" x="54.02" y="76.689091" style="stroke: #000000; stroke-width: 0.8"/>
      </g>
     </g>
     <g id="text_12">
      <!-- 0.8 -->
      <g transform="translate(31.116875 80.48831)scale(0.1 -0.1)">
       <use xlink:href="#DejaVuSans-30"/>
       <use xlink:href="#DejaVuSans-2e" x="63.623047"/>
       <use xlink:href="#DejaVuSans-38" x="95.410156"/>
      </g>
     </g>
    </g>
    <g id="ytick_6">
     <g id="line2d_23">
      <path d="M 54.02 36.841818 
L 565.2 36.841818 
" clip-path="url(#p2eb6c96807)" style="fill: none; stroke: #b0b0b0; stroke-width: 0.8; stroke-linecap: square"/>
     </g>
     <g id="line2d_24">
      <g>
       <use xlink:href="#m588ca7870d" x="54.02" y="36.841818" style="stroke: #000000; stroke-width: 0.8"/>
      </g>
     </g>
     <g id="text_13">
      <!-- 1.0 -->
      <g transform="translate(31.116875 40.641037)scale(0.1 -0.1)">
       <use xlink:href="#DejaVuSans-31"/>
       <use xlink:href="#DejaVuSans-2e" x="63.623047"/>
       <use xlink:href="#DejaVuSans-30" x="95.410156"/>
      </g>
     </g>
    </g>
    <g id="text_14">
     <!-- Amplitude -->
     <g transform="translate(25.037188 162.082656)rotate(-90)scale(0.1 -0.1)">
      <defs>
       <path id="DejaVuSans-41" d="M 2188 4044 
L 1331 1722 
L 3047 1722 
L 2188 4044 
z
M 1831 4666 
L 2547 4666 
L 4325 0 
L 3669 0 
L 3244 1197 
L 1141 1197 
L 716 0 
L 50 0 
L 1831 4666 
z
" transform="scale(0.015625)"/>
       <path id="DejaVuSans-74" d="M 1172 4494 
L 1172 3500 
L 2356 3500 
L 2356 3053 
L 1172 3053 
L 1172 1153 
Q 1172 725 1289 603 
Q 1406 481 1766 481 
L 2356 481 
L 2356 0 
L 1766 0 
Q 1100 0 847 248 
Q 594 497 594 1153 
L 594 3053 
L 172 3053 
L 172 3500 
L 594 3500 
L 594 4494 
L 1172 4494 
z
" transform="scale(0.015625)"/>
       <path id="DejaVuSans-75" d="M 544 1381 
L 544 3500 
L 1119 3500 
L 1119 1403 
Q 1119 906 1312 657 
Q 1506 409 1894 409 
Q 2359 409 2629 706 
Q 2900 1003 2900 1516 
L 2900 3500 
L 3475 3500 
L 3475 0 
L 2900 0 
L 2900 538 
Q 2691 219 2414 64 
Q 2138 -91 1772 -91 
Q 1169 -91 856 284 
Q 544 659 544 1381 
z
M 1991 3584 
L 1991 3584 
z
" transform="scale(0.015625)"/>
       <path id="DejaVuSans-64" d="M 2906 2969 
L 2906 4863 
L 3481 4863 
L 3481 0 
L 2906 0 
L 2906 525 
Q 2725 213 2448 61 
Q 2172 -91 1784 -91 
Q 1150 -91 751 415 
Q 353 922 353 1747 
Q 353 2572 751 3078 
Q 1150 3584 1784 3584 
Q 2172 3584 2448 3432 
Q 2725 3281 2906 2969 
z
M 947 1747 
Q 947 1113 1208 752 
Q 1469 391 1925 391 
Q 2381 391 2643 752 
Q 2906 1113 2906 1747 
Q 2906 2381 2643 2742 
Q 2381 3103 1925 3103 
Q 1469 3103 1208 2742 
Q 947 2381 947 1747 
z
" transform="scale(0.015625)"/>
      </defs>
      <use xlink:href="#DejaVuSans-41"/>
      <use xlink:href="#DejaVuSans-6d" x="68.408203"/>
      <use xlink:href="#DejaVuSans-70" x="165.820312"/>
      <use xlink:href="#DejaVuSans-6c" x="229.296875"/>
      <use xlink:href="#DejaVuSans-69" x="257.080078"/>
      <use xlink:href="#DejaVuSans-74" x="284.863281"/>
      <use xlink:href="#DejaVuSans-75" x="324.072266"/>
      <use xlink:href="#DejaVuSans-64" x="387.451172"/>
      <use xlink:href="#DejaVuSans-65" x="450.927734"/>
     </g>
    </g>
   </g>
   <g id="line2d_25">
    <path d="M 77.255455 236.078157 
L 541.964545 236.078182 
L 541.964545 236.078182 
" clip-path="url(#p2eb6c96807)" style="fill: none; stroke: #0d0887; stroke-width: 1.5; stroke-linecap: square"/>
   </g>
   <g id="line2d_26">
    <path d="M 77.255455 236.078103 
L 79.904561 235.960731 
L 89.01377 235.367387 
L 93.754277 235.420519 
L 118.665176 236.031717 
L 142.600087 236.077051 
L 541.964545 236.078182 
L 541.964545 236.078182 
" clip-path="url(#p2eb6c96807)" style="fill: none; stroke: #310597; stroke-width: 1.5; stroke-linecap: square"/>
   </g>
   <g id="line2d_27">
    <path d="M 77.255455 236.078103 
L 79.81161 235.959217 
L 82.878997 235.581508 
L 95.706251 233.744535 
L 99.749624 233.542472 
L 104.257753 233.546404 
L 109.927771 233.788283 
L 120.663624 234.52431 
L 132.375465 235.233818 
L 142.925416 235.640235 
L 155.706194 235.89798 
L 174.761172 236.036053 
L 220.353693 236.077282 
L 541.964545 236.078182 
L 541.964545 236.078182 
" clip-path="url(#p2eb6c96807)" style="fill: none; stroke: #4c02a1; stroke-width: 1.5; stroke-linecap: square"/>
   </g>
   <g id="line2d_28">
    <path d="M 77.255455 236.078103 
L 79.765135 235.961432 
L 82.553668 235.604153 
L 86.039335 234.919741 
L 100.865037 231.734815 
L 104.954886 231.241221 
L 109.091211 230.967472 
L 113.506389 230.900063 
L 118.525749 231.051466 
L 124.706998 231.471124 
L 134.373914 232.381531 
L 150.779785 233.912639 
L 161.329737 234.65247 
L 172.344443 235.196791 
L 185.03227 235.593353 
L 201.159289 235.862879 
L 225.047725 236.018404 
L 275.891984 236.07499 
L 541.964545 236.078182 
L 541.964545 236.078182 
" clip-path="url(#p2eb6c96807)" style="fill: none; stroke: #6600a7; stroke-width: 1.5; stroke-linecap: square"/>
   </g>
   <g id="line2d_29">
    <path d="M 77.255455 236.078103 
L 79.765135 235.960759 
L 82.460717 235.609487 
L 85.574579 234.971044 
L 89.525002 233.91921 
L 104.490131 229.712045 
L 108.765882 228.871001 
L 112.902206 228.284183 
L 117.085007 227.915395 
L 121.500184 227.752357 
L 126.287167 227.803048 
L 131.678331 228.088018 
L 138.184909 228.663239 
L 147.433545 229.725963 
L 170.531897 232.453617 
L 181.314226 233.451962 
L 192.189506 234.233302 
L 203.947822 234.851 
L 217.425733 235.3296 
L 233.87808 235.681423 
L 255.95397 235.91596 
L 291.275393 236.04217 
L 384.644786 236.077661 
L 541.964545 236.078182 
L 541.964545 236.078182 
" clip-path="url(#p2eb6c96807)" style="fill: none; stroke: #7e03a8; stroke-width: 1.5; stroke-linecap: square"/>
   </g>
   <g id="line2d_30">
    <path d="M 77.255455 236.078103 
L 79.765135 235.960436 
L 82.414241 235.61257 
L 85.388677 234.990548 
L 88.874344 234.022371 
L 93.475424 232.494702 
L 106.767433 227.951668 
L 111.368513 226.692355 
L 115.644264 225.750795 
L 119.827064 225.055548 
L 124.05634 224.57712 
L 128.471518 224.30442 
L 133.119074 224.242784 
L 138.184909 224.4018 
L 143.901403 224.810389 
L 150.686834 225.527901 
L 159.749568 226.726757 
L 191.074093 231.042979 
L 202.042324 232.230513 
L 213.057031 233.198322 
L 224.722396 233.996888 
L 237.549649 234.647645 
L 252.282401 235.165912 
L 270.036064 235.559462 
L 293.134415 235.83654 
L 327.340425 236.003742 
L 396.031298 236.071913 
L 541.964545 236.078156 
L 541.964545 236.078156 
" clip-path="url(#p2eb6c96807)" style="fill: none; stroke: #9511a1; stroke-width: 1.5; stroke-linecap: square"/>
   </g>
   <g id="line2d_31">
    <path d="M 77.255455 236.078103 
L 79.765135 235.960256 
L 82.414241 235.609888 
L 85.295726 234.999589 
L 88.549015 234.076311 
L 92.452962 232.727353 
L 98.030028 230.541151 
L 108.626455 226.364544 
L 113.645815 224.653974 
L 118.153944 223.350381 
L 122.476171 222.331414 
L 126.751922 221.552899 
L 131.074149 220.994129 
L 135.489327 220.647963 
L 140.136883 220.508496 
L 145.109767 220.585556 
L 150.547407 220.89732 
L 156.682181 221.478298 
L 163.978843 222.402093 
L 173.692235 223.87234 
L 206.922258 229.072495 
L 218.262293 230.522686 
L 229.416427 231.723919 
L 240.942365 232.739104 
L 253.211912 233.593748 
L 266.736299 234.308391 
L 282.073233 234.890567 
L 300.1987 235.348988 
L 322.878771 235.690062 
L 353.924443 235.919093 
L 404.536324 236.042861 
L 541.313888 236.077675 
L 541.964545 236.077685 
L 541.964545 236.077685 
" clip-path="url(#p2eb6c96807)" style="fill: none; stroke: #aa2395; stroke-width: 1.5; stroke-linecap: square"/>
   </g>
   <g id="line2d_32">
    <path d="M 77.255455 236.078103 
L 79.765135 235.960146 
L 82.414241 235.608221 
L 85.24925 235.002701 
L 88.409588 234.092365 
L 92.034682 232.807889 
L 96.589286 230.943555 
L 104.861935 227.26008 
L 112.112122 224.143733 
L 117.270909 222.166594 
L 121.918464 220.620224 
L 126.333642 219.383216 
L 130.655869 218.401299 
L 134.978096 217.646199 
L 139.393274 217.101797 
L 143.947878 216.766736 
L 148.688385 216.642259 
L 153.754221 216.734777 
L 159.238336 217.061498 
L 165.326634 217.651863 
L 172.344443 218.562074 
L 181.035373 219.923882 
L 194.513284 222.291104 
L 215.380809 225.933193 
L 227.650356 227.833639 
L 239.083343 229.380024 
L 250.469854 230.695548 
L 262.22817 231.828837 
L 274.683619 232.803643 
L 288.208006 233.635669 
L 303.266087 234.334617 
L 320.508518 234.906786 
L 341.09719 235.359556 
L 367.03055 235.696464 
L 402.770253 235.922407 
L 461.608308 236.044085 
L 541.964545 236.074133 
L 541.964545 236.074133 
" clip-path="url(#p2eb6c96807)" style="fill: none; stroke: #bc3587; stroke-width: 1.5; stroke-linecap: square"/>
   </g>
   <g id="line2d_33">
    <path d="M 77.255455 236.078103 
L 79.765135 235.960074 
L 82.367766 235.615195 
L 85.156299 235.020533 
L 88.223686 234.134075 
L 91.662877 232.902734 
L 95.752726 231.192288 
L 101.236842 228.636878 
L 116.341398 221.475967 
L 121.54666 219.328768 
L 126.287167 217.612654 
L 130.795296 216.2163 
L 135.210474 215.081537 
L 139.579176 214.186813 
L 143.994354 213.507998 
L 148.548958 213.034532 
L 153.24299 212.771698 
L 158.169399 212.720297 
L 163.421137 212.890957 
L 169.091154 213.300905 
L 175.365355 213.981324 
L 182.569066 214.992642 
L 191.352946 216.461233 
L 203.947822 218.8158 
L 230.578316 223.832843 
L 243.126716 225.934895 
L 254.838556 227.672172 
L 266.457446 229.170196 
L 278.308713 230.473045 
L 290.717686 231.611839 
L 303.96322 232.601714 
L 318.417118 233.455195 
L 334.497661 234.177588 
L 352.901981 234.776232 
L 374.699017 235.25556 
L 401.840742 235.620067 
L 438.324054 235.873473 
L 495.024233 236.021421 
L 541.964545 236.058944 
L 541.964545 236.058944 
" clip-path="url(#p2eb6c96807)" style="fill: none; stroke: #cc4778; stroke-width: 1.5; stroke-linecap: square"/>
   </g>
   <g id="line2d_34">
    <path d="M 77.255455 236.078103 
L 79.765135 235.960024 
L 82.367766 235.61445 
L 85.156299 235.016725 
L 88.17721 234.136648 
L 91.52345 232.924454 
L 95.380922 231.282541 
L 100.167904 228.98903 
L 107.789895 225.051779 
L 117.085007 220.312625 
L 122.755025 217.677451 
L 127.727909 215.607046 
L 132.42194 213.891899 
L 136.930069 212.479158 
L 141.391723 211.313337 
L 145.853376 210.378037 
L 150.361505 209.661167 
L 154.962585 209.155444 
L 159.703092 208.858211 
L 164.675977 208.77094 
L 169.927714 208.903534 
L 175.551257 209.270314 
L 181.68603 209.89605 
L 188.564413 210.82564 
L 196.604684 212.144626 
L 206.736355 214.044911 
L 224.350591 217.619471 
L 243.033765 221.329909 
L 256.093397 223.693915 
L 268.177041 225.655739 
L 280.028308 227.353868 
L 292.019002 228.845972 
L 304.427975 230.163892 
L 317.487607 231.324747 
L 331.476749 232.341936 
L 346.720732 233.223914 
L 363.68431 233.978241 
L 383.018142 234.609783 
L 405.744689 235.122574 
L 433.630023 235.520213 
L 470.206286 235.806635 
L 524.071456 235.986214 
L 541.964545 236.014284 
L 541.964545 236.014284 
" clip-path="url(#p2eb6c96807)" style="fill: none; stroke: #da5a6a; stroke-width: 1.5; stroke-linecap: square"/>
   </g>
   <g id="line2d_35">
    <path d="M 77.255455 236.078103 
L 79.765135 235.959988 
L 82.367766 235.613909 
L 85.156299 235.013945 
L 88.130735 234.142803 
L 91.430499 232.937607 
L 95.148544 231.33457 
L 99.563722 229.178266 
L 105.466117 226.02916 
L 121.593136 217.302579 
L 127.123727 214.63496 
L 132.143087 212.458813 
L 136.883594 210.645228 
L 141.484674 209.123441 
L 145.992803 207.865606 
L 150.500932 206.838021 
L 155.055536 206.028371 
L 159.703092 205.429569 
L 164.490074 205.039566 
L 169.462959 204.860743 
L 174.668221 204.898938 
L 180.198813 205.165277 
L 186.147684 205.678157 
L 192.654262 206.465973 
L 199.9974 207.584723 
L 208.595378 209.126804 
L 219.65656 211.34968 
L 267.340481 221.199118 
L 279.842406 223.400668 
L 291.926051 225.303556 
L 304.056171 226.98843 
L 316.465145 228.486717 
L 329.385349 229.821435 
L 343.049163 231.007372 
L 357.735439 232.055552 
L 373.72303 232.97 
L 391.476693 233.758279 
L 411.600609 234.42399 
L 435.070765 234.971501 
L 463.513806 235.404259 
L 499.997118 235.725511 
L 541.964545 235.912778 
L 541.964545 235.912778 
" clip-path="url(#p2eb6c96807)" style="fill: none; stroke: #e66c5c; stroke-width: 1.5; stroke-linecap: square"/>
   </g>
   <g id="line2d_36">
    <path d="M 77.255455 236.078103 
L 79.765135 235.959962 
L 82.367766 235.613505 
L 85.109824 235.0237 
L 88.084259 234.151354 
L 91.291073 232.975784 
L 94.916166 231.402348 
L 99.098966 229.334793 
L 104.304229 226.501031 
L 113.18106 221.367792 
L 122.197318 216.247841 
L 128.146189 213.125918 
L 133.397927 210.617447 
L 138.27786 208.528942 
L 142.971892 206.75836 
L 147.572972 205.258415 
L 152.127576 204.005738 
L 156.682181 202.981672 
L 161.283261 202.173065 
L 165.977292 201.572424 
L 170.81075 201.17762 
L 175.83011 200.991255 
L 181.081848 201.019737 
L 186.658915 201.275079 
L 192.607786 201.772413 
L 199.114364 202.543985 
L 206.318075 203.626842 
L 214.590724 205.100996 
L 224.722396 207.142502 
L 239.455147 210.362071 
L 267.758761 216.566678 
L 281.654953 219.357169 
L 294.389255 221.688573 
L 306.751753 223.726141 
L 319.114251 225.53815 
L 331.755603 227.164855 
L 344.815234 228.620043 
L 358.571999 229.926937 
L 373.211799 231.091372 
L 389.013489 232.12156 
L 406.302396 233.022033 
L 425.589752 233.799234 
L 447.526214 234.455421 
L 473.227197 234.995272 
L 504.505247 235.421456 
L 541.964545 235.720668 
L 541.964545 235.720668 
" clip-path="url(#p2eb6c96807)" style="fill: none; stroke: #f0804e; stroke-width: 1.5; stroke-linecap: square"/>
   </g>
   <g id="line2d_37">
    <path d="M 77.255455 236.078103 
L 79.765135 235.959941 
L 82.367766 235.613194 
L 85.109824 235.022123 
L 88.037784 234.161557 
L 91.244597 232.981106 
L 94.776739 231.43739 
L 98.820113 229.418594 
L 103.653571 226.74658 
L 110.392526 222.744705 
L 124.985851 214.022523 
L 130.981198 210.740357 
L 136.325887 208.06469 
L 141.298772 205.820528 
L 146.085754 203.901851 
L 150.779785 202.25977 
L 155.427341 200.870524 
L 160.074896 199.715138 
L 164.722452 198.788376 
L 169.462959 198.070104 
L 174.296417 197.562321 
L 179.315777 197.260312 
L 184.521039 197.171611 
L 190.005155 197.303569 
L 195.8146 197.669273 
L 202.042324 198.287481 
L 208.827755 199.188053 
L 216.403271 200.42271 
L 225.140676 202.0786 
L 235.923005 204.359101 
L 252.282401 208.075144 
L 278.448139 214.003339 
L 292.855562 217.023185 
L 305.961669 219.544508 
L 318.60302 221.750909 
L 331.197896 223.723467 
L 343.978674 225.499344 
L 357.131257 227.101395 
L 370.841546 228.546165 
L 385.34192 229.848262 
L 400.81828 231.011928 
L 417.54948 232.043899 
L 435.907325 232.949825 
L 456.403046 233.734108 
L 479.733775 234.399104 
L 507.061402 234.948822 
L 540.24495 235.385248 
L 541.964545 235.402689 
L 541.964545 235.402689 
" clip-path="url(#p2eb6c96807)" style="fill: none; stroke: #f89540; stroke-width: 1.5; stroke-linecap: square"/>
   </g>
   <g id="line2d_38">
    <path d="M 77.255455 236.078103 
L 79.765135 235.959925 
L 82.367766 235.612951 
L 85.109824 235.020882 
L 88.037784 234.157501 
L 91.198122 232.989404 
L 94.683788 231.457683 
L 98.587735 229.493641 
L 103.188815 226.921475 
L 109.137686 223.324294 
L 130.562918 210.138019 
L 136.279411 207.013921 
L 141.484674 204.418412 
L 146.457558 202.185485 
L 151.244541 200.277261 
L 155.938572 198.642262 
L 160.632603 197.242506 
L 165.326634 196.075447 
L 170.067141 195.127144 
L 174.854124 194.395712 
L 179.780533 193.868752 
L 184.846368 193.551406 
L 190.098106 193.44552 
L 195.628697 193.558769 
L 201.484617 193.905013 
L 207.712342 194.498848 
L 214.451298 195.367219 
L 221.933862 196.560665 
L 230.392414 198.140456 
L 240.477609 200.258137 
L 253.955521 203.331607 
L 296.294753 213.133864 
L 310.330371 216.06783 
L 323.482954 218.591411 
L 336.356683 220.835303 
L 349.230412 222.853334 
L 362.336519 224.682046 
L 375.860906 226.343117 
L 389.943 227.847116 
L 404.815178 229.209393 
L 420.663343 230.43461 
L 437.719872 231.527093 
L 456.35657 232.494215 
L 476.991717 233.338208 
L 500.275971 234.063158 
L 527.185318 234.672324 
L 541.964545 234.926708 
L 541.964545 234.926708 
" clip-path="url(#p2eb6c96807)" style="fill: none; stroke: #fdac33; stroke-width: 1.5; stroke-linecap: square"/>
   </g>
   <g id="line2d_39">
    <path d="M 77.255455 236.078103 
L 79.765135 235.959913 
L 82.367766 235.612757 
L 85.109824 235.019887 
L 88.037784 234.15424 
L 91.198122 232.981 
L 94.637313 231.46097 
L 98.494784 229.505249 
L 102.956437 226.984077 
L 108.487029 223.58914 
L 117.36386 217.836925 
L 128.006762 211.00816 
L 134.466865 207.133142 
L 140.090407 204.014773 
L 145.295669 201.377808 
L 150.268554 199.103752 
L 155.102012 197.134765 
L 159.888994 195.424699 
L 164.629501 193.96752 
L 169.370008 192.742795 
L 174.15699 191.736235 
L 178.990448 190.946247 
L 183.963333 190.35988 
L 189.075644 189.982872 
L 194.373857 189.817362 
L 199.904449 189.869704 
L 205.713893 190.149411 
L 211.895142 190.672612 
L 218.541147 191.461874 
L 225.791334 192.550685 
L 233.87808 193.994603 
L 243.219667 195.894965 
L 254.745605 198.477416 
L 272.220415 202.649378 
L 300.012798 209.268634 
L 315.25678 212.654453 
L 329.06002 215.493807 
L 342.305554 217.99215 
L 355.411661 220.238011 
L 368.610719 222.273942 
L 382.088631 224.127419 
L 396.031298 225.819122 
L 410.578147 227.358551 
L 425.915081 228.756011 
L 442.228001 230.017054 
L 459.795761 231.149416 
L 478.943691 232.157252 
L 500.090069 233.043279 
L 523.792603 233.809257 
L 541.964545 234.267011 
L 541.964545 234.267011 
" clip-path="url(#p2eb6c96807)" style="fill: none; stroke: #fdc527; stroke-width: 1.5; stroke-linecap: square"/>
   </g>
   <g id="line2d_40">
    <path d="M 77.255455 236.078103 
L 79.765135 235.959902 
L 82.367766 235.612599 
L 85.109824 235.019078 
L 88.037784 234.15158 
L 91.151646 232.993098 
L 94.544362 231.490023 
L 98.308882 229.57457 
L 102.631108 227.117993 
L 107.836371 223.892055 
L 115.086558 219.11275 
L 130.74882 208.730341 
L 137.162447 204.789517 
L 142.832465 201.562149 
L 148.130678 198.800239 
L 153.196514 196.409407 
L 158.122923 194.330254 
L 162.956381 192.531404 
L 167.743363 190.986238 
L 172.530346 189.673944 
L 177.363804 188.579937 
L 182.243737 187.703165 
L 187.216622 187.035029 
L 192.328933 186.572817 
L 197.627146 186.319093 
L 203.111262 186.280323 
L 208.874231 186.464133 
L 214.962529 186.883744 
L 221.469107 187.558974 
L 228.486916 188.514778 
L 236.201858 189.794588 
L 244.892787 191.467716 
L 255.070934 193.661397 
L 268.08409 196.707118 
L 294.668109 203.226852 
L 314.048416 207.846275 
L 329.199447 211.230443 
L 343.142114 214.118509 
L 356.620026 216.68409 
L 370.004986 219.005398 
L 383.482897 221.116791 
L 397.239662 223.04639 
L 411.461182 224.815352 
L 426.286885 226.433365 
L 441.856196 227.906806 
L 458.355019 229.243007 
L 476.062206 230.451271 
L 495.210135 231.532084 
L 516.217087 232.491552 
L 539.594292 233.332136 
L 541.964545 233.405951 
L 541.964545 233.405951 
" clip-path="url(#p2eb6c96807)" style="fill: none; stroke: #f8df25; stroke-width: 1.5; stroke-linecap: square"/>
   </g>
   <g id="patch_3">
    <path d="M 54.02 246.04 
L 54.02 26.88 
" style="fill: none; stroke: #000000; stroke-width: 0.8; stroke-linejoin: miter; stroke-linecap: square"/>
   </g>
   <g id="patch_4">
    <path d="M 565.2 246.04 
L 565.2 26.88 
" style="fill: none; stroke: #000000; stroke-width: 0.8; stroke-linejoin: miter; stroke-linecap: square"/>
   </g>
   <g id="patch_5">
    <path d="M 54.02 246.04 
L 565.2 246.04 
" style="fill: none; stroke: #000000; stroke-width: 0.8; stroke-linejoin: miter; stroke-linecap: square"/>
   </g>
   <g id="patch_6">
    <path d="M 54.02 26.88 
L 565.2 26.88 
" style="fill: none; stroke: #000000; stroke-width: 0.8; stroke-linejoin: miter; stroke-linecap: square"/>
   </g>
   <g id="text_15">
    <!-- AD Envelope Using Double EMA Filter with Varying k_D (k_A = 6.281e-04) -->
    <g transform="translate(88.852188 20.88)scale(0.12 -0.12)">
     <defs>
      <path id="DejaVuSans-44" d="M 1259 4147 
L 1259 519 
L 2022 519 
Q 2988 519 3436 956 
Q 3884 1394 3884 2338 
Q 3884 3275 3436 3711 
Q 2988 4147 2022 4147 
L 1259 4147 
z
M 628 4666 
L 1925 4666 
Q 3281 4666 3915 4102 
Q 4550 3538 4550 2338 
Q 4550 1131 3912 565 
Q 3275 0 1925 0 
L 628 0 
L 628 4666 
z
" transform="scale(0.015625)"/>
      <path id="DejaVuSans-45" d="M 628 4666 
L 3578 4666 
L 3578 4134 
L 1259 4134 
L 1259 2753 
L 3481 2753 
L 3481 2222 
L 1259 2222 
L 1259 531 
L 3634 531 
L 3634 0 
L 628 0 
L 628 4666 
z
" transform="scale(0.015625)"/>
      <path id="DejaVuSans-6e" d="M 3513 2113 
L 3513 0 
L 2938 0 
L 2938 2094 
Q 2938 2591 2744 2837 
Q 2550 3084 2163 3084 
Q 1697 3084 1428 2787 
Q 1159 2491 1159 1978 
L 1159 0 
L 581 0 
L 581 3500 
L 1159 3500 
L 1159 2956 
Q 1366 3272 1645 3428 
Q 1925 3584 2291 3584 
Q 2894 3584 3203 3211 
Q 3513 2838 3513 2113 
z
" transform="scale(0.015625)"/>
      <path id="DejaVuSans-76" d="M 191 3500 
L 800 3500 
L 1894 563 
L 2988 3500 
L 3597 3500 
L 2284 0 
L 1503 0 
L 191 3500 
z
" transform="scale(0.015625)"/>
      <path id="DejaVuSans-6f" d="M 1959 3097 
Q 1497 3097 1228 2736 
Q 959 2375 959 1747 
Q 959 1119 1226 758 
Q 1494 397 1959 397 
Q 2419 397 2687 759 
Q 2956 1122 2956 1747 
Q 2956 2369 2687 2733 
Q 2419 3097 1959 3097 
z
M 1959 3584 
Q 2709 3584 3137 3096 
Q 3566 2609 3566 1747 
Q 3566 888 3137 398 
Q 2709 -91 1959 -91 
Q 1206 -91 779 398 
Q 353 888 353 1747 
Q 353 2609 779 3096 
Q 1206 3584 1959 3584 
z
" transform="scale(0.015625)"/>
      <path id="DejaVuSans-55" d="M 556 4666 
L 1191 4666 
L 1191 1831 
Q 1191 1081 1462 751 
Q 1734 422 2344 422 
Q 2950 422 3222 751 
Q 3494 1081 3494 1831 
L 3494 4666 
L 4128 4666 
L 4128 1753 
Q 4128 841 3676 375 
Q 3225 -91 2344 -91 
Q 1459 -91 1007 375 
Q 556 841 556 1753 
L 556 4666 
z
" transform="scale(0.015625)"/>
      <path id="DejaVuSans-67" d="M 2906 1791 
Q 2906 2416 2648 2759 
Q 2391 3103 1925 3103 
Q 1463 3103 1205 2759 
Q 947 2416 947 1791 
Q 947 1169 1205 825 
Q 1463 481 1925 481 
Q 2391 481 2648 825 
Q 2906 1169 2906 1791 
z
M 3481 434 
Q 3481 -459 3084 -895 
Q 2688 -1331 1869 -1331 
Q 1566 -1331 1297 -1286 
Q 1028 -1241 775 -1147 
L 775 -588 
Q 1028 -725 1275 -790 
Q 1522 -856 1778 -856 
Q 2344 -856 2625 -561 
Q 2906 -266 2906 331 
L 2906 616 
Q 2728 306 2450 153 
Q 2172 0 1784 0 
Q 1141 0 747 490 
Q 353 981 353 1791 
Q 353 2603 747 3093 
Q 1141 3584 1784 3584 
Q 2172 3584 2450 3431 
Q 2728 3278 2906 2969 
L 2906 3500 
L 3481 3500 
L 3481 434 
z
" transform="scale(0.015625)"/>
      <path id="DejaVuSans-62" d="M 3116 1747 
Q 3116 2381 2855 2742 
Q 2594 3103 2138 3103 
Q 1681 3103 1420 2742 
Q 1159 2381 1159 1747 
Q 1159 1113 1420 752 
Q 1681 391 2138 391 
Q 2594 391 2855 752 
Q 3116 1113 3116 1747 
z
M 1159 2969 
Q 1341 3281 1617 3432 
Q 1894 3584 2278 3584 
Q 2916 3584 3314 3078 
Q 3713 2572 3713 1747 
Q 3713 922 3314 415 
Q 2916 -91 2278 -91 
Q 1894 -91 1617 61 
Q 1341 213 1159 525 
L 1159 0 
L 581 0 
L 581 4863 
L 1159 4863 
L 1159 2969 
z
" transform="scale(0.015625)"/>
      <path id="DejaVuSans-4d" d="M 628 4666 
L 1569 4666 
L 2759 1491 
L 3956 4666 
L 4897 4666 
L 4897 0 
L 4281 0 
L 4281 4097 
L 3078 897 
L 2444 897 
L 1241 4097 
L 1241 0 
L 628 0 
L 628 4666 
z
" transform="scale(0.015625)"/>
      <path id="DejaVuSans-46" d="M 628 4666 
L 3309 4666 
L 3309 4134 
L 1259 4134 
L 1259 2759 
L 3109 2759 
L 3109 2228 
L 1259 2228 
L 1259 0 
L 628 0 
L 628 4666 
z
" transform="scale(0.015625)"/>
      <path id="DejaVuSans-72" d="M 2631 2963 
Q 2534 3019 2420 3045 
Q 2306 3072 2169 3072 
Q 1681 3072 1420 2755 
Q 1159 2438 1159 1844 
L 1159 0 
L 581 0 
L 581 3500 
L 1159 3500 
L 1159 2956 
Q 1341 3275 1631 3429 
Q 1922 3584 2338 3584 
Q 2397 3584 2469 3576 
Q 2541 3569 2628 3553 
L 2631 2963 
z
" transform="scale(0.015625)"/>
      <path id="DejaVuSans-77" d="M 269 3500 
L 844 3500 
L 1563 769 
L 2278 3500 
L 2956 3500 
L 3675 769 
L 4391 3500 
L 4966 3500 
L 4050 0 
L 3372 0 
L 2619 2869 
L 1863 0 
L 1184 0 
L 269 3500 
z
" transform="scale(0.015625)"/>
      <path id="DejaVuSans-68" d="M 3513 2113 
L 3513 0 
L 2938 0 
L 2938 2094 
Q 2938 2591 2744 2837 
Q 2550 3084 2163 3084 
Q 1697 3084 1428 2787 
Q 1159 2491 1159 1978 
L 1159 0 
L 581 0 
L 581 4863 
L 1159 4863 
L 1159 2956 
Q 1366 3272 1645 3428 
Q 1925 3584 2291 3584 
Q 2894 3584 3203 3211 
Q 3513 2838 3513 2113 
z
" transform="scale(0.015625)"/>
      <path id="DejaVuSans-56" d="M 1831 0 
L 50 4666 
L 709 4666 
L 2188 738 
L 3669 4666 
L 4325 4666 
L 2547 0 
L 1831 0 
z
" transform="scale(0.015625)"/>
      <path id="DejaVuSans-79" d="M 2059 -325 
Q 1816 -950 1584 -1140 
Q 1353 -1331 966 -1331 
L 506 -1331 
L 506 -850 
L 844 -850 
Q 1081 -850 1212 -737 
Q 1344 -625 1503 -206 
L 1606 56 
L 191 3500 
L 800 3500 
L 1894 763 
L 2988 3500 
L 3597 3500 
L 2059 -325 
z
" transform="scale(0.015625)"/>
      <path id="DejaVuSans-6b" d="M 581 4863 
L 1159 4863 
L 1159 1991 
L 2875 3500 
L 3609 3500 
L 1753 1863 
L 3688 0 
L 2938 0 
L 1159 1709 
L 1159 0 
L 581 0 
L 581 4863 
z
" transform="scale(0.015625)"/>
      <path id="DejaVuSans-5f" d="M 3263 -1063 
L 3263 -1509 
L -63 -1509 
L -63 -1063 
L 3263 -1063 
z
" transform="scale(0.015625)"/>
      <path id="DejaVuSans-28" d="M 1984 4856 
Q 1566 4138 1362 3434 
Q 1159 2731 1159 2009 
Q 1159 1288 1364 580 
Q 1569 -128 1984 -844 
L 1484 -844 
Q 1016 -109 783 600 
Q 550 1309 550 2009 
Q 550 2706 781 3412 
Q 1013 4119 1484 4856 
L 1984 4856 
z
" transform="scale(0.015625)"/>
      <path id="DejaVuSans-3d" d="M 678 2906 
L 4684 2906 
L 4684 2381 
L 678 2381 
L 678 2906 
z
M 678 1631 
L 4684 1631 
L 4684 1100 
L 678 1100 
L 678 1631 
z
" transform="scale(0.015625)"/>
      <path id="DejaVuSans-2d" d="M 313 2009 
L 1997 2009 
L 1997 1497 
L 313 1497 
L 313 2009 
z
" transform="scale(0.015625)"/>
      <path id="DejaVuSans-29" d="M 513 4856 
L 1013 4856 
Q 1481 4119 1714 3412 
Q 1947 2706 1947 2009 
Q 1947 1309 1714 600 
Q 1481 -109 1013 -844 
L 513 -844 
Q 928 -128 1133 580 
Q 1338 1288 1338 2009 
Q 1338 2731 1133 3434 
Q 928 4138 513 4856 
z
" transform="scale(0.015625)"/>
     </defs>
     <use xlink:href="#DejaVuSans-41"/>
     <use xlink:href="#DejaVuSans-44" x="68.408203"/>
     <use xlink:href="#DejaVuSans-20" x="145.410156"/>
     <use xlink:href="#DejaVuSans-45" x="177.197266"/>
     <use xlink:href="#DejaVuSans-6e" x="240.380859"/>
     <use xlink:href="#DejaVuSans-76" x="303.759766"/>
     <use xlink:href="#DejaVuSans-65" x="362.939453"/>
     <use xlink:href="#DejaVuSans-6c" x="424.462891"/>
     <use xlink:href="#DejaVuSans-6f" x="452.246094"/>
     <use xlink:href="#DejaVuSans-70" x="513.427734"/>
     <use xlink:href="#DejaVuSans-65" x="576.904297"/>
     <use xlink:href="#DejaVuSans-20" x="638.427734"/>
     <use xlink:href="#DejaVuSans-55" x="670.214844"/>
     <use xlink:href="#DejaVuSans-73" x="743.408203"/>
     <use xlink:href="#DejaVuSans-69" x="795.507812"/>
     <use xlink:href="#DejaVuSans-6e" x="823.291016"/>
     <use xlink:href="#DejaVuSans-67" x="886.669922"/>
     <use xlink:href="#DejaVuSans-20" x="950.146484"/>
     <use xlink:href="#DejaVuSans-44" x="981.933594"/>
     <use xlink:href="#DejaVuSans-6f" x="1058.935547"/>
     <use xlink:href="#DejaVuSans-75" x="1120.117188"/>
     <use xlink:href="#DejaVuSans-62" x="1183.496094"/>
     <use xlink:href="#DejaVuSans-6c" x="1246.972656"/>
     <use xlink:href="#DejaVuSans-65" x="1274.755859"/>
     <use xlink:href="#DejaVuSans-20" x="1336.279297"/>
     <use xlink:href="#DejaVuSans-45" x="1368.066406"/>
     <use xlink:href="#DejaVuSans-4d" x="1431.25"/>
     <use xlink:href="#DejaVuSans-41" x="1517.529297"/>
     <use xlink:href="#DejaVuSans-20" x="1585.9375"/>
     <use xlink:href="#DejaVuSans-46" x="1617.724609"/>
     <use xlink:href="#DejaVuSans-69" x="1667.994141"/>
     <use xlink:href="#DejaVuSans-6c" x="1695.777344"/>
     <use xlink:href="#DejaVuSans-74" x="1723.560547"/>
     <use xlink:href="#DejaVuSans-65" x="1762.769531"/>
     <use xlink:href="#DejaVuSans-72" x="1824.292969"/>
     <use xlink:href="#DejaVuSans-20" x="1865.40625"/>
     <use xlink:href="#DejaVuSans-77" x="1897.193359"/>
     <use xlink:href="#DejaVuSans-69" x="1978.980469"/>
     <use xlink:href="#DejaVuSans-74" x="2006.763672"/>
     <use xlink:href="#DejaVuSans-68" x="2045.972656"/>
     <use xlink:href="#DejaVuSans-20" x="2109.351562"/>
     <use xlink:href="#DejaVuSans-56" x="2141.138672"/>
     <use xlink:href="#DejaVuSans-61" x="2201.796875"/>
     <use xlink:href="#DejaVuSans-72" x="2263.076172"/>
     <use xlink:href="#DejaVuSans-79" x="2304.189453"/>
     <use xlink:href="#DejaVuSans-69" x="2363.369141"/>
     <use xlink:href="#DejaVuSans-6e" x="2391.152344"/>
     <use xlink:href="#DejaVuSans-67" x="2454.53125"/>
     <use xlink:href="#DejaVuSans-20" x="2518.007812"/>
     <use xlink:href="#DejaVuSans-6b" x="2549.794922"/>
     <use xlink:href="#DejaVuSans-5f" x="2607.705078"/>
     <use xlink:href="#DejaVuSans-44" x="2657.705078"/>
     <use xlink:href="#DejaVuSans-20" x="2734.707031"/>
     <use xlink:href="#DejaVuSans-28" x="2766.494141"/>
     <use xlink:href="#DejaVuSans-6b" x="2805.507812"/>
     <use xlink:href="#DejaVuSans-5f" x="2863.417969"/>
     <use xlink:href="#DejaVuSans-41" x="2913.417969"/>
     <use xlink:href="#DejaVuSans-20" x="2981.826172"/>
     <use xlink:href="#DejaVuSans-3d" x="3013.613281"/>
     <use xlink:href="#DejaVuSans-20" x="3097.402344"/>
     <use xlink:href="#DejaVuSans-36" x="3129.189453"/>
     <use xlink:href="#DejaVuSans-2e" x="3192.8125"/>
     <use xlink:href="#DejaVuSans-32" x="3224.599609"/>
     <use xlink:href="#DejaVuSans-38" x="3288.222656"/>
     <use xlink:href="#DejaVuSans-31" x="3351.845703"/>
     <use xlink:href="#DejaVuSans-65" x="3415.46875"/>
     <use xlink:href="#DejaVuSans-2d" x="3476.992188"/>
     <use xlink:href="#DejaVuSans-30" x="3513.076172"/>
     <use xlink:href="#DejaVuSans-34" x="3576.699219"/>
     <use xlink:href="#DejaVuSans-29" x="3640.322266"/>
    </g>
   </g>
   <g id="legend_1">
    <g id="patch_7">
     <path d="M 323.95 154.53 
L 558.2 154.53 
Q 560.2 154.53 560.2 152.53 
L 560.2 33.88 
Q 560.2 31.88 558.2 31.88 
L 323.95 31.88 
Q 321.95 31.88 321.95 33.88 
L 321.95 152.53 
Q 321.95 154.53 323.95 154.53 
z
" style="fill: #ffffff; opacity: 0.8; stroke: #cccccc; stroke-linejoin: miter"/>
    </g>
    <g id="line2d_41">
     <path d="M 325.95 39.978437 
L 335.95 39.978437 
L 345.95 39.978437 
" style="fill: none; stroke: #0d0887; stroke-width: 1.5; stroke-linecap: square"/>
    </g>
    <g id="text_16">
     <!-- k_A=6.281e-04 -->
     <g transform="translate(353.95 43.478437)scale(0.1 -0.1)">
      <use xlink:href="#DejaVuSans-6b"/>
      <use xlink:href="#DejaVuSans-5f" x="57.910156"/>
      <use xlink:href="#DejaVuSans-41" x="107.910156"/>
      <use xlink:href="#DejaVuSans-3d" x="176.318359"/>
      <use xlink:href="#DejaVuSans-36" x="260.107422"/>
      <use xlink:href="#DejaVuSans-2e" x="323.730469"/>
      <use xlink:href="#DejaVuSans-32" x="355.517578"/>
      <use xlink:href="#DejaVuSans-38" x="419.140625"/>
      <use xlink:href="#DejaVuSans-31" x="482.763672"/>
      <use xlink:href="#DejaVuSans-65" x="546.386719"/>
      <use xlink:href="#DejaVuSans-2d" x="607.910156"/>
      <use xlink:href="#DejaVuSans-30" x="643.994141"/>
      <use xlink:href="#DejaVuSans-34" x="707.617188"/>
     </g>
    </g>
    <g id="line2d_42">
     <path d="M 325.95 54.934687 
L 335.95 54.934687 
L 345.95 54.934687 
" style="fill: none; stroke: #310597; stroke-width: 1.5; stroke-linecap: square"/>
    </g>
    <g id="text_17">
     <!-- k_A=6.281e-04 -->
     <g transform="translate(353.95 58.434687)scale(0.1 -0.1)">
      <use xlink:href="#DejaVuSans-6b"/>
      <use xlink:href="#DejaVuSans-5f" x="57.910156"/>
      <use xlink:href="#DejaVuSans-41" x="107.910156"/>
      <use xlink:href="#DejaVuSans-3d" x="176.318359"/>
      <use xlink:href="#DejaVuSans-36" x="260.107422"/>
      <use xlink:href="#DejaVuSans-2e" x="323.730469"/>
      <use xlink:href="#DejaVuSans-32" x="355.517578"/>
      <use xlink:href="#DejaVuSans-38" x="419.140625"/>
      <use xlink:href="#DejaVuSans-31" x="482.763672"/>
      <use xlink:href="#DejaVuSans-65" x="546.386719"/>
      <use xlink:href="#DejaVuSans-2d" x="607.910156"/>
      <use xlink:href="#DejaVuSans-30" x="643.994141"/>
      <use xlink:href="#DejaVuSans-34" x="707.617188"/>
     </g>
    </g>
    <g id="line2d_43">
     <path d="M 325.95 69.890937 
L 335.95 69.890937 
L 345.95 69.890937 
" style="fill: none; stroke: #4c02a1; stroke-width: 1.5; stroke-linecap: square"/>
    </g>
    <g id="text_18">
     <!-- k_A=6.281e-04 -->
     <g transform="translate(353.95 73.390937)scale(0.1 -0.1)">
      <use xlink:href="#DejaVuSans-6b"/>
      <use xlink:href="#DejaVuSans-5f" x="57.910156"/>
      <use xlink:href="#DejaVuSans-41" x="107.910156"/>
      <use xlink:href="#DejaVuSans-3d" x="176.318359"/>
      <use xlink:href="#DejaVuSans-36" x="260.107422"/>
      <use xlink:href="#DejaVuSans-2e" x="323.730469"/>
      <use xlink:href="#DejaVuSans-32" x="355.517578"/>
      <use xlink:href="#DejaVuSans-38" x="419.140625"/>
      <use xlink:href="#DejaVuSans-31" x="482.763672"/>
      <use xlink:href="#DejaVuSans-65" x="546.386719"/>
      <use xlink:href="#DejaVuSans-2d" x="607.910156"/>
      <use xlink:href="#DejaVuSans-30" x="643.994141"/>
      <use xlink:href="#DejaVuSans-34" x="707.617188"/>
     </g>
    </g>
    <g id="line2d_44">
     <path d="M 325.95 84.847187 
L 335.95 84.847187 
L 345.95 84.847187 
" style="fill: none; stroke: #6600a7; stroke-width: 1.5; stroke-linecap: square"/>
    </g>
    <g id="text_19">
     <!-- k_A=6.281e-04 -->
     <g transform="translate(353.95 88.347187)scale(0.1 -0.1)">
      <use xlink:href="#DejaVuSans-6b"/>
      <use xlink:href="#DejaVuSans-5f" x="57.910156"/>
      <use xlink:href="#DejaVuSans-41" x="107.910156"/>
      <use xlink:href="#DejaVuSans-3d" x="176.318359"/>
      <use xlink:href="#DejaVuSans-36" x="260.107422"/>
      <use xlink:href="#DejaVuSans-2e" x="323.730469"/>
      <use xlink:href="#DejaVuSans-32" x="355.517578"/>
      <use xlink:href="#DejaVuSans-38" x="419.140625"/>
      <use xlink:href="#DejaVuSans-31" x="482.763672"/>
      <use xlink:href="#DejaVuSans-65" x="546.386719"/>
      <use xlink:href="#DejaVuSans-2d" x="607.910156"/>
      <use xlink:href="#DejaVuSans-30" x="643.994141"/>
      <use xlink:href="#DejaVuSans-34" x="707.617188"/>
     </g>
    </g>
    <g id="line2d_45">
     <path d="M 325.95 99.803437 
L 335.95 99.803437 
L 345.95 99.803437 
" style="fill: none; stroke: #7e03a8; stroke-width: 1.5; stroke-linecap: square"/>
    </g>
    <g id="text_20">
     <!-- k_A=6.281e-04 -->
     <g transform="translate(353.95 103.303437)scale(0.1 -0.1)">
      <use xlink:href="#DejaVuSans-6b"/>
      <use xlink:href="#DejaVuSans-5f" x="57.910156"/>
      <use xlink:href="#DejaVuSans-41" x="107.910156"/>
      <use xlink:href="#DejaVuSans-3d" x="176.318359"/>
      <use xlink:href="#DejaVuSans-36" x="260.107422"/>
      <use xlink:href="#DejaVuSans-2e" x="323.730469"/>
      <use xlink:href="#DejaVuSans-32" x="355.517578"/>
      <use xlink:href="#DejaVuSans-38" x="419.140625"/>
      <use xlink:href="#DejaVuSans-31" x="482.763672"/>
      <use xlink:href="#DejaVuSans-65" x="546.386719"/>
      <use xlink:href="#DejaVuSans-2d" x="607.910156"/>
      <use xlink:href="#DejaVuSans-30" x="643.994141"/>
      <use xlink:href="#DejaVuSans-34" x="707.617188"/>
     </g>
    </g>
    <g id="line2d_46">
     <path d="M 325.95 114.759687 
L 335.95 114.759687 
L 345.95 114.759687 
" style="fill: none; stroke: #9511a1; stroke-width: 1.5; stroke-linecap: square"/>
    </g>
    <g id="text_21">
     <!-- k_A=6.281e-04 -->
     <g transform="translate(353.95 118.259687)scale(0.1 -0.1)">
      <use xlink:href="#DejaVuSans-6b"/>
      <use xlink:href="#DejaVuSans-5f" x="57.910156"/>
      <use xlink:href="#DejaVuSans-41" x="107.910156"/>
      <use xlink:href="#DejaVuSans-3d" x="176.318359"/>
      <use xlink:href="#DejaVuSans-36" x="260.107422"/>
      <use xlink:href="#DejaVuSans-2e" x="323.730469"/>
      <use xlink:href="#DejaVuSans-32" x="355.517578"/>
      <use xlink:href="#DejaVuSans-38" x="419.140625"/>
      <use xlink:href="#DejaVuSans-31" x="482.763672"/>
      <use xlink:href="#DejaVuSans-65" x="546.386719"/>
      <use xlink:href="#DejaVuSans-2d" x="607.910156"/>
      <use xlink:href="#DejaVuSans-30" x="643.994141"/>
      <use xlink:href="#DejaVuSans-34" x="707.617188"/>
     </g>
    </g>
    <g id="line2d_47">
     <path d="M 325.95 129.715937 
L 335.95 129.715937 
L 345.95 129.715937 
" style="fill: none; stroke: #aa2395; stroke-width: 1.5; stroke-linecap: square"/>
    </g>
    <g id="text_22">
     <!-- k_A=6.281e-04 -->
     <g transform="translate(353.95 133.215937)scale(0.1 -0.1)">
      <use xlink:href="#DejaVuSans-6b"/>
      <use xlink:href="#DejaVuSans-5f" x="57.910156"/>
      <use xlink:href="#DejaVuSans-41" x="107.910156"/>
      <use xlink:href="#DejaVuSans-3d" x="176.318359"/>
      <use xlink:href="#DejaVuSans-36" x="260.107422"/>
      <use xlink:href="#DejaVuSans-2e" x="323.730469"/>
      <use xlink:href="#DejaVuSans-32" x="355.517578"/>
      <use xlink:href="#DejaVuSans-38" x="419.140625"/>
      <use xlink:href="#DejaVuSans-31" x="482.763672"/>
      <use xlink:href="#DejaVuSans-65" x="546.386719"/>
      <use xlink:href="#DejaVuSans-2d" x="607.910156"/>
      <use xlink:href="#DejaVuSans-30" x="643.994141"/>
      <use xlink:href="#DejaVuSans-34" x="707.617188"/>
     </g>
    </g>
    <g id="line2d_48">
     <path d="M 325.95 144.672187 
L 335.95 144.672187 
L 345.95 144.672187 
" style="fill: none; stroke: #bc3587; stroke-width: 1.5; stroke-linecap: square"/>
    </g>
    <g id="text_23">
     <!-- k_A=6.281e-04 -->
     <g transform="translate(353.95 148.172187)scale(0.1 -0.1)">
      <use xlink:href="#DejaVuSans-6b"/>
      <use xlink:href="#DejaVuSans-5f" x="57.910156"/>
      <use xlink:href="#DejaVuSans-41" x="107.910156"/>
      <use xlink:href="#DejaVuSans-3d" x="176.318359"/>
      <use xlink:href="#DejaVuSans-36" x="260.107422"/>
      <use xlink:href="#DejaVuSans-2e" x="323.730469"/>
      <use xlink:href="#DejaVuSans-32" x="355.517578"/>
      <use xlink:href="#DejaVuSans-38" x="419.140625"/>
      <use xlink:href="#DejaVuSans-31" x="482.763672"/>
      <use xlink:href="#DejaVuSans-65" x="546.386719"/>
      <use xlink:href="#DejaVuSans-2d" x="607.910156"/>
      <use xlink:href="#DejaVuSans-30" x="643.994141"/>
      <use xlink:href="#DejaVuSans-34" x="707.617188"/>
     </g>
    </g>
    <g id="line2d_49">
     <path d="M 451.075 39.978437 
L 461.075 39.978437 
L 471.075 39.978437 
" style="fill: none; stroke: #cc4778; stroke-width: 1.5; stroke-linecap: square"/>
    </g>
    <g id="text_24">
     <!-- k_A=6.281e-04 -->
     <g transform="translate(479.075 43.478437)scale(0.1 -0.1)">
      <use xlink:href="#DejaVuSans-6b"/>
      <use xlink:href="#DejaVuSans-5f" x="57.910156"/>
      <use xlink:href="#DejaVuSans-41" x="107.910156"/>
      <use xlink:href="#DejaVuSans-3d" x="176.318359"/>
      <use xlink:href="#DejaVuSans-36" x="260.107422"/>
      <use xlink:href="#DejaVuSans-2e" x="323.730469"/>
      <use xlink:href="#DejaVuSans-32" x="355.517578"/>
      <use xlink:href="#DejaVuSans-38" x="419.140625"/>
      <use xlink:href="#DejaVuSans-31" x="482.763672"/>
      <use xlink:href="#DejaVuSans-65" x="546.386719"/>
      <use xlink:href="#DejaVuSans-2d" x="607.910156"/>
      <use xlink:href="#DejaVuSans-30" x="643.994141"/>
      <use xlink:href="#DejaVuSans-34" x="707.617188"/>
     </g>
    </g>
    <g id="line2d_50">
     <path d="M 451.075 54.934687 
L 461.075 54.934687 
L 471.075 54.934687 
" style="fill: none; stroke: #da5a6a; stroke-width: 1.5; stroke-linecap: square"/>
    </g>
    <g id="text_25">
     <!-- k_A=6.281e-04 -->
     <g transform="translate(479.075 58.434687)scale(0.1 -0.1)">
      <use xlink:href="#DejaVuSans-6b"/>
      <use xlink:href="#DejaVuSans-5f" x="57.910156"/>
      <use xlink:href="#DejaVuSans-41" x="107.910156"/>
      <use xlink:href="#DejaVuSans-3d" x="176.318359"/>
      <use xlink:href="#DejaVuSans-36" x="260.107422"/>
      <use xlink:href="#DejaVuSans-2e" x="323.730469"/>
      <use xlink:href="#DejaVuSans-32" x="355.517578"/>
      <use xlink:href="#DejaVuSans-38" x="419.140625"/>
      <use xlink:href="#DejaVuSans-31" x="482.763672"/>
      <use xlink:href="#DejaVuSans-65" x="546.386719"/>
      <use xlink:href="#DejaVuSans-2d" x="607.910156"/>
      <use xlink:href="#DejaVuSans-30" x="643.994141"/>
      <use xlink:href="#DejaVuSans-34" x="707.617188"/>
     </g>
    </g>
    <g id="line2d_51">
     <path d="M 451.075 69.890937 
L 461.075 69.890937 
L 471.075 69.890937 
" style="fill: none; stroke: #e66c5c; stroke-width: 1.5; stroke-linecap: square"/>
    </g>
    <g id="text_26">
     <!-- k_A=6.281e-04 -->
     <g transform="translate(479.075 73.390937)scale(0.1 -0.1)">
      <use xlink:href="#DejaVuSans-6b"/>
      <use xlink:href="#DejaVuSans-5f" x="57.910156"/>
      <use xlink:href="#DejaVuSans-41" x="107.910156"/>
      <use xlink:href="#DejaVuSans-3d" x="176.318359"/>
      <use xlink:href="#DejaVuSans-36" x="260.107422"/>
      <use xlink:href="#DejaVuSans-2e" x="323.730469"/>
      <use xlink:href="#DejaVuSans-32" x="355.517578"/>
      <use xlink:href="#DejaVuSans-38" x="419.140625"/>
      <use xlink:href="#DejaVuSans-31" x="482.763672"/>
      <use xlink:href="#DejaVuSans-65" x="546.386719"/>
      <use xlink:href="#DejaVuSans-2d" x="607.910156"/>
      <use xlink:href="#DejaVuSans-30" x="643.994141"/>
      <use xlink:href="#DejaVuSans-34" x="707.617188"/>
     </g>
    </g>
    <g id="line2d_52">
     <path d="M 451.075 84.847187 
L 461.075 84.847187 
L 471.075 84.847187 
" style="fill: none; stroke: #f0804e; stroke-width: 1.5; stroke-linecap: square"/>
    </g>
    <g id="text_27">
     <!-- k_A=6.281e-04 -->
     <g transform="translate(479.075 88.347187)scale(0.1 -0.1)">
      <use xlink:href="#DejaVuSans-6b"/>
      <use xlink:href="#DejaVuSans-5f" x="57.910156"/>
      <use xlink:href="#DejaVuSans-41" x="107.910156"/>
      <use xlink:href="#DejaVuSans-3d" x="176.318359"/>
      <use xlink:href="#DejaVuSans-36" x="260.107422"/>
      <use xlink:href="#DejaVuSans-2e" x="323.730469"/>
      <use xlink:href="#DejaVuSans-32" x="355.517578"/>
      <use xlink:href="#DejaVuSans-38" x="419.140625"/>
      <use xlink:href="#DejaVuSans-31" x="482.763672"/>
      <use xlink:href="#DejaVuSans-65" x="546.386719"/>
      <use xlink:href="#DejaVuSans-2d" x="607.910156"/>
      <use xlink:href="#DejaVuSans-30" x="643.994141"/>
      <use xlink:href="#DejaVuSans-34" x="707.617188"/>
     </g>
    </g>
    <g id="line2d_53">
     <path d="M 451.075 99.803437 
L 461.075 99.803437 
L 471.075 99.803437 
" style="fill: none; stroke: #f89540; stroke-width: 1.5; stroke-linecap: square"/>
    </g>
    <g id="text_28">
     <!-- k_A=6.281e-04 -->
     <g transform="translate(479.075 103.303437)scale(0.1 -0.1)">
      <use xlink:href="#DejaVuSans-6b"/>
      <use xlink:href="#DejaVuSans-5f" x="57.910156"/>
      <use xlink:href="#DejaVuSans-41" x="107.910156"/>
      <use xlink:href="#DejaVuSans-3d" x="176.318359"/>
      <use xlink:href="#DejaVuSans-36" x="260.107422"/>
      <use xlink:href="#DejaVuSans-2e" x="323.730469"/>
      <use xlink:href="#DejaVuSans-32" x="355.517578"/>
      <use xlink:href="#DejaVuSans-38" x="419.140625"/>
      <use xlink:href="#DejaVuSans-31" x="482.763672"/>
      <use xlink:href="#DejaVuSans-65" x="546.386719"/>
      <use xlink:href="#DejaVuSans-2d" x="607.910156"/>
      <use xlink:href="#DejaVuSans-30" x="643.994141"/>
      <use xlink:href="#DejaVuSans-34" x="707.617188"/>
     </g>
    </g>
    <g id="line2d_54">
     <path d="M 451.075 114.759687 
L 461.075 114.759687 
L 471.075 114.759687 
" style="fill: none; stroke: #fdac33; stroke-width: 1.5; stroke-linecap: square"/>
    </g>
    <g id="text_29">
     <!-- k_A=6.281e-04 -->
     <g transform="translate(479.075 118.259687)scale(0.1 -0.1)">
      <use xlink:href="#DejaVuSans-6b"/>
      <use xlink:href="#DejaVuSans-5f" x="57.910156"/>
      <use xlink:href="#DejaVuSans-41" x="107.910156"/>
      <use xlink:href="#DejaVuSans-3d" x="176.318359"/>
      <use xlink:href="#DejaVuSans-36" x="260.107422"/>
      <use xlink:href="#DejaVuSans-2e" x="323.730469"/>
      <use xlink:href="#DejaVuSans-32" x="355.517578"/>
      <use xlink:href="#DejaVuSans-38" x="419.140625"/>
      <use xlink:href="#DejaVuSans-31" x="482.763672"/>
      <use xlink:href="#DejaVuSans-65" x="546.386719"/>
      <use xlink:href="#DejaVuSans-2d" x="607.910156"/>
      <use xlink:href="#DejaVuSans-30" x="643.994141"/>
      <use xlink:href="#DejaVuSans-34" x="707.617188"/>
     </g>
    </g>
    <g id="line2d_55">
     <path d="M 451.075 129.715937 
L 461.075 129.715937 
L 471.075 129.715937 
" style="fill: none; stroke: #fdc527; stroke-width: 1.5; stroke-linecap: square"/>
    </g>
    <g id="text_30">
     <!-- k_A=6.281e-04 -->
     <g transform="translate(479.075 133.215937)scale(0.1 -0.1)">
      <use xlink:href="#DejaVuSans-6b"/>
      <use xlink:href="#DejaVuSans-5f" x="57.910156"/>
      <use xlink:href="#DejaVuSans-41" x="107.910156"/>
      <use xlink:href="#DejaVuSans-3d" x="176.318359"/>
      <use xlink:href="#DejaVuSans-36" x="260.107422"/>
      <use xlink:href="#DejaVuSans-2e" x="323.730469"/>
      <use xlink:href="#DejaVuSans-32" x="355.517578"/>
      <use xlink:href="#DejaVuSans-38" x="419.140625"/>
      <use xlink:href="#DejaVuSans-31" x="482.763672"/>
      <use xlink:href="#DejaVuSans-65" x="546.386719"/>
      <use xlink:href="#DejaVuSans-2d" x="607.910156"/>
      <use xlink:href="#DejaVuSans-30" x="643.994141"/>
      <use xlink:href="#DejaVuSans-34" x="707.617188"/>
     </g>
    </g>
    <g id="line2d_56">
     <path d="M 451.075 144.672187 
L 461.075 144.672187 
L 471.075 144.672187 
" style="fill: none; stroke: #f8df25; stroke-width: 1.5; stroke-linecap: square"/>
    </g>
    <g id="text_31">
     <!-- k_A=6.281e-04 -->
     <g transform="translate(479.075 148.172187)scale(0.1 -0.1)">
      <use xlink:href="#DejaVuSans-6b"/>
      <use xlink:href="#DejaVuSans-5f" x="57.910156"/>
      <use xlink:href="#DejaVuSans-41" x="107.910156"/>
      <use xlink:href="#DejaVuSans-3d" x="176.318359"/>
      <use xlink:href="#DejaVuSans-36" x="260.107422"/>
      <use xlink:href="#DejaVuSans-2e" x="323.730469"/>
      <use xlink:href="#DejaVuSans-32" x="355.517578"/>
      <use xlink:href="#DejaVuSans-38" x="419.140625"/>
      <use xlink:href="#DejaVuSans-31" x="482.763672"/>
      <use xlink:href="#DejaVuSans-65" x="546.386719"/>
      <use xlink:href="#DejaVuSans-2d" x="607.910156"/>
      <use xlink:href="#DejaVuSans-30" x="643.994141"/>
      <use xlink:href="#DejaVuSans-34" x="707.617188"/>
     </g>
    </g>
   </g>
  </g>
 </g>
 <defs>
  <clipPath id="p2eb6c96807">
   <rect x="54.02" y="26.88" width="511.18" height="219.16"/>
  </clipPath>
 </defs>
</svg>
