<?xml version="1.0" encoding="utf-8" standalone="no"?>
<!DOCTYPE svg PUBLIC "-//W3C//DTD SVG 1.1//EN"
  "http://www.w3.org/Graphics/SVG/1.1/DTD/svg11.dtd">
<svg xmlns:xlink="http://www.w3.org/1999/xlink" width="576pt" height="288pt" viewBox="0 0 576 288" xmlns="http://www.w3.org/2000/svg" version="1.1">
 <metadata>
  <rdf:RDF xmlns:dc="http://purl.org/dc/elements/1.1/" xmlns:cc="http://creativecommons.org/ns#" xmlns:rdf="http://www.w3.org/1999/02/22-rdf-syntax-ns#">
   <cc:Work>
    <dc:type rdf:resource="http://purl.org/dc/dcmitype/StillImage"/>
    <dc:date>2022-08-28T20:26:09.727231</dc:date>
    <dc:format>image/svg+xml</dc:format>
    <dc:creator>
     <cc:Agent>
      <dc:title>Matplotlib v3.5.3, https://matplotlib.org/</dc:title>
     </cc:Agent>
    </dc:creator>
   </cc:Work>
  </rdf:RDF>
 </metadata>
 <defs>
  <style type="text/css">*{stroke-linejoin: round; stroke-linecap: butt}</style>
 </defs>
 <g id="figure_1">
  <g id="patch_1">
   <path d="M 0 288 
L 576 288 
L 576 0 
L 0 0 
z
" style="fill: #ffffff"/>
  </g>
  <g id="axes_1">
   <g id="patch_2">
    <path d="M 47.72 246.04 
L 565.2 246.04 
L 565.2 26.88 
L 47.72 26.88 
z
" style="fill: #ffffff"/>
   </g>
   <g id="matplotlib.axis_1">
    <g id="xtick_1">
     <g id="line2d_1">
      <path d="M 71.241818 246.04 
L 71.241818 26.88 
" clip-path="url(#pa846816d43)" style="fill: none; stroke: #b0b0b0; stroke-width: 0.8; stroke-linecap: square"/>
     </g>
     <g id="line2d_2">
      <defs>
       <path id="medb3c501cf" d="M 0 0 
L 0 3.5 
" style="stroke: #000000; stroke-width: 0.8"/>
      </defs>
      <g>
       <use xlink:href="#medb3c501cf" x="71.241818" y="246.04" style="stroke: #000000; stroke-width: 0.8"/>
      </g>
     </g>
     <g id="text_1">
      <!-- 0 -->
      <g transform="translate(68.060568 260.638438)scale(0.1 -0.1)">
       <defs>
        <path id="DejaVuSans-30" d="M 2034 4250 
Q 1547 4250 1301 3770 
Q 1056 3291 1056 2328 
Q 1056 1369 1301 889 
Q 1547 409 2034 409 
Q 2525 409 2770 889 
Q 3016 1369 3016 2328 
Q 3016 3291 2770 3770 
Q 2525 4250 2034 4250 
z
M 2034 4750 
Q 2819 4750 3233 4129 
Q 3647 3509 3647 2328 
Q 3647 1150 3233 529 
Q 2819 -91 2034 -91 
Q 1250 -91 836 529 
Q 422 1150 422 2328 
Q 422 3509 836 4129 
Q 1250 4750 2034 4750 
z
" transform="scale(0.015625)"/>
       </defs>
       <use xlink:href="#DejaVuSans-30"/>
      </g>
     </g>
    </g>
    <g id="xtick_2">
     <g id="line2d_3">
      <path d="M 165.338501 246.04 
L 165.338501 26.88 
" clip-path="url(#pa846816d43)" style="fill: none; stroke: #b0b0b0; stroke-width: 0.8; stroke-linecap: square"/>
     </g>
     <g id="line2d_4">
      <g>
       <use xlink:href="#medb3c501cf" x="165.338501" y="246.04" style="stroke: #000000; stroke-width: 0.8"/>
      </g>
     </g>
     <g id="text_2">
      <!-- 2000 -->
      <g transform="translate(152.613501 260.638438)scale(0.1 -0.1)">
       <defs>
        <path id="DejaVuSans-32" d="M 1228 531 
L 3431 531 
L 3431 0 
L 469 0 
L 469 531 
Q 828 903 1448 1529 
Q 2069 2156 2228 2338 
Q 2531 2678 2651 2914 
Q 2772 3150 2772 3378 
Q 2772 3750 2511 3984 
Q 2250 4219 1831 4219 
Q 1534 4219 1204 4116 
Q 875 4013 500 3803 
L 500 4441 
Q 881 4594 1212 4672 
Q 1544 4750 1819 4750 
Q 2544 4750 2975 4387 
Q 3406 4025 3406 3419 
Q 3406 3131 3298 2873 
Q 3191 2616 2906 2266 
Q 2828 2175 2409 1742 
Q 1991 1309 1228 531 
z
" transform="scale(0.015625)"/>
       </defs>
       <use xlink:href="#DejaVuSans-32"/>
       <use xlink:href="#DejaVuSans-30" x="63.623047"/>
       <use xlink:href="#DejaVuSans-30" x="127.246094"/>
       <use xlink:href="#DejaVuSans-30" x="190.869141"/>
      </g>
     </g>
    </g>
    <g id="xtick_3">
     <g id="line2d_5">
      <path d="M 259.435183 246.04 
L 259.435183 26.88 
" clip-path="url(#pa846816d43)" style="fill: none; stroke: #b0b0b0; stroke-width: 0.8; stroke-linecap: square"/>
     </g>
     <g id="line2d_6">
      <g>
       <use xlink:href="#medb3c501cf" x="259.435183" y="246.04" style="stroke: #000000; stroke-width: 0.8"/>
      </g>
     </g>
     <g id="text_3">
      <!-- 4000 -->
      <g transform="translate(246.710183 260.638438)scale(0.1 -0.1)">
       <defs>
        <path id="DejaVuSans-34" d="M 2419 4116 
L 825 1625 
L 2419 1625 
L 2419 4116 
z
M 2253 4666 
L 3047 4666 
L 3047 1625 
L 3713 1625 
L 3713 1100 
L 3047 1100 
L 3047 0 
L 2419 0 
L 2419 1100 
L 313 1100 
L 313 1709 
L 2253 4666 
z
" transform="scale(0.015625)"/>
       </defs>
       <use xlink:href="#DejaVuSans-34"/>
       <use xlink:href="#DejaVuSans-30" x="63.623047"/>
       <use xlink:href="#DejaVuSans-30" x="127.246094"/>
       <use xlink:href="#DejaVuSans-30" x="190.869141"/>
      </g>
     </g>
    </g>
    <g id="xtick_4">
     <g id="line2d_7">
      <path d="M 353.531865 246.04 
L 353.531865 26.88 
" clip-path="url(#pa846816d43)" style="fill: none; stroke: #b0b0b0; stroke-width: 0.8; stroke-linecap: square"/>
     </g>
     <g id="line2d_8">
      <g>
       <use xlink:href="#medb3c501cf" x="353.531865" y="246.04" style="stroke: #000000; stroke-width: 0.8"/>
      </g>
     </g>
     <g id="text_4">
      <!-- 6000 -->
      <g transform="translate(340.806865 260.638438)scale(0.1 -0.1)">
       <defs>
        <path id="DejaVuSans-36" d="M 2113 2584 
Q 1688 2584 1439 2293 
Q 1191 2003 1191 1497 
Q 1191 994 1439 701 
Q 1688 409 2113 409 
Q 2538 409 2786 701 
Q 3034 994 3034 1497 
Q 3034 2003 2786 2293 
Q 2538 2584 2113 2584 
z
M 3366 4563 
L 3366 3988 
Q 3128 4100 2886 4159 
Q 2644 4219 2406 4219 
Q 1781 4219 1451 3797 
Q 1122 3375 1075 2522 
Q 1259 2794 1537 2939 
Q 1816 3084 2150 3084 
Q 2853 3084 3261 2657 
Q 3669 2231 3669 1497 
Q 3669 778 3244 343 
Q 2819 -91 2113 -91 
Q 1303 -91 875 529 
Q 447 1150 447 2328 
Q 447 3434 972 4092 
Q 1497 4750 2381 4750 
Q 2619 4750 2861 4703 
Q 3103 4656 3366 4563 
z
" transform="scale(0.015625)"/>
       </defs>
       <use xlink:href="#DejaVuSans-36"/>
       <use xlink:href="#DejaVuSans-30" x="63.623047"/>
       <use xlink:href="#DejaVuSans-30" x="127.246094"/>
       <use xlink:href="#DejaVuSans-30" x="190.869141"/>
      </g>
     </g>
    </g>
    <g id="xtick_5">
     <g id="line2d_9">
      <path d="M 447.628548 246.04 
L 447.628548 26.88 
" clip-path="url(#pa846816d43)" style="fill: none; stroke: #b0b0b0; stroke-width: 0.8; stroke-linecap: square"/>
     </g>
     <g id="line2d_10">
      <g>
       <use xlink:href="#medb3c501cf" x="447.628548" y="246.04" style="stroke: #000000; stroke-width: 0.8"/>
      </g>
     </g>
     <g id="text_5">
      <!-- 8000 -->
      <g transform="translate(434.903548 260.638438)scale(0.1 -0.1)">
       <defs>
        <path id="DejaVuSans-38" d="M 2034 2216 
Q 1584 2216 1326 1975 
Q 1069 1734 1069 1313 
Q 1069 891 1326 650 
Q 1584 409 2034 409 
Q 2484 409 2743 651 
Q 3003 894 3003 1313 
Q 3003 1734 2745 1975 
Q 2488 2216 2034 2216 
z
M 1403 2484 
Q 997 2584 770 2862 
Q 544 3141 544 3541 
Q 544 4100 942 4425 
Q 1341 4750 2034 4750 
Q 2731 4750 3128 4425 
Q 3525 4100 3525 3541 
Q 3525 3141 3298 2862 
Q 3072 2584 2669 2484 
Q 3125 2378 3379 2068 
Q 3634 1759 3634 1313 
Q 3634 634 3220 271 
Q 2806 -91 2034 -91 
Q 1263 -91 848 271 
Q 434 634 434 1313 
Q 434 1759 690 2068 
Q 947 2378 1403 2484 
z
M 1172 3481 
Q 1172 3119 1398 2916 
Q 1625 2713 2034 2713 
Q 2441 2713 2670 2916 
Q 2900 3119 2900 3481 
Q 2900 3844 2670 4047 
Q 2441 4250 2034 4250 
Q 1625 4250 1398 4047 
Q 1172 3844 1172 3481 
z
" transform="scale(0.015625)"/>
       </defs>
       <use xlink:href="#DejaVuSans-38"/>
       <use xlink:href="#DejaVuSans-30" x="63.623047"/>
       <use xlink:href="#DejaVuSans-30" x="127.246094"/>
       <use xlink:href="#DejaVuSans-30" x="190.869141"/>
      </g>
     </g>
    </g>
    <g id="xtick_6">
     <g id="line2d_11">
      <path d="M 541.72523 246.04 
L 541.72523 26.88 
" clip-path="url(#pa846816d43)" style="fill: none; stroke: #b0b0b0; stroke-width: 0.8; stroke-linecap: square"/>
     </g>
     <g id="line2d_12">
      <g>
       <use xlink:href="#medb3c501cf" x="541.72523" y="246.04" style="stroke: #000000; stroke-width: 0.8"/>
      </g>
     </g>
     <g id="text_6">
      <!-- 10000 -->
      <g transform="translate(525.81898 260.638438)scale(0.1 -0.1)">
       <defs>
        <path id="DejaVuSans-31" d="M 794 531 
L 1825 531 
L 1825 4091 
L 703 3866 
L 703 4441 
L 1819 4666 
L 2450 4666 
L 2450 531 
L 3481 531 
L 3481 0 
L 794 0 
L 794 531 
z
" transform="scale(0.015625)"/>
       </defs>
       <use xlink:href="#DejaVuSans-31"/>
       <use xlink:href="#DejaVuSans-30" x="63.623047"/>
       <use xlink:href="#DejaVuSans-30" x="127.246094"/>
       <use xlink:href="#DejaVuSans-30" x="190.869141"/>
       <use xlink:href="#DejaVuSans-30" x="254.492188"/>
      </g>
     </g>
    </g>
    <g id="text_7">
     <!-- Time [sample] -->
     <g transform="translate(270.556875 274.316562)scale(0.1 -0.1)">
      <defs>
       <path id="DejaVuSans-54" d="M -19 4666 
L 3928 4666 
L 3928 4134 
L 2272 4134 
L 2272 0 
L 1638 0 
L 1638 4134 
L -19 4134 
L -19 4666 
z
" transform="scale(0.015625)"/>
       <path id="DejaVuSans-69" d="M 603 3500 
L 1178 3500 
L 1178 0 
L 603 0 
L 603 3500 
z
M 603 4863 
L 1178 4863 
L 1178 4134 
L 603 4134 
L 603 4863 
z
" transform="scale(0.015625)"/>
       <path id="DejaVuSans-6d" d="M 3328 2828 
Q 3544 3216 3844 3400 
Q 4144 3584 4550 3584 
Q 5097 3584 5394 3201 
Q 5691 2819 5691 2113 
L 5691 0 
L 5113 0 
L 5113 2094 
Q 5113 2597 4934 2840 
Q 4756 3084 4391 3084 
Q 3944 3084 3684 2787 
Q 3425 2491 3425 1978 
L 3425 0 
L 2847 0 
L 2847 2094 
Q 2847 2600 2669 2842 
Q 2491 3084 2119 3084 
Q 1678 3084 1418 2786 
Q 1159 2488 1159 1978 
L 1159 0 
L 581 0 
L 581 3500 
L 1159 3500 
L 1159 2956 
Q 1356 3278 1631 3431 
Q 1906 3584 2284 3584 
Q 2666 3584 2933 3390 
Q 3200 3197 3328 2828 
z
" transform="scale(0.015625)"/>
       <path id="DejaVuSans-65" d="M 3597 1894 
L 3597 1613 
L 953 1613 
Q 991 1019 1311 708 
Q 1631 397 2203 397 
Q 2534 397 2845 478 
Q 3156 559 3463 722 
L 3463 178 
Q 3153 47 2828 -22 
Q 2503 -91 2169 -91 
Q 1331 -91 842 396 
Q 353 884 353 1716 
Q 353 2575 817 3079 
Q 1281 3584 2069 3584 
Q 2775 3584 3186 3129 
Q 3597 2675 3597 1894 
z
M 3022 2063 
Q 3016 2534 2758 2815 
Q 2500 3097 2075 3097 
Q 1594 3097 1305 2825 
Q 1016 2553 972 2059 
L 3022 2063 
z
" transform="scale(0.015625)"/>
       <path id="DejaVuSans-20" transform="scale(0.015625)"/>
       <path id="DejaVuSans-5b" d="M 550 4863 
L 1875 4863 
L 1875 4416 
L 1125 4416 
L 1125 -397 
L 1875 -397 
L 1875 -844 
L 550 -844 
L 550 4863 
z
" transform="scale(0.015625)"/>
       <path id="DejaVuSans-73" d="M 2834 3397 
L 2834 2853 
Q 2591 2978 2328 3040 
Q 2066 3103 1784 3103 
Q 1356 3103 1142 2972 
Q 928 2841 928 2578 
Q 928 2378 1081 2264 
Q 1234 2150 1697 2047 
L 1894 2003 
Q 2506 1872 2764 1633 
Q 3022 1394 3022 966 
Q 3022 478 2636 193 
Q 2250 -91 1575 -91 
Q 1294 -91 989 -36 
Q 684 19 347 128 
L 347 722 
Q 666 556 975 473 
Q 1284 391 1588 391 
Q 1994 391 2212 530 
Q 2431 669 2431 922 
Q 2431 1156 2273 1281 
Q 2116 1406 1581 1522 
L 1381 1569 
Q 847 1681 609 1914 
Q 372 2147 372 2553 
Q 372 3047 722 3315 
Q 1072 3584 1716 3584 
Q 2034 3584 2315 3537 
Q 2597 3491 2834 3397 
z
" transform="scale(0.015625)"/>
       <path id="DejaVuSans-61" d="M 2194 1759 
Q 1497 1759 1228 1600 
Q 959 1441 959 1056 
Q 959 750 1161 570 
Q 1363 391 1709 391 
Q 2188 391 2477 730 
Q 2766 1069 2766 1631 
L 2766 1759 
L 2194 1759 
z
M 3341 1997 
L 3341 0 
L 2766 0 
L 2766 531 
Q 2569 213 2275 61 
Q 1981 -91 1556 -91 
Q 1019 -91 701 211 
Q 384 513 384 1019 
Q 384 1609 779 1909 
Q 1175 2209 1959 2209 
L 2766 2209 
L 2766 2266 
Q 2766 2663 2505 2880 
Q 2244 3097 1772 3097 
Q 1472 3097 1187 3025 
Q 903 2953 641 2809 
L 641 3341 
Q 956 3463 1253 3523 
Q 1550 3584 1831 3584 
Q 2591 3584 2966 3190 
Q 3341 2797 3341 1997 
z
" transform="scale(0.015625)"/>
       <path id="DejaVuSans-70" d="M 1159 525 
L 1159 -1331 
L 581 -1331 
L 581 3500 
L 1159 3500 
L 1159 2969 
Q 1341 3281 1617 3432 
Q 1894 3584 2278 3584 
Q 2916 3584 3314 3078 
Q 3713 2572 3713 1747 
Q 3713 922 3314 415 
Q 2916 -91 2278 -91 
Q 1894 -91 1617 61 
Q 1341 213 1159 525 
z
M 3116 1747 
Q 3116 2381 2855 2742 
Q 2594 3103 2138 3103 
Q 1681 3103 1420 2742 
Q 1159 2381 1159 1747 
Q 1159 1113 1420 752 
Q 1681 391 2138 391 
Q 2594 391 2855 752 
Q 3116 1113 3116 1747 
z
" transform="scale(0.015625)"/>
       <path id="DejaVuSans-6c" d="M 603 4863 
L 1178 4863 
L 1178 0 
L 603 0 
L 603 4863 
z
" transform="scale(0.015625)"/>
       <path id="DejaVuSans-5d" d="M 1947 4863 
L 1947 -844 
L 622 -844 
L 622 -397 
L 1369 -397 
L 1369 4416 
L 622 4416 
L 622 4863 
L 1947 4863 
z
" transform="scale(0.015625)"/>
      </defs>
      <use xlink:href="#DejaVuSans-54"/>
      <use xlink:href="#DejaVuSans-69" x="57.958984"/>
      <use xlink:href="#DejaVuSans-6d" x="85.742188"/>
      <use xlink:href="#DejaVuSans-65" x="183.154297"/>
      <use xlink:href="#DejaVuSans-20" x="244.677734"/>
      <use xlink:href="#DejaVuSans-5b" x="276.464844"/>
      <use xlink:href="#DejaVuSans-73" x="315.478516"/>
      <use xlink:href="#DejaVuSans-61" x="367.578125"/>
      <use xlink:href="#DejaVuSans-6d" x="428.857422"/>
      <use xlink:href="#DejaVuSans-70" x="526.269531"/>
      <use xlink:href="#DejaVuSans-6c" x="589.746094"/>
      <use xlink:href="#DejaVuSans-65" x="617.529297"/>
      <use xlink:href="#DejaVuSans-5d" x="679.052734"/>
     </g>
    </g>
   </g>
   <g id="matplotlib.axis_2">
    <g id="ytick_1">
     <g id="line2d_13">
      <path d="M 47.72 236.078182 
L 565.2 236.078182 
" clip-path="url(#pa846816d43)" style="fill: none; stroke: #b0b0b0; stroke-width: 0.8; stroke-linecap: square"/>
     </g>
     <g id="line2d_14">
      <defs>
       <path id="m3b9d588a75" d="M 0 0 
L -3.5 0 
" style="stroke: #000000; stroke-width: 0.8"/>
      </defs>
      <g>
       <use xlink:href="#m3b9d588a75" x="47.72" y="236.078182" style="stroke: #000000; stroke-width: 0.8"/>
      </g>
     </g>
     <g id="text_8">
      <!-- 0.0 -->
      <g transform="translate(24.816875 239.877401)scale(0.1 -0.1)">
       <defs>
        <path id="DejaVuSans-2e" d="M 684 794 
L 1344 794 
L 1344 0 
L 684 0 
L 684 794 
z
" transform="scale(0.015625)"/>
       </defs>
       <use xlink:href="#DejaVuSans-30"/>
       <use xlink:href="#DejaVuSans-2e" x="63.623047"/>
       <use xlink:href="#DejaVuSans-30" x="95.410156"/>
      </g>
     </g>
    </g>
    <g id="ytick_2">
     <g id="line2d_15">
      <path d="M 47.72 196.230909 
L 565.2 196.230909 
" clip-path="url(#pa846816d43)" style="fill: none; stroke: #b0b0b0; stroke-width: 0.8; stroke-linecap: square"/>
     </g>
     <g id="line2d_16">
      <g>
       <use xlink:href="#m3b9d588a75" x="47.72" y="196.230909" style="stroke: #000000; stroke-width: 0.8"/>
      </g>
     </g>
     <g id="text_9">
      <!-- 0.2 -->
      <g transform="translate(24.816875 200.030128)scale(0.1 -0.1)">
       <use xlink:href="#DejaVuSans-30"/>
       <use xlink:href="#DejaVuSans-2e" x="63.623047"/>
       <use xlink:href="#DejaVuSans-32" x="95.410156"/>
      </g>
     </g>
    </g>
    <g id="ytick_3">
     <g id="line2d_17">
      <path d="M 47.72 156.383636 
L 565.2 156.383636 
" clip-path="url(#pa846816d43)" style="fill: none; stroke: #b0b0b0; stroke-width: 0.8; stroke-linecap: square"/>
     </g>
     <g id="line2d_18">
      <g>
       <use xlink:href="#m3b9d588a75" x="47.72" y="156.383636" style="stroke: #000000; stroke-width: 0.8"/>
      </g>
     </g>
     <g id="text_10">
      <!-- 0.4 -->
      <g transform="translate(24.816875 160.182855)scale(0.1 -0.1)">
       <use xlink:href="#DejaVuSans-30"/>
       <use xlink:href="#DejaVuSans-2e" x="63.623047"/>
       <use xlink:href="#DejaVuSans-34" x="95.410156"/>
      </g>
     </g>
    </g>
    <g id="ytick_4">
     <g id="line2d_19">
      <path d="M 47.72 116.536364 
L 565.2 116.536364 
" clip-path="url(#pa846816d43)" style="fill: none; stroke: #b0b0b0; stroke-width: 0.8; stroke-linecap: square"/>
     </g>
     <g id="line2d_20">
      <g>
       <use xlink:href="#m3b9d588a75" x="47.72" y="116.536364" style="stroke: #000000; stroke-width: 0.8"/>
      </g>
     </g>
     <g id="text_11">
      <!-- 0.6 -->
      <g transform="translate(24.816875 120.335582)scale(0.1 -0.1)">
       <use xlink:href="#DejaVuSans-30"/>
       <use xlink:href="#DejaVuSans-2e" x="63.623047"/>
       <use xlink:href="#DejaVuSans-36" x="95.410156"/>
      </g>
     </g>
    </g>
    <g id="ytick_5">
     <g id="line2d_21">
      <path d="M 47.72 76.689091 
L 565.2 76.689091 
" clip-path="url(#pa846816d43)" style="fill: none; stroke: #b0b0b0; stroke-width: 0.8; stroke-linecap: square"/>
     </g>
     <g id="line2d_22">
      <g>
       <use xlink:href="#m3b9d588a75" x="47.72" y="76.689091" style="stroke: #000000; stroke-width: 0.8"/>
      </g>
     </g>
     <g id="text_12">
      <!-- 0.8 -->
      <g transform="translate(24.816875 80.48831)scale(0.1 -0.1)">
       <use xlink:href="#DejaVuSans-30"/>
       <use xlink:href="#DejaVuSans-2e" x="63.623047"/>
       <use xlink:href="#DejaVuSans-38" x="95.410156"/>
      </g>
     </g>
    </g>
    <g id="ytick_6">
     <g id="line2d_23">
      <path d="M 47.72 36.841818 
L 565.2 36.841818 
" clip-path="url(#pa846816d43)" style="fill: none; stroke: #b0b0b0; stroke-width: 0.8; stroke-linecap: square"/>
     </g>
     <g id="line2d_24">
      <g>
       <use xlink:href="#m3b9d588a75" x="47.72" y="36.841818" style="stroke: #000000; stroke-width: 0.8"/>
      </g>
     </g>
     <g id="text_13">
      <!-- 1.0 -->
      <g transform="translate(24.816875 40.641037)scale(0.1 -0.1)">
       <use xlink:href="#DejaVuSans-31"/>
       <use xlink:href="#DejaVuSans-2e" x="63.623047"/>
       <use xlink:href="#DejaVuSans-30" x="95.410156"/>
      </g>
     </g>
    </g>
    <g id="text_14">
     <!-- Amplitude -->
     <g transform="translate(18.737187 162.082656)rotate(-90)scale(0.1 -0.1)">
      <defs>
       <path id="DejaVuSans-41" d="M 2188 4044 
L 1331 1722 
L 3047 1722 
L 2188 4044 
z
M 1831 4666 
L 2547 4666 
L 4325 0 
L 3669 0 
L 3244 1197 
L 1141 1197 
L 716 0 
L 50 0 
L 1831 4666 
z
" transform="scale(0.015625)"/>
       <path id="DejaVuSans-74" d="M 1172 4494 
L 1172 3500 
L 2356 3500 
L 2356 3053 
L 1172 3053 
L 1172 1153 
Q 1172 725 1289 603 
Q 1406 481 1766 481 
L 2356 481 
L 2356 0 
L 1766 0 
Q 1100 0 847 248 
Q 594 497 594 1153 
L 594 3053 
L 172 3053 
L 172 3500 
L 594 3500 
L 594 4494 
L 1172 4494 
z
" transform="scale(0.015625)"/>
       <path id="DejaVuSans-75" d="M 544 1381 
L 544 3500 
L 1119 3500 
L 1119 1403 
Q 1119 906 1312 657 
Q 1506 409 1894 409 
Q 2359 409 2629 706 
Q 2900 1003 2900 1516 
L 2900 3500 
L 3475 3500 
L 3475 0 
L 2900 0 
L 2900 538 
Q 2691 219 2414 64 
Q 2138 -91 1772 -91 
Q 1169 -91 856 284 
Q 544 659 544 1381 
z
M 1991 3584 
L 1991 3584 
z
" transform="scale(0.015625)"/>
       <path id="DejaVuSans-64" d="M 2906 2969 
L 2906 4863 
L 3481 4863 
L 3481 0 
L 2906 0 
L 2906 525 
Q 2725 213 2448 61 
Q 2172 -91 1784 -91 
Q 1150 -91 751 415 
Q 353 922 353 1747 
Q 353 2572 751 3078 
Q 1150 3584 1784 3584 
Q 2172 3584 2448 3432 
Q 2725 3281 2906 2969 
z
M 947 1747 
Q 947 1113 1208 752 
Q 1469 391 1925 391 
Q 2381 391 2643 752 
Q 2906 1113 2906 1747 
Q 2906 2381 2643 2742 
Q 2381 3103 1925 3103 
Q 1469 3103 1208 2742 
Q 947 2381 947 1747 
z
" transform="scale(0.015625)"/>
      </defs>
      <use xlink:href="#DejaVuSans-41"/>
      <use xlink:href="#DejaVuSans-6d" x="68.408203"/>
      <use xlink:href="#DejaVuSans-70" x="165.820312"/>
      <use xlink:href="#DejaVuSans-6c" x="229.296875"/>
      <use xlink:href="#DejaVuSans-69" x="257.080078"/>
      <use xlink:href="#DejaVuSans-74" x="284.863281"/>
      <use xlink:href="#DejaVuSans-75" x="324.072266"/>
      <use xlink:href="#DejaVuSans-64" x="387.451172"/>
      <use xlink:href="#DejaVuSans-65" x="450.927734"/>
     </g>
    </g>
   </g>
   <g id="line2d_25">
    <path d="M 71.241818 99.344013 
L 71.382963 37.587356 
L 71.524108 36.849942 
L 72.512123 36.873374 
L 75.099782 37.106607 
L 77.781538 37.573935 
L 80.604438 38.29608 
L 83.568484 39.288942 
L 86.673674 40.565635 
L 89.967058 42.160743 
L 93.495684 44.11856 
L 97.306599 46.491282 
L 101.446853 49.336877 
L 105.963494 52.716445 
L 110.997666 56.769184 
L 116.643467 61.607091 
L 123.230235 67.554123 
L 131.32255 75.174183 
L 143.178732 86.677469 
L 164.820969 107.690947 
L 175.171604 117.398746 
L 184.251934 125.615662 
L 192.720635 132.983358 
L 200.81295 139.73183 
L 208.670023 145.996427 
L 216.338902 151.829364 
L 223.913685 157.313914 
L 231.44142 162.491462 
L 238.969155 167.39912 
L 246.496889 172.041152 
L 254.024624 176.423475 
L 261.646455 180.603363 
L 269.315335 184.556435 
L 277.125359 188.33161 
L 285.029481 191.905518 
L 293.074747 195.300044 
L 301.308207 198.532632 
L 309.72986 201.600162 
L 318.386754 204.516114 
L 327.278891 207.276414 
L 336.453318 209.891373 
L 345.957082 212.368316 
L 355.837234 214.712018 
L 366.093772 216.915549 
L 376.820794 218.991484 
L 388.065348 220.939492 
L 399.92153 222.76531 
L 412.436389 224.465086 
L 425.704021 226.040641 
L 439.865571 227.496284 
L 455.062186 228.832586 
L 471.529105 230.05421 
L 489.454523 231.157819 
L 509.214826 232.147648 
L 531.23345 233.02326 
L 541.678182 233.369115 
L 541.678182 233.369115 
" clip-path="url(#pa846816d43)" style="fill: none; stroke: #0d0887; stroke-width: 1.5; stroke-linecap: square"/>
   </g>
   <g id="line2d_26">
    <path d="M 71.241818 236.060748 
L 71.430012 235.823128 
L 71.712302 234.997101 
L 72.088688 233.116458 
L 72.60622 229.303943 
L 73.311945 222.316267 
L 74.347009 209.534502 
L 76.181894 183.477621 
L 78.863649 145.999815 
L 80.55739 125.491282 
L 82.062937 109.896093 
L 83.474387 97.532531 
L 84.79174 87.842632 
L 86.109094 79.77292 
L 87.379399 73.355787 
L 88.602656 68.286679 
L 89.778865 64.307097 
L 90.955073 61.087019 
L 92.084233 58.612592 
L 93.213394 56.657977 
L 94.295505 55.204327 
L 95.377617 54.103363 
L 96.459729 53.305198 
L 97.588889 52.748309 
L 98.765098 52.422861 
L 99.988355 52.316698 
L 101.305708 52.423426 
L 102.811255 52.775957 
L 104.504995 53.408765 
L 106.481026 54.393707 
L 108.833443 55.827298 
L 111.656343 57.818301 
L 115.184969 60.592823 
L 119.654561 64.404929 
L 125.488556 69.689987 
L 133.392677 77.17063 
L 146.519164 89.947178 
L 164.303437 107.19754 
L 174.70112 116.96483 
L 183.828499 125.239502 
L 192.344248 132.662382 
L 200.436563 139.424524 
L 208.293636 145.702939 
L 216.009564 151.58465 
L 223.584347 157.081191 
L 231.112082 162.270614 
L 238.639816 167.190004 
L 246.167551 171.843543 
L 253.695285 176.237086 
L 261.317117 180.42799 
L 268.985996 184.391754 
L 276.796021 188.177387 
L 284.700142 191.761414 
L 292.745409 195.165748 
L 300.978868 198.407853 
L 309.400521 201.484573 
L 318.057416 204.409406 
L 326.949553 207.178243 
L 336.123979 209.801409 
L 345.627744 212.286235 
L 355.460847 214.62683 
L 365.717386 216.838587 
L 376.444408 218.922367 
L 387.688961 220.877822 
L 399.498095 222.703859 
L 411.965905 224.405101 
L 425.233537 225.988441 
L 439.395088 227.451353 
L 454.591702 228.794394 
L 471.011573 230.019037 
L 488.889943 231.126255 
L 508.55615 232.118013 
L 530.480677 232.996736 
L 541.678182 233.369115 
L 541.678182 233.369115 
" clip-path="url(#pa846816d43)" style="fill: none; stroke: #310597; stroke-width: 1.5; stroke-linecap: square"/>
   </g>
   <g id="line2d_27">
    <path d="M 71.241818 236.07379 
L 71.571157 235.923495 
L 71.994592 235.439002 
L 72.512123 234.439244 
L 73.123752 232.740114 
L 73.923574 229.784601 
L 74.911589 225.182035 
L 76.134846 218.354455 
L 77.781538 207.802305 
L 80.463293 188.932561 
L 84.979934 157.251656 
L 87.426448 141.727589 
L 89.590671 129.377313 
L 91.61375 119.098972 
L 93.495684 110.645914 
L 95.330569 103.405966 
L 97.071357 97.409615 
L 98.765098 92.342394 
L 100.41179 88.092086 
L 102.011433 84.554201 
L 103.564029 81.633576 
L 105.116624 79.176859 
L 106.622171 77.199909 
L 108.127718 75.586923 
L 109.586216 74.340384 
L 111.044715 73.376478 
L 112.550262 72.650157 
L 114.055809 72.170328 
L 115.608404 71.907605 
L 117.255096 71.859209 
L 118.995884 72.036658 
L 120.877818 72.460524 
L 122.900897 73.149415 
L 125.159217 74.162115 
L 127.652779 75.530456 
L 130.47568 77.338269 
L 133.769064 79.721646 
L 137.674076 82.835771 
L 142.473007 86.962409 
L 148.871581 92.779935 
L 160.069086 103.317315 
L 174.654072 116.964606 
L 184.204885 125.590615 
L 192.814732 133.070551 
L 200.954095 139.849998 
L 208.811168 146.107706 
L 216.527096 151.969599 
L 224.101879 157.446955 
L 231.629613 162.617563 
L 239.157348 167.518448 
L 246.685083 172.153875 
L 254.259865 176.556326 
L 261.881697 180.72835 
L 269.550576 184.673791 
L 277.360601 188.441507 
L 285.264722 192.008197 
L 293.357037 195.414844 
L 301.590497 198.639292 
L 310.01215 201.698962 
L 318.669045 204.607319 
L 327.561181 207.360318 
L 336.782656 209.981053 
L 346.286421 212.450135 
L 356.166572 214.7863 
L 366.470159 216.992223 
L 377.197181 219.06034 
L 388.441735 221.000925 
L 400.297917 222.819708 
L 412.812775 224.512862 
L 426.127456 226.087399 
L 440.336055 227.540991 
L 455.579717 228.874374 
L 472.093685 230.092356 
L 490.066152 231.191792 
L 509.873503 232.177068 
L 531.939175 233.047924 
L 541.678182 233.369115 
L 541.678182 233.369115 
" clip-path="url(#pa846816d43)" style="fill: none; stroke: #4c02a1; stroke-width: 1.5; stroke-linecap: square"/>
   </g>
   <g id="line2d_28">
    <path d="M 71.241818 236.076225 
L 71.75935 235.929001 
L 72.32393 235.51862 
L 72.982607 234.735873 
L 73.73538 233.476383 
L 74.629299 231.529389 
L 75.711411 228.602761 
L 77.028764 224.336436 
L 78.628408 218.33738 
L 80.651486 209.829953 
L 83.615532 196.304186 
L 90.813928 163.156421 
L 93.730925 150.927252 
L 96.318584 140.995581 
L 98.718049 132.633376 
L 101.023418 125.393917 
L 103.187642 119.307592 
L 105.304817 114.006134 
L 107.327896 109.523667 
L 109.303926 105.672569 
L 111.232908 102.390884 
L 113.114842 99.619178 
L 114.949727 97.301517 
L 116.784612 95.339963 
L 118.572449 93.748782 
L 120.360286 92.451879 
L 122.148123 91.428332 
L 123.93596 90.65792 
L 125.770846 90.110095 
L 127.652779 89.783019 
L 129.581761 89.673344 
L 131.60484 89.781282 
L 133.769064 90.124656 
L 136.074432 90.721851 
L 138.567994 91.604942 
L 141.24975 92.794027 
L 144.213795 94.354964 
L 147.554228 96.373291 
L 151.318095 98.913513 
L 155.740639 102.176184 
L 161.10415 106.421688 
L 168.255498 112.38629 
L 200.718853 139.818976 
L 209.140506 146.454361 
L 217.138724 152.474451 
L 224.901701 158.039813 
L 232.523532 163.231571 
L 240.098315 168.122855 
L 247.673098 172.749058 
L 255.247881 177.115178 
L 262.869712 181.252772 
L 270.58564 185.188637 
L 278.395664 188.923131 
L 286.346834 192.478216 
L 294.439149 195.852476 
L 302.719657 199.063344 
L 311.188358 202.107948 
L 319.892301 204.999813 
L 328.831486 207.735143 
L 338.052961 210.32433 
L 347.603774 212.774807 
L 357.530974 215.091487 
L 367.881609 217.277203 
L 378.702728 219.333163 
L 390.041378 221.2594 
L 401.991657 223.0619 
L 414.600612 224.737256 
L 428.009389 226.292709 
L 442.359134 227.7307 
L 457.790989 229.050325 
L 474.493151 230.251892 
L 492.700859 231.335563 
L 512.7905 232.304806 
L 535.232559 233.160484 
L 541.678182 233.369115 
L 541.678182 233.369115 
" clip-path="url(#pa846816d43)" style="fill: none; stroke: #6600a7; stroke-width: 1.5; stroke-linecap: square"/>
   </g>
   <g id="line2d_29">
    <path d="M 71.241818 236.07708 
L 71.900495 235.948786 
L 72.60622 235.588455 
L 73.406042 234.921542 
L 74.29996 233.87784 
L 75.335024 232.313776 
L 76.558281 230.02989 
L 77.969731 226.890192 
L 79.616423 222.66143 
L 81.639502 216.814558 
L 84.22716 208.600715 
L 88.179221 195.215671 
L 95.00123 172.122831 
L 98.482808 161.173872 
L 101.493902 152.416133 
L 104.269754 145.007823 
L 106.904461 138.602533 
L 109.398023 133.115111 
L 111.797488 128.362453 
L 114.102857 124.276303 
L 116.361177 120.717954 
L 118.572449 117.645428 
L 120.736673 115.016774 
L 122.853848 112.79108 
L 124.923975 110.92915 
L 126.994103 109.36146 
L 129.06423 108.071327 
L 131.134357 107.042033 
L 133.204484 106.25701 
L 135.321659 105.689852 
L 137.485883 105.338936 
L 139.744203 105.200645 
L 142.09662 105.2838 
L 144.543134 105.594465 
L 147.130793 106.14793 
L 149.906645 106.971653 
L 152.917739 108.102944 
L 156.164074 109.563527 
L 159.786796 111.444585 
L 163.832954 113.804651 
L 168.443691 116.759101 
L 173.901299 120.529163 
L 180.864453 125.625878 
L 191.920813 134.034769 
L 208.199539 146.376048 
L 217.703304 153.29047 
L 226.266102 159.248415 
L 234.358417 164.611312 
L 242.262538 169.584019 
L 250.025515 174.207106 
L 257.788491 178.571703 
L 265.551467 182.681482 
L 273.361492 186.56535 
L 281.265613 190.248216 
L 289.31088 193.750881 
L 297.497291 197.071712 
L 305.871896 200.227651 
L 314.434694 203.216046 
L 323.232734 206.050276 
L 332.313063 208.740334 
L 341.675683 211.28102 
L 351.367642 213.680052 
L 361.435987 215.942716 
L 371.974815 218.081349 
L 382.984127 220.086724 
L 394.558019 221.966812 
L 406.743539 223.71918 
L 419.681833 225.352587 
L 433.419949 226.860747 
L 448.14608 228.251282 
L 464.001371 229.522639 
L 481.221063 230.677626 
L 500.087448 231.717127 
L 521.02396 232.643826 
L 541.678182 233.369115 
L 541.678182 233.369115 
" clip-path="url(#pa846816d43)" style="fill: none; stroke: #7e03a8; stroke-width: 1.5; stroke-linecap: square"/>
   </g>
   <g id="line2d_30">
    <path d="M 71.241818 236.077476 
L 72.088688 235.947046 
L 72.982607 235.578864 
L 73.970622 234.91675 
L 75.052734 233.909438 
L 76.275991 232.449102 
L 77.640393 230.461652 
L 79.192988 227.799518 
L 81.027873 224.189878 
L 83.192097 219.414059 
L 85.873852 212.921013 
L 89.543623 203.398768 
L 100.741128 173.976304 
L 104.316802 165.392894 
L 107.516089 158.269665 
L 110.527183 152.100273 
L 113.350084 146.813795 
L 116.031839 142.248215 
L 118.619498 138.266304 
L 121.160108 134.757543 
L 123.65367 131.69221 
L 126.053136 129.086701 
L 128.452601 126.807212 
L 130.805018 124.876483 
L 133.157435 123.233527 
L 135.462804 121.889217 
L 137.815221 120.77455 
L 140.167638 119.905045 
L 142.567103 119.255508 
L 145.013617 118.824127 
L 147.554228 118.605742 
L 150.188935 118.60775 
L 152.917739 118.835053 
L 155.787687 119.299407 
L 158.845829 120.023612 
L 162.092165 121.023405 
L 165.620791 122.347331 
L 169.478755 124.03875 
L 173.760154 126.166728 
L 178.559084 128.80697 
L 184.157837 132.15011 
L 191.026895 136.524263 
L 200.671805 142.954132 
L 224.666459 159.040182 
L 234.311369 165.179327 
L 243.109409 170.517527 
L 251.484013 175.340237 
L 259.670425 179.798601 
L 267.762739 183.952871 
L 275.855054 187.856827 
L 283.994417 191.535723 
L 292.227877 195.011848 
L 300.555433 198.286347 
L 309.071183 201.395244 
L 317.775126 204.335432 
L 326.714311 207.119626 
L 335.935786 209.75746 
L 345.439551 212.244062 
L 355.319702 214.597841 
L 365.576241 216.811519 
L 376.303263 218.8975 
L 387.547816 220.855289 
L 399.35695 222.683687 
L 411.82476 224.387252 
L 425.045344 225.967596 
L 439.159846 227.428856 
L 454.309412 228.771412 
L 470.682235 229.996562 
L 488.560605 231.107758 
L 508.226811 232.103116 
L 530.10429 232.983391 
L 541.678182 233.369116 
L 541.678182 233.369116 
" clip-path="url(#pa846816d43)" style="fill: none; stroke: #9511a1; stroke-width: 1.5; stroke-linecap: square"/>
   </g>
   <g id="line2d_31">
    <path d="M 71.241818 236.077691 
L 72.276882 235.945887 
L 73.358994 235.572457 
L 74.488154 234.944854 
L 75.758459 233.972037 
L 77.122861 232.641376 
L 78.675456 230.805434 
L 80.416245 228.390354 
L 82.439323 225.181424 
L 84.79174 221.008106 
L 87.614641 215.525211 
L 91.33146 207.788285 
L 106.151687 176.42164 
L 109.868506 169.353672 
L 113.255987 163.381418 
L 116.408226 158.264102 
L 119.41932 153.791673 
L 122.336317 149.855066 
L 125.159217 146.418288 
L 127.888021 143.441848 
L 130.569776 140.842045 
L 133.204484 138.593979 
L 135.792142 136.672106 
L 138.379801 135.023265 
L 140.96746 133.636077 
L 143.555119 132.498431 
L 146.189826 131.583454 
L 148.871581 130.890303 
L 151.600385 130.416723 
L 154.376237 130.159132 
L 157.293234 130.114729 
L 160.304328 130.293292 
L 163.456567 130.703701 
L 166.796999 131.364753 
L 170.372673 132.303363 
L 174.183589 133.535971 
L 178.323843 135.110725 
L 182.887532 137.08748 
L 188.015801 139.555953 
L 193.943892 142.663606 
L 201.142288 146.699422 
L 211.069488 152.542513 
L 238.357526 168.724643 
L 248.331774 174.30961 
L 257.506201 179.193853 
L 266.257192 183.602372 
L 274.819991 187.66826 
L 283.288692 191.444855 
L 291.804442 194.998755 
L 300.36724 198.331235 
L 309.071183 201.479132 
L 317.916271 204.441209 
L 326.996601 207.246223 
L 336.312172 209.889905 
L 345.910034 212.381726 
L 355.837234 214.728792 
L 366.187869 216.945733 
L 376.961939 219.024398 
L 388.253541 220.974672 
L 400.109723 222.79525 
L 412.624582 224.490611 
L 425.939262 226.067569 
L 440.147862 227.523646 
L 455.391524 228.859474 
L 471.858443 230.076625 
L 489.83091 231.178815 
L 509.638261 232.166613 
L 531.703933 233.039735 
L 541.678182 233.369122 
L 541.678182 233.369122 
" clip-path="url(#pa846816d43)" style="fill: none; stroke: #aa2395; stroke-width: 1.5; stroke-linecap: square"/>
   </g>
   <g id="line2d_32">
    <path d="M 71.241818 236.077821 
L 72.418027 235.954459 
L 73.641284 235.603794 
L 74.958637 234.991024 
L 76.370087 234.085654 
L 77.922683 232.819469 
L 79.663471 231.098381 
L 81.592453 228.864788 
L 83.756677 226.010164 
L 86.297287 222.273504 
L 89.308381 217.430839 
L 93.213394 210.700206 
L 100.69408 197.246684 
L 106.763316 186.560427 
L 111.138812 179.298842 
L 114.949727 173.391775 
L 118.478353 168.322383 
L 121.818785 163.906753 
L 125.018072 160.042621 
L 128.076214 156.689518 
L 131.087308 153.714604 
L 134.004305 151.139351 
L 136.874254 148.895265 
L 139.744203 146.931497 
L 142.567103 145.265025 
L 145.390004 143.851948 
L 148.259953 142.664319 
L 151.129902 141.716076 
L 154.046899 140.984949 
L 157.010944 140.468723 
L 160.069086 140.160783 
L 163.221325 140.066 
L 166.514709 140.190372 
L 169.949238 140.543272 
L 173.57196 141.139984 
L 177.429924 142.003125 
L 181.570178 143.160806 
L 186.039771 144.644474 
L 190.979847 146.524259 
L 196.484502 148.862733 
L 202.836029 151.810568 
L 210.504908 155.625456 
L 221.043737 161.13668 
L 249.60208 176.183374 
L 260.140908 181.415685 
L 269.785818 185.957897 
L 279.007293 190.056204 
L 288.040574 193.827958 
L 296.979759 197.320411 
L 305.965992 200.592504 
L 315.046322 203.661495 
L 324.267797 206.542806 
L 333.677465 209.249702 
L 343.369424 211.805068 
L 353.343672 214.203783 
L 363.694307 216.462646 
L 374.468377 218.58406 
L 385.712931 220.569324 
L 397.522064 222.425962 
L 409.942826 224.15167 
L 423.116362 225.755161 
L 437.136768 227.235402 
L 452.192237 228.598229 
L 468.423915 229.841071 
L 486.067043 230.965937 
L 505.450959 231.975579 
L 526.999099 232.871216 
L 541.678182 233.369171 
L 541.678182 233.369171 
" clip-path="url(#pa846816d43)" style="fill: none; stroke: #bc3587; stroke-width: 1.5; stroke-linecap: square"/>
   </g>
   <g id="line2d_33">
    <path d="M 71.241818 236.077906 
L 72.60622 235.952704 
L 74.01767 235.596064 
L 75.523217 234.979906 
L 77.122861 234.080397 
L 78.863649 232.841303 
L 80.792631 231.184972 
L 82.909807 229.066563 
L 85.309272 226.341663 
L 88.085124 222.837934 
L 91.378508 218.307185 
L 95.659907 212.013136 
L 113.303035 185.636479 
L 117.490338 180.011463 
L 121.301253 175.254382 
L 124.923975 171.084325 
L 128.358504 167.465379 
L 131.698937 164.266893 
L 134.945272 161.465341 
L 138.097511 159.033716 
L 141.202702 156.913036 
L 144.307892 155.059289 
L 147.413083 153.465043 
L 150.518273 152.121423 
L 153.623464 151.018419 
L 156.775702 150.133636 
L 159.97499 149.465366 
L 163.268374 149.005477 
L 166.655854 148.758649 
L 170.137431 148.727424 
L 173.807202 148.919875 
L 177.618118 149.343696 
L 181.664275 150.019665 
L 185.992722 150.972906 
L 190.650508 152.232016 
L 195.684681 153.826775 
L 201.283433 155.838899 
L 207.634959 158.36539 
L 215.115646 161.590107 
L 224.666459 165.964024 
L 242.968264 174.65305 
L 258.164878 181.744575 
L 269.45648 186.769845 
L 279.66597 191.073492 
L 289.404976 194.939982 
L 298.95579 198.493027 
L 308.412506 201.77424 
L 317.916271 204.836068 
L 327.514133 207.694243 
L 337.300188 210.375531 
L 347.321484 212.88946 
L 357.625071 215.243975 
L 368.305045 217.454771 
L 379.408453 219.524122 
L 390.982345 221.453505 
L 403.120817 223.250459 
L 415.965014 224.924892 
L 429.561985 226.471215 
L 444.099922 227.898154 
L 459.719971 229.204828 
L 476.610326 230.391721 
L 495.053276 231.461781 
L 515.425207 232.41734 
L 538.196605 233.258598 
L 541.678182 233.369381 
L 541.678182 233.369381 
" clip-path="url(#pa846816d43)" style="fill: none; stroke: #cc4778; stroke-width: 1.5; stroke-linecap: square"/>
   </g>
   <g id="line2d_34">
    <path d="M 71.241818 236.077964 
L 72.747365 235.958498 
L 74.347009 235.603851 
L 76.040749 234.991666 
L 77.828586 234.10332 
L 79.757568 232.892027 
L 81.874743 231.292873 
L 84.22716 229.226639 
L 86.861867 226.605349 
L 89.872961 223.286295 
L 93.495684 218.946981 
L 98.247566 212.882519 
L 115.137921 191.019713 
L 119.70161 185.644233 
L 123.841864 181.106089 
L 127.699828 177.201544 
L 131.369598 173.796889 
L 134.945272 170.78019 
L 138.426849 168.132645 
L 141.81433 165.831574 
L 145.201811 163.79914 
L 148.542243 162.05319 
L 151.882675 160.557023 
L 155.223107 159.302461 
L 158.610588 158.267325 
L 162.045117 157.450553 
L 165.526694 156.849528 
L 169.102368 156.456438 
L 172.819187 156.27319 
L 176.677151 156.308547 
L 180.67626 156.56836 
L 184.910611 157.06895 
L 189.380203 157.823745 
L 194.179134 158.863514 
L 199.354451 160.21627 
L 205.047301 161.939433 
L 211.398827 164.09986 
L 218.738368 166.838486 
L 227.724601 170.440067 
L 240.709943 175.909204 
L 266.398337 186.757148 
L 278.395664 191.551312 
L 289.216783 195.638608 
L 299.52037 199.294152 
L 309.588715 202.631019 
L 319.562963 205.703556 
L 329.58426 208.558808 
L 339.746701 211.223263 
L 350.144385 213.718403 
L 360.824358 216.050845 
L 371.83367 218.226227 
L 383.266417 220.257188 
L 395.216696 222.152147 
L 407.731554 223.909793 
L 420.952138 225.540033 
L 434.972544 227.042937 
L 449.980965 228.425505 
L 466.118546 229.686094 
L 483.667577 230.830366 
L 502.8633 231.855694 
L 524.176199 232.767158 
L 541.678182 233.369996 
L 541.678182 233.369996 
" clip-path="url(#pa846816d43)" style="fill: none; stroke: #da5a6a; stroke-width: 1.5; stroke-linecap: square"/>
   </g>
   <g id="line2d_35">
    <path d="M 71.241818 236.078005 
L 72.935558 235.956719 
L 74.676347 235.610061 
L 76.511232 235.019189 
L 78.487263 234.145608 
L 80.604438 232.962403 
L 82.909807 231.41487 
L 85.450417 229.436428 
L 88.320366 226.910143 
L 91.61375 223.703201 
L 95.565811 219.530132 
L 100.882273 213.565563 
L 116.549371 195.793526 
L 121.536495 190.584285 
L 125.959039 186.278874 
L 130.099293 182.553106 
L 134.051354 179.293004 
L 137.862269 176.435367 
L 141.579088 173.924584 
L 145.201811 171.741386 
L 148.824533 169.817122 
L 152.400207 168.167629 
L 155.975881 166.760186 
L 159.598603 165.573182 
L 163.268374 164.606441 
L 166.985193 163.858041 
L 170.796108 163.319163 
L 174.70112 162.992725 
L 178.747278 162.879448 
L 182.93458 162.985291 
L 187.357124 163.322767 
L 192.01491 163.905145 
L 196.954986 164.749919 
L 202.271448 165.888167 
L 208.058394 167.358686 
L 214.456969 169.21825 
L 221.749462 171.575227 
L 230.406356 174.61503 
L 241.839103 178.881051 
L 281.453807 193.852585 
L 293.309989 197.986229 
L 304.366349 201.606844 
L 315.046322 204.871562 
L 325.632199 207.874848 
L 336.218076 210.646489 
L 346.898049 213.213089 
L 357.813264 215.606921 
L 369.01077 217.834222 
L 380.584662 219.908682 
L 392.629037 221.839992 
L 405.237992 223.63439 
L 418.505625 225.295331 
L 432.52603 226.824244 
L 447.487403 228.229494 
L 463.530887 229.510506 
L 480.938773 230.67398 
L 499.946303 231.717924 
L 520.976912 232.64618 
L 541.678182 233.371396 
L 541.678182 233.371396 
" clip-path="url(#pa846816d43)" style="fill: none; stroke: #e66c5c; stroke-width: 1.5; stroke-linecap: square"/>
   </g>
   <g id="line2d_36">
    <path d="M 71.241818 236.078036 
L 73.123752 235.955256 
L 75.052734 235.603987 
L 77.075812 235.00903 
L 79.240036 234.137633 
L 81.545405 232.968133 
L 84.086015 231.423408 
L 86.861867 229.469526 
L 89.967058 227.007258 
L 93.58978 223.839819 
L 97.965276 219.705158 
L 104.128609 213.546176 
L 117.349193 200.270041 
L 122.8068 195.15358 
L 127.605731 190.954216 
L 132.028275 187.374173 
L 136.215577 184.26441 
L 140.261735 181.531516 
L 144.213795 179.127311 
L 148.118808 177.011576 
L 151.976772 175.174064 
L 155.834736 173.584147 
L 159.6927 172.236015 
L 163.550664 171.122052 
L 167.455676 170.22371 
L 171.454785 169.531719 
L 175.547991 169.04963 
L 179.782341 168.777009 
L 184.157837 168.720148 
L 188.721526 168.885302 
L 193.520457 169.284355 
L 198.601678 169.933477 
L 204.012237 170.851567 
L 209.89328 172.079787 
L 216.338902 173.658595 
L 223.537299 175.655516 
L 231.911903 178.216241 
L 242.356635 181.654645 
L 258.776506 187.327674 
L 281.35971 195.088681 
L 294.721439 199.436542 
L 306.718766 203.109038 
L 318.151513 206.377071 
L 329.349018 209.346468 
L 340.499475 212.072686 
L 351.744028 214.591843 
L 363.176775 216.924088 
L 374.891812 219.085975 
L 386.983236 221.090377 
L 399.592191 222.95328 
L 412.765727 224.673044 
L 426.644988 226.258924 
L 441.371118 227.715733 
L 457.132313 229.048738 
L 474.116764 230.258883 
L 492.606762 231.349635 
L 512.931645 232.321818 
L 535.561897 233.177355 
L 541.678182 233.374044 
L 541.678182 233.374044 
" clip-path="url(#pa846816d43)" style="fill: none; stroke: #f0804e; stroke-width: 1.5; stroke-linecap: square"/>
   </g>
   <g id="line2d_37">
    <path d="M 71.241818 236.078059 
L 73.264897 235.959367 
L 75.382072 235.609202 
L 77.593344 235.015693 
L 79.945761 234.151033 
L 82.486372 232.974039 
L 85.215176 231.461206 
L 88.226269 229.534063 
L 91.61375 227.096732 
L 95.565811 223.969542 
L 100.458838 219.798248 
L 107.939524 213.088696 
L 118.666546 203.506641 
L 124.547589 198.564989 
L 129.62881 194.579791 
L 134.333644 191.168387 
L 138.803236 188.200376 
L 143.084635 185.620663 
L 147.271938 183.354274 
L 151.412192 181.365632 
L 155.505397 179.645467 
L 159.598603 178.166298 
L 163.691809 176.922384 
L 167.832063 175.89575 
L 172.019365 175.084789 
L 176.300764 174.480633 
L 180.723308 174.08209 
L 185.286997 173.895637 
L 190.03888 173.926322 
L 195.026004 174.184583 
L 200.24837 174.679588 
L 205.800074 175.430387 
L 211.775213 176.464724 
L 218.314933 177.8263 
L 225.607426 179.577815 
L 233.934982 181.813276 
L 244.003327 184.755526 
L 258.070781 189.118796 
L 291.192813 199.460267 
L 304.789784 203.425504 
L 317.210546 206.818263 
L 329.113776 209.840677 
L 340.828813 212.586985 
L 352.590899 215.11537 
L 364.494129 217.445445 
L 376.632601 219.594263 
L 389.14746 221.582915 
L 402.132802 223.420009 
L 415.729772 225.117159 
L 430.032468 226.676339 
L 445.229082 228.106643 
L 461.46076 229.408312 
L 478.962743 230.58602 
L 498.06437 231.644841 
L 519.094978 232.584003 
L 541.678182 233.378427 
L 541.678182 233.378427 
" clip-path="url(#pa846816d43)" style="fill: none; stroke: #f89540; stroke-width: 1.5; stroke-linecap: square"/>
   </g>
   <g id="line2d_38">
    <path d="M 71.241818 236.078077 
L 73.45309 235.957944 
L 75.758459 235.604183 
L 78.157924 235.007635 
L 80.698535 234.144748 
L 83.427339 232.980155 
L 86.391384 231.469591 
L 89.684768 229.534379 
L 93.401587 227.08327 
L 97.730034 223.953666 
L 103.23469 219.684174 
L 114.055809 210.930514 
L 122.054027 204.618947 
L 127.935069 200.255596 
L 133.157435 196.651871 
L 138.003414 193.572489 
L 142.6612 190.87403 
L 147.177841 188.514133 
L 151.600385 186.45447 
L 155.975881 184.662894 
L 160.304328 183.129865 
L 164.632775 181.830536 
L 169.008271 180.748023 
L 173.430815 179.881194 
L 177.947456 179.221189 
L 182.605242 178.766227 
L 187.404173 178.522209 
L 192.391297 178.492959 
L 197.613663 178.687286 
L 203.118319 179.117833 
L 208.952313 179.799714 
L 215.209742 180.756911 
L 222.031752 182.027864 
L 229.653583 183.67917 
L 238.357526 185.798531 
L 248.896355 188.602526 
L 263.716582 192.797183 
L 297.544339 202.432199 
L 311.799987 206.217592 
L 324.832377 209.449533 
L 337.347236 212.324361 
L 349.673901 214.92786 
L 362.047615 217.313279 
L 374.562474 219.499316 
L 387.406671 221.516563 
L 400.674303 223.374386 
L 414.506516 225.085451 
L 429.044453 226.657776 
L 444.429261 228.095665 
L 460.849132 229.404244 
L 478.539308 230.587769 
L 497.782079 231.648712 
L 518.953833 232.589487 
L 541.678182 233.384988 
L 541.678182 233.384988 
" clip-path="url(#pa846816d43)" style="fill: none; stroke: #fdac33; stroke-width: 1.5; stroke-linecap: square"/>
   </g>
   <g id="line2d_39">
    <path d="M 71.241818 236.078092 
L 73.594235 235.961248 
L 76.040749 235.617407 
L 78.628408 235.026484 
L 81.357212 234.173165 
L 84.321257 233.006863 
L 87.520544 231.503066 
L 91.04917 229.593858 
L 95.048279 227.171509 
L 99.800161 224.023396 
L 106.057591 219.590969 
L 126.053136 205.233624 
L 131.934178 201.39333 
L 137.250641 198.182566 
L 142.237765 195.425395 
L 147.036696 193.022035 
L 151.74153 190.913043 
L 156.352267 189.087852 
L 160.963005 187.502045 
L 165.573742 186.152668 
L 170.18448 185.034176 
L 174.889314 184.12291 
L 179.641196 183.428363 
L 184.534224 182.938092 
L 189.568396 182.657357 
L 194.790762 182.588928 
L 200.24837 182.740147 
L 206.035316 183.12585 
L 212.1516 183.758384 
L 218.738368 184.665536 
L 225.936764 185.885229 
L 233.934982 187.470227 
L 243.156457 189.530996 
L 254.40101 192.28205 
L 270.679737 196.517977 
L 302.34327 204.780425 
L 317.398739 208.45024 
L 331.042758 211.549594 
L 344.169245 214.303988 
L 357.107539 216.791484 
L 370.092881 219.060925 
L 383.266417 221.137117 
L 396.816339 223.046492 
L 410.836745 224.796653 
L 425.515827 226.403323 
L 440.994732 227.871609 
L 457.461651 229.207493 
L 475.104779 230.413105 
L 494.253454 231.495575 
L 515.284062 232.457672 
L 538.667088 233.300363 
L 541.678182 233.394082 
L 541.678182 233.394082 
" clip-path="url(#pa846816d43)" style="fill: none; stroke: #fdc527; stroke-width: 1.5; stroke-linecap: square"/>
   </g>
   <g id="line2d_40">
    <path d="M 71.241818 236.078103 
L 73.782429 235.959902 
L 76.417136 235.612599 
L 79.192988 235.019078 
L 82.109985 234.167103 
L 85.262224 233.012027 
L 88.696753 231.512139 
L 92.507668 229.599607 
L 96.883164 227.145628 
L 102.152578 223.921836 
L 109.445071 219.175148 
L 125.441507 208.700839 
L 131.934178 204.762014 
L 137.674076 201.536814 
L 142.990539 198.800239 
L 148.118808 196.409407 
L 153.058884 194.348714 
L 157.951911 192.547557 
L 162.79789 191.000114 
L 167.643869 189.68558 
L 172.536897 188.589373 
L 177.476973 187.710465 
L 182.511145 187.040256 
L 187.686463 186.576034 
L 193.049974 186.320368 
L 198.601678 186.279747 
L 204.435672 186.461789 
L 210.599005 186.879728 
L 217.185773 187.553392 
L 224.290072 188.507751 
L 232.100097 189.78625 
L 240.898137 191.45822 
L 251.201723 193.650929 
L 264.32821 196.684726 
L 290.72233 203.079212 
L 310.623778 207.771111 
L 326.008586 211.170366 
L 340.123088 214.063039 
L 353.767107 216.633323 
L 367.317029 218.959338 
L 380.961048 221.075358 
L 394.887357 223.00946 
L 409.28415 224.78277 
L 424.245522 226.400192 
L 440.006716 227.878219 
L 456.708878 229.218719 
L 474.587247 230.428082 
L 493.971164 231.513095 
L 515.189966 232.47448 
L 538.808233 233.317434 
L 541.678182 233.405951 
L 541.678182 233.405951 
" clip-path="url(#pa846816d43)" style="fill: none; stroke: #f8df25; stroke-width: 1.5; stroke-linecap: square"/>
   </g>
   <g id="patch_3">
    <path d="M 47.72 246.04 
L 47.72 26.88 
" style="fill: none; stroke: #000000; stroke-width: 0.8; stroke-linejoin: miter; stroke-linecap: square"/>
   </g>
   <g id="patch_4">
    <path d="M 565.2 246.04 
L 565.2 26.88 
" style="fill: none; stroke: #000000; stroke-width: 0.8; stroke-linejoin: miter; stroke-linecap: square"/>
   </g>
   <g id="patch_5">
    <path d="M 47.72 246.04 
L 565.2 246.04 
" style="fill: none; stroke: #000000; stroke-width: 0.8; stroke-linejoin: miter; stroke-linecap: square"/>
   </g>
   <g id="patch_6">
    <path d="M 47.72 26.88 
L 565.2 26.88 
" style="fill: none; stroke: #000000; stroke-width: 0.8; stroke-linejoin: miter; stroke-linecap: square"/>
   </g>
   <g id="text_15">
    <!-- AD Envelope Using Double EMA Filter with Varying k_A (k_D = 6.281e-04) -->
    <g transform="translate(85.702187 20.88)scale(0.12 -0.12)">
     <defs>
      <path id="DejaVuSans-44" d="M 1259 4147 
L 1259 519 
L 2022 519 
Q 2988 519 3436 956 
Q 3884 1394 3884 2338 
Q 3884 3275 3436 3711 
Q 2988 4147 2022 4147 
L 1259 4147 
z
M 628 4666 
L 1925 4666 
Q 3281 4666 3915 4102 
Q 4550 3538 4550 2338 
Q 4550 1131 3912 565 
Q 3275 0 1925 0 
L 628 0 
L 628 4666 
z
" transform="scale(0.015625)"/>
      <path id="DejaVuSans-45" d="M 628 4666 
L 3578 4666 
L 3578 4134 
L 1259 4134 
L 1259 2753 
L 3481 2753 
L 3481 2222 
L 1259 2222 
L 1259 531 
L 3634 531 
L 3634 0 
L 628 0 
L 628 4666 
z
" transform="scale(0.015625)"/>
      <path id="DejaVuSans-6e" d="M 3513 2113 
L 3513 0 
L 2938 0 
L 2938 2094 
Q 2938 2591 2744 2837 
Q 2550 3084 2163 3084 
Q 1697 3084 1428 2787 
Q 1159 2491 1159 1978 
L 1159 0 
L 581 0 
L 581 3500 
L 1159 3500 
L 1159 2956 
Q 1366 3272 1645 3428 
Q 1925 3584 2291 3584 
Q 2894 3584 3203 3211 
Q 3513 2838 3513 2113 
z
" transform="scale(0.015625)"/>
      <path id="DejaVuSans-76" d="M 191 3500 
L 800 3500 
L 1894 563 
L 2988 3500 
L 3597 3500 
L 2284 0 
L 1503 0 
L 191 3500 
z
" transform="scale(0.015625)"/>
      <path id="DejaVuSans-6f" d="M 1959 3097 
Q 1497 3097 1228 2736 
Q 959 2375 959 1747 
Q 959 1119 1226 758 
Q 1494 397 1959 397 
Q 2419 397 2687 759 
Q 2956 1122 2956 1747 
Q 2956 2369 2687 2733 
Q 2419 3097 1959 3097 
z
M 1959 3584 
Q 2709 3584 3137 3096 
Q 3566 2609 3566 1747 
Q 3566 888 3137 398 
Q 2709 -91 1959 -91 
Q 1206 -91 779 398 
Q 353 888 353 1747 
Q 353 2609 779 3096 
Q 1206 3584 1959 3584 
z
" transform="scale(0.015625)"/>
      <path id="DejaVuSans-55" d="M 556 4666 
L 1191 4666 
L 1191 1831 
Q 1191 1081 1462 751 
Q 1734 422 2344 422 
Q 2950 422 3222 751 
Q 3494 1081 3494 1831 
L 3494 4666 
L 4128 4666 
L 4128 1753 
Q 4128 841 3676 375 
Q 3225 -91 2344 -91 
Q 1459 -91 1007 375 
Q 556 841 556 1753 
L 556 4666 
z
" transform="scale(0.015625)"/>
      <path id="DejaVuSans-67" d="M 2906 1791 
Q 2906 2416 2648 2759 
Q 2391 3103 1925 3103 
Q 1463 3103 1205 2759 
Q 947 2416 947 1791 
Q 947 1169 1205 825 
Q 1463 481 1925 481 
Q 2391 481 2648 825 
Q 2906 1169 2906 1791 
z
M 3481 434 
Q 3481 -459 3084 -895 
Q 2688 -1331 1869 -1331 
Q 1566 -1331 1297 -1286 
Q 1028 -1241 775 -1147 
L 775 -588 
Q 1028 -725 1275 -790 
Q 1522 -856 1778 -856 
Q 2344 -856 2625 -561 
Q 2906 -266 2906 331 
L 2906 616 
Q 2728 306 2450 153 
Q 2172 0 1784 0 
Q 1141 0 747 490 
Q 353 981 353 1791 
Q 353 2603 747 3093 
Q 1141 3584 1784 3584 
Q 2172 3584 2450 3431 
Q 2728 3278 2906 2969 
L 2906 3500 
L 3481 3500 
L 3481 434 
z
" transform="scale(0.015625)"/>
      <path id="DejaVuSans-62" d="M 3116 1747 
Q 3116 2381 2855 2742 
Q 2594 3103 2138 3103 
Q 1681 3103 1420 2742 
Q 1159 2381 1159 1747 
Q 1159 1113 1420 752 
Q 1681 391 2138 391 
Q 2594 391 2855 752 
Q 3116 1113 3116 1747 
z
M 1159 2969 
Q 1341 3281 1617 3432 
Q 1894 3584 2278 3584 
Q 2916 3584 3314 3078 
Q 3713 2572 3713 1747 
Q 3713 922 3314 415 
Q 2916 -91 2278 -91 
Q 1894 -91 1617 61 
Q 1341 213 1159 525 
L 1159 0 
L 581 0 
L 581 4863 
L 1159 4863 
L 1159 2969 
z
" transform="scale(0.015625)"/>
      <path id="DejaVuSans-4d" d="M 628 4666 
L 1569 4666 
L 2759 1491 
L 3956 4666 
L 4897 4666 
L 4897 0 
L 4281 0 
L 4281 4097 
L 3078 897 
L 2444 897 
L 1241 4097 
L 1241 0 
L 628 0 
L 628 4666 
z
" transform="scale(0.015625)"/>
      <path id="DejaVuSans-46" d="M 628 4666 
L 3309 4666 
L 3309 4134 
L 1259 4134 
L 1259 2759 
L 3109 2759 
L 3109 2228 
L 1259 2228 
L 1259 0 
L 628 0 
L 628 4666 
z
" transform="scale(0.015625)"/>
      <path id="DejaVuSans-72" d="M 2631 2963 
Q 2534 3019 2420 3045 
Q 2306 3072 2169 3072 
Q 1681 3072 1420 2755 
Q 1159 2438 1159 1844 
L 1159 0 
L 581 0 
L 581 3500 
L 1159 3500 
L 1159 2956 
Q 1341 3275 1631 3429 
Q 1922 3584 2338 3584 
Q 2397 3584 2469 3576 
Q 2541 3569 2628 3553 
L 2631 2963 
z
" transform="scale(0.015625)"/>
      <path id="DejaVuSans-77" d="M 269 3500 
L 844 3500 
L 1563 769 
L 2278 3500 
L 2956 3500 
L 3675 769 
L 4391 3500 
L 4966 3500 
L 4050 0 
L 3372 0 
L 2619 2869 
L 1863 0 
L 1184 0 
L 269 3500 
z
" transform="scale(0.015625)"/>
      <path id="DejaVuSans-68" d="M 3513 2113 
L 3513 0 
L 2938 0 
L 2938 2094 
Q 2938 2591 2744 2837 
Q 2550 3084 2163 3084 
Q 1697 3084 1428 2787 
Q 1159 2491 1159 1978 
L 1159 0 
L 581 0 
L 581 4863 
L 1159 4863 
L 1159 2956 
Q 1366 3272 1645 3428 
Q 1925 3584 2291 3584 
Q 2894 3584 3203 3211 
Q 3513 2838 3513 2113 
z
" transform="scale(0.015625)"/>
      <path id="DejaVuSans-56" d="M 1831 0 
L 50 4666 
L 709 4666 
L 2188 738 
L 3669 4666 
L 4325 4666 
L 2547 0 
L 1831 0 
z
" transform="scale(0.015625)"/>
      <path id="DejaVuSans-79" d="M 2059 -325 
Q 1816 -950 1584 -1140 
Q 1353 -1331 966 -1331 
L 506 -1331 
L 506 -850 
L 844 -850 
Q 1081 -850 1212 -737 
Q 1344 -625 1503 -206 
L 1606 56 
L 191 3500 
L 800 3500 
L 1894 763 
L 2988 3500 
L 3597 3500 
L 2059 -325 
z
" transform="scale(0.015625)"/>
      <path id="DejaVuSans-6b" d="M 581 4863 
L 1159 4863 
L 1159 1991 
L 2875 3500 
L 3609 3500 
L 1753 1863 
L 3688 0 
L 2938 0 
L 1159 1709 
L 1159 0 
L 581 0 
L 581 4863 
z
" transform="scale(0.015625)"/>
      <path id="DejaVuSans-5f" d="M 3263 -1063 
L 3263 -1509 
L -63 -1509 
L -63 -1063 
L 3263 -1063 
z
" transform="scale(0.015625)"/>
      <path id="DejaVuSans-28" d="M 1984 4856 
Q 1566 4138 1362 3434 
Q 1159 2731 1159 2009 
Q 1159 1288 1364 580 
Q 1569 -128 1984 -844 
L 1484 -844 
Q 1016 -109 783 600 
Q 550 1309 550 2009 
Q 550 2706 781 3412 
Q 1013 4119 1484 4856 
L 1984 4856 
z
" transform="scale(0.015625)"/>
      <path id="DejaVuSans-3d" d="M 678 2906 
L 4684 2906 
L 4684 2381 
L 678 2381 
L 678 2906 
z
M 678 1631 
L 4684 1631 
L 4684 1100 
L 678 1100 
L 678 1631 
z
" transform="scale(0.015625)"/>
      <path id="DejaVuSans-2d" d="M 313 2009 
L 1997 2009 
L 1997 1497 
L 313 1497 
L 313 2009 
z
" transform="scale(0.015625)"/>
      <path id="DejaVuSans-29" d="M 513 4856 
L 1013 4856 
Q 1481 4119 1714 3412 
Q 1947 2706 1947 2009 
Q 1947 1309 1714 600 
Q 1481 -109 1013 -844 
L 513 -844 
Q 928 -128 1133 580 
Q 1338 1288 1338 2009 
Q 1338 2731 1133 3434 
Q 928 4138 513 4856 
z
" transform="scale(0.015625)"/>
     </defs>
     <use xlink:href="#DejaVuSans-41"/>
     <use xlink:href="#DejaVuSans-44" x="68.408203"/>
     <use xlink:href="#DejaVuSans-20" x="145.410156"/>
     <use xlink:href="#DejaVuSans-45" x="177.197266"/>
     <use xlink:href="#DejaVuSans-6e" x="240.380859"/>
     <use xlink:href="#DejaVuSans-76" x="303.759766"/>
     <use xlink:href="#DejaVuSans-65" x="362.939453"/>
     <use xlink:href="#DejaVuSans-6c" x="424.462891"/>
     <use xlink:href="#DejaVuSans-6f" x="452.246094"/>
     <use xlink:href="#DejaVuSans-70" x="513.427734"/>
     <use xlink:href="#DejaVuSans-65" x="576.904297"/>
     <use xlink:href="#DejaVuSans-20" x="638.427734"/>
     <use xlink:href="#DejaVuSans-55" x="670.214844"/>
     <use xlink:href="#DejaVuSans-73" x="743.408203"/>
     <use xlink:href="#DejaVuSans-69" x="795.507812"/>
     <use xlink:href="#DejaVuSans-6e" x="823.291016"/>
     <use xlink:href="#DejaVuSans-67" x="886.669922"/>
     <use xlink:href="#DejaVuSans-20" x="950.146484"/>
     <use xlink:href="#DejaVuSans-44" x="981.933594"/>
     <use xlink:href="#DejaVuSans-6f" x="1058.935547"/>
     <use xlink:href="#DejaVuSans-75" x="1120.117188"/>
     <use xlink:href="#DejaVuSans-62" x="1183.496094"/>
     <use xlink:href="#DejaVuSans-6c" x="1246.972656"/>
     <use xlink:href="#DejaVuSans-65" x="1274.755859"/>
     <use xlink:href="#DejaVuSans-20" x="1336.279297"/>
     <use xlink:href="#DejaVuSans-45" x="1368.066406"/>
     <use xlink:href="#DejaVuSans-4d" x="1431.25"/>
     <use xlink:href="#DejaVuSans-41" x="1517.529297"/>
     <use xlink:href="#DejaVuSans-20" x="1585.9375"/>
     <use xlink:href="#DejaVuSans-46" x="1617.724609"/>
     <use xlink:href="#DejaVuSans-69" x="1667.994141"/>
     <use xlink:href="#DejaVuSans-6c" x="1695.777344"/>
     <use xlink:href="#DejaVuSans-74" x="1723.560547"/>
     <use xlink:href="#DejaVuSans-65" x="1762.769531"/>
     <use xlink:href="#DejaVuSans-72" x="1824.292969"/>
     <use xlink:href="#DejaVuSans-20" x="1865.40625"/>
     <use xlink:href="#DejaVuSans-77" x="1897.193359"/>
     <use xlink:href="#DejaVuSans-69" x="1978.980469"/>
     <use xlink:href="#DejaVuSans-74" x="2006.763672"/>
     <use xlink:href="#DejaVuSans-68" x="2045.972656"/>
     <use xlink:href="#DejaVuSans-20" x="2109.351562"/>
     <use xlink:href="#DejaVuSans-56" x="2141.138672"/>
     <use xlink:href="#DejaVuSans-61" x="2201.796875"/>
     <use xlink:href="#DejaVuSans-72" x="2263.076172"/>
     <use xlink:href="#DejaVuSans-79" x="2304.189453"/>
     <use xlink:href="#DejaVuSans-69" x="2363.369141"/>
     <use xlink:href="#DejaVuSans-6e" x="2391.152344"/>
     <use xlink:href="#DejaVuSans-67" x="2454.53125"/>
     <use xlink:href="#DejaVuSans-20" x="2518.007812"/>
     <use xlink:href="#DejaVuSans-6b" x="2549.794922"/>
     <use xlink:href="#DejaVuSans-5f" x="2607.705078"/>
     <use xlink:href="#DejaVuSans-41" x="2657.705078"/>
     <use xlink:href="#DejaVuSans-20" x="2726.113281"/>
     <use xlink:href="#DejaVuSans-28" x="2757.900391"/>
     <use xlink:href="#DejaVuSans-6b" x="2796.914062"/>
     <use xlink:href="#DejaVuSans-5f" x="2854.824219"/>
     <use xlink:href="#DejaVuSans-44" x="2904.824219"/>
     <use xlink:href="#DejaVuSans-20" x="2981.826172"/>
     <use xlink:href="#DejaVuSans-3d" x="3013.613281"/>
     <use xlink:href="#DejaVuSans-20" x="3097.402344"/>
     <use xlink:href="#DejaVuSans-36" x="3129.189453"/>
     <use xlink:href="#DejaVuSans-2e" x="3192.8125"/>
     <use xlink:href="#DejaVuSans-32" x="3224.599609"/>
     <use xlink:href="#DejaVuSans-38" x="3288.222656"/>
     <use xlink:href="#DejaVuSans-31" x="3351.845703"/>
     <use xlink:href="#DejaVuSans-65" x="3415.46875"/>
     <use xlink:href="#DejaVuSans-2d" x="3476.992188"/>
     <use xlink:href="#DejaVuSans-30" x="3513.076172"/>
     <use xlink:href="#DejaVuSans-34" x="3576.699219"/>
     <use xlink:href="#DejaVuSans-29" x="3640.322266"/>
    </g>
   </g>
   <g id="legend_1">
    <g id="patch_7">
     <path d="M 323.95 154.53 
L 558.2 154.53 
Q 560.2 154.53 560.2 152.53 
L 560.2 33.88 
Q 560.2 31.88 558.2 31.88 
L 323.95 31.88 
Q 321.95 31.88 321.95 33.88 
L 321.95 152.53 
Q 321.95 154.53 323.95 154.53 
z
" style="fill: #ffffff; opacity: 0.8; stroke: #cccccc; stroke-linejoin: miter"/>
    </g>
    <g id="line2d_41">
     <path d="M 325.95 39.978437 
L 335.95 39.978437 
L 345.95 39.978437 
" style="fill: none; stroke: #0d0887; stroke-width: 1.5; stroke-linecap: square"/>
    </g>
    <g id="text_16">
     <!-- k_A=8.284e-01 -->
     <g transform="translate(353.95 43.478437)scale(0.1 -0.1)">
      <use xlink:href="#DejaVuSans-6b"/>
      <use xlink:href="#DejaVuSans-5f" x="57.910156"/>
      <use xlink:href="#DejaVuSans-41" x="107.910156"/>
      <use xlink:href="#DejaVuSans-3d" x="176.318359"/>
      <use xlink:href="#DejaVuSans-38" x="260.107422"/>
      <use xlink:href="#DejaVuSans-2e" x="323.730469"/>
      <use xlink:href="#DejaVuSans-32" x="355.517578"/>
      <use xlink:href="#DejaVuSans-38" x="419.140625"/>
      <use xlink:href="#DejaVuSans-34" x="482.763672"/>
      <use xlink:href="#DejaVuSans-65" x="546.386719"/>
      <use xlink:href="#DejaVuSans-2d" x="607.910156"/>
      <use xlink:href="#DejaVuSans-30" x="643.994141"/>
      <use xlink:href="#DejaVuSans-31" x="707.617188"/>
     </g>
    </g>
    <g id="line2d_42">
     <path d="M 325.95 54.934687 
L 335.95 54.934687 
L 345.95 54.934687 
" style="fill: none; stroke: #310597; stroke-width: 1.5; stroke-linecap: square"/>
    </g>
    <g id="text_17">
     <!-- k_A=9.354e-03 -->
     <g transform="translate(353.95 58.434687)scale(0.1 -0.1)">
      <defs>
       <path id="DejaVuSans-39" d="M 703 97 
L 703 672 
Q 941 559 1184 500 
Q 1428 441 1663 441 
Q 2288 441 2617 861 
Q 2947 1281 2994 2138 
Q 2813 1869 2534 1725 
Q 2256 1581 1919 1581 
Q 1219 1581 811 2004 
Q 403 2428 403 3163 
Q 403 3881 828 4315 
Q 1253 4750 1959 4750 
Q 2769 4750 3195 4129 
Q 3622 3509 3622 2328 
Q 3622 1225 3098 567 
Q 2575 -91 1691 -91 
Q 1453 -91 1209 -44 
Q 966 3 703 97 
z
M 1959 2075 
Q 2384 2075 2632 2365 
Q 2881 2656 2881 3163 
Q 2881 3666 2632 3958 
Q 2384 4250 1959 4250 
Q 1534 4250 1286 3958 
Q 1038 3666 1038 3163 
Q 1038 2656 1286 2365 
Q 1534 2075 1959 2075 
z
" transform="scale(0.015625)"/>
       <path id="DejaVuSans-33" d="M 2597 2516 
Q 3050 2419 3304 2112 
Q 3559 1806 3559 1356 
Q 3559 666 3084 287 
Q 2609 -91 1734 -91 
Q 1441 -91 1130 -33 
Q 819 25 488 141 
L 488 750 
Q 750 597 1062 519 
Q 1375 441 1716 441 
Q 2309 441 2620 675 
Q 2931 909 2931 1356 
Q 2931 1769 2642 2001 
Q 2353 2234 1838 2234 
L 1294 2234 
L 1294 2753 
L 1863 2753 
Q 2328 2753 2575 2939 
Q 2822 3125 2822 3475 
Q 2822 3834 2567 4026 
Q 2313 4219 1838 4219 
Q 1578 4219 1281 4162 
Q 984 4106 628 3988 
L 628 4550 
Q 988 4650 1302 4700 
Q 1616 4750 1894 4750 
Q 2613 4750 3031 4423 
Q 3450 4097 3450 3541 
Q 3450 3153 3228 2886 
Q 3006 2619 2597 2516 
z
" transform="scale(0.015625)"/>
       <path id="DejaVuSans-35" d="M 691 4666 
L 3169 4666 
L 3169 4134 
L 1269 4134 
L 1269 2991 
Q 1406 3038 1543 3061 
Q 1681 3084 1819 3084 
Q 2600 3084 3056 2656 
Q 3513 2228 3513 1497 
Q 3513 744 3044 326 
Q 2575 -91 1722 -91 
Q 1428 -91 1123 -41 
Q 819 9 494 109 
L 494 744 
Q 775 591 1075 516 
Q 1375 441 1709 441 
Q 2250 441 2565 725 
Q 2881 1009 2881 1497 
Q 2881 1984 2565 2268 
Q 2250 2553 1709 2553 
Q 1456 2553 1204 2497 
Q 953 2441 691 2322 
L 691 4666 
z
" transform="scale(0.015625)"/>
      </defs>
      <use xlink:href="#DejaVuSans-6b"/>
      <use xlink:href="#DejaVuSans-5f" x="57.910156"/>
      <use xlink:href="#DejaVuSans-41" x="107.910156"/>
      <use xlink:href="#DejaVuSans-3d" x="176.318359"/>
      <use xlink:href="#DejaVuSans-39" x="260.107422"/>
      <use xlink:href="#DejaVuSans-2e" x="323.730469"/>
      <use xlink:href="#DejaVuSans-33" x="355.517578"/>
      <use xlink:href="#DejaVuSans-35" x="419.140625"/>
      <use xlink:href="#DejaVuSans-34" x="482.763672"/>
      <use xlink:href="#DejaVuSans-65" x="546.386719"/>
      <use xlink:href="#DejaVuSans-2d" x="607.910156"/>
      <use xlink:href="#DejaVuSans-30" x="643.994141"/>
      <use xlink:href="#DejaVuSans-33" x="707.617188"/>
     </g>
    </g>
    <g id="line2d_43">
     <path d="M 325.95 69.890937 
L 335.95 69.890937 
L 345.95 69.890937 
" style="fill: none; stroke: #4c02a1; stroke-width: 1.5; stroke-linecap: square"/>
    </g>
    <g id="text_18">
     <!-- k_A=4.695e-03 -->
     <g transform="translate(353.95 73.390937)scale(0.1 -0.1)">
      <use xlink:href="#DejaVuSans-6b"/>
      <use xlink:href="#DejaVuSans-5f" x="57.910156"/>
      <use xlink:href="#DejaVuSans-41" x="107.910156"/>
      <use xlink:href="#DejaVuSans-3d" x="176.318359"/>
      <use xlink:href="#DejaVuSans-34" x="260.107422"/>
      <use xlink:href="#DejaVuSans-2e" x="323.730469"/>
      <use xlink:href="#DejaVuSans-36" x="355.517578"/>
      <use xlink:href="#DejaVuSans-39" x="419.140625"/>
      <use xlink:href="#DejaVuSans-35" x="482.763672"/>
      <use xlink:href="#DejaVuSans-65" x="546.386719"/>
      <use xlink:href="#DejaVuSans-2d" x="607.910156"/>
      <use xlink:href="#DejaVuSans-30" x="643.994141"/>
      <use xlink:href="#DejaVuSans-33" x="707.617188"/>
     </g>
    </g>
    <g id="line2d_44">
     <path d="M 325.95 84.847187 
L 335.95 84.847187 
L 345.95 84.847187 
" style="fill: none; stroke: #6600a7; stroke-width: 1.5; stroke-linecap: square"/>
    </g>
    <g id="text_19">
     <!-- k_A=3.134e-03 -->
     <g transform="translate(353.95 88.347187)scale(0.1 -0.1)">
      <use xlink:href="#DejaVuSans-6b"/>
      <use xlink:href="#DejaVuSans-5f" x="57.910156"/>
      <use xlink:href="#DejaVuSans-41" x="107.910156"/>
      <use xlink:href="#DejaVuSans-3d" x="176.318359"/>
      <use xlink:href="#DejaVuSans-33" x="260.107422"/>
      <use xlink:href="#DejaVuSans-2e" x="323.730469"/>
      <use xlink:href="#DejaVuSans-31" x="355.517578"/>
      <use xlink:href="#DejaVuSans-33" x="419.140625"/>
      <use xlink:href="#DejaVuSans-34" x="482.763672"/>
      <use xlink:href="#DejaVuSans-65" x="546.386719"/>
      <use xlink:href="#DejaVuSans-2d" x="607.910156"/>
      <use xlink:href="#DejaVuSans-30" x="643.994141"/>
      <use xlink:href="#DejaVuSans-33" x="707.617188"/>
     </g>
    </g>
    <g id="line2d_45">
     <path d="M 325.95 99.803437 
L 335.95 99.803437 
L 345.95 99.803437 
" style="fill: none; stroke: #7e03a8; stroke-width: 1.5; stroke-linecap: square"/>
    </g>
    <g id="text_20">
     <!-- k_A=2.352e-03 -->
     <g transform="translate(353.95 103.303437)scale(0.1 -0.1)">
      <use xlink:href="#DejaVuSans-6b"/>
      <use xlink:href="#DejaVuSans-5f" x="57.910156"/>
      <use xlink:href="#DejaVuSans-41" x="107.910156"/>
      <use xlink:href="#DejaVuSans-3d" x="176.318359"/>
      <use xlink:href="#DejaVuSans-32" x="260.107422"/>
      <use xlink:href="#DejaVuSans-2e" x="323.730469"/>
      <use xlink:href="#DejaVuSans-33" x="355.517578"/>
      <use xlink:href="#DejaVuSans-35" x="419.140625"/>
      <use xlink:href="#DejaVuSans-32" x="482.763672"/>
      <use xlink:href="#DejaVuSans-65" x="546.386719"/>
      <use xlink:href="#DejaVuSans-2d" x="607.910156"/>
      <use xlink:href="#DejaVuSans-30" x="643.994141"/>
      <use xlink:href="#DejaVuSans-33" x="707.617188"/>
     </g>
    </g>
    <g id="line2d_46">
     <path d="M 325.95 114.759687 
L 335.95 114.759687 
L 345.95 114.759687 
" style="fill: none; stroke: #9511a1; stroke-width: 1.5; stroke-linecap: square"/>
    </g>
    <g id="text_21">
     <!-- k_A=1.882e-03 -->
     <g transform="translate(353.95 118.259687)scale(0.1 -0.1)">
      <use xlink:href="#DejaVuSans-6b"/>
      <use xlink:href="#DejaVuSans-5f" x="57.910156"/>
      <use xlink:href="#DejaVuSans-41" x="107.910156"/>
      <use xlink:href="#DejaVuSans-3d" x="176.318359"/>
      <use xlink:href="#DejaVuSans-31" x="260.107422"/>
      <use xlink:href="#DejaVuSans-2e" x="323.730469"/>
      <use xlink:href="#DejaVuSans-38" x="355.517578"/>
      <use xlink:href="#DejaVuSans-38" x="419.140625"/>
      <use xlink:href="#DejaVuSans-32" x="482.763672"/>
      <use xlink:href="#DejaVuSans-65" x="546.386719"/>
      <use xlink:href="#DejaVuSans-2d" x="607.910156"/>
      <use xlink:href="#DejaVuSans-30" x="643.994141"/>
      <use xlink:href="#DejaVuSans-33" x="707.617188"/>
     </g>
    </g>
    <g id="line2d_47">
     <path d="M 325.95 129.715937 
L 335.95 129.715937 
L 345.95 129.715937 
" style="fill: none; stroke: #aa2395; stroke-width: 1.5; stroke-linecap: square"/>
    </g>
    <g id="text_22">
     <!-- k_A=1.569e-03 -->
     <g transform="translate(353.95 133.215937)scale(0.1 -0.1)">
      <use xlink:href="#DejaVuSans-6b"/>
      <use xlink:href="#DejaVuSans-5f" x="57.910156"/>
      <use xlink:href="#DejaVuSans-41" x="107.910156"/>
      <use xlink:href="#DejaVuSans-3d" x="176.318359"/>
      <use xlink:href="#DejaVuSans-31" x="260.107422"/>
      <use xlink:href="#DejaVuSans-2e" x="323.730469"/>
      <use xlink:href="#DejaVuSans-35" x="355.517578"/>
      <use xlink:href="#DejaVuSans-36" x="419.140625"/>
      <use xlink:href="#DejaVuSans-39" x="482.763672"/>
      <use xlink:href="#DejaVuSans-65" x="546.386719"/>
      <use xlink:href="#DejaVuSans-2d" x="607.910156"/>
      <use xlink:href="#DejaVuSans-30" x="643.994141"/>
      <use xlink:href="#DejaVuSans-33" x="707.617188"/>
     </g>
    </g>
    <g id="line2d_48">
     <path d="M 325.95 144.672187 
L 335.95 144.672187 
L 345.95 144.672187 
" style="fill: none; stroke: #bc3587; stroke-width: 1.5; stroke-linecap: square"/>
    </g>
    <g id="text_23">
     <!-- k_A=1.345e-03 -->
     <g transform="translate(353.95 148.172187)scale(0.1 -0.1)">
      <use xlink:href="#DejaVuSans-6b"/>
      <use xlink:href="#DejaVuSans-5f" x="57.910156"/>
      <use xlink:href="#DejaVuSans-41" x="107.910156"/>
      <use xlink:href="#DejaVuSans-3d" x="176.318359"/>
      <use xlink:href="#DejaVuSans-31" x="260.107422"/>
      <use xlink:href="#DejaVuSans-2e" x="323.730469"/>
      <use xlink:href="#DejaVuSans-33" x="355.517578"/>
      <use xlink:href="#DejaVuSans-34" x="419.140625"/>
      <use xlink:href="#DejaVuSans-35" x="482.763672"/>
      <use xlink:href="#DejaVuSans-65" x="546.386719"/>
      <use xlink:href="#DejaVuSans-2d" x="607.910156"/>
      <use xlink:href="#DejaVuSans-30" x="643.994141"/>
      <use xlink:href="#DejaVuSans-33" x="707.617188"/>
     </g>
    </g>
    <g id="line2d_49">
     <path d="M 451.075 39.978437 
L 461.075 39.978437 
L 471.075 39.978437 
" style="fill: none; stroke: #cc4778; stroke-width: 1.5; stroke-linecap: square"/>
    </g>
    <g id="text_24">
     <!-- k_A=1.177e-03 -->
     <g transform="translate(479.075 43.478437)scale(0.1 -0.1)">
      <defs>
       <path id="DejaVuSans-37" d="M 525 4666 
L 3525 4666 
L 3525 4397 
L 1831 0 
L 1172 0 
L 2766 4134 
L 525 4134 
L 525 4666 
z
" transform="scale(0.015625)"/>
      </defs>
      <use xlink:href="#DejaVuSans-6b"/>
      <use xlink:href="#DejaVuSans-5f" x="57.910156"/>
      <use xlink:href="#DejaVuSans-41" x="107.910156"/>
      <use xlink:href="#DejaVuSans-3d" x="176.318359"/>
      <use xlink:href="#DejaVuSans-31" x="260.107422"/>
      <use xlink:href="#DejaVuSans-2e" x="323.730469"/>
      <use xlink:href="#DejaVuSans-31" x="355.517578"/>
      <use xlink:href="#DejaVuSans-37" x="419.140625"/>
      <use xlink:href="#DejaVuSans-37" x="482.763672"/>
      <use xlink:href="#DejaVuSans-65" x="546.386719"/>
      <use xlink:href="#DejaVuSans-2d" x="607.910156"/>
      <use xlink:href="#DejaVuSans-30" x="643.994141"/>
      <use xlink:href="#DejaVuSans-33" x="707.617188"/>
     </g>
    </g>
    <g id="line2d_50">
     <path d="M 451.075 54.934687 
L 461.075 54.934687 
L 471.075 54.934687 
" style="fill: none; stroke: #da5a6a; stroke-width: 1.5; stroke-linecap: square"/>
    </g>
    <g id="text_25">
     <!-- k_A=1.047e-03 -->
     <g transform="translate(479.075 58.434687)scale(0.1 -0.1)">
      <use xlink:href="#DejaVuSans-6b"/>
      <use xlink:href="#DejaVuSans-5f" x="57.910156"/>
      <use xlink:href="#DejaVuSans-41" x="107.910156"/>
      <use xlink:href="#DejaVuSans-3d" x="176.318359"/>
      <use xlink:href="#DejaVuSans-31" x="260.107422"/>
      <use xlink:href="#DejaVuSans-2e" x="323.730469"/>
      <use xlink:href="#DejaVuSans-30" x="355.517578"/>
      <use xlink:href="#DejaVuSans-34" x="419.140625"/>
      <use xlink:href="#DejaVuSans-37" x="482.763672"/>
      <use xlink:href="#DejaVuSans-65" x="546.386719"/>
      <use xlink:href="#DejaVuSans-2d" x="607.910156"/>
      <use xlink:href="#DejaVuSans-30" x="643.994141"/>
      <use xlink:href="#DejaVuSans-33" x="707.617188"/>
     </g>
    </g>
    <g id="line2d_51">
     <path d="M 451.075 69.890937 
L 461.075 69.890937 
L 471.075 69.890937 
" style="fill: none; stroke: #e66c5c; stroke-width: 1.5; stroke-linecap: square"/>
    </g>
    <g id="text_26">
     <!-- k_A=9.419e-04 -->
     <g transform="translate(479.075 73.390937)scale(0.1 -0.1)">
      <use xlink:href="#DejaVuSans-6b"/>
      <use xlink:href="#DejaVuSans-5f" x="57.910156"/>
      <use xlink:href="#DejaVuSans-41" x="107.910156"/>
      <use xlink:href="#DejaVuSans-3d" x="176.318359"/>
      <use xlink:href="#DejaVuSans-39" x="260.107422"/>
      <use xlink:href="#DejaVuSans-2e" x="323.730469"/>
      <use xlink:href="#DejaVuSans-34" x="355.517578"/>
      <use xlink:href="#DejaVuSans-31" x="419.140625"/>
      <use xlink:href="#DejaVuSans-39" x="482.763672"/>
      <use xlink:href="#DejaVuSans-65" x="546.386719"/>
      <use xlink:href="#DejaVuSans-2d" x="607.910156"/>
      <use xlink:href="#DejaVuSans-30" x="643.994141"/>
      <use xlink:href="#DejaVuSans-34" x="707.617188"/>
     </g>
    </g>
    <g id="line2d_52">
     <path d="M 451.075 84.847187 
L 461.075 84.847187 
L 471.075 84.847187 
" style="fill: none; stroke: #f0804e; stroke-width: 1.5; stroke-linecap: square"/>
    </g>
    <g id="text_27">
     <!-- k_A=8.564e-04 -->
     <g transform="translate(479.075 88.347187)scale(0.1 -0.1)">
      <use xlink:href="#DejaVuSans-6b"/>
      <use xlink:href="#DejaVuSans-5f" x="57.910156"/>
      <use xlink:href="#DejaVuSans-41" x="107.910156"/>
      <use xlink:href="#DejaVuSans-3d" x="176.318359"/>
      <use xlink:href="#DejaVuSans-38" x="260.107422"/>
      <use xlink:href="#DejaVuSans-2e" x="323.730469"/>
      <use xlink:href="#DejaVuSans-35" x="355.517578"/>
      <use xlink:href="#DejaVuSans-36" x="419.140625"/>
      <use xlink:href="#DejaVuSans-34" x="482.763672"/>
      <use xlink:href="#DejaVuSans-65" x="546.386719"/>
      <use xlink:href="#DejaVuSans-2d" x="607.910156"/>
      <use xlink:href="#DejaVuSans-30" x="643.994141"/>
      <use xlink:href="#DejaVuSans-34" x="707.617188"/>
     </g>
    </g>
    <g id="line2d_53">
     <path d="M 451.075 99.803437 
L 461.075 99.803437 
L 471.075 99.803437 
" style="fill: none; stroke: #f89540; stroke-width: 1.5; stroke-linecap: square"/>
    </g>
    <g id="text_28">
     <!-- k_A=7.851e-04 -->
     <g transform="translate(479.075 103.303437)scale(0.1 -0.1)">
      <use xlink:href="#DejaVuSans-6b"/>
      <use xlink:href="#DejaVuSans-5f" x="57.910156"/>
      <use xlink:href="#DejaVuSans-41" x="107.910156"/>
      <use xlink:href="#DejaVuSans-3d" x="176.318359"/>
      <use xlink:href="#DejaVuSans-37" x="260.107422"/>
      <use xlink:href="#DejaVuSans-2e" x="323.730469"/>
      <use xlink:href="#DejaVuSans-38" x="355.517578"/>
      <use xlink:href="#DejaVuSans-35" x="419.140625"/>
      <use xlink:href="#DejaVuSans-31" x="482.763672"/>
      <use xlink:href="#DejaVuSans-65" x="546.386719"/>
      <use xlink:href="#DejaVuSans-2d" x="607.910156"/>
      <use xlink:href="#DejaVuSans-30" x="643.994141"/>
      <use xlink:href="#DejaVuSans-34" x="707.617188"/>
     </g>
    </g>
    <g id="line2d_54">
     <path d="M 451.075 114.759687 
L 461.075 114.759687 
L 471.075 114.759687 
" style="fill: none; stroke: #fdac33; stroke-width: 1.5; stroke-linecap: square"/>
    </g>
    <g id="text_29">
     <!-- k_A=7.247e-04 -->
     <g transform="translate(479.075 118.259687)scale(0.1 -0.1)">
      <use xlink:href="#DejaVuSans-6b"/>
      <use xlink:href="#DejaVuSans-5f" x="57.910156"/>
      <use xlink:href="#DejaVuSans-41" x="107.910156"/>
      <use xlink:href="#DejaVuSans-3d" x="176.318359"/>
      <use xlink:href="#DejaVuSans-37" x="260.107422"/>
      <use xlink:href="#DejaVuSans-2e" x="323.730469"/>
      <use xlink:href="#DejaVuSans-32" x="355.517578"/>
      <use xlink:href="#DejaVuSans-34" x="419.140625"/>
      <use xlink:href="#DejaVuSans-37" x="482.763672"/>
      <use xlink:href="#DejaVuSans-65" x="546.386719"/>
      <use xlink:href="#DejaVuSans-2d" x="607.910156"/>
      <use xlink:href="#DejaVuSans-30" x="643.994141"/>
      <use xlink:href="#DejaVuSans-34" x="707.617188"/>
     </g>
    </g>
    <g id="line2d_55">
     <path d="M 451.075 129.715937 
L 461.075 129.715937 
L 471.075 129.715937 
" style="fill: none; stroke: #fdc527; stroke-width: 1.5; stroke-linecap: square"/>
    </g>
    <g id="text_30">
     <!-- k_A=6.730e-04 -->
     <g transform="translate(479.075 133.215937)scale(0.1 -0.1)">
      <use xlink:href="#DejaVuSans-6b"/>
      <use xlink:href="#DejaVuSans-5f" x="57.910156"/>
      <use xlink:href="#DejaVuSans-41" x="107.910156"/>
      <use xlink:href="#DejaVuSans-3d" x="176.318359"/>
      <use xlink:href="#DejaVuSans-36" x="260.107422"/>
      <use xlink:href="#DejaVuSans-2e" x="323.730469"/>
      <use xlink:href="#DejaVuSans-37" x="355.517578"/>
      <use xlink:href="#DejaVuSans-33" x="419.140625"/>
      <use xlink:href="#DejaVuSans-30" x="482.763672"/>
      <use xlink:href="#DejaVuSans-65" x="546.386719"/>
      <use xlink:href="#DejaVuSans-2d" x="607.910156"/>
      <use xlink:href="#DejaVuSans-30" x="643.994141"/>
      <use xlink:href="#DejaVuSans-34" x="707.617188"/>
     </g>
    </g>
    <g id="line2d_56">
     <path d="M 451.075 144.672187 
L 461.075 144.672187 
L 471.075 144.672187 
" style="fill: none; stroke: #f8df25; stroke-width: 1.5; stroke-linecap: square"/>
    </g>
    <g id="text_31">
     <!-- k_A=6.281e-04 -->
     <g transform="translate(479.075 148.172187)scale(0.1 -0.1)">
      <use xlink:href="#DejaVuSans-6b"/>
      <use xlink:href="#DejaVuSans-5f" x="57.910156"/>
      <use xlink:href="#DejaVuSans-41" x="107.910156"/>
      <use xlink:href="#DejaVuSans-3d" x="176.318359"/>
      <use xlink:href="#DejaVuSans-36" x="260.107422"/>
      <use xlink:href="#DejaVuSans-2e" x="323.730469"/>
      <use xlink:href="#DejaVuSans-32" x="355.517578"/>
      <use xlink:href="#DejaVuSans-38" x="419.140625"/>
      <use xlink:href="#DejaVuSans-31" x="482.763672"/>
      <use xlink:href="#DejaVuSans-65" x="546.386719"/>
      <use xlink:href="#DejaVuSans-2d" x="607.910156"/>
      <use xlink:href="#DejaVuSans-30" x="643.994141"/>
      <use xlink:href="#DejaVuSans-34" x="707.617188"/>
     </g>
    </g>
   </g>
  </g>
 </g>
 <defs>
  <clipPath id="pa846816d43">
   <rect x="47.72" y="26.88" width="517.48" height="219.16"/>
  </clipPath>
 </defs>
</svg>
