<?xml version="1.0" encoding="utf-8" standalone="no"?>
<!DOCTYPE svg PUBLIC "-//W3C//DTD SVG 1.1//EN"
  "http://www.w3.org/Graphics/SVG/1.1/DTD/svg11.dtd">
<svg xmlns:xlink="http://www.w3.org/1999/xlink" width="576pt" height="288pt" viewBox="0 0 576 288" xmlns="http://www.w3.org/2000/svg" version="1.1">
 <metadata>
  <rdf:RDF xmlns:dc="http://purl.org/dc/elements/1.1/" xmlns:cc="http://creativecommons.org/ns#" xmlns:rdf="http://www.w3.org/1999/02/22-rdf-syntax-ns#">
   <cc:Work>
    <dc:type rdf:resource="http://purl.org/dc/dcmitype/StillImage"/>
    <dc:date>2022-08-28T20:26:28.180983</dc:date>
    <dc:format>image/svg+xml</dc:format>
    <dc:creator>
     <cc:Agent>
      <dc:title>Matplotlib v3.5.3, https://matplotlib.org/</dc:title>
     </cc:Agent>
    </dc:creator>
   </cc:Work>
  </rdf:RDF>
 </metadata>
 <defs>
  <style type="text/css">*{stroke-linejoin: round; stroke-linecap: butt}</style>
 </defs>
 <g id="figure_1">
  <g id="patch_1">
   <path d="M 0 288 
L 576 288 
L 576 0 
L 0 0 
z
" style="fill: #ffffff"/>
  </g>
  <g id="axes_1">
   <g id="patch_2">
    <path d="M 47.72 246.04 
L 565.2 246.04 
L 565.2 26.88 
L 47.72 26.88 
z
" style="fill: #ffffff"/>
   </g>
   <g id="matplotlib.axis_1">
    <g id="xtick_1">
     <g id="line2d_1">
      <path d="M 71.241818 246.04 
L 71.241818 26.88 
" clip-path="url(#pcbcd77a3ce)" style="fill: none; stroke: #b0b0b0; stroke-width: 0.8; stroke-linecap: square"/>
     </g>
     <g id="line2d_2">
      <defs>
       <path id="mc5384473d3" d="M 0 0 
L 0 3.5 
" style="stroke: #000000; stroke-width: 0.8"/>
      </defs>
      <g>
       <use xlink:href="#mc5384473d3" x="71.241818" y="246.04" style="stroke: #000000; stroke-width: 0.8"/>
      </g>
     </g>
     <g id="text_1">
      <!-- 0 -->
      <g transform="translate(68.060568 260.638438)scale(0.1 -0.1)">
       <defs>
        <path id="DejaVuSans-30" d="M 2034 4250 
Q 1547 4250 1301 3770 
Q 1056 3291 1056 2328 
Q 1056 1369 1301 889 
Q 1547 409 2034 409 
Q 2525 409 2770 889 
Q 3016 1369 3016 2328 
Q 3016 3291 2770 3770 
Q 2525 4250 2034 4250 
z
M 2034 4750 
Q 2819 4750 3233 4129 
Q 3647 3509 3647 2328 
Q 3647 1150 3233 529 
Q 2819 -91 2034 -91 
Q 1250 -91 836 529 
Q 422 1150 422 2328 
Q 422 3509 836 4129 
Q 1250 4750 2034 4750 
z
" transform="scale(0.015625)"/>
       </defs>
       <use xlink:href="#DejaVuSans-30"/>
      </g>
     </g>
    </g>
    <g id="xtick_2">
     <g id="line2d_3">
      <path d="M 165.338501 246.04 
L 165.338501 26.88 
" clip-path="url(#pcbcd77a3ce)" style="fill: none; stroke: #b0b0b0; stroke-width: 0.8; stroke-linecap: square"/>
     </g>
     <g id="line2d_4">
      <g>
       <use xlink:href="#mc5384473d3" x="165.338501" y="246.04" style="stroke: #000000; stroke-width: 0.8"/>
      </g>
     </g>
     <g id="text_2">
      <!-- 2000 -->
      <g transform="translate(152.613501 260.638438)scale(0.1 -0.1)">
       <defs>
        <path id="DejaVuSans-32" d="M 1228 531 
L 3431 531 
L 3431 0 
L 469 0 
L 469 531 
Q 828 903 1448 1529 
Q 2069 2156 2228 2338 
Q 2531 2678 2651 2914 
Q 2772 3150 2772 3378 
Q 2772 3750 2511 3984 
Q 2250 4219 1831 4219 
Q 1534 4219 1204 4116 
Q 875 4013 500 3803 
L 500 4441 
Q 881 4594 1212 4672 
Q 1544 4750 1819 4750 
Q 2544 4750 2975 4387 
Q 3406 4025 3406 3419 
Q 3406 3131 3298 2873 
Q 3191 2616 2906 2266 
Q 2828 2175 2409 1742 
Q 1991 1309 1228 531 
z
" transform="scale(0.015625)"/>
       </defs>
       <use xlink:href="#DejaVuSans-32"/>
       <use xlink:href="#DejaVuSans-30" x="63.623047"/>
       <use xlink:href="#DejaVuSans-30" x="127.246094"/>
       <use xlink:href="#DejaVuSans-30" x="190.869141"/>
      </g>
     </g>
    </g>
    <g id="xtick_3">
     <g id="line2d_5">
      <path d="M 259.435183 246.04 
L 259.435183 26.88 
" clip-path="url(#pcbcd77a3ce)" style="fill: none; stroke: #b0b0b0; stroke-width: 0.8; stroke-linecap: square"/>
     </g>
     <g id="line2d_6">
      <g>
       <use xlink:href="#mc5384473d3" x="259.435183" y="246.04" style="stroke: #000000; stroke-width: 0.8"/>
      </g>
     </g>
     <g id="text_3">
      <!-- 4000 -->
      <g transform="translate(246.710183 260.638438)scale(0.1 -0.1)">
       <defs>
        <path id="DejaVuSans-34" d="M 2419 4116 
L 825 1625 
L 2419 1625 
L 2419 4116 
z
M 2253 4666 
L 3047 4666 
L 3047 1625 
L 3713 1625 
L 3713 1100 
L 3047 1100 
L 3047 0 
L 2419 0 
L 2419 1100 
L 313 1100 
L 313 1709 
L 2253 4666 
z
" transform="scale(0.015625)"/>
       </defs>
       <use xlink:href="#DejaVuSans-34"/>
       <use xlink:href="#DejaVuSans-30" x="63.623047"/>
       <use xlink:href="#DejaVuSans-30" x="127.246094"/>
       <use xlink:href="#DejaVuSans-30" x="190.869141"/>
      </g>
     </g>
    </g>
    <g id="xtick_4">
     <g id="line2d_7">
      <path d="M 353.531865 246.04 
L 353.531865 26.88 
" clip-path="url(#pcbcd77a3ce)" style="fill: none; stroke: #b0b0b0; stroke-width: 0.8; stroke-linecap: square"/>
     </g>
     <g id="line2d_8">
      <g>
       <use xlink:href="#mc5384473d3" x="353.531865" y="246.04" style="stroke: #000000; stroke-width: 0.8"/>
      </g>
     </g>
     <g id="text_4">
      <!-- 6000 -->
      <g transform="translate(340.806865 260.638438)scale(0.1 -0.1)">
       <defs>
        <path id="DejaVuSans-36" d="M 2113 2584 
Q 1688 2584 1439 2293 
Q 1191 2003 1191 1497 
Q 1191 994 1439 701 
Q 1688 409 2113 409 
Q 2538 409 2786 701 
Q 3034 994 3034 1497 
Q 3034 2003 2786 2293 
Q 2538 2584 2113 2584 
z
M 3366 4563 
L 3366 3988 
Q 3128 4100 2886 4159 
Q 2644 4219 2406 4219 
Q 1781 4219 1451 3797 
Q 1122 3375 1075 2522 
Q 1259 2794 1537 2939 
Q 1816 3084 2150 3084 
Q 2853 3084 3261 2657 
Q 3669 2231 3669 1497 
Q 3669 778 3244 343 
Q 2819 -91 2113 -91 
Q 1303 -91 875 529 
Q 447 1150 447 2328 
Q 447 3434 972 4092 
Q 1497 4750 2381 4750 
Q 2619 4750 2861 4703 
Q 3103 4656 3366 4563 
z
" transform="scale(0.015625)"/>
       </defs>
       <use xlink:href="#DejaVuSans-36"/>
       <use xlink:href="#DejaVuSans-30" x="63.623047"/>
       <use xlink:href="#DejaVuSans-30" x="127.246094"/>
       <use xlink:href="#DejaVuSans-30" x="190.869141"/>
      </g>
     </g>
    </g>
    <g id="xtick_5">
     <g id="line2d_9">
      <path d="M 447.628548 246.04 
L 447.628548 26.88 
" clip-path="url(#pcbcd77a3ce)" style="fill: none; stroke: #b0b0b0; stroke-width: 0.8; stroke-linecap: square"/>
     </g>
     <g id="line2d_10">
      <g>
       <use xlink:href="#mc5384473d3" x="447.628548" y="246.04" style="stroke: #000000; stroke-width: 0.8"/>
      </g>
     </g>
     <g id="text_5">
      <!-- 8000 -->
      <g transform="translate(434.903548 260.638438)scale(0.1 -0.1)">
       <defs>
        <path id="DejaVuSans-38" d="M 2034 2216 
Q 1584 2216 1326 1975 
Q 1069 1734 1069 1313 
Q 1069 891 1326 650 
Q 1584 409 2034 409 
Q 2484 409 2743 651 
Q 3003 894 3003 1313 
Q 3003 1734 2745 1975 
Q 2488 2216 2034 2216 
z
M 1403 2484 
Q 997 2584 770 2862 
Q 544 3141 544 3541 
Q 544 4100 942 4425 
Q 1341 4750 2034 4750 
Q 2731 4750 3128 4425 
Q 3525 4100 3525 3541 
Q 3525 3141 3298 2862 
Q 3072 2584 2669 2484 
Q 3125 2378 3379 2068 
Q 3634 1759 3634 1313 
Q 3634 634 3220 271 
Q 2806 -91 2034 -91 
Q 1263 -91 848 271 
Q 434 634 434 1313 
Q 434 1759 690 2068 
Q 947 2378 1403 2484 
z
M 1172 3481 
Q 1172 3119 1398 2916 
Q 1625 2713 2034 2713 
Q 2441 2713 2670 2916 
Q 2900 3119 2900 3481 
Q 2900 3844 2670 4047 
Q 2441 4250 2034 4250 
Q 1625 4250 1398 4047 
Q 1172 3844 1172 3481 
z
" transform="scale(0.015625)"/>
       </defs>
       <use xlink:href="#DejaVuSans-38"/>
       <use xlink:href="#DejaVuSans-30" x="63.623047"/>
       <use xlink:href="#DejaVuSans-30" x="127.246094"/>
       <use xlink:href="#DejaVuSans-30" x="190.869141"/>
      </g>
     </g>
    </g>
    <g id="xtick_6">
     <g id="line2d_11">
      <path d="M 541.72523 246.04 
L 541.72523 26.88 
" clip-path="url(#pcbcd77a3ce)" style="fill: none; stroke: #b0b0b0; stroke-width: 0.8; stroke-linecap: square"/>
     </g>
     <g id="line2d_12">
      <g>
       <use xlink:href="#mc5384473d3" x="541.72523" y="246.04" style="stroke: #000000; stroke-width: 0.8"/>
      </g>
     </g>
     <g id="text_6">
      <!-- 10000 -->
      <g transform="translate(525.81898 260.638438)scale(0.1 -0.1)">
       <defs>
        <path id="DejaVuSans-31" d="M 794 531 
L 1825 531 
L 1825 4091 
L 703 3866 
L 703 4441 
L 1819 4666 
L 2450 4666 
L 2450 531 
L 3481 531 
L 3481 0 
L 794 0 
L 794 531 
z
" transform="scale(0.015625)"/>
       </defs>
       <use xlink:href="#DejaVuSans-31"/>
       <use xlink:href="#DejaVuSans-30" x="63.623047"/>
       <use xlink:href="#DejaVuSans-30" x="127.246094"/>
       <use xlink:href="#DejaVuSans-30" x="190.869141"/>
       <use xlink:href="#DejaVuSans-30" x="254.492188"/>
      </g>
     </g>
    </g>
    <g id="text_7">
     <!-- Time [sample] -->
     <g transform="translate(270.556875 274.316562)scale(0.1 -0.1)">
      <defs>
       <path id="DejaVuSans-54" d="M -19 4666 
L 3928 4666 
L 3928 4134 
L 2272 4134 
L 2272 0 
L 1638 0 
L 1638 4134 
L -19 4134 
L -19 4666 
z
" transform="scale(0.015625)"/>
       <path id="DejaVuSans-69" d="M 603 3500 
L 1178 3500 
L 1178 0 
L 603 0 
L 603 3500 
z
M 603 4863 
L 1178 4863 
L 1178 4134 
L 603 4134 
L 603 4863 
z
" transform="scale(0.015625)"/>
       <path id="DejaVuSans-6d" d="M 3328 2828 
Q 3544 3216 3844 3400 
Q 4144 3584 4550 3584 
Q 5097 3584 5394 3201 
Q 5691 2819 5691 2113 
L 5691 0 
L 5113 0 
L 5113 2094 
Q 5113 2597 4934 2840 
Q 4756 3084 4391 3084 
Q 3944 3084 3684 2787 
Q 3425 2491 3425 1978 
L 3425 0 
L 2847 0 
L 2847 2094 
Q 2847 2600 2669 2842 
Q 2491 3084 2119 3084 
Q 1678 3084 1418 2786 
Q 1159 2488 1159 1978 
L 1159 0 
L 581 0 
L 581 3500 
L 1159 3500 
L 1159 2956 
Q 1356 3278 1631 3431 
Q 1906 3584 2284 3584 
Q 2666 3584 2933 3390 
Q 3200 3197 3328 2828 
z
" transform="scale(0.015625)"/>
       <path id="DejaVuSans-65" d="M 3597 1894 
L 3597 1613 
L 953 1613 
Q 991 1019 1311 708 
Q 1631 397 2203 397 
Q 2534 397 2845 478 
Q 3156 559 3463 722 
L 3463 178 
Q 3153 47 2828 -22 
Q 2503 -91 2169 -91 
Q 1331 -91 842 396 
Q 353 884 353 1716 
Q 353 2575 817 3079 
Q 1281 3584 2069 3584 
Q 2775 3584 3186 3129 
Q 3597 2675 3597 1894 
z
M 3022 2063 
Q 3016 2534 2758 2815 
Q 2500 3097 2075 3097 
Q 1594 3097 1305 2825 
Q 1016 2553 972 2059 
L 3022 2063 
z
" transform="scale(0.015625)"/>
       <path id="DejaVuSans-20" transform="scale(0.015625)"/>
       <path id="DejaVuSans-5b" d="M 550 4863 
L 1875 4863 
L 1875 4416 
L 1125 4416 
L 1125 -397 
L 1875 -397 
L 1875 -844 
L 550 -844 
L 550 4863 
z
" transform="scale(0.015625)"/>
       <path id="DejaVuSans-73" d="M 2834 3397 
L 2834 2853 
Q 2591 2978 2328 3040 
Q 2066 3103 1784 3103 
Q 1356 3103 1142 2972 
Q 928 2841 928 2578 
Q 928 2378 1081 2264 
Q 1234 2150 1697 2047 
L 1894 2003 
Q 2506 1872 2764 1633 
Q 3022 1394 3022 966 
Q 3022 478 2636 193 
Q 2250 -91 1575 -91 
Q 1294 -91 989 -36 
Q 684 19 347 128 
L 347 722 
Q 666 556 975 473 
Q 1284 391 1588 391 
Q 1994 391 2212 530 
Q 2431 669 2431 922 
Q 2431 1156 2273 1281 
Q 2116 1406 1581 1522 
L 1381 1569 
Q 847 1681 609 1914 
Q 372 2147 372 2553 
Q 372 3047 722 3315 
Q 1072 3584 1716 3584 
Q 2034 3584 2315 3537 
Q 2597 3491 2834 3397 
z
" transform="scale(0.015625)"/>
       <path id="DejaVuSans-61" d="M 2194 1759 
Q 1497 1759 1228 1600 
Q 959 1441 959 1056 
Q 959 750 1161 570 
Q 1363 391 1709 391 
Q 2188 391 2477 730 
Q 2766 1069 2766 1631 
L 2766 1759 
L 2194 1759 
z
M 3341 1997 
L 3341 0 
L 2766 0 
L 2766 531 
Q 2569 213 2275 61 
Q 1981 -91 1556 -91 
Q 1019 -91 701 211 
Q 384 513 384 1019 
Q 384 1609 779 1909 
Q 1175 2209 1959 2209 
L 2766 2209 
L 2766 2266 
Q 2766 2663 2505 2880 
Q 2244 3097 1772 3097 
Q 1472 3097 1187 3025 
Q 903 2953 641 2809 
L 641 3341 
Q 956 3463 1253 3523 
Q 1550 3584 1831 3584 
Q 2591 3584 2966 3190 
Q 3341 2797 3341 1997 
z
" transform="scale(0.015625)"/>
       <path id="DejaVuSans-70" d="M 1159 525 
L 1159 -1331 
L 581 -1331 
L 581 3500 
L 1159 3500 
L 1159 2969 
Q 1341 3281 1617 3432 
Q 1894 3584 2278 3584 
Q 2916 3584 3314 3078 
Q 3713 2572 3713 1747 
Q 3713 922 3314 415 
Q 2916 -91 2278 -91 
Q 1894 -91 1617 61 
Q 1341 213 1159 525 
z
M 3116 1747 
Q 3116 2381 2855 2742 
Q 2594 3103 2138 3103 
Q 1681 3103 1420 2742 
Q 1159 2381 1159 1747 
Q 1159 1113 1420 752 
Q 1681 391 2138 391 
Q 2594 391 2855 752 
Q 3116 1113 3116 1747 
z
" transform="scale(0.015625)"/>
       <path id="DejaVuSans-6c" d="M 603 4863 
L 1178 4863 
L 1178 0 
L 603 0 
L 603 4863 
z
" transform="scale(0.015625)"/>
       <path id="DejaVuSans-5d" d="M 1947 4863 
L 1947 -844 
L 622 -844 
L 622 -397 
L 1369 -397 
L 1369 4416 
L 622 4416 
L 622 4863 
L 1947 4863 
z
" transform="scale(0.015625)"/>
      </defs>
      <use xlink:href="#DejaVuSans-54"/>
      <use xlink:href="#DejaVuSans-69" x="57.958984"/>
      <use xlink:href="#DejaVuSans-6d" x="85.742188"/>
      <use xlink:href="#DejaVuSans-65" x="183.154297"/>
      <use xlink:href="#DejaVuSans-20" x="244.677734"/>
      <use xlink:href="#DejaVuSans-5b" x="276.464844"/>
      <use xlink:href="#DejaVuSans-73" x="315.478516"/>
      <use xlink:href="#DejaVuSans-61" x="367.578125"/>
      <use xlink:href="#DejaVuSans-6d" x="428.857422"/>
      <use xlink:href="#DejaVuSans-70" x="526.269531"/>
      <use xlink:href="#DejaVuSans-6c" x="589.746094"/>
      <use xlink:href="#DejaVuSans-65" x="617.529297"/>
      <use xlink:href="#DejaVuSans-5d" x="679.052734"/>
     </g>
    </g>
   </g>
   <g id="matplotlib.axis_2">
    <g id="ytick_1">
     <g id="line2d_13">
      <path d="M 47.72 236.078182 
L 565.2 236.078182 
" clip-path="url(#pcbcd77a3ce)" style="fill: none; stroke: #b0b0b0; stroke-width: 0.8; stroke-linecap: square"/>
     </g>
     <g id="line2d_14">
      <defs>
       <path id="m5b3169e5a8" d="M 0 0 
L -3.5 0 
" style="stroke: #000000; stroke-width: 0.8"/>
      </defs>
      <g>
       <use xlink:href="#m5b3169e5a8" x="47.72" y="236.078182" style="stroke: #000000; stroke-width: 0.8"/>
      </g>
     </g>
     <g id="text_8">
      <!-- 0.0 -->
      <g transform="translate(24.816875 239.877401)scale(0.1 -0.1)">
       <defs>
        <path id="DejaVuSans-2e" d="M 684 794 
L 1344 794 
L 1344 0 
L 684 0 
L 684 794 
z
" transform="scale(0.015625)"/>
       </defs>
       <use xlink:href="#DejaVuSans-30"/>
       <use xlink:href="#DejaVuSans-2e" x="63.623047"/>
       <use xlink:href="#DejaVuSans-30" x="95.410156"/>
      </g>
     </g>
    </g>
    <g id="ytick_2">
     <g id="line2d_15">
      <path d="M 47.72 196.230909 
L 565.2 196.230909 
" clip-path="url(#pcbcd77a3ce)" style="fill: none; stroke: #b0b0b0; stroke-width: 0.8; stroke-linecap: square"/>
     </g>
     <g id="line2d_16">
      <g>
       <use xlink:href="#m5b3169e5a8" x="47.72" y="196.230909" style="stroke: #000000; stroke-width: 0.8"/>
      </g>
     </g>
     <g id="text_9">
      <!-- 0.2 -->
      <g transform="translate(24.816875 200.030128)scale(0.1 -0.1)">
       <use xlink:href="#DejaVuSans-30"/>
       <use xlink:href="#DejaVuSans-2e" x="63.623047"/>
       <use xlink:href="#DejaVuSans-32" x="95.410156"/>
      </g>
     </g>
    </g>
    <g id="ytick_3">
     <g id="line2d_17">
      <path d="M 47.72 156.383636 
L 565.2 156.383636 
" clip-path="url(#pcbcd77a3ce)" style="fill: none; stroke: #b0b0b0; stroke-width: 0.8; stroke-linecap: square"/>
     </g>
     <g id="line2d_18">
      <g>
       <use xlink:href="#m5b3169e5a8" x="47.72" y="156.383636" style="stroke: #000000; stroke-width: 0.8"/>
      </g>
     </g>
     <g id="text_10">
      <!-- 0.4 -->
      <g transform="translate(24.816875 160.182855)scale(0.1 -0.1)">
       <use xlink:href="#DejaVuSans-30"/>
       <use xlink:href="#DejaVuSans-2e" x="63.623047"/>
       <use xlink:href="#DejaVuSans-34" x="95.410156"/>
      </g>
     </g>
    </g>
    <g id="ytick_4">
     <g id="line2d_19">
      <path d="M 47.72 116.536364 
L 565.2 116.536364 
" clip-path="url(#pcbcd77a3ce)" style="fill: none; stroke: #b0b0b0; stroke-width: 0.8; stroke-linecap: square"/>
     </g>
     <g id="line2d_20">
      <g>
       <use xlink:href="#m5b3169e5a8" x="47.72" y="116.536364" style="stroke: #000000; stroke-width: 0.8"/>
      </g>
     </g>
     <g id="text_11">
      <!-- 0.6 -->
      <g transform="translate(24.816875 120.335582)scale(0.1 -0.1)">
       <use xlink:href="#DejaVuSans-30"/>
       <use xlink:href="#DejaVuSans-2e" x="63.623047"/>
       <use xlink:href="#DejaVuSans-36" x="95.410156"/>
      </g>
     </g>
    </g>
    <g id="ytick_5">
     <g id="line2d_21">
      <path d="M 47.72 76.689091 
L 565.2 76.689091 
" clip-path="url(#pcbcd77a3ce)" style="fill: none; stroke: #b0b0b0; stroke-width: 0.8; stroke-linecap: square"/>
     </g>
     <g id="line2d_22">
      <g>
       <use xlink:href="#m5b3169e5a8" x="47.72" y="76.689091" style="stroke: #000000; stroke-width: 0.8"/>
      </g>
     </g>
     <g id="text_12">
      <!-- 0.8 -->
      <g transform="translate(24.816875 80.48831)scale(0.1 -0.1)">
       <use xlink:href="#DejaVuSans-30"/>
       <use xlink:href="#DejaVuSans-2e" x="63.623047"/>
       <use xlink:href="#DejaVuSans-38" x="95.410156"/>
      </g>
     </g>
    </g>
    <g id="ytick_6">
     <g id="line2d_23">
      <path d="M 47.72 36.841818 
L 565.2 36.841818 
" clip-path="url(#pcbcd77a3ce)" style="fill: none; stroke: #b0b0b0; stroke-width: 0.8; stroke-linecap: square"/>
     </g>
     <g id="line2d_24">
      <g>
       <use xlink:href="#m5b3169e5a8" x="47.72" y="36.841818" style="stroke: #000000; stroke-width: 0.8"/>
      </g>
     </g>
     <g id="text_13">
      <!-- 1.0 -->
      <g transform="translate(24.816875 40.641037)scale(0.1 -0.1)">
       <use xlink:href="#DejaVuSans-31"/>
       <use xlink:href="#DejaVuSans-2e" x="63.623047"/>
       <use xlink:href="#DejaVuSans-30" x="95.410156"/>
      </g>
     </g>
    </g>
    <g id="text_14">
     <!-- Amplitude -->
     <g transform="translate(18.737187 162.082656)rotate(-90)scale(0.1 -0.1)">
      <defs>
       <path id="DejaVuSans-41" d="M 2188 4044 
L 1331 1722 
L 3047 1722 
L 2188 4044 
z
M 1831 4666 
L 2547 4666 
L 4325 0 
L 3669 0 
L 3244 1197 
L 1141 1197 
L 716 0 
L 50 0 
L 1831 4666 
z
" transform="scale(0.015625)"/>
       <path id="DejaVuSans-74" d="M 1172 4494 
L 1172 3500 
L 2356 3500 
L 2356 3053 
L 1172 3053 
L 1172 1153 
Q 1172 725 1289 603 
Q 1406 481 1766 481 
L 2356 481 
L 2356 0 
L 1766 0 
Q 1100 0 847 248 
Q 594 497 594 1153 
L 594 3053 
L 172 3053 
L 172 3500 
L 594 3500 
L 594 4494 
L 1172 4494 
z
" transform="scale(0.015625)"/>
       <path id="DejaVuSans-75" d="M 544 1381 
L 544 3500 
L 1119 3500 
L 1119 1403 
Q 1119 906 1312 657 
Q 1506 409 1894 409 
Q 2359 409 2629 706 
Q 2900 1003 2900 1516 
L 2900 3500 
L 3475 3500 
L 3475 0 
L 2900 0 
L 2900 538 
Q 2691 219 2414 64 
Q 2138 -91 1772 -91 
Q 1169 -91 856 284 
Q 544 659 544 1381 
z
M 1991 3584 
L 1991 3584 
z
" transform="scale(0.015625)"/>
       <path id="DejaVuSans-64" d="M 2906 2969 
L 2906 4863 
L 3481 4863 
L 3481 0 
L 2906 0 
L 2906 525 
Q 2725 213 2448 61 
Q 2172 -91 1784 -91 
Q 1150 -91 751 415 
Q 353 922 353 1747 
Q 353 2572 751 3078 
Q 1150 3584 1784 3584 
Q 2172 3584 2448 3432 
Q 2725 3281 2906 2969 
z
M 947 1747 
Q 947 1113 1208 752 
Q 1469 391 1925 391 
Q 2381 391 2643 752 
Q 2906 1113 2906 1747 
Q 2906 2381 2643 2742 
Q 2381 3103 1925 3103 
Q 1469 3103 1208 2742 
Q 947 2381 947 1747 
z
" transform="scale(0.015625)"/>
      </defs>
      <use xlink:href="#DejaVuSans-41"/>
      <use xlink:href="#DejaVuSans-6d" x="68.408203"/>
      <use xlink:href="#DejaVuSans-70" x="165.820312"/>
      <use xlink:href="#DejaVuSans-6c" x="229.296875"/>
      <use xlink:href="#DejaVuSans-69" x="257.080078"/>
      <use xlink:href="#DejaVuSans-74" x="284.863281"/>
      <use xlink:href="#DejaVuSans-75" x="324.072266"/>
      <use xlink:href="#DejaVuSans-64" x="387.451172"/>
      <use xlink:href="#DejaVuSans-65" x="450.927734"/>
     </g>
    </g>
   </g>
   <g id="line2d_25">
    <path d="M 71.241818 99.341503 
L 71.382963 37.583713 
L 71.524108 36.846286 
L 72.512123 36.869717 
L 75.099782 37.102955 
L 77.781538 37.570292 
L 80.604438 38.29245 
L 83.568484 39.285331 
L 86.673674 40.562047 
L 89.967058 42.157184 
L 93.495684 44.115037 
L 97.306599 46.487803 
L 101.446853 49.333449 
L 105.963494 52.71308 
L 110.997666 56.765893 
L 116.643467 61.603888 
L 123.230235 67.55103 
L 131.32255 75.17123 
L 143.178732 86.674727 
L 164.820969 107.68859 
L 175.171604 117.396568 
L 184.251934 125.613635 
L 192.720635 132.981466 
L 200.81295 139.730062 
L 208.670023 145.994774 
L 216.338902 151.827817 
L 223.913685 157.312468 
L 231.44142 162.490111 
L 238.969155 167.397859 
L 246.496889 172.039976 
L 254.024624 176.42238 
L 261.646455 180.602345 
L 269.315335 184.555489 
L 277.125359 188.330734 
L 285.029481 191.904707 
L 293.074747 195.299295 
L 301.308207 198.531943 
L 309.72986 201.59953 
L 318.386754 204.515535 
L 327.278891 207.275886 
L 336.453318 209.890892 
L 345.957082 212.367881 
L 355.837234 214.711626 
L 366.093772 216.915198 
L 376.820794 218.991171 
L 388.065348 220.939214 
L 399.92153 222.765066 
L 412.436389 224.464872 
L 425.704021 226.040456 
L 439.865571 227.496127 
L 455.062186 228.832453 
L 471.529105 230.054099 
L 489.454523 231.157728 
L 509.214826 232.147576 
L 531.23345 233.023204 
L 541.678182 233.369066 
L 541.678182 233.369066 
" clip-path="url(#pcbcd77a3ce)" style="fill: none; stroke: #0d0887; stroke-width: 1.5; stroke-linecap: square"/>
   </g>
   <g id="line2d_26">
    <path d="M 71.241818 236.05928 
L 71.430012 235.80165 
L 71.712302 234.906062 
L 72.088688 232.867046 
L 72.60622 228.733472 
L 73.311945 221.157352 
L 74.347009 207.299212 
L 76.181894 179.048035 
L 78.863649 138.414158 
L 80.55739 116.178565 
L 82.062937 99.270077 
L 83.474387 85.865358 
L 84.79174 75.359455 
L 86.062046 66.894604 
L 87.332351 59.886573 
L 88.555608 54.348118 
L 89.731816 49.99793 
L 90.908025 46.476014 
L 92.037185 43.767844 
L 93.166345 41.626809 
L 94.248457 40.032777 
L 95.330569 38.82365 
L 96.412681 37.945023 
L 97.494793 37.349565 
L 98.623953 36.985893 
L 99.800161 36.844547 
L 101.070467 36.920616 
L 102.481917 37.236016 
L 104.08156 37.832171 
L 105.916446 38.763386 
L 108.080669 40.122476 
L 110.668328 42.021168 
L 113.867615 44.659449 
L 117.866724 48.260815 
L 122.994993 53.19346 
L 129.769955 60.03555 
L 139.55601 70.262609 
L 167.832063 99.976691 
L 177.524021 109.74428 
L 186.227964 118.206303 
L 194.414375 125.859254 
L 202.271448 132.902741 
L 209.89328 139.439619 
L 217.373966 145.564813 
L 224.760556 151.327267 
L 232.100097 156.771806 
L 239.39259 161.90623 
L 246.685083 166.770667 
L 254.024624 171.399847 
L 261.411213 175.795967 
L 268.844851 179.962479 
L 276.372586 183.927904 
L 284.041465 187.715603 
L 291.804442 191.302082 
L 299.755611 194.729547 
L 307.847926 197.97546 
L 316.128434 201.057721 
L 324.644184 203.990127 
L 333.395175 206.768473 
L 342.428457 209.403212 
L 351.791077 211.901712 
L 361.530083 214.268704 
L 371.645477 216.496885 
L 382.231353 218.598919 
L 393.287714 220.566311 
L 404.955702 222.414387 
L 417.235319 224.132569 
L 430.26771 225.730007 
L 444.194019 227.210496 
L 459.108343 228.570005 
L 475.245924 229.814592 
L 492.794955 230.941663 
L 512.084775 231.953946 
L 533.538819 232.852579 
L 541.678182 233.14098 
L 541.678182 233.14098 
" clip-path="url(#pcbcd77a3ce)" style="fill: none; stroke: #310597; stroke-width: 1.5; stroke-linecap: square"/>
   </g>
   <g id="line2d_27">
    <path d="M 71.241818 236.072853 
L 71.571157 235.89052 
L 71.947543 235.386751 
L 72.418027 234.348484 
L 73.029655 232.386676 
L 73.782429 229.142108 
L 74.723395 224.008821 
L 75.899604 216.266766 
L 77.452199 204.447844 
L 79.804616 184.616624 
L 85.262224 138.182245 
L 87.661689 119.90628 
L 89.778865 105.408492 
L 91.754895 93.34855 
L 93.636829 83.18976 
L 95.424666 74.705061 
L 97.165454 67.484469 
L 98.859194 61.386239 
L 100.505886 56.274272 
L 102.10553 52.022012 
L 103.658125 48.514314 
L 105.163672 45.648006 
L 106.622171 43.331674 
L 108.080669 41.429716 
L 109.49212 39.949446 
L 110.90357 38.792279 
L 112.267972 37.953541 
L 113.632374 37.365205 
L 115.043824 36.995943 
L 116.502322 36.845725 
L 118.007869 36.912638 
L 119.607513 37.204679 
L 121.348302 37.751741 
L 123.230235 38.578655 
L 125.347411 39.761203 
L 127.699828 41.340352 
L 130.334535 43.383014 
L 133.392677 46.045153 
L 136.968351 49.463115 
L 141.343847 53.969185 
L 146.942599 60.073062 
L 155.411301 69.671829 
L 175.312749 92.306596 
L 184.34603 102.189544 
L 192.532442 110.820723 
L 200.295418 118.684776 
L 207.776104 125.94854 
L 215.068597 132.722271 
L 222.266993 139.106098 
L 229.371293 145.110574 
L 236.428544 150.78575 
L 243.485795 156.175983 
L 250.543046 161.286598 
L 257.600298 166.124282 
L 264.704597 170.726394 
L 271.902993 175.124325 
L 279.148438 179.291313 
L 286.487979 183.257417 
L 293.968665 187.047164 
L 301.590497 190.658408 
L 309.353473 194.090153 
L 317.304643 197.361149 
L 325.444006 200.468426 
L 333.81861 203.426264 
L 342.428457 206.230416 
L 351.320593 208.891614 
L 360.542068 211.417384 
L 370.092881 213.801315 
L 380.020081 216.049117 
L 390.417765 218.173506 
L 401.285932 220.165405 
L 412.718679 222.033003 
L 424.810102 223.780339 
L 437.607251 225.402721 
L 451.25127 226.905922 
L 465.883304 228.29137 
L 481.644498 229.55764 
L 498.770095 230.707655 
L 517.589431 231.744717 
L 538.431846 232.666431 
L 541.678182 232.791621 
L 541.678182 232.791621 
" clip-path="url(#pcbcd77a3ce)" style="fill: none; stroke: #4c02a1; stroke-width: 1.5; stroke-linecap: square"/>
   </g>
   <g id="line2d_28">
    <path d="M 71.241818 236.075518 
L 71.665253 235.934431 
L 72.135737 235.54067 
L 72.700317 234.76017 
L 73.358994 233.457423 
L 74.158815 231.360689 
L 75.146831 228.081248 
L 76.323039 223.327915 
L 77.734489 216.629333 
L 79.475278 207.229117 
L 81.827695 193.194171 
L 86.203191 165.410525 
L 90.48459 138.803536 
L 93.448635 121.748364 
L 96.083342 107.860618 
L 98.482808 96.369557 
L 100.741128 86.601609 
L 102.905352 78.197647 
L 104.975479 71.020975 
L 106.998557 64.796804 
L 108.927539 59.559717 
L 110.809473 55.075701 
L 112.644358 51.26739 
L 114.432195 48.06184 
L 116.172984 45.391244 
L 117.866724 43.193239 
L 119.513416 41.410944 
L 121.160108 39.955572 
L 122.759752 38.834047 
L 124.359395 37.980942 
L 125.959039 37.377583 
L 127.558683 37.00609 
L 129.205375 36.847894 
L 130.946163 36.908645 
L 132.734 37.194669 
L 134.662982 37.734643 
L 136.686061 38.534083 
L 138.897333 39.651981 
L 141.296798 41.119759 
L 143.931505 42.996928 
L 146.895551 45.391683 
L 150.235983 48.388259 
L 154.046899 52.114855 
L 158.563539 56.853444 
L 164.20934 63.115554 
L 172.301655 72.456095 
L 193.379312 96.910447 
L 201.800965 106.265101 
L 209.516893 114.506934 
L 216.856434 122.022787 
L 223.960734 128.981144 
L 230.923888 135.491992 
L 237.792946 141.613138 
L 244.614955 147.397514 
L 251.436965 152.892269 
L 258.258974 158.103428 
L 265.128032 163.071465 
L 272.044138 167.799267 
L 279.007293 172.290799 
L 286.064544 176.578644 
L 293.215892 180.663369 
L 300.461336 184.546506 
L 307.847926 188.253288 
L 315.375661 191.782348 
L 323.091589 195.153199 
L 330.99571 198.362269 
L 339.088025 201.407259 
L 347.415581 204.302802 
L 356.025427 207.059653 
L 364.917564 209.671938 
L 374.139039 212.147579 
L 383.689852 214.480798 
L 393.6641 216.68756 
L 404.108832 218.768814 
L 415.071096 220.724197 
L 426.597939 222.552506 
L 438.78346 224.258335 
L 451.721753 225.843187 
L 465.553966 227.311076 
L 480.421242 228.662115 
L 496.464726 229.894006 
L 513.966709 231.011669 
L 533.20948 232.014181 
L 541.678182 232.391524 
L 541.678182 232.391524 
" clip-path="url(#pcbcd77a3ce)" style="fill: none; stroke: #6600a7; stroke-width: 1.5; stroke-linecap: square"/>
   </g>
   <g id="line2d_29">
    <path d="M 71.241818 236.076504 
L 71.806398 235.928336 
L 72.418027 235.511894 
L 73.076703 234.784038 
L 73.876525 233.538235 
L 74.770444 231.714688 
L 75.852556 228.959013 
L 77.075812 225.206985 
L 78.534311 219.97936 
L 80.2751 212.861974 
L 82.392275 203.223188 
L 85.215176 189.252489 
L 90.625735 161.059382 
L 95.330569 137.092824 
L 98.718049 120.971925 
L 101.682095 107.924096 
L 104.410899 96.896511 
L 106.951509 87.526499 
L 109.398023 79.338566 
L 111.703392 72.372643 
L 113.961712 66.243909 
L 116.125936 61.00016 
L 118.243111 56.447501 
L 120.26619 52.610375 
L 122.24222 49.326335 
L 124.171202 46.542646 
L 126.053136 44.209483 
L 127.888021 42.280216 
L 129.675858 40.711543 
L 131.463695 39.433445 
L 133.251532 38.429724 
L 135.039369 37.684457 
L 136.827206 37.182074 
L 138.615043 36.907432 
L 140.449928 36.84699 
L 142.37891 37.008685 
L 144.401989 37.408012 
L 146.519164 38.057734 
L 148.777484 38.989503 
L 151.17695 40.224047 
L 153.764609 41.808383 
L 156.587509 43.801401 
L 159.6927 46.270836 
L 163.174277 49.3327 
L 167.079289 53.070502 
L 171.642978 57.758752 
L 177.147634 63.749023 
L 184.393079 71.985267 
L 214.174679 106.195056 
L 222.0788 114.738908 
L 229.418341 122.349863 
L 236.475592 129.352262 
L 243.391699 135.902999 
L 250.16666 142.016791 
L 256.894573 147.791487 
L 263.622485 153.274105 
L 270.350398 158.470464 
L 277.125359 163.42148 
L 283.947369 168.130224 
L 290.816427 172.600973 
L 297.779581 176.866916 
L 304.836832 180.928942 
L 311.98818 184.788921 
L 319.280673 188.472567 
L 326.714311 191.978768 
L 334.336142 195.327392 
L 342.146167 198.515041 
L 350.144385 201.539581 
L 358.377845 204.41586 
L 366.893594 207.154784 
L 375.691634 209.75053 
L 384.819012 212.211106 
L 394.322777 214.541727 
L 404.249977 216.745301 
L 414.600612 218.814018 
L 425.468779 220.758461 
L 436.948574 222.584409 
L 449.087046 224.28766 
L 461.978292 225.869798 
L 475.763456 227.334913 
L 490.583683 228.683173 
L 506.580119 229.912328 
L 524.035054 231.027342 
L 541.678182 231.954198 
L 541.678182 231.954198 
" clip-path="url(#pcbcd77a3ce)" style="fill: none; stroke: #7e03a8; stroke-width: 1.5; stroke-linecap: square"/>
   </g>
   <g id="line2d_30">
    <path d="M 71.241818 236.076985 
L 71.900495 235.937035 
L 72.60622 235.541482 
L 73.358994 234.855465 
L 74.205864 233.778516 
L 75.193879 232.143488 
L 76.323039 229.818605 
L 77.593344 226.680597 
L 79.098891 222.332754 
L 80.83968 216.582266 
L 82.909807 208.923892 
L 85.450417 198.606972 
L 88.837898 183.8328 
L 101.776192 126.458397 
L 105.163672 112.932235 
L 108.221814 101.610018 
L 111.091763 91.823048 
L 113.773519 83.445374 
L 116.361177 76.078099 
L 118.854739 69.645644 
L 121.254205 64.067485 
L 123.559574 59.262169 
L 125.770846 55.150044 
L 127.935069 51.582161 
L 130.052245 48.513799 
L 132.122372 45.901659 
L 134.14545 43.704311 
L 136.121481 41.882485 
L 138.050463 40.39924 
L 139.979445 39.193845 
L 141.908427 38.252583 
L 143.837409 37.561807 
L 145.766391 37.108015 
L 147.742421 36.874998 
L 149.7655 36.865035 
L 151.835627 37.079136 
L 153.99985 37.529192 
L 156.258171 38.227523 
L 158.657636 39.205294 
L 161.198247 40.482623 
L 163.92705 42.105552 
L 166.891096 44.131742 
L 170.137431 46.627878 
L 173.713105 49.666367 
L 177.712214 53.366256 
L 182.275903 57.903126 
L 187.639414 63.56199 
L 194.367327 71.001965 
L 204.765011 82.875888 
L 220.808495 101.164207 
L 229.653583 110.890829 
L 237.463608 119.154456 
L 244.803149 126.600395 
L 251.8604 133.445703 
L 258.729458 139.801599 
L 265.504419 145.769629 
L 272.232332 151.400839 
L 278.913196 156.704834 
L 285.641109 161.762146 
L 292.369022 166.542037 
L 299.143983 171.084027 
L 306.013041 175.42135 
L 312.976195 179.554182 
L 320.033446 183.483853 
L 327.231843 187.236416 
L 334.571384 190.810344 
L 342.05207 194.205247 
L 349.72095 197.440901 
L 357.578023 200.514693 
L 365.670337 203.441601 
L 374.044942 206.232573 
L 382.701837 208.881236 
L 391.641022 211.382977 
L 400.956593 213.757752 
L 410.648552 215.997767 
L 420.810993 218.116086 
L 431.443918 220.103481 
L 442.641424 221.968288 
L 454.450557 223.708068 
L 467.012464 225.331761 
L 480.421242 226.837734 
L 494.770986 228.22308 
L 510.24989 229.491652 
L 527.093196 230.646032 
L 541.678182 231.484587 
L 541.678182 231.484587 
" clip-path="url(#pcbcd77a3ce)" style="fill: none; stroke: #9511a1; stroke-width: 1.5; stroke-linecap: square"/>
   </g>
   <g id="line2d_31">
    <path d="M 71.241818 236.07726 
L 71.994592 235.93943 
L 72.794413 235.54817 
L 73.641284 234.873839 
L 74.58225 233.829635 
L 75.664362 232.271157 
L 76.887619 230.08535 
L 78.252021 227.165975 
L 79.804616 223.294354 
L 81.592453 218.206825 
L 83.66258 211.610354 
L 86.109094 203.03783 
L 89.167236 191.46405 
L 93.542732 173.945936 
L 103.140594 135.326632 
L 107.139703 120.296469 
L 110.62128 108.060672 
L 113.773519 97.768274 
L 116.737564 88.825753 
L 119.560465 80.999582 
L 122.24222 74.200828 
L 124.829879 68.23065 
L 127.323441 63.02217 
L 129.722906 58.507435 
L 132.075323 54.544671 
L 134.380692 51.094758 
L 136.591964 48.17683 
L 138.756188 45.679524 
L 140.873363 43.567393 
L 142.94349 41.806525 
L 145.013617 40.334384 
L 147.036696 39.16281 
L 149.059775 38.243511 
L 151.082853 37.564754 
L 153.15298 37.106992 
L 155.223107 36.876368 
L 157.340283 36.862617 
L 159.551555 37.074145 
L 161.809875 37.513615 
L 164.20934 38.211341 
L 166.702902 39.170098 
L 169.384658 40.445797 
L 172.207558 42.038472 
L 175.265701 44.024747 
L 178.559084 46.433999 
L 182.181807 49.367353 
L 186.180916 52.900204 
L 190.650508 57.152266 
L 195.825826 62.392795 
L 202.036207 69.010701 
L 210.363763 78.233647 
L 237.604753 108.637716 
L 245.979357 117.51879 
L 253.648237 125.330266 
L 260.893682 132.396736 
L 267.903884 138.926718 
L 274.772942 145.023919 
L 281.547903 150.742687 
L 288.275816 156.13305 
L 295.003729 161.239742 
L 301.731642 166.068948 
L 308.506603 170.659429 
L 315.328612 175.014762 
L 322.244718 179.167116 
L 329.254921 183.117153 
L 336.406269 186.890687 
L 343.698762 190.485732 
L 351.1324 193.901531 
L 358.754231 197.157824 
L 366.564256 200.251739 
L 374.609522 203.198266 
L 382.89003 205.993126 
L 391.452828 208.647522 
L 400.344965 211.16927 
L 409.56644 213.551713 
L 419.164301 215.800692 
L 429.185598 217.919814 
L 439.724426 219.919382 
L 450.827835 221.797175 
L 462.542872 223.550518 
L 474.963634 225.182531 
L 488.231266 226.698694 
L 502.439865 228.095684 
L 517.777624 229.377056 
L 534.432737 230.542076 
L 541.678182 230.984988 
L 541.678182 230.984988 
" clip-path="url(#pcbcd77a3ce)" style="fill: none; stroke: #aa2395; stroke-width: 1.5; stroke-linecap: square"/>
   </g>
   <g id="line2d_32">
    <path d="M 71.241818 236.077434 
L 72.04164 235.952196 
L 72.88851 235.595432 
L 73.829477 234.942197 
L 74.86454 233.928975 
L 75.993701 232.494052 
L 77.264006 230.49869 
L 78.675456 227.848227 
L 80.2751 224.347345 
L 82.062937 219.882523 
L 84.133064 214.087361 
L 86.532529 206.677012 
L 89.402478 197.056952 
L 93.119297 183.761223 
L 99.706065 159.191905 
L 106.057591 135.838198 
L 110.33899 120.935792 
L 114.00876 108.940871 
L 117.396241 98.614168 
L 120.54848 89.705412 
L 123.512525 81.976071 
L 126.382474 75.106151 
L 129.111278 69.140399 
L 131.745985 63.90379 
L 134.286595 59.336738 
L 136.780157 55.307653 
L 139.179623 51.845747 
L 141.53204 48.836979 
L 143.837409 46.247805 
L 146.095729 44.045448 
L 148.307001 42.198211 
L 150.471225 40.675698 
L 152.635448 39.424571 
L 154.752624 38.452545 
L 156.869799 37.718993 
L 159.034023 37.204526 
L 161.198247 36.91672 
L 163.409519 36.844959 
L 165.714887 36.996529 
L 168.067304 37.375706 
L 170.513818 37.995715 
L 173.101477 38.885091 
L 175.830281 40.064053 
L 178.700229 41.549483 
L 181.758372 43.384648 
L 185.051756 45.623261 
L 188.627429 48.327208 
L 192.532442 51.563689 
L 196.860889 55.445229 
L 201.753917 60.138901 
L 207.446766 65.917676 
L 214.456969 73.365274 
L 224.666459 84.570483 
L 244.050375 105.871721 
L 253.130705 115.484616 
L 261.175972 123.683856 
L 268.703706 131.042048 
L 275.902102 137.771192 
L 282.912305 144.023035 
L 289.828411 149.893526 
L 296.650421 155.393423 
L 303.425382 160.571731 
L 310.200343 165.472 
L 317.022353 170.132026 
L 323.89141 174.554427 
L 330.807517 178.743259 
L 337.817719 182.729651 
L 344.922019 186.514803 
L 352.167463 190.123678 
L 359.554053 193.554935 
L 367.128836 196.828035 
L 374.891812 199.939646 
L 382.89003 202.904571 
L 391.12349 205.718161 
L 399.63924 208.391486 
L 408.43728 210.919319 
L 417.564658 213.309962 
L 427.068423 215.568994 
L 437.042671 217.709328 
L 447.487403 219.72097 
L 458.449666 221.604409 
L 470.023558 223.366068 
L 482.303175 225.008688 
L 495.429662 226.537437 
L 509.450068 227.944153 
L 524.599634 229.237765 
L 541.019505 230.413879 
L 541.678182 230.456695 
L 541.678182 230.456695 
" clip-path="url(#pcbcd77a3ce)" style="fill: none; stroke: #bc3587; stroke-width: 1.5; stroke-linecap: square"/>
   </g>
   <g id="line2d_33">
    <path d="M 71.241818 236.077552 
L 72.135737 235.947921 
L 73.076703 235.577567 
L 74.064719 234.942967 
L 75.146831 233.97444 
L 76.323039 232.616577 
L 77.640393 230.743901 
L 79.098891 228.270554 
L 80.745583 225.018692 
L 82.580468 220.882549 
L 84.650595 215.650151 
L 87.050061 208.951453 
L 89.872961 200.371404 
L 93.30749 189.182917 
L 98.153469 172.562312 
L 109.586216 133.114374 
L 113.961712 118.969072 
L 117.772628 107.385053 
L 121.254205 97.497037 
L 124.50054 88.927893 
L 127.605731 81.349318 
L 130.569776 74.69517 
L 133.392677 68.891548 
L 136.121481 63.777344 
L 138.756188 59.299253 
L 141.343847 55.335197 
L 143.837409 51.914971 
L 146.283922 48.932047 
L 148.683388 46.355873 
L 151.035805 44.156381 
L 153.341174 42.304293 
L 155.599494 40.771352 
L 157.857814 39.506802 
L 160.069086 38.518749 
L 162.280358 37.768267 
L 164.538679 37.236617 
L 166.796999 36.931571 
L 169.102368 36.842737 
L 171.454785 36.972136 
L 173.901299 37.329677 
L 176.441909 37.927501 
L 179.076616 38.775793 
L 181.852468 39.90367 
L 184.816514 41.353135 
L 187.968753 43.149035 
L 191.309185 45.311505 
L 194.931907 47.926572 
L 198.883968 51.06115 
L 203.212415 54.784658 
L 208.058394 59.254225 
L 213.610099 64.686685 
L 220.243915 71.501519 
L 229.041955 80.881229 
L 258.211926 112.218186 
L 266.868821 121.055613 
L 274.772942 128.810312 
L 282.253628 135.840408 
L 289.452025 142.302927 
L 296.509276 148.341 
L 303.425382 153.968138 
L 310.29444 159.272514 
L 317.163498 164.296222 
L 324.032555 169.044435 
L 330.901613 173.524134 
L 337.864768 177.799696 
L 344.874971 181.843931 
L 351.97927 185.686991 
L 359.224715 189.353501 
L 366.611304 192.841491 
L 374.139039 196.150296 
L 381.854967 199.298936 
L 389.806136 202.301943 
L 397.992548 205.154104 
L 406.414201 207.85184 
L 415.118144 210.406335 
L 424.151426 212.825547 
L 433.561094 215.114699 
L 443.394197 217.276766 
L 453.697784 219.312955 
L 464.518902 221.223197 
L 475.951649 223.013543 
L 488.043073 224.680228 
L 500.934318 226.230485 
L 514.719482 227.661984 
L 529.586758 228.979306 
L 541.678182 229.900705 
L 541.678182 229.900705 
" clip-path="url(#pcbcd77a3ce)" style="fill: none; stroke: #cc4778; stroke-width: 1.5; stroke-linecap: square"/>
   </g>
   <g id="line2d_34">
    <path d="M 71.241818 236.077637 
L 72.182785 235.95412 
L 73.1708 235.600373 
L 74.205864 234.994763 
L 75.335024 234.073486 
L 76.558281 232.785562 
L 77.922683 231.015825 
L 79.42823 228.684763 
L 81.12197 225.628057 
L 83.003903 221.74593 
L 85.121079 216.839487 
L 87.520544 210.687285 
L 90.296396 202.92504 
L 93.58978 193.025139 
L 97.871179 179.403 
L 115.420211 122.750583 
L 119.513416 110.723028 
L 123.230235 100.478853 
L 126.664764 91.648798 
L 129.9111 83.900803 
L 133.01629 77.054658 
L 135.980336 71.045887 
L 138.850284 65.721833 
L 141.626137 61.034388 
L 144.307892 56.93397 
L 146.942599 53.309675 
L 149.48321 50.187327 
L 151.976772 47.470595 
L 154.423285 45.131507 
L 156.822751 43.142569 
L 159.175168 41.477011 
L 161.527585 40.083719 
L 163.832954 38.97316 
L 166.138322 38.105473 
L 168.443691 37.471092 
L 170.796108 37.054185 
L 173.195574 36.858001 
L 175.642087 36.884753 
L 178.135649 37.135611 
L 180.723308 37.621513 
L 183.405064 38.353203 
L 186.227964 39.358115 
L 189.19201 40.65414 
L 192.2972 42.256082 
L 195.637632 44.234481 
L 199.213306 46.617127 
L 203.07127 49.461735 
L 207.258573 52.830909 
L 211.86931 56.831012 
L 217.044628 61.620826 
L 223.066815 67.50826 
L 230.406356 75.010588 
L 240.80404 85.988408 
L 262.587422 109.043859 
L 271.950042 118.58131 
L 280.23055 126.705152 
L 287.993526 134.012983 
L 295.427164 140.706836 
L 302.62556 146.891714 
L 309.682811 152.664515 
L 316.645966 158.075844 
L 323.562072 163.171961 
L 330.478178 167.994059 
L 337.441333 172.577933 
L 344.451536 176.925607 
L 351.508787 181.040637 
L 358.660135 184.952757 
L 365.905579 188.662992 
L 373.292169 192.195289 
L 380.819903 195.548397 
L 388.535831 198.741084 
L 396.439953 201.77033 
L 404.579316 204.65052 
L 412.95392 207.377511 
L 421.610815 209.962202 
L 430.597048 212.412273 
L 439.959668 214.732664 
L 449.698675 216.916049 
L 459.908165 218.975421 
L 470.635187 220.91025 
L 481.926788 222.7192 
L 493.877067 224.406824 
L 506.580119 225.974561 
L 520.17709 227.426397 
L 534.809124 228.762395 
L 541.678182 229.318177 
L 541.678182 229.318177 
" clip-path="url(#pcbcd77a3ce)" style="fill: none; stroke: #da5a6a; stroke-width: 1.5; stroke-linecap: square"/>
   </g>
   <g id="line2d_35">
    <path d="M 71.241818 236.077701 
L 72.276882 235.94722 
L 73.311945 235.59394 
L 74.441105 234.965701 
L 75.664362 234.013074 
L 76.981716 232.688106 
L 78.393166 230.945504 
L 79.945761 228.669599 
L 81.68655 225.706459 
L 83.615532 221.962825 
L 85.779756 217.251165 
L 88.179221 211.479634 
L 90.955073 204.202544 
L 94.248457 194.910268 
L 98.341663 182.657087 
L 104.787285 162.556141 
L 113.491229 135.542552 
L 118.337208 121.240116 
L 122.52451 109.557828 
L 126.335426 99.575521 
L 129.864051 90.944235 
L 133.204484 83.350373 
L 136.403771 76.624329 
L 139.461913 70.706461 
L 142.37891 65.532262 
L 145.201811 60.962842 
L 147.977663 56.88703 
L 150.659418 53.337929 
L 153.294125 50.21687 
L 155.834736 47.543719 
L 158.328298 45.233772 
L 160.774811 43.261563 
L 163.221325 41.572334 
L 165.620791 40.181907 
L 168.020256 39.046381 
L 170.419721 38.156654 
L 172.819187 37.503375 
L 175.218652 37.077015 
L 177.665166 36.865931 
L 180.158728 36.872558 
L 182.746387 37.104541 
L 185.381094 37.563903 
L 188.156946 38.277553 
L 191.026895 39.247859 
L 194.037989 40.502759 
L 197.237276 42.082118 
L 200.624756 44.00792 
L 204.247479 46.329464 
L 208.152491 49.103686 
L 212.386842 52.392722 
L 216.997579 56.260806 
L 222.172897 60.90059 
L 228.100988 66.525229 
L 235.158239 73.540972 
L 244.520859 83.184429 
L 273.97312 113.730373 
L 283.006402 122.656636 
L 291.192813 130.437856 
L 298.908741 137.468808 
L 306.342379 143.944186 
L 313.587824 149.962449 
L 320.692123 155.576898 
L 327.749374 160.871809 
L 334.759577 165.854508 
L 341.76978 170.56534 
L 348.827031 175.039283 
L 355.931331 179.278702 
L 363.082679 183.287426 
L 370.328123 187.094411 
L 377.714713 190.723324 
L 385.195399 194.151283 
L 392.864279 197.420649 
L 400.721352 200.527531 
L 408.766618 203.469523 
L 417.047126 206.26084 
L 425.609924 208.911977 
L 434.455012 211.417448 
L 443.676487 213.796769 
L 453.274349 216.041489 
L 463.295645 218.154967 
L 473.787425 220.138905 
L 484.843786 222.001295 
L 496.511774 223.739301 
L 508.885488 225.35592 
L 522.106072 226.856552 
L 536.267623 228.237898 
L 541.678182 228.710706 
L 541.678182 228.710706 
" clip-path="url(#pcbcd77a3ce)" style="fill: none; stroke: #e66c5c; stroke-width: 1.5; stroke-linecap: square"/>
   </g>
   <g id="line2d_36">
    <path d="M 71.241818 236.07775 
L 72.32393 235.950244 
L 73.45309 235.583642 
L 74.629299 234.959021 
L 75.899604 234.019344 
L 77.264006 232.719516 
L 78.722504 231.016858 
L 80.322148 228.802089 
L 82.109985 225.929746 
L 84.086015 222.311243 
L 86.250239 217.869902 
L 88.696753 212.323124 
L 91.472605 205.457547 
L 94.71894 196.807672 
L 98.671001 185.612333 
L 104.222705 169.154813 
L 116.408226 132.871795 
L 121.254205 119.244953 
L 125.488556 107.986349 
L 129.34652 98.348784 
L 132.922193 89.998543 
L 136.309674 82.636917 
L 139.55601 76.102904 
L 142.6612 70.340845 
L 145.672294 65.21396 
L 148.589291 60.680643 
L 151.412192 56.697652 
L 154.140995 53.221313 
L 156.822751 50.157662 
L 159.457458 47.481901 
L 162.045117 45.169148 
L 164.585727 43.194744 
L 167.079289 41.534495 
L 169.572851 40.140979 
L 172.019365 39.024631 
L 174.465879 38.148205 
L 176.959441 37.492731 
L 179.453003 37.067893 
L 181.993613 36.862267 
L 184.581272 36.878017 
L 187.215979 37.116326 
L 189.944783 37.587383 
L 192.767683 38.301432 
L 195.731729 39.284317 
L 198.83692 40.553178 
L 202.083255 42.122346 
L 205.517784 44.030817 
L 209.187555 46.326977 
L 213.139615 49.06678 
L 217.421014 52.311482 
L 222.0788 56.124727 
L 227.254118 60.653634 
L 233.13516 66.10199 
L 240.098315 72.866455 
L 249.084548 81.925535 
L 284.088514 117.53133 
L 292.933602 126.029829 
L 301.072965 133.545158 
L 308.788893 140.370046 
L 316.269579 146.691216 
L 323.562072 152.563487 
L 330.760468 158.074822 
L 337.864768 163.235641 
L 344.969067 168.122009 
L 352.073367 172.738396 
L 359.177666 177.091083 
L 366.376063 181.240343 
L 373.621507 185.160533 
L 380.961048 188.879934 
L 388.441735 192.421657 
L 396.063566 195.78397 
L 403.87359 198.985048 
L 411.871808 202.021566 
L 420.05822 204.891675 
L 428.526921 207.624016 
L 437.277913 210.212062 
L 446.311194 212.651202 
L 455.720862 214.960656 
L 465.553966 217.142916 
L 475.810504 219.189874 
L 486.584574 221.111907 
L 497.970273 222.914652 
L 510.014648 224.59388 
L 522.811797 226.15121 
L 536.502864 227.590805 
L 541.678182 228.080434 
L 541.678182 228.080434 
" clip-path="url(#pcbcd77a3ce)" style="fill: none; stroke: #f0804e; stroke-width: 1.5; stroke-linecap: square"/>
   </g>
   <g id="line2d_37">
    <path d="M 71.241818 236.077788 
L 72.370978 235.951959 
L 73.547187 235.589601 
L 74.770444 234.972726 
L 76.087797 234.047136 
L 77.499248 232.769947 
L 79.004794 231.100535 
L 80.651486 228.934933 
L 82.439323 226.211263 
L 84.415354 222.787994 
L 86.626626 218.49437 
L 89.073139 213.242024 
L 91.848992 206.736397 
L 95.048279 198.648499 
L 98.906243 188.256909 
L 103.987464 173.880941 
L 120.407335 126.953654 
L 125.065121 114.569446 
L 129.205375 104.173037 
L 133.01629 95.18561 
L 136.639012 87.204187 
L 140.073541 80.171135 
L 143.319877 74.017358 
L 146.472116 68.51029 
L 149.530258 63.612583 
L 152.494303 59.284153 
L 155.364252 55.483559 
L 158.140104 52.16907 
L 160.868908 49.252013 
L 163.550664 46.708704 
L 166.185371 44.515403 
L 168.773029 42.648584 
L 171.31364 41.085164 
L 173.85425 39.780815 
L 176.394861 38.727255 
L 178.935471 37.915859 
L 181.476082 37.337731 
L 184.06374 36.979276 
L 186.651399 36.843605 
L 189.333155 36.927553 
L 192.061958 37.236336 
L 194.884859 37.780575 
L 197.801856 38.569713 
L 200.859998 39.629454 
L 204.059285 40.975808 
L 207.446766 42.646861 
L 211.02244 44.662452 
L 214.833356 47.069407 
L 218.926561 49.921668 
L 223.349105 53.278003 
L 228.195084 57.238874 
L 233.605644 61.954895 
L 239.768976 67.630109 
L 247.108518 74.701699 
L 256.847524 84.416512 
L 287.523043 115.227542 
L 296.838614 124.146797 
L 305.260267 131.906572 
L 313.211437 138.932967 
L 320.833268 145.374193 
L 328.266906 151.366968 
L 335.559399 156.962004 
L 342.757795 162.206944 
L 349.909143 167.145221 
L 357.060491 171.815446 
L 364.258887 176.251137 
L 371.504332 180.454201 
L 378.796825 184.428045 
L 386.183414 188.20058 
L 393.711149 191.794628 
L 401.380028 195.208043 
L 409.190053 198.440062 
L 417.188271 201.508576 
L 425.374682 204.411282 
L 433.843384 207.176767 
L 442.547327 209.784602 
L 451.580608 212.257935 
L 460.943228 214.590069 
L 470.729283 216.796597 
L 480.938773 218.868863 
L 491.665795 220.817017 
L 502.957397 222.639287 
L 514.907676 224.339886 
L 527.610728 225.919949 
L 541.16065 227.378535 
L 541.678182 227.43002 
L 541.678182 227.43002 
" clip-path="url(#pcbcd77a3ce)" style="fill: none; stroke: #f89540; stroke-width: 1.5; stroke-linecap: square"/>
   </g>
   <g id="line2d_38">
    <path d="M 71.241818 236.07782 
L 72.418027 235.952685 
L 73.641284 235.591819 
L 74.911589 234.978011 
L 76.275991 234.05935 
L 77.734489 232.794783 
L 79.287085 231.145412 
L 80.980825 229.01163 
L 82.81571 226.334089 
L 84.838789 222.976994 
L 87.050061 218.868286 
L 89.543623 213.747293 
L 92.319475 207.52205 
L 95.518762 199.779415 
L 99.28263 190.065842 
L 104.128609 176.904198 
L 114.00876 149.224471 
L 120.736673 130.770892 
L 125.723797 117.724408 
L 130.099293 106.886418 
L 134.098402 97.563545 
L 137.815221 89.448367 
L 141.343847 82.265353 
L 144.731327 75.866764 
L 147.977663 70.203081 
L 151.129902 65.147985 
L 154.140995 60.729968 
L 157.105041 56.77198 
L 159.97499 53.306316 
L 162.79789 50.24494 
L 165.526694 47.607763 
L 168.208449 45.318493 
L 170.843156 43.354745 
L 173.477864 41.666667 
L 176.065522 40.269609 
L 178.653181 39.123269 
L 181.24084 38.21951 
L 183.828499 37.549888 
L 186.463206 37.099676 
L 189.097913 36.873831 
L 191.779668 36.864561 
L 194.55552 37.078682 
L 197.425469 37.527529 
L 200.389515 38.220846 
L 203.447657 39.166662 
L 206.646944 40.390851 
L 210.034425 41.93052 
L 213.610099 43.80655 
L 217.373966 46.035866 
L 221.420123 48.695703 
L 225.748571 51.810488 
L 230.500453 55.510615 
L 235.722819 59.866297 
L 241.603862 65.069796 
L 248.425871 71.413919 
L 256.847524 79.564646 
L 269.785818 92.437102 
L 288.134671 110.647825 
L 298.344161 120.453502 
L 307.236298 128.691098 
L 315.469757 136.02058 
L 323.32683 142.720906 
L 330.948662 148.929988 
L 338.3823 154.700887 
L 345.721841 160.118434 
L 353.014334 165.224687 
L 360.259778 170.027034 
L 367.505223 174.563543 
L 374.797716 178.86716 
L 382.137257 182.940411 
L 389.570895 186.810918 
L 397.098629 190.479142 
L 404.767509 193.967492 
L 412.577534 197.274521 
L 420.528703 200.400126 
L 428.715115 203.378344 
L 437.136768 206.20367 
L 445.793662 208.872311 
L 454.732847 211.394806 
L 464.001371 213.778692 
L 473.64628 216.02896 
L 483.714625 218.148532 
L 494.253454 220.13873 
L 505.356862 222.007208 
L 517.071899 223.750854 
L 529.492661 225.372432 
L 541.678182 226.762504 
L 541.678182 226.762504 
" clip-path="url(#pcbcd77a3ce)" style="fill: none; stroke: #fdac33; stroke-width: 1.5; stroke-linecap: square"/>
   </g>
   <g id="line2d_39">
    <path d="M 71.241818 236.077846 
L 72.465075 235.95264 
L 73.73538 235.591118 
L 75.052734 234.976718 
L 76.417136 234.094174 
L 77.875634 232.886621 
L 79.475278 231.264774 
L 81.216067 229.167413 
L 83.098 226.537092 
L 85.168127 223.242958 
L 87.426448 219.214949 
L 89.92001 214.298508 
L 92.695862 208.322768 
L 95.895149 200.885396 
L 99.611968 191.660371 
L 104.269754 179.472489 
L 111.656343 159.427457 
L 120.877818 134.54636 
L 126.241329 120.723199 
L 130.805018 109.557196 
L 134.945272 99.99761 
L 138.803236 91.635155 
L 142.473007 84.204809 
L 145.954584 77.650409 
L 149.295016 71.828283 
L 152.494303 66.687921 
L 155.599494 62.109673 
L 158.610588 58.05693 
L 161.574633 54.43744 
L 164.444582 51.278982 
L 167.267483 48.499732 
L 170.043335 46.07778 
L 172.772138 43.99112 
L 175.453894 42.217903 
L 178.088601 40.736632 
L 180.723308 39.506519 
L 183.358015 38.519821 
L 185.992722 37.768462 
L 188.674478 37.236736 
L 191.356233 36.931145 
L 194.085037 36.842816 
L 196.860889 36.973299 
L 199.730838 37.330861 
L 202.694883 37.925688 
L 205.753026 38.766371 
L 208.952313 39.877776 
L 212.292745 41.274704 
L 215.821371 42.993775 
L 219.53819 45.053388 
L 223.537299 47.52904 
L 227.818698 50.447549 
L 232.429435 53.864747 
L 237.463608 57.876976 
L 243.06236 62.629188 
L 249.460935 68.361257 
L 257.035718 75.456971 
L 267.009966 85.125804 
L 299.23808 116.585583 
L 308.741845 125.425723 
L 317.351691 133.135541 
L 325.491054 140.127981 
L 333.301079 146.546123 
L 340.875862 152.486097 
L 348.309499 158.036127 
L 355.696089 163.274508 
L 363.03563 168.207105 
L 370.375172 172.871212 
L 377.714713 177.271879 
L 385.101302 181.441497 
L 392.53494 185.383216 
L 400.062675 189.124079 
L 407.731554 192.686215 
L 415.541579 196.067492 
L 423.492749 199.26717 
L 431.632112 202.302676 
L 440.006716 205.187394 
L 448.616563 207.916795 
L 457.508699 210.501106 
L 466.730174 212.947518 
L 476.280988 215.249854 
L 486.255236 217.423538 
L 496.652919 219.460566 
L 507.568134 221.37112 
L 519.094978 223.160764 
L 531.280498 224.825426 
L 541.678182 226.081145 
L 541.678182 226.081145 
" clip-path="url(#pcbcd77a3ce)" style="fill: none; stroke: #fdc527; stroke-width: 1.5; stroke-linecap: square"/>
   </g>
   <g id="line2d_40">
    <path d="M 71.241818 236.077867 
L 72.512123 235.95198 
L 73.782429 235.605064 
L 75.146831 234.995434 
L 76.558281 234.116984 
L 78.063828 232.91484 
L 79.71052 231.302648 
L 81.451308 229.280107 
L 83.333242 226.749984 
L 85.403369 223.585839 
L 87.661689 219.719069 
L 90.155251 214.999005 
L 92.931103 209.257961 
L 96.083342 202.212276 
L 99.753113 193.443211 
L 104.222705 182.159776 
L 110.62128 165.342239 
L 122.853848 133.128726 
L 128.217359 119.698349 
L 132.828097 108.735867 
L 137.015399 99.338322 
L 140.920411 91.107574 
L 144.63723 83.786188 
L 148.165856 77.32004 
L 151.553337 71.569887 
L 154.799672 66.487126 
L 157.951911 61.955682 
L 161.010053 57.940301 
L 164.021147 54.351343 
L 166.938144 51.216242 
L 169.808093 48.455375 
L 172.630993 46.047541 
L 175.406846 43.971404 
L 178.135649 42.205741 
L 180.817405 40.729634 
L 183.49916 39.503222 
L 186.180916 38.518963 
L 188.862671 37.76897 
L 191.591475 37.237854 
L 194.320279 36.932002 
L 197.096131 36.842694 
L 199.96608 36.975402 
L 202.883077 37.333813 
L 205.894171 37.928245 
L 209.04641 38.781505 
L 212.292745 39.892493 
L 215.680226 41.286731 
L 219.2559 43.000195 
L 223.066815 45.078105 
L 227.112973 47.543371 
L 231.44142 50.446504 
L 236.099206 53.842555 
L 241.180427 57.826563 
L 246.826228 62.541626 
L 253.224802 68.182247 
L 260.799585 75.167018 
L 270.632688 84.556551 
L 305.777799 118.383066 
L 315.234516 127.023079 
L 323.844362 134.592994 
L 331.983725 141.457432 
L 339.840798 147.795343 
L 347.509678 153.696613 
L 355.037412 159.209457 
L 362.47105 164.379148 
L 369.85764 169.246969 
L 377.244229 173.84964 
L 384.677867 178.219057 
L 392.158553 182.357005 
L 399.686288 186.266762 
L 407.308119 189.975011 
L 415.071096 193.503595 
L 422.975217 196.85061 
L 431.020483 200.015534 
L 439.253943 203.015608 
L 447.722644 205.864104 
L 456.426588 208.556804 
L 465.412821 211.103898 
L 474.728392 213.512609 
L 484.420351 215.787643 
L 494.535744 217.931654 
L 505.121621 219.945707 
L 516.225029 221.829757 
L 527.940066 223.589748 
L 540.360828 225.228111 
L 541.678182 225.38926 
L 541.678182 225.38926 
" clip-path="url(#pcbcd77a3ce)" style="fill: none; stroke: #f8df25; stroke-width: 1.5; stroke-linecap: square"/>
   </g>
   <g id="patch_3">
    <path d="M 47.72 246.04 
L 47.72 26.88 
" style="fill: none; stroke: #000000; stroke-width: 0.8; stroke-linejoin: miter; stroke-linecap: square"/>
   </g>
   <g id="patch_4">
    <path d="M 565.2 246.04 
L 565.2 26.88 
" style="fill: none; stroke: #000000; stroke-width: 0.8; stroke-linejoin: miter; stroke-linecap: square"/>
   </g>
   <g id="patch_5">
    <path d="M 47.72 246.04 
L 565.2 246.04 
" style="fill: none; stroke: #000000; stroke-width: 0.8; stroke-linejoin: miter; stroke-linecap: square"/>
   </g>
   <g id="patch_6">
    <path d="M 47.72 26.88 
L 565.2 26.88 
" style="fill: none; stroke: #000000; stroke-width: 0.8; stroke-linejoin: miter; stroke-linecap: square"/>
   </g>
   <g id="text_15">
    <!-- Normalized AD Envelope Using Double EMA Filter with Varying k_A (k_D = 6.281e-04) -->
    <g transform="translate(49.76875 20.88)scale(0.12 -0.12)">
     <defs>
      <path id="DejaVuSans-4e" d="M 628 4666 
L 1478 4666 
L 3547 763 
L 3547 4666 
L 4159 4666 
L 4159 0 
L 3309 0 
L 1241 3903 
L 1241 0 
L 628 0 
L 628 4666 
z
" transform="scale(0.015625)"/>
      <path id="DejaVuSans-6f" d="M 1959 3097 
Q 1497 3097 1228 2736 
Q 959 2375 959 1747 
Q 959 1119 1226 758 
Q 1494 397 1959 397 
Q 2419 397 2687 759 
Q 2956 1122 2956 1747 
Q 2956 2369 2687 2733 
Q 2419 3097 1959 3097 
z
M 1959 3584 
Q 2709 3584 3137 3096 
Q 3566 2609 3566 1747 
Q 3566 888 3137 398 
Q 2709 -91 1959 -91 
Q 1206 -91 779 398 
Q 353 888 353 1747 
Q 353 2609 779 3096 
Q 1206 3584 1959 3584 
z
" transform="scale(0.015625)"/>
      <path id="DejaVuSans-72" d="M 2631 2963 
Q 2534 3019 2420 3045 
Q 2306 3072 2169 3072 
Q 1681 3072 1420 2755 
Q 1159 2438 1159 1844 
L 1159 0 
L 581 0 
L 581 3500 
L 1159 3500 
L 1159 2956 
Q 1341 3275 1631 3429 
Q 1922 3584 2338 3584 
Q 2397 3584 2469 3576 
Q 2541 3569 2628 3553 
L 2631 2963 
z
" transform="scale(0.015625)"/>
      <path id="DejaVuSans-7a" d="M 353 3500 
L 3084 3500 
L 3084 2975 
L 922 459 
L 3084 459 
L 3084 0 
L 275 0 
L 275 525 
L 2438 3041 
L 353 3041 
L 353 3500 
z
" transform="scale(0.015625)"/>
      <path id="DejaVuSans-44" d="M 1259 4147 
L 1259 519 
L 2022 519 
Q 2988 519 3436 956 
Q 3884 1394 3884 2338 
Q 3884 3275 3436 3711 
Q 2988 4147 2022 4147 
L 1259 4147 
z
M 628 4666 
L 1925 4666 
Q 3281 4666 3915 4102 
Q 4550 3538 4550 2338 
Q 4550 1131 3912 565 
Q 3275 0 1925 0 
L 628 0 
L 628 4666 
z
" transform="scale(0.015625)"/>
      <path id="DejaVuSans-45" d="M 628 4666 
L 3578 4666 
L 3578 4134 
L 1259 4134 
L 1259 2753 
L 3481 2753 
L 3481 2222 
L 1259 2222 
L 1259 531 
L 3634 531 
L 3634 0 
L 628 0 
L 628 4666 
z
" transform="scale(0.015625)"/>
      <path id="DejaVuSans-6e" d="M 3513 2113 
L 3513 0 
L 2938 0 
L 2938 2094 
Q 2938 2591 2744 2837 
Q 2550 3084 2163 3084 
Q 1697 3084 1428 2787 
Q 1159 2491 1159 1978 
L 1159 0 
L 581 0 
L 581 3500 
L 1159 3500 
L 1159 2956 
Q 1366 3272 1645 3428 
Q 1925 3584 2291 3584 
Q 2894 3584 3203 3211 
Q 3513 2838 3513 2113 
z
" transform="scale(0.015625)"/>
      <path id="DejaVuSans-76" d="M 191 3500 
L 800 3500 
L 1894 563 
L 2988 3500 
L 3597 3500 
L 2284 0 
L 1503 0 
L 191 3500 
z
" transform="scale(0.015625)"/>
      <path id="DejaVuSans-55" d="M 556 4666 
L 1191 4666 
L 1191 1831 
Q 1191 1081 1462 751 
Q 1734 422 2344 422 
Q 2950 422 3222 751 
Q 3494 1081 3494 1831 
L 3494 4666 
L 4128 4666 
L 4128 1753 
Q 4128 841 3676 375 
Q 3225 -91 2344 -91 
Q 1459 -91 1007 375 
Q 556 841 556 1753 
L 556 4666 
z
" transform="scale(0.015625)"/>
      <path id="DejaVuSans-67" d="M 2906 1791 
Q 2906 2416 2648 2759 
Q 2391 3103 1925 3103 
Q 1463 3103 1205 2759 
Q 947 2416 947 1791 
Q 947 1169 1205 825 
Q 1463 481 1925 481 
Q 2391 481 2648 825 
Q 2906 1169 2906 1791 
z
M 3481 434 
Q 3481 -459 3084 -895 
Q 2688 -1331 1869 -1331 
Q 1566 -1331 1297 -1286 
Q 1028 -1241 775 -1147 
L 775 -588 
Q 1028 -725 1275 -790 
Q 1522 -856 1778 -856 
Q 2344 -856 2625 -561 
Q 2906 -266 2906 331 
L 2906 616 
Q 2728 306 2450 153 
Q 2172 0 1784 0 
Q 1141 0 747 490 
Q 353 981 353 1791 
Q 353 2603 747 3093 
Q 1141 3584 1784 3584 
Q 2172 3584 2450 3431 
Q 2728 3278 2906 2969 
L 2906 3500 
L 3481 3500 
L 3481 434 
z
" transform="scale(0.015625)"/>
      <path id="DejaVuSans-62" d="M 3116 1747 
Q 3116 2381 2855 2742 
Q 2594 3103 2138 3103 
Q 1681 3103 1420 2742 
Q 1159 2381 1159 1747 
Q 1159 1113 1420 752 
Q 1681 391 2138 391 
Q 2594 391 2855 752 
Q 3116 1113 3116 1747 
z
M 1159 2969 
Q 1341 3281 1617 3432 
Q 1894 3584 2278 3584 
Q 2916 3584 3314 3078 
Q 3713 2572 3713 1747 
Q 3713 922 3314 415 
Q 2916 -91 2278 -91 
Q 1894 -91 1617 61 
Q 1341 213 1159 525 
L 1159 0 
L 581 0 
L 581 4863 
L 1159 4863 
L 1159 2969 
z
" transform="scale(0.015625)"/>
      <path id="DejaVuSans-4d" d="M 628 4666 
L 1569 4666 
L 2759 1491 
L 3956 4666 
L 4897 4666 
L 4897 0 
L 4281 0 
L 4281 4097 
L 3078 897 
L 2444 897 
L 1241 4097 
L 1241 0 
L 628 0 
L 628 4666 
z
" transform="scale(0.015625)"/>
      <path id="DejaVuSans-46" d="M 628 4666 
L 3309 4666 
L 3309 4134 
L 1259 4134 
L 1259 2759 
L 3109 2759 
L 3109 2228 
L 1259 2228 
L 1259 0 
L 628 0 
L 628 4666 
z
" transform="scale(0.015625)"/>
      <path id="DejaVuSans-77" d="M 269 3500 
L 844 3500 
L 1563 769 
L 2278 3500 
L 2956 3500 
L 3675 769 
L 4391 3500 
L 4966 3500 
L 4050 0 
L 3372 0 
L 2619 2869 
L 1863 0 
L 1184 0 
L 269 3500 
z
" transform="scale(0.015625)"/>
      <path id="DejaVuSans-68" d="M 3513 2113 
L 3513 0 
L 2938 0 
L 2938 2094 
Q 2938 2591 2744 2837 
Q 2550 3084 2163 3084 
Q 1697 3084 1428 2787 
Q 1159 2491 1159 1978 
L 1159 0 
L 581 0 
L 581 4863 
L 1159 4863 
L 1159 2956 
Q 1366 3272 1645 3428 
Q 1925 3584 2291 3584 
Q 2894 3584 3203 3211 
Q 3513 2838 3513 2113 
z
" transform="scale(0.015625)"/>
      <path id="DejaVuSans-56" d="M 1831 0 
L 50 4666 
L 709 4666 
L 2188 738 
L 3669 4666 
L 4325 4666 
L 2547 0 
L 1831 0 
z
" transform="scale(0.015625)"/>
      <path id="DejaVuSans-79" d="M 2059 -325 
Q 1816 -950 1584 -1140 
Q 1353 -1331 966 -1331 
L 506 -1331 
L 506 -850 
L 844 -850 
Q 1081 -850 1212 -737 
Q 1344 -625 1503 -206 
L 1606 56 
L 191 3500 
L 800 3500 
L 1894 763 
L 2988 3500 
L 3597 3500 
L 2059 -325 
z
" transform="scale(0.015625)"/>
      <path id="DejaVuSans-6b" d="M 581 4863 
L 1159 4863 
L 1159 1991 
L 2875 3500 
L 3609 3500 
L 1753 1863 
L 3688 0 
L 2938 0 
L 1159 1709 
L 1159 0 
L 581 0 
L 581 4863 
z
" transform="scale(0.015625)"/>
      <path id="DejaVuSans-5f" d="M 3263 -1063 
L 3263 -1509 
L -63 -1509 
L -63 -1063 
L 3263 -1063 
z
" transform="scale(0.015625)"/>
      <path id="DejaVuSans-28" d="M 1984 4856 
Q 1566 4138 1362 3434 
Q 1159 2731 1159 2009 
Q 1159 1288 1364 580 
Q 1569 -128 1984 -844 
L 1484 -844 
Q 1016 -109 783 600 
Q 550 1309 550 2009 
Q 550 2706 781 3412 
Q 1013 4119 1484 4856 
L 1984 4856 
z
" transform="scale(0.015625)"/>
      <path id="DejaVuSans-3d" d="M 678 2906 
L 4684 2906 
L 4684 2381 
L 678 2381 
L 678 2906 
z
M 678 1631 
L 4684 1631 
L 4684 1100 
L 678 1100 
L 678 1631 
z
" transform="scale(0.015625)"/>
      <path id="DejaVuSans-2d" d="M 313 2009 
L 1997 2009 
L 1997 1497 
L 313 1497 
L 313 2009 
z
" transform="scale(0.015625)"/>
      <path id="DejaVuSans-29" d="M 513 4856 
L 1013 4856 
Q 1481 4119 1714 3412 
Q 1947 2706 1947 2009 
Q 1947 1309 1714 600 
Q 1481 -109 1013 -844 
L 513 -844 
Q 928 -128 1133 580 
Q 1338 1288 1338 2009 
Q 1338 2731 1133 3434 
Q 928 4138 513 4856 
z
" transform="scale(0.015625)"/>
     </defs>
     <use xlink:href="#DejaVuSans-4e"/>
     <use xlink:href="#DejaVuSans-6f" x="74.804688"/>
     <use xlink:href="#DejaVuSans-72" x="135.986328"/>
     <use xlink:href="#DejaVuSans-6d" x="175.349609"/>
     <use xlink:href="#DejaVuSans-61" x="272.761719"/>
     <use xlink:href="#DejaVuSans-6c" x="334.041016"/>
     <use xlink:href="#DejaVuSans-69" x="361.824219"/>
     <use xlink:href="#DejaVuSans-7a" x="389.607422"/>
     <use xlink:href="#DejaVuSans-65" x="442.097656"/>
     <use xlink:href="#DejaVuSans-64" x="503.621094"/>
     <use xlink:href="#DejaVuSans-20" x="567.097656"/>
     <use xlink:href="#DejaVuSans-41" x="598.884766"/>
     <use xlink:href="#DejaVuSans-44" x="667.292969"/>
     <use xlink:href="#DejaVuSans-20" x="744.294922"/>
     <use xlink:href="#DejaVuSans-45" x="776.082031"/>
     <use xlink:href="#DejaVuSans-6e" x="839.265625"/>
     <use xlink:href="#DejaVuSans-76" x="902.644531"/>
     <use xlink:href="#DejaVuSans-65" x="961.824219"/>
     <use xlink:href="#DejaVuSans-6c" x="1023.347656"/>
     <use xlink:href="#DejaVuSans-6f" x="1051.130859"/>
     <use xlink:href="#DejaVuSans-70" x="1112.3125"/>
     <use xlink:href="#DejaVuSans-65" x="1175.789062"/>
     <use xlink:href="#DejaVuSans-20" x="1237.3125"/>
     <use xlink:href="#DejaVuSans-55" x="1269.099609"/>
     <use xlink:href="#DejaVuSans-73" x="1342.292969"/>
     <use xlink:href="#DejaVuSans-69" x="1394.392578"/>
     <use xlink:href="#DejaVuSans-6e" x="1422.175781"/>
     <use xlink:href="#DejaVuSans-67" x="1485.554688"/>
     <use xlink:href="#DejaVuSans-20" x="1549.03125"/>
     <use xlink:href="#DejaVuSans-44" x="1580.818359"/>
     <use xlink:href="#DejaVuSans-6f" x="1657.820312"/>
     <use xlink:href="#DejaVuSans-75" x="1719.001953"/>
     <use xlink:href="#DejaVuSans-62" x="1782.380859"/>
     <use xlink:href="#DejaVuSans-6c" x="1845.857422"/>
     <use xlink:href="#DejaVuSans-65" x="1873.640625"/>
     <use xlink:href="#DejaVuSans-20" x="1935.164062"/>
     <use xlink:href="#DejaVuSans-45" x="1966.951172"/>
     <use xlink:href="#DejaVuSans-4d" x="2030.134766"/>
     <use xlink:href="#DejaVuSans-41" x="2116.414062"/>
     <use xlink:href="#DejaVuSans-20" x="2184.822266"/>
     <use xlink:href="#DejaVuSans-46" x="2216.609375"/>
     <use xlink:href="#DejaVuSans-69" x="2266.878906"/>
     <use xlink:href="#DejaVuSans-6c" x="2294.662109"/>
     <use xlink:href="#DejaVuSans-74" x="2322.445312"/>
     <use xlink:href="#DejaVuSans-65" x="2361.654297"/>
     <use xlink:href="#DejaVuSans-72" x="2423.177734"/>
     <use xlink:href="#DejaVuSans-20" x="2464.291016"/>
     <use xlink:href="#DejaVuSans-77" x="2496.078125"/>
     <use xlink:href="#DejaVuSans-69" x="2577.865234"/>
     <use xlink:href="#DejaVuSans-74" x="2605.648438"/>
     <use xlink:href="#DejaVuSans-68" x="2644.857422"/>
     <use xlink:href="#DejaVuSans-20" x="2708.236328"/>
     <use xlink:href="#DejaVuSans-56" x="2740.023438"/>
     <use xlink:href="#DejaVuSans-61" x="2800.681641"/>
     <use xlink:href="#DejaVuSans-72" x="2861.960938"/>
     <use xlink:href="#DejaVuSans-79" x="2903.074219"/>
     <use xlink:href="#DejaVuSans-69" x="2962.253906"/>
     <use xlink:href="#DejaVuSans-6e" x="2990.037109"/>
     <use xlink:href="#DejaVuSans-67" x="3053.416016"/>
     <use xlink:href="#DejaVuSans-20" x="3116.892578"/>
     <use xlink:href="#DejaVuSans-6b" x="3148.679688"/>
     <use xlink:href="#DejaVuSans-5f" x="3206.589844"/>
     <use xlink:href="#DejaVuSans-41" x="3256.589844"/>
     <use xlink:href="#DejaVuSans-20" x="3324.998047"/>
     <use xlink:href="#DejaVuSans-28" x="3356.785156"/>
     <use xlink:href="#DejaVuSans-6b" x="3395.798828"/>
     <use xlink:href="#DejaVuSans-5f" x="3453.708984"/>
     <use xlink:href="#DejaVuSans-44" x="3503.708984"/>
     <use xlink:href="#DejaVuSans-20" x="3580.710938"/>
     <use xlink:href="#DejaVuSans-3d" x="3612.498047"/>
     <use xlink:href="#DejaVuSans-20" x="3696.287109"/>
     <use xlink:href="#DejaVuSans-36" x="3728.074219"/>
     <use xlink:href="#DejaVuSans-2e" x="3791.697266"/>
     <use xlink:href="#DejaVuSans-32" x="3823.484375"/>
     <use xlink:href="#DejaVuSans-38" x="3887.107422"/>
     <use xlink:href="#DejaVuSans-31" x="3950.730469"/>
     <use xlink:href="#DejaVuSans-65" x="4014.353516"/>
     <use xlink:href="#DejaVuSans-2d" x="4075.876953"/>
     <use xlink:href="#DejaVuSans-30" x="4111.960938"/>
     <use xlink:href="#DejaVuSans-34" x="4175.583984"/>
     <use xlink:href="#DejaVuSans-29" x="4239.207031"/>
    </g>
   </g>
   <g id="legend_1">
    <g id="patch_7">
     <path d="M 323.95 154.53 
L 558.2 154.53 
Q 560.2 154.53 560.2 152.53 
L 560.2 33.88 
Q 560.2 31.88 558.2 31.88 
L 323.95 31.88 
Q 321.95 31.88 321.95 33.88 
L 321.95 152.53 
Q 321.95 154.53 323.95 154.53 
z
" style="fill: #ffffff; opacity: 0.8; stroke: #cccccc; stroke-linejoin: miter"/>
    </g>
    <g id="line2d_41">
     <path d="M 325.95 39.978437 
L 335.95 39.978437 
L 345.95 39.978437 
" style="fill: none; stroke: #0d0887; stroke-width: 1.5; stroke-linecap: square"/>
    </g>
    <g id="text_16">
     <!-- k_A=8.284e-01 -->
     <g transform="translate(353.95 43.478437)scale(0.1 -0.1)">
      <use xlink:href="#DejaVuSans-6b"/>
      <use xlink:href="#DejaVuSans-5f" x="57.910156"/>
      <use xlink:href="#DejaVuSans-41" x="107.910156"/>
      <use xlink:href="#DejaVuSans-3d" x="176.318359"/>
      <use xlink:href="#DejaVuSans-38" x="260.107422"/>
      <use xlink:href="#DejaVuSans-2e" x="323.730469"/>
      <use xlink:href="#DejaVuSans-32" x="355.517578"/>
      <use xlink:href="#DejaVuSans-38" x="419.140625"/>
      <use xlink:href="#DejaVuSans-34" x="482.763672"/>
      <use xlink:href="#DejaVuSans-65" x="546.386719"/>
      <use xlink:href="#DejaVuSans-2d" x="607.910156"/>
      <use xlink:href="#DejaVuSans-30" x="643.994141"/>
      <use xlink:href="#DejaVuSans-31" x="707.617188"/>
     </g>
    </g>
    <g id="line2d_42">
     <path d="M 325.95 54.934687 
L 335.95 54.934687 
L 345.95 54.934687 
" style="fill: none; stroke: #310597; stroke-width: 1.5; stroke-linecap: square"/>
    </g>
    <g id="text_17">
     <!-- k_A=9.354e-03 -->
     <g transform="translate(353.95 58.434687)scale(0.1 -0.1)">
      <defs>
       <path id="DejaVuSans-39" d="M 703 97 
L 703 672 
Q 941 559 1184 500 
Q 1428 441 1663 441 
Q 2288 441 2617 861 
Q 2947 1281 2994 2138 
Q 2813 1869 2534 1725 
Q 2256 1581 1919 1581 
Q 1219 1581 811 2004 
Q 403 2428 403 3163 
Q 403 3881 828 4315 
Q 1253 4750 1959 4750 
Q 2769 4750 3195 4129 
Q 3622 3509 3622 2328 
Q 3622 1225 3098 567 
Q 2575 -91 1691 -91 
Q 1453 -91 1209 -44 
Q 966 3 703 97 
z
M 1959 2075 
Q 2384 2075 2632 2365 
Q 2881 2656 2881 3163 
Q 2881 3666 2632 3958 
Q 2384 4250 1959 4250 
Q 1534 4250 1286 3958 
Q 1038 3666 1038 3163 
Q 1038 2656 1286 2365 
Q 1534 2075 1959 2075 
z
" transform="scale(0.015625)"/>
       <path id="DejaVuSans-33" d="M 2597 2516 
Q 3050 2419 3304 2112 
Q 3559 1806 3559 1356 
Q 3559 666 3084 287 
Q 2609 -91 1734 -91 
Q 1441 -91 1130 -33 
Q 819 25 488 141 
L 488 750 
Q 750 597 1062 519 
Q 1375 441 1716 441 
Q 2309 441 2620 675 
Q 2931 909 2931 1356 
Q 2931 1769 2642 2001 
Q 2353 2234 1838 2234 
L 1294 2234 
L 1294 2753 
L 1863 2753 
Q 2328 2753 2575 2939 
Q 2822 3125 2822 3475 
Q 2822 3834 2567 4026 
Q 2313 4219 1838 4219 
Q 1578 4219 1281 4162 
Q 984 4106 628 3988 
L 628 4550 
Q 988 4650 1302 4700 
Q 1616 4750 1894 4750 
Q 2613 4750 3031 4423 
Q 3450 4097 3450 3541 
Q 3450 3153 3228 2886 
Q 3006 2619 2597 2516 
z
" transform="scale(0.015625)"/>
       <path id="DejaVuSans-35" d="M 691 4666 
L 3169 4666 
L 3169 4134 
L 1269 4134 
L 1269 2991 
Q 1406 3038 1543 3061 
Q 1681 3084 1819 3084 
Q 2600 3084 3056 2656 
Q 3513 2228 3513 1497 
Q 3513 744 3044 326 
Q 2575 -91 1722 -91 
Q 1428 -91 1123 -41 
Q 819 9 494 109 
L 494 744 
Q 775 591 1075 516 
Q 1375 441 1709 441 
Q 2250 441 2565 725 
Q 2881 1009 2881 1497 
Q 2881 1984 2565 2268 
Q 2250 2553 1709 2553 
Q 1456 2553 1204 2497 
Q 953 2441 691 2322 
L 691 4666 
z
" transform="scale(0.015625)"/>
      </defs>
      <use xlink:href="#DejaVuSans-6b"/>
      <use xlink:href="#DejaVuSans-5f" x="57.910156"/>
      <use xlink:href="#DejaVuSans-41" x="107.910156"/>
      <use xlink:href="#DejaVuSans-3d" x="176.318359"/>
      <use xlink:href="#DejaVuSans-39" x="260.107422"/>
      <use xlink:href="#DejaVuSans-2e" x="323.730469"/>
      <use xlink:href="#DejaVuSans-33" x="355.517578"/>
      <use xlink:href="#DejaVuSans-35" x="419.140625"/>
      <use xlink:href="#DejaVuSans-34" x="482.763672"/>
      <use xlink:href="#DejaVuSans-65" x="546.386719"/>
      <use xlink:href="#DejaVuSans-2d" x="607.910156"/>
      <use xlink:href="#DejaVuSans-30" x="643.994141"/>
      <use xlink:href="#DejaVuSans-33" x="707.617188"/>
     </g>
    </g>
    <g id="line2d_43">
     <path d="M 325.95 69.890937 
L 335.95 69.890937 
L 345.95 69.890937 
" style="fill: none; stroke: #4c02a1; stroke-width: 1.5; stroke-linecap: square"/>
    </g>
    <g id="text_18">
     <!-- k_A=4.695e-03 -->
     <g transform="translate(353.95 73.390937)scale(0.1 -0.1)">
      <use xlink:href="#DejaVuSans-6b"/>
      <use xlink:href="#DejaVuSans-5f" x="57.910156"/>
      <use xlink:href="#DejaVuSans-41" x="107.910156"/>
      <use xlink:href="#DejaVuSans-3d" x="176.318359"/>
      <use xlink:href="#DejaVuSans-34" x="260.107422"/>
      <use xlink:href="#DejaVuSans-2e" x="323.730469"/>
      <use xlink:href="#DejaVuSans-36" x="355.517578"/>
      <use xlink:href="#DejaVuSans-39" x="419.140625"/>
      <use xlink:href="#DejaVuSans-35" x="482.763672"/>
      <use xlink:href="#DejaVuSans-65" x="546.386719"/>
      <use xlink:href="#DejaVuSans-2d" x="607.910156"/>
      <use xlink:href="#DejaVuSans-30" x="643.994141"/>
      <use xlink:href="#DejaVuSans-33" x="707.617188"/>
     </g>
    </g>
    <g id="line2d_44">
     <path d="M 325.95 84.847187 
L 335.95 84.847187 
L 345.95 84.847187 
" style="fill: none; stroke: #6600a7; stroke-width: 1.5; stroke-linecap: square"/>
    </g>
    <g id="text_19">
     <!-- k_A=3.134e-03 -->
     <g transform="translate(353.95 88.347187)scale(0.1 -0.1)">
      <use xlink:href="#DejaVuSans-6b"/>
      <use xlink:href="#DejaVuSans-5f" x="57.910156"/>
      <use xlink:href="#DejaVuSans-41" x="107.910156"/>
      <use xlink:href="#DejaVuSans-3d" x="176.318359"/>
      <use xlink:href="#DejaVuSans-33" x="260.107422"/>
      <use xlink:href="#DejaVuSans-2e" x="323.730469"/>
      <use xlink:href="#DejaVuSans-31" x="355.517578"/>
      <use xlink:href="#DejaVuSans-33" x="419.140625"/>
      <use xlink:href="#DejaVuSans-34" x="482.763672"/>
      <use xlink:href="#DejaVuSans-65" x="546.386719"/>
      <use xlink:href="#DejaVuSans-2d" x="607.910156"/>
      <use xlink:href="#DejaVuSans-30" x="643.994141"/>
      <use xlink:href="#DejaVuSans-33" x="707.617188"/>
     </g>
    </g>
    <g id="line2d_45">
     <path d="M 325.95 99.803437 
L 335.95 99.803437 
L 345.95 99.803437 
" style="fill: none; stroke: #7e03a8; stroke-width: 1.5; stroke-linecap: square"/>
    </g>
    <g id="text_20">
     <!-- k_A=2.352e-03 -->
     <g transform="translate(353.95 103.303437)scale(0.1 -0.1)">
      <use xlink:href="#DejaVuSans-6b"/>
      <use xlink:href="#DejaVuSans-5f" x="57.910156"/>
      <use xlink:href="#DejaVuSans-41" x="107.910156"/>
      <use xlink:href="#DejaVuSans-3d" x="176.318359"/>
      <use xlink:href="#DejaVuSans-32" x="260.107422"/>
      <use xlink:href="#DejaVuSans-2e" x="323.730469"/>
      <use xlink:href="#DejaVuSans-33" x="355.517578"/>
      <use xlink:href="#DejaVuSans-35" x="419.140625"/>
      <use xlink:href="#DejaVuSans-32" x="482.763672"/>
      <use xlink:href="#DejaVuSans-65" x="546.386719"/>
      <use xlink:href="#DejaVuSans-2d" x="607.910156"/>
      <use xlink:href="#DejaVuSans-30" x="643.994141"/>
      <use xlink:href="#DejaVuSans-33" x="707.617188"/>
     </g>
    </g>
    <g id="line2d_46">
     <path d="M 325.95 114.759687 
L 335.95 114.759687 
L 345.95 114.759687 
" style="fill: none; stroke: #9511a1; stroke-width: 1.5; stroke-linecap: square"/>
    </g>
    <g id="text_21">
     <!-- k_A=1.882e-03 -->
     <g transform="translate(353.95 118.259687)scale(0.1 -0.1)">
      <use xlink:href="#DejaVuSans-6b"/>
      <use xlink:href="#DejaVuSans-5f" x="57.910156"/>
      <use xlink:href="#DejaVuSans-41" x="107.910156"/>
      <use xlink:href="#DejaVuSans-3d" x="176.318359"/>
      <use xlink:href="#DejaVuSans-31" x="260.107422"/>
      <use xlink:href="#DejaVuSans-2e" x="323.730469"/>
      <use xlink:href="#DejaVuSans-38" x="355.517578"/>
      <use xlink:href="#DejaVuSans-38" x="419.140625"/>
      <use xlink:href="#DejaVuSans-32" x="482.763672"/>
      <use xlink:href="#DejaVuSans-65" x="546.386719"/>
      <use xlink:href="#DejaVuSans-2d" x="607.910156"/>
      <use xlink:href="#DejaVuSans-30" x="643.994141"/>
      <use xlink:href="#DejaVuSans-33" x="707.617188"/>
     </g>
    </g>
    <g id="line2d_47">
     <path d="M 325.95 129.715937 
L 335.95 129.715937 
L 345.95 129.715937 
" style="fill: none; stroke: #aa2395; stroke-width: 1.5; stroke-linecap: square"/>
    </g>
    <g id="text_22">
     <!-- k_A=1.569e-03 -->
     <g transform="translate(353.95 133.215937)scale(0.1 -0.1)">
      <use xlink:href="#DejaVuSans-6b"/>
      <use xlink:href="#DejaVuSans-5f" x="57.910156"/>
      <use xlink:href="#DejaVuSans-41" x="107.910156"/>
      <use xlink:href="#DejaVuSans-3d" x="176.318359"/>
      <use xlink:href="#DejaVuSans-31" x="260.107422"/>
      <use xlink:href="#DejaVuSans-2e" x="323.730469"/>
      <use xlink:href="#DejaVuSans-35" x="355.517578"/>
      <use xlink:href="#DejaVuSans-36" x="419.140625"/>
      <use xlink:href="#DejaVuSans-39" x="482.763672"/>
      <use xlink:href="#DejaVuSans-65" x="546.386719"/>
      <use xlink:href="#DejaVuSans-2d" x="607.910156"/>
      <use xlink:href="#DejaVuSans-30" x="643.994141"/>
      <use xlink:href="#DejaVuSans-33" x="707.617188"/>
     </g>
    </g>
    <g id="line2d_48">
     <path d="M 325.95 144.672187 
L 335.95 144.672187 
L 345.95 144.672187 
" style="fill: none; stroke: #bc3587; stroke-width: 1.5; stroke-linecap: square"/>
    </g>
    <g id="text_23">
     <!-- k_A=1.345e-03 -->
     <g transform="translate(353.95 148.172187)scale(0.1 -0.1)">
      <use xlink:href="#DejaVuSans-6b"/>
      <use xlink:href="#DejaVuSans-5f" x="57.910156"/>
      <use xlink:href="#DejaVuSans-41" x="107.910156"/>
      <use xlink:href="#DejaVuSans-3d" x="176.318359"/>
      <use xlink:href="#DejaVuSans-31" x="260.107422"/>
      <use xlink:href="#DejaVuSans-2e" x="323.730469"/>
      <use xlink:href="#DejaVuSans-33" x="355.517578"/>
      <use xlink:href="#DejaVuSans-34" x="419.140625"/>
      <use xlink:href="#DejaVuSans-35" x="482.763672"/>
      <use xlink:href="#DejaVuSans-65" x="546.386719"/>
      <use xlink:href="#DejaVuSans-2d" x="607.910156"/>
      <use xlink:href="#DejaVuSans-30" x="643.994141"/>
      <use xlink:href="#DejaVuSans-33" x="707.617188"/>
     </g>
    </g>
    <g id="line2d_49">
     <path d="M 451.075 39.978437 
L 461.075 39.978437 
L 471.075 39.978437 
" style="fill: none; stroke: #cc4778; stroke-width: 1.5; stroke-linecap: square"/>
    </g>
    <g id="text_24">
     <!-- k_A=1.177e-03 -->
     <g transform="translate(479.075 43.478437)scale(0.1 -0.1)">
      <defs>
       <path id="DejaVuSans-37" d="M 525 4666 
L 3525 4666 
L 3525 4397 
L 1831 0 
L 1172 0 
L 2766 4134 
L 525 4134 
L 525 4666 
z
" transform="scale(0.015625)"/>
      </defs>
      <use xlink:href="#DejaVuSans-6b"/>
      <use xlink:href="#DejaVuSans-5f" x="57.910156"/>
      <use xlink:href="#DejaVuSans-41" x="107.910156"/>
      <use xlink:href="#DejaVuSans-3d" x="176.318359"/>
      <use xlink:href="#DejaVuSans-31" x="260.107422"/>
      <use xlink:href="#DejaVuSans-2e" x="323.730469"/>
      <use xlink:href="#DejaVuSans-31" x="355.517578"/>
      <use xlink:href="#DejaVuSans-37" x="419.140625"/>
      <use xlink:href="#DejaVuSans-37" x="482.763672"/>
      <use xlink:href="#DejaVuSans-65" x="546.386719"/>
      <use xlink:href="#DejaVuSans-2d" x="607.910156"/>
      <use xlink:href="#DejaVuSans-30" x="643.994141"/>
      <use xlink:href="#DejaVuSans-33" x="707.617188"/>
     </g>
    </g>
    <g id="line2d_50">
     <path d="M 451.075 54.934687 
L 461.075 54.934687 
L 471.075 54.934687 
" style="fill: none; stroke: #da5a6a; stroke-width: 1.5; stroke-linecap: square"/>
    </g>
    <g id="text_25">
     <!-- k_A=1.047e-03 -->
     <g transform="translate(479.075 58.434687)scale(0.1 -0.1)">
      <use xlink:href="#DejaVuSans-6b"/>
      <use xlink:href="#DejaVuSans-5f" x="57.910156"/>
      <use xlink:href="#DejaVuSans-41" x="107.910156"/>
      <use xlink:href="#DejaVuSans-3d" x="176.318359"/>
      <use xlink:href="#DejaVuSans-31" x="260.107422"/>
      <use xlink:href="#DejaVuSans-2e" x="323.730469"/>
      <use xlink:href="#DejaVuSans-30" x="355.517578"/>
      <use xlink:href="#DejaVuSans-34" x="419.140625"/>
      <use xlink:href="#DejaVuSans-37" x="482.763672"/>
      <use xlink:href="#DejaVuSans-65" x="546.386719"/>
      <use xlink:href="#DejaVuSans-2d" x="607.910156"/>
      <use xlink:href="#DejaVuSans-30" x="643.994141"/>
      <use xlink:href="#DejaVuSans-33" x="707.617188"/>
     </g>
    </g>
    <g id="line2d_51">
     <path d="M 451.075 69.890937 
L 461.075 69.890937 
L 471.075 69.890937 
" style="fill: none; stroke: #e66c5c; stroke-width: 1.5; stroke-linecap: square"/>
    </g>
    <g id="text_26">
     <!-- k_A=9.419e-04 -->
     <g transform="translate(479.075 73.390937)scale(0.1 -0.1)">
      <use xlink:href="#DejaVuSans-6b"/>
      <use xlink:href="#DejaVuSans-5f" x="57.910156"/>
      <use xlink:href="#DejaVuSans-41" x="107.910156"/>
      <use xlink:href="#DejaVuSans-3d" x="176.318359"/>
      <use xlink:href="#DejaVuSans-39" x="260.107422"/>
      <use xlink:href="#DejaVuSans-2e" x="323.730469"/>
      <use xlink:href="#DejaVuSans-34" x="355.517578"/>
      <use xlink:href="#DejaVuSans-31" x="419.140625"/>
      <use xlink:href="#DejaVuSans-39" x="482.763672"/>
      <use xlink:href="#DejaVuSans-65" x="546.386719"/>
      <use xlink:href="#DejaVuSans-2d" x="607.910156"/>
      <use xlink:href="#DejaVuSans-30" x="643.994141"/>
      <use xlink:href="#DejaVuSans-34" x="707.617188"/>
     </g>
    </g>
    <g id="line2d_52">
     <path d="M 451.075 84.847187 
L 461.075 84.847187 
L 471.075 84.847187 
" style="fill: none; stroke: #f0804e; stroke-width: 1.5; stroke-linecap: square"/>
    </g>
    <g id="text_27">
     <!-- k_A=8.564e-04 -->
     <g transform="translate(479.075 88.347187)scale(0.1 -0.1)">
      <use xlink:href="#DejaVuSans-6b"/>
      <use xlink:href="#DejaVuSans-5f" x="57.910156"/>
      <use xlink:href="#DejaVuSans-41" x="107.910156"/>
      <use xlink:href="#DejaVuSans-3d" x="176.318359"/>
      <use xlink:href="#DejaVuSans-38" x="260.107422"/>
      <use xlink:href="#DejaVuSans-2e" x="323.730469"/>
      <use xlink:href="#DejaVuSans-35" x="355.517578"/>
      <use xlink:href="#DejaVuSans-36" x="419.140625"/>
      <use xlink:href="#DejaVuSans-34" x="482.763672"/>
      <use xlink:href="#DejaVuSans-65" x="546.386719"/>
      <use xlink:href="#DejaVuSans-2d" x="607.910156"/>
      <use xlink:href="#DejaVuSans-30" x="643.994141"/>
      <use xlink:href="#DejaVuSans-34" x="707.617188"/>
     </g>
    </g>
    <g id="line2d_53">
     <path d="M 451.075 99.803437 
L 461.075 99.803437 
L 471.075 99.803437 
" style="fill: none; stroke: #f89540; stroke-width: 1.5; stroke-linecap: square"/>
    </g>
    <g id="text_28">
     <!-- k_A=7.851e-04 -->
     <g transform="translate(479.075 103.303437)scale(0.1 -0.1)">
      <use xlink:href="#DejaVuSans-6b"/>
      <use xlink:href="#DejaVuSans-5f" x="57.910156"/>
      <use xlink:href="#DejaVuSans-41" x="107.910156"/>
      <use xlink:href="#DejaVuSans-3d" x="176.318359"/>
      <use xlink:href="#DejaVuSans-37" x="260.107422"/>
      <use xlink:href="#DejaVuSans-2e" x="323.730469"/>
      <use xlink:href="#DejaVuSans-38" x="355.517578"/>
      <use xlink:href="#DejaVuSans-35" x="419.140625"/>
      <use xlink:href="#DejaVuSans-31" x="482.763672"/>
      <use xlink:href="#DejaVuSans-65" x="546.386719"/>
      <use xlink:href="#DejaVuSans-2d" x="607.910156"/>
      <use xlink:href="#DejaVuSans-30" x="643.994141"/>
      <use xlink:href="#DejaVuSans-34" x="707.617188"/>
     </g>
    </g>
    <g id="line2d_54">
     <path d="M 451.075 114.759687 
L 461.075 114.759687 
L 471.075 114.759687 
" style="fill: none; stroke: #fdac33; stroke-width: 1.5; stroke-linecap: square"/>
    </g>
    <g id="text_29">
     <!-- k_A=7.247e-04 -->
     <g transform="translate(479.075 118.259687)scale(0.1 -0.1)">
      <use xlink:href="#DejaVuSans-6b"/>
      <use xlink:href="#DejaVuSans-5f" x="57.910156"/>
      <use xlink:href="#DejaVuSans-41" x="107.910156"/>
      <use xlink:href="#DejaVuSans-3d" x="176.318359"/>
      <use xlink:href="#DejaVuSans-37" x="260.107422"/>
      <use xlink:href="#DejaVuSans-2e" x="323.730469"/>
      <use xlink:href="#DejaVuSans-32" x="355.517578"/>
      <use xlink:href="#DejaVuSans-34" x="419.140625"/>
      <use xlink:href="#DejaVuSans-37" x="482.763672"/>
      <use xlink:href="#DejaVuSans-65" x="546.386719"/>
      <use xlink:href="#DejaVuSans-2d" x="607.910156"/>
      <use xlink:href="#DejaVuSans-30" x="643.994141"/>
      <use xlink:href="#DejaVuSans-34" x="707.617188"/>
     </g>
    </g>
    <g id="line2d_55">
     <path d="M 451.075 129.715937 
L 461.075 129.715937 
L 471.075 129.715937 
" style="fill: none; stroke: #fdc527; stroke-width: 1.5; stroke-linecap: square"/>
    </g>
    <g id="text_30">
     <!-- k_A=6.730e-04 -->
     <g transform="translate(479.075 133.215937)scale(0.1 -0.1)">
      <use xlink:href="#DejaVuSans-6b"/>
      <use xlink:href="#DejaVuSans-5f" x="57.910156"/>
      <use xlink:href="#DejaVuSans-41" x="107.910156"/>
      <use xlink:href="#DejaVuSans-3d" x="176.318359"/>
      <use xlink:href="#DejaVuSans-36" x="260.107422"/>
      <use xlink:href="#DejaVuSans-2e" x="323.730469"/>
      <use xlink:href="#DejaVuSans-37" x="355.517578"/>
      <use xlink:href="#DejaVuSans-33" x="419.140625"/>
      <use xlink:href="#DejaVuSans-30" x="482.763672"/>
      <use xlink:href="#DejaVuSans-65" x="546.386719"/>
      <use xlink:href="#DejaVuSans-2d" x="607.910156"/>
      <use xlink:href="#DejaVuSans-30" x="643.994141"/>
      <use xlink:href="#DejaVuSans-34" x="707.617188"/>
     </g>
    </g>
    <g id="line2d_56">
     <path d="M 451.075 144.672187 
L 461.075 144.672187 
L 471.075 144.672187 
" style="fill: none; stroke: #f8df25; stroke-width: 1.5; stroke-linecap: square"/>
    </g>
    <g id="text_31">
     <!-- k_A=6.281e-04 -->
     <g transform="translate(479.075 148.172187)scale(0.1 -0.1)">
      <use xlink:href="#DejaVuSans-6b"/>
      <use xlink:href="#DejaVuSans-5f" x="57.910156"/>
      <use xlink:href="#DejaVuSans-41" x="107.910156"/>
      <use xlink:href="#DejaVuSans-3d" x="176.318359"/>
      <use xlink:href="#DejaVuSans-36" x="260.107422"/>
      <use xlink:href="#DejaVuSans-2e" x="323.730469"/>
      <use xlink:href="#DejaVuSans-32" x="355.517578"/>
      <use xlink:href="#DejaVuSans-38" x="419.140625"/>
      <use xlink:href="#DejaVuSans-31" x="482.763672"/>
      <use xlink:href="#DejaVuSans-65" x="546.386719"/>
      <use xlink:href="#DejaVuSans-2d" x="607.910156"/>
      <use xlink:href="#DejaVuSans-30" x="643.994141"/>
      <use xlink:href="#DejaVuSans-34" x="707.617188"/>
     </g>
    </g>
   </g>
  </g>
 </g>
 <defs>
  <clipPath id="pcbcd77a3ce">
   <rect x="47.72" y="26.88" width="517.48" height="219.16"/>
  </clipPath>
 </defs>
</svg>
