<?xml version="1.0" encoding="utf-8" standalone="no"?>
<!DOCTYPE svg PUBLIC "-//W3C//DTD SVG 1.1//EN"
  "http://www.w3.org/Graphics/SVG/1.1/DTD/svg11.dtd">
<svg xmlns:xlink="http://www.w3.org/1999/xlink" width="576pt" height="288pt" viewBox="0 0 576 288" xmlns="http://www.w3.org/2000/svg" version="1.1">
 <metadata>
  <rdf:RDF xmlns:dc="http://purl.org/dc/elements/1.1/" xmlns:cc="http://creativecommons.org/ns#" xmlns:rdf="http://www.w3.org/1999/02/22-rdf-syntax-ns#">
   <cc:Work>
    <dc:type rdf:resource="http://purl.org/dc/dcmitype/StillImage"/>
    <dc:date>2022-08-28T20:26:19.853042</dc:date>
    <dc:format>image/svg+xml</dc:format>
    <dc:creator>
     <cc:Agent>
      <dc:title>Matplotlib v3.5.3, https://matplotlib.org/</dc:title>
     </cc:Agent>
    </dc:creator>
   </cc:Work>
  </rdf:RDF>
 </metadata>
 <defs>
  <style type="text/css">*{stroke-linejoin: round; stroke-linecap: butt}</style>
 </defs>
 <g id="figure_1">
  <g id="patch_1">
   <path d="M 0 288 
L 576 288 
L 576 0 
L 0 0 
z
" style="fill: #ffffff"/>
  </g>
  <g id="axes_1">
   <g id="patch_2">
    <path d="M 47.72 246.04 
L 565.2 246.04 
L 565.2 26.88 
L 47.72 26.88 
z
" style="fill: #ffffff"/>
   </g>
   <g id="matplotlib.axis_1">
    <g id="xtick_1">
     <g id="line2d_1">
      <path d="M 71.241818 246.04 
L 71.241818 26.88 
" clip-path="url(#p96392911cd)" style="fill: none; stroke: #b0b0b0; stroke-width: 0.8; stroke-linecap: square"/>
     </g>
     <g id="line2d_2">
      <defs>
       <path id="mefc3f9ab7f" d="M 0 0 
L 0 3.5 
" style="stroke: #000000; stroke-width: 0.8"/>
      </defs>
      <g>
       <use xlink:href="#mefc3f9ab7f" x="71.241818" y="246.04" style="stroke: #000000; stroke-width: 0.8"/>
      </g>
     </g>
     <g id="text_1">
      <!-- 0 -->
      <g transform="translate(68.060568 260.638438)scale(0.1 -0.1)">
       <defs>
        <path id="DejaVuSans-30" d="M 2034 4250 
Q 1547 4250 1301 3770 
Q 1056 3291 1056 2328 
Q 1056 1369 1301 889 
Q 1547 409 2034 409 
Q 2525 409 2770 889 
Q 3016 1369 3016 2328 
Q 3016 3291 2770 3770 
Q 2525 4250 2034 4250 
z
M 2034 4750 
Q 2819 4750 3233 4129 
Q 3647 3509 3647 2328 
Q 3647 1150 3233 529 
Q 2819 -91 2034 -91 
Q 1250 -91 836 529 
Q 422 1150 422 2328 
Q 422 3509 836 4129 
Q 1250 4750 2034 4750 
z
" transform="scale(0.015625)"/>
       </defs>
       <use xlink:href="#DejaVuSans-30"/>
      </g>
     </g>
    </g>
    <g id="xtick_2">
     <g id="line2d_3">
      <path d="M 165.338501 246.04 
L 165.338501 26.88 
" clip-path="url(#p96392911cd)" style="fill: none; stroke: #b0b0b0; stroke-width: 0.8; stroke-linecap: square"/>
     </g>
     <g id="line2d_4">
      <g>
       <use xlink:href="#mefc3f9ab7f" x="165.338501" y="246.04" style="stroke: #000000; stroke-width: 0.8"/>
      </g>
     </g>
     <g id="text_2">
      <!-- 2000 -->
      <g transform="translate(152.613501 260.638438)scale(0.1 -0.1)">
       <defs>
        <path id="DejaVuSans-32" d="M 1228 531 
L 3431 531 
L 3431 0 
L 469 0 
L 469 531 
Q 828 903 1448 1529 
Q 2069 2156 2228 2338 
Q 2531 2678 2651 2914 
Q 2772 3150 2772 3378 
Q 2772 3750 2511 3984 
Q 2250 4219 1831 4219 
Q 1534 4219 1204 4116 
Q 875 4013 500 3803 
L 500 4441 
Q 881 4594 1212 4672 
Q 1544 4750 1819 4750 
Q 2544 4750 2975 4387 
Q 3406 4025 3406 3419 
Q 3406 3131 3298 2873 
Q 3191 2616 2906 2266 
Q 2828 2175 2409 1742 
Q 1991 1309 1228 531 
z
" transform="scale(0.015625)"/>
       </defs>
       <use xlink:href="#DejaVuSans-32"/>
       <use xlink:href="#DejaVuSans-30" x="63.623047"/>
       <use xlink:href="#DejaVuSans-30" x="127.246094"/>
       <use xlink:href="#DejaVuSans-30" x="190.869141"/>
      </g>
     </g>
    </g>
    <g id="xtick_3">
     <g id="line2d_5">
      <path d="M 259.435183 246.04 
L 259.435183 26.88 
" clip-path="url(#p96392911cd)" style="fill: none; stroke: #b0b0b0; stroke-width: 0.8; stroke-linecap: square"/>
     </g>
     <g id="line2d_6">
      <g>
       <use xlink:href="#mefc3f9ab7f" x="259.435183" y="246.04" style="stroke: #000000; stroke-width: 0.8"/>
      </g>
     </g>
     <g id="text_3">
      <!-- 4000 -->
      <g transform="translate(246.710183 260.638438)scale(0.1 -0.1)">
       <defs>
        <path id="DejaVuSans-34" d="M 2419 4116 
L 825 1625 
L 2419 1625 
L 2419 4116 
z
M 2253 4666 
L 3047 4666 
L 3047 1625 
L 3713 1625 
L 3713 1100 
L 3047 1100 
L 3047 0 
L 2419 0 
L 2419 1100 
L 313 1100 
L 313 1709 
L 2253 4666 
z
" transform="scale(0.015625)"/>
       </defs>
       <use xlink:href="#DejaVuSans-34"/>
       <use xlink:href="#DejaVuSans-30" x="63.623047"/>
       <use xlink:href="#DejaVuSans-30" x="127.246094"/>
       <use xlink:href="#DejaVuSans-30" x="190.869141"/>
      </g>
     </g>
    </g>
    <g id="xtick_4">
     <g id="line2d_7">
      <path d="M 353.531865 246.04 
L 353.531865 26.88 
" clip-path="url(#p96392911cd)" style="fill: none; stroke: #b0b0b0; stroke-width: 0.8; stroke-linecap: square"/>
     </g>
     <g id="line2d_8">
      <g>
       <use xlink:href="#mefc3f9ab7f" x="353.531865" y="246.04" style="stroke: #000000; stroke-width: 0.8"/>
      </g>
     </g>
     <g id="text_4">
      <!-- 6000 -->
      <g transform="translate(340.806865 260.638438)scale(0.1 -0.1)">
       <defs>
        <path id="DejaVuSans-36" d="M 2113 2584 
Q 1688 2584 1439 2293 
Q 1191 2003 1191 1497 
Q 1191 994 1439 701 
Q 1688 409 2113 409 
Q 2538 409 2786 701 
Q 3034 994 3034 1497 
Q 3034 2003 2786 2293 
Q 2538 2584 2113 2584 
z
M 3366 4563 
L 3366 3988 
Q 3128 4100 2886 4159 
Q 2644 4219 2406 4219 
Q 1781 4219 1451 3797 
Q 1122 3375 1075 2522 
Q 1259 2794 1537 2939 
Q 1816 3084 2150 3084 
Q 2853 3084 3261 2657 
Q 3669 2231 3669 1497 
Q 3669 778 3244 343 
Q 2819 -91 2113 -91 
Q 1303 -91 875 529 
Q 447 1150 447 2328 
Q 447 3434 972 4092 
Q 1497 4750 2381 4750 
Q 2619 4750 2861 4703 
Q 3103 4656 3366 4563 
z
" transform="scale(0.015625)"/>
       </defs>
       <use xlink:href="#DejaVuSans-36"/>
       <use xlink:href="#DejaVuSans-30" x="63.623047"/>
       <use xlink:href="#DejaVuSans-30" x="127.246094"/>
       <use xlink:href="#DejaVuSans-30" x="190.869141"/>
      </g>
     </g>
    </g>
    <g id="xtick_5">
     <g id="line2d_9">
      <path d="M 447.628548 246.04 
L 447.628548 26.88 
" clip-path="url(#p96392911cd)" style="fill: none; stroke: #b0b0b0; stroke-width: 0.8; stroke-linecap: square"/>
     </g>
     <g id="line2d_10">
      <g>
       <use xlink:href="#mefc3f9ab7f" x="447.628548" y="246.04" style="stroke: #000000; stroke-width: 0.8"/>
      </g>
     </g>
     <g id="text_5">
      <!-- 8000 -->
      <g transform="translate(434.903548 260.638438)scale(0.1 -0.1)">
       <defs>
        <path id="DejaVuSans-38" d="M 2034 2216 
Q 1584 2216 1326 1975 
Q 1069 1734 1069 1313 
Q 1069 891 1326 650 
Q 1584 409 2034 409 
Q 2484 409 2743 651 
Q 3003 894 3003 1313 
Q 3003 1734 2745 1975 
Q 2488 2216 2034 2216 
z
M 1403 2484 
Q 997 2584 770 2862 
Q 544 3141 544 3541 
Q 544 4100 942 4425 
Q 1341 4750 2034 4750 
Q 2731 4750 3128 4425 
Q 3525 4100 3525 3541 
Q 3525 3141 3298 2862 
Q 3072 2584 2669 2484 
Q 3125 2378 3379 2068 
Q 3634 1759 3634 1313 
Q 3634 634 3220 271 
Q 2806 -91 2034 -91 
Q 1263 -91 848 271 
Q 434 634 434 1313 
Q 434 1759 690 2068 
Q 947 2378 1403 2484 
z
M 1172 3481 
Q 1172 3119 1398 2916 
Q 1625 2713 2034 2713 
Q 2441 2713 2670 2916 
Q 2900 3119 2900 3481 
Q 2900 3844 2670 4047 
Q 2441 4250 2034 4250 
Q 1625 4250 1398 4047 
Q 1172 3844 1172 3481 
z
" transform="scale(0.015625)"/>
       </defs>
       <use xlink:href="#DejaVuSans-38"/>
       <use xlink:href="#DejaVuSans-30" x="63.623047"/>
       <use xlink:href="#DejaVuSans-30" x="127.246094"/>
       <use xlink:href="#DejaVuSans-30" x="190.869141"/>
      </g>
     </g>
    </g>
    <g id="xtick_6">
     <g id="line2d_11">
      <path d="M 541.72523 246.04 
L 541.72523 26.88 
" clip-path="url(#p96392911cd)" style="fill: none; stroke: #b0b0b0; stroke-width: 0.8; stroke-linecap: square"/>
     </g>
     <g id="line2d_12">
      <g>
       <use xlink:href="#mefc3f9ab7f" x="541.72523" y="246.04" style="stroke: #000000; stroke-width: 0.8"/>
      </g>
     </g>
     <g id="text_6">
      <!-- 10000 -->
      <g transform="translate(525.81898 260.638438)scale(0.1 -0.1)">
       <defs>
        <path id="DejaVuSans-31" d="M 794 531 
L 1825 531 
L 1825 4091 
L 703 3866 
L 703 4441 
L 1819 4666 
L 2450 4666 
L 2450 531 
L 3481 531 
L 3481 0 
L 794 0 
L 794 531 
z
" transform="scale(0.015625)"/>
       </defs>
       <use xlink:href="#DejaVuSans-31"/>
       <use xlink:href="#DejaVuSans-30" x="63.623047"/>
       <use xlink:href="#DejaVuSans-30" x="127.246094"/>
       <use xlink:href="#DejaVuSans-30" x="190.869141"/>
       <use xlink:href="#DejaVuSans-30" x="254.492188"/>
      </g>
     </g>
    </g>
    <g id="text_7">
     <!-- Time [sample] -->
     <g transform="translate(270.556875 274.316562)scale(0.1 -0.1)">
      <defs>
       <path id="DejaVuSans-54" d="M -19 4666 
L 3928 4666 
L 3928 4134 
L 2272 4134 
L 2272 0 
L 1638 0 
L 1638 4134 
L -19 4134 
L -19 4666 
z
" transform="scale(0.015625)"/>
       <path id="DejaVuSans-69" d="M 603 3500 
L 1178 3500 
L 1178 0 
L 603 0 
L 603 3500 
z
M 603 4863 
L 1178 4863 
L 1178 4134 
L 603 4134 
L 603 4863 
z
" transform="scale(0.015625)"/>
       <path id="DejaVuSans-6d" d="M 3328 2828 
Q 3544 3216 3844 3400 
Q 4144 3584 4550 3584 
Q 5097 3584 5394 3201 
Q 5691 2819 5691 2113 
L 5691 0 
L 5113 0 
L 5113 2094 
Q 5113 2597 4934 2840 
Q 4756 3084 4391 3084 
Q 3944 3084 3684 2787 
Q 3425 2491 3425 1978 
L 3425 0 
L 2847 0 
L 2847 2094 
Q 2847 2600 2669 2842 
Q 2491 3084 2119 3084 
Q 1678 3084 1418 2786 
Q 1159 2488 1159 1978 
L 1159 0 
L 581 0 
L 581 3500 
L 1159 3500 
L 1159 2956 
Q 1356 3278 1631 3431 
Q 1906 3584 2284 3584 
Q 2666 3584 2933 3390 
Q 3200 3197 3328 2828 
z
" transform="scale(0.015625)"/>
       <path id="DejaVuSans-65" d="M 3597 1894 
L 3597 1613 
L 953 1613 
Q 991 1019 1311 708 
Q 1631 397 2203 397 
Q 2534 397 2845 478 
Q 3156 559 3463 722 
L 3463 178 
Q 3153 47 2828 -22 
Q 2503 -91 2169 -91 
Q 1331 -91 842 396 
Q 353 884 353 1716 
Q 353 2575 817 3079 
Q 1281 3584 2069 3584 
Q 2775 3584 3186 3129 
Q 3597 2675 3597 1894 
z
M 3022 2063 
Q 3016 2534 2758 2815 
Q 2500 3097 2075 3097 
Q 1594 3097 1305 2825 
Q 1016 2553 972 2059 
L 3022 2063 
z
" transform="scale(0.015625)"/>
       <path id="DejaVuSans-20" transform="scale(0.015625)"/>
       <path id="DejaVuSans-5b" d="M 550 4863 
L 1875 4863 
L 1875 4416 
L 1125 4416 
L 1125 -397 
L 1875 -397 
L 1875 -844 
L 550 -844 
L 550 4863 
z
" transform="scale(0.015625)"/>
       <path id="DejaVuSans-73" d="M 2834 3397 
L 2834 2853 
Q 2591 2978 2328 3040 
Q 2066 3103 1784 3103 
Q 1356 3103 1142 2972 
Q 928 2841 928 2578 
Q 928 2378 1081 2264 
Q 1234 2150 1697 2047 
L 1894 2003 
Q 2506 1872 2764 1633 
Q 3022 1394 3022 966 
Q 3022 478 2636 193 
Q 2250 -91 1575 -91 
Q 1294 -91 989 -36 
Q 684 19 347 128 
L 347 722 
Q 666 556 975 473 
Q 1284 391 1588 391 
Q 1994 391 2212 530 
Q 2431 669 2431 922 
Q 2431 1156 2273 1281 
Q 2116 1406 1581 1522 
L 1381 1569 
Q 847 1681 609 1914 
Q 372 2147 372 2553 
Q 372 3047 722 3315 
Q 1072 3584 1716 3584 
Q 2034 3584 2315 3537 
Q 2597 3491 2834 3397 
z
" transform="scale(0.015625)"/>
       <path id="DejaVuSans-61" d="M 2194 1759 
Q 1497 1759 1228 1600 
Q 959 1441 959 1056 
Q 959 750 1161 570 
Q 1363 391 1709 391 
Q 2188 391 2477 730 
Q 2766 1069 2766 1631 
L 2766 1759 
L 2194 1759 
z
M 3341 1997 
L 3341 0 
L 2766 0 
L 2766 531 
Q 2569 213 2275 61 
Q 1981 -91 1556 -91 
Q 1019 -91 701 211 
Q 384 513 384 1019 
Q 384 1609 779 1909 
Q 1175 2209 1959 2209 
L 2766 2209 
L 2766 2266 
Q 2766 2663 2505 2880 
Q 2244 3097 1772 3097 
Q 1472 3097 1187 3025 
Q 903 2953 641 2809 
L 641 3341 
Q 956 3463 1253 3523 
Q 1550 3584 1831 3584 
Q 2591 3584 2966 3190 
Q 3341 2797 3341 1997 
z
" transform="scale(0.015625)"/>
       <path id="DejaVuSans-70" d="M 1159 525 
L 1159 -1331 
L 581 -1331 
L 581 3500 
L 1159 3500 
L 1159 2969 
Q 1341 3281 1617 3432 
Q 1894 3584 2278 3584 
Q 2916 3584 3314 3078 
Q 3713 2572 3713 1747 
Q 3713 922 3314 415 
Q 2916 -91 2278 -91 
Q 1894 -91 1617 61 
Q 1341 213 1159 525 
z
M 3116 1747 
Q 3116 2381 2855 2742 
Q 2594 3103 2138 3103 
Q 1681 3103 1420 2742 
Q 1159 2381 1159 1747 
Q 1159 1113 1420 752 
Q 1681 391 2138 391 
Q 2594 391 2855 752 
Q 3116 1113 3116 1747 
z
" transform="scale(0.015625)"/>
       <path id="DejaVuSans-6c" d="M 603 4863 
L 1178 4863 
L 1178 0 
L 603 0 
L 603 4863 
z
" transform="scale(0.015625)"/>
       <path id="DejaVuSans-5d" d="M 1947 4863 
L 1947 -844 
L 622 -844 
L 622 -397 
L 1369 -397 
L 1369 4416 
L 622 4416 
L 622 4863 
L 1947 4863 
z
" transform="scale(0.015625)"/>
      </defs>
      <use xlink:href="#DejaVuSans-54"/>
      <use xlink:href="#DejaVuSans-69" x="57.958984"/>
      <use xlink:href="#DejaVuSans-6d" x="85.742188"/>
      <use xlink:href="#DejaVuSans-65" x="183.154297"/>
      <use xlink:href="#DejaVuSans-20" x="244.677734"/>
      <use xlink:href="#DejaVuSans-5b" x="276.464844"/>
      <use xlink:href="#DejaVuSans-73" x="315.478516"/>
      <use xlink:href="#DejaVuSans-61" x="367.578125"/>
      <use xlink:href="#DejaVuSans-6d" x="428.857422"/>
      <use xlink:href="#DejaVuSans-70" x="526.269531"/>
      <use xlink:href="#DejaVuSans-6c" x="589.746094"/>
      <use xlink:href="#DejaVuSans-65" x="617.529297"/>
      <use xlink:href="#DejaVuSans-5d" x="679.052734"/>
     </g>
    </g>
   </g>
   <g id="matplotlib.axis_2">
    <g id="ytick_1">
     <g id="line2d_13">
      <path d="M 47.72 236.078182 
L 565.2 236.078182 
" clip-path="url(#p96392911cd)" style="fill: none; stroke: #b0b0b0; stroke-width: 0.8; stroke-linecap: square"/>
     </g>
     <g id="line2d_14">
      <defs>
       <path id="mf3f8e6de7c" d="M 0 0 
L -3.5 0 
" style="stroke: #000000; stroke-width: 0.8"/>
      </defs>
      <g>
       <use xlink:href="#mf3f8e6de7c" x="47.72" y="236.078182" style="stroke: #000000; stroke-width: 0.8"/>
      </g>
     </g>
     <g id="text_8">
      <!-- 0.0 -->
      <g transform="translate(24.816875 239.877401)scale(0.1 -0.1)">
       <defs>
        <path id="DejaVuSans-2e" d="M 684 794 
L 1344 794 
L 1344 0 
L 684 0 
L 684 794 
z
" transform="scale(0.015625)"/>
       </defs>
       <use xlink:href="#DejaVuSans-30"/>
       <use xlink:href="#DejaVuSans-2e" x="63.623047"/>
       <use xlink:href="#DejaVuSans-30" x="95.410156"/>
      </g>
     </g>
    </g>
    <g id="ytick_2">
     <g id="line2d_15">
      <path d="M 47.72 196.230909 
L 565.2 196.230909 
" clip-path="url(#p96392911cd)" style="fill: none; stroke: #b0b0b0; stroke-width: 0.8; stroke-linecap: square"/>
     </g>
     <g id="line2d_16">
      <g>
       <use xlink:href="#mf3f8e6de7c" x="47.72" y="196.230909" style="stroke: #000000; stroke-width: 0.8"/>
      </g>
     </g>
     <g id="text_9">
      <!-- 0.2 -->
      <g transform="translate(24.816875 200.030128)scale(0.1 -0.1)">
       <use xlink:href="#DejaVuSans-30"/>
       <use xlink:href="#DejaVuSans-2e" x="63.623047"/>
       <use xlink:href="#DejaVuSans-32" x="95.410156"/>
      </g>
     </g>
    </g>
    <g id="ytick_3">
     <g id="line2d_17">
      <path d="M 47.72 156.383636 
L 565.2 156.383636 
" clip-path="url(#p96392911cd)" style="fill: none; stroke: #b0b0b0; stroke-width: 0.8; stroke-linecap: square"/>
     </g>
     <g id="line2d_18">
      <g>
       <use xlink:href="#mf3f8e6de7c" x="47.72" y="156.383636" style="stroke: #000000; stroke-width: 0.8"/>
      </g>
     </g>
     <g id="text_10">
      <!-- 0.4 -->
      <g transform="translate(24.816875 160.182855)scale(0.1 -0.1)">
       <use xlink:href="#DejaVuSans-30"/>
       <use xlink:href="#DejaVuSans-2e" x="63.623047"/>
       <use xlink:href="#DejaVuSans-34" x="95.410156"/>
      </g>
     </g>
    </g>
    <g id="ytick_4">
     <g id="line2d_19">
      <path d="M 47.72 116.536364 
L 565.2 116.536364 
" clip-path="url(#p96392911cd)" style="fill: none; stroke: #b0b0b0; stroke-width: 0.8; stroke-linecap: square"/>
     </g>
     <g id="line2d_20">
      <g>
       <use xlink:href="#mf3f8e6de7c" x="47.72" y="116.536364" style="stroke: #000000; stroke-width: 0.8"/>
      </g>
     </g>
     <g id="text_11">
      <!-- 0.6 -->
      <g transform="translate(24.816875 120.335582)scale(0.1 -0.1)">
       <use xlink:href="#DejaVuSans-30"/>
       <use xlink:href="#DejaVuSans-2e" x="63.623047"/>
       <use xlink:href="#DejaVuSans-36" x="95.410156"/>
      </g>
     </g>
    </g>
    <g id="ytick_5">
     <g id="line2d_21">
      <path d="M 47.72 76.689091 
L 565.2 76.689091 
" clip-path="url(#p96392911cd)" style="fill: none; stroke: #b0b0b0; stroke-width: 0.8; stroke-linecap: square"/>
     </g>
     <g id="line2d_22">
      <g>
       <use xlink:href="#mf3f8e6de7c" x="47.72" y="76.689091" style="stroke: #000000; stroke-width: 0.8"/>
      </g>
     </g>
     <g id="text_12">
      <!-- 0.8 -->
      <g transform="translate(24.816875 80.48831)scale(0.1 -0.1)">
       <use xlink:href="#DejaVuSans-30"/>
       <use xlink:href="#DejaVuSans-2e" x="63.623047"/>
       <use xlink:href="#DejaVuSans-38" x="95.410156"/>
      </g>
     </g>
    </g>
    <g id="ytick_6">
     <g id="line2d_23">
      <path d="M 47.72 36.841818 
L 565.2 36.841818 
" clip-path="url(#p96392911cd)" style="fill: none; stroke: #b0b0b0; stroke-width: 0.8; stroke-linecap: square"/>
     </g>
     <g id="line2d_24">
      <g>
       <use xlink:href="#mf3f8e6de7c" x="47.72" y="36.841818" style="stroke: #000000; stroke-width: 0.8"/>
      </g>
     </g>
     <g id="text_13">
      <!-- 1.0 -->
      <g transform="translate(24.816875 40.641037)scale(0.1 -0.1)">
       <use xlink:href="#DejaVuSans-31"/>
       <use xlink:href="#DejaVuSans-2e" x="63.623047"/>
       <use xlink:href="#DejaVuSans-30" x="95.410156"/>
      </g>
     </g>
    </g>
    <g id="text_14">
     <!-- Amplitude -->
     <g transform="translate(18.737187 162.082656)rotate(-90)scale(0.1 -0.1)">
      <defs>
       <path id="DejaVuSans-41" d="M 2188 4044 
L 1331 1722 
L 3047 1722 
L 2188 4044 
z
M 1831 4666 
L 2547 4666 
L 4325 0 
L 3669 0 
L 3244 1197 
L 1141 1197 
L 716 0 
L 50 0 
L 1831 4666 
z
" transform="scale(0.015625)"/>
       <path id="DejaVuSans-74" d="M 1172 4494 
L 1172 3500 
L 2356 3500 
L 2356 3053 
L 1172 3053 
L 1172 1153 
Q 1172 725 1289 603 
Q 1406 481 1766 481 
L 2356 481 
L 2356 0 
L 1766 0 
Q 1100 0 847 248 
Q 594 497 594 1153 
L 594 3053 
L 172 3053 
L 172 3500 
L 594 3500 
L 594 4494 
L 1172 4494 
z
" transform="scale(0.015625)"/>
       <path id="DejaVuSans-75" d="M 544 1381 
L 544 3500 
L 1119 3500 
L 1119 1403 
Q 1119 906 1312 657 
Q 1506 409 1894 409 
Q 2359 409 2629 706 
Q 2900 1003 2900 1516 
L 2900 3500 
L 3475 3500 
L 3475 0 
L 2900 0 
L 2900 538 
Q 2691 219 2414 64 
Q 2138 -91 1772 -91 
Q 1169 -91 856 284 
Q 544 659 544 1381 
z
M 1991 3584 
L 1991 3584 
z
" transform="scale(0.015625)"/>
       <path id="DejaVuSans-64" d="M 2906 2969 
L 2906 4863 
L 3481 4863 
L 3481 0 
L 2906 0 
L 2906 525 
Q 2725 213 2448 61 
Q 2172 -91 1784 -91 
Q 1150 -91 751 415 
Q 353 922 353 1747 
Q 353 2572 751 3078 
Q 1150 3584 1784 3584 
Q 2172 3584 2448 3432 
Q 2725 3281 2906 2969 
z
M 947 1747 
Q 947 1113 1208 752 
Q 1469 391 1925 391 
Q 2381 391 2643 752 
Q 2906 1113 2906 1747 
Q 2906 2381 2643 2742 
Q 2381 3103 1925 3103 
Q 1469 3103 1208 2742 
Q 947 2381 947 1747 
z
" transform="scale(0.015625)"/>
      </defs>
      <use xlink:href="#DejaVuSans-41"/>
      <use xlink:href="#DejaVuSans-6d" x="68.408203"/>
      <use xlink:href="#DejaVuSans-70" x="165.820312"/>
      <use xlink:href="#DejaVuSans-6c" x="229.296875"/>
      <use xlink:href="#DejaVuSans-69" x="257.080078"/>
      <use xlink:href="#DejaVuSans-74" x="284.863281"/>
      <use xlink:href="#DejaVuSans-75" x="324.072266"/>
      <use xlink:href="#DejaVuSans-64" x="387.451172"/>
      <use xlink:href="#DejaVuSans-65" x="450.927734"/>
     </g>
    </g>
   </g>
   <g id="line2d_25">
    <path d="M 71.241818 39.487465 
L 71.524108 235.557361 
L 71.665253 236.071135 
L 72.653268 236.078182 
L 541.678182 236.078182 
L 541.678182 236.078182 
" clip-path="url(#p96392911cd)" style="fill: none; stroke: #0d0887; stroke-width: 1.5; stroke-linecap: square"/>
   </g>
   <g id="line2d_26">
    <path d="M 71.241818 236.056351 
L 71.430012 235.751662 
L 71.712302 234.651051 
L 72.088688 232.022373 
L 72.559172 226.992179 
L 73.1708 217.888551 
L 73.970622 202.45895 
L 75.146831 175.030506 
L 78.487263 94.784588 
L 79.663471 72.899797 
L 80.651486 58.478945 
L 81.498357 49.127599 
L 82.25113 43.116038 
L 82.909807 39.559954 
L 83.427339 37.823007 
L 83.850774 37.055781 
L 84.180112 36.845278 
L 84.462402 36.921475 
L 84.79174 37.296236 
L 85.215176 38.206338 
L 85.732707 39.927147 
L 86.391384 42.992995 
L 87.191206 47.864553 
L 88.226269 55.70226 
L 89.543623 67.533551 
L 91.519653 87.559532 
L 96.318584 136.862714 
L 98.341663 155.002826 
L 100.1295 169.100483 
L 101.82324 180.721323 
L 103.422884 190.192594 
L 104.975479 198.078989 
L 106.481026 204.60456 
L 107.939524 209.98067 
L 109.398023 214.532329 
L 110.856521 218.361675 
L 112.31502 221.564905 
L 113.773519 224.230415 
L 115.232017 226.437875 
L 116.737564 228.310947 
L 118.290159 229.881991 
L 119.889803 231.184545 
L 121.583543 232.27906 
L 123.418429 233.200617 
L 125.441507 233.968319 
L 127.746876 234.60377 
L 130.47568 235.119247 
L 133.816112 235.51638 
L 138.238656 235.804744 
L 144.731327 235.985225 
L 157.105041 236.066961 
L 220.196866 236.078182 
L 541.678182 236.078182 
L 541.678182 236.078182 
" clip-path="url(#p96392911cd)" style="fill: none; stroke: #310597; stroke-width: 1.5; stroke-linecap: square"/>
   </g>
   <g id="line2d_27">
    <path d="M 71.241818 236.072065 
L 71.524108 235.907439 
L 71.853447 235.440804 
L 72.276882 234.414872 
L 72.794413 232.530976 
L 73.45309 229.182679 
L 74.252912 223.799205 
L 75.193879 215.834313 
L 76.370087 203.833516 
L 77.922683 185.463285 
L 80.55739 151.089893 
L 83.568484 112.643338 
L 85.450417 91.429426 
L 87.003012 76.291347 
L 88.414463 64.622 
L 89.684768 55.904444 
L 90.813928 49.587137 
L 91.848992 44.963702 
L 92.789958 41.703491 
L 93.636829 39.510251 
L 94.389602 38.126847 
L 95.048279 37.335636 
L 95.659907 36.936939 
L 96.177439 36.842247 
L 96.694971 36.961219 
L 97.259551 37.324721 
L 97.918228 38.042482 
L 98.671001 39.227983 
L 99.517871 40.994983 
L 100.505886 43.58692 
L 101.682095 47.337709 
L 103.046497 52.47083 
L 104.693189 59.585087 
L 106.716267 69.368771 
L 109.49212 83.98824 
L 119.089981 135.452789 
L 121.95993 149.163108 
L 124.547589 160.473442 
L 126.994103 170.19358 
L 129.34652 178.640013 
L 131.60484 185.936475 
L 133.816112 192.342052 
L 135.980336 197.942832 
L 138.097511 202.824474 
L 140.214686 207.15974 
L 142.331862 210.993871 
L 144.449037 214.371874 
L 146.566212 217.337519 
L 148.730436 219.986388 
L 150.89466 222.290081 
L 153.15298 224.36811 
L 155.458349 226.187822 
L 157.857814 227.800046 
L 160.398425 229.237155 
L 163.08018 230.497707 
L 165.997177 231.618312 
L 169.149416 232.587836 
L 172.630993 233.424332 
L 176.583054 234.141192 
L 181.146743 234.737998 
L 186.604351 235.220699 
L 193.42636 235.59161 
L 202.600787 235.854024 
L 216.668241 236.011543 
L 246.496889 236.073467 
L 519.377268 236.078182 
L 541.678182 236.078182 
L 541.678182 236.078182 
" clip-path="url(#p96392911cd)" style="fill: none; stroke: #4c02a1; stroke-width: 1.5; stroke-linecap: square"/>
   </g>
   <g id="line2d_28">
    <path d="M 71.241818 236.075159 
L 71.665253 235.912652 
L 72.135737 235.449715 
L 72.653268 234.604458 
L 73.264897 233.165304 
L 74.01767 230.767475 
L 74.86454 227.293235 
L 75.899604 222.02473 
L 77.075812 214.830853 
L 78.487263 204.777359 
L 80.2751 190.338656 
L 82.81571 167.797785 
L 88.837898 113.757671 
L 91.096218 95.782542 
L 93.072248 81.7769 
L 94.813037 70.94691 
L 96.412681 62.31681 
L 97.918228 55.37874 
L 99.28263 50.085194 
L 100.552935 45.995926 
L 101.729143 42.915393 
L 102.811255 40.663853 
L 103.79927 39.080016 
L 104.740237 37.975825 
L 105.587107 37.30704 
L 106.386929 36.947612 
L 107.139703 36.841857 
L 107.892476 36.952917 
L 108.692298 37.298763 
L 109.539168 37.909267 
L 110.480135 38.867132 
L 111.562247 40.310364 
L 112.738455 42.263857 
L 114.102857 44.988341 
L 115.655452 48.624296 
L 117.396241 53.290758 
L 119.41932 59.369609 
L 121.865833 67.462468 
L 124.971024 78.555902 
L 129.9111 97.155667 
L 136.827206 123.047578 
L 140.779266 136.958342 
L 144.213795 148.258426 
L 147.413083 158.033061 
L 150.424176 166.53267 
L 153.341174 174.108657 
L 156.164074 180.829071 
L 158.939926 186.866547 
L 161.66873 192.271357 
L 164.350485 197.095768 
L 167.032241 201.464815 
L 169.713996 205.407763 
L 172.395752 208.954742 
L 175.077507 212.135994 
L 177.806311 215.028389 
L 180.582163 217.645126 
L 183.405064 220.00087 
L 186.322061 222.143739 
L 189.333155 224.077871 
L 192.438345 225.810057 
L 195.731729 227.391166 
L 199.213306 228.813173 
L 202.930125 230.088129 
L 206.929234 231.222448 
L 211.30473 232.228922 
L 216.150709 233.110792 
L 221.608317 233.872136 
L 227.865746 234.51437 
L 235.252336 235.041785 
L 244.332665 235.4575 
L 256.141799 235.762773 
L 273.12625 235.961091 
L 303.47243 236.059038 
L 416.247304 236.078164 
L 541.678182 236.078182 
L 541.678182 236.078182 
" clip-path="url(#p96392911cd)" style="fill: none; stroke: #6600a7; stroke-width: 1.5; stroke-linecap: square"/>
   </g>
   <g id="line2d_29">
    <path d="M 71.241818 236.076303 
L 71.75935 235.932336 
L 72.32393 235.520704 
L 72.935558 234.781608 
L 73.641284 233.561084 
L 74.441105 231.720023 
L 75.382072 228.963721 
L 76.464184 225.059557 
L 77.687441 219.786567 
L 79.14594 212.452733 
L 80.83968 202.742344 
L 82.956855 189.223766 
L 85.873852 169.016842 
L 93.495684 115.577943 
L 96.130391 99.009018 
L 98.435759 85.888288 
L 100.505886 75.352258 
L 102.434868 66.66965 
L 104.222705 59.632888 
L 105.869397 54.021466 
L 107.421993 49.492039 
L 108.880491 45.90116 
L 110.244893 43.11226 
L 111.515198 40.998511 
L 112.691407 39.444354 
L 113.820567 38.305414 
L 114.902679 37.527558 
L 115.937742 37.060578 
L 116.925757 36.858251 
L 117.913773 36.884597 
L 118.901788 37.130436 
L 119.936851 37.613217 
L 121.066012 38.390138 
L 122.289268 39.510422 
L 123.65367 41.08016 
L 125.159217 43.175097 
L 126.805909 45.864278 
L 128.640794 49.29987 
L 130.710921 53.662617 
L 133.110387 59.266004 
L 135.886239 66.337432 
L 139.320768 75.730723 
L 144.119699 89.56965 
L 155.975881 123.998416 
L 160.492521 136.288017 
L 164.49163 146.536392 
L 168.208449 155.45962 
L 171.737075 163.362603 
L 175.124556 170.416596 
L 178.417939 176.774235 
L 181.664275 182.566005 
L 184.863562 187.825445 
L 188.015801 192.588641 
L 191.16804 196.955032 
L 194.320279 200.945437 
L 197.472518 204.581877 
L 200.671805 207.933921 
L 203.871092 210.968472 
L 207.164476 213.785465 
L 210.504908 216.350183 
L 213.939437 218.706319 
L 217.468063 220.857544 
L 221.137833 222.833379 
L 224.948749 224.632487 
L 228.947858 226.274527 
L 233.182209 227.77169 
L 237.698849 229.130567 
L 242.544828 230.353949 
L 247.814243 231.451401 
L 253.601189 232.424981 
L 260.046811 233.278286 
L 267.339304 234.012964 
L 275.760957 234.63091 
L 285.782254 235.135079 
L 298.203016 235.527357 
L 314.622887 235.810384 
L 338.993928 235.988003 
L 385.995221 236.067627 
L 541.678182 236.078175 
L 541.678182 236.078175 
" clip-path="url(#p96392911cd)" style="fill: none; stroke: #7e03a8; stroke-width: 1.5; stroke-linecap: square"/>
   </g>
   <g id="line2d_30">
    <path d="M 71.241818 236.076859 
L 71.853447 235.940101 
L 72.512123 235.547932 
L 73.217849 234.852597 
L 74.01767 233.730827 
L 74.911589 232.07357 
L 75.946652 229.648925 
L 77.122861 226.277017 
L 78.440214 221.785737 
L 79.945761 215.825795 
L 81.68655 207.986042 
L 83.756677 197.583853 
L 86.344336 183.36833 
L 90.2023 160.778581 
L 96.647922 123.066802 
L 99.800161 106.021975 
L 102.481917 92.710301 
L 104.881382 81.888937 
L 107.092654 72.909903 
L 109.162781 65.410173 
L 111.091763 59.229461 
L 112.926648 54.07871 
L 114.667437 49.84587 
L 116.314129 46.420232 
L 117.866724 43.695569 
L 119.325223 41.572149 
L 120.689625 39.957905 
L 122.006978 38.730663 
L 123.277284 37.845834 
L 124.50054 37.261592 
L 125.676749 36.938967 
L 126.852957 36.842226 
L 128.029166 36.962679 
L 129.252423 37.308809 
L 130.569776 37.92193 
L 131.934178 38.806429 
L 133.439725 40.060123 
L 135.039369 41.690694 
L 136.780157 43.788529 
L 138.709139 46.472836 
L 140.826315 49.81015 
L 143.178732 53.940417 
L 145.860487 59.111557 
L 148.965678 65.601889 
L 152.682497 73.908479 
L 157.575524 85.424822 
L 175.359797 127.777131 
L 180.158728 138.366881 
L 184.534224 147.497546 
L 188.674478 155.630107 
L 192.626538 162.909975 
L 196.437454 169.473986 
L 200.201321 175.517412 
L 203.871092 180.994937 
L 207.493814 186.010395 
L 211.116537 190.649527 
L 214.739259 194.927698 
L 218.361981 198.86202 
L 221.984703 202.470768 
L 225.654474 205.813849 
L 229.371293 208.899552 
L 233.13516 211.73752 
L 236.993124 214.368978 
L 240.945185 216.796314 
L 245.038391 219.048246 
L 249.272741 221.12254 
L 253.695285 223.038704 
L 258.306023 224.792373 
L 263.152002 226.396967 
L 268.327319 227.873158 
L 273.831975 229.209259 
L 279.760066 230.416731 
L 286.205689 231.499699 
L 293.309989 232.463546 
L 301.21411 233.306923 
L 310.153295 234.032626 
L 320.50393 234.644434 
L 332.877644 235.145194 
L 348.215403 235.533944 
L 368.587335 235.814695 
L 398.933515 235.990206 
L 457.979183 236.068195 
L 541.678182 236.077752 
L 541.678182 236.077752 
" clip-path="url(#p96392911cd)" style="fill: none; stroke: #9511a1; stroke-width: 1.5; stroke-linecap: square"/>
   </g>
   <g id="line2d_31">
    <path d="M 71.241818 236.077176 
L 71.947543 235.942306 
L 72.700317 235.554672 
L 73.500139 234.874143 
L 74.394057 233.796323 
L 75.382072 232.230676 
L 76.464184 230.086687 
L 77.687441 227.155071 
L 79.051843 223.296569 
L 80.604438 218.221601 
L 82.392275 211.583338 
L 84.462402 203.000569 
L 86.955964 191.656324 
L 90.155251 175.994743 
L 103.328787 110.287543 
L 106.339881 97.047632 
L 109.021636 86.228412 
L 111.515198 77.076306 
L 113.820567 69.439032 
L 115.984791 63.013011 
L 118.054918 57.549981 
L 119.9839 53.06228 
L 121.818785 49.329485 
L 123.606622 46.18821 
L 125.300362 43.655145 
L 126.900006 41.649384 
L 128.452601 40.052373 
L 129.9111 38.857082 
L 131.32255 37.973061 
L 132.734 37.348627 
L 134.098402 36.983331 
L 135.462804 36.843822 
L 136.874254 36.927913 
L 138.285704 37.234633 
L 139.791251 37.796029 
L 141.343847 38.615628 
L 142.990539 39.737178 
L 144.778375 41.230709 
L 146.707357 43.141558 
L 148.777484 45.510074 
L 151.082853 48.498801 
L 153.623464 52.173919 
L 156.446364 56.664804 
L 159.645651 62.189898 
L 163.36247 69.07225 
L 167.926159 78.018777 
L 174.371782 91.195866 
L 188.345139 119.868959 
L 194.132085 131.158326 
L 199.260355 140.682581 
L 204.012237 149.043198 
L 208.528878 156.542873 
L 212.857325 163.304853 
L 217.091676 169.510825 
L 221.23193 175.188197 
L 225.325136 180.426499 
L 229.371293 185.247158 
L 233.41745 189.723665 
L 237.463608 193.869258 
L 241.509765 197.698679 
L 245.602971 201.267033 
L 249.743225 204.581007 
L 253.930527 207.64869 
L 258.211926 210.509309 
L 262.587422 213.164685 
L 267.057014 215.618368 
L 271.667752 217.897479 
L 276.466682 220.021128 
L 281.453807 221.984253 
L 286.676173 223.799988 
L 292.180828 225.476377 
L 298.014823 227.017578 
L 304.225204 228.425061 
L 310.85902 229.698782 
L 318.057416 230.852004 
L 325.914489 231.882797 
L 334.618432 232.796702 
L 344.404487 233.595376 
L 355.554944 234.276962 
L 368.634383 234.846734 
L 384.442626 235.30428 
L 404.532267 235.652177 
L 432.149644 235.892593 
L 476.422133 236.030136 
L 541.678182 236.071827 
L 541.678182 236.071827 
" clip-path="url(#p96392911cd)" style="fill: none; stroke: #aa2395; stroke-width: 1.5; stroke-linecap: square"/>
   </g>
   <g id="line2d_32">
    <path d="M 71.241818 236.077376 
L 72.04164 235.941417 
L 72.841462 235.578283 
L 73.73538 234.910872 
L 74.676347 233.919627 
L 75.711411 232.500497 
L 76.887619 230.489449 
L 78.204973 227.763139 
L 79.663471 224.202583 
L 81.310163 219.558861 
L 83.145049 213.691455 
L 85.262224 206.14167 
L 87.755786 196.376762 
L 90.813928 183.445591 
L 95.189424 163.876301 
L 103.79927 125.252903 
L 107.516089 109.718662 
L 110.715376 97.285676 
L 113.585325 87.003087 
L 116.220032 78.359167 
L 118.713594 70.920119 
L 121.066012 64.584929 
L 123.277284 59.243928 
L 125.394459 54.690171 
L 127.417538 50.848302 
L 129.34652 47.643676 
L 131.228453 44.941527 
L 133.01629 42.754687 
L 134.757079 40.972812 
L 136.403771 39.59437 
L 138.003414 38.532999 
L 139.603058 37.736856 
L 141.155653 37.209432 
L 142.708248 36.91518 
L 144.260844 36.84544 
L 145.860487 36.999039 
L 147.507179 37.385854 
L 149.20092 38.014399 
L 150.988757 38.918573 
L 152.87069 40.12222 
L 154.893769 41.685902 
L 157.057993 43.645875 
L 159.41041 46.08535 
L 161.95102 49.047485 
L 164.726872 52.630054 
L 167.832063 57.010459 
L 171.31364 62.316422 
L 175.359797 68.90343 
L 180.252825 77.314684 
L 186.980738 89.362189 
L 204.153382 120.290533 
L 210.363763 130.910755 
L 215.915467 139.97104 
L 221.090785 147.994871 
L 225.983812 155.177386 
L 230.735695 161.761871 
L 235.346432 167.776166 
L 239.910121 173.36524 
L 244.379714 178.49197 
L 248.849306 183.282202 
L 253.27185 187.700149 
L 257.741443 191.851212 
L 262.211035 195.699676 
L 266.727676 199.295576 
L 271.291365 202.645153 
L 275.902102 205.755939 
L 280.606937 208.664335 
L 285.452916 211.397751 
L 290.392991 213.929778 
L 295.521261 216.307212 
L 300.790675 218.505399 
L 306.295331 220.560025 
L 312.035228 222.464063 
L 318.057416 224.226453 
L 324.408942 225.852428 
L 331.183903 227.35421 
L 338.3823 228.720124 
L 346.145276 229.964501 
L 354.566929 231.086553 
L 363.835452 232.092826 
L 374.09199 232.978584 
L 385.665882 233.750014 
L 398.933515 234.40621 
L 414.600612 234.951398 
L 433.702239 235.38503 
L 458.308521 235.709908 
L 492.983149 235.928667 
L 541.678182 236.036677 
L 541.678182 236.036677 
" clip-path="url(#p96392911cd)" style="fill: none; stroke: #bc3587; stroke-width: 1.5; stroke-linecap: square"/>
   </g>
   <g id="line2d_33">
    <path d="M 71.241818 236.077512 
L 72.088688 235.951819 
L 72.982607 235.589627 
L 73.923574 234.960898 
L 74.958637 233.985901 
L 76.087797 232.597076 
L 77.311054 230.727707 
L 78.675456 228.220466 
L 80.181003 224.972552 
L 81.874743 220.765572 
L 83.756677 215.474912 
L 85.920901 208.692223 
L 88.414463 200.104594 
L 91.378508 189.06033 
L 95.236472 173.77125 
L 109.445071 116.636759 
L 113.020745 103.619992 
L 116.220032 92.796 
L 119.13703 83.688382 
L 121.865833 75.873941 
L 124.453492 69.12134 
L 126.900006 63.340335 
L 129.252423 58.340856 
L 131.510743 54.057797 
L 133.674967 50.424941 
L 135.745094 47.376803 
L 137.721124 44.849942 
L 139.650106 42.73642 
L 141.53204 41.002737 
L 143.319877 39.648161 
L 145.107714 38.570336 
L 146.848502 37.778628 
L 148.589291 37.232827 
L 150.33008 36.924259 
L 152.070868 36.843983 
L 153.858705 36.989551 
L 155.693591 37.368716 
L 157.575524 37.98793 
L 159.551555 38.876147 
L 161.621682 40.053339 
L 163.832954 41.571962 
L 166.185371 43.462677 
L 168.725981 45.797653 
L 171.454785 48.613453 
L 174.465879 52.051277 
L 177.759263 56.159247 
L 181.429033 61.100938 
L 185.616336 67.122401 
L 190.60346 74.699711 
L 197.049083 84.924736 
L 222.172897 125.19949 
L 228.430326 134.578236 
L 234.170224 142.788858 
L 239.580783 150.148289 
L 244.803149 156.881432 
L 249.88437 163.072834 
L 254.871494 168.800571 
L 259.764521 174.085001 
L 264.610501 178.995607 
L 269.45648 183.591708 
L 274.302459 187.882395 
L 279.148438 191.87842 
L 284.041465 195.626495 
L 288.981541 199.131768 
L 294.015714 202.430304 
L 299.096935 205.495324 
L 304.3193 208.385511 
L 309.635763 211.074725 
L 315.140419 213.609006 
L 320.78622 215.9638 
L 326.667263 218.174714 
L 332.783547 220.234769 
L 339.182121 222.153025 
L 345.910034 223.934853 
L 352.967285 225.572649 
L 360.49502 227.08887 
L 368.540286 228.479008 
L 377.197181 229.745316 
L 386.559801 230.886975 
L 396.816339 231.910339 
L 408.202038 232.818466 
L 420.999187 233.61091 
L 435.631221 234.288631 
L 452.803865 234.854568 
L 473.599232 235.309167 
L 500.087448 235.654931 
L 536.644009 235.894089 
L 541.678182 235.914137 
L 541.678182 235.914137 
" clip-path="url(#p96392911cd)" style="fill: none; stroke: #cc4778; stroke-width: 1.5; stroke-linecap: square"/>
   </g>
   <g id="line2d_34">
    <path d="M 71.241818 236.077608 
L 72.182785 235.946842 
L 73.123752 235.593042 
L 74.158815 234.953986 
L 75.240927 234.015604 
L 76.417136 232.694869 
L 77.734489 230.861362 
L 79.14594 228.504855 
L 80.745583 225.377091 
L 82.486372 221.466306 
L 84.415354 216.57626 
L 86.626626 210.338182 
L 89.120188 202.61718 
L 92.084233 192.683164 
L 95.801052 179.39509 
L 101.635047 157.583748 
L 109.20983 129.432263 
L 113.491229 114.384606 
L 117.160999 102.278345 
L 120.454383 92.158791 
L 123.512525 83.462662 
L 126.382474 75.956258 
L 129.111278 69.430728 
L 131.698937 63.8063 
L 134.192499 58.911002 
L 136.591964 54.687216 
L 138.897333 51.076152 
L 141.108605 48.019426 
L 143.22578 45.460206 
L 145.295907 43.298589 
L 147.318986 41.504194 
L 149.295016 40.047327 
L 151.223998 38.899217 
L 153.105932 38.032207 
L 154.987866 37.407131 
L 156.869799 37.015686 
L 158.751733 36.849297 
L 160.680715 36.90312 
L 162.656745 37.183787 
L 164.679824 37.696744 
L 166.796999 38.465773 
L 169.008271 39.50866 
L 171.360688 40.870633 
L 173.85425 42.579322 
L 176.488957 44.658581 
L 179.311858 47.171959 
L 182.37 50.195783 
L 185.710432 53.816207 
L 189.427251 58.182423 
L 193.567505 63.397949 
L 198.366436 69.814238 
L 204.153382 77.940575 
L 212.104552 89.522038 
L 231.582565 118.027991 
L 238.875058 128.219819 
L 245.320681 136.854274 
L 251.342868 144.555422 
L 257.082766 151.538464 
L 262.63447 157.945167 
L 268.045029 163.852414 
L 273.361492 169.330872 
L 278.630906 174.443463 
L 283.853272 179.203176 
L 289.075638 183.66392 
L 294.298004 187.834452 
L 299.567418 191.758797 
L 304.883881 195.4411 
L 310.247391 198.886895 
L 315.704999 202.129748 
L 321.256703 205.170977 
L 326.949553 208.035965 
L 332.783547 210.722841 
L 338.805735 213.25027 
L 345.016116 215.614367 
L 351.461738 217.828647 
L 358.142603 219.888451 
L 365.152806 221.815934 
L 372.492347 223.60261 
L 380.255323 225.262114 
L 388.488783 226.793085 
L 397.286823 228.200617 
L 406.743539 229.48572 
L 417.000078 230.651834 
L 428.197583 231.697941 
L 440.571297 232.627322 
L 454.450557 233.442703 
L 470.305848 234.145838 
L 488.795846 234.736435 
L 511.002663 235.215466 
L 538.949378 235.585645 
L 541.678182 235.611994 
L 541.678182 235.611994 
" clip-path="url(#p96392911cd)" style="fill: none; stroke: #da5a6a; stroke-width: 1.5; stroke-linecap: square"/>
   </g>
   <g id="line2d_35">
    <path d="M 71.241818 236.07768 
L 72.229833 235.952443 
L 73.264897 235.590974 
L 74.347009 234.969034 
L 75.523217 234.020252 
L 76.793522 232.689736 
L 78.157924 230.924096 
L 79.663471 228.594302 
L 81.310163 225.618569 
L 83.145049 221.818898 
L 85.168127 217.095521 
L 87.426448 211.239415 
L 90.014106 203.88383 
L 93.0252 194.621919 
L 96.694971 182.57961 
L 101.964385 164.443676 
L 112.267972 128.882989 
L 116.690516 114.504719 
L 120.501431 102.848996 
L 123.93596 93.035867 
L 127.135248 84.547681 
L 130.146341 77.171903 
L 133.01629 70.717903 
L 135.745094 65.115248 
L 138.379801 60.205501 
L 140.920411 55.937307 
L 143.366925 52.257881 
L 145.719342 49.114438 
L 147.977663 46.455258 
L 150.188935 44.185557 
L 152.353158 42.27736 
L 154.470334 40.703168 
L 156.540461 39.436201 
L 158.610588 38.430567 
L 160.633666 37.692375 
L 162.656745 37.18785 
L 164.679824 36.908665 
L 166.749951 36.847329 
L 168.867126 37.009646 
L 171.03135 37.400315 
L 173.28967 38.038493 
L 175.642087 38.940376 
L 178.088601 40.120111 
L 180.67626 41.618999 
L 183.405064 43.459438 
L 186.322061 45.698264 
L 189.4743 48.40459 
L 192.86178 51.610915 
L 196.578599 55.441703 
L 200.671805 59.985621 
L 205.329591 65.499714 
L 210.74015 72.264088 
L 217.421014 80.99113 
L 227.677553 94.803914 
L 242.403683 114.587242 
L 250.495998 125.071294 
L 257.553249 133.856754 
L 264.04592 141.591146 
L 270.209253 148.59393 
L 276.184392 155.049585 
L 282.018387 161.026442 
L 287.711236 166.543914 
L 293.357037 171.708802 
L 298.95579 176.531929 
L 304.554542 181.063205 
L 310.153295 185.310194 
L 315.799096 189.314238 
L 321.491945 193.079017 
L 327.231843 196.6096 
L 333.065837 199.93806 
L 338.993928 203.065719 
L 345.063164 206.017174 
L 351.273545 208.790835 
L 357.672119 211.405066 
L 364.258887 213.856367 
L 371.080897 216.158228 
L 378.185196 218.319895 
L 385.618834 220.347075 
L 393.38181 222.231895 
L 401.568222 223.988456 
L 410.225117 225.615899 
L 419.399543 227.112683 
L 429.232646 228.489434 
L 439.818523 229.74462 
L 451.345367 230.883931 
L 463.954322 231.903413 
L 477.974728 232.809583 
L 493.735922 233.600551 
L 511.802485 234.278843 
L 532.974239 234.844755 
L 541.678182 235.022936 
L 541.678182 235.022936 
" clip-path="url(#p96392911cd)" style="fill: none; stroke: #e66c5c; stroke-width: 1.5; stroke-linecap: square"/>
   </g>
   <g id="line2d_36">
    <path d="M 71.241818 236.077736 
L 72.276882 235.956194 
L 73.358994 235.60524 
L 74.488154 235.002881 
L 75.711411 234.088141 
L 77.028764 232.810904 
L 78.440214 231.122559 
L 79.99281 228.904738 
L 81.68655 226.082818 
L 83.568484 222.493347 
L 85.638611 218.044513 
L 87.943979 212.542854 
L 90.531638 205.77587 
L 93.542732 197.252824 
L 97.165454 186.292924 
L 101.964385 171.009363 
L 116.549371 124.098975 
L 120.877818 111.17448 
L 124.735782 100.342049 
L 128.264408 91.087595 
L 131.557792 83.064411 
L 134.662982 76.073839 
L 137.627028 69.939203 
L 140.449928 64.595357 
L 143.178732 59.896473 
L 145.813439 55.795598 
L 148.354049 52.244682 
L 150.800563 49.195767 
L 153.200029 46.553337 
L 155.552446 44.290961 
L 157.857814 42.382311 
L 160.116135 40.801449 
L 162.327407 39.523053 
L 164.49163 38.522599 
L 166.655854 37.762458 
L 168.820078 37.234618 
L 171.03135 36.926612 
L 173.242622 36.843397 
L 175.500942 36.980816 
L 177.806311 37.342624 
L 180.205776 37.945459 
L 182.699338 38.803659 
L 185.286997 39.929648 
L 188.015801 41.360425 
L 190.932798 43.146811 
L 194.037989 45.317285 
L 197.331373 47.895447 
L 200.907047 50.984044 
L 204.765011 54.615338 
L 209.04641 58.95892 
L 213.84534 64.155646 
L 219.349996 70.456287 
L 226.030861 78.45827 
L 235.299384 89.938241 
L 256.094751 115.784539 
L 264.422307 125.717493 
L 271.808897 134.186651 
L 278.677955 141.726644 
L 285.217674 148.576843 
L 291.522152 154.861463 
L 297.685484 160.693868 
L 303.75472 166.132746 
L 309.776908 171.23109 
L 315.752047 175.999025 
L 321.727187 180.48298 
L 327.702326 184.690256 
L 333.724514 188.659586 
L 339.79375 192.394816 
L 345.957082 195.927081 
L 352.214512 199.256968 
L 358.613086 202.408707 
L 365.152806 205.380238 
L 371.83367 208.171073 
L 378.702728 210.799397 
L 385.807027 213.278604 
L 393.146569 215.603738 
L 400.7684 217.784716 
L 408.71957 219.828142 
L 417.047126 221.737953 
L 425.798117 223.516063 
L 435.066641 225.17086 
L 444.899744 226.698997 
L 455.438572 228.109094 
L 466.777223 229.398575 
L 479.05684 230.56806 
L 492.512665 231.622206 
L 507.379941 232.559626 
L 524.035054 233.38244 
L 541.678182 234.048953 
L 541.678182 234.048953 
" clip-path="url(#p96392911cd)" style="fill: none; stroke: #f0804e; stroke-width: 1.5; stroke-linecap: square"/>
   </g>
   <g id="line2d_37">
    <path d="M 71.241818 236.077779 
L 72.370978 235.948695 
L 73.500139 235.595248 
L 74.676347 234.996535 
L 75.946652 234.095606 
L 77.311054 232.846311 
L 78.769553 231.204053 
L 80.369196 229.058871 
L 82.109985 226.342248 
L 84.038967 222.902568 
L 86.156142 218.65516 
L 88.508559 213.419857 
L 91.143267 206.997678 
L 94.15436 199.056364 
L 97.730034 188.976112 
L 102.340772 175.267529 
L 120.971915 119.10847 
L 125.206266 107.455368 
L 129.06423 97.476952 
L 132.639903 88.838535 
L 135.980336 81.338462 
L 139.179623 74.69623 
L 142.237765 68.856424 
L 145.154762 63.757797 
L 147.977663 59.265108 
L 150.706466 55.33466 
L 153.341174 51.921958 
L 155.928832 48.931508 
L 158.422394 46.38331 
L 160.868908 44.195292 
L 163.268374 42.343056 
L 165.620791 40.802574 
L 167.973208 39.527435 
L 170.278576 38.527695 
L 172.583945 37.767516 
L 174.889314 37.238815 
L 177.241731 36.929272 
L 179.594148 36.842973 
L 181.993613 36.975341 
L 184.487175 37.338144 
L 187.027786 37.932435 
L 189.709541 38.792673 
L 192.485393 39.920472 
L 195.402391 41.349217 
L 198.460533 43.096324 
L 201.706868 45.208303 
L 205.188446 47.742073 
L 208.952313 50.762991 
L 213.045519 54.342288 
L 217.515111 58.553637 
L 222.502235 63.565964 
L 228.195084 69.611381 
L 235.017094 77.192235 
L 244.238569 87.798005 
L 269.45648 116.963831 
L 278.019278 126.429711 
L 285.688157 134.581013 
L 292.839505 141.862859 
L 299.708563 148.542541 
L 306.342379 154.686385 
L 312.83505 160.399613 
L 319.233625 165.736744 
L 325.585151 170.747105 
L 331.936677 175.474153 
L 338.288203 179.923239 
L 344.639729 184.101482 
L 351.038303 188.045441 
L 357.530974 191.785316 
L 364.070694 195.296569 
L 370.751558 198.630923 
L 377.573568 201.785658 
L 384.536722 204.759597 
L 391.68807 207.570738 
L 399.027611 210.216214 
L 406.602394 212.709614 
L 414.459467 215.060629 
L 422.59883 217.263545 
L 431.11458 219.336588 
L 440.006716 221.271409 
L 449.369336 223.079656 
L 459.249488 224.759935 
L 469.741268 226.316984 
L 480.938773 227.75208 
L 492.983149 229.069008 
L 506.015539 230.267425 
L 520.271187 231.351201 
L 535.985333 232.318639 
L 541.678182 232.619133 
L 541.678182 232.619133 
" clip-path="url(#p96392911cd)" style="fill: none; stroke: #f89540; stroke-width: 1.5; stroke-linecap: square"/>
   </g>
   <g id="line2d_38">
    <path d="M 71.241818 236.077814 
L 72.418027 235.950607 
L 73.594235 235.60148 
L 74.86454 234.98393 
L 76.181894 234.08997 
L 77.593344 232.858258 
L 79.098891 231.24754 
L 80.745583 229.154748 
L 82.53342 226.516488 
L 84.50945 223.190959 
L 86.673674 219.099659 
L 89.073139 214.073752 
L 91.754895 207.926099 
L 94.813037 200.342729 
L 98.435759 190.735756 
L 102.9524 178.091757 
L 110.386038 156.509976 
L 118.666546 132.671536 
L 123.747767 118.717286 
L 128.123263 107.336634 
L 132.075323 97.664816 
L 135.745094 89.259907 
L 139.226671 81.836076 
L 142.520055 75.329427 
L 145.672294 69.585066 
L 148.683388 64.546731 
L 151.600385 60.086991 
L 154.423285 56.165652 
L 157.199138 52.685803 
L 159.880893 49.674293 
L 162.5156 47.045944 
L 165.103259 44.777357 
L 167.643869 42.845152 
L 170.137431 41.226214 
L 172.583945 39.897894 
L 175.030459 38.819745 
L 177.476973 37.98398 
L 179.923486 37.38248 
L 182.37 37.00685 
L 184.863562 36.847513 
L 187.404173 36.907695 
L 189.991831 37.189656 
L 192.673587 37.705626 
L 195.449439 38.467156 
L 198.366436 39.5026 
L 201.37753 40.808593 
L 204.576817 42.442137 
L 207.964298 44.427034 
L 211.539972 46.782929 
L 215.397936 49.59646 
L 219.53819 52.895432 
L 224.05483 56.782877 
L 229.089003 61.417803 
L 234.734804 66.926073 
L 241.36862 73.720584 
L 249.743225 82.636017 
L 264.563452 98.807746 
L 278.254519 113.609288 
L 287.664188 123.455367 
L 295.897647 131.754669 
L 303.566527 139.172715 
L 310.85902 145.920134 
L 317.916271 152.149058 
L 324.785329 157.918565 
L 331.56029 163.321386 
L 338.288203 168.403396 
L 344.969067 173.172728 
L 351.649932 177.670342 
L 358.377845 181.931367 
L 365.152806 185.958093 
L 371.974815 189.754276 
L 378.890921 193.348527 
L 385.901124 196.741974 
L 393.052472 199.957362 
L 400.392013 203.01242 
L 407.872699 205.885651 
L 415.588627 208.610642 
L 423.539797 211.182184 
L 431.773257 213.610158 
L 440.336055 215.901244 
L 449.228191 218.048682 
L 458.543763 220.067406 
L 468.28277 221.948988 
L 478.539308 223.703121 
L 489.407475 225.334834 
L 500.981367 226.845645 
L 513.35508 228.234702 
L 526.716809 229.508149 
L 541.207698 230.662986 
L 541.678182 230.69697 
L 541.678182 230.69697 
" clip-path="url(#p96392911cd)" style="fill: none; stroke: #fdac33; stroke-width: 1.5; stroke-linecap: square"/>
   </g>
   <g id="line2d_39">
    <path d="M 71.241818 236.077843 
L 72.465075 235.951641 
L 73.73538 235.586876 
L 75.052734 234.966318 
L 76.417136 234.074021 
L 77.875634 232.851912 
L 79.475278 231.208892 
L 81.169018 229.144001 
L 83.050952 226.483484 
L 85.07403 223.226563 
L 87.285303 219.238636 
L 89.731816 214.360768 
L 92.507668 208.309901 
L 95.659907 200.879236 
L 99.329678 191.63399 
L 103.893367 179.500174 
L 110.950618 160.017407 
L 120.54848 133.632891 
L 125.817894 119.812149 
L 130.334535 108.572499 
L 134.42774 98.969232 
L 138.238656 90.584843 
L 141.81433 83.242195 
L 145.248859 76.690134 
L 148.542243 70.882146 
L 151.694482 65.766173 
L 154.752624 61.220483 
L 157.716669 57.207406 
L 160.586618 53.68822 
L 163.409519 50.574954 
L 166.138322 47.889119 
L 168.820078 45.55414 
L 171.454785 43.548097 
L 174.089492 41.820815 
L 176.677151 40.388691 
L 179.26481 39.211061 
L 181.852468 38.280101 
L 184.440127 37.587632 
L 187.027786 37.125187 
L 189.662493 36.881679 
L 192.344248 36.859788 
L 195.073052 37.061246 
L 197.895953 37.495896 
L 200.81295 38.174366 
L 203.824044 39.105605 
L 206.976283 40.316542 
L 210.269666 41.822471 
L 213.751244 43.662345 
L 217.421014 45.855021 
L 221.373075 48.480543 
L 225.607426 51.566092 
L 230.218163 55.208202 
L 235.252336 59.474015 
L 240.898137 64.557211 
L 247.390808 70.71244 
L 255.247881 78.481454 
L 266.304241 89.756374 
L 289.452025 113.420009 
L 299.23808 123.057355 
L 307.847926 131.229896 
L 315.846144 138.520453 
L 323.467975 145.171767 
L 330.854565 151.326358 
L 338.100009 157.075674 
L 345.251357 162.466715 
L 352.308608 167.509928 
L 359.36586 172.280151 
L 366.423111 176.781663 
L 373.480362 181.020534 
L 380.584662 185.02997 
L 387.783058 188.837756 
L 395.075551 192.444022 
L 402.509189 195.87115 
L 410.083971 199.117305 
L 417.799899 202.182052 
L 425.704021 205.082845 
L 433.843384 207.832993 
L 442.265037 210.442126 
L 450.96898 212.903962 
L 460.002261 215.225755 
L 469.364881 217.401833 
L 479.150936 219.447377 
L 489.407475 221.36333 
L 500.228593 223.156921 
L 511.66134 224.824795 
L 523.846861 226.375043 
L 536.832203 227.800664 
L 541.678182 228.279117 
L 541.678182 228.279117 
" clip-path="url(#p96392911cd)" style="fill: none; stroke: #fdc527; stroke-width: 1.5; stroke-linecap: square"/>
   </g>
   <g id="line2d_40">
    <path d="M 71.241818 236.077867 
L 72.512123 235.95198 
L 73.782429 235.605064 
L 75.146831 234.995434 
L 76.558281 234.116984 
L 78.063828 232.91484 
L 79.71052 231.302648 
L 81.451308 229.280107 
L 83.333242 226.749984 
L 85.403369 223.585839 
L 87.661689 219.719069 
L 90.155251 214.999005 
L 92.931103 209.257961 
L 96.083342 202.212276 
L 99.753113 193.443211 
L 104.222705 182.159776 
L 110.62128 165.342239 
L 122.853848 133.128726 
L 128.217359 119.698349 
L 132.828097 108.735867 
L 137.015399 99.338322 
L 140.920411 91.107574 
L 144.63723 83.786188 
L 148.165856 77.32004 
L 151.553337 71.569887 
L 154.799672 66.487126 
L 157.951911 61.955682 
L 161.010053 57.940301 
L 164.021147 54.351343 
L 166.938144 51.216242 
L 169.808093 48.455375 
L 172.630993 46.047541 
L 175.406846 43.971404 
L 178.135649 42.205741 
L 180.817405 40.729634 
L 183.49916 39.503222 
L 186.180916 38.518963 
L 188.862671 37.76897 
L 191.591475 37.237854 
L 194.320279 36.932002 
L 197.096131 36.842694 
L 199.96608 36.975402 
L 202.883077 37.333813 
L 205.894171 37.928245 
L 209.04641 38.781505 
L 212.292745 39.892493 
L 215.680226 41.286731 
L 219.2559 43.000195 
L 223.066815 45.078105 
L 227.112973 47.543371 
L 231.44142 50.446504 
L 236.099206 53.842555 
L 241.180427 57.826563 
L 246.826228 62.541626 
L 253.224802 68.182247 
L 260.799585 75.167018 
L 270.632688 84.556551 
L 305.777799 118.383066 
L 315.234516 127.023079 
L 323.844362 134.592994 
L 331.983725 141.457432 
L 339.840798 147.795343 
L 347.509678 153.696613 
L 355.037412 159.209457 
L 362.47105 164.379148 
L 369.85764 169.246969 
L 377.244229 173.84964 
L 384.677867 178.219057 
L 392.158553 182.357005 
L 399.686288 186.266762 
L 407.308119 189.975011 
L 415.071096 193.503595 
L 422.975217 196.85061 
L 431.020483 200.015534 
L 439.253943 203.015608 
L 447.722644 205.864104 
L 456.426588 208.556804 
L 465.412821 211.103898 
L 474.728392 213.512609 
L 484.420351 215.787643 
L 494.535744 217.931654 
L 505.121621 219.945707 
L 516.225029 221.829757 
L 527.940066 223.589748 
L 540.360828 225.228111 
L 541.678182 225.38926 
L 541.678182 225.38926 
" clip-path="url(#p96392911cd)" style="fill: none; stroke: #f8df25; stroke-width: 1.5; stroke-linecap: square"/>
   </g>
   <g id="patch_3">
    <path d="M 47.72 246.04 
L 47.72 26.88 
" style="fill: none; stroke: #000000; stroke-width: 0.8; stroke-linejoin: miter; stroke-linecap: square"/>
   </g>
   <g id="patch_4">
    <path d="M 565.2 246.04 
L 565.2 26.88 
" style="fill: none; stroke: #000000; stroke-width: 0.8; stroke-linejoin: miter; stroke-linecap: square"/>
   </g>
   <g id="patch_5">
    <path d="M 47.72 246.04 
L 565.2 246.04 
" style="fill: none; stroke: #000000; stroke-width: 0.8; stroke-linejoin: miter; stroke-linecap: square"/>
   </g>
   <g id="patch_6">
    <path d="M 47.72 26.88 
L 565.2 26.88 
" style="fill: none; stroke: #000000; stroke-width: 0.8; stroke-linejoin: miter; stroke-linecap: square"/>
   </g>
   <g id="text_15">
    <!-- Normalized AD Envelope Using Double EMA Filter with Varying k_D (k_A = 6.281e-04) -->
    <g transform="translate(49.76875 20.88)scale(0.12 -0.12)">
     <defs>
      <path id="DejaVuSans-4e" d="M 628 4666 
L 1478 4666 
L 3547 763 
L 3547 4666 
L 4159 4666 
L 4159 0 
L 3309 0 
L 1241 3903 
L 1241 0 
L 628 0 
L 628 4666 
z
" transform="scale(0.015625)"/>
      <path id="DejaVuSans-6f" d="M 1959 3097 
Q 1497 3097 1228 2736 
Q 959 2375 959 1747 
Q 959 1119 1226 758 
Q 1494 397 1959 397 
Q 2419 397 2687 759 
Q 2956 1122 2956 1747 
Q 2956 2369 2687 2733 
Q 2419 3097 1959 3097 
z
M 1959 3584 
Q 2709 3584 3137 3096 
Q 3566 2609 3566 1747 
Q 3566 888 3137 398 
Q 2709 -91 1959 -91 
Q 1206 -91 779 398 
Q 353 888 353 1747 
Q 353 2609 779 3096 
Q 1206 3584 1959 3584 
z
" transform="scale(0.015625)"/>
      <path id="DejaVuSans-72" d="M 2631 2963 
Q 2534 3019 2420 3045 
Q 2306 3072 2169 3072 
Q 1681 3072 1420 2755 
Q 1159 2438 1159 1844 
L 1159 0 
L 581 0 
L 581 3500 
L 1159 3500 
L 1159 2956 
Q 1341 3275 1631 3429 
Q 1922 3584 2338 3584 
Q 2397 3584 2469 3576 
Q 2541 3569 2628 3553 
L 2631 2963 
z
" transform="scale(0.015625)"/>
      <path id="DejaVuSans-7a" d="M 353 3500 
L 3084 3500 
L 3084 2975 
L 922 459 
L 3084 459 
L 3084 0 
L 275 0 
L 275 525 
L 2438 3041 
L 353 3041 
L 353 3500 
z
" transform="scale(0.015625)"/>
      <path id="DejaVuSans-44" d="M 1259 4147 
L 1259 519 
L 2022 519 
Q 2988 519 3436 956 
Q 3884 1394 3884 2338 
Q 3884 3275 3436 3711 
Q 2988 4147 2022 4147 
L 1259 4147 
z
M 628 4666 
L 1925 4666 
Q 3281 4666 3915 4102 
Q 4550 3538 4550 2338 
Q 4550 1131 3912 565 
Q 3275 0 1925 0 
L 628 0 
L 628 4666 
z
" transform="scale(0.015625)"/>
      <path id="DejaVuSans-45" d="M 628 4666 
L 3578 4666 
L 3578 4134 
L 1259 4134 
L 1259 2753 
L 3481 2753 
L 3481 2222 
L 1259 2222 
L 1259 531 
L 3634 531 
L 3634 0 
L 628 0 
L 628 4666 
z
" transform="scale(0.015625)"/>
      <path id="DejaVuSans-6e" d="M 3513 2113 
L 3513 0 
L 2938 0 
L 2938 2094 
Q 2938 2591 2744 2837 
Q 2550 3084 2163 3084 
Q 1697 3084 1428 2787 
Q 1159 2491 1159 1978 
L 1159 0 
L 581 0 
L 581 3500 
L 1159 3500 
L 1159 2956 
Q 1366 3272 1645 3428 
Q 1925 3584 2291 3584 
Q 2894 3584 3203 3211 
Q 3513 2838 3513 2113 
z
" transform="scale(0.015625)"/>
      <path id="DejaVuSans-76" d="M 191 3500 
L 800 3500 
L 1894 563 
L 2988 3500 
L 3597 3500 
L 2284 0 
L 1503 0 
L 191 3500 
z
" transform="scale(0.015625)"/>
      <path id="DejaVuSans-55" d="M 556 4666 
L 1191 4666 
L 1191 1831 
Q 1191 1081 1462 751 
Q 1734 422 2344 422 
Q 2950 422 3222 751 
Q 3494 1081 3494 1831 
L 3494 4666 
L 4128 4666 
L 4128 1753 
Q 4128 841 3676 375 
Q 3225 -91 2344 -91 
Q 1459 -91 1007 375 
Q 556 841 556 1753 
L 556 4666 
z
" transform="scale(0.015625)"/>
      <path id="DejaVuSans-67" d="M 2906 1791 
Q 2906 2416 2648 2759 
Q 2391 3103 1925 3103 
Q 1463 3103 1205 2759 
Q 947 2416 947 1791 
Q 947 1169 1205 825 
Q 1463 481 1925 481 
Q 2391 481 2648 825 
Q 2906 1169 2906 1791 
z
M 3481 434 
Q 3481 -459 3084 -895 
Q 2688 -1331 1869 -1331 
Q 1566 -1331 1297 -1286 
Q 1028 -1241 775 -1147 
L 775 -588 
Q 1028 -725 1275 -790 
Q 1522 -856 1778 -856 
Q 2344 -856 2625 -561 
Q 2906 -266 2906 331 
L 2906 616 
Q 2728 306 2450 153 
Q 2172 0 1784 0 
Q 1141 0 747 490 
Q 353 981 353 1791 
Q 353 2603 747 3093 
Q 1141 3584 1784 3584 
Q 2172 3584 2450 3431 
Q 2728 3278 2906 2969 
L 2906 3500 
L 3481 3500 
L 3481 434 
z
" transform="scale(0.015625)"/>
      <path id="DejaVuSans-62" d="M 3116 1747 
Q 3116 2381 2855 2742 
Q 2594 3103 2138 3103 
Q 1681 3103 1420 2742 
Q 1159 2381 1159 1747 
Q 1159 1113 1420 752 
Q 1681 391 2138 391 
Q 2594 391 2855 752 
Q 3116 1113 3116 1747 
z
M 1159 2969 
Q 1341 3281 1617 3432 
Q 1894 3584 2278 3584 
Q 2916 3584 3314 3078 
Q 3713 2572 3713 1747 
Q 3713 922 3314 415 
Q 2916 -91 2278 -91 
Q 1894 -91 1617 61 
Q 1341 213 1159 525 
L 1159 0 
L 581 0 
L 581 4863 
L 1159 4863 
L 1159 2969 
z
" transform="scale(0.015625)"/>
      <path id="DejaVuSans-4d" d="M 628 4666 
L 1569 4666 
L 2759 1491 
L 3956 4666 
L 4897 4666 
L 4897 0 
L 4281 0 
L 4281 4097 
L 3078 897 
L 2444 897 
L 1241 4097 
L 1241 0 
L 628 0 
L 628 4666 
z
" transform="scale(0.015625)"/>
      <path id="DejaVuSans-46" d="M 628 4666 
L 3309 4666 
L 3309 4134 
L 1259 4134 
L 1259 2759 
L 3109 2759 
L 3109 2228 
L 1259 2228 
L 1259 0 
L 628 0 
L 628 4666 
z
" transform="scale(0.015625)"/>
      <path id="DejaVuSans-77" d="M 269 3500 
L 844 3500 
L 1563 769 
L 2278 3500 
L 2956 3500 
L 3675 769 
L 4391 3500 
L 4966 3500 
L 4050 0 
L 3372 0 
L 2619 2869 
L 1863 0 
L 1184 0 
L 269 3500 
z
" transform="scale(0.015625)"/>
      <path id="DejaVuSans-68" d="M 3513 2113 
L 3513 0 
L 2938 0 
L 2938 2094 
Q 2938 2591 2744 2837 
Q 2550 3084 2163 3084 
Q 1697 3084 1428 2787 
Q 1159 2491 1159 1978 
L 1159 0 
L 581 0 
L 581 4863 
L 1159 4863 
L 1159 2956 
Q 1366 3272 1645 3428 
Q 1925 3584 2291 3584 
Q 2894 3584 3203 3211 
Q 3513 2838 3513 2113 
z
" transform="scale(0.015625)"/>
      <path id="DejaVuSans-56" d="M 1831 0 
L 50 4666 
L 709 4666 
L 2188 738 
L 3669 4666 
L 4325 4666 
L 2547 0 
L 1831 0 
z
" transform="scale(0.015625)"/>
      <path id="DejaVuSans-79" d="M 2059 -325 
Q 1816 -950 1584 -1140 
Q 1353 -1331 966 -1331 
L 506 -1331 
L 506 -850 
L 844 -850 
Q 1081 -850 1212 -737 
Q 1344 -625 1503 -206 
L 1606 56 
L 191 3500 
L 800 3500 
L 1894 763 
L 2988 3500 
L 3597 3500 
L 2059 -325 
z
" transform="scale(0.015625)"/>
      <path id="DejaVuSans-6b" d="M 581 4863 
L 1159 4863 
L 1159 1991 
L 2875 3500 
L 3609 3500 
L 1753 1863 
L 3688 0 
L 2938 0 
L 1159 1709 
L 1159 0 
L 581 0 
L 581 4863 
z
" transform="scale(0.015625)"/>
      <path id="DejaVuSans-5f" d="M 3263 -1063 
L 3263 -1509 
L -63 -1509 
L -63 -1063 
L 3263 -1063 
z
" transform="scale(0.015625)"/>
      <path id="DejaVuSans-28" d="M 1984 4856 
Q 1566 4138 1362 3434 
Q 1159 2731 1159 2009 
Q 1159 1288 1364 580 
Q 1569 -128 1984 -844 
L 1484 -844 
Q 1016 -109 783 600 
Q 550 1309 550 2009 
Q 550 2706 781 3412 
Q 1013 4119 1484 4856 
L 1984 4856 
z
" transform="scale(0.015625)"/>
      <path id="DejaVuSans-3d" d="M 678 2906 
L 4684 2906 
L 4684 2381 
L 678 2381 
L 678 2906 
z
M 678 1631 
L 4684 1631 
L 4684 1100 
L 678 1100 
L 678 1631 
z
" transform="scale(0.015625)"/>
      <path id="DejaVuSans-2d" d="M 313 2009 
L 1997 2009 
L 1997 1497 
L 313 1497 
L 313 2009 
z
" transform="scale(0.015625)"/>
      <path id="DejaVuSans-29" d="M 513 4856 
L 1013 4856 
Q 1481 4119 1714 3412 
Q 1947 2706 1947 2009 
Q 1947 1309 1714 600 
Q 1481 -109 1013 -844 
L 513 -844 
Q 928 -128 1133 580 
Q 1338 1288 1338 2009 
Q 1338 2731 1133 3434 
Q 928 4138 513 4856 
z
" transform="scale(0.015625)"/>
     </defs>
     <use xlink:href="#DejaVuSans-4e"/>
     <use xlink:href="#DejaVuSans-6f" x="74.804688"/>
     <use xlink:href="#DejaVuSans-72" x="135.986328"/>
     <use xlink:href="#DejaVuSans-6d" x="175.349609"/>
     <use xlink:href="#DejaVuSans-61" x="272.761719"/>
     <use xlink:href="#DejaVuSans-6c" x="334.041016"/>
     <use xlink:href="#DejaVuSans-69" x="361.824219"/>
     <use xlink:href="#DejaVuSans-7a" x="389.607422"/>
     <use xlink:href="#DejaVuSans-65" x="442.097656"/>
     <use xlink:href="#DejaVuSans-64" x="503.621094"/>
     <use xlink:href="#DejaVuSans-20" x="567.097656"/>
     <use xlink:href="#DejaVuSans-41" x="598.884766"/>
     <use xlink:href="#DejaVuSans-44" x="667.292969"/>
     <use xlink:href="#DejaVuSans-20" x="744.294922"/>
     <use xlink:href="#DejaVuSans-45" x="776.082031"/>
     <use xlink:href="#DejaVuSans-6e" x="839.265625"/>
     <use xlink:href="#DejaVuSans-76" x="902.644531"/>
     <use xlink:href="#DejaVuSans-65" x="961.824219"/>
     <use xlink:href="#DejaVuSans-6c" x="1023.347656"/>
     <use xlink:href="#DejaVuSans-6f" x="1051.130859"/>
     <use xlink:href="#DejaVuSans-70" x="1112.3125"/>
     <use xlink:href="#DejaVuSans-65" x="1175.789062"/>
     <use xlink:href="#DejaVuSans-20" x="1237.3125"/>
     <use xlink:href="#DejaVuSans-55" x="1269.099609"/>
     <use xlink:href="#DejaVuSans-73" x="1342.292969"/>
     <use xlink:href="#DejaVuSans-69" x="1394.392578"/>
     <use xlink:href="#DejaVuSans-6e" x="1422.175781"/>
     <use xlink:href="#DejaVuSans-67" x="1485.554688"/>
     <use xlink:href="#DejaVuSans-20" x="1549.03125"/>
     <use xlink:href="#DejaVuSans-44" x="1580.818359"/>
     <use xlink:href="#DejaVuSans-6f" x="1657.820312"/>
     <use xlink:href="#DejaVuSans-75" x="1719.001953"/>
     <use xlink:href="#DejaVuSans-62" x="1782.380859"/>
     <use xlink:href="#DejaVuSans-6c" x="1845.857422"/>
     <use xlink:href="#DejaVuSans-65" x="1873.640625"/>
     <use xlink:href="#DejaVuSans-20" x="1935.164062"/>
     <use xlink:href="#DejaVuSans-45" x="1966.951172"/>
     <use xlink:href="#DejaVuSans-4d" x="2030.134766"/>
     <use xlink:href="#DejaVuSans-41" x="2116.414062"/>
     <use xlink:href="#DejaVuSans-20" x="2184.822266"/>
     <use xlink:href="#DejaVuSans-46" x="2216.609375"/>
     <use xlink:href="#DejaVuSans-69" x="2266.878906"/>
     <use xlink:href="#DejaVuSans-6c" x="2294.662109"/>
     <use xlink:href="#DejaVuSans-74" x="2322.445312"/>
     <use xlink:href="#DejaVuSans-65" x="2361.654297"/>
     <use xlink:href="#DejaVuSans-72" x="2423.177734"/>
     <use xlink:href="#DejaVuSans-20" x="2464.291016"/>
     <use xlink:href="#DejaVuSans-77" x="2496.078125"/>
     <use xlink:href="#DejaVuSans-69" x="2577.865234"/>
     <use xlink:href="#DejaVuSans-74" x="2605.648438"/>
     <use xlink:href="#DejaVuSans-68" x="2644.857422"/>
     <use xlink:href="#DejaVuSans-20" x="2708.236328"/>
     <use xlink:href="#DejaVuSans-56" x="2740.023438"/>
     <use xlink:href="#DejaVuSans-61" x="2800.681641"/>
     <use xlink:href="#DejaVuSans-72" x="2861.960938"/>
     <use xlink:href="#DejaVuSans-79" x="2903.074219"/>
     <use xlink:href="#DejaVuSans-69" x="2962.253906"/>
     <use xlink:href="#DejaVuSans-6e" x="2990.037109"/>
     <use xlink:href="#DejaVuSans-67" x="3053.416016"/>
     <use xlink:href="#DejaVuSans-20" x="3116.892578"/>
     <use xlink:href="#DejaVuSans-6b" x="3148.679688"/>
     <use xlink:href="#DejaVuSans-5f" x="3206.589844"/>
     <use xlink:href="#DejaVuSans-44" x="3256.589844"/>
     <use xlink:href="#DejaVuSans-20" x="3333.591797"/>
     <use xlink:href="#DejaVuSans-28" x="3365.378906"/>
     <use xlink:href="#DejaVuSans-6b" x="3404.392578"/>
     <use xlink:href="#DejaVuSans-5f" x="3462.302734"/>
     <use xlink:href="#DejaVuSans-41" x="3512.302734"/>
     <use xlink:href="#DejaVuSans-20" x="3580.710938"/>
     <use xlink:href="#DejaVuSans-3d" x="3612.498047"/>
     <use xlink:href="#DejaVuSans-20" x="3696.287109"/>
     <use xlink:href="#DejaVuSans-36" x="3728.074219"/>
     <use xlink:href="#DejaVuSans-2e" x="3791.697266"/>
     <use xlink:href="#DejaVuSans-32" x="3823.484375"/>
     <use xlink:href="#DejaVuSans-38" x="3887.107422"/>
     <use xlink:href="#DejaVuSans-31" x="3950.730469"/>
     <use xlink:href="#DejaVuSans-65" x="4014.353516"/>
     <use xlink:href="#DejaVuSans-2d" x="4075.876953"/>
     <use xlink:href="#DejaVuSans-30" x="4111.960938"/>
     <use xlink:href="#DejaVuSans-34" x="4175.583984"/>
     <use xlink:href="#DejaVuSans-29" x="4239.207031"/>
    </g>
   </g>
   <g id="legend_1">
    <g id="patch_7">
     <path d="M 323.95 154.53 
L 558.2 154.53 
Q 560.2 154.53 560.2 152.53 
L 560.2 33.88 
Q 560.2 31.88 558.2 31.88 
L 323.95 31.88 
Q 321.95 31.88 321.95 33.88 
L 321.95 152.53 
Q 321.95 154.53 323.95 154.53 
z
" style="fill: #ffffff; opacity: 0.8; stroke: #cccccc; stroke-linejoin: miter"/>
    </g>
    <g id="line2d_41">
     <path d="M 325.95 39.978437 
L 335.95 39.978437 
L 345.95 39.978437 
" style="fill: none; stroke: #0d0887; stroke-width: 1.5; stroke-linecap: square"/>
    </g>
    <g id="text_16">
     <!-- k_A=6.281e-04 -->
     <g transform="translate(353.95 43.478437)scale(0.1 -0.1)">
      <use xlink:href="#DejaVuSans-6b"/>
      <use xlink:href="#DejaVuSans-5f" x="57.910156"/>
      <use xlink:href="#DejaVuSans-41" x="107.910156"/>
      <use xlink:href="#DejaVuSans-3d" x="176.318359"/>
      <use xlink:href="#DejaVuSans-36" x="260.107422"/>
      <use xlink:href="#DejaVuSans-2e" x="323.730469"/>
      <use xlink:href="#DejaVuSans-32" x="355.517578"/>
      <use xlink:href="#DejaVuSans-38" x="419.140625"/>
      <use xlink:href="#DejaVuSans-31" x="482.763672"/>
      <use xlink:href="#DejaVuSans-65" x="546.386719"/>
      <use xlink:href="#DejaVuSans-2d" x="607.910156"/>
      <use xlink:href="#DejaVuSans-30" x="643.994141"/>
      <use xlink:href="#DejaVuSans-34" x="707.617188"/>
     </g>
    </g>
    <g id="line2d_42">
     <path d="M 325.95 54.934687 
L 335.95 54.934687 
L 345.95 54.934687 
" style="fill: none; stroke: #310597; stroke-width: 1.5; stroke-linecap: square"/>
    </g>
    <g id="text_17">
     <!-- k_A=6.281e-04 -->
     <g transform="translate(353.95 58.434687)scale(0.1 -0.1)">
      <use xlink:href="#DejaVuSans-6b"/>
      <use xlink:href="#DejaVuSans-5f" x="57.910156"/>
      <use xlink:href="#DejaVuSans-41" x="107.910156"/>
      <use xlink:href="#DejaVuSans-3d" x="176.318359"/>
      <use xlink:href="#DejaVuSans-36" x="260.107422"/>
      <use xlink:href="#DejaVuSans-2e" x="323.730469"/>
      <use xlink:href="#DejaVuSans-32" x="355.517578"/>
      <use xlink:href="#DejaVuSans-38" x="419.140625"/>
      <use xlink:href="#DejaVuSans-31" x="482.763672"/>
      <use xlink:href="#DejaVuSans-65" x="546.386719"/>
      <use xlink:href="#DejaVuSans-2d" x="607.910156"/>
      <use xlink:href="#DejaVuSans-30" x="643.994141"/>
      <use xlink:href="#DejaVuSans-34" x="707.617188"/>
     </g>
    </g>
    <g id="line2d_43">
     <path d="M 325.95 69.890937 
L 335.95 69.890937 
L 345.95 69.890937 
" style="fill: none; stroke: #4c02a1; stroke-width: 1.5; stroke-linecap: square"/>
    </g>
    <g id="text_18">
     <!-- k_A=6.281e-04 -->
     <g transform="translate(353.95 73.390937)scale(0.1 -0.1)">
      <use xlink:href="#DejaVuSans-6b"/>
      <use xlink:href="#DejaVuSans-5f" x="57.910156"/>
      <use xlink:href="#DejaVuSans-41" x="107.910156"/>
      <use xlink:href="#DejaVuSans-3d" x="176.318359"/>
      <use xlink:href="#DejaVuSans-36" x="260.107422"/>
      <use xlink:href="#DejaVuSans-2e" x="323.730469"/>
      <use xlink:href="#DejaVuSans-32" x="355.517578"/>
      <use xlink:href="#DejaVuSans-38" x="419.140625"/>
      <use xlink:href="#DejaVuSans-31" x="482.763672"/>
      <use xlink:href="#DejaVuSans-65" x="546.386719"/>
      <use xlink:href="#DejaVuSans-2d" x="607.910156"/>
      <use xlink:href="#DejaVuSans-30" x="643.994141"/>
      <use xlink:href="#DejaVuSans-34" x="707.617188"/>
     </g>
    </g>
    <g id="line2d_44">
     <path d="M 325.95 84.847187 
L 335.95 84.847187 
L 345.95 84.847187 
" style="fill: none; stroke: #6600a7; stroke-width: 1.5; stroke-linecap: square"/>
    </g>
    <g id="text_19">
     <!-- k_A=6.281e-04 -->
     <g transform="translate(353.95 88.347187)scale(0.1 -0.1)">
      <use xlink:href="#DejaVuSans-6b"/>
      <use xlink:href="#DejaVuSans-5f" x="57.910156"/>
      <use xlink:href="#DejaVuSans-41" x="107.910156"/>
      <use xlink:href="#DejaVuSans-3d" x="176.318359"/>
      <use xlink:href="#DejaVuSans-36" x="260.107422"/>
      <use xlink:href="#DejaVuSans-2e" x="323.730469"/>
      <use xlink:href="#DejaVuSans-32" x="355.517578"/>
      <use xlink:href="#DejaVuSans-38" x="419.140625"/>
      <use xlink:href="#DejaVuSans-31" x="482.763672"/>
      <use xlink:href="#DejaVuSans-65" x="546.386719"/>
      <use xlink:href="#DejaVuSans-2d" x="607.910156"/>
      <use xlink:href="#DejaVuSans-30" x="643.994141"/>
      <use xlink:href="#DejaVuSans-34" x="707.617188"/>
     </g>
    </g>
    <g id="line2d_45">
     <path d="M 325.95 99.803437 
L 335.95 99.803437 
L 345.95 99.803437 
" style="fill: none; stroke: #7e03a8; stroke-width: 1.5; stroke-linecap: square"/>
    </g>
    <g id="text_20">
     <!-- k_A=6.281e-04 -->
     <g transform="translate(353.95 103.303437)scale(0.1 -0.1)">
      <use xlink:href="#DejaVuSans-6b"/>
      <use xlink:href="#DejaVuSans-5f" x="57.910156"/>
      <use xlink:href="#DejaVuSans-41" x="107.910156"/>
      <use xlink:href="#DejaVuSans-3d" x="176.318359"/>
      <use xlink:href="#DejaVuSans-36" x="260.107422"/>
      <use xlink:href="#DejaVuSans-2e" x="323.730469"/>
      <use xlink:href="#DejaVuSans-32" x="355.517578"/>
      <use xlink:href="#DejaVuSans-38" x="419.140625"/>
      <use xlink:href="#DejaVuSans-31" x="482.763672"/>
      <use xlink:href="#DejaVuSans-65" x="546.386719"/>
      <use xlink:href="#DejaVuSans-2d" x="607.910156"/>
      <use xlink:href="#DejaVuSans-30" x="643.994141"/>
      <use xlink:href="#DejaVuSans-34" x="707.617188"/>
     </g>
    </g>
    <g id="line2d_46">
     <path d="M 325.95 114.759687 
L 335.95 114.759687 
L 345.95 114.759687 
" style="fill: none; stroke: #9511a1; stroke-width: 1.5; stroke-linecap: square"/>
    </g>
    <g id="text_21">
     <!-- k_A=6.281e-04 -->
     <g transform="translate(353.95 118.259687)scale(0.1 -0.1)">
      <use xlink:href="#DejaVuSans-6b"/>
      <use xlink:href="#DejaVuSans-5f" x="57.910156"/>
      <use xlink:href="#DejaVuSans-41" x="107.910156"/>
      <use xlink:href="#DejaVuSans-3d" x="176.318359"/>
      <use xlink:href="#DejaVuSans-36" x="260.107422"/>
      <use xlink:href="#DejaVuSans-2e" x="323.730469"/>
      <use xlink:href="#DejaVuSans-32" x="355.517578"/>
      <use xlink:href="#DejaVuSans-38" x="419.140625"/>
      <use xlink:href="#DejaVuSans-31" x="482.763672"/>
      <use xlink:href="#DejaVuSans-65" x="546.386719"/>
      <use xlink:href="#DejaVuSans-2d" x="607.910156"/>
      <use xlink:href="#DejaVuSans-30" x="643.994141"/>
      <use xlink:href="#DejaVuSans-34" x="707.617188"/>
     </g>
    </g>
    <g id="line2d_47">
     <path d="M 325.95 129.715937 
L 335.95 129.715937 
L 345.95 129.715937 
" style="fill: none; stroke: #aa2395; stroke-width: 1.5; stroke-linecap: square"/>
    </g>
    <g id="text_22">
     <!-- k_A=6.281e-04 -->
     <g transform="translate(353.95 133.215937)scale(0.1 -0.1)">
      <use xlink:href="#DejaVuSans-6b"/>
      <use xlink:href="#DejaVuSans-5f" x="57.910156"/>
      <use xlink:href="#DejaVuSans-41" x="107.910156"/>
      <use xlink:href="#DejaVuSans-3d" x="176.318359"/>
      <use xlink:href="#DejaVuSans-36" x="260.107422"/>
      <use xlink:href="#DejaVuSans-2e" x="323.730469"/>
      <use xlink:href="#DejaVuSans-32" x="355.517578"/>
      <use xlink:href="#DejaVuSans-38" x="419.140625"/>
      <use xlink:href="#DejaVuSans-31" x="482.763672"/>
      <use xlink:href="#DejaVuSans-65" x="546.386719"/>
      <use xlink:href="#DejaVuSans-2d" x="607.910156"/>
      <use xlink:href="#DejaVuSans-30" x="643.994141"/>
      <use xlink:href="#DejaVuSans-34" x="707.617188"/>
     </g>
    </g>
    <g id="line2d_48">
     <path d="M 325.95 144.672187 
L 335.95 144.672187 
L 345.95 144.672187 
" style="fill: none; stroke: #bc3587; stroke-width: 1.5; stroke-linecap: square"/>
    </g>
    <g id="text_23">
     <!-- k_A=6.281e-04 -->
     <g transform="translate(353.95 148.172187)scale(0.1 -0.1)">
      <use xlink:href="#DejaVuSans-6b"/>
      <use xlink:href="#DejaVuSans-5f" x="57.910156"/>
      <use xlink:href="#DejaVuSans-41" x="107.910156"/>
      <use xlink:href="#DejaVuSans-3d" x="176.318359"/>
      <use xlink:href="#DejaVuSans-36" x="260.107422"/>
      <use xlink:href="#DejaVuSans-2e" x="323.730469"/>
      <use xlink:href="#DejaVuSans-32" x="355.517578"/>
      <use xlink:href="#DejaVuSans-38" x="419.140625"/>
      <use xlink:href="#DejaVuSans-31" x="482.763672"/>
      <use xlink:href="#DejaVuSans-65" x="546.386719"/>
      <use xlink:href="#DejaVuSans-2d" x="607.910156"/>
      <use xlink:href="#DejaVuSans-30" x="643.994141"/>
      <use xlink:href="#DejaVuSans-34" x="707.617188"/>
     </g>
    </g>
    <g id="line2d_49">
     <path d="M 451.075 39.978437 
L 461.075 39.978437 
L 471.075 39.978437 
" style="fill: none; stroke: #cc4778; stroke-width: 1.5; stroke-linecap: square"/>
    </g>
    <g id="text_24">
     <!-- k_A=6.281e-04 -->
     <g transform="translate(479.075 43.478437)scale(0.1 -0.1)">
      <use xlink:href="#DejaVuSans-6b"/>
      <use xlink:href="#DejaVuSans-5f" x="57.910156"/>
      <use xlink:href="#DejaVuSans-41" x="107.910156"/>
      <use xlink:href="#DejaVuSans-3d" x="176.318359"/>
      <use xlink:href="#DejaVuSans-36" x="260.107422"/>
      <use xlink:href="#DejaVuSans-2e" x="323.730469"/>
      <use xlink:href="#DejaVuSans-32" x="355.517578"/>
      <use xlink:href="#DejaVuSans-38" x="419.140625"/>
      <use xlink:href="#DejaVuSans-31" x="482.763672"/>
      <use xlink:href="#DejaVuSans-65" x="546.386719"/>
      <use xlink:href="#DejaVuSans-2d" x="607.910156"/>
      <use xlink:href="#DejaVuSans-30" x="643.994141"/>
      <use xlink:href="#DejaVuSans-34" x="707.617188"/>
     </g>
    </g>
    <g id="line2d_50">
     <path d="M 451.075 54.934687 
L 461.075 54.934687 
L 471.075 54.934687 
" style="fill: none; stroke: #da5a6a; stroke-width: 1.5; stroke-linecap: square"/>
    </g>
    <g id="text_25">
     <!-- k_A=6.281e-04 -->
     <g transform="translate(479.075 58.434687)scale(0.1 -0.1)">
      <use xlink:href="#DejaVuSans-6b"/>
      <use xlink:href="#DejaVuSans-5f" x="57.910156"/>
      <use xlink:href="#DejaVuSans-41" x="107.910156"/>
      <use xlink:href="#DejaVuSans-3d" x="176.318359"/>
      <use xlink:href="#DejaVuSans-36" x="260.107422"/>
      <use xlink:href="#DejaVuSans-2e" x="323.730469"/>
      <use xlink:href="#DejaVuSans-32" x="355.517578"/>
      <use xlink:href="#DejaVuSans-38" x="419.140625"/>
      <use xlink:href="#DejaVuSans-31" x="482.763672"/>
      <use xlink:href="#DejaVuSans-65" x="546.386719"/>
      <use xlink:href="#DejaVuSans-2d" x="607.910156"/>
      <use xlink:href="#DejaVuSans-30" x="643.994141"/>
      <use xlink:href="#DejaVuSans-34" x="707.617188"/>
     </g>
    </g>
    <g id="line2d_51">
     <path d="M 451.075 69.890937 
L 461.075 69.890937 
L 471.075 69.890937 
" style="fill: none; stroke: #e66c5c; stroke-width: 1.5; stroke-linecap: square"/>
    </g>
    <g id="text_26">
     <!-- k_A=6.281e-04 -->
     <g transform="translate(479.075 73.390937)scale(0.1 -0.1)">
      <use xlink:href="#DejaVuSans-6b"/>
      <use xlink:href="#DejaVuSans-5f" x="57.910156"/>
      <use xlink:href="#DejaVuSans-41" x="107.910156"/>
      <use xlink:href="#DejaVuSans-3d" x="176.318359"/>
      <use xlink:href="#DejaVuSans-36" x="260.107422"/>
      <use xlink:href="#DejaVuSans-2e" x="323.730469"/>
      <use xlink:href="#DejaVuSans-32" x="355.517578"/>
      <use xlink:href="#DejaVuSans-38" x="419.140625"/>
      <use xlink:href="#DejaVuSans-31" x="482.763672"/>
      <use xlink:href="#DejaVuSans-65" x="546.386719"/>
      <use xlink:href="#DejaVuSans-2d" x="607.910156"/>
      <use xlink:href="#DejaVuSans-30" x="643.994141"/>
      <use xlink:href="#DejaVuSans-34" x="707.617188"/>
     </g>
    </g>
    <g id="line2d_52">
     <path d="M 451.075 84.847187 
L 461.075 84.847187 
L 471.075 84.847187 
" style="fill: none; stroke: #f0804e; stroke-width: 1.5; stroke-linecap: square"/>
    </g>
    <g id="text_27">
     <!-- k_A=6.281e-04 -->
     <g transform="translate(479.075 88.347187)scale(0.1 -0.1)">
      <use xlink:href="#DejaVuSans-6b"/>
      <use xlink:href="#DejaVuSans-5f" x="57.910156"/>
      <use xlink:href="#DejaVuSans-41" x="107.910156"/>
      <use xlink:href="#DejaVuSans-3d" x="176.318359"/>
      <use xlink:href="#DejaVuSans-36" x="260.107422"/>
      <use xlink:href="#DejaVuSans-2e" x="323.730469"/>
      <use xlink:href="#DejaVuSans-32" x="355.517578"/>
      <use xlink:href="#DejaVuSans-38" x="419.140625"/>
      <use xlink:href="#DejaVuSans-31" x="482.763672"/>
      <use xlink:href="#DejaVuSans-65" x="546.386719"/>
      <use xlink:href="#DejaVuSans-2d" x="607.910156"/>
      <use xlink:href="#DejaVuSans-30" x="643.994141"/>
      <use xlink:href="#DejaVuSans-34" x="707.617188"/>
     </g>
    </g>
    <g id="line2d_53">
     <path d="M 451.075 99.803437 
L 461.075 99.803437 
L 471.075 99.803437 
" style="fill: none; stroke: #f89540; stroke-width: 1.5; stroke-linecap: square"/>
    </g>
    <g id="text_28">
     <!-- k_A=6.281e-04 -->
     <g transform="translate(479.075 103.303437)scale(0.1 -0.1)">
      <use xlink:href="#DejaVuSans-6b"/>
      <use xlink:href="#DejaVuSans-5f" x="57.910156"/>
      <use xlink:href="#DejaVuSans-41" x="107.910156"/>
      <use xlink:href="#DejaVuSans-3d" x="176.318359"/>
      <use xlink:href="#DejaVuSans-36" x="260.107422"/>
      <use xlink:href="#DejaVuSans-2e" x="323.730469"/>
      <use xlink:href="#DejaVuSans-32" x="355.517578"/>
      <use xlink:href="#DejaVuSans-38" x="419.140625"/>
      <use xlink:href="#DejaVuSans-31" x="482.763672"/>
      <use xlink:href="#DejaVuSans-65" x="546.386719"/>
      <use xlink:href="#DejaVuSans-2d" x="607.910156"/>
      <use xlink:href="#DejaVuSans-30" x="643.994141"/>
      <use xlink:href="#DejaVuSans-34" x="707.617188"/>
     </g>
    </g>
    <g id="line2d_54">
     <path d="M 451.075 114.759687 
L 461.075 114.759687 
L 471.075 114.759687 
" style="fill: none; stroke: #fdac33; stroke-width: 1.5; stroke-linecap: square"/>
    </g>
    <g id="text_29">
     <!-- k_A=6.281e-04 -->
     <g transform="translate(479.075 118.259687)scale(0.1 -0.1)">
      <use xlink:href="#DejaVuSans-6b"/>
      <use xlink:href="#DejaVuSans-5f" x="57.910156"/>
      <use xlink:href="#DejaVuSans-41" x="107.910156"/>
      <use xlink:href="#DejaVuSans-3d" x="176.318359"/>
      <use xlink:href="#DejaVuSans-36" x="260.107422"/>
      <use xlink:href="#DejaVuSans-2e" x="323.730469"/>
      <use xlink:href="#DejaVuSans-32" x="355.517578"/>
      <use xlink:href="#DejaVuSans-38" x="419.140625"/>
      <use xlink:href="#DejaVuSans-31" x="482.763672"/>
      <use xlink:href="#DejaVuSans-65" x="546.386719"/>
      <use xlink:href="#DejaVuSans-2d" x="607.910156"/>
      <use xlink:href="#DejaVuSans-30" x="643.994141"/>
      <use xlink:href="#DejaVuSans-34" x="707.617188"/>
     </g>
    </g>
    <g id="line2d_55">
     <path d="M 451.075 129.715937 
L 461.075 129.715937 
L 471.075 129.715937 
" style="fill: none; stroke: #fdc527; stroke-width: 1.5; stroke-linecap: square"/>
    </g>
    <g id="text_30">
     <!-- k_A=6.281e-04 -->
     <g transform="translate(479.075 133.215937)scale(0.1 -0.1)">
      <use xlink:href="#DejaVuSans-6b"/>
      <use xlink:href="#DejaVuSans-5f" x="57.910156"/>
      <use xlink:href="#DejaVuSans-41" x="107.910156"/>
      <use xlink:href="#DejaVuSans-3d" x="176.318359"/>
      <use xlink:href="#DejaVuSans-36" x="260.107422"/>
      <use xlink:href="#DejaVuSans-2e" x="323.730469"/>
      <use xlink:href="#DejaVuSans-32" x="355.517578"/>
      <use xlink:href="#DejaVuSans-38" x="419.140625"/>
      <use xlink:href="#DejaVuSans-31" x="482.763672"/>
      <use xlink:href="#DejaVuSans-65" x="546.386719"/>
      <use xlink:href="#DejaVuSans-2d" x="607.910156"/>
      <use xlink:href="#DejaVuSans-30" x="643.994141"/>
      <use xlink:href="#DejaVuSans-34" x="707.617188"/>
     </g>
    </g>
    <g id="line2d_56">
     <path d="M 451.075 144.672187 
L 461.075 144.672187 
L 471.075 144.672187 
" style="fill: none; stroke: #f8df25; stroke-width: 1.5; stroke-linecap: square"/>
    </g>
    <g id="text_31">
     <!-- k_A=6.281e-04 -->
     <g transform="translate(479.075 148.172187)scale(0.1 -0.1)">
      <use xlink:href="#DejaVuSans-6b"/>
      <use xlink:href="#DejaVuSans-5f" x="57.910156"/>
      <use xlink:href="#DejaVuSans-41" x="107.910156"/>
      <use xlink:href="#DejaVuSans-3d" x="176.318359"/>
      <use xlink:href="#DejaVuSans-36" x="260.107422"/>
      <use xlink:href="#DejaVuSans-2e" x="323.730469"/>
      <use xlink:href="#DejaVuSans-32" x="355.517578"/>
      <use xlink:href="#DejaVuSans-38" x="419.140625"/>
      <use xlink:href="#DejaVuSans-31" x="482.763672"/>
      <use xlink:href="#DejaVuSans-65" x="546.386719"/>
      <use xlink:href="#DejaVuSans-2d" x="607.910156"/>
      <use xlink:href="#DejaVuSans-30" x="643.994141"/>
      <use xlink:href="#DejaVuSans-34" x="707.617188"/>
     </g>
    </g>
   </g>
  </g>
 </g>
 <defs>
  <clipPath id="p96392911cd">
   <rect x="47.72" y="26.88" width="517.48" height="219.16"/>
  </clipPath>
 </defs>
</svg>
