<?xml version="1.0" encoding="utf-8" standalone="no"?>
<!DOCTYPE svg PUBLIC "-//W3C//DTD SVG 1.1//EN"
  "http://www.w3.org/Graphics/SVG/1.1/DTD/svg11.dtd">
<svg xmlns:xlink="http://www.w3.org/1999/xlink" width="576pt" height="576pt" viewBox="0 0 576 576" xmlns="http://www.w3.org/2000/svg" version="1.1">
 <metadata>
  <rdf:RDF xmlns:dc="http://purl.org/dc/elements/1.1/" xmlns:cc="http://creativecommons.org/ns#" xmlns:rdf="http://www.w3.org/1999/02/22-rdf-syntax-ns#">
   <cc:Work>
    <dc:type rdf:resource="http://purl.org/dc/dcmitype/StillImage"/>
    <dc:date>2024-02-18T17:34:21.388895</dc:date>
    <dc:format>image/svg+xml</dc:format>
    <dc:creator>
     <cc:Agent>
      <dc:title>Matplotlib v3.8.2, https://matplotlib.org/</dc:title>
     </cc:Agent>
    </dc:creator>
   </cc:Work>
  </rdf:RDF>
 </metadata>
 <defs>
  <style type="text/css">*{stroke-linejoin: round; stroke-linecap: butt}</style>
 </defs>
 <g id="figure_1">
  <g id="patch_1">
   <path d="M 0 576 
L 576 576 
L 576 0 
L 0 0 
z
" style="fill: #ffffff"/>
  </g>
  <g id="axes_1">
   <g id="patch_2">
    <path d="M 59.24 135.55 
L 552.780209 135.55 
L 552.780209 34.56 
L 59.24 34.56 
z
" style="fill: #ffffff"/>
   </g>
   <g id="matplotlib.axis_1">
    <g id="xtick_1">
     <g id="line2d_1">
      <path d="M 81.673646 135.55 
L 81.673646 34.56 
" clip-path="url(#pb6d63db187)" style="fill: none; stroke: #f0f0f0; stroke-width: 0.8; stroke-linecap: square"/>
     </g>
     <g id="line2d_2">
      <defs>
       <path id="m2a86f853d0" d="M 0 0 
L 0 3.5 
" style="stroke: #000000; stroke-width: 0.8"/>
      </defs>
      <g>
       <use xlink:href="#m2a86f853d0" x="81.673646" y="135.55" style="stroke: #000000; stroke-width: 0.8"/>
      </g>
     </g>
     <g id="text_1">
      <!-- 0 -->
      <g transform="translate(78.492396 150.148438) scale(0.1 -0.1)">
       <defs>
        <path id="DejaVuSans-30" d="M 2034 4250 
Q 1547 4250 1301 3770 
Q 1056 3291 1056 2328 
Q 1056 1369 1301 889 
Q 1547 409 2034 409 
Q 2525 409 2770 889 
Q 3016 1369 3016 2328 
Q 3016 3291 2770 3770 
Q 2525 4250 2034 4250 
z
M 2034 4750 
Q 2819 4750 3233 4129 
Q 3647 3509 3647 2328 
Q 3647 1150 3233 529 
Q 2819 -91 2034 -91 
Q 1250 -91 836 529 
Q 422 1150 422 2328 
Q 422 3509 836 4129 
Q 1250 4750 2034 4750 
z
" transform="scale(0.015625)"/>
       </defs>
       <use xlink:href="#DejaVuSans-30"/>
      </g>
     </g>
    </g>
    <g id="xtick_2">
     <g id="line2d_3">
      <path d="M 175.158582 135.55 
L 175.158582 34.56 
" clip-path="url(#pb6d63db187)" style="fill: none; stroke: #f0f0f0; stroke-width: 0.8; stroke-linecap: square"/>
     </g>
     <g id="line2d_4">
      <g>
       <use xlink:href="#m2a86f853d0" x="175.158582" y="135.55" style="stroke: #000000; stroke-width: 0.8"/>
      </g>
     </g>
     <g id="text_2">
      <!-- 5000 -->
      <g transform="translate(162.433582 150.148438) scale(0.1 -0.1)">
       <defs>
        <path id="DejaVuSans-35" d="M 691 4666 
L 3169 4666 
L 3169 4134 
L 1269 4134 
L 1269 2991 
Q 1406 3038 1543 3061 
Q 1681 3084 1819 3084 
Q 2600 3084 3056 2656 
Q 3513 2228 3513 1497 
Q 3513 744 3044 326 
Q 2575 -91 1722 -91 
Q 1428 -91 1123 -41 
Q 819 9 494 109 
L 494 744 
Q 775 591 1075 516 
Q 1375 441 1709 441 
Q 2250 441 2565 725 
Q 2881 1009 2881 1497 
Q 2881 1984 2565 2268 
Q 2250 2553 1709 2553 
Q 1456 2553 1204 2497 
Q 953 2441 691 2322 
L 691 4666 
z
" transform="scale(0.015625)"/>
       </defs>
       <use xlink:href="#DejaVuSans-35"/>
       <use xlink:href="#DejaVuSans-30" x="63.623047"/>
       <use xlink:href="#DejaVuSans-30" x="127.246094"/>
       <use xlink:href="#DejaVuSans-30" x="190.869141"/>
      </g>
     </g>
    </g>
    <g id="xtick_3">
     <g id="line2d_5">
      <path d="M 268.643518 135.55 
L 268.643518 34.56 
" clip-path="url(#pb6d63db187)" style="fill: none; stroke: #f0f0f0; stroke-width: 0.8; stroke-linecap: square"/>
     </g>
     <g id="line2d_6">
      <g>
       <use xlink:href="#m2a86f853d0" x="268.643518" y="135.55" style="stroke: #000000; stroke-width: 0.8"/>
      </g>
     </g>
     <g id="text_3">
      <!-- 10000 -->
      <g transform="translate(252.737268 150.148438) scale(0.1 -0.1)">
       <defs>
        <path id="DejaVuSans-31" d="M 794 531 
L 1825 531 
L 1825 4091 
L 703 3866 
L 703 4441 
L 1819 4666 
L 2450 4666 
L 2450 531 
L 3481 531 
L 3481 0 
L 794 0 
L 794 531 
z
" transform="scale(0.015625)"/>
       </defs>
       <use xlink:href="#DejaVuSans-31"/>
       <use xlink:href="#DejaVuSans-30" x="63.623047"/>
       <use xlink:href="#DejaVuSans-30" x="127.246094"/>
       <use xlink:href="#DejaVuSans-30" x="190.869141"/>
       <use xlink:href="#DejaVuSans-30" x="254.492188"/>
      </g>
     </g>
    </g>
    <g id="xtick_4">
     <g id="line2d_7">
      <path d="M 362.128455 135.55 
L 362.128455 34.56 
" clip-path="url(#pb6d63db187)" style="fill: none; stroke: #f0f0f0; stroke-width: 0.8; stroke-linecap: square"/>
     </g>
     <g id="line2d_8">
      <g>
       <use xlink:href="#m2a86f853d0" x="362.128455" y="135.55" style="stroke: #000000; stroke-width: 0.8"/>
      </g>
     </g>
     <g id="text_4">
      <!-- 15000 -->
      <g transform="translate(346.222205 150.148438) scale(0.1 -0.1)">
       <use xlink:href="#DejaVuSans-31"/>
       <use xlink:href="#DejaVuSans-35" x="63.623047"/>
       <use xlink:href="#DejaVuSans-30" x="127.246094"/>
       <use xlink:href="#DejaVuSans-30" x="190.869141"/>
       <use xlink:href="#DejaVuSans-30" x="254.492188"/>
      </g>
     </g>
    </g>
    <g id="xtick_5">
     <g id="line2d_9">
      <path d="M 455.613391 135.55 
L 455.613391 34.56 
" clip-path="url(#pb6d63db187)" style="fill: none; stroke: #f0f0f0; stroke-width: 0.8; stroke-linecap: square"/>
     </g>
     <g id="line2d_10">
      <g>
       <use xlink:href="#m2a86f853d0" x="455.613391" y="135.55" style="stroke: #000000; stroke-width: 0.8"/>
      </g>
     </g>
     <g id="text_5">
      <!-- 20000 -->
      <g transform="translate(439.707141 150.148438) scale(0.1 -0.1)">
       <defs>
        <path id="DejaVuSans-32" d="M 1228 531 
L 3431 531 
L 3431 0 
L 469 0 
L 469 531 
Q 828 903 1448 1529 
Q 2069 2156 2228 2338 
Q 2531 2678 2651 2914 
Q 2772 3150 2772 3378 
Q 2772 3750 2511 3984 
Q 2250 4219 1831 4219 
Q 1534 4219 1204 4116 
Q 875 4013 500 3803 
L 500 4441 
Q 881 4594 1212 4672 
Q 1544 4750 1819 4750 
Q 2544 4750 2975 4387 
Q 3406 4025 3406 3419 
Q 3406 3131 3298 2873 
Q 3191 2616 2906 2266 
Q 2828 2175 2409 1742 
Q 1991 1309 1228 531 
z
" transform="scale(0.015625)"/>
       </defs>
       <use xlink:href="#DejaVuSans-32"/>
       <use xlink:href="#DejaVuSans-30" x="63.623047"/>
       <use xlink:href="#DejaVuSans-30" x="127.246094"/>
       <use xlink:href="#DejaVuSans-30" x="190.869141"/>
       <use xlink:href="#DejaVuSans-30" x="254.492188"/>
      </g>
     </g>
    </g>
    <g id="xtick_6">
     <g id="line2d_11">
      <path d="M 549.098327 135.55 
L 549.098327 34.56 
" clip-path="url(#pb6d63db187)" style="fill: none; stroke: #f0f0f0; stroke-width: 0.8; stroke-linecap: square"/>
     </g>
     <g id="line2d_12">
      <g>
       <use xlink:href="#m2a86f853d0" x="549.098327" y="135.55" style="stroke: #000000; stroke-width: 0.8"/>
      </g>
     </g>
     <g id="text_6">
      <!-- 25000 -->
      <g transform="translate(533.192077 150.148438) scale(0.1 -0.1)">
       <use xlink:href="#DejaVuSans-32"/>
       <use xlink:href="#DejaVuSans-35" x="63.623047"/>
       <use xlink:href="#DejaVuSans-30" x="127.246094"/>
       <use xlink:href="#DejaVuSans-30" x="190.869141"/>
       <use xlink:href="#DejaVuSans-30" x="254.492188"/>
      </g>
     </g>
    </g>
   </g>
   <g id="matplotlib.axis_2">
    <g id="ytick_1">
     <g id="line2d_13">
      <path d="M 59.24 135.55 
L 552.780209 135.55 
" clip-path="url(#pb6d63db187)" style="fill: none; stroke: #f0f0f0; stroke-width: 0.8; stroke-linecap: square"/>
     </g>
     <g id="line2d_14">
      <defs>
       <path id="m5fd6bd5a83" d="M 0 0 
L -3.5 0 
" style="stroke: #000000; stroke-width: 0.8"/>
      </defs>
      <g>
       <use xlink:href="#m5fd6bd5a83" x="59.24" y="135.55" style="stroke: #000000; stroke-width: 0.8"/>
      </g>
     </g>
     <g id="text_7">
      <!-- −20 -->
      <g transform="translate(31.135313 139.349219) scale(0.1 -0.1)">
       <defs>
        <path id="DejaVuSans-2212" d="M 678 2272 
L 4684 2272 
L 4684 1741 
L 678 1741 
L 678 2272 
z
" transform="scale(0.015625)"/>
       </defs>
       <use xlink:href="#DejaVuSans-2212"/>
       <use xlink:href="#DejaVuSans-32" x="83.789062"/>
       <use xlink:href="#DejaVuSans-30" x="147.412109"/>
      </g>
     </g>
    </g>
    <g id="ytick_2">
     <g id="line2d_15">
      <path d="M 59.24 113.595652 
L 552.780209 113.595652 
" clip-path="url(#pb6d63db187)" style="fill: none; stroke: #f0f0f0; stroke-width: 0.8; stroke-linecap: square"/>
     </g>
     <g id="line2d_16">
      <g>
       <use xlink:href="#m5fd6bd5a83" x="59.24" y="113.595652" style="stroke: #000000; stroke-width: 0.8"/>
      </g>
     </g>
     <g id="text_8">
      <!-- −15 -->
      <g transform="translate(31.135313 117.394871) scale(0.1 -0.1)">
       <use xlink:href="#DejaVuSans-2212"/>
       <use xlink:href="#DejaVuSans-31" x="83.789062"/>
       <use xlink:href="#DejaVuSans-35" x="147.412109"/>
      </g>
     </g>
    </g>
    <g id="ytick_3">
     <g id="line2d_17">
      <path d="M 59.24 91.641304 
L 552.780209 91.641304 
" clip-path="url(#pb6d63db187)" style="fill: none; stroke: #f0f0f0; stroke-width: 0.8; stroke-linecap: square"/>
     </g>
     <g id="line2d_18">
      <g>
       <use xlink:href="#m5fd6bd5a83" x="59.24" y="91.641304" style="stroke: #000000; stroke-width: 0.8"/>
      </g>
     </g>
     <g id="text_9">
      <!-- −10 -->
      <g transform="translate(31.135313 95.440523) scale(0.1 -0.1)">
       <use xlink:href="#DejaVuSans-2212"/>
       <use xlink:href="#DejaVuSans-31" x="83.789062"/>
       <use xlink:href="#DejaVuSans-30" x="147.412109"/>
      </g>
     </g>
    </g>
    <g id="ytick_4">
     <g id="line2d_19">
      <path d="M 59.24 69.686957 
L 552.780209 69.686957 
" clip-path="url(#pb6d63db187)" style="fill: none; stroke: #f0f0f0; stroke-width: 0.8; stroke-linecap: square"/>
     </g>
     <g id="line2d_20">
      <g>
       <use xlink:href="#m5fd6bd5a83" x="59.24" y="69.686957" style="stroke: #000000; stroke-width: 0.8"/>
      </g>
     </g>
     <g id="text_10">
      <!-- −5 -->
      <g transform="translate(37.497813 73.486175) scale(0.1 -0.1)">
       <use xlink:href="#DejaVuSans-2212"/>
       <use xlink:href="#DejaVuSans-35" x="83.789062"/>
      </g>
     </g>
    </g>
    <g id="ytick_5">
     <g id="line2d_21">
      <path d="M 59.24 47.732609 
L 552.780209 47.732609 
" clip-path="url(#pb6d63db187)" style="fill: none; stroke: #f0f0f0; stroke-width: 0.8; stroke-linecap: square"/>
     </g>
     <g id="line2d_22">
      <g>
       <use xlink:href="#m5fd6bd5a83" x="59.24" y="47.732609" style="stroke: #000000; stroke-width: 0.8"/>
      </g>
     </g>
     <g id="text_11">
      <!-- 0 -->
      <g transform="translate(45.8775 51.531827) scale(0.1 -0.1)">
       <use xlink:href="#DejaVuSans-30"/>
      </g>
     </g>
    </g>
    <g id="text_12">
     <!-- Gain [dB] -->
     <g transform="translate(25.055625 108.646406) rotate(-90) scale(0.1 -0.1)">
      <defs>
       <path id="DejaVuSans-47" d="M 3809 666 
L 3809 1919 
L 2778 1919 
L 2778 2438 
L 4434 2438 
L 4434 434 
Q 4069 175 3628 42 
Q 3188 -91 2688 -91 
Q 1594 -91 976 548 
Q 359 1188 359 2328 
Q 359 3472 976 4111 
Q 1594 4750 2688 4750 
Q 3144 4750 3555 4637 
Q 3966 4525 4313 4306 
L 4313 3634 
Q 3963 3931 3569 4081 
Q 3175 4231 2741 4231 
Q 1884 4231 1454 3753 
Q 1025 3275 1025 2328 
Q 1025 1384 1454 906 
Q 1884 428 2741 428 
Q 3075 428 3337 486 
Q 3600 544 3809 666 
z
" transform="scale(0.015625)"/>
       <path id="DejaVuSans-61" d="M 2194 1759 
Q 1497 1759 1228 1600 
Q 959 1441 959 1056 
Q 959 750 1161 570 
Q 1363 391 1709 391 
Q 2188 391 2477 730 
Q 2766 1069 2766 1631 
L 2766 1759 
L 2194 1759 
z
M 3341 1997 
L 3341 0 
L 2766 0 
L 2766 531 
Q 2569 213 2275 61 
Q 1981 -91 1556 -91 
Q 1019 -91 701 211 
Q 384 513 384 1019 
Q 384 1609 779 1909 
Q 1175 2209 1959 2209 
L 2766 2209 
L 2766 2266 
Q 2766 2663 2505 2880 
Q 2244 3097 1772 3097 
Q 1472 3097 1187 3025 
Q 903 2953 641 2809 
L 641 3341 
Q 956 3463 1253 3523 
Q 1550 3584 1831 3584 
Q 2591 3584 2966 3190 
Q 3341 2797 3341 1997 
z
" transform="scale(0.015625)"/>
       <path id="DejaVuSans-69" d="M 603 3500 
L 1178 3500 
L 1178 0 
L 603 0 
L 603 3500 
z
M 603 4863 
L 1178 4863 
L 1178 4134 
L 603 4134 
L 603 4863 
z
" transform="scale(0.015625)"/>
       <path id="DejaVuSans-6e" d="M 3513 2113 
L 3513 0 
L 2938 0 
L 2938 2094 
Q 2938 2591 2744 2837 
Q 2550 3084 2163 3084 
Q 1697 3084 1428 2787 
Q 1159 2491 1159 1978 
L 1159 0 
L 581 0 
L 581 3500 
L 1159 3500 
L 1159 2956 
Q 1366 3272 1645 3428 
Q 1925 3584 2291 3584 
Q 2894 3584 3203 3211 
Q 3513 2838 3513 2113 
z
" transform="scale(0.015625)"/>
       <path id="DejaVuSans-20" transform="scale(0.015625)"/>
       <path id="DejaVuSans-5b" d="M 550 4863 
L 1875 4863 
L 1875 4416 
L 1125 4416 
L 1125 -397 
L 1875 -397 
L 1875 -844 
L 550 -844 
L 550 4863 
z
" transform="scale(0.015625)"/>
       <path id="DejaVuSans-64" d="M 2906 2969 
L 2906 4863 
L 3481 4863 
L 3481 0 
L 2906 0 
L 2906 525 
Q 2725 213 2448 61 
Q 2172 -91 1784 -91 
Q 1150 -91 751 415 
Q 353 922 353 1747 
Q 353 2572 751 3078 
Q 1150 3584 1784 3584 
Q 2172 3584 2448 3432 
Q 2725 3281 2906 2969 
z
M 947 1747 
Q 947 1113 1208 752 
Q 1469 391 1925 391 
Q 2381 391 2643 752 
Q 2906 1113 2906 1747 
Q 2906 2381 2643 2742 
Q 2381 3103 1925 3103 
Q 1469 3103 1208 2742 
Q 947 2381 947 1747 
z
" transform="scale(0.015625)"/>
       <path id="DejaVuSans-42" d="M 1259 2228 
L 1259 519 
L 2272 519 
Q 2781 519 3026 730 
Q 3272 941 3272 1375 
Q 3272 1813 3026 2020 
Q 2781 2228 2272 2228 
L 1259 2228 
z
M 1259 4147 
L 1259 2741 
L 2194 2741 
Q 2656 2741 2882 2914 
Q 3109 3088 3109 3444 
Q 3109 3797 2882 3972 
Q 2656 4147 2194 4147 
L 1259 4147 
z
M 628 4666 
L 2241 4666 
Q 2963 4666 3353 4366 
Q 3744 4066 3744 3513 
Q 3744 3084 3544 2831 
Q 3344 2578 2956 2516 
Q 3422 2416 3680 2098 
Q 3938 1781 3938 1306 
Q 3938 681 3513 340 
Q 3088 0 2303 0 
L 628 0 
L 628 4666 
z
" transform="scale(0.015625)"/>
       <path id="DejaVuSans-5d" d="M 1947 4863 
L 1947 -844 
L 622 -844 
L 622 -397 
L 1369 -397 
L 1369 4416 
L 622 4416 
L 622 4863 
L 1947 4863 
z
" transform="scale(0.015625)"/>
      </defs>
      <use xlink:href="#DejaVuSans-47"/>
      <use xlink:href="#DejaVuSans-61" x="77.490234"/>
      <use xlink:href="#DejaVuSans-69" x="138.769531"/>
      <use xlink:href="#DejaVuSans-6e" x="166.552734"/>
      <use xlink:href="#DejaVuSans-20" x="229.931641"/>
      <use xlink:href="#DejaVuSans-5b" x="261.71875"/>
      <use xlink:href="#DejaVuSans-64" x="300.732422"/>
      <use xlink:href="#DejaVuSans-42" x="364.208984"/>
      <use xlink:href="#DejaVuSans-5d" x="432.8125"/>
     </g>
    </g>
   </g>
   <g id="line2d_23">
    <path d="M 81.673646 47.732609 
L 103.365072 47.843762 
L 125.111275 48.175903 
L 147.953005 48.765781 
L 170.137419 49.587246 
L 188.597042 50.474608 
L 208.31652 51.610712 
L 231.651237 53.241524 
L 252.028032 54.953255 
L 265.831667 56.281616 
L 288.399515 58.72295 
L 307.187796 61.099312 
L 318.526496 62.684978 
L 339.286725 65.924127 
L 348.598701 67.581706 
L 369.742364 71.672433 
L 377.958814 73.532086 
L 398.226056 78.433324 
L 404.963545 80.367589 
L 424.518694 86.360961 
L 429.667669 88.218088 
L 436.240829 90.855327 
L 453.714478 98.152132 
L 457.548821 100.133753 
L 461.930928 102.665927 
L 479.842787 113.5546 
L 482.581604 115.60235 
L 485.156091 117.809707 
L 487.840132 120.416566 
L 490.962382 123.776145 
L 501.917648 135.855915 
L 505.587662 139.843451 
L 507.55961 142.320257 
L 509.2029 144.736672 
L 510.681861 147.298447 
L 512.106046 150.21264 
L 513.475454 153.525933 
L 514.844862 157.445261 
L 516.159494 161.889263 
L 517.474126 167.129683 
L 518.788758 173.324997 
L 520.048614 180.34842 
L 521.308469 188.683828 
L 522.513548 198.205091 
L 523.663851 209.126556 
L 524.759378 221.761695 
L 525.745352 235.725612 
L 526.676549 252.198784 
L 527.498194 270.791777 
L 528.210287 291.911056 
L 528.812826 316.071525 
L 529.36059 347.634004 
L 529.7988 387.338267 
L 530.127458 439.00805 
L 530.346564 514.651801 
L 530.346564 514.651801 
" clip-path="url(#pb6d63db187)" style="fill: none; stroke: #1f77b4; stroke-opacity: 0.5; stroke-width: 1.5; stroke-linecap: square"/>
   </g>
   <g id="line2d_24">
    <path d="M 81.673646 47.732609 
L 358.62277 47.843613 
L 367.003548 48.098053 
L 372.919392 48.491447 
L 377.739709 49.029822 
L 381.90271 49.715729 
L 385.6275 50.552424 
L 389.023633 51.538348 
L 392.255436 52.708004 
L 395.322911 54.056418 
L 398.280832 55.602653 
L 401.129201 57.343203 
L 403.922794 59.311373 
L 406.661611 61.511612 
L 409.400427 63.998647 
L 412.139244 66.790729 
L 414.87806 69.905659 
L 417.616877 73.360799 
L 420.355693 77.17311 
L 423.149286 81.446854 
L 425.942879 86.126825 
L 428.791248 91.334583 
L 431.694394 97.114134 
L 434.652315 103.512168 
L 437.610237 110.444793 
L 440.622935 118.076983 
L 443.69041 126.463583 
L 446.812661 135.663562 
L 449.934911 145.560587 
L 453.111938 156.377119 
L 456.343742 168.186176 
L 459.575545 180.845811 
L 462.862125 194.635037 
L 466.148705 209.39474 
L 469.435285 225.178383 
L 472.776641 242.336687 
L 476.117997 260.68695 
L 479.404577 279.978625 
L 482.691157 300.592732 
L 485.977736 322.634161 
L 489.20954 345.81982 
L 492.441343 370.645 
L 495.61837 396.810905 
L 498.685845 423.916097 
L 501.698543 452.511527 
L 504.656465 482.742577 
L 507.504834 514.16673 
L 510.24365 546.865521 
L 512.579345 577 
L 512.579345 577 
" clip-path="url(#pb6d63db187)" style="fill: none; stroke: #ff7f0e; stroke-opacity: 0.5; stroke-width: 1.5; stroke-linecap: square"/>
   </g>
   <g id="line2d_25">
    <path d="M 530.40134 135.55 
L 530.40134 34.56 
" clip-path="url(#pb6d63db187)" style="fill: none; stroke-dasharray: 5.55,2.4; stroke-dashoffset: 0; stroke: #000000; stroke-width: 1.5"/>
   </g>
   <g id="line2d_26">
    <path d="M 418.219416 135.55 
L 418.219416 34.56 
" clip-path="url(#pb6d63db187)" style="fill: none; stroke-dasharray: 5.55,2.4; stroke-dashoffset: 0; stroke: #000000; stroke-opacity: 0.2; stroke-width: 1.5"/>
   </g>
   <g id="patch_3">
    <path d="M 59.24 135.55 
L 59.24 34.56 
" style="fill: none; stroke: #000000; stroke-width: 0.8; stroke-linejoin: miter; stroke-linecap: square"/>
   </g>
   <g id="patch_4">
    <path d="M 552.780209 135.55 
L 552.780209 34.56 
" style="fill: none; stroke: #000000; stroke-width: 0.8; stroke-linejoin: miter; stroke-linecap: square"/>
   </g>
   <g id="patch_5">
    <path d="M 59.24 135.55 
L 552.780209 135.55 
" style="fill: none; stroke: #000000; stroke-width: 0.8; stroke-linejoin: miter; stroke-linecap: square"/>
   </g>
   <g id="patch_6">
    <path d="M 59.24 34.56 
L 552.780209 34.56 
" style="fill: none; stroke: #000000; stroke-width: 0.8; stroke-linejoin: miter; stroke-linecap: square"/>
   </g>
   <g id="legend_1">
    <g id="patch_7">
     <path d="M 66.24 130.55 
L 276.43375 130.55 
Q 278.43375 130.55 278.43375 128.55 
L 278.43375 100.19375 
Q 278.43375 98.19375 276.43375 98.19375 
L 66.24 98.19375 
Q 64.24 98.19375 64.24 100.19375 
L 64.24 128.55 
Q 64.24 130.55 66.24 130.55 
z
" style="fill: #ffffff; opacity: 0.8; stroke: #cccccc; stroke-linejoin: miter"/>
    </g>
    <g id="line2d_27">
     <path d="M 68.24 106.292188 
L 78.24 106.292188 
L 88.24 106.292188 
" style="fill: none; stroke: #1f77b4; stroke-opacity: 0.5; stroke-width: 1.5; stroke-linecap: square"/>
    </g>
    <g id="text_13">
     <!-- MaxUnderRead -->
     <g transform="translate(96.24 109.792188) scale(0.1 -0.1)">
      <defs>
       <path id="DejaVuSans-4d" d="M 628 4666 
L 1569 4666 
L 2759 1491 
L 3956 4666 
L 4897 4666 
L 4897 0 
L 4281 0 
L 4281 4097 
L 3078 897 
L 2444 897 
L 1241 4097 
L 1241 0 
L 628 0 
L 628 4666 
z
" transform="scale(0.015625)"/>
       <path id="DejaVuSans-78" d="M 3513 3500 
L 2247 1797 
L 3578 0 
L 2900 0 
L 1881 1375 
L 863 0 
L 184 0 
L 1544 1831 
L 300 3500 
L 978 3500 
L 1906 2253 
L 2834 3500 
L 3513 3500 
z
" transform="scale(0.015625)"/>
       <path id="DejaVuSans-55" d="M 556 4666 
L 1191 4666 
L 1191 1831 
Q 1191 1081 1462 751 
Q 1734 422 2344 422 
Q 2950 422 3222 751 
Q 3494 1081 3494 1831 
L 3494 4666 
L 4128 4666 
L 4128 1753 
Q 4128 841 3676 375 
Q 3225 -91 2344 -91 
Q 1459 -91 1007 375 
Q 556 841 556 1753 
L 556 4666 
z
" transform="scale(0.015625)"/>
       <path id="DejaVuSans-65" d="M 3597 1894 
L 3597 1613 
L 953 1613 
Q 991 1019 1311 708 
Q 1631 397 2203 397 
Q 2534 397 2845 478 
Q 3156 559 3463 722 
L 3463 178 
Q 3153 47 2828 -22 
Q 2503 -91 2169 -91 
Q 1331 -91 842 396 
Q 353 884 353 1716 
Q 353 2575 817 3079 
Q 1281 3584 2069 3584 
Q 2775 3584 3186 3129 
Q 3597 2675 3597 1894 
z
M 3022 2063 
Q 3016 2534 2758 2815 
Q 2500 3097 2075 3097 
Q 1594 3097 1305 2825 
Q 1016 2553 972 2059 
L 3022 2063 
z
" transform="scale(0.015625)"/>
       <path id="DejaVuSans-72" d="M 2631 2963 
Q 2534 3019 2420 3045 
Q 2306 3072 2169 3072 
Q 1681 3072 1420 2755 
Q 1159 2438 1159 1844 
L 1159 0 
L 581 0 
L 581 3500 
L 1159 3500 
L 1159 2956 
Q 1341 3275 1631 3429 
Q 1922 3584 2338 3584 
Q 2397 3584 2469 3576 
Q 2541 3569 2628 3553 
L 2631 2963 
z
" transform="scale(0.015625)"/>
       <path id="DejaVuSans-52" d="M 2841 2188 
Q 3044 2119 3236 1894 
Q 3428 1669 3622 1275 
L 4263 0 
L 3584 0 
L 2988 1197 
Q 2756 1666 2539 1819 
Q 2322 1972 1947 1972 
L 1259 1972 
L 1259 0 
L 628 0 
L 628 4666 
L 2053 4666 
Q 2853 4666 3247 4331 
Q 3641 3997 3641 3322 
Q 3641 2881 3436 2590 
Q 3231 2300 2841 2188 
z
M 1259 4147 
L 1259 2491 
L 2053 2491 
Q 2509 2491 2742 2702 
Q 2975 2913 2975 3322 
Q 2975 3731 2742 3939 
Q 2509 4147 2053 4147 
L 1259 4147 
z
" transform="scale(0.015625)"/>
      </defs>
      <use xlink:href="#DejaVuSans-4d"/>
      <use xlink:href="#DejaVuSans-61" x="86.279297"/>
      <use xlink:href="#DejaVuSans-78" x="147.558594"/>
      <use xlink:href="#DejaVuSans-55" x="206.738281"/>
      <use xlink:href="#DejaVuSans-6e" x="279.931641"/>
      <use xlink:href="#DejaVuSans-64" x="343.310547"/>
      <use xlink:href="#DejaVuSans-65" x="406.787109"/>
      <use xlink:href="#DejaVuSans-72" x="468.310547"/>
      <use xlink:href="#DejaVuSans-52" x="509.423828"/>
      <use xlink:href="#DejaVuSans-65" x="574.40625"/>
      <use xlink:href="#DejaVuSans-61" x="635.929688"/>
      <use xlink:href="#DejaVuSans-64" x="697.208984"/>
     </g>
    </g>
    <g id="line2d_28">
     <path d="M 68.24 120.970313 
L 78.24 120.970313 
L 88.24 120.970313 
" style="fill: none; stroke: #ff7f0e; stroke-opacity: 0.5; stroke-width: 1.5; stroke-linecap: square"/>
    </g>
    <g id="text_14">
     <!-- BasicLimiter -->
     <g transform="translate(96.24 124.470313) scale(0.1 -0.1)">
      <defs>
       <path id="DejaVuSans-73" d="M 2834 3397 
L 2834 2853 
Q 2591 2978 2328 3040 
Q 2066 3103 1784 3103 
Q 1356 3103 1142 2972 
Q 928 2841 928 2578 
Q 928 2378 1081 2264 
Q 1234 2150 1697 2047 
L 1894 2003 
Q 2506 1872 2764 1633 
Q 3022 1394 3022 966 
Q 3022 478 2636 193 
Q 2250 -91 1575 -91 
Q 1294 -91 989 -36 
Q 684 19 347 128 
L 347 722 
Q 666 556 975 473 
Q 1284 391 1588 391 
Q 1994 391 2212 530 
Q 2431 669 2431 922 
Q 2431 1156 2273 1281 
Q 2116 1406 1581 1522 
L 1381 1569 
Q 847 1681 609 1914 
Q 372 2147 372 2553 
Q 372 3047 722 3315 
Q 1072 3584 1716 3584 
Q 2034 3584 2315 3537 
Q 2597 3491 2834 3397 
z
" transform="scale(0.015625)"/>
       <path id="DejaVuSans-63" d="M 3122 3366 
L 3122 2828 
Q 2878 2963 2633 3030 
Q 2388 3097 2138 3097 
Q 1578 3097 1268 2742 
Q 959 2388 959 1747 
Q 959 1106 1268 751 
Q 1578 397 2138 397 
Q 2388 397 2633 464 
Q 2878 531 3122 666 
L 3122 134 
Q 2881 22 2623 -34 
Q 2366 -91 2075 -91 
Q 1284 -91 818 406 
Q 353 903 353 1747 
Q 353 2603 823 3093 
Q 1294 3584 2113 3584 
Q 2378 3584 2631 3529 
Q 2884 3475 3122 3366 
z
" transform="scale(0.015625)"/>
       <path id="DejaVuSans-4c" d="M 628 4666 
L 1259 4666 
L 1259 531 
L 3531 531 
L 3531 0 
L 628 0 
L 628 4666 
z
" transform="scale(0.015625)"/>
       <path id="DejaVuSans-6d" d="M 3328 2828 
Q 3544 3216 3844 3400 
Q 4144 3584 4550 3584 
Q 5097 3584 5394 3201 
Q 5691 2819 5691 2113 
L 5691 0 
L 5113 0 
L 5113 2094 
Q 5113 2597 4934 2840 
Q 4756 3084 4391 3084 
Q 3944 3084 3684 2787 
Q 3425 2491 3425 1978 
L 3425 0 
L 2847 0 
L 2847 2094 
Q 2847 2600 2669 2842 
Q 2491 3084 2119 3084 
Q 1678 3084 1418 2786 
Q 1159 2488 1159 1978 
L 1159 0 
L 581 0 
L 581 3500 
L 1159 3500 
L 1159 2956 
Q 1356 3278 1631 3431 
Q 1906 3584 2284 3584 
Q 2666 3584 2933 3390 
Q 3200 3197 3328 2828 
z
" transform="scale(0.015625)"/>
       <path id="DejaVuSans-74" d="M 1172 4494 
L 1172 3500 
L 2356 3500 
L 2356 3053 
L 1172 3053 
L 1172 1153 
Q 1172 725 1289 603 
Q 1406 481 1766 481 
L 2356 481 
L 2356 0 
L 1766 0 
Q 1100 0 847 248 
Q 594 497 594 1153 
L 594 3053 
L 172 3053 
L 172 3500 
L 594 3500 
L 594 4494 
L 1172 4494 
z
" transform="scale(0.015625)"/>
      </defs>
      <use xlink:href="#DejaVuSans-42"/>
      <use xlink:href="#DejaVuSans-61" x="68.603516"/>
      <use xlink:href="#DejaVuSans-73" x="129.882812"/>
      <use xlink:href="#DejaVuSans-69" x="181.982422"/>
      <use xlink:href="#DejaVuSans-63" x="209.765625"/>
      <use xlink:href="#DejaVuSans-4c" x="264.746094"/>
      <use xlink:href="#DejaVuSans-69" x="320.458984"/>
      <use xlink:href="#DejaVuSans-6d" x="348.242188"/>
      <use xlink:href="#DejaVuSans-69" x="445.654297"/>
      <use xlink:href="#DejaVuSans-74" x="473.4375"/>
      <use xlink:href="#DejaVuSans-65" x="512.646484"/>
      <use xlink:href="#DejaVuSans-72" x="574.169922"/>
     </g>
    </g>
    <g id="line2d_29">
     <path d="M 192.311875 106.292188 
L 202.311875 106.292188 
L 212.311875 106.292188 
" style="fill: none; stroke-dasharray: 5.55,2.4; stroke-dashoffset: 0; stroke: #000000; stroke-width: 1.5"/>
    </g>
    <g id="text_15">
     <!-- Nyquist -->
     <g transform="translate(220.311875 109.792188) scale(0.1 -0.1)">
      <defs>
       <path id="DejaVuSans-4e" d="M 628 4666 
L 1478 4666 
L 3547 763 
L 3547 4666 
L 4159 4666 
L 4159 0 
L 3309 0 
L 1241 3903 
L 1241 0 
L 628 0 
L 628 4666 
z
" transform="scale(0.015625)"/>
       <path id="DejaVuSans-79" d="M 2059 -325 
Q 1816 -950 1584 -1140 
Q 1353 -1331 966 -1331 
L 506 -1331 
L 506 -850 
L 844 -850 
Q 1081 -850 1212 -737 
Q 1344 -625 1503 -206 
L 1606 56 
L 191 3500 
L 800 3500 
L 1894 763 
L 2988 3500 
L 3597 3500 
L 2059 -325 
z
" transform="scale(0.015625)"/>
       <path id="DejaVuSans-71" d="M 947 1747 
Q 947 1113 1208 752 
Q 1469 391 1925 391 
Q 2381 391 2643 752 
Q 2906 1113 2906 1747 
Q 2906 2381 2643 2742 
Q 2381 3103 1925 3103 
Q 1469 3103 1208 2742 
Q 947 2381 947 1747 
z
M 2906 525 
Q 2725 213 2448 61 
Q 2172 -91 1784 -91 
Q 1150 -91 751 415 
Q 353 922 353 1747 
Q 353 2572 751 3078 
Q 1150 3584 1784 3584 
Q 2172 3584 2448 3432 
Q 2725 3281 2906 2969 
L 2906 3500 
L 3481 3500 
L 3481 -1331 
L 2906 -1331 
L 2906 525 
z
" transform="scale(0.015625)"/>
       <path id="DejaVuSans-75" d="M 544 1381 
L 544 3500 
L 1119 3500 
L 1119 1403 
Q 1119 906 1312 657 
Q 1506 409 1894 409 
Q 2359 409 2629 706 
Q 2900 1003 2900 1516 
L 2900 3500 
L 3475 3500 
L 3475 0 
L 2900 0 
L 2900 538 
Q 2691 219 2414 64 
Q 2138 -91 1772 -91 
Q 1169 -91 856 284 
Q 544 659 544 1381 
z
M 1991 3584 
L 1991 3584 
z
" transform="scale(0.015625)"/>
      </defs>
      <use xlink:href="#DejaVuSans-4e"/>
      <use xlink:href="#DejaVuSans-79" x="74.804688"/>
      <use xlink:href="#DejaVuSans-71" x="133.984375"/>
      <use xlink:href="#DejaVuSans-75" x="197.460938"/>
      <use xlink:href="#DejaVuSans-69" x="260.839844"/>
      <use xlink:href="#DejaVuSans-73" x="288.623047"/>
      <use xlink:href="#DejaVuSans-74" x="340.722656"/>
     </g>
    </g>
    <g id="line2d_30">
     <path d="M 192.311875 120.970313 
L 202.311875 120.970313 
L 212.311875 120.970313 
" style="fill: none; stroke-dasharray: 5.55,2.4; stroke-dashoffset: 0; stroke: #000000; stroke-opacity: 0.2; stroke-width: 1.5"/>
    </g>
    <g id="text_16">
     <!-- 18000.0Hz -->
     <g transform="translate(220.311875 124.470313) scale(0.1 -0.1)">
      <defs>
       <path id="DejaVuSans-38" d="M 2034 2216 
Q 1584 2216 1326 1975 
Q 1069 1734 1069 1313 
Q 1069 891 1326 650 
Q 1584 409 2034 409 
Q 2484 409 2743 651 
Q 3003 894 3003 1313 
Q 3003 1734 2745 1975 
Q 2488 2216 2034 2216 
z
M 1403 2484 
Q 997 2584 770 2862 
Q 544 3141 544 3541 
Q 544 4100 942 4425 
Q 1341 4750 2034 4750 
Q 2731 4750 3128 4425 
Q 3525 4100 3525 3541 
Q 3525 3141 3298 2862 
Q 3072 2584 2669 2484 
Q 3125 2378 3379 2068 
Q 3634 1759 3634 1313 
Q 3634 634 3220 271 
Q 2806 -91 2034 -91 
Q 1263 -91 848 271 
Q 434 634 434 1313 
Q 434 1759 690 2068 
Q 947 2378 1403 2484 
z
M 1172 3481 
Q 1172 3119 1398 2916 
Q 1625 2713 2034 2713 
Q 2441 2713 2670 2916 
Q 2900 3119 2900 3481 
Q 2900 3844 2670 4047 
Q 2441 4250 2034 4250 
Q 1625 4250 1398 4047 
Q 1172 3844 1172 3481 
z
" transform="scale(0.015625)"/>
       <path id="DejaVuSans-2e" d="M 684 794 
L 1344 794 
L 1344 0 
L 684 0 
L 684 794 
z
" transform="scale(0.015625)"/>
       <path id="DejaVuSans-48" d="M 628 4666 
L 1259 4666 
L 1259 2753 
L 3553 2753 
L 3553 4666 
L 4184 4666 
L 4184 0 
L 3553 0 
L 3553 2222 
L 1259 2222 
L 1259 0 
L 628 0 
L 628 4666 
z
" transform="scale(0.015625)"/>
       <path id="DejaVuSans-7a" d="M 353 3500 
L 3084 3500 
L 3084 2975 
L 922 459 
L 3084 459 
L 3084 0 
L 275 0 
L 275 525 
L 2438 3041 
L 353 3041 
L 353 3500 
z
" transform="scale(0.015625)"/>
      </defs>
      <use xlink:href="#DejaVuSans-31"/>
      <use xlink:href="#DejaVuSans-38" x="63.623047"/>
      <use xlink:href="#DejaVuSans-30" x="127.246094"/>
      <use xlink:href="#DejaVuSans-30" x="190.869141"/>
      <use xlink:href="#DejaVuSans-30" x="254.492188"/>
      <use xlink:href="#DejaVuSans-2e" x="318.115234"/>
      <use xlink:href="#DejaVuSans-30" x="349.902344"/>
      <use xlink:href="#DejaVuSans-48" x="413.525391"/>
      <use xlink:href="#DejaVuSans-7a" x="488.720703"/>
     </g>
    </g>
   </g>
  </g>
  <g id="axes_2">
   <g id="patch_8">
    <path d="M 59.24 268.38 
L 552.780209 268.38 
L 552.780209 167.39 
L 59.24 167.39 
z
" style="fill: #ffffff"/>
   </g>
   <g id="matplotlib.axis_3">
    <g id="xtick_7">
     <g id="line2d_31">
      <path d="M 81.673646 268.38 
L 81.673646 167.39 
" clip-path="url(#pbb5a52d94d)" style="fill: none; stroke: #f0f0f0; stroke-width: 0.8; stroke-linecap: square"/>
     </g>
     <g id="line2d_32">
      <g>
       <use xlink:href="#m2a86f853d0" x="81.673646" y="268.38" style="stroke: #000000; stroke-width: 0.8"/>
      </g>
     </g>
     <g id="text_17">
      <!-- 0 -->
      <g transform="translate(78.492396 282.978437) scale(0.1 -0.1)">
       <use xlink:href="#DejaVuSans-30"/>
      </g>
     </g>
    </g>
    <g id="xtick_8">
     <g id="line2d_33">
      <path d="M 175.158582 268.38 
L 175.158582 167.39 
" clip-path="url(#pbb5a52d94d)" style="fill: none; stroke: #f0f0f0; stroke-width: 0.8; stroke-linecap: square"/>
     </g>
     <g id="line2d_34">
      <g>
       <use xlink:href="#m2a86f853d0" x="175.158582" y="268.38" style="stroke: #000000; stroke-width: 0.8"/>
      </g>
     </g>
     <g id="text_18">
      <!-- 5000 -->
      <g transform="translate(162.433582 282.978437) scale(0.1 -0.1)">
       <use xlink:href="#DejaVuSans-35"/>
       <use xlink:href="#DejaVuSans-30" x="63.623047"/>
       <use xlink:href="#DejaVuSans-30" x="127.246094"/>
       <use xlink:href="#DejaVuSans-30" x="190.869141"/>
      </g>
     </g>
    </g>
    <g id="xtick_9">
     <g id="line2d_35">
      <path d="M 268.643518 268.38 
L 268.643518 167.39 
" clip-path="url(#pbb5a52d94d)" style="fill: none; stroke: #f0f0f0; stroke-width: 0.8; stroke-linecap: square"/>
     </g>
     <g id="line2d_36">
      <g>
       <use xlink:href="#m2a86f853d0" x="268.643518" y="268.38" style="stroke: #000000; stroke-width: 0.8"/>
      </g>
     </g>
     <g id="text_19">
      <!-- 10000 -->
      <g transform="translate(252.737268 282.978437) scale(0.1 -0.1)">
       <use xlink:href="#DejaVuSans-31"/>
       <use xlink:href="#DejaVuSans-30" x="63.623047"/>
       <use xlink:href="#DejaVuSans-30" x="127.246094"/>
       <use xlink:href="#DejaVuSans-30" x="190.869141"/>
       <use xlink:href="#DejaVuSans-30" x="254.492188"/>
      </g>
     </g>
    </g>
    <g id="xtick_10">
     <g id="line2d_37">
      <path d="M 362.128455 268.38 
L 362.128455 167.39 
" clip-path="url(#pbb5a52d94d)" style="fill: none; stroke: #f0f0f0; stroke-width: 0.8; stroke-linecap: square"/>
     </g>
     <g id="line2d_38">
      <g>
       <use xlink:href="#m2a86f853d0" x="362.128455" y="268.38" style="stroke: #000000; stroke-width: 0.8"/>
      </g>
     </g>
     <g id="text_20">
      <!-- 15000 -->
      <g transform="translate(346.222205 282.978437) scale(0.1 -0.1)">
       <use xlink:href="#DejaVuSans-31"/>
       <use xlink:href="#DejaVuSans-35" x="63.623047"/>
       <use xlink:href="#DejaVuSans-30" x="127.246094"/>
       <use xlink:href="#DejaVuSans-30" x="190.869141"/>
       <use xlink:href="#DejaVuSans-30" x="254.492188"/>
      </g>
     </g>
    </g>
    <g id="xtick_11">
     <g id="line2d_39">
      <path d="M 455.613391 268.38 
L 455.613391 167.39 
" clip-path="url(#pbb5a52d94d)" style="fill: none; stroke: #f0f0f0; stroke-width: 0.8; stroke-linecap: square"/>
     </g>
     <g id="line2d_40">
      <g>
       <use xlink:href="#m2a86f853d0" x="455.613391" y="268.38" style="stroke: #000000; stroke-width: 0.8"/>
      </g>
     </g>
     <g id="text_21">
      <!-- 20000 -->
      <g transform="translate(439.707141 282.978437) scale(0.1 -0.1)">
       <use xlink:href="#DejaVuSans-32"/>
       <use xlink:href="#DejaVuSans-30" x="63.623047"/>
       <use xlink:href="#DejaVuSans-30" x="127.246094"/>
       <use xlink:href="#DejaVuSans-30" x="190.869141"/>
       <use xlink:href="#DejaVuSans-30" x="254.492188"/>
      </g>
     </g>
    </g>
    <g id="xtick_12">
     <g id="line2d_41">
      <path d="M 549.098327 268.38 
L 549.098327 167.39 
" clip-path="url(#pbb5a52d94d)" style="fill: none; stroke: #f0f0f0; stroke-width: 0.8; stroke-linecap: square"/>
     </g>
     <g id="line2d_42">
      <g>
       <use xlink:href="#m2a86f853d0" x="549.098327" y="268.38" style="stroke: #000000; stroke-width: 0.8"/>
      </g>
     </g>
     <g id="text_22">
      <!-- 25000 -->
      <g transform="translate(533.192077 282.978437) scale(0.1 -0.1)">
       <use xlink:href="#DejaVuSans-32"/>
       <use xlink:href="#DejaVuSans-35" x="63.623047"/>
       <use xlink:href="#DejaVuSans-30" x="127.246094"/>
       <use xlink:href="#DejaVuSans-30" x="190.869141"/>
       <use xlink:href="#DejaVuSans-30" x="254.492188"/>
      </g>
     </g>
    </g>
   </g>
   <g id="matplotlib.axis_4">
    <g id="ytick_6">
     <g id="line2d_43">
      <path d="M 59.24 268.38 
L 552.780209 268.38 
" clip-path="url(#pbb5a52d94d)" style="fill: none; stroke: #f0f0f0; stroke-width: 0.8; stroke-linecap: square"/>
     </g>
     <g id="line2d_44">
      <g>
       <use xlink:href="#m5fd6bd5a83" x="59.24" y="268.38" style="stroke: #000000; stroke-width: 0.8"/>
      </g>
     </g>
     <g id="text_23">
      <!-- −200 -->
      <g transform="translate(24.772813 272.179219) scale(0.1 -0.1)">
       <use xlink:href="#DejaVuSans-2212"/>
       <use xlink:href="#DejaVuSans-32" x="83.789062"/>
       <use xlink:href="#DejaVuSans-30" x="147.412109"/>
       <use xlink:href="#DejaVuSans-30" x="211.035156"/>
      </g>
     </g>
    </g>
    <g id="ytick_7">
     <g id="line2d_45">
      <path d="M 59.24 245.427727 
L 552.780209 245.427727 
" clip-path="url(#pbb5a52d94d)" style="fill: none; stroke: #f0f0f0; stroke-width: 0.8; stroke-linecap: square"/>
     </g>
     <g id="line2d_46">
      <g>
       <use xlink:href="#m5fd6bd5a83" x="59.24" y="245.427727" style="stroke: #000000; stroke-width: 0.8"/>
      </g>
     </g>
     <g id="text_24">
      <!-- −150 -->
      <g transform="translate(24.772813 249.226946) scale(0.1 -0.1)">
       <use xlink:href="#DejaVuSans-2212"/>
       <use xlink:href="#DejaVuSans-31" x="83.789062"/>
       <use xlink:href="#DejaVuSans-35" x="147.412109"/>
       <use xlink:href="#DejaVuSans-30" x="211.035156"/>
      </g>
     </g>
    </g>
    <g id="ytick_8">
     <g id="line2d_47">
      <path d="M 59.24 222.475455 
L 552.780209 222.475455 
" clip-path="url(#pbb5a52d94d)" style="fill: none; stroke: #f0f0f0; stroke-width: 0.8; stroke-linecap: square"/>
     </g>
     <g id="line2d_48">
      <g>
       <use xlink:href="#m5fd6bd5a83" x="59.24" y="222.475455" style="stroke: #000000; stroke-width: 0.8"/>
      </g>
     </g>
     <g id="text_25">
      <!-- −100 -->
      <g transform="translate(24.772813 226.274673) scale(0.1 -0.1)">
       <use xlink:href="#DejaVuSans-2212"/>
       <use xlink:href="#DejaVuSans-31" x="83.789062"/>
       <use xlink:href="#DejaVuSans-30" x="147.412109"/>
       <use xlink:href="#DejaVuSans-30" x="211.035156"/>
      </g>
     </g>
    </g>
    <g id="ytick_9">
     <g id="line2d_49">
      <path d="M 59.24 199.523182 
L 552.780209 199.523182 
" clip-path="url(#pbb5a52d94d)" style="fill: none; stroke: #f0f0f0; stroke-width: 0.8; stroke-linecap: square"/>
     </g>
     <g id="line2d_50">
      <g>
       <use xlink:href="#m5fd6bd5a83" x="59.24" y="199.523182" style="stroke: #000000; stroke-width: 0.8"/>
      </g>
     </g>
     <g id="text_26">
      <!-- −50 -->
      <g transform="translate(31.135313 203.322401) scale(0.1 -0.1)">
       <use xlink:href="#DejaVuSans-2212"/>
       <use xlink:href="#DejaVuSans-35" x="83.789062"/>
       <use xlink:href="#DejaVuSans-30" x="147.412109"/>
      </g>
     </g>
    </g>
    <g id="ytick_10">
     <g id="line2d_51">
      <path d="M 59.24 176.570909 
L 552.780209 176.570909 
" clip-path="url(#pbb5a52d94d)" style="fill: none; stroke: #f0f0f0; stroke-width: 0.8; stroke-linecap: square"/>
     </g>
     <g id="line2d_52">
      <g>
       <use xlink:href="#m5fd6bd5a83" x="59.24" y="176.570909" style="stroke: #000000; stroke-width: 0.8"/>
      </g>
     </g>
     <g id="text_27">
      <!-- 0 -->
      <g transform="translate(45.8775 180.370128) scale(0.1 -0.1)">
       <use xlink:href="#DejaVuSans-30"/>
      </g>
     </g>
    </g>
    <g id="text_28">
     <!-- Gain [dB] -->
     <g transform="translate(18.693125 241.476406) rotate(-90) scale(0.1 -0.1)">
      <use xlink:href="#DejaVuSans-47"/>
      <use xlink:href="#DejaVuSans-61" x="77.490234"/>
      <use xlink:href="#DejaVuSans-69" x="138.769531"/>
      <use xlink:href="#DejaVuSans-6e" x="166.552734"/>
      <use xlink:href="#DejaVuSans-20" x="229.931641"/>
      <use xlink:href="#DejaVuSans-5b" x="261.71875"/>
      <use xlink:href="#DejaVuSans-64" x="300.732422"/>
      <use xlink:href="#DejaVuSans-42" x="364.208984"/>
      <use xlink:href="#DejaVuSans-5d" x="432.8125"/>
     </g>
    </g>
   </g>
   <g id="line2d_53">
    <path d="M 81.673646 176.570909 
L 148.884203 176.682069 
L 213.84893 177.014685 
L 272.459603 177.536786 
L 321.7583 178.185688 
L 369.194601 179.061597 
L 402.443833 179.904623 
L 433.611565 180.966729 
L 460.178085 182.205225 
L 483.348473 183.731959 
L 490.524172 184.469945 
L 509.80544 186.816089 
L 512.927691 187.4856 
L 515.502178 188.263654 
L 517.693231 189.153838 
L 519.610403 190.165822 
L 521.308469 191.306718 
L 522.842206 192.606896 
L 524.156838 194.005602 
L 525.361918 195.620161 
L 526.402668 197.396961 
L 527.279089 199.321663 
L 528.045958 201.530555 
L 528.703274 204.101159 
L 529.251037 207.147388 
L 529.689248 210.827969 
L 530.017906 215.292299 
L 530.291787 222.361811 
L 530.346564 225.385188 
L 530.346564 225.385188 
" clip-path="url(#pbb5a52d94d)" style="fill: none; stroke: #1f77b4; stroke-opacity: 0.5; stroke-width: 1.5; stroke-linecap: square"/>
   </g>
   <g id="line2d_54">
    <path d="M 81.673646 176.570909 
L 375.877313 176.681806 
L 388.256764 176.94336 
L 397.678293 177.358582 
L 405.78519 177.934664 
L 413.125218 178.6766 
L 419.972259 179.590668 
L 426.435866 180.675735 
L 432.625591 181.938201 
L 438.596211 183.381571 
L 444.347726 184.998452 
L 449.934911 186.79838 
L 455.357768 188.777892 
L 460.616296 190.933134 
L 465.710494 193.260152 
L 470.640364 195.755136 
L 475.405905 198.414612 
L 480.007116 201.235627 
L 484.443999 204.215922 
L 488.716553 207.354131 
L 492.770001 210.60413 
L 496.659121 214.004634 
L 500.383911 217.557423 
L 503.889596 221.206692 
L 507.230952 225.007287 
L 510.353203 228.895624 
L 513.256349 232.862371 
L 515.995165 236.98428 
L 518.514876 241.182852 
L 520.815482 245.451022 
L 522.896983 249.781415 
L 524.759378 254.16524 
L 526.402668 258.592935 
L 527.826852 263.061342 
L 529.196261 268.12626 
L 530.017906 270.850242 
L 530.346564 271.275411 
L 530.346564 271.275411 
" clip-path="url(#pbb5a52d94d)" style="fill: none; stroke: #ff7f0e; stroke-opacity: 0.5; stroke-width: 1.5; stroke-linecap: square"/>
   </g>
   <g id="line2d_55">
    <path d="M 530.40134 268.38 
L 530.40134 167.39 
" clip-path="url(#pbb5a52d94d)" style="fill: none; stroke-dasharray: 5.55,2.4; stroke-dashoffset: 0; stroke: #000000; stroke-width: 1.5"/>
   </g>
   <g id="line2d_56">
    <path d="M 418.219416 268.38 
L 418.219416 167.39 
" clip-path="url(#pbb5a52d94d)" style="fill: none; stroke-dasharray: 5.55,2.4; stroke-dashoffset: 0; stroke: #000000; stroke-opacity: 0.2; stroke-width: 1.5"/>
   </g>
   <g id="patch_9">
    <path d="M 59.24 268.38 
L 59.24 167.39 
" style="fill: none; stroke: #000000; stroke-width: 0.8; stroke-linejoin: miter; stroke-linecap: square"/>
   </g>
   <g id="patch_10">
    <path d="M 552.780209 268.38 
L 552.780209 167.39 
" style="fill: none; stroke: #000000; stroke-width: 0.8; stroke-linejoin: miter; stroke-linecap: square"/>
   </g>
   <g id="patch_11">
    <path d="M 59.24 268.38 
L 552.780209 268.38 
" style="fill: none; stroke: #000000; stroke-width: 0.8; stroke-linejoin: miter; stroke-linecap: square"/>
   </g>
   <g id="patch_12">
    <path d="M 59.24 167.39 
L 552.780209 167.39 
" style="fill: none; stroke: #000000; stroke-width: 0.8; stroke-linejoin: miter; stroke-linecap: square"/>
   </g>
   <g id="legend_2">
    <g id="patch_13">
     <path d="M 66.24 263.38 
L 276.43375 263.38 
Q 278.43375 263.38 278.43375 261.38 
L 278.43375 233.02375 
Q 278.43375 231.02375 276.43375 231.02375 
L 66.24 231.02375 
Q 64.24 231.02375 64.24 233.02375 
L 64.24 261.38 
Q 64.24 263.38 66.24 263.38 
z
" style="fill: #ffffff; opacity: 0.8; stroke: #cccccc; stroke-linejoin: miter"/>
    </g>
    <g id="line2d_57">
     <path d="M 68.24 239.122187 
L 78.24 239.122187 
L 88.24 239.122187 
" style="fill: none; stroke: #1f77b4; stroke-opacity: 0.5; stroke-width: 1.5; stroke-linecap: square"/>
    </g>
    <g id="text_29">
     <!-- MaxUnderRead -->
     <g transform="translate(96.24 242.622187) scale(0.1 -0.1)">
      <use xlink:href="#DejaVuSans-4d"/>
      <use xlink:href="#DejaVuSans-61" x="86.279297"/>
      <use xlink:href="#DejaVuSans-78" x="147.558594"/>
      <use xlink:href="#DejaVuSans-55" x="206.738281"/>
      <use xlink:href="#DejaVuSans-6e" x="279.931641"/>
      <use xlink:href="#DejaVuSans-64" x="343.310547"/>
      <use xlink:href="#DejaVuSans-65" x="406.787109"/>
      <use xlink:href="#DejaVuSans-72" x="468.310547"/>
      <use xlink:href="#DejaVuSans-52" x="509.423828"/>
      <use xlink:href="#DejaVuSans-65" x="574.40625"/>
      <use xlink:href="#DejaVuSans-61" x="635.929688"/>
      <use xlink:href="#DejaVuSans-64" x="697.208984"/>
     </g>
    </g>
    <g id="line2d_58">
     <path d="M 68.24 253.800313 
L 78.24 253.800313 
L 88.24 253.800313 
" style="fill: none; stroke: #ff7f0e; stroke-opacity: 0.5; stroke-width: 1.5; stroke-linecap: square"/>
    </g>
    <g id="text_30">
     <!-- BasicLimiter -->
     <g transform="translate(96.24 257.300313) scale(0.1 -0.1)">
      <use xlink:href="#DejaVuSans-42"/>
      <use xlink:href="#DejaVuSans-61" x="68.603516"/>
      <use xlink:href="#DejaVuSans-73" x="129.882812"/>
      <use xlink:href="#DejaVuSans-69" x="181.982422"/>
      <use xlink:href="#DejaVuSans-63" x="209.765625"/>
      <use xlink:href="#DejaVuSans-4c" x="264.746094"/>
      <use xlink:href="#DejaVuSans-69" x="320.458984"/>
      <use xlink:href="#DejaVuSans-6d" x="348.242188"/>
      <use xlink:href="#DejaVuSans-69" x="445.654297"/>
      <use xlink:href="#DejaVuSans-74" x="473.4375"/>
      <use xlink:href="#DejaVuSans-65" x="512.646484"/>
      <use xlink:href="#DejaVuSans-72" x="574.169922"/>
     </g>
    </g>
    <g id="line2d_59">
     <path d="M 192.311875 239.122187 
L 202.311875 239.122187 
L 212.311875 239.122187 
" style="fill: none; stroke-dasharray: 5.55,2.4; stroke-dashoffset: 0; stroke: #000000; stroke-width: 1.5"/>
    </g>
    <g id="text_31">
     <!-- Nyquist -->
     <g transform="translate(220.311875 242.622187) scale(0.1 -0.1)">
      <use xlink:href="#DejaVuSans-4e"/>
      <use xlink:href="#DejaVuSans-79" x="74.804688"/>
      <use xlink:href="#DejaVuSans-71" x="133.984375"/>
      <use xlink:href="#DejaVuSans-75" x="197.460938"/>
      <use xlink:href="#DejaVuSans-69" x="260.839844"/>
      <use xlink:href="#DejaVuSans-73" x="288.623047"/>
      <use xlink:href="#DejaVuSans-74" x="340.722656"/>
     </g>
    </g>
    <g id="line2d_60">
     <path d="M 192.311875 253.800313 
L 202.311875 253.800313 
L 212.311875 253.800313 
" style="fill: none; stroke-dasharray: 5.55,2.4; stroke-dashoffset: 0; stroke: #000000; stroke-opacity: 0.2; stroke-width: 1.5"/>
    </g>
    <g id="text_32">
     <!-- 18000.0Hz -->
     <g transform="translate(220.311875 257.300313) scale(0.1 -0.1)">
      <use xlink:href="#DejaVuSans-31"/>
      <use xlink:href="#DejaVuSans-38" x="63.623047"/>
      <use xlink:href="#DejaVuSans-30" x="127.246094"/>
      <use xlink:href="#DejaVuSans-30" x="190.869141"/>
      <use xlink:href="#DejaVuSans-30" x="254.492188"/>
      <use xlink:href="#DejaVuSans-2e" x="318.115234"/>
      <use xlink:href="#DejaVuSans-30" x="349.902344"/>
      <use xlink:href="#DejaVuSans-48" x="413.525391"/>
      <use xlink:href="#DejaVuSans-7a" x="488.720703"/>
     </g>
    </g>
   </g>
  </g>
  <g id="axes_3">
   <g id="patch_14">
    <path d="M 59.24 401.21 
L 552.780209 401.21 
L 552.780209 300.22 
L 59.24 300.22 
z
" style="fill: #ffffff"/>
   </g>
   <g id="matplotlib.axis_5">
    <g id="xtick_13">
     <g id="line2d_61">
      <path d="M 81.673646 401.21 
L 81.673646 300.22 
" clip-path="url(#p255bb23a86)" style="fill: none; stroke: #f0f0f0; stroke-width: 0.8; stroke-linecap: square"/>
     </g>
     <g id="line2d_62">
      <g>
       <use xlink:href="#m2a86f853d0" x="81.673646" y="401.21" style="stroke: #000000; stroke-width: 0.8"/>
      </g>
     </g>
     <g id="text_33">
      <!-- 0 -->
      <g transform="translate(78.492396 415.808437) scale(0.1 -0.1)">
       <use xlink:href="#DejaVuSans-30"/>
      </g>
     </g>
    </g>
    <g id="xtick_14">
     <g id="line2d_63">
      <path d="M 175.158582 401.21 
L 175.158582 300.22 
" clip-path="url(#p255bb23a86)" style="fill: none; stroke: #f0f0f0; stroke-width: 0.8; stroke-linecap: square"/>
     </g>
     <g id="line2d_64">
      <g>
       <use xlink:href="#m2a86f853d0" x="175.158582" y="401.21" style="stroke: #000000; stroke-width: 0.8"/>
      </g>
     </g>
     <g id="text_34">
      <!-- 5000 -->
      <g transform="translate(162.433582 415.808437) scale(0.1 -0.1)">
       <use xlink:href="#DejaVuSans-35"/>
       <use xlink:href="#DejaVuSans-30" x="63.623047"/>
       <use xlink:href="#DejaVuSans-30" x="127.246094"/>
       <use xlink:href="#DejaVuSans-30" x="190.869141"/>
      </g>
     </g>
    </g>
    <g id="xtick_15">
     <g id="line2d_65">
      <path d="M 268.643518 401.21 
L 268.643518 300.22 
" clip-path="url(#p255bb23a86)" style="fill: none; stroke: #f0f0f0; stroke-width: 0.8; stroke-linecap: square"/>
     </g>
     <g id="line2d_66">
      <g>
       <use xlink:href="#m2a86f853d0" x="268.643518" y="401.21" style="stroke: #000000; stroke-width: 0.8"/>
      </g>
     </g>
     <g id="text_35">
      <!-- 10000 -->
      <g transform="translate(252.737268 415.808437) scale(0.1 -0.1)">
       <use xlink:href="#DejaVuSans-31"/>
       <use xlink:href="#DejaVuSans-30" x="63.623047"/>
       <use xlink:href="#DejaVuSans-30" x="127.246094"/>
       <use xlink:href="#DejaVuSans-30" x="190.869141"/>
       <use xlink:href="#DejaVuSans-30" x="254.492188"/>
      </g>
     </g>
    </g>
    <g id="xtick_16">
     <g id="line2d_67">
      <path d="M 362.128455 401.21 
L 362.128455 300.22 
" clip-path="url(#p255bb23a86)" style="fill: none; stroke: #f0f0f0; stroke-width: 0.8; stroke-linecap: square"/>
     </g>
     <g id="line2d_68">
      <g>
       <use xlink:href="#m2a86f853d0" x="362.128455" y="401.21" style="stroke: #000000; stroke-width: 0.8"/>
      </g>
     </g>
     <g id="text_36">
      <!-- 15000 -->
      <g transform="translate(346.222205 415.808437) scale(0.1 -0.1)">
       <use xlink:href="#DejaVuSans-31"/>
       <use xlink:href="#DejaVuSans-35" x="63.623047"/>
       <use xlink:href="#DejaVuSans-30" x="127.246094"/>
       <use xlink:href="#DejaVuSans-30" x="190.869141"/>
       <use xlink:href="#DejaVuSans-30" x="254.492188"/>
      </g>
     </g>
    </g>
    <g id="xtick_17">
     <g id="line2d_69">
      <path d="M 455.613391 401.21 
L 455.613391 300.22 
" clip-path="url(#p255bb23a86)" style="fill: none; stroke: #f0f0f0; stroke-width: 0.8; stroke-linecap: square"/>
     </g>
     <g id="line2d_70">
      <g>
       <use xlink:href="#m2a86f853d0" x="455.613391" y="401.21" style="stroke: #000000; stroke-width: 0.8"/>
      </g>
     </g>
     <g id="text_37">
      <!-- 20000 -->
      <g transform="translate(439.707141 415.808437) scale(0.1 -0.1)">
       <use xlink:href="#DejaVuSans-32"/>
       <use xlink:href="#DejaVuSans-30" x="63.623047"/>
       <use xlink:href="#DejaVuSans-30" x="127.246094"/>
       <use xlink:href="#DejaVuSans-30" x="190.869141"/>
       <use xlink:href="#DejaVuSans-30" x="254.492188"/>
      </g>
     </g>
    </g>
    <g id="xtick_18">
     <g id="line2d_71">
      <path d="M 549.098327 401.21 
L 549.098327 300.22 
" clip-path="url(#p255bb23a86)" style="fill: none; stroke: #f0f0f0; stroke-width: 0.8; stroke-linecap: square"/>
     </g>
     <g id="line2d_72">
      <g>
       <use xlink:href="#m2a86f853d0" x="549.098327" y="401.21" style="stroke: #000000; stroke-width: 0.8"/>
      </g>
     </g>
     <g id="text_38">
      <!-- 25000 -->
      <g transform="translate(533.192077 415.808437) scale(0.1 -0.1)">
       <use xlink:href="#DejaVuSans-32"/>
       <use xlink:href="#DejaVuSans-35" x="63.623047"/>
       <use xlink:href="#DejaVuSans-30" x="127.246094"/>
       <use xlink:href="#DejaVuSans-30" x="190.869141"/>
       <use xlink:href="#DejaVuSans-30" x="254.492188"/>
      </g>
     </g>
    </g>
   </g>
   <g id="matplotlib.axis_6">
    <g id="ytick_11">
     <g id="line2d_73">
      <path d="M 59.24 397.799454 
L 552.780209 397.799454 
" clip-path="url(#p255bb23a86)" style="fill: none; stroke: #f0f0f0; stroke-width: 0.8; stroke-linecap: square"/>
     </g>
     <g id="line2d_74">
      <g>
       <use xlink:href="#m5fd6bd5a83" x="59.24" y="397.799454" style="stroke: #000000; stroke-width: 0.8"/>
      </g>
     </g>
     <g id="text_39">
      <!-- −100 -->
      <g transform="translate(24.772813 401.598672) scale(0.1 -0.1)">
       <use xlink:href="#DejaVuSans-2212"/>
       <use xlink:href="#DejaVuSans-31" x="83.789062"/>
       <use xlink:href="#DejaVuSans-30" x="147.412109"/>
       <use xlink:href="#DejaVuSans-30" x="211.035156"/>
      </g>
     </g>
    </g>
    <g id="ytick_12">
     <g id="line2d_75">
      <path d="M 59.24 374.552204 
L 552.780209 374.552204 
" clip-path="url(#p255bb23a86)" style="fill: none; stroke: #f0f0f0; stroke-width: 0.8; stroke-linecap: square"/>
     </g>
     <g id="line2d_76">
      <g>
       <use xlink:href="#m5fd6bd5a83" x="59.24" y="374.552204" style="stroke: #000000; stroke-width: 0.8"/>
      </g>
     </g>
     <g id="text_40">
      <!-- −75 -->
      <g transform="translate(31.135313 378.351423) scale(0.1 -0.1)">
       <defs>
        <path id="DejaVuSans-37" d="M 525 4666 
L 3525 4666 
L 3525 4397 
L 1831 0 
L 1172 0 
L 2766 4134 
L 525 4134 
L 525 4666 
z
" transform="scale(0.015625)"/>
       </defs>
       <use xlink:href="#DejaVuSans-2212"/>
       <use xlink:href="#DejaVuSans-37" x="83.789062"/>
       <use xlink:href="#DejaVuSans-35" x="147.412109"/>
      </g>
     </g>
    </g>
    <g id="ytick_13">
     <g id="line2d_77">
      <path d="M 59.24 351.304954 
L 552.780209 351.304954 
" clip-path="url(#p255bb23a86)" style="fill: none; stroke: #f0f0f0; stroke-width: 0.8; stroke-linecap: square"/>
     </g>
     <g id="line2d_78">
      <g>
       <use xlink:href="#m5fd6bd5a83" x="59.24" y="351.304954" style="stroke: #000000; stroke-width: 0.8"/>
      </g>
     </g>
     <g id="text_41">
      <!-- −50 -->
      <g transform="translate(31.135313 355.104173) scale(0.1 -0.1)">
       <use xlink:href="#DejaVuSans-2212"/>
       <use xlink:href="#DejaVuSans-35" x="83.789062"/>
       <use xlink:href="#DejaVuSans-30" x="147.412109"/>
      </g>
     </g>
    </g>
    <g id="ytick_14">
     <g id="line2d_79">
      <path d="M 59.24 328.057704 
L 552.780209 328.057704 
" clip-path="url(#p255bb23a86)" style="fill: none; stroke: #f0f0f0; stroke-width: 0.8; stroke-linecap: square"/>
     </g>
     <g id="line2d_80">
      <g>
       <use xlink:href="#m5fd6bd5a83" x="59.24" y="328.057704" style="stroke: #000000; stroke-width: 0.8"/>
      </g>
     </g>
     <g id="text_42">
      <!-- −25 -->
      <g transform="translate(31.135313 331.856923) scale(0.1 -0.1)">
       <use xlink:href="#DejaVuSans-2212"/>
       <use xlink:href="#DejaVuSans-32" x="83.789062"/>
       <use xlink:href="#DejaVuSans-35" x="147.412109"/>
      </g>
     </g>
    </g>
    <g id="ytick_15">
     <g id="line2d_81">
      <path d="M 59.24 304.810455 
L 552.780209 304.810455 
" clip-path="url(#p255bb23a86)" style="fill: none; stroke: #f0f0f0; stroke-width: 0.8; stroke-linecap: square"/>
     </g>
     <g id="line2d_82">
      <g>
       <use xlink:href="#m5fd6bd5a83" x="59.24" y="304.810455" style="stroke: #000000; stroke-width: 0.8"/>
      </g>
     </g>
     <g id="text_43">
      <!-- 0 -->
      <g transform="translate(45.8775 308.609673) scale(0.1 -0.1)">
       <use xlink:href="#DejaVuSans-30"/>
      </g>
     </g>
    </g>
    <g id="text_44">
     <!-- Phase [rad/sample] -->
     <g transform="translate(18.693125 399.291562) rotate(-90) scale(0.1 -0.1)">
      <defs>
       <path id="DejaVuSans-50" d="M 1259 4147 
L 1259 2394 
L 2053 2394 
Q 2494 2394 2734 2622 
Q 2975 2850 2975 3272 
Q 2975 3691 2734 3919 
Q 2494 4147 2053 4147 
L 1259 4147 
z
M 628 4666 
L 2053 4666 
Q 2838 4666 3239 4311 
Q 3641 3956 3641 3272 
Q 3641 2581 3239 2228 
Q 2838 1875 2053 1875 
L 1259 1875 
L 1259 0 
L 628 0 
L 628 4666 
z
" transform="scale(0.015625)"/>
       <path id="DejaVuSans-68" d="M 3513 2113 
L 3513 0 
L 2938 0 
L 2938 2094 
Q 2938 2591 2744 2837 
Q 2550 3084 2163 3084 
Q 1697 3084 1428 2787 
Q 1159 2491 1159 1978 
L 1159 0 
L 581 0 
L 581 4863 
L 1159 4863 
L 1159 2956 
Q 1366 3272 1645 3428 
Q 1925 3584 2291 3584 
Q 2894 3584 3203 3211 
Q 3513 2838 3513 2113 
z
" transform="scale(0.015625)"/>
       <path id="DejaVuSans-2f" d="M 1625 4666 
L 2156 4666 
L 531 -594 
L 0 -594 
L 1625 4666 
z
" transform="scale(0.015625)"/>
       <path id="DejaVuSans-70" d="M 1159 525 
L 1159 -1331 
L 581 -1331 
L 581 3500 
L 1159 3500 
L 1159 2969 
Q 1341 3281 1617 3432 
Q 1894 3584 2278 3584 
Q 2916 3584 3314 3078 
Q 3713 2572 3713 1747 
Q 3713 922 3314 415 
Q 2916 -91 2278 -91 
Q 1894 -91 1617 61 
Q 1341 213 1159 525 
z
M 3116 1747 
Q 3116 2381 2855 2742 
Q 2594 3103 2138 3103 
Q 1681 3103 1420 2742 
Q 1159 2381 1159 1747 
Q 1159 1113 1420 752 
Q 1681 391 2138 391 
Q 2594 391 2855 752 
Q 3116 1113 3116 1747 
z
" transform="scale(0.015625)"/>
       <path id="DejaVuSans-6c" d="M 603 4863 
L 1178 4863 
L 1178 0 
L 603 0 
L 603 4863 
z
" transform="scale(0.015625)"/>
      </defs>
      <use xlink:href="#DejaVuSans-50"/>
      <use xlink:href="#DejaVuSans-68" x="60.302734"/>
      <use xlink:href="#DejaVuSans-61" x="123.681641"/>
      <use xlink:href="#DejaVuSans-73" x="184.960938"/>
      <use xlink:href="#DejaVuSans-65" x="237.060547"/>
      <use xlink:href="#DejaVuSans-20" x="298.583984"/>
      <use xlink:href="#DejaVuSans-5b" x="330.371094"/>
      <use xlink:href="#DejaVuSans-72" x="369.384766"/>
      <use xlink:href="#DejaVuSans-61" x="410.498047"/>
      <use xlink:href="#DejaVuSans-64" x="471.777344"/>
      <use xlink:href="#DejaVuSans-2f" x="535.253906"/>
      <use xlink:href="#DejaVuSans-73" x="568.945312"/>
      <use xlink:href="#DejaVuSans-61" x="621.044922"/>
      <use xlink:href="#DejaVuSans-6d" x="682.324219"/>
      <use xlink:href="#DejaVuSans-70" x="779.736328"/>
      <use xlink:href="#DejaVuSans-6c" x="843.212891"/>
      <use xlink:href="#DejaVuSans-65" x="870.996094"/>
      <use xlink:href="#DejaVuSans-5d" x="932.519531"/>
     </g>
    </g>
   </g>
   <g id="line2d_83">
    <path d="M 81.673646 304.810455 
L 527.552971 394.873577 
L 529.470142 395.424893 
L 529.963129 395.762252 
L 530.237011 396.255601 
L 530.346564 396.619545 
L 530.346564 396.619545 
" clip-path="url(#p255bb23a86)" style="fill: none; stroke: #1f77b4; stroke-opacity: 0.5; stroke-width: 1.5; stroke-linecap: square"/>
   </g>
   <g id="line2d_84">
    <path d="M 81.673646 304.810455 
L 530.346564 395.360802 
L 530.346564 395.360802 
" clip-path="url(#p255bb23a86)" style="fill: none; stroke: #ff7f0e; stroke-opacity: 0.5; stroke-width: 1.5; stroke-linecap: square"/>
   </g>
   <g id="line2d_85">
    <path d="M 530.40134 401.21 
L 530.40134 300.22 
" clip-path="url(#p255bb23a86)" style="fill: none; stroke-dasharray: 5.55,2.4; stroke-dashoffset: 0; stroke: #000000; stroke-width: 1.5"/>
   </g>
   <g id="line2d_86">
    <path d="M 418.219416 401.21 
L 418.219416 300.22 
" clip-path="url(#p255bb23a86)" style="fill: none; stroke-dasharray: 5.55,2.4; stroke-dashoffset: 0; stroke: #000000; stroke-opacity: 0.2; stroke-width: 1.5"/>
   </g>
   <g id="patch_15">
    <path d="M 59.24 401.21 
L 59.24 300.22 
" style="fill: none; stroke: #000000; stroke-width: 0.8; stroke-linejoin: miter; stroke-linecap: square"/>
   </g>
   <g id="patch_16">
    <path d="M 552.780209 401.21 
L 552.780209 300.22 
" style="fill: none; stroke: #000000; stroke-width: 0.8; stroke-linejoin: miter; stroke-linecap: square"/>
   </g>
   <g id="patch_17">
    <path d="M 59.24 401.21 
L 552.780209 401.21 
" style="fill: none; stroke: #000000; stroke-width: 0.8; stroke-linejoin: miter; stroke-linecap: square"/>
   </g>
   <g id="patch_18">
    <path d="M 59.24 300.22 
L 552.780209 300.22 
" style="fill: none; stroke: #000000; stroke-width: 0.8; stroke-linejoin: miter; stroke-linecap: square"/>
   </g>
   <g id="legend_3">
    <g id="patch_19">
     <path d="M 66.24 396.21 
L 276.43375 396.21 
Q 278.43375 396.21 278.43375 394.21 
L 278.43375 365.85375 
Q 278.43375 363.85375 276.43375 363.85375 
L 66.24 363.85375 
Q 64.24 363.85375 64.24 365.85375 
L 64.24 394.21 
Q 64.24 396.21 66.24 396.21 
z
" style="fill: #ffffff; opacity: 0.8; stroke: #cccccc; stroke-linejoin: miter"/>
    </g>
    <g id="line2d_87">
     <path d="M 68.24 371.952188 
L 78.24 371.952188 
L 88.24 371.952188 
" style="fill: none; stroke: #1f77b4; stroke-opacity: 0.5; stroke-width: 1.5; stroke-linecap: square"/>
    </g>
    <g id="text_45">
     <!-- MaxUnderRead -->
     <g transform="translate(96.24 375.452188) scale(0.1 -0.1)">
      <use xlink:href="#DejaVuSans-4d"/>
      <use xlink:href="#DejaVuSans-61" x="86.279297"/>
      <use xlink:href="#DejaVuSans-78" x="147.558594"/>
      <use xlink:href="#DejaVuSans-55" x="206.738281"/>
      <use xlink:href="#DejaVuSans-6e" x="279.931641"/>
      <use xlink:href="#DejaVuSans-64" x="343.310547"/>
      <use xlink:href="#DejaVuSans-65" x="406.787109"/>
      <use xlink:href="#DejaVuSans-72" x="468.310547"/>
      <use xlink:href="#DejaVuSans-52" x="509.423828"/>
      <use xlink:href="#DejaVuSans-65" x="574.40625"/>
      <use xlink:href="#DejaVuSans-61" x="635.929688"/>
      <use xlink:href="#DejaVuSans-64" x="697.208984"/>
     </g>
    </g>
    <g id="line2d_88">
     <path d="M 68.24 386.630313 
L 78.24 386.630313 
L 88.24 386.630313 
" style="fill: none; stroke: #ff7f0e; stroke-opacity: 0.5; stroke-width: 1.5; stroke-linecap: square"/>
    </g>
    <g id="text_46">
     <!-- BasicLimiter -->
     <g transform="translate(96.24 390.130313) scale(0.1 -0.1)">
      <use xlink:href="#DejaVuSans-42"/>
      <use xlink:href="#DejaVuSans-61" x="68.603516"/>
      <use xlink:href="#DejaVuSans-73" x="129.882812"/>
      <use xlink:href="#DejaVuSans-69" x="181.982422"/>
      <use xlink:href="#DejaVuSans-63" x="209.765625"/>
      <use xlink:href="#DejaVuSans-4c" x="264.746094"/>
      <use xlink:href="#DejaVuSans-69" x="320.458984"/>
      <use xlink:href="#DejaVuSans-6d" x="348.242188"/>
      <use xlink:href="#DejaVuSans-69" x="445.654297"/>
      <use xlink:href="#DejaVuSans-74" x="473.4375"/>
      <use xlink:href="#DejaVuSans-65" x="512.646484"/>
      <use xlink:href="#DejaVuSans-72" x="574.169922"/>
     </g>
    </g>
    <g id="line2d_89">
     <path d="M 192.311875 371.952188 
L 202.311875 371.952188 
L 212.311875 371.952188 
" style="fill: none; stroke-dasharray: 5.55,2.4; stroke-dashoffset: 0; stroke: #000000; stroke-width: 1.5"/>
    </g>
    <g id="text_47">
     <!-- Nyquist -->
     <g transform="translate(220.311875 375.452188) scale(0.1 -0.1)">
      <use xlink:href="#DejaVuSans-4e"/>
      <use xlink:href="#DejaVuSans-79" x="74.804688"/>
      <use xlink:href="#DejaVuSans-71" x="133.984375"/>
      <use xlink:href="#DejaVuSans-75" x="197.460938"/>
      <use xlink:href="#DejaVuSans-69" x="260.839844"/>
      <use xlink:href="#DejaVuSans-73" x="288.623047"/>
      <use xlink:href="#DejaVuSans-74" x="340.722656"/>
     </g>
    </g>
    <g id="line2d_90">
     <path d="M 192.311875 386.630313 
L 202.311875 386.630313 
L 212.311875 386.630313 
" style="fill: none; stroke-dasharray: 5.55,2.4; stroke-dashoffset: 0; stroke: #000000; stroke-opacity: 0.2; stroke-width: 1.5"/>
    </g>
    <g id="text_48">
     <!-- 18000.0Hz -->
     <g transform="translate(220.311875 390.130313) scale(0.1 -0.1)">
      <use xlink:href="#DejaVuSans-31"/>
      <use xlink:href="#DejaVuSans-38" x="63.623047"/>
      <use xlink:href="#DejaVuSans-30" x="127.246094"/>
      <use xlink:href="#DejaVuSans-30" x="190.869141"/>
      <use xlink:href="#DejaVuSans-30" x="254.492188"/>
      <use xlink:href="#DejaVuSans-2e" x="318.115234"/>
      <use xlink:href="#DejaVuSans-30" x="349.902344"/>
      <use xlink:href="#DejaVuSans-48" x="413.525391"/>
      <use xlink:href="#DejaVuSans-7a" x="488.720703"/>
     </g>
    </g>
   </g>
  </g>
  <g id="axes_4">
   <g id="patch_20">
    <path d="M 59.24 534.04 
L 552.780209 534.04 
L 552.780209 433.05 
L 59.24 433.05 
z
" style="fill: #ffffff"/>
   </g>
   <g id="matplotlib.axis_7">
    <g id="xtick_19">
     <g id="line2d_91">
      <path d="M 81.673646 534.04 
L 81.673646 433.05 
" clip-path="url(#p98eb00b2da)" style="fill: none; stroke: #f0f0f0; stroke-width: 0.8; stroke-linecap: square"/>
     </g>
     <g id="line2d_92">
      <g>
       <use xlink:href="#m2a86f853d0" x="81.673646" y="534.04" style="stroke: #000000; stroke-width: 0.8"/>
      </g>
     </g>
     <g id="text_49">
      <!-- 0 -->
      <g transform="translate(78.492396 548.638438) scale(0.1 -0.1)">
       <use xlink:href="#DejaVuSans-30"/>
      </g>
     </g>
    </g>
    <g id="xtick_20">
     <g id="line2d_93">
      <path d="M 175.158582 534.04 
L 175.158582 433.05 
" clip-path="url(#p98eb00b2da)" style="fill: none; stroke: #f0f0f0; stroke-width: 0.8; stroke-linecap: square"/>
     </g>
     <g id="line2d_94">
      <g>
       <use xlink:href="#m2a86f853d0" x="175.158582" y="534.04" style="stroke: #000000; stroke-width: 0.8"/>
      </g>
     </g>
     <g id="text_50">
      <!-- 5000 -->
      <g transform="translate(162.433582 548.638438) scale(0.1 -0.1)">
       <use xlink:href="#DejaVuSans-35"/>
       <use xlink:href="#DejaVuSans-30" x="63.623047"/>
       <use xlink:href="#DejaVuSans-30" x="127.246094"/>
       <use xlink:href="#DejaVuSans-30" x="190.869141"/>
      </g>
     </g>
    </g>
    <g id="xtick_21">
     <g id="line2d_95">
      <path d="M 268.643518 534.04 
L 268.643518 433.05 
" clip-path="url(#p98eb00b2da)" style="fill: none; stroke: #f0f0f0; stroke-width: 0.8; stroke-linecap: square"/>
     </g>
     <g id="line2d_96">
      <g>
       <use xlink:href="#m2a86f853d0" x="268.643518" y="534.04" style="stroke: #000000; stroke-width: 0.8"/>
      </g>
     </g>
     <g id="text_51">
      <!-- 10000 -->
      <g transform="translate(252.737268 548.638438) scale(0.1 -0.1)">
       <use xlink:href="#DejaVuSans-31"/>
       <use xlink:href="#DejaVuSans-30" x="63.623047"/>
       <use xlink:href="#DejaVuSans-30" x="127.246094"/>
       <use xlink:href="#DejaVuSans-30" x="190.869141"/>
       <use xlink:href="#DejaVuSans-30" x="254.492188"/>
      </g>
     </g>
    </g>
    <g id="xtick_22">
     <g id="line2d_97">
      <path d="M 362.128455 534.04 
L 362.128455 433.05 
" clip-path="url(#p98eb00b2da)" style="fill: none; stroke: #f0f0f0; stroke-width: 0.8; stroke-linecap: square"/>
     </g>
     <g id="line2d_98">
      <g>
       <use xlink:href="#m2a86f853d0" x="362.128455" y="534.04" style="stroke: #000000; stroke-width: 0.8"/>
      </g>
     </g>
     <g id="text_52">
      <!-- 15000 -->
      <g transform="translate(346.222205 548.638438) scale(0.1 -0.1)">
       <use xlink:href="#DejaVuSans-31"/>
       <use xlink:href="#DejaVuSans-35" x="63.623047"/>
       <use xlink:href="#DejaVuSans-30" x="127.246094"/>
       <use xlink:href="#DejaVuSans-30" x="190.869141"/>
       <use xlink:href="#DejaVuSans-30" x="254.492188"/>
      </g>
     </g>
    </g>
    <g id="xtick_23">
     <g id="line2d_99">
      <path d="M 455.613391 534.04 
L 455.613391 433.05 
" clip-path="url(#p98eb00b2da)" style="fill: none; stroke: #f0f0f0; stroke-width: 0.8; stroke-linecap: square"/>
     </g>
     <g id="line2d_100">
      <g>
       <use xlink:href="#m2a86f853d0" x="455.613391" y="534.04" style="stroke: #000000; stroke-width: 0.8"/>
      </g>
     </g>
     <g id="text_53">
      <!-- 20000 -->
      <g transform="translate(439.707141 548.638438) scale(0.1 -0.1)">
       <use xlink:href="#DejaVuSans-32"/>
       <use xlink:href="#DejaVuSans-30" x="63.623047"/>
       <use xlink:href="#DejaVuSans-30" x="127.246094"/>
       <use xlink:href="#DejaVuSans-30" x="190.869141"/>
       <use xlink:href="#DejaVuSans-30" x="254.492188"/>
      </g>
     </g>
    </g>
    <g id="xtick_24">
     <g id="line2d_101">
      <path d="M 549.098327 534.04 
L 549.098327 433.05 
" clip-path="url(#p98eb00b2da)" style="fill: none; stroke: #f0f0f0; stroke-width: 0.8; stroke-linecap: square"/>
     </g>
     <g id="line2d_102">
      <g>
       <use xlink:href="#m2a86f853d0" x="549.098327" y="534.04" style="stroke: #000000; stroke-width: 0.8"/>
      </g>
     </g>
     <g id="text_54">
      <!-- 25000 -->
      <g transform="translate(533.192077 548.638438) scale(0.1 -0.1)">
       <use xlink:href="#DejaVuSans-32"/>
       <use xlink:href="#DejaVuSans-35" x="63.623047"/>
       <use xlink:href="#DejaVuSans-30" x="127.246094"/>
       <use xlink:href="#DejaVuSans-30" x="190.869141"/>
       <use xlink:href="#DejaVuSans-30" x="254.492188"/>
      </g>
     </g>
    </g>
    <g id="text_55">
     <!-- Frequency [Hz] -->
     <g transform="translate(268.305417 562.316563) scale(0.1 -0.1)">
      <defs>
       <path id="DejaVuSans-46" d="M 628 4666 
L 3309 4666 
L 3309 4134 
L 1259 4134 
L 1259 2759 
L 3109 2759 
L 3109 2228 
L 1259 2228 
L 1259 0 
L 628 0 
L 628 4666 
z
" transform="scale(0.015625)"/>
      </defs>
      <use xlink:href="#DejaVuSans-46"/>
      <use xlink:href="#DejaVuSans-72" x="50.269531"/>
      <use xlink:href="#DejaVuSans-65" x="89.132812"/>
      <use xlink:href="#DejaVuSans-71" x="150.65625"/>
      <use xlink:href="#DejaVuSans-75" x="214.132812"/>
      <use xlink:href="#DejaVuSans-65" x="277.511719"/>
      <use xlink:href="#DejaVuSans-6e" x="339.035156"/>
      <use xlink:href="#DejaVuSans-63" x="402.414062"/>
      <use xlink:href="#DejaVuSans-79" x="457.394531"/>
      <use xlink:href="#DejaVuSans-20" x="516.574219"/>
      <use xlink:href="#DejaVuSans-5b" x="548.361328"/>
      <use xlink:href="#DejaVuSans-48" x="587.375"/>
      <use xlink:href="#DejaVuSans-7a" x="662.570312"/>
      <use xlink:href="#DejaVuSans-5d" x="715.060547"/>
     </g>
    </g>
   </g>
   <g id="matplotlib.axis_8">
    <g id="ytick_16">
     <g id="line2d_103">
      <path d="M 59.24 534.04 
L 552.780209 534.04 
" clip-path="url(#p98eb00b2da)" style="fill: none; stroke: #f0f0f0; stroke-width: 0.8; stroke-linecap: square"/>
     </g>
     <g id="line2d_104">
      <g>
       <use xlink:href="#m5fd6bd5a83" x="59.24" y="534.04" style="stroke: #000000; stroke-width: 0.8"/>
      </g>
     </g>
     <g id="text_56">
      <!-- 29 -->
      <g transform="translate(39.515 537.839219) scale(0.1 -0.1)">
       <defs>
        <path id="DejaVuSans-39" d="M 703 97 
L 703 672 
Q 941 559 1184 500 
Q 1428 441 1663 441 
Q 2288 441 2617 861 
Q 2947 1281 2994 2138 
Q 2813 1869 2534 1725 
Q 2256 1581 1919 1581 
Q 1219 1581 811 2004 
Q 403 2428 403 3163 
Q 403 3881 828 4315 
Q 1253 4750 1959 4750 
Q 2769 4750 3195 4129 
Q 3622 3509 3622 2328 
Q 3622 1225 3098 567 
Q 2575 -91 1691 -91 
Q 1453 -91 1209 -44 
Q 966 3 703 97 
z
M 1959 2075 
Q 2384 2075 2632 2365 
Q 2881 2656 2881 3163 
Q 2881 3666 2632 3958 
Q 2384 4250 1959 4250 
Q 1534 4250 1286 3958 
Q 1038 3666 1038 3163 
Q 1038 2656 1286 2365 
Q 1534 2075 1959 2075 
z
" transform="scale(0.015625)"/>
       </defs>
       <use xlink:href="#DejaVuSans-32"/>
       <use xlink:href="#DejaVuSans-39" x="63.623047"/>
      </g>
     </g>
    </g>
    <g id="ytick_17">
     <g id="line2d_105">
      <path d="M 59.24 508.7925 
L 552.780209 508.7925 
" clip-path="url(#p98eb00b2da)" style="fill: none; stroke: #f0f0f0; stroke-width: 0.8; stroke-linecap: square"/>
     </g>
     <g id="line2d_106">
      <g>
       <use xlink:href="#m5fd6bd5a83" x="59.24" y="508.7925" style="stroke: #000000; stroke-width: 0.8"/>
      </g>
     </g>
     <g id="text_57">
      <!-- 30 -->
      <g transform="translate(39.515 512.591719) scale(0.1 -0.1)">
       <defs>
        <path id="DejaVuSans-33" d="M 2597 2516 
Q 3050 2419 3304 2112 
Q 3559 1806 3559 1356 
Q 3559 666 3084 287 
Q 2609 -91 1734 -91 
Q 1441 -91 1130 -33 
Q 819 25 488 141 
L 488 750 
Q 750 597 1062 519 
Q 1375 441 1716 441 
Q 2309 441 2620 675 
Q 2931 909 2931 1356 
Q 2931 1769 2642 2001 
Q 2353 2234 1838 2234 
L 1294 2234 
L 1294 2753 
L 1863 2753 
Q 2328 2753 2575 2939 
Q 2822 3125 2822 3475 
Q 2822 3834 2567 4026 
Q 2313 4219 1838 4219 
Q 1578 4219 1281 4162 
Q 984 4106 628 3988 
L 628 4550 
Q 988 4650 1302 4700 
Q 1616 4750 1894 4750 
Q 2613 4750 3031 4423 
Q 3450 4097 3450 3541 
Q 3450 3153 3228 2886 
Q 3006 2619 2597 2516 
z
" transform="scale(0.015625)"/>
       </defs>
       <use xlink:href="#DejaVuSans-33"/>
       <use xlink:href="#DejaVuSans-30" x="63.623047"/>
      </g>
     </g>
    </g>
    <g id="ytick_18">
     <g id="line2d_107">
      <path d="M 59.24 483.545 
L 552.780209 483.545 
" clip-path="url(#p98eb00b2da)" style="fill: none; stroke: #f0f0f0; stroke-width: 0.8; stroke-linecap: square"/>
     </g>
     <g id="line2d_108">
      <g>
       <use xlink:href="#m5fd6bd5a83" x="59.24" y="483.545" style="stroke: #000000; stroke-width: 0.8"/>
      </g>
     </g>
     <g id="text_58">
      <!-- 31 -->
      <g transform="translate(39.515 487.344219) scale(0.1 -0.1)">
       <use xlink:href="#DejaVuSans-33"/>
       <use xlink:href="#DejaVuSans-31" x="63.623047"/>
      </g>
     </g>
    </g>
    <g id="ytick_19">
     <g id="line2d_109">
      <path d="M 59.24 458.2975 
L 552.780209 458.2975 
" clip-path="url(#p98eb00b2da)" style="fill: none; stroke: #f0f0f0; stroke-width: 0.8; stroke-linecap: square"/>
     </g>
     <g id="line2d_110">
      <g>
       <use xlink:href="#m5fd6bd5a83" x="59.24" y="458.2975" style="stroke: #000000; stroke-width: 0.8"/>
      </g>
     </g>
     <g id="text_59">
      <!-- 32 -->
      <g transform="translate(39.515 462.096719) scale(0.1 -0.1)">
       <use xlink:href="#DejaVuSans-33"/>
       <use xlink:href="#DejaVuSans-32" x="63.623047"/>
      </g>
     </g>
    </g>
    <g id="ytick_20">
     <g id="line2d_111">
      <path d="M 59.24 433.05 
L 552.780209 433.05 
" clip-path="url(#p98eb00b2da)" style="fill: none; stroke: #f0f0f0; stroke-width: 0.8; stroke-linecap: square"/>
     </g>
     <g id="line2d_112">
      <g>
       <use xlink:href="#m5fd6bd5a83" x="59.24" y="433.05" style="stroke: #000000; stroke-width: 0.8"/>
      </g>
     </g>
     <g id="text_60">
      <!-- 33 -->
      <g transform="translate(39.515 436.849219) scale(0.1 -0.1)">
       <use xlink:href="#DejaVuSans-33"/>
       <use xlink:href="#DejaVuSans-33" x="63.623047"/>
      </g>
     </g>
    </g>
    <g id="text_61">
     <!-- Group Delay [sample] -->
     <g transform="translate(33.435313 538.362188) rotate(-90) scale(0.1 -0.1)">
      <defs>
       <path id="DejaVuSans-6f" d="M 1959 3097 
Q 1497 3097 1228 2736 
Q 959 2375 959 1747 
Q 959 1119 1226 758 
Q 1494 397 1959 397 
Q 2419 397 2687 759 
Q 2956 1122 2956 1747 
Q 2956 2369 2687 2733 
Q 2419 3097 1959 3097 
z
M 1959 3584 
Q 2709 3584 3137 3096 
Q 3566 2609 3566 1747 
Q 3566 888 3137 398 
Q 2709 -91 1959 -91 
Q 1206 -91 779 398 
Q 353 888 353 1747 
Q 353 2609 779 3096 
Q 1206 3584 1959 3584 
z
" transform="scale(0.015625)"/>
       <path id="DejaVuSans-44" d="M 1259 4147 
L 1259 519 
L 2022 519 
Q 2988 519 3436 956 
Q 3884 1394 3884 2338 
Q 3884 3275 3436 3711 
Q 2988 4147 2022 4147 
L 1259 4147 
z
M 628 4666 
L 1925 4666 
Q 3281 4666 3915 4102 
Q 4550 3538 4550 2338 
Q 4550 1131 3912 565 
Q 3275 0 1925 0 
L 628 0 
L 628 4666 
z
" transform="scale(0.015625)"/>
      </defs>
      <use xlink:href="#DejaVuSans-47"/>
      <use xlink:href="#DejaVuSans-72" x="77.490234"/>
      <use xlink:href="#DejaVuSans-6f" x="116.353516"/>
      <use xlink:href="#DejaVuSans-75" x="177.535156"/>
      <use xlink:href="#DejaVuSans-70" x="240.914062"/>
      <use xlink:href="#DejaVuSans-20" x="304.390625"/>
      <use xlink:href="#DejaVuSans-44" x="336.177734"/>
      <use xlink:href="#DejaVuSans-65" x="413.179688"/>
      <use xlink:href="#DejaVuSans-6c" x="474.703125"/>
      <use xlink:href="#DejaVuSans-61" x="502.486328"/>
      <use xlink:href="#DejaVuSans-79" x="563.765625"/>
      <use xlink:href="#DejaVuSans-20" x="622.945312"/>
      <use xlink:href="#DejaVuSans-5b" x="654.732422"/>
      <use xlink:href="#DejaVuSans-73" x="693.746094"/>
      <use xlink:href="#DejaVuSans-61" x="745.845703"/>
      <use xlink:href="#DejaVuSans-6d" x="807.125"/>
      <use xlink:href="#DejaVuSans-70" x="904.537109"/>
      <use xlink:href="#DejaVuSans-6c" x="968.013672"/>
      <use xlink:href="#DejaVuSans-65" x="995.796875"/>
      <use xlink:href="#DejaVuSans-5d" x="1057.320312"/>
     </g>
    </g>
   </g>
   <g id="line2d_113">
    <path d="M 81.673646 483.854896 
L 85.562765 483.744587 
L 96.956242 483.246864 
L 101.174019 483.440036 
L 109.171363 483.853941 
L 113.005707 483.776352 
L 120.017077 483.335502 
L 124.125302 483.23274 
L 128.069197 483.366661 
L 138.421924 483.85783 
L 142.420596 483.705539 
L 152.006453 483.225789 
L 155.895573 483.349744 
L 166.796062 483.861628 
L 170.794735 483.689258 
L 179.723276 483.216056 
L 183.502843 483.318475 
L 195.553636 483.858002 
L 199.716637 483.633448 
L 207.001889 483.209779 
L 210.617126 483.261865 
L 215.382667 483.58056 
L 220.695971 483.882167 
L 224.256432 483.851383 
L 228.638539 483.569951 
L 234.663935 483.199891 
L 238.224397 483.227311 
L 242.49695 483.50546 
L 248.686676 483.900902 
L 252.192361 483.87507 
L 256.355362 483.600004 
L 262.709416 483.17695 
L 266.105548 483.198389 
L 270.104221 483.463769 
L 276.786933 483.92877 
L 280.128289 483.905337 
L 284.017408 483.639648 
L 290.86445 483.143625 
L 294.151029 483.168254 
L 297.930596 483.435192 
L 304.88719 483.965479 
L 308.118993 483.942295 
L 311.789008 483.676434 
L 318.964707 483.101298 
L 322.086958 483.123211 
L 325.592643 483.383369 
L 333.097 484.017764 
L 336.109698 483.991712 
L 339.50583 483.728261 
L 347.229293 483.039158 
L 350.187215 483.070267 
L 353.473795 483.341593 
L 361.252033 484.08728 
L 364.100403 484.059771 
L 367.222653 483.795841 
L 375.548655 482.952081 
L 378.287472 482.995058 
L 381.30017 483.276995 
L 389.51662 484.189989 
L 392.145883 484.154715 
L 394.994253 483.882278 
L 403.977571 482.82354 
L 406.442505 482.886023 
L 409.126546 483.182119 
L 417.890758 484.348414 
L 420.246141 484.297691 
L 422.765852 484.013002 
L 426.600195 483.316953 
L 430.10588 482.765022 
L 432.461262 482.621995 
L 434.652315 482.712316 
L 437.007698 483.037519 
L 440.568159 483.791371 
L 443.909515 484.420308 
L 446.100568 484.608134 
L 448.127292 484.561996 
L 450.263569 484.286128 
L 452.892833 483.706935 
L 458.260913 482.468754 
L 460.287638 482.269605 
L 462.150033 482.30717 
L 464.067204 482.575965 
L 466.258258 483.124075 
L 472.995746 485.003816 
L 474.748589 485.14746 
L 476.391879 485.063957 
L 478.144721 484.745654 
L 480.116669 484.151181 
L 483.23892 482.93372 
L 486.087289 481.907849 
L 487.894908 481.492628 
L 489.428645 481.366011 
L 490.85283 481.47003 
L 492.277014 481.80071 
L 493.810752 482.39851 
L 495.61837 483.360416 
L 500.657793 486.210004 
L 502.027201 486.641638 
L 503.23228 486.800377 
L 504.43736 486.733274 
L 505.642439 486.439727 
L 506.957071 485.877722 
L 508.381255 485.020125 
L 510.079322 483.725406 
L 512.160822 481.839757 
L 514.516204 479.404486 
L 516.597705 476.953381 
L 518.240995 474.680644 
L 519.555627 472.473205 
L 520.651153 470.184354 
L 521.582351 467.724465 
L 522.403996 464.948769 
L 523.170864 461.58213 
L 523.882957 457.440577 
L 524.540273 452.294594 
L 525.142812 445.864157 
L 525.745352 436.860449 
L 526.293115 425.08562 
L 526.786102 409.675934 
L 527.279089 386.514042 
L 527.7173 354.488717 
L 528.100734 310.445673 
L 528.484168 238.023437 
L 528.812826 131.17739 
L 529.055335 -1 
L 529.055335 -1 
" clip-path="url(#p98eb00b2da)" style="fill: none; stroke: #1f77b4; stroke-opacity: 0.5; stroke-width: 1.5; stroke-linecap: square"/>
   </g>
   <g id="line2d_114">
    <path d="M 81.673646 483.545 
L 530.346564 483.545623 
L 530.346564 483.545623 
" clip-path="url(#p98eb00b2da)" style="fill: none; stroke: #ff7f0e; stroke-opacity: 0.5; stroke-width: 1.5; stroke-linecap: square"/>
   </g>
   <g id="line2d_115">
    <path d="M 530.40134 534.04 
L 530.40134 433.05 
" clip-path="url(#p98eb00b2da)" style="fill: none; stroke-dasharray: 5.55,2.4; stroke-dashoffset: 0; stroke: #000000; stroke-width: 1.5"/>
   </g>
   <g id="line2d_116">
    <path d="M 418.219416 534.04 
L 418.219416 433.05 
" clip-path="url(#p98eb00b2da)" style="fill: none; stroke-dasharray: 5.55,2.4; stroke-dashoffset: 0; stroke: #000000; stroke-opacity: 0.2; stroke-width: 1.5"/>
   </g>
   <g id="patch_21">
    <path d="M 59.24 534.04 
L 59.24 433.05 
" style="fill: none; stroke: #000000; stroke-width: 0.8; stroke-linejoin: miter; stroke-linecap: square"/>
   </g>
   <g id="patch_22">
    <path d="M 552.780209 534.04 
L 552.780209 433.05 
" style="fill: none; stroke: #000000; stroke-width: 0.8; stroke-linejoin: miter; stroke-linecap: square"/>
   </g>
   <g id="patch_23">
    <path d="M 59.24 534.04 
L 552.780209 534.04 
" style="fill: none; stroke: #000000; stroke-width: 0.8; stroke-linejoin: miter; stroke-linecap: square"/>
   </g>
   <g id="patch_24">
    <path d="M 59.24 433.05 
L 552.780209 433.05 
" style="fill: none; stroke: #000000; stroke-width: 0.8; stroke-linejoin: miter; stroke-linecap: square"/>
   </g>
   <g id="legend_4">
    <g id="patch_25">
     <path d="M 66.24 529.04 
L 276.43375 529.04 
Q 278.43375 529.04 278.43375 527.04 
L 278.43375 498.68375 
Q 278.43375 496.68375 276.43375 496.68375 
L 66.24 496.68375 
Q 64.24 496.68375 64.24 498.68375 
L 64.24 527.04 
Q 64.24 529.04 66.24 529.04 
z
" style="fill: #ffffff; opacity: 0.8; stroke: #cccccc; stroke-linejoin: miter"/>
    </g>
    <g id="line2d_117">
     <path d="M 68.24 504.782188 
L 78.24 504.782188 
L 88.24 504.782188 
" style="fill: none; stroke: #1f77b4; stroke-opacity: 0.5; stroke-width: 1.5; stroke-linecap: square"/>
    </g>
    <g id="text_62">
     <!-- MaxUnderRead -->
     <g transform="translate(96.24 508.282188) scale(0.1 -0.1)">
      <use xlink:href="#DejaVuSans-4d"/>
      <use xlink:href="#DejaVuSans-61" x="86.279297"/>
      <use xlink:href="#DejaVuSans-78" x="147.558594"/>
      <use xlink:href="#DejaVuSans-55" x="206.738281"/>
      <use xlink:href="#DejaVuSans-6e" x="279.931641"/>
      <use xlink:href="#DejaVuSans-64" x="343.310547"/>
      <use xlink:href="#DejaVuSans-65" x="406.787109"/>
      <use xlink:href="#DejaVuSans-72" x="468.310547"/>
      <use xlink:href="#DejaVuSans-52" x="509.423828"/>
      <use xlink:href="#DejaVuSans-65" x="574.40625"/>
      <use xlink:href="#DejaVuSans-61" x="635.929688"/>
      <use xlink:href="#DejaVuSans-64" x="697.208984"/>
     </g>
    </g>
    <g id="line2d_118">
     <path d="M 68.24 519.460312 
L 78.24 519.460312 
L 88.24 519.460312 
" style="fill: none; stroke: #ff7f0e; stroke-opacity: 0.5; stroke-width: 1.5; stroke-linecap: square"/>
    </g>
    <g id="text_63">
     <!-- BasicLimiter -->
     <g transform="translate(96.24 522.960312) scale(0.1 -0.1)">
      <use xlink:href="#DejaVuSans-42"/>
      <use xlink:href="#DejaVuSans-61" x="68.603516"/>
      <use xlink:href="#DejaVuSans-73" x="129.882812"/>
      <use xlink:href="#DejaVuSans-69" x="181.982422"/>
      <use xlink:href="#DejaVuSans-63" x="209.765625"/>
      <use xlink:href="#DejaVuSans-4c" x="264.746094"/>
      <use xlink:href="#DejaVuSans-69" x="320.458984"/>
      <use xlink:href="#DejaVuSans-6d" x="348.242188"/>
      <use xlink:href="#DejaVuSans-69" x="445.654297"/>
      <use xlink:href="#DejaVuSans-74" x="473.4375"/>
      <use xlink:href="#DejaVuSans-65" x="512.646484"/>
      <use xlink:href="#DejaVuSans-72" x="574.169922"/>
     </g>
    </g>
    <g id="line2d_119">
     <path d="M 192.311875 504.782188 
L 202.311875 504.782188 
L 212.311875 504.782188 
" style="fill: none; stroke-dasharray: 5.55,2.4; stroke-dashoffset: 0; stroke: #000000; stroke-width: 1.5"/>
    </g>
    <g id="text_64">
     <!-- Nyquist -->
     <g transform="translate(220.311875 508.282188) scale(0.1 -0.1)">
      <use xlink:href="#DejaVuSans-4e"/>
      <use xlink:href="#DejaVuSans-79" x="74.804688"/>
      <use xlink:href="#DejaVuSans-71" x="133.984375"/>
      <use xlink:href="#DejaVuSans-75" x="197.460938"/>
      <use xlink:href="#DejaVuSans-69" x="260.839844"/>
      <use xlink:href="#DejaVuSans-73" x="288.623047"/>
      <use xlink:href="#DejaVuSans-74" x="340.722656"/>
     </g>
    </g>
    <g id="line2d_120">
     <path d="M 192.311875 519.460312 
L 202.311875 519.460312 
L 212.311875 519.460312 
" style="fill: none; stroke-dasharray: 5.55,2.4; stroke-dashoffset: 0; stroke: #000000; stroke-opacity: 0.2; stroke-width: 1.5"/>
    </g>
    <g id="text_65">
     <!-- 18000.0Hz -->
     <g transform="translate(220.311875 522.960312) scale(0.1 -0.1)">
      <use xlink:href="#DejaVuSans-31"/>
      <use xlink:href="#DejaVuSans-38" x="63.623047"/>
      <use xlink:href="#DejaVuSans-30" x="127.246094"/>
      <use xlink:href="#DejaVuSans-30" x="190.869141"/>
      <use xlink:href="#DejaVuSans-30" x="254.492188"/>
      <use xlink:href="#DejaVuSans-2e" x="318.115234"/>
      <use xlink:href="#DejaVuSans-30" x="349.902344"/>
      <use xlink:href="#DejaVuSans-48" x="413.525391"/>
      <use xlink:href="#DejaVuSans-7a" x="488.720703"/>
     </g>
    </g>
   </g>
  </g>
  <g id="text_66">
   <!-- Pre-filter (fs=48000Hz) -->
   <g transform="translate(218.739375 20.638125) scale(0.12 -0.12)">
    <defs>
     <path id="DejaVuSans-2d" d="M 313 2009 
L 1997 2009 
L 1997 1497 
L 313 1497 
L 313 2009 
z
" transform="scale(0.015625)"/>
     <path id="DejaVuSans-66" d="M 2375 4863 
L 2375 4384 
L 1825 4384 
Q 1516 4384 1395 4259 
Q 1275 4134 1275 3809 
L 1275 3500 
L 2222 3500 
L 2222 3053 
L 1275 3053 
L 1275 0 
L 697 0 
L 697 3053 
L 147 3053 
L 147 3500 
L 697 3500 
L 697 3744 
Q 697 4328 969 4595 
Q 1241 4863 1831 4863 
L 2375 4863 
z
" transform="scale(0.015625)"/>
     <path id="DejaVuSans-28" d="M 1984 4856 
Q 1566 4138 1362 3434 
Q 1159 2731 1159 2009 
Q 1159 1288 1364 580 
Q 1569 -128 1984 -844 
L 1484 -844 
Q 1016 -109 783 600 
Q 550 1309 550 2009 
Q 550 2706 781 3412 
Q 1013 4119 1484 4856 
L 1984 4856 
z
" transform="scale(0.015625)"/>
     <path id="DejaVuSans-3d" d="M 678 2906 
L 4684 2906 
L 4684 2381 
L 678 2381 
L 678 2906 
z
M 678 1631 
L 4684 1631 
L 4684 1100 
L 678 1100 
L 678 1631 
z
" transform="scale(0.015625)"/>
     <path id="DejaVuSans-34" d="M 2419 4116 
L 825 1625 
L 2419 1625 
L 2419 4116 
z
M 2253 4666 
L 3047 4666 
L 3047 1625 
L 3713 1625 
L 3713 1100 
L 3047 1100 
L 3047 0 
L 2419 0 
L 2419 1100 
L 313 1100 
L 313 1709 
L 2253 4666 
z
" transform="scale(0.015625)"/>
     <path id="DejaVuSans-29" d="M 513 4856 
L 1013 4856 
Q 1481 4119 1714 3412 
Q 1947 2706 1947 2009 
Q 1947 1309 1714 600 
Q 1481 -109 1013 -844 
L 513 -844 
Q 928 -128 1133 580 
Q 1338 1288 1338 2009 
Q 1338 2731 1133 3434 
Q 928 4138 513 4856 
z
" transform="scale(0.015625)"/>
    </defs>
    <use xlink:href="#DejaVuSans-50"/>
    <use xlink:href="#DejaVuSans-72" x="58.552734"/>
    <use xlink:href="#DejaVuSans-65" x="97.416016"/>
    <use xlink:href="#DejaVuSans-2d" x="158.939453"/>
    <use xlink:href="#DejaVuSans-66" x="195.023438"/>
    <use xlink:href="#DejaVuSans-69" x="230.228516"/>
    <use xlink:href="#DejaVuSans-6c" x="258.011719"/>
    <use xlink:href="#DejaVuSans-74" x="285.794922"/>
    <use xlink:href="#DejaVuSans-65" x="325.003906"/>
    <use xlink:href="#DejaVuSans-72" x="386.527344"/>
    <use xlink:href="#DejaVuSans-20" x="427.640625"/>
    <use xlink:href="#DejaVuSans-28" x="459.427734"/>
    <use xlink:href="#DejaVuSans-66" x="498.441406"/>
    <use xlink:href="#DejaVuSans-73" x="533.646484"/>
    <use xlink:href="#DejaVuSans-3d" x="585.746094"/>
    <use xlink:href="#DejaVuSans-34" x="669.535156"/>
    <use xlink:href="#DejaVuSans-38" x="733.158203"/>
    <use xlink:href="#DejaVuSans-30" x="796.78125"/>
    <use xlink:href="#DejaVuSans-30" x="860.404297"/>
    <use xlink:href="#DejaVuSans-30" x="924.027344"/>
    <use xlink:href="#DejaVuSans-48" x="987.650391"/>
    <use xlink:href="#DejaVuSans-7a" x="1062.845703"/>
    <use xlink:href="#DejaVuSans-29" x="1115.335938"/>
   </g>
  </g>
 </g>
 <defs>
  <clipPath id="pb6d63db187">
   <rect x="59.24" y="34.56" width="493.540209" height="100.99"/>
  </clipPath>
  <clipPath id="pbb5a52d94d">
   <rect x="59.24" y="167.39" width="493.540209" height="100.99"/>
  </clipPath>
  <clipPath id="p255bb23a86">
   <rect x="59.24" y="300.22" width="493.540209" height="100.99"/>
  </clipPath>
  <clipPath id="p98eb00b2da">
   <rect x="59.24" y="433.05" width="493.540209" height="100.99"/>
  </clipPath>
 </defs>
</svg>
