<?xml version="1.0" encoding="utf-8" standalone="no"?>
<!DOCTYPE svg PUBLIC "-//W3C//DTD SVG 1.1//EN"
  "http://www.w3.org/Graphics/SVG/1.1/DTD/svg11.dtd">
<svg xmlns:xlink="http://www.w3.org/1999/xlink" width="576pt" height="288pt" viewBox="0 0 576 288" xmlns="http://www.w3.org/2000/svg" version="1.1">
 <metadata>
  <rdf:RDF xmlns:dc="http://purl.org/dc/elements/1.1/" xmlns:cc="http://creativecommons.org/ns#" xmlns:rdf="http://www.w3.org/1999/02/22-rdf-syntax-ns#">
   <cc:Work>
    <dc:type rdf:resource="http://purl.org/dc/dcmitype/StillImage"/>
    <dc:date>2026-06-25T13:44:25.323602</dc:date>
    <dc:format>image/svg+xml</dc:format>
    <dc:creator>
     <cc:Agent>
      <dc:title>Matplotlib v3.10.8, https://matplotlib.org/</dc:title>
     </cc:Agent>
    </dc:creator>
   </cc:Work>
  </rdf:RDF>
 </metadata>
 <defs>
  <style type="text/css">*{stroke-linejoin: round; stroke-linecap: butt}</style>
 </defs>
 <g id="figure_1">
  <g id="patch_1">
   <path d="M 0 288 
L 576 288 
L 576 0 
L 0 0 
z
" style="fill: #ffffff"/>
  </g>
  <g id="axes_1">
   <g id="patch_2">
    <path d="M 52.94 242.728 
L 565.2 242.728 
L 565.2 26.88 
L 52.94 26.88 
z
" style="fill: #ffffff"/>
   </g>
   <g id="matplotlib.axis_1">
    <g id="xtick_1">
     <g id="line2d_1">
      <path d="M 120.780518 242.728 
L 120.780518 26.88 
" clip-path="url(#p6d94ee9a8b)" style="fill: none; stroke: #f8f8f8; stroke-width: 0.8; stroke-linecap: square"/>
     </g>
     <g id="line2d_2">
      <defs>
       <path id="m4d412a94be" d="M 0 0 
L 0 3.5 
" style="stroke: #000000; stroke-width: 0.8"/>
      </defs>
      <g>
       <use xlink:href="#m4d412a94be" x="120.780518" y="242.728" style="stroke: #000000; stroke-width: 0.8"/>
      </g>
     </g>
     <g id="text_1">
      <!-- $\mathdefault{10^{-5}}$ -->
      <g transform="translate(109.030518 257.326437) scale(0.1 -0.1)">
       <defs>
        <path id="DejaVuSans-31" d="M 794 531 
L 1825 531 
L 1825 4091 
L 703 3866 
L 703 4441 
L 1819 4666 
L 2450 4666 
L 2450 531 
L 3481 531 
L 3481 0 
L 794 0 
L 794 531 
z
" transform="scale(0.015625)"/>
        <path id="DejaVuSans-30" d="M 2034 4250 
Q 1547 4250 1301 3770 
Q 1056 3291 1056 2328 
Q 1056 1369 1301 889 
Q 1547 409 2034 409 
Q 2525 409 2770 889 
Q 3016 1369 3016 2328 
Q 3016 3291 2770 3770 
Q 2525 4250 2034 4250 
z
M 2034 4750 
Q 2819 4750 3233 4129 
Q 3647 3509 3647 2328 
Q 3647 1150 3233 529 
Q 2819 -91 2034 -91 
Q 1250 -91 836 529 
Q 422 1150 422 2328 
Q 422 3509 836 4129 
Q 1250 4750 2034 4750 
z
" transform="scale(0.015625)"/>
        <path id="DejaVuSans-2212" d="M 678 2272 
L 4684 2272 
L 4684 1741 
L 678 1741 
L 678 2272 
z
" transform="scale(0.015625)"/>
        <path id="DejaVuSans-35" d="M 691 4666 
L 3169 4666 
L 3169 4134 
L 1269 4134 
L 1269 2991 
Q 1406 3038 1543 3061 
Q 1681 3084 1819 3084 
Q 2600 3084 3056 2656 
Q 3513 2228 3513 1497 
Q 3513 744 3044 326 
Q 2575 -91 1722 -91 
Q 1428 -91 1123 -41 
Q 819 9 494 109 
L 494 744 
Q 775 591 1075 516 
Q 1375 441 1709 441 
Q 2250 441 2565 725 
Q 2881 1009 2881 1497 
Q 2881 1984 2565 2268 
Q 2250 2553 1709 2553 
Q 1456 2553 1204 2497 
Q 953 2441 691 2322 
L 691 4666 
z
" transform="scale(0.015625)"/>
       </defs>
       <use xlink:href="#DejaVuSans-31" transform="translate(0 0.684375)"/>
       <use xlink:href="#DejaVuSans-30" transform="translate(63.623047 0.684375)"/>
       <use xlink:href="#DejaVuSans-2212" transform="translate(128.203125 38.965625) scale(0.7)"/>
       <use xlink:href="#DejaVuSans-35" transform="translate(186.855469 38.965625) scale(0.7)"/>
      </g>
     </g>
    </g>
    <g id="xtick_2">
     <g id="line2d_3">
      <path d="M 210.403337 242.728 
L 210.403337 26.88 
" clip-path="url(#p6d94ee9a8b)" style="fill: none; stroke: #f8f8f8; stroke-width: 0.8; stroke-linecap: square"/>
     </g>
     <g id="line2d_4">
      <g>
       <use xlink:href="#m4d412a94be" x="210.403337" y="242.728" style="stroke: #000000; stroke-width: 0.8"/>
      </g>
     </g>
     <g id="text_2">
      <!-- $\mathdefault{10^{-4}}$ -->
      <g transform="translate(198.653337 257.326437) scale(0.1 -0.1)">
       <defs>
        <path id="DejaVuSans-34" d="M 2419 4116 
L 825 1625 
L 2419 1625 
L 2419 4116 
z
M 2253 4666 
L 3047 4666 
L 3047 1625 
L 3713 1625 
L 3713 1100 
L 3047 1100 
L 3047 0 
L 2419 0 
L 2419 1100 
L 313 1100 
L 313 1709 
L 2253 4666 
z
" transform="scale(0.015625)"/>
       </defs>
       <use xlink:href="#DejaVuSans-31" transform="translate(0 0.684375)"/>
       <use xlink:href="#DejaVuSans-30" transform="translate(63.623047 0.684375)"/>
       <use xlink:href="#DejaVuSans-2212" transform="translate(128.203125 38.965625) scale(0.7)"/>
       <use xlink:href="#DejaVuSans-34" transform="translate(186.855469 38.965625) scale(0.7)"/>
      </g>
     </g>
    </g>
    <g id="xtick_3">
     <g id="line2d_5">
      <path d="M 300.026155 242.728 
L 300.026155 26.88 
" clip-path="url(#p6d94ee9a8b)" style="fill: none; stroke: #f8f8f8; stroke-width: 0.8; stroke-linecap: square"/>
     </g>
     <g id="line2d_6">
      <g>
       <use xlink:href="#m4d412a94be" x="300.026155" y="242.728" style="stroke: #000000; stroke-width: 0.8"/>
      </g>
     </g>
     <g id="text_3">
      <!-- $\mathdefault{10^{-3}}$ -->
      <g transform="translate(288.276155 257.326437) scale(0.1 -0.1)">
       <defs>
        <path id="DejaVuSans-33" d="M 2597 2516 
Q 3050 2419 3304 2112 
Q 3559 1806 3559 1356 
Q 3559 666 3084 287 
Q 2609 -91 1734 -91 
Q 1441 -91 1130 -33 
Q 819 25 488 141 
L 488 750 
Q 750 597 1062 519 
Q 1375 441 1716 441 
Q 2309 441 2620 675 
Q 2931 909 2931 1356 
Q 2931 1769 2642 2001 
Q 2353 2234 1838 2234 
L 1294 2234 
L 1294 2753 
L 1863 2753 
Q 2328 2753 2575 2939 
Q 2822 3125 2822 3475 
Q 2822 3834 2567 4026 
Q 2313 4219 1838 4219 
Q 1578 4219 1281 4162 
Q 984 4106 628 3988 
L 628 4550 
Q 988 4650 1302 4700 
Q 1616 4750 1894 4750 
Q 2613 4750 3031 4423 
Q 3450 4097 3450 3541 
Q 3450 3153 3228 2886 
Q 3006 2619 2597 2516 
z
" transform="scale(0.015625)"/>
       </defs>
       <use xlink:href="#DejaVuSans-31" transform="translate(0 0.765625)"/>
       <use xlink:href="#DejaVuSans-30" transform="translate(63.623047 0.765625)"/>
       <use xlink:href="#DejaVuSans-2212" transform="translate(128.203125 39.046875) scale(0.7)"/>
       <use xlink:href="#DejaVuSans-33" transform="translate(186.855469 39.046875) scale(0.7)"/>
      </g>
     </g>
    </g>
    <g id="xtick_4">
     <g id="line2d_7">
      <path d="M 389.648974 242.728 
L 389.648974 26.88 
" clip-path="url(#p6d94ee9a8b)" style="fill: none; stroke: #f8f8f8; stroke-width: 0.8; stroke-linecap: square"/>
     </g>
     <g id="line2d_8">
      <g>
       <use xlink:href="#m4d412a94be" x="389.648974" y="242.728" style="stroke: #000000; stroke-width: 0.8"/>
      </g>
     </g>
     <g id="text_4">
      <!-- $\mathdefault{10^{-2}}$ -->
      <g transform="translate(377.898974 257.326437) scale(0.1 -0.1)">
       <defs>
        <path id="DejaVuSans-32" d="M 1228 531 
L 3431 531 
L 3431 0 
L 469 0 
L 469 531 
Q 828 903 1448 1529 
Q 2069 2156 2228 2338 
Q 2531 2678 2651 2914 
Q 2772 3150 2772 3378 
Q 2772 3750 2511 3984 
Q 2250 4219 1831 4219 
Q 1534 4219 1204 4116 
Q 875 4013 500 3803 
L 500 4441 
Q 881 4594 1212 4672 
Q 1544 4750 1819 4750 
Q 2544 4750 2975 4387 
Q 3406 4025 3406 3419 
Q 3406 3131 3298 2873 
Q 3191 2616 2906 2266 
Q 2828 2175 2409 1742 
Q 1991 1309 1228 531 
z
" transform="scale(0.015625)"/>
       </defs>
       <use xlink:href="#DejaVuSans-31" transform="translate(0 0.765625)"/>
       <use xlink:href="#DejaVuSans-30" transform="translate(63.623047 0.765625)"/>
       <use xlink:href="#DejaVuSans-2212" transform="translate(128.203125 39.046875) scale(0.7)"/>
       <use xlink:href="#DejaVuSans-32" transform="translate(186.855469 39.046875) scale(0.7)"/>
      </g>
     </g>
    </g>
    <g id="xtick_5">
     <g id="line2d_9">
      <path d="M 479.271793 242.728 
L 479.271793 26.88 
" clip-path="url(#p6d94ee9a8b)" style="fill: none; stroke: #f8f8f8; stroke-width: 0.8; stroke-linecap: square"/>
     </g>
     <g id="line2d_10">
      <g>
       <use xlink:href="#m4d412a94be" x="479.271793" y="242.728" style="stroke: #000000; stroke-width: 0.8"/>
      </g>
     </g>
     <g id="text_5">
      <!-- $\mathdefault{10^{-1}}$ -->
      <g transform="translate(467.521793 257.326437) scale(0.1 -0.1)">
       <use xlink:href="#DejaVuSans-31" transform="translate(0 0.684375)"/>
       <use xlink:href="#DejaVuSans-30" transform="translate(63.623047 0.684375)"/>
       <use xlink:href="#DejaVuSans-2212" transform="translate(128.203125 38.965625) scale(0.7)"/>
       <use xlink:href="#DejaVuSans-31" transform="translate(186.855469 38.965625) scale(0.7)"/>
      </g>
     </g>
    </g>
    <g id="xtick_6">
     <g id="line2d_11">
      <path d="M 58.136856 242.728 
L 58.136856 26.88 
" clip-path="url(#p6d94ee9a8b)" style="fill: none; stroke: #f8f8f8; stroke-width: 0.8; stroke-linecap: square"/>
     </g>
     <g id="line2d_12">
      <defs>
       <path id="m367b07aeaf" d="M 0 0 
L 0 2 
" style="stroke: #000000; stroke-width: 0.6"/>
      </defs>
      <g>
       <use xlink:href="#m367b07aeaf" x="58.136856" y="242.728" style="stroke: #000000; stroke-width: 0.6"/>
      </g>
     </g>
    </g>
    <g id="xtick_7">
     <g id="line2d_13">
      <path d="M 73.918651 242.728 
L 73.918651 26.88 
" clip-path="url(#p6d94ee9a8b)" style="fill: none; stroke: #f8f8f8; stroke-width: 0.8; stroke-linecap: square"/>
     </g>
     <g id="line2d_14">
      <g>
       <use xlink:href="#m367b07aeaf" x="73.918651" y="242.728" style="stroke: #000000; stroke-width: 0.6"/>
      </g>
     </g>
    </g>
    <g id="xtick_8">
     <g id="line2d_15">
      <path d="M 85.116013 242.728 
L 85.116013 26.88 
" clip-path="url(#p6d94ee9a8b)" style="fill: none; stroke: #f8f8f8; stroke-width: 0.8; stroke-linecap: square"/>
     </g>
     <g id="line2d_16">
      <g>
       <use xlink:href="#m367b07aeaf" x="85.116013" y="242.728" style="stroke: #000000; stroke-width: 0.6"/>
      </g>
     </g>
    </g>
    <g id="xtick_9">
     <g id="line2d_17">
      <path d="M 93.801362 242.728 
L 93.801362 26.88 
" clip-path="url(#p6d94ee9a8b)" style="fill: none; stroke: #f8f8f8; stroke-width: 0.8; stroke-linecap: square"/>
     </g>
     <g id="line2d_18">
      <g>
       <use xlink:href="#m367b07aeaf" x="93.801362" y="242.728" style="stroke: #000000; stroke-width: 0.6"/>
      </g>
     </g>
    </g>
    <g id="xtick_10">
     <g id="line2d_19">
      <path d="M 100.897808 242.728 
L 100.897808 26.88 
" clip-path="url(#p6d94ee9a8b)" style="fill: none; stroke: #f8f8f8; stroke-width: 0.8; stroke-linecap: square"/>
     </g>
     <g id="line2d_20">
      <g>
       <use xlink:href="#m367b07aeaf" x="100.897808" y="242.728" style="stroke: #000000; stroke-width: 0.6"/>
      </g>
     </g>
    </g>
    <g id="xtick_11">
     <g id="line2d_21">
      <path d="M 106.897768 242.728 
L 106.897768 26.88 
" clip-path="url(#p6d94ee9a8b)" style="fill: none; stroke: #f8f8f8; stroke-width: 0.8; stroke-linecap: square"/>
     </g>
     <g id="line2d_22">
      <g>
       <use xlink:href="#m367b07aeaf" x="106.897768" y="242.728" style="stroke: #000000; stroke-width: 0.6"/>
      </g>
     </g>
    </g>
    <g id="xtick_12">
     <g id="line2d_23">
      <path d="M 112.09517 242.728 
L 112.09517 26.88 
" clip-path="url(#p6d94ee9a8b)" style="fill: none; stroke: #f8f8f8; stroke-width: 0.8; stroke-linecap: square"/>
     </g>
     <g id="line2d_24">
      <g>
       <use xlink:href="#m367b07aeaf" x="112.09517" y="242.728" style="stroke: #000000; stroke-width: 0.6"/>
      </g>
     </g>
    </g>
    <g id="xtick_13">
     <g id="line2d_25">
      <path d="M 116.679603 242.728 
L 116.679603 26.88 
" clip-path="url(#p6d94ee9a8b)" style="fill: none; stroke: #f8f8f8; stroke-width: 0.8; stroke-linecap: square"/>
     </g>
     <g id="line2d_26">
      <g>
       <use xlink:href="#m367b07aeaf" x="116.679603" y="242.728" style="stroke: #000000; stroke-width: 0.6"/>
      </g>
     </g>
    </g>
    <g id="xtick_14">
     <g id="line2d_27">
      <path d="M 147.759675 242.728 
L 147.759675 26.88 
" clip-path="url(#p6d94ee9a8b)" style="fill: none; stroke: #f8f8f8; stroke-width: 0.8; stroke-linecap: square"/>
     </g>
     <g id="line2d_28">
      <g>
       <use xlink:href="#m367b07aeaf" x="147.759675" y="242.728" style="stroke: #000000; stroke-width: 0.6"/>
      </g>
     </g>
    </g>
    <g id="xtick_15">
     <g id="line2d_29">
      <path d="M 163.54147 242.728 
L 163.54147 26.88 
" clip-path="url(#p6d94ee9a8b)" style="fill: none; stroke: #f8f8f8; stroke-width: 0.8; stroke-linecap: square"/>
     </g>
     <g id="line2d_30">
      <g>
       <use xlink:href="#m367b07aeaf" x="163.54147" y="242.728" style="stroke: #000000; stroke-width: 0.6"/>
      </g>
     </g>
    </g>
    <g id="xtick_16">
     <g id="line2d_31">
      <path d="M 174.738832 242.728 
L 174.738832 26.88 
" clip-path="url(#p6d94ee9a8b)" style="fill: none; stroke: #f8f8f8; stroke-width: 0.8; stroke-linecap: square"/>
     </g>
     <g id="line2d_32">
      <g>
       <use xlink:href="#m367b07aeaf" x="174.738832" y="242.728" style="stroke: #000000; stroke-width: 0.6"/>
      </g>
     </g>
    </g>
    <g id="xtick_17">
     <g id="line2d_33">
      <path d="M 183.42418 242.728 
L 183.42418 26.88 
" clip-path="url(#p6d94ee9a8b)" style="fill: none; stroke: #f8f8f8; stroke-width: 0.8; stroke-linecap: square"/>
     </g>
     <g id="line2d_34">
      <g>
       <use xlink:href="#m367b07aeaf" x="183.42418" y="242.728" style="stroke: #000000; stroke-width: 0.6"/>
      </g>
     </g>
    </g>
    <g id="xtick_18">
     <g id="line2d_35">
      <path d="M 190.520627 242.728 
L 190.520627 26.88 
" clip-path="url(#p6d94ee9a8b)" style="fill: none; stroke: #f8f8f8; stroke-width: 0.8; stroke-linecap: square"/>
     </g>
     <g id="line2d_36">
      <g>
       <use xlink:href="#m367b07aeaf" x="190.520627" y="242.728" style="stroke: #000000; stroke-width: 0.6"/>
      </g>
     </g>
    </g>
    <g id="xtick_19">
     <g id="line2d_37">
      <path d="M 196.520587 242.728 
L 196.520587 26.88 
" clip-path="url(#p6d94ee9a8b)" style="fill: none; stroke: #f8f8f8; stroke-width: 0.8; stroke-linecap: square"/>
     </g>
     <g id="line2d_38">
      <g>
       <use xlink:href="#m367b07aeaf" x="196.520587" y="242.728" style="stroke: #000000; stroke-width: 0.6"/>
      </g>
     </g>
    </g>
    <g id="xtick_20">
     <g id="line2d_39">
      <path d="M 201.717988 242.728 
L 201.717988 26.88 
" clip-path="url(#p6d94ee9a8b)" style="fill: none; stroke: #f8f8f8; stroke-width: 0.8; stroke-linecap: square"/>
     </g>
     <g id="line2d_40">
      <g>
       <use xlink:href="#m367b07aeaf" x="201.717988" y="242.728" style="stroke: #000000; stroke-width: 0.6"/>
      </g>
     </g>
    </g>
    <g id="xtick_21">
     <g id="line2d_41">
      <path d="M 206.302422 242.728 
L 206.302422 26.88 
" clip-path="url(#p6d94ee9a8b)" style="fill: none; stroke: #f8f8f8; stroke-width: 0.8; stroke-linecap: square"/>
     </g>
     <g id="line2d_42">
      <g>
       <use xlink:href="#m367b07aeaf" x="206.302422" y="242.728" style="stroke: #000000; stroke-width: 0.6"/>
      </g>
     </g>
    </g>
    <g id="xtick_22">
     <g id="line2d_43">
      <path d="M 237.382494 242.728 
L 237.382494 26.88 
" clip-path="url(#p6d94ee9a8b)" style="fill: none; stroke: #f8f8f8; stroke-width: 0.8; stroke-linecap: square"/>
     </g>
     <g id="line2d_44">
      <g>
       <use xlink:href="#m367b07aeaf" x="237.382494" y="242.728" style="stroke: #000000; stroke-width: 0.6"/>
      </g>
     </g>
    </g>
    <g id="xtick_23">
     <g id="line2d_45">
      <path d="M 253.164289 242.728 
L 253.164289 26.88 
" clip-path="url(#p6d94ee9a8b)" style="fill: none; stroke: #f8f8f8; stroke-width: 0.8; stroke-linecap: square"/>
     </g>
     <g id="line2d_46">
      <g>
       <use xlink:href="#m367b07aeaf" x="253.164289" y="242.728" style="stroke: #000000; stroke-width: 0.6"/>
      </g>
     </g>
    </g>
    <g id="xtick_24">
     <g id="line2d_47">
      <path d="M 264.36165 242.728 
L 264.36165 26.88 
" clip-path="url(#p6d94ee9a8b)" style="fill: none; stroke: #f8f8f8; stroke-width: 0.8; stroke-linecap: square"/>
     </g>
     <g id="line2d_48">
      <g>
       <use xlink:href="#m367b07aeaf" x="264.36165" y="242.728" style="stroke: #000000; stroke-width: 0.6"/>
      </g>
     </g>
    </g>
    <g id="xtick_25">
     <g id="line2d_49">
      <path d="M 273.046999 242.728 
L 273.046999 26.88 
" clip-path="url(#p6d94ee9a8b)" style="fill: none; stroke: #f8f8f8; stroke-width: 0.8; stroke-linecap: square"/>
     </g>
     <g id="line2d_50">
      <g>
       <use xlink:href="#m367b07aeaf" x="273.046999" y="242.728" style="stroke: #000000; stroke-width: 0.6"/>
      </g>
     </g>
    </g>
    <g id="xtick_26">
     <g id="line2d_51">
      <path d="M 280.143445 242.728 
L 280.143445 26.88 
" clip-path="url(#p6d94ee9a8b)" style="fill: none; stroke: #f8f8f8; stroke-width: 0.8; stroke-linecap: square"/>
     </g>
     <g id="line2d_52">
      <g>
       <use xlink:href="#m367b07aeaf" x="280.143445" y="242.728" style="stroke: #000000; stroke-width: 0.6"/>
      </g>
     </g>
    </g>
    <g id="xtick_27">
     <g id="line2d_53">
      <path d="M 286.143405 242.728 
L 286.143405 26.88 
" clip-path="url(#p6d94ee9a8b)" style="fill: none; stroke: #f8f8f8; stroke-width: 0.8; stroke-linecap: square"/>
     </g>
     <g id="line2d_54">
      <g>
       <use xlink:href="#m367b07aeaf" x="286.143405" y="242.728" style="stroke: #000000; stroke-width: 0.6"/>
      </g>
     </g>
    </g>
    <g id="xtick_28">
     <g id="line2d_55">
      <path d="M 291.340807 242.728 
L 291.340807 26.88 
" clip-path="url(#p6d94ee9a8b)" style="fill: none; stroke: #f8f8f8; stroke-width: 0.8; stroke-linecap: square"/>
     </g>
     <g id="line2d_56">
      <g>
       <use xlink:href="#m367b07aeaf" x="291.340807" y="242.728" style="stroke: #000000; stroke-width: 0.6"/>
      </g>
     </g>
    </g>
    <g id="xtick_29">
     <g id="line2d_57">
      <path d="M 295.92524 242.728 
L 295.92524 26.88 
" clip-path="url(#p6d94ee9a8b)" style="fill: none; stroke: #f8f8f8; stroke-width: 0.8; stroke-linecap: square"/>
     </g>
     <g id="line2d_58">
      <g>
       <use xlink:href="#m367b07aeaf" x="295.92524" y="242.728" style="stroke: #000000; stroke-width: 0.6"/>
      </g>
     </g>
    </g>
    <g id="xtick_30">
     <g id="line2d_59">
      <path d="M 327.005312 242.728 
L 327.005312 26.88 
" clip-path="url(#p6d94ee9a8b)" style="fill: none; stroke: #f8f8f8; stroke-width: 0.8; stroke-linecap: square"/>
     </g>
     <g id="line2d_60">
      <g>
       <use xlink:href="#m367b07aeaf" x="327.005312" y="242.728" style="stroke: #000000; stroke-width: 0.6"/>
      </g>
     </g>
    </g>
    <g id="xtick_31">
     <g id="line2d_61">
      <path d="M 342.787107 242.728 
L 342.787107 26.88 
" clip-path="url(#p6d94ee9a8b)" style="fill: none; stroke: #f8f8f8; stroke-width: 0.8; stroke-linecap: square"/>
     </g>
     <g id="line2d_62">
      <g>
       <use xlink:href="#m367b07aeaf" x="342.787107" y="242.728" style="stroke: #000000; stroke-width: 0.6"/>
      </g>
     </g>
    </g>
    <g id="xtick_32">
     <g id="line2d_63">
      <path d="M 353.984469 242.728 
L 353.984469 26.88 
" clip-path="url(#p6d94ee9a8b)" style="fill: none; stroke: #f8f8f8; stroke-width: 0.8; stroke-linecap: square"/>
     </g>
     <g id="line2d_64">
      <g>
       <use xlink:href="#m367b07aeaf" x="353.984469" y="242.728" style="stroke: #000000; stroke-width: 0.6"/>
      </g>
     </g>
    </g>
    <g id="xtick_33">
     <g id="line2d_65">
      <path d="M 362.669817 242.728 
L 362.669817 26.88 
" clip-path="url(#p6d94ee9a8b)" style="fill: none; stroke: #f8f8f8; stroke-width: 0.8; stroke-linecap: square"/>
     </g>
     <g id="line2d_66">
      <g>
       <use xlink:href="#m367b07aeaf" x="362.669817" y="242.728" style="stroke: #000000; stroke-width: 0.6"/>
      </g>
     </g>
    </g>
    <g id="xtick_34">
     <g id="line2d_67">
      <path d="M 369.766264 242.728 
L 369.766264 26.88 
" clip-path="url(#p6d94ee9a8b)" style="fill: none; stroke: #f8f8f8; stroke-width: 0.8; stroke-linecap: square"/>
     </g>
     <g id="line2d_68">
      <g>
       <use xlink:href="#m367b07aeaf" x="369.766264" y="242.728" style="stroke: #000000; stroke-width: 0.6"/>
      </g>
     </g>
    </g>
    <g id="xtick_35">
     <g id="line2d_69">
      <path d="M 375.766224 242.728 
L 375.766224 26.88 
" clip-path="url(#p6d94ee9a8b)" style="fill: none; stroke: #f8f8f8; stroke-width: 0.8; stroke-linecap: square"/>
     </g>
     <g id="line2d_70">
      <g>
       <use xlink:href="#m367b07aeaf" x="375.766224" y="242.728" style="stroke: #000000; stroke-width: 0.6"/>
      </g>
     </g>
    </g>
    <g id="xtick_36">
     <g id="line2d_71">
      <path d="M 380.963626 242.728 
L 380.963626 26.88 
" clip-path="url(#p6d94ee9a8b)" style="fill: none; stroke: #f8f8f8; stroke-width: 0.8; stroke-linecap: square"/>
     </g>
     <g id="line2d_72">
      <g>
       <use xlink:href="#m367b07aeaf" x="380.963626" y="242.728" style="stroke: #000000; stroke-width: 0.6"/>
      </g>
     </g>
    </g>
    <g id="xtick_37">
     <g id="line2d_73">
      <path d="M 385.548059 242.728 
L 385.548059 26.88 
" clip-path="url(#p6d94ee9a8b)" style="fill: none; stroke: #f8f8f8; stroke-width: 0.8; stroke-linecap: square"/>
     </g>
     <g id="line2d_74">
      <g>
       <use xlink:href="#m367b07aeaf" x="385.548059" y="242.728" style="stroke: #000000; stroke-width: 0.6"/>
      </g>
     </g>
    </g>
    <g id="xtick_38">
     <g id="line2d_75">
      <path d="M 416.628131 242.728 
L 416.628131 26.88 
" clip-path="url(#p6d94ee9a8b)" style="fill: none; stroke: #f8f8f8; stroke-width: 0.8; stroke-linecap: square"/>
     </g>
     <g id="line2d_76">
      <g>
       <use xlink:href="#m367b07aeaf" x="416.628131" y="242.728" style="stroke: #000000; stroke-width: 0.6"/>
      </g>
     </g>
    </g>
    <g id="xtick_39">
     <g id="line2d_77">
      <path d="M 432.409926 242.728 
L 432.409926 26.88 
" clip-path="url(#p6d94ee9a8b)" style="fill: none; stroke: #f8f8f8; stroke-width: 0.8; stroke-linecap: square"/>
     </g>
     <g id="line2d_78">
      <g>
       <use xlink:href="#m367b07aeaf" x="432.409926" y="242.728" style="stroke: #000000; stroke-width: 0.6"/>
      </g>
     </g>
    </g>
    <g id="xtick_40">
     <g id="line2d_79">
      <path d="M 443.607287 242.728 
L 443.607287 26.88 
" clip-path="url(#p6d94ee9a8b)" style="fill: none; stroke: #f8f8f8; stroke-width: 0.8; stroke-linecap: square"/>
     </g>
     <g id="line2d_80">
      <g>
       <use xlink:href="#m367b07aeaf" x="443.607287" y="242.728" style="stroke: #000000; stroke-width: 0.6"/>
      </g>
     </g>
    </g>
    <g id="xtick_41">
     <g id="line2d_81">
      <path d="M 452.292636 242.728 
L 452.292636 26.88 
" clip-path="url(#p6d94ee9a8b)" style="fill: none; stroke: #f8f8f8; stroke-width: 0.8; stroke-linecap: square"/>
     </g>
     <g id="line2d_82">
      <g>
       <use xlink:href="#m367b07aeaf" x="452.292636" y="242.728" style="stroke: #000000; stroke-width: 0.6"/>
      </g>
     </g>
    </g>
    <g id="xtick_42">
     <g id="line2d_83">
      <path d="M 459.389082 242.728 
L 459.389082 26.88 
" clip-path="url(#p6d94ee9a8b)" style="fill: none; stroke: #f8f8f8; stroke-width: 0.8; stroke-linecap: square"/>
     </g>
     <g id="line2d_84">
      <g>
       <use xlink:href="#m367b07aeaf" x="459.389082" y="242.728" style="stroke: #000000; stroke-width: 0.6"/>
      </g>
     </g>
    </g>
    <g id="xtick_43">
     <g id="line2d_85">
      <path d="M 465.389042 242.728 
L 465.389042 26.88 
" clip-path="url(#p6d94ee9a8b)" style="fill: none; stroke: #f8f8f8; stroke-width: 0.8; stroke-linecap: square"/>
     </g>
     <g id="line2d_86">
      <g>
       <use xlink:href="#m367b07aeaf" x="465.389042" y="242.728" style="stroke: #000000; stroke-width: 0.6"/>
      </g>
     </g>
    </g>
    <g id="xtick_44">
     <g id="line2d_87">
      <path d="M 470.586444 242.728 
L 470.586444 26.88 
" clip-path="url(#p6d94ee9a8b)" style="fill: none; stroke: #f8f8f8; stroke-width: 0.8; stroke-linecap: square"/>
     </g>
     <g id="line2d_88">
      <g>
       <use xlink:href="#m367b07aeaf" x="470.586444" y="242.728" style="stroke: #000000; stroke-width: 0.6"/>
      </g>
     </g>
    </g>
    <g id="xtick_45">
     <g id="line2d_89">
      <path d="M 475.170877 242.728 
L 475.170877 26.88 
" clip-path="url(#p6d94ee9a8b)" style="fill: none; stroke: #f8f8f8; stroke-width: 0.8; stroke-linecap: square"/>
     </g>
     <g id="line2d_90">
      <g>
       <use xlink:href="#m367b07aeaf" x="475.170877" y="242.728" style="stroke: #000000; stroke-width: 0.6"/>
      </g>
     </g>
    </g>
    <g id="xtick_46">
     <g id="line2d_91">
      <path d="M 506.250949 242.728 
L 506.250949 26.88 
" clip-path="url(#p6d94ee9a8b)" style="fill: none; stroke: #f8f8f8; stroke-width: 0.8; stroke-linecap: square"/>
     </g>
     <g id="line2d_92">
      <g>
       <use xlink:href="#m367b07aeaf" x="506.250949" y="242.728" style="stroke: #000000; stroke-width: 0.6"/>
      </g>
     </g>
    </g>
    <g id="xtick_47">
     <g id="line2d_93">
      <path d="M 522.032744 242.728 
L 522.032744 26.88 
" clip-path="url(#p6d94ee9a8b)" style="fill: none; stroke: #f8f8f8; stroke-width: 0.8; stroke-linecap: square"/>
     </g>
     <g id="line2d_94">
      <g>
       <use xlink:href="#m367b07aeaf" x="522.032744" y="242.728" style="stroke: #000000; stroke-width: 0.6"/>
      </g>
     </g>
    </g>
    <g id="xtick_48">
     <g id="line2d_95">
      <path d="M 533.230106 242.728 
L 533.230106 26.88 
" clip-path="url(#p6d94ee9a8b)" style="fill: none; stroke: #f8f8f8; stroke-width: 0.8; stroke-linecap: square"/>
     </g>
     <g id="line2d_96">
      <g>
       <use xlink:href="#m367b07aeaf" x="533.230106" y="242.728" style="stroke: #000000; stroke-width: 0.6"/>
      </g>
     </g>
    </g>
    <g id="xtick_49">
     <g id="line2d_97">
      <path d="M 541.915455 242.728 
L 541.915455 26.88 
" clip-path="url(#p6d94ee9a8b)" style="fill: none; stroke: #f8f8f8; stroke-width: 0.8; stroke-linecap: square"/>
     </g>
     <g id="line2d_98">
      <g>
       <use xlink:href="#m367b07aeaf" x="541.915455" y="242.728" style="stroke: #000000; stroke-width: 0.6"/>
      </g>
     </g>
    </g>
    <g id="xtick_50">
     <g id="line2d_99">
      <path d="M 549.011901 242.728 
L 549.011901 26.88 
" clip-path="url(#p6d94ee9a8b)" style="fill: none; stroke: #f8f8f8; stroke-width: 0.8; stroke-linecap: square"/>
     </g>
     <g id="line2d_100">
      <g>
       <use xlink:href="#m367b07aeaf" x="549.011901" y="242.728" style="stroke: #000000; stroke-width: 0.6"/>
      </g>
     </g>
    </g>
    <g id="xtick_51">
     <g id="line2d_101">
      <path d="M 555.011861 242.728 
L 555.011861 26.88 
" clip-path="url(#p6d94ee9a8b)" style="fill: none; stroke: #f8f8f8; stroke-width: 0.8; stroke-linecap: square"/>
     </g>
     <g id="line2d_102">
      <g>
       <use xlink:href="#m367b07aeaf" x="555.011861" y="242.728" style="stroke: #000000; stroke-width: 0.6"/>
      </g>
     </g>
    </g>
    <g id="xtick_52">
     <g id="line2d_103">
      <path d="M 560.209263 242.728 
L 560.209263 26.88 
" clip-path="url(#p6d94ee9a8b)" style="fill: none; stroke: #f8f8f8; stroke-width: 0.8; stroke-linecap: square"/>
     </g>
     <g id="line2d_104">
      <g>
       <use xlink:href="#m367b07aeaf" x="560.209263" y="242.728" style="stroke: #000000; stroke-width: 0.6"/>
      </g>
     </g>
    </g>
    <g id="xtick_53">
     <g id="line2d_105">
      <path d="M 564.793696 242.728 
L 564.793696 26.88 
" clip-path="url(#p6d94ee9a8b)" style="fill: none; stroke: #f8f8f8; stroke-width: 0.8; stroke-linecap: square"/>
     </g>
     <g id="line2d_106">
      <g>
       <use xlink:href="#m367b07aeaf" x="564.793696" y="242.728" style="stroke: #000000; stroke-width: 0.6"/>
      </g>
     </g>
    </g>
    <g id="text_6">
     <!-- Normalized Frequency [rad/2π] -->
     <g transform="translate(231.635625 271.004563) scale(0.1 -0.1)">
      <defs>
       <path id="DejaVuSans-4e" d="M 628 4666 
L 1478 4666 
L 3547 763 
L 3547 4666 
L 4159 4666 
L 4159 0 
L 3309 0 
L 1241 3903 
L 1241 0 
L 628 0 
L 628 4666 
z
" transform="scale(0.015625)"/>
       <path id="DejaVuSans-6f" d="M 1959 3097 
Q 1497 3097 1228 2736 
Q 959 2375 959 1747 
Q 959 1119 1226 758 
Q 1494 397 1959 397 
Q 2419 397 2687 759 
Q 2956 1122 2956 1747 
Q 2956 2369 2687 2733 
Q 2419 3097 1959 3097 
z
M 1959 3584 
Q 2709 3584 3137 3096 
Q 3566 2609 3566 1747 
Q 3566 888 3137 398 
Q 2709 -91 1959 -91 
Q 1206 -91 779 398 
Q 353 888 353 1747 
Q 353 2609 779 3096 
Q 1206 3584 1959 3584 
z
" transform="scale(0.015625)"/>
       <path id="DejaVuSans-72" d="M 2631 2963 
Q 2534 3019 2420 3045 
Q 2306 3072 2169 3072 
Q 1681 3072 1420 2755 
Q 1159 2438 1159 1844 
L 1159 0 
L 581 0 
L 581 3500 
L 1159 3500 
L 1159 2956 
Q 1341 3275 1631 3429 
Q 1922 3584 2338 3584 
Q 2397 3584 2469 3576 
Q 2541 3569 2628 3553 
L 2631 2963 
z
" transform="scale(0.015625)"/>
       <path id="DejaVuSans-6d" d="M 3328 2828 
Q 3544 3216 3844 3400 
Q 4144 3584 4550 3584 
Q 5097 3584 5394 3201 
Q 5691 2819 5691 2113 
L 5691 0 
L 5113 0 
L 5113 2094 
Q 5113 2597 4934 2840 
Q 4756 3084 4391 3084 
Q 3944 3084 3684 2787 
Q 3425 2491 3425 1978 
L 3425 0 
L 2847 0 
L 2847 2094 
Q 2847 2600 2669 2842 
Q 2491 3084 2119 3084 
Q 1678 3084 1418 2786 
Q 1159 2488 1159 1978 
L 1159 0 
L 581 0 
L 581 3500 
L 1159 3500 
L 1159 2956 
Q 1356 3278 1631 3431 
Q 1906 3584 2284 3584 
Q 2666 3584 2933 3390 
Q 3200 3197 3328 2828 
z
" transform="scale(0.015625)"/>
       <path id="DejaVuSans-61" d="M 2194 1759 
Q 1497 1759 1228 1600 
Q 959 1441 959 1056 
Q 959 750 1161 570 
Q 1363 391 1709 391 
Q 2188 391 2477 730 
Q 2766 1069 2766 1631 
L 2766 1759 
L 2194 1759 
z
M 3341 1997 
L 3341 0 
L 2766 0 
L 2766 531 
Q 2569 213 2275 61 
Q 1981 -91 1556 -91 
Q 1019 -91 701 211 
Q 384 513 384 1019 
Q 384 1609 779 1909 
Q 1175 2209 1959 2209 
L 2766 2209 
L 2766 2266 
Q 2766 2663 2505 2880 
Q 2244 3097 1772 3097 
Q 1472 3097 1187 3025 
Q 903 2953 641 2809 
L 641 3341 
Q 956 3463 1253 3523 
Q 1550 3584 1831 3584 
Q 2591 3584 2966 3190 
Q 3341 2797 3341 1997 
z
" transform="scale(0.015625)"/>
       <path id="DejaVuSans-6c" d="M 603 4863 
L 1178 4863 
L 1178 0 
L 603 0 
L 603 4863 
z
" transform="scale(0.015625)"/>
       <path id="DejaVuSans-69" d="M 603 3500 
L 1178 3500 
L 1178 0 
L 603 0 
L 603 3500 
z
M 603 4863 
L 1178 4863 
L 1178 4134 
L 603 4134 
L 603 4863 
z
" transform="scale(0.015625)"/>
       <path id="DejaVuSans-7a" d="M 353 3500 
L 3084 3500 
L 3084 2975 
L 922 459 
L 3084 459 
L 3084 0 
L 275 0 
L 275 525 
L 2438 3041 
L 353 3041 
L 353 3500 
z
" transform="scale(0.015625)"/>
       <path id="DejaVuSans-65" d="M 3597 1894 
L 3597 1613 
L 953 1613 
Q 991 1019 1311 708 
Q 1631 397 2203 397 
Q 2534 397 2845 478 
Q 3156 559 3463 722 
L 3463 178 
Q 3153 47 2828 -22 
Q 2503 -91 2169 -91 
Q 1331 -91 842 396 
Q 353 884 353 1716 
Q 353 2575 817 3079 
Q 1281 3584 2069 3584 
Q 2775 3584 3186 3129 
Q 3597 2675 3597 1894 
z
M 3022 2063 
Q 3016 2534 2758 2815 
Q 2500 3097 2075 3097 
Q 1594 3097 1305 2825 
Q 1016 2553 972 2059 
L 3022 2063 
z
" transform="scale(0.015625)"/>
       <path id="DejaVuSans-64" d="M 2906 2969 
L 2906 4863 
L 3481 4863 
L 3481 0 
L 2906 0 
L 2906 525 
Q 2725 213 2448 61 
Q 2172 -91 1784 -91 
Q 1150 -91 751 415 
Q 353 922 353 1747 
Q 353 2572 751 3078 
Q 1150 3584 1784 3584 
Q 2172 3584 2448 3432 
Q 2725 3281 2906 2969 
z
M 947 1747 
Q 947 1113 1208 752 
Q 1469 391 1925 391 
Q 2381 391 2643 752 
Q 2906 1113 2906 1747 
Q 2906 2381 2643 2742 
Q 2381 3103 1925 3103 
Q 1469 3103 1208 2742 
Q 947 2381 947 1747 
z
" transform="scale(0.015625)"/>
       <path id="DejaVuSans-20" transform="scale(0.015625)"/>
       <path id="DejaVuSans-46" d="M 628 4666 
L 3309 4666 
L 3309 4134 
L 1259 4134 
L 1259 2759 
L 3109 2759 
L 3109 2228 
L 1259 2228 
L 1259 0 
L 628 0 
L 628 4666 
z
" transform="scale(0.015625)"/>
       <path id="DejaVuSans-71" d="M 947 1747 
Q 947 1113 1208 752 
Q 1469 391 1925 391 
Q 2381 391 2643 752 
Q 2906 1113 2906 1747 
Q 2906 2381 2643 2742 
Q 2381 3103 1925 3103 
Q 1469 3103 1208 2742 
Q 947 2381 947 1747 
z
M 2906 525 
Q 2725 213 2448 61 
Q 2172 -91 1784 -91 
Q 1150 -91 751 415 
Q 353 922 353 1747 
Q 353 2572 751 3078 
Q 1150 3584 1784 3584 
Q 2172 3584 2448 3432 
Q 2725 3281 2906 2969 
L 2906 3500 
L 3481 3500 
L 3481 -1331 
L 2906 -1331 
L 2906 525 
z
" transform="scale(0.015625)"/>
       <path id="DejaVuSans-75" d="M 544 1381 
L 544 3500 
L 1119 3500 
L 1119 1403 
Q 1119 906 1312 657 
Q 1506 409 1894 409 
Q 2359 409 2629 706 
Q 2900 1003 2900 1516 
L 2900 3500 
L 3475 3500 
L 3475 0 
L 2900 0 
L 2900 538 
Q 2691 219 2414 64 
Q 2138 -91 1772 -91 
Q 1169 -91 856 284 
Q 544 659 544 1381 
z
M 1991 3584 
L 1991 3584 
z
" transform="scale(0.015625)"/>
       <path id="DejaVuSans-6e" d="M 3513 2113 
L 3513 0 
L 2938 0 
L 2938 2094 
Q 2938 2591 2744 2837 
Q 2550 3084 2163 3084 
Q 1697 3084 1428 2787 
Q 1159 2491 1159 1978 
L 1159 0 
L 581 0 
L 581 3500 
L 1159 3500 
L 1159 2956 
Q 1366 3272 1645 3428 
Q 1925 3584 2291 3584 
Q 2894 3584 3203 3211 
Q 3513 2838 3513 2113 
z
" transform="scale(0.015625)"/>
       <path id="DejaVuSans-63" d="M 3122 3366 
L 3122 2828 
Q 2878 2963 2633 3030 
Q 2388 3097 2138 3097 
Q 1578 3097 1268 2742 
Q 959 2388 959 1747 
Q 959 1106 1268 751 
Q 1578 397 2138 397 
Q 2388 397 2633 464 
Q 2878 531 3122 666 
L 3122 134 
Q 2881 22 2623 -34 
Q 2366 -91 2075 -91 
Q 1284 -91 818 406 
Q 353 903 353 1747 
Q 353 2603 823 3093 
Q 1294 3584 2113 3584 
Q 2378 3584 2631 3529 
Q 2884 3475 3122 3366 
z
" transform="scale(0.015625)"/>
       <path id="DejaVuSans-79" d="M 2059 -325 
Q 1816 -950 1584 -1140 
Q 1353 -1331 966 -1331 
L 506 -1331 
L 506 -850 
L 844 -850 
Q 1081 -850 1212 -737 
Q 1344 -625 1503 -206 
L 1606 56 
L 191 3500 
L 800 3500 
L 1894 763 
L 2988 3500 
L 3597 3500 
L 2059 -325 
z
" transform="scale(0.015625)"/>
       <path id="DejaVuSans-5b" d="M 550 4863 
L 1875 4863 
L 1875 4416 
L 1125 4416 
L 1125 -397 
L 1875 -397 
L 1875 -844 
L 550 -844 
L 550 4863 
z
" transform="scale(0.015625)"/>
       <path id="DejaVuSans-2f" d="M 1625 4666 
L 2156 4666 
L 531 -594 
L 0 -594 
L 1625 4666 
z
" transform="scale(0.015625)"/>
       <path id="DejaVuSans-3c0" d="M 231 3500 
L 3584 3500 
L 3584 2925 
L 3144 2925 
L 3144 775 
Q 3144 550 3220 451 
Q 3297 353 3469 353 
Q 3516 353 3584 361 
Q 3653 369 3675 372 
L 3675 -44 
Q 3566 -84 3450 -103 
Q 3334 -122 3219 -122 
Q 2844 -122 2700 83 
Q 2556 288 2556 838 
L 2556 2925 
L 1266 2925 
L 1266 0 
L 678 0 
L 678 2925 
L 231 2925 
L 231 3500 
z
" transform="scale(0.015625)"/>
       <path id="DejaVuSans-5d" d="M 1947 4863 
L 1947 -844 
L 622 -844 
L 622 -397 
L 1369 -397 
L 1369 4416 
L 622 4416 
L 622 4863 
L 1947 4863 
z
" transform="scale(0.015625)"/>
      </defs>
      <use xlink:href="#DejaVuSans-4e"/>
      <use xlink:href="#DejaVuSans-6f" transform="translate(74.804688 0)"/>
      <use xlink:href="#DejaVuSans-72" transform="translate(135.986328 0)"/>
      <use xlink:href="#DejaVuSans-6d" transform="translate(175.349609 0)"/>
      <use xlink:href="#DejaVuSans-61" transform="translate(272.761719 0)"/>
      <use xlink:href="#DejaVuSans-6c" transform="translate(334.041016 0)"/>
      <use xlink:href="#DejaVuSans-69" transform="translate(361.824219 0)"/>
      <use xlink:href="#DejaVuSans-7a" transform="translate(389.607422 0)"/>
      <use xlink:href="#DejaVuSans-65" transform="translate(442.097656 0)"/>
      <use xlink:href="#DejaVuSans-64" transform="translate(503.621094 0)"/>
      <use xlink:href="#DejaVuSans-20" transform="translate(567.097656 0)"/>
      <use xlink:href="#DejaVuSans-46" transform="translate(598.884766 0)"/>
      <use xlink:href="#DejaVuSans-72" transform="translate(649.154297 0)"/>
      <use xlink:href="#DejaVuSans-65" transform="translate(688.017578 0)"/>
      <use xlink:href="#DejaVuSans-71" transform="translate(749.541016 0)"/>
      <use xlink:href="#DejaVuSans-75" transform="translate(813.017578 0)"/>
      <use xlink:href="#DejaVuSans-65" transform="translate(876.396484 0)"/>
      <use xlink:href="#DejaVuSans-6e" transform="translate(937.919922 0)"/>
      <use xlink:href="#DejaVuSans-63" transform="translate(1001.298828 0)"/>
      <use xlink:href="#DejaVuSans-79" transform="translate(1056.279297 0)"/>
      <use xlink:href="#DejaVuSans-20" transform="translate(1115.458984 0)"/>
      <use xlink:href="#DejaVuSans-5b" transform="translate(1147.246094 0)"/>
      <use xlink:href="#DejaVuSans-72" transform="translate(1186.259766 0)"/>
      <use xlink:href="#DejaVuSans-61" transform="translate(1227.373047 0)"/>
      <use xlink:href="#DejaVuSans-64" transform="translate(1288.652344 0)"/>
      <use xlink:href="#DejaVuSans-2f" transform="translate(1352.128906 0)"/>
      <use xlink:href="#DejaVuSans-32" transform="translate(1385.820312 0)"/>
      <use xlink:href="#DejaVuSans-3c0" transform="translate(1449.443359 0)"/>
      <use xlink:href="#DejaVuSans-5d" transform="translate(1509.648438 0)"/>
     </g>
    </g>
   </g>
   <g id="matplotlib.axis_2">
    <g id="ytick_1">
     <g id="line2d_107">
      <path d="M 52.94 242.728 
L 565.2 242.728 
" clip-path="url(#p6d94ee9a8b)" style="fill: none; stroke: #f8f8f8; stroke-width: 0.8; stroke-linecap: square"/>
     </g>
     <g id="line2d_108">
      <defs>
       <path id="m76b66931e0" d="M 0 0 
L -3.5 0 
" style="stroke: #000000; stroke-width: 0.8"/>
      </defs>
      <g>
       <use xlink:href="#m76b66931e0" x="52.94" y="242.728" style="stroke: #000000; stroke-width: 0.8"/>
      </g>
     </g>
     <g id="text_7">
      <!-- −20 -->
      <g transform="translate(24.835313 246.527219) scale(0.1 -0.1)">
       <use xlink:href="#DejaVuSans-2212"/>
       <use xlink:href="#DejaVuSans-32" transform="translate(83.789062 0)"/>
       <use xlink:href="#DejaVuSans-30" transform="translate(147.412109 0)"/>
      </g>
     </g>
    </g>
    <g id="ytick_2">
     <g id="line2d_109">
      <path d="M 52.94 215.747 
L 565.2 215.747 
" clip-path="url(#p6d94ee9a8b)" style="fill: none; stroke: #f8f8f8; stroke-width: 0.8; stroke-linecap: square"/>
     </g>
     <g id="line2d_110">
      <g>
       <use xlink:href="#m76b66931e0" x="52.94" y="215.747" style="stroke: #000000; stroke-width: 0.8"/>
      </g>
     </g>
     <g id="text_8">
      <!-- −15 -->
      <g transform="translate(24.835313 219.546219) scale(0.1 -0.1)">
       <use xlink:href="#DejaVuSans-2212"/>
       <use xlink:href="#DejaVuSans-31" transform="translate(83.789062 0)"/>
       <use xlink:href="#DejaVuSans-35" transform="translate(147.412109 0)"/>
      </g>
     </g>
    </g>
    <g id="ytick_3">
     <g id="line2d_111">
      <path d="M 52.94 188.766 
L 565.2 188.766 
" clip-path="url(#p6d94ee9a8b)" style="fill: none; stroke: #f8f8f8; stroke-width: 0.8; stroke-linecap: square"/>
     </g>
     <g id="line2d_112">
      <g>
       <use xlink:href="#m76b66931e0" x="52.94" y="188.766" style="stroke: #000000; stroke-width: 0.8"/>
      </g>
     </g>
     <g id="text_9">
      <!-- −10 -->
      <g transform="translate(24.835313 192.565219) scale(0.1 -0.1)">
       <use xlink:href="#DejaVuSans-2212"/>
       <use xlink:href="#DejaVuSans-31" transform="translate(83.789062 0)"/>
       <use xlink:href="#DejaVuSans-30" transform="translate(147.412109 0)"/>
      </g>
     </g>
    </g>
    <g id="ytick_4">
     <g id="line2d_113">
      <path d="M 52.94 161.785 
L 565.2 161.785 
" clip-path="url(#p6d94ee9a8b)" style="fill: none; stroke: #f8f8f8; stroke-width: 0.8; stroke-linecap: square"/>
     </g>
     <g id="line2d_114">
      <g>
       <use xlink:href="#m76b66931e0" x="52.94" y="161.785" style="stroke: #000000; stroke-width: 0.8"/>
      </g>
     </g>
     <g id="text_10">
      <!-- −5 -->
      <g transform="translate(31.197813 165.584219) scale(0.1 -0.1)">
       <use xlink:href="#DejaVuSans-2212"/>
       <use xlink:href="#DejaVuSans-35" transform="translate(83.789062 0)"/>
      </g>
     </g>
    </g>
    <g id="ytick_5">
     <g id="line2d_115">
      <path d="M 52.94 134.804 
L 565.2 134.804 
" clip-path="url(#p6d94ee9a8b)" style="fill: none; stroke: #f8f8f8; stroke-width: 0.8; stroke-linecap: square"/>
     </g>
     <g id="line2d_116">
      <g>
       <use xlink:href="#m76b66931e0" x="52.94" y="134.804" style="stroke: #000000; stroke-width: 0.8"/>
      </g>
     </g>
     <g id="text_11">
      <!-- 0 -->
      <g transform="translate(39.5775 138.603219) scale(0.1 -0.1)">
       <use xlink:href="#DejaVuSans-30"/>
      </g>
     </g>
    </g>
    <g id="ytick_6">
     <g id="line2d_117">
      <path d="M 52.94 107.823 
L 565.2 107.823 
" clip-path="url(#p6d94ee9a8b)" style="fill: none; stroke: #f8f8f8; stroke-width: 0.8; stroke-linecap: square"/>
     </g>
     <g id="line2d_118">
      <g>
       <use xlink:href="#m76b66931e0" x="52.94" y="107.823" style="stroke: #000000; stroke-width: 0.8"/>
      </g>
     </g>
     <g id="text_12">
      <!-- 5 -->
      <g transform="translate(39.5775 111.622219) scale(0.1 -0.1)">
       <use xlink:href="#DejaVuSans-35"/>
      </g>
     </g>
    </g>
    <g id="ytick_7">
     <g id="line2d_119">
      <path d="M 52.94 80.842 
L 565.2 80.842 
" clip-path="url(#p6d94ee9a8b)" style="fill: none; stroke: #f8f8f8; stroke-width: 0.8; stroke-linecap: square"/>
     </g>
     <g id="line2d_120">
      <g>
       <use xlink:href="#m76b66931e0" x="52.94" y="80.842" style="stroke: #000000; stroke-width: 0.8"/>
      </g>
     </g>
     <g id="text_13">
      <!-- 10 -->
      <g transform="translate(33.215 84.641219) scale(0.1 -0.1)">
       <use xlink:href="#DejaVuSans-31"/>
       <use xlink:href="#DejaVuSans-30" transform="translate(63.623047 0)"/>
      </g>
     </g>
    </g>
    <g id="ytick_8">
     <g id="line2d_121">
      <path d="M 52.94 53.861 
L 565.2 53.861 
" clip-path="url(#p6d94ee9a8b)" style="fill: none; stroke: #f8f8f8; stroke-width: 0.8; stroke-linecap: square"/>
     </g>
     <g id="line2d_122">
      <g>
       <use xlink:href="#m76b66931e0" x="52.94" y="53.861" style="stroke: #000000; stroke-width: 0.8"/>
      </g>
     </g>
     <g id="text_14">
      <!-- 15 -->
      <g transform="translate(33.215 57.660219) scale(0.1 -0.1)">
       <use xlink:href="#DejaVuSans-31"/>
       <use xlink:href="#DejaVuSans-35" transform="translate(63.623047 0)"/>
      </g>
     </g>
    </g>
    <g id="ytick_9">
     <g id="line2d_123">
      <path d="M 52.94 26.88 
L 565.2 26.88 
" clip-path="url(#p6d94ee9a8b)" style="fill: none; stroke: #f8f8f8; stroke-width: 0.8; stroke-linecap: square"/>
     </g>
     <g id="line2d_124">
      <g>
       <use xlink:href="#m76b66931e0" x="52.94" y="26.88" style="stroke: #000000; stroke-width: 0.8"/>
      </g>
     </g>
     <g id="text_15">
      <!-- 20 -->
      <g transform="translate(33.215 30.679219) scale(0.1 -0.1)">
       <use xlink:href="#DejaVuSans-32"/>
       <use xlink:href="#DejaVuSans-30" transform="translate(63.623047 0)"/>
      </g>
     </g>
    </g>
    <g id="text_16">
     <!-- Magnitude [dB] -->
     <g transform="translate(18.755625 173.389156) rotate(-90) scale(0.1 -0.1)">
      <defs>
       <path id="DejaVuSans-4d" d="M 628 4666 
L 1569 4666 
L 2759 1491 
L 3956 4666 
L 4897 4666 
L 4897 0 
L 4281 0 
L 4281 4097 
L 3078 897 
L 2444 897 
L 1241 4097 
L 1241 0 
L 628 0 
L 628 4666 
z
" transform="scale(0.015625)"/>
       <path id="DejaVuSans-67" d="M 2906 1791 
Q 2906 2416 2648 2759 
Q 2391 3103 1925 3103 
Q 1463 3103 1205 2759 
Q 947 2416 947 1791 
Q 947 1169 1205 825 
Q 1463 481 1925 481 
Q 2391 481 2648 825 
Q 2906 1169 2906 1791 
z
M 3481 434 
Q 3481 -459 3084 -895 
Q 2688 -1331 1869 -1331 
Q 1566 -1331 1297 -1286 
Q 1028 -1241 775 -1147 
L 775 -588 
Q 1028 -725 1275 -790 
Q 1522 -856 1778 -856 
Q 2344 -856 2625 -561 
Q 2906 -266 2906 331 
L 2906 616 
Q 2728 306 2450 153 
Q 2172 0 1784 0 
Q 1141 0 747 490 
Q 353 981 353 1791 
Q 353 2603 747 3093 
Q 1141 3584 1784 3584 
Q 2172 3584 2450 3431 
Q 2728 3278 2906 2969 
L 2906 3500 
L 3481 3500 
L 3481 434 
z
" transform="scale(0.015625)"/>
       <path id="DejaVuSans-74" d="M 1172 4494 
L 1172 3500 
L 2356 3500 
L 2356 3053 
L 1172 3053 
L 1172 1153 
Q 1172 725 1289 603 
Q 1406 481 1766 481 
L 2356 481 
L 2356 0 
L 1766 0 
Q 1100 0 847 248 
Q 594 497 594 1153 
L 594 3053 
L 172 3053 
L 172 3500 
L 594 3500 
L 594 4494 
L 1172 4494 
z
" transform="scale(0.015625)"/>
       <path id="DejaVuSans-42" d="M 1259 2228 
L 1259 519 
L 2272 519 
Q 2781 519 3026 730 
Q 3272 941 3272 1375 
Q 3272 1813 3026 2020 
Q 2781 2228 2272 2228 
L 1259 2228 
z
M 1259 4147 
L 1259 2741 
L 2194 2741 
Q 2656 2741 2882 2914 
Q 3109 3088 3109 3444 
Q 3109 3797 2882 3972 
Q 2656 4147 2194 4147 
L 1259 4147 
z
M 628 4666 
L 2241 4666 
Q 2963 4666 3353 4366 
Q 3744 4066 3744 3513 
Q 3744 3084 3544 2831 
Q 3344 2578 2956 2516 
Q 3422 2416 3680 2098 
Q 3938 1781 3938 1306 
Q 3938 681 3513 340 
Q 3088 0 2303 0 
L 628 0 
L 628 4666 
z
" transform="scale(0.015625)"/>
      </defs>
      <use xlink:href="#DejaVuSans-4d"/>
      <use xlink:href="#DejaVuSans-61" transform="translate(86.279297 0)"/>
      <use xlink:href="#DejaVuSans-67" transform="translate(147.558594 0)"/>
      <use xlink:href="#DejaVuSans-6e" transform="translate(211.035156 0)"/>
      <use xlink:href="#DejaVuSans-69" transform="translate(274.414062 0)"/>
      <use xlink:href="#DejaVuSans-74" transform="translate(302.197266 0)"/>
      <use xlink:href="#DejaVuSans-75" transform="translate(341.40625 0)"/>
      <use xlink:href="#DejaVuSans-64" transform="translate(404.785156 0)"/>
      <use xlink:href="#DejaVuSans-65" transform="translate(468.261719 0)"/>
      <use xlink:href="#DejaVuSans-20" transform="translate(529.785156 0)"/>
      <use xlink:href="#DejaVuSans-5b" transform="translate(561.572266 0)"/>
      <use xlink:href="#DejaVuSans-64" transform="translate(600.585938 0)"/>
      <use xlink:href="#DejaVuSans-42" transform="translate(664.0625 0)"/>
      <use xlink:href="#DejaVuSans-5d" transform="translate(732.666016 0)"/>
     </g>
    </g>
   </g>
   <g id="line2d_125">
    <path d="M 76.224545 135.00658 
L 93.741986 135.299214 
L 105.571945 135.705578 
L 114.671914 136.227 
L 122.179388 136.868077 
L 128.776866 137.652143 
L 134.464346 138.54522 
L 139.696829 139.588338 
L 144.474312 140.762539 
L 149.024297 142.108888 
L 153.346782 143.619979 
L 157.441768 145.28047 
L 161.536754 147.179826 
L 165.63174 149.329811 
L 169.726726 151.737229 
L 173.821712 154.403354 
L 178.144197 157.493356 
L 182.466683 160.855212 
L 187.016667 164.668986 
L 192.02165 169.160832 
L 197.481631 174.373468 
L 203.396611 180.332772 
L 210.221588 187.536288 
L 218.18406 196.280376 
L 227.739028 207.117218 
L 240.023986 221.404037 
L 257.313927 241.879376 
L 286.433827 276.756262 
L 296.61993 289 
L 296.61993 289 
" clip-path="url(#p6d94ee9a8b)" style="fill: none; stroke: #440154; stroke-width: 1.5; stroke-linecap: square"/>
   </g>
   <g id="line2d_126">
    <path d="M 192.314425 242.728 
L 192.314425 26.88 
" clip-path="url(#p6d94ee9a8b)" style="fill: none; stroke-dasharray: 3.7,1.6; stroke-dashoffset: 0; stroke: #440154; stroke-opacity: 0.66"/>
   </g>
   <g id="line2d_127">
    <path d="M 76.224545 134.824285 
L 118.084402 134.977732 
L 136.739339 135.25441 
L 149.251796 135.653413 
L 158.806763 136.176339 
L 166.541737 136.817985 
L 173.139214 137.584123 
L 178.826695 138.457481 
L 184.059177 139.47848 
L 188.836661 140.628909 
L 193.386645 141.949399 
L 197.70913 143.433152 
L 201.804116 145.065533 
L 205.899102 146.935049 
L 209.994088 149.054008 
L 214.089074 151.42986 
L 218.18406 154.064568 
L 222.506546 157.122316 
L 226.829031 160.453547 
L 231.379015 164.237467 
L 236.383998 168.69981 
L 241.84398 173.884563 
L 247.758959 179.818705 
L 254.356437 186.75494 
L 262.09141 195.216599 
L 271.418879 205.761125 
L 283.248838 219.484096 
L 299.856281 239.117258 
L 326.928689 271.511497 
L 341.481788 289 
L 341.481788 289 
" clip-path="url(#p6d94ee9a8b)" style="fill: none; stroke: #482677; stroke-width: 1.5; stroke-linecap: square"/>
   </g>
   <g id="line2d_128">
    <path d="M 237.12319 242.728 
L 237.12319 26.88 
" clip-path="url(#p6d94ee9a8b)" style="fill: none; stroke-dasharray: 3.7,1.6; stroke-dashoffset: 0; stroke: #482677; stroke-opacity: 0.66"/>
   </g>
   <g id="line2d_129">
    <path d="M 76.224545 134.806013 
L 155.849273 134.924104 
L 177.4617 135.166745 
L 191.111653 135.529828 
L 201.121619 136.00564 
L 209.311591 136.61065 
L 216.136567 137.329873 
L 222.051547 138.16529 
L 227.511529 139.158097 
L 232.516512 140.295381 
L 237.066496 141.550557 
L 241.388981 142.964981 
L 245.711466 144.619158 
L 249.806452 146.425695 
L 253.901438 148.478911 
L 257.996424 150.787594 
L 262.09141 153.355168 
L 266.186397 156.179402 
L 270.508882 159.430404 
L 275.058866 163.135742 
L 279.83635 167.314243 
L 285.068832 172.192957 
L 290.756313 177.805218 
L 297.126291 184.407696 
L 304.406266 192.276448 
L 313.278736 202.210155 
L 324.198698 214.786008 
L 338.986148 232.178554 
L 361.508571 259.046996 
L 386.451671 289 
L 386.451671 289 
" clip-path="url(#p6d94ee9a8b)" style="fill: none; stroke: #3f4788; stroke-width: 1.5; stroke-linecap: square"/>
   </g>
   <g id="line2d_130">
    <path d="M 281.926238 242.728 
L 281.926238 26.88 
" clip-path="url(#p6d94ee9a8b)" style="fill: none; stroke-dasharray: 3.7,1.6; stroke-dashoffset: 0; stroke: #3f4788; stroke-opacity: 0.66"/>
   </g>
   <g id="line2d_131">
    <path d="M 76.224545 134.804196 
L 199.756623 134.915649 
L 222.051547 135.153284 
L 235.929 135.511189 
L 246.166465 135.988513 
L 254.356437 136.585222 
L 261.181414 137.29485 
L 267.323893 138.155805 
L 272.783874 139.146063 
L 277.788857 140.280558 
L 282.338841 141.53281 
L 286.661327 142.944124 
L 290.983812 144.594897 
L 295.078798 146.397985 
L 299.173784 148.447597 
L 303.26877 150.752596 
L 307.363756 153.316489 
L 311.458742 156.13713 
L 315.781227 159.384521 
L 320.331212 163.086346 
L 325.108695 167.26155 
L 330.341177 172.137174 
L 336.028658 177.746729 
L 342.398636 184.346988 
L 349.678611 192.214227 
L 358.551081 202.147542 
L 369.471044 214.725255 
L 384.030994 231.855883 
L 405.415921 257.389185 
L 431.663223 289 
L 431.663223 289 
" clip-path="url(#p6d94ee9a8b)" style="fill: none; stroke: #32648e; stroke-width: 1.5; stroke-linecap: square"/>
   </g>
   <g id="line2d_132">
    <path d="M 326.711201 242.728 
L 326.711201 26.88 
" clip-path="url(#p6d94ee9a8b)" style="fill: none; stroke-dasharray: 3.7,1.6; stroke-dashoffset: 0; stroke: #32648e; stroke-opacity: 0.66"/>
   </g>
   <g id="line2d_133">
    <path d="M 76.224545 134.804018 
L 246.166465 134.914507 
L 268.688888 135.153767 
L 282.566341 135.512165 
L 292.803806 135.990146 
L 300.993778 136.587674 
L 307.818754 137.298273 
L 313.961233 138.160404 
L 319.421215 139.152015 
L 324.426198 140.28806 
L 328.976182 141.54203 
L 333.298667 142.955294 
L 337.621152 144.608375 
L 341.716138 146.414031 
L 345.811124 148.466638 
L 349.90611 150.775128 
L 354.001097 153.343098 
L 358.096083 156.168512 
L 362.418568 159.421855 
L 366.968552 163.131191 
L 371.746036 167.316005 
L 376.978518 172.204735 
L 382.665999 177.832504 
L 389.035977 184.459646 
L 396.315952 192.368911 
L 404.733423 201.854688 
L 414.743389 213.482814 
L 426.800848 227.844773 
L 441.815797 246.09299 
L 476.958166 289 
L 476.958166 289 
" clip-path="url(#p6d94ee9a8b)" style="fill: none; stroke: #277e8e; stroke-width: 1.5; stroke-linecap: square"/>
   </g>
   <g id="line2d_134">
    <path d="M 371.438942 242.728 
L 371.438942 26.88 
" clip-path="url(#p6d94ee9a8b)" style="fill: none; stroke-dasharray: 3.7,1.6; stroke-dashoffset: 0; stroke: #277e8e; stroke-opacity: 0.66"/>
   </g>
   <g id="line2d_135">
    <path d="M 76.224545 134.804001 
L 298.946285 134.914613 
L 321.241208 135.150226 
L 335.118661 135.505557 
L 345.356126 135.980326 
L 353.546098 136.575243 
L 360.371075 137.284759 
L 366.286055 138.111997 
L 371.746036 139.09937 
L 376.751019 140.23609 
L 381.301003 141.49758 
L 385.623488 142.927733 
L 389.718474 144.516338 
L 393.585961 146.24578 
L 397.453448 148.2146 
L 401.320935 150.43633 
L 405.188422 152.920801 
L 409.055908 155.673586 
L 412.923395 158.695708 
L 417.018381 162.18513 
L 421.113367 165.96284 
L 425.435852 170.24683 
L 430.213336 175.308634 
L 435.218319 180.939336 
L 440.9058 187.681184 
L 447.730776 196.140299 
L 457.058244 208.09224 
L 477.078176 233.827033 
L 485.950646 244.82107 
L 493.913119 254.336886 
L 500.965594 262.4216 
L 507.108073 269.133505 
L 512.568055 274.771586 
L 517.345538 279.381591 
L 521.440524 283.029261 
L 525.080512 285.978397 
L 528.265501 288.281688 
L 529.354465 289 
L 529.354465 289 
" clip-path="url(#p6d94ee9a8b)" style="fill: none; stroke: #1f988b; stroke-width: 1.5; stroke-linecap: square"/>
   </g>
   <g id="line2d_136">
    <path d="M 415.985386 242.728 
L 415.985386 26.88 
" clip-path="url(#p6d94ee9a8b)" style="fill: none; stroke-dasharray: 3.7,1.6; stroke-dashoffset: 0; stroke: #1f988b; stroke-opacity: 0.66"/>
   </g>
   <g id="line2d_137">
    <path d="M 76.224545 134.804 
L 343.081134 134.693597 
L 365.603557 134.457322 
L 379.936008 134.095117 
L 390.628471 133.613233 
L 399.72844 132.987878 
L 408.373411 132.171513 
L 427.255846 130.25039 
L 430.668335 130.214127 
L 433.625824 130.409699 
L 436.128316 130.798601 
L 438.403308 131.373115 
L 440.450801 132.100037 
L 442.498294 133.048787 
L 444.545787 134.236122 
L 446.59328 135.671649 
L 448.868272 137.559025 
L 451.143265 139.743457 
L 453.645756 142.462097 
L 456.375747 145.75568 
L 459.560736 149.944018 
L 463.655722 155.709301 
L 470.708198 166.101315 
L 480.035666 179.768318 
L 486.405644 188.699328 
L 492.320624 196.61189 
L 498.008105 203.852705 
L 503.468086 210.449289 
L 508.700568 216.420318 
L 513.478052 221.53643 
L 517.800537 225.845392 
L 521.668024 229.396474 
L 525.080512 232.246008 
L 528.265501 234.62 
L 530.995492 236.395322 
L 533.497983 237.77537 
L 535.772976 238.79084 
L 537.820469 239.479465 
L 539.640462 239.885919 
L 541.460456 240.071064 
L 541.915455 240.079149 
L 541.915455 240.079149 
" clip-path="url(#p6d94ee9a8b)" style="fill: none; stroke: #2cb17e; stroke-width: 1.5; stroke-linecap: square"/>
   </g>
   <g id="line2d_138">
    <path d="M 459.95531 242.728 
L 459.95531 26.88 
" clip-path="url(#p6d94ee9a8b)" style="fill: none; stroke-dasharray: 3.7,1.6; stroke-dashoffset: 0; stroke: #2cb17e; stroke-opacity: 0.66"/>
   </g>
   <g id="line2d_139">
    <path d="M 76.224545 134.804 
L 340.351143 134.693235 
L 362.646067 134.456238 
L 376.29602 134.104275 
L 386.305986 133.637106 
L 394.268459 133.053626 
L 400.865936 132.35793 
L 406.553417 131.544244 
L 411.5584 130.61262 
L 416.108384 129.543725 
L 420.20337 128.359423 
L 424.070857 127.008476 
L 427.710845 125.493928 
L 431.123333 123.826137 
L 434.308322 122.02351 
L 437.493311 119.955784 
L 440.450801 117.776785 
L 443.408291 115.333471 
L 446.59328 112.40325 
L 450.005769 108.94879 
L 459.788235 98.785321 
L 461.38073 97.559105 
L 462.745725 96.75083 
L 463.883221 96.288343 
L 465.020717 96.047385 
L 466.158213 96.050831 
L 467.295709 96.31458 
L 468.433206 96.845885 
L 469.570702 97.642562 
L 470.708198 98.693263 
L 472.073193 100.261871 
L 473.665688 102.459603 
L 475.485681 105.35714 
L 477.988173 109.801924 
L 482.310658 118.052021 
L 488.453137 129.695379 
L 492.548123 136.982905 
L 496.41561 143.436342 
L 500.283097 149.475613 
L 504.150584 155.119976 
L 508.01807 160.388904 
L 511.885557 165.294543 
L 515.753044 169.837755 
L 519.393031 173.771098 
L 522.80552 177.135143 
L 525.990509 179.963567 
L 528.947999 182.287199 
L 531.67799 184.137259 
L 533.952982 185.431969 
L 536.227974 186.469687 
L 538.275467 187.15259 
L 540.095461 187.531493 
L 541.687955 187.663141 
L 541.915455 187.665317 
L 541.915455 187.665317 
" clip-path="url(#p6d94ee9a8b)" style="fill: none; stroke: #5ac864; stroke-width: 1.5; stroke-linecap: square"/>
   </g>
   <g id="line2d_140">
    <path d="M 502.077316 242.728 
L 502.077316 26.88 
" clip-path="url(#p6d94ee9a8b)" style="fill: none; stroke-dasharray: 3.7,1.6; stroke-dashoffset: 0; stroke: #5ac864; stroke-opacity: 0.66"/>
   </g>
   <g id="line2d_141">
    <path d="M 76.224545 134.804 
L 345.356126 134.694148 
L 367.878549 134.455396 
L 381.756002 134.095409 
L 391.765967 133.624591 
L 399.72844 133.038999 
L 406.325918 132.344178 
L 412.240898 131.498752 
L 417.24588 130.568783 
L 421.795865 129.508659 
L 426.11835 128.270266 
L 429.985837 126.934074 
L 433.625824 125.445487 
L 437.038313 123.815065 
L 440.223302 122.059426 
L 443.408291 120.048203 
L 446.365781 117.923418 
L 449.323271 115.521023 
L 452.053262 113.028544 
L 454.783252 110.24193 
L 457.513243 107.127519 
L 460.015734 103.951829 
L 462.518226 100.434609 
L 465.020717 96.538496 
L 467.523209 92.224167 
L 470.0257 87.455487 
L 472.528192 82.212649 
L 475.485681 75.448671 
L 481.173162 62.15611 
L 482.538157 59.598451 
L 483.675654 57.948163 
L 484.58565 57.036925 
L 485.268148 56.629556 
L 485.950646 56.477686 
L 486.633143 56.589855 
L 487.315641 56.965779 
L 487.998139 57.596389 
L 488.908136 58.803288 
L 489.818133 60.376345 
L 490.955629 62.756291 
L 492.548123 66.625836 
L 495.505613 74.557567 
L 499.600599 85.422971 
L 502.558089 92.61992 
L 505.28808 98.697718 
L 508.01807 104.257485 
L 510.748061 109.342807 
L 513.705551 114.366575 
L 516.663041 118.929663 
L 519.620531 123.064526 
L 522.350521 126.517708 
L 525.080512 129.626489 
L 527.810503 132.384903 
L 530.312994 134.59136 
L 532.587986 136.310968 
L 534.635479 137.605297 
L 536.682972 138.635612 
L 538.502966 139.305621 
L 540.095461 139.680411 
L 541.687955 139.834785 
L 541.915455 139.837335 
L 541.915455 139.837335 
" clip-path="url(#p6d94ee9a8b)" style="fill: none; stroke: #9bd93c; stroke-width: 1.5; stroke-linecap: square"/>
   </g>
   <g id="line2d_142">
    <path d="M 538.320414 242.728 
L 538.320414 26.88 
" clip-path="url(#p6d94ee9a8b)" style="fill: none; stroke-dasharray: 3.7,1.6; stroke-dashoffset: 0; stroke: #9bd93c; stroke-opacity: 0.66"/>
   </g>
   <g id="line2d_143">
    <path d="M 499.154503 242.728 
L 499.154503 26.88 
" clip-path="url(#p6d94ee9a8b)" style="fill: none; stroke-dasharray: 3.7,1.6; stroke-dashoffset: 0; stroke: #000000"/>
   </g>
   <g id="line2d_144">
    <path d="M 52.94 167.292361 
L 565.2 167.292361 
" clip-path="url(#p6d94ee9a8b)" style="fill: none; stroke-dasharray: 6.4,1.6,1,1.6; stroke-dashoffset: 0; stroke: #000000"/>
   </g>
   <g id="patch_3">
    <path d="M 52.94 242.728 
L 52.94 26.88 
" style="fill: none; stroke: #000000; stroke-width: 0.8; stroke-linejoin: miter; stroke-linecap: square"/>
   </g>
   <g id="patch_4">
    <path d="M 565.2 242.728 
L 565.2 26.88 
" style="fill: none; stroke: #000000; stroke-width: 0.8; stroke-linejoin: miter; stroke-linecap: square"/>
   </g>
   <g id="patch_5">
    <path d="M 52.94 242.728 
L 565.2 242.728 
" style="fill: none; stroke: #000000; stroke-width: 0.8; stroke-linejoin: miter; stroke-linecap: square"/>
   </g>
   <g id="patch_6">
    <path d="M 52.94 26.88 
L 565.2 26.88 
" style="fill: none; stroke: #000000; stroke-width: 0.8; stroke-linejoin: miter; stroke-linecap: square"/>
   </g>
   <g id="text_17">
    <!-- ChamberlinLp3 Amplitude Response (B = 0.707) -->
    <g transform="translate(163.381562 20.88) scale(0.12 -0.12)">
     <defs>
      <path id="DejaVuSans-43" d="M 4122 4306 
L 4122 3641 
Q 3803 3938 3442 4084 
Q 3081 4231 2675 4231 
Q 1875 4231 1450 3742 
Q 1025 3253 1025 2328 
Q 1025 1406 1450 917 
Q 1875 428 2675 428 
Q 3081 428 3442 575 
Q 3803 722 4122 1019 
L 4122 359 
Q 3791 134 3420 21 
Q 3050 -91 2638 -91 
Q 1578 -91 968 557 
Q 359 1206 359 2328 
Q 359 3453 968 4101 
Q 1578 4750 2638 4750 
Q 3056 4750 3426 4639 
Q 3797 4528 4122 4306 
z
" transform="scale(0.015625)"/>
      <path id="DejaVuSans-68" d="M 3513 2113 
L 3513 0 
L 2938 0 
L 2938 2094 
Q 2938 2591 2744 2837 
Q 2550 3084 2163 3084 
Q 1697 3084 1428 2787 
Q 1159 2491 1159 1978 
L 1159 0 
L 581 0 
L 581 4863 
L 1159 4863 
L 1159 2956 
Q 1366 3272 1645 3428 
Q 1925 3584 2291 3584 
Q 2894 3584 3203 3211 
Q 3513 2838 3513 2113 
z
" transform="scale(0.015625)"/>
      <path id="DejaVuSans-62" d="M 3116 1747 
Q 3116 2381 2855 2742 
Q 2594 3103 2138 3103 
Q 1681 3103 1420 2742 
Q 1159 2381 1159 1747 
Q 1159 1113 1420 752 
Q 1681 391 2138 391 
Q 2594 391 2855 752 
Q 3116 1113 3116 1747 
z
M 1159 2969 
Q 1341 3281 1617 3432 
Q 1894 3584 2278 3584 
Q 2916 3584 3314 3078 
Q 3713 2572 3713 1747 
Q 3713 922 3314 415 
Q 2916 -91 2278 -91 
Q 1894 -91 1617 61 
Q 1341 213 1159 525 
L 1159 0 
L 581 0 
L 581 4863 
L 1159 4863 
L 1159 2969 
z
" transform="scale(0.015625)"/>
      <path id="DejaVuSans-4c" d="M 628 4666 
L 1259 4666 
L 1259 531 
L 3531 531 
L 3531 0 
L 628 0 
L 628 4666 
z
" transform="scale(0.015625)"/>
      <path id="DejaVuSans-70" d="M 1159 525 
L 1159 -1331 
L 581 -1331 
L 581 3500 
L 1159 3500 
L 1159 2969 
Q 1341 3281 1617 3432 
Q 1894 3584 2278 3584 
Q 2916 3584 3314 3078 
Q 3713 2572 3713 1747 
Q 3713 922 3314 415 
Q 2916 -91 2278 -91 
Q 1894 -91 1617 61 
Q 1341 213 1159 525 
z
M 3116 1747 
Q 3116 2381 2855 2742 
Q 2594 3103 2138 3103 
Q 1681 3103 1420 2742 
Q 1159 2381 1159 1747 
Q 1159 1113 1420 752 
Q 1681 391 2138 391 
Q 2594 391 2855 752 
Q 3116 1113 3116 1747 
z
" transform="scale(0.015625)"/>
      <path id="DejaVuSans-41" d="M 2188 4044 
L 1331 1722 
L 3047 1722 
L 2188 4044 
z
M 1831 4666 
L 2547 4666 
L 4325 0 
L 3669 0 
L 3244 1197 
L 1141 1197 
L 716 0 
L 50 0 
L 1831 4666 
z
" transform="scale(0.015625)"/>
      <path id="DejaVuSans-52" d="M 2841 2188 
Q 3044 2119 3236 1894 
Q 3428 1669 3622 1275 
L 4263 0 
L 3584 0 
L 2988 1197 
Q 2756 1666 2539 1819 
Q 2322 1972 1947 1972 
L 1259 1972 
L 1259 0 
L 628 0 
L 628 4666 
L 2053 4666 
Q 2853 4666 3247 4331 
Q 3641 3997 3641 3322 
Q 3641 2881 3436 2590 
Q 3231 2300 2841 2188 
z
M 1259 4147 
L 1259 2491 
L 2053 2491 
Q 2509 2491 2742 2702 
Q 2975 2913 2975 3322 
Q 2975 3731 2742 3939 
Q 2509 4147 2053 4147 
L 1259 4147 
z
" transform="scale(0.015625)"/>
      <path id="DejaVuSans-73" d="M 2834 3397 
L 2834 2853 
Q 2591 2978 2328 3040 
Q 2066 3103 1784 3103 
Q 1356 3103 1142 2972 
Q 928 2841 928 2578 
Q 928 2378 1081 2264 
Q 1234 2150 1697 2047 
L 1894 2003 
Q 2506 1872 2764 1633 
Q 3022 1394 3022 966 
Q 3022 478 2636 193 
Q 2250 -91 1575 -91 
Q 1294 -91 989 -36 
Q 684 19 347 128 
L 347 722 
Q 666 556 975 473 
Q 1284 391 1588 391 
Q 1994 391 2212 530 
Q 2431 669 2431 922 
Q 2431 1156 2273 1281 
Q 2116 1406 1581 1522 
L 1381 1569 
Q 847 1681 609 1914 
Q 372 2147 372 2553 
Q 372 3047 722 3315 
Q 1072 3584 1716 3584 
Q 2034 3584 2315 3537 
Q 2597 3491 2834 3397 
z
" transform="scale(0.015625)"/>
      <path id="DejaVuSans-28" d="M 1984 4856 
Q 1566 4138 1362 3434 
Q 1159 2731 1159 2009 
Q 1159 1288 1364 580 
Q 1569 -128 1984 -844 
L 1484 -844 
Q 1016 -109 783 600 
Q 550 1309 550 2009 
Q 550 2706 781 3412 
Q 1013 4119 1484 4856 
L 1984 4856 
z
" transform="scale(0.015625)"/>
      <path id="DejaVuSans-3d" d="M 678 2906 
L 4684 2906 
L 4684 2381 
L 678 2381 
L 678 2906 
z
M 678 1631 
L 4684 1631 
L 4684 1100 
L 678 1100 
L 678 1631 
z
" transform="scale(0.015625)"/>
      <path id="DejaVuSans-2e" d="M 684 794 
L 1344 794 
L 1344 0 
L 684 0 
L 684 794 
z
" transform="scale(0.015625)"/>
      <path id="DejaVuSans-37" d="M 525 4666 
L 3525 4666 
L 3525 4397 
L 1831 0 
L 1172 0 
L 2766 4134 
L 525 4134 
L 525 4666 
z
" transform="scale(0.015625)"/>
      <path id="DejaVuSans-29" d="M 513 4856 
L 1013 4856 
Q 1481 4119 1714 3412 
Q 1947 2706 1947 2009 
Q 1947 1309 1714 600 
Q 1481 -109 1013 -844 
L 513 -844 
Q 928 -128 1133 580 
Q 1338 1288 1338 2009 
Q 1338 2731 1133 3434 
Q 928 4138 513 4856 
z
" transform="scale(0.015625)"/>
     </defs>
     <use xlink:href="#DejaVuSans-43"/>
     <use xlink:href="#DejaVuSans-68" transform="translate(69.824219 0)"/>
     <use xlink:href="#DejaVuSans-61" transform="translate(133.203125 0)"/>
     <use xlink:href="#DejaVuSans-6d" transform="translate(194.482422 0)"/>
     <use xlink:href="#DejaVuSans-62" transform="translate(291.894531 0)"/>
     <use xlink:href="#DejaVuSans-65" transform="translate(355.371094 0)"/>
     <use xlink:href="#DejaVuSans-72" transform="translate(416.894531 0)"/>
     <use xlink:href="#DejaVuSans-6c" transform="translate(458.007812 0)"/>
     <use xlink:href="#DejaVuSans-69" transform="translate(485.791016 0)"/>
     <use xlink:href="#DejaVuSans-6e" transform="translate(513.574219 0)"/>
     <use xlink:href="#DejaVuSans-4c" transform="translate(576.953125 0)"/>
     <use xlink:href="#DejaVuSans-70" transform="translate(632.666016 0)"/>
     <use xlink:href="#DejaVuSans-33" transform="translate(696.142578 0)"/>
     <use xlink:href="#DejaVuSans-20" transform="translate(759.765625 0)"/>
     <use xlink:href="#DejaVuSans-41" transform="translate(791.552734 0)"/>
     <use xlink:href="#DejaVuSans-6d" transform="translate(859.960938 0)"/>
     <use xlink:href="#DejaVuSans-70" transform="translate(957.373047 0)"/>
     <use xlink:href="#DejaVuSans-6c" transform="translate(1020.849609 0)"/>
     <use xlink:href="#DejaVuSans-69" transform="translate(1048.632812 0)"/>
     <use xlink:href="#DejaVuSans-74" transform="translate(1076.416016 0)"/>
     <use xlink:href="#DejaVuSans-75" transform="translate(1115.625 0)"/>
     <use xlink:href="#DejaVuSans-64" transform="translate(1179.003906 0)"/>
     <use xlink:href="#DejaVuSans-65" transform="translate(1242.480469 0)"/>
     <use xlink:href="#DejaVuSans-20" transform="translate(1304.003906 0)"/>
     <use xlink:href="#DejaVuSans-52" transform="translate(1335.791016 0)"/>
     <use xlink:href="#DejaVuSans-65" transform="translate(1400.773438 0)"/>
     <use xlink:href="#DejaVuSans-73" transform="translate(1462.296875 0)"/>
     <use xlink:href="#DejaVuSans-70" transform="translate(1514.396484 0)"/>
     <use xlink:href="#DejaVuSans-6f" transform="translate(1577.873047 0)"/>
     <use xlink:href="#DejaVuSans-6e" transform="translate(1639.054688 0)"/>
     <use xlink:href="#DejaVuSans-73" transform="translate(1702.433594 0)"/>
     <use xlink:href="#DejaVuSans-65" transform="translate(1754.533203 0)"/>
     <use xlink:href="#DejaVuSans-20" transform="translate(1816.056641 0)"/>
     <use xlink:href="#DejaVuSans-28" transform="translate(1847.84375 0)"/>
     <use xlink:href="#DejaVuSans-42" transform="translate(1886.857422 0)"/>
     <use xlink:href="#DejaVuSans-20" transform="translate(1955.460938 0)"/>
     <use xlink:href="#DejaVuSans-3d" transform="translate(1987.248047 0)"/>
     <use xlink:href="#DejaVuSans-20" transform="translate(2071.037109 0)"/>
     <use xlink:href="#DejaVuSans-30" transform="translate(2102.824219 0)"/>
     <use xlink:href="#DejaVuSans-2e" transform="translate(2166.447266 0)"/>
     <use xlink:href="#DejaVuSans-37" transform="translate(2198.234375 0)"/>
     <use xlink:href="#DejaVuSans-30" transform="translate(2261.857422 0)"/>
     <use xlink:href="#DejaVuSans-37" transform="translate(2325.480469 0)"/>
     <use xlink:href="#DejaVuSans-29" transform="translate(2389.103516 0)"/>
    </g>
   </g>
   <g id="legend_1">
    <g id="patch_7">
     <path d="M 59.94 196.339375 
L 158.268125 196.339375 
Q 160.268125 196.339375 160.268125 194.339375 
L 160.268125 33.88 
Q 160.268125 31.88 158.268125 31.88 
L 59.94 31.88 
Q 57.94 31.88 57.94 33.88 
L 57.94 194.339375 
Q 57.94 196.339375 59.94 196.339375 
z
" style="fill: #ffffff; opacity: 0.8; stroke: #cccccc; stroke-linejoin: miter"/>
    </g>
    <g id="line2d_145">
     <path d="M 61.94 39.978437 
L 71.94 39.978437 
L 81.94 39.978437 
" style="fill: none; stroke: #440154; stroke-width: 1.5; stroke-linecap: square"/>
    </g>
    <g id="text_18">
     <!-- A = 6.28e-05 -->
     <g transform="translate(89.94 43.478437) scale(0.1 -0.1)">
      <defs>
       <path id="DejaVuSans-36" d="M 2113 2584 
Q 1688 2584 1439 2293 
Q 1191 2003 1191 1497 
Q 1191 994 1439 701 
Q 1688 409 2113 409 
Q 2538 409 2786 701 
Q 3034 994 3034 1497 
Q 3034 2003 2786 2293 
Q 2538 2584 2113 2584 
z
M 3366 4563 
L 3366 3988 
Q 3128 4100 2886 4159 
Q 2644 4219 2406 4219 
Q 1781 4219 1451 3797 
Q 1122 3375 1075 2522 
Q 1259 2794 1537 2939 
Q 1816 3084 2150 3084 
Q 2853 3084 3261 2657 
Q 3669 2231 3669 1497 
Q 3669 778 3244 343 
Q 2819 -91 2113 -91 
Q 1303 -91 875 529 
Q 447 1150 447 2328 
Q 447 3434 972 4092 
Q 1497 4750 2381 4750 
Q 2619 4750 2861 4703 
Q 3103 4656 3366 4563 
z
" transform="scale(0.015625)"/>
       <path id="DejaVuSans-38" d="M 2034 2216 
Q 1584 2216 1326 1975 
Q 1069 1734 1069 1313 
Q 1069 891 1326 650 
Q 1584 409 2034 409 
Q 2484 409 2743 651 
Q 3003 894 3003 1313 
Q 3003 1734 2745 1975 
Q 2488 2216 2034 2216 
z
M 1403 2484 
Q 997 2584 770 2862 
Q 544 3141 544 3541 
Q 544 4100 942 4425 
Q 1341 4750 2034 4750 
Q 2731 4750 3128 4425 
Q 3525 4100 3525 3541 
Q 3525 3141 3298 2862 
Q 3072 2584 2669 2484 
Q 3125 2378 3379 2068 
Q 3634 1759 3634 1313 
Q 3634 634 3220 271 
Q 2806 -91 2034 -91 
Q 1263 -91 848 271 
Q 434 634 434 1313 
Q 434 1759 690 2068 
Q 947 2378 1403 2484 
z
M 1172 3481 
Q 1172 3119 1398 2916 
Q 1625 2713 2034 2713 
Q 2441 2713 2670 2916 
Q 2900 3119 2900 3481 
Q 2900 3844 2670 4047 
Q 2441 4250 2034 4250 
Q 1625 4250 1398 4047 
Q 1172 3844 1172 3481 
z
" transform="scale(0.015625)"/>
       <path id="DejaVuSans-2d" d="M 313 2009 
L 1997 2009 
L 1997 1497 
L 313 1497 
L 313 2009 
z
" transform="scale(0.015625)"/>
      </defs>
      <use xlink:href="#DejaVuSans-41"/>
      <use xlink:href="#DejaVuSans-20" transform="translate(68.408203 0)"/>
      <use xlink:href="#DejaVuSans-3d" transform="translate(100.195312 0)"/>
      <use xlink:href="#DejaVuSans-20" transform="translate(183.984375 0)"/>
      <use xlink:href="#DejaVuSans-36" transform="translate(215.771484 0)"/>
      <use xlink:href="#DejaVuSans-2e" transform="translate(279.394531 0)"/>
      <use xlink:href="#DejaVuSans-32" transform="translate(311.181641 0)"/>
      <use xlink:href="#DejaVuSans-38" transform="translate(374.804688 0)"/>
      <use xlink:href="#DejaVuSans-65" transform="translate(438.427734 0)"/>
      <use xlink:href="#DejaVuSans-2d" transform="translate(499.951172 0)"/>
      <use xlink:href="#DejaVuSans-30" transform="translate(536.035156 0)"/>
      <use xlink:href="#DejaVuSans-35" transform="translate(599.658203 0)"/>
     </g>
    </g>
    <g id="line2d_146">
     <path d="M 61.94 54.656563 
L 71.94 54.656563 
L 81.94 54.656563 
" style="fill: none; stroke: #482677; stroke-width: 1.5; stroke-linecap: square"/>
    </g>
    <g id="text_19">
     <!-- A = 1.99e-04 -->
     <g transform="translate(89.94 58.156563) scale(0.1 -0.1)">
      <defs>
       <path id="DejaVuSans-39" d="M 703 97 
L 703 672 
Q 941 559 1184 500 
Q 1428 441 1663 441 
Q 2288 441 2617 861 
Q 2947 1281 2994 2138 
Q 2813 1869 2534 1725 
Q 2256 1581 1919 1581 
Q 1219 1581 811 2004 
Q 403 2428 403 3163 
Q 403 3881 828 4315 
Q 1253 4750 1959 4750 
Q 2769 4750 3195 4129 
Q 3622 3509 3622 2328 
Q 3622 1225 3098 567 
Q 2575 -91 1691 -91 
Q 1453 -91 1209 -44 
Q 966 3 703 97 
z
M 1959 2075 
Q 2384 2075 2632 2365 
Q 2881 2656 2881 3163 
Q 2881 3666 2632 3958 
Q 2384 4250 1959 4250 
Q 1534 4250 1286 3958 
Q 1038 3666 1038 3163 
Q 1038 2656 1286 2365 
Q 1534 2075 1959 2075 
z
" transform="scale(0.015625)"/>
      </defs>
      <use xlink:href="#DejaVuSans-41"/>
      <use xlink:href="#DejaVuSans-20" transform="translate(68.408203 0)"/>
      <use xlink:href="#DejaVuSans-3d" transform="translate(100.195312 0)"/>
      <use xlink:href="#DejaVuSans-20" transform="translate(183.984375 0)"/>
      <use xlink:href="#DejaVuSans-31" transform="translate(215.771484 0)"/>
      <use xlink:href="#DejaVuSans-2e" transform="translate(279.394531 0)"/>
      <use xlink:href="#DejaVuSans-39" transform="translate(311.181641 0)"/>
      <use xlink:href="#DejaVuSans-39" transform="translate(374.804688 0)"/>
      <use xlink:href="#DejaVuSans-65" transform="translate(438.427734 0)"/>
      <use xlink:href="#DejaVuSans-2d" transform="translate(499.951172 0)"/>
      <use xlink:href="#DejaVuSans-30" transform="translate(536.035156 0)"/>
      <use xlink:href="#DejaVuSans-34" transform="translate(599.658203 0)"/>
     </g>
    </g>
    <g id="line2d_147">
     <path d="M 61.94 69.334688 
L 71.94 69.334688 
L 81.94 69.334688 
" style="fill: none; stroke: #3f4788; stroke-width: 1.5; stroke-linecap: square"/>
    </g>
    <g id="text_20">
     <!-- A = 6.28e-04 -->
     <g transform="translate(89.94 72.834688) scale(0.1 -0.1)">
      <use xlink:href="#DejaVuSans-41"/>
      <use xlink:href="#DejaVuSans-20" transform="translate(68.408203 0)"/>
      <use xlink:href="#DejaVuSans-3d" transform="translate(100.195312 0)"/>
      <use xlink:href="#DejaVuSans-20" transform="translate(183.984375 0)"/>
      <use xlink:href="#DejaVuSans-36" transform="translate(215.771484 0)"/>
      <use xlink:href="#DejaVuSans-2e" transform="translate(279.394531 0)"/>
      <use xlink:href="#DejaVuSans-32" transform="translate(311.181641 0)"/>
      <use xlink:href="#DejaVuSans-38" transform="translate(374.804688 0)"/>
      <use xlink:href="#DejaVuSans-65" transform="translate(438.427734 0)"/>
      <use xlink:href="#DejaVuSans-2d" transform="translate(499.951172 0)"/>
      <use xlink:href="#DejaVuSans-30" transform="translate(536.035156 0)"/>
      <use xlink:href="#DejaVuSans-34" transform="translate(599.658203 0)"/>
     </g>
    </g>
    <g id="line2d_148">
     <path d="M 61.94 84.012812 
L 71.94 84.012812 
L 81.94 84.012812 
" style="fill: none; stroke: #32648e; stroke-width: 1.5; stroke-linecap: square"/>
    </g>
    <g id="text_21">
     <!-- A = 1.98e-03 -->
     <g transform="translate(89.94 87.512812) scale(0.1 -0.1)">
      <use xlink:href="#DejaVuSans-41"/>
      <use xlink:href="#DejaVuSans-20" transform="translate(68.408203 0)"/>
      <use xlink:href="#DejaVuSans-3d" transform="translate(100.195312 0)"/>
      <use xlink:href="#DejaVuSans-20" transform="translate(183.984375 0)"/>
      <use xlink:href="#DejaVuSans-31" transform="translate(215.771484 0)"/>
      <use xlink:href="#DejaVuSans-2e" transform="translate(279.394531 0)"/>
      <use xlink:href="#DejaVuSans-39" transform="translate(311.181641 0)"/>
      <use xlink:href="#DejaVuSans-38" transform="translate(374.804688 0)"/>
      <use xlink:href="#DejaVuSans-65" transform="translate(438.427734 0)"/>
      <use xlink:href="#DejaVuSans-2d" transform="translate(499.951172 0)"/>
      <use xlink:href="#DejaVuSans-30" transform="translate(536.035156 0)"/>
      <use xlink:href="#DejaVuSans-33" transform="translate(599.658203 0)"/>
     </g>
    </g>
    <g id="line2d_149">
     <path d="M 61.94 98.690938 
L 71.94 98.690938 
L 81.94 98.690938 
" style="fill: none; stroke: #277e8e; stroke-width: 1.5; stroke-linecap: square"/>
    </g>
    <g id="text_22">
     <!-- A = 6.26e-03 -->
     <g transform="translate(89.94 102.190938) scale(0.1 -0.1)">
      <use xlink:href="#DejaVuSans-41"/>
      <use xlink:href="#DejaVuSans-20" transform="translate(68.408203 0)"/>
      <use xlink:href="#DejaVuSans-3d" transform="translate(100.195312 0)"/>
      <use xlink:href="#DejaVuSans-20" transform="translate(183.984375 0)"/>
      <use xlink:href="#DejaVuSans-36" transform="translate(215.771484 0)"/>
      <use xlink:href="#DejaVuSans-2e" transform="translate(279.394531 0)"/>
      <use xlink:href="#DejaVuSans-32" transform="translate(311.181641 0)"/>
      <use xlink:href="#DejaVuSans-36" transform="translate(374.804688 0)"/>
      <use xlink:href="#DejaVuSans-65" transform="translate(438.427734 0)"/>
      <use xlink:href="#DejaVuSans-2d" transform="translate(499.951172 0)"/>
      <use xlink:href="#DejaVuSans-30" transform="translate(536.035156 0)"/>
      <use xlink:href="#DejaVuSans-33" transform="translate(599.658203 0)"/>
     </g>
    </g>
    <g id="line2d_150">
     <path d="M 61.94 113.369062 
L 71.94 113.369062 
L 81.94 113.369062 
" style="fill: none; stroke: #1f988b; stroke-width: 1.5; stroke-linecap: square"/>
    </g>
    <g id="text_23">
     <!-- A = 1.97e-02 -->
     <g transform="translate(89.94 116.869062) scale(0.1 -0.1)">
      <use xlink:href="#DejaVuSans-41"/>
      <use xlink:href="#DejaVuSans-20" transform="translate(68.408203 0)"/>
      <use xlink:href="#DejaVuSans-3d" transform="translate(100.195312 0)"/>
      <use xlink:href="#DejaVuSans-20" transform="translate(183.984375 0)"/>
      <use xlink:href="#DejaVuSans-31" transform="translate(215.771484 0)"/>
      <use xlink:href="#DejaVuSans-2e" transform="translate(279.394531 0)"/>
      <use xlink:href="#DejaVuSans-39" transform="translate(311.181641 0)"/>
      <use xlink:href="#DejaVuSans-37" transform="translate(374.804688 0)"/>
      <use xlink:href="#DejaVuSans-65" transform="translate(438.427734 0)"/>
      <use xlink:href="#DejaVuSans-2d" transform="translate(499.951172 0)"/>
      <use xlink:href="#DejaVuSans-30" transform="translate(536.035156 0)"/>
      <use xlink:href="#DejaVuSans-32" transform="translate(599.658203 0)"/>
     </g>
    </g>
    <g id="line2d_151">
     <path d="M 61.94 128.047188 
L 71.94 128.047188 
L 81.94 128.047188 
" style="fill: none; stroke: #2cb17e; stroke-width: 1.5; stroke-linecap: square"/>
    </g>
    <g id="text_24">
     <!-- A = 6.09e-02 -->
     <g transform="translate(89.94 131.547188) scale(0.1 -0.1)">
      <use xlink:href="#DejaVuSans-41"/>
      <use xlink:href="#DejaVuSans-20" transform="translate(68.408203 0)"/>
      <use xlink:href="#DejaVuSans-3d" transform="translate(100.195312 0)"/>
      <use xlink:href="#DejaVuSans-20" transform="translate(183.984375 0)"/>
      <use xlink:href="#DejaVuSans-36" transform="translate(215.771484 0)"/>
      <use xlink:href="#DejaVuSans-2e" transform="translate(279.394531 0)"/>
      <use xlink:href="#DejaVuSans-30" transform="translate(311.181641 0)"/>
      <use xlink:href="#DejaVuSans-39" transform="translate(374.804688 0)"/>
      <use xlink:href="#DejaVuSans-65" transform="translate(438.427734 0)"/>
      <use xlink:href="#DejaVuSans-2d" transform="translate(499.951172 0)"/>
      <use xlink:href="#DejaVuSans-30" transform="translate(536.035156 0)"/>
      <use xlink:href="#DejaVuSans-32" transform="translate(599.658203 0)"/>
     </g>
    </g>
    <g id="line2d_152">
     <path d="M 61.94 142.725312 
L 71.94 142.725312 
L 81.94 142.725312 
" style="fill: none; stroke: #5ac864; stroke-width: 1.5; stroke-linecap: square"/>
    </g>
    <g id="text_25">
     <!-- A = 1.80e-01 -->
     <g transform="translate(89.94 146.225312) scale(0.1 -0.1)">
      <use xlink:href="#DejaVuSans-41"/>
      <use xlink:href="#DejaVuSans-20" transform="translate(68.408203 0)"/>
      <use xlink:href="#DejaVuSans-3d" transform="translate(100.195312 0)"/>
      <use xlink:href="#DejaVuSans-20" transform="translate(183.984375 0)"/>
      <use xlink:href="#DejaVuSans-31" transform="translate(215.771484 0)"/>
      <use xlink:href="#DejaVuSans-2e" transform="translate(279.394531 0)"/>
      <use xlink:href="#DejaVuSans-38" transform="translate(311.181641 0)"/>
      <use xlink:href="#DejaVuSans-30" transform="translate(374.804688 0)"/>
      <use xlink:href="#DejaVuSans-65" transform="translate(438.427734 0)"/>
      <use xlink:href="#DejaVuSans-2d" transform="translate(499.951172 0)"/>
      <use xlink:href="#DejaVuSans-30" transform="translate(536.035156 0)"/>
      <use xlink:href="#DejaVuSans-31" transform="translate(599.658203 0)"/>
     </g>
    </g>
    <g id="line2d_153">
     <path d="M 61.94 157.403437 
L 71.94 157.403437 
L 81.94 157.403437 
" style="fill: none; stroke: #9bd93c; stroke-width: 1.5; stroke-linecap: square"/>
    </g>
    <g id="text_26">
     <!-- A = 4.56e-01 -->
     <g transform="translate(89.94 160.903437) scale(0.1 -0.1)">
      <use xlink:href="#DejaVuSans-41"/>
      <use xlink:href="#DejaVuSans-20" transform="translate(68.408203 0)"/>
      <use xlink:href="#DejaVuSans-3d" transform="translate(100.195312 0)"/>
      <use xlink:href="#DejaVuSans-20" transform="translate(183.984375 0)"/>
      <use xlink:href="#DejaVuSans-34" transform="translate(215.771484 0)"/>
      <use xlink:href="#DejaVuSans-2e" transform="translate(279.394531 0)"/>
      <use xlink:href="#DejaVuSans-35" transform="translate(311.181641 0)"/>
      <use xlink:href="#DejaVuSans-36" transform="translate(374.804688 0)"/>
      <use xlink:href="#DejaVuSans-65" transform="translate(438.427734 0)"/>
      <use xlink:href="#DejaVuSans-2d" transform="translate(499.951172 0)"/>
      <use xlink:href="#DejaVuSans-30" transform="translate(536.035156 0)"/>
      <use xlink:href="#DejaVuSans-31" transform="translate(599.658203 0)"/>
     </g>
    </g>
    <g id="line2d_154">
     <path d="M 61.94 172.081562 
L 71.94 172.081562 
L 81.94 172.081562 
" style="fill: none; stroke-dasharray: 3.7,1.6; stroke-dashoffset: 0; stroke: #000000"/>
    </g>
    <g id="text_27">
     <!-- $f_n=1/6$ -->
     <g transform="translate(89.94 175.581562) scale(0.1 -0.1)">
      <defs>
       <path id="DejaVuSans-Oblique-66" d="M 3059 4863 
L 2969 4384 
L 2419 4384 
Q 2106 4384 1964 4261 
Q 1822 4138 1753 3809 
L 1691 3500 
L 2638 3500 
L 2553 3053 
L 1606 3053 
L 1013 0 
L 434 0 
L 1031 3053 
L 481 3053 
L 563 3500 
L 1113 3500 
L 1159 3744 
Q 1278 4363 1576 4613 
Q 1875 4863 2516 4863 
L 3059 4863 
z
" transform="scale(0.015625)"/>
       <path id="DejaVuSans-Oblique-6e" d="M 3566 2113 
L 3156 0 
L 2578 0 
L 2988 2091 
Q 3016 2238 3031 2350 
Q 3047 2463 3047 2528 
Q 3047 2791 2881 2937 
Q 2716 3084 2419 3084 
Q 1956 3084 1622 2776 
Q 1288 2469 1184 1941 
L 800 0 
L 225 0 
L 903 3500 
L 1478 3500 
L 1363 2950 
Q 1603 3253 1940 3418 
Q 2278 3584 2650 3584 
Q 3113 3584 3367 3334 
Q 3622 3084 3622 2631 
Q 3622 2519 3608 2391 
Q 3594 2263 3566 2113 
z
" transform="scale(0.015625)"/>
      </defs>
      <use xlink:href="#DejaVuSans-Oblique-66" transform="translate(0 0.015625)"/>
      <use xlink:href="#DejaVuSans-Oblique-6e" transform="translate(35.205078 -16.390625) scale(0.7)"/>
      <use xlink:href="#DejaVuSans-3d" transform="translate(101.787109 0.015625)"/>
      <use xlink:href="#DejaVuSans-31" transform="translate(205.058594 0.015625)"/>
      <use xlink:href="#DejaVuSans-2f" transform="translate(268.681641 0.015625)"/>
      <use xlink:href="#DejaVuSans-36" transform="translate(302.373047 0.015625)"/>
     </g>
    </g>
    <g id="line2d_155">
     <path d="M 61.94 186.759687 
L 71.94 186.759687 
L 81.94 186.759687 
" style="fill: none; stroke-dasharray: 6.4,1.6,1,1.6; stroke-dashoffset: 0; stroke: #000000"/>
    </g>
    <g id="text_28">
     <!-- -6 dB -->
     <g transform="translate(89.94 190.259687) scale(0.1 -0.1)">
      <use xlink:href="#DejaVuSans-2d"/>
      <use xlink:href="#DejaVuSans-36" transform="translate(36.083984 0)"/>
      <use xlink:href="#DejaVuSans-20" transform="translate(99.707031 0)"/>
      <use xlink:href="#DejaVuSans-64" transform="translate(131.494141 0)"/>
      <use xlink:href="#DejaVuSans-42" transform="translate(194.970703 0)"/>
     </g>
    </g>
   </g>
  </g>
 </g>
 <defs>
  <clipPath id="p6d94ee9a8b">
   <rect x="52.94" y="26.88" width="512.26" height="215.848"/>
  </clipPath>
 </defs>
</svg>
