<?xml version="1.0" encoding="utf-8" standalone="no"?>
<!DOCTYPE svg PUBLIC "-//W3C//DTD SVG 1.1//EN"
  "http://www.w3.org/Graphics/SVG/1.1/DTD/svg11.dtd">
<svg xmlns:xlink="http://www.w3.org/1999/xlink" width="576pt" height="360pt" viewBox="0 0 576 360" xmlns="http://www.w3.org/2000/svg" version="1.1">
 <metadata>
  <rdf:RDF xmlns:dc="http://purl.org/dc/elements/1.1/" xmlns:cc="http://creativecommons.org/ns#" xmlns:rdf="http://www.w3.org/1999/02/22-rdf-syntax-ns#">
   <cc:Work>
    <dc:type rdf:resource="http://purl.org/dc/dcmitype/StillImage"/>
    <dc:date>2026-06-26T20:03:46.935675</dc:date>
    <dc:format>image/svg+xml</dc:format>
    <dc:creator>
     <cc:Agent>
      <dc:title>Matplotlib v3.10.8, https://matplotlib.org/</dc:title>
     </cc:Agent>
    </dc:creator>
   </cc:Work>
  </rdf:RDF>
 </metadata>
 <defs>
  <style type="text/css">*{stroke-linejoin: round; stroke-linecap: butt}</style>
 </defs>
 <g id="figure_1">
  <g id="patch_1">
   <path d="M 0 360 
L 576 360 
L 576 0 
L 0 0 
z
" style="fill: #ffffff"/>
  </g>
  <g id="axes_1">
   <g id="patch_2">
    <path d="M 55.772054 318.04 
L 565.2 318.04 
L 565.2 26.88 
L 55.772054 26.88 
z
" style="fill: #ffffff"/>
   </g>
   <g id="matplotlib.axis_1">
    <g id="xtick_1">
     <g id="line2d_1">
      <path d="M 78.918607 318.04 
L 78.918607 26.88 
" clip-path="url(#p1dd26c41a9)" style="fill: none; stroke: #f0f0f0; stroke-width: 0.8; stroke-linecap: square"/>
     </g>
     <g id="line2d_2">
      <defs>
       <path id="m2b7c45702a" d="M 0 0 
L 0 3.5 
" style="stroke: #000000; stroke-width: 0.8"/>
      </defs>
      <g>
       <use xlink:href="#m2b7c45702a" x="78.918607" y="318.04" style="stroke: #000000; stroke-width: 0.8"/>
      </g>
     </g>
     <g id="text_1">
      <!-- 0.0 -->
      <g transform="translate(70.967044 332.638438) scale(0.1 -0.1)">
       <defs>
        <path id="DejaVuSans-30" d="M 2034 4250 
Q 1547 4250 1301 3770 
Q 1056 3291 1056 2328 
Q 1056 1369 1301 889 
Q 1547 409 2034 409 
Q 2525 409 2770 889 
Q 3016 1369 3016 2328 
Q 3016 3291 2770 3770 
Q 2525 4250 2034 4250 
z
M 2034 4750 
Q 2819 4750 3233 4129 
Q 3647 3509 3647 2328 
Q 3647 1150 3233 529 
Q 2819 -91 2034 -91 
Q 1250 -91 836 529 
Q 422 1150 422 2328 
Q 422 3509 836 4129 
Q 1250 4750 2034 4750 
z
" transform="scale(0.015625)"/>
        <path id="DejaVuSans-2e" d="M 684 794 
L 1344 794 
L 1344 0 
L 684 0 
L 684 794 
z
" transform="scale(0.015625)"/>
       </defs>
       <use xlink:href="#DejaVuSans-30"/>
       <use xlink:href="#DejaVuSans-2e" transform="translate(63.623047 0)"/>
       <use xlink:href="#DejaVuSans-30" transform="translate(95.410156 0)"/>
      </g>
     </g>
    </g>
    <g id="xtick_2">
     <g id="line2d_3">
      <path d="M 171.545575 318.04 
L 171.545575 26.88 
" clip-path="url(#p1dd26c41a9)" style="fill: none; stroke: #f0f0f0; stroke-width: 0.8; stroke-linecap: square"/>
     </g>
     <g id="line2d_4">
      <g>
       <use xlink:href="#m2b7c45702a" x="171.545575" y="318.04" style="stroke: #000000; stroke-width: 0.8"/>
      </g>
     </g>
     <g id="text_2">
      <!-- 0.1 -->
      <g transform="translate(163.594012 332.638438) scale(0.1 -0.1)">
       <defs>
        <path id="DejaVuSans-31" d="M 794 531 
L 1825 531 
L 1825 4091 
L 703 3866 
L 703 4441 
L 1819 4666 
L 2450 4666 
L 2450 531 
L 3481 531 
L 3481 0 
L 794 0 
L 794 531 
z
" transform="scale(0.015625)"/>
       </defs>
       <use xlink:href="#DejaVuSans-30"/>
       <use xlink:href="#DejaVuSans-2e" transform="translate(63.623047 0)"/>
       <use xlink:href="#DejaVuSans-31" transform="translate(95.410156 0)"/>
      </g>
     </g>
    </g>
    <g id="xtick_3">
     <g id="line2d_5">
      <path d="M 264.172543 318.04 
L 264.172543 26.88 
" clip-path="url(#p1dd26c41a9)" style="fill: none; stroke: #f0f0f0; stroke-width: 0.8; stroke-linecap: square"/>
     </g>
     <g id="line2d_6">
      <g>
       <use xlink:href="#m2b7c45702a" x="264.172543" y="318.04" style="stroke: #000000; stroke-width: 0.8"/>
      </g>
     </g>
     <g id="text_3">
      <!-- 0.2 -->
      <g transform="translate(256.22098 332.638438) scale(0.1 -0.1)">
       <defs>
        <path id="DejaVuSans-32" d="M 1228 531 
L 3431 531 
L 3431 0 
L 469 0 
L 469 531 
Q 828 903 1448 1529 
Q 2069 2156 2228 2338 
Q 2531 2678 2651 2914 
Q 2772 3150 2772 3378 
Q 2772 3750 2511 3984 
Q 2250 4219 1831 4219 
Q 1534 4219 1204 4116 
Q 875 4013 500 3803 
L 500 4441 
Q 881 4594 1212 4672 
Q 1544 4750 1819 4750 
Q 2544 4750 2975 4387 
Q 3406 4025 3406 3419 
Q 3406 3131 3298 2873 
Q 3191 2616 2906 2266 
Q 2828 2175 2409 1742 
Q 1991 1309 1228 531 
z
" transform="scale(0.015625)"/>
       </defs>
       <use xlink:href="#DejaVuSans-30"/>
       <use xlink:href="#DejaVuSans-2e" transform="translate(63.623047 0)"/>
       <use xlink:href="#DejaVuSans-32" transform="translate(95.410156 0)"/>
      </g>
     </g>
    </g>
    <g id="xtick_4">
     <g id="line2d_7">
      <path d="M 356.799511 318.04 
L 356.799511 26.88 
" clip-path="url(#p1dd26c41a9)" style="fill: none; stroke: #f0f0f0; stroke-width: 0.8; stroke-linecap: square"/>
     </g>
     <g id="line2d_8">
      <g>
       <use xlink:href="#m2b7c45702a" x="356.799511" y="318.04" style="stroke: #000000; stroke-width: 0.8"/>
      </g>
     </g>
     <g id="text_4">
      <!-- 0.3 -->
      <g transform="translate(348.847948 332.638438) scale(0.1 -0.1)">
       <defs>
        <path id="DejaVuSans-33" d="M 2597 2516 
Q 3050 2419 3304 2112 
Q 3559 1806 3559 1356 
Q 3559 666 3084 287 
Q 2609 -91 1734 -91 
Q 1441 -91 1130 -33 
Q 819 25 488 141 
L 488 750 
Q 750 597 1062 519 
Q 1375 441 1716 441 
Q 2309 441 2620 675 
Q 2931 909 2931 1356 
Q 2931 1769 2642 2001 
Q 2353 2234 1838 2234 
L 1294 2234 
L 1294 2753 
L 1863 2753 
Q 2328 2753 2575 2939 
Q 2822 3125 2822 3475 
Q 2822 3834 2567 4026 
Q 2313 4219 1838 4219 
Q 1578 4219 1281 4162 
Q 984 4106 628 3988 
L 628 4550 
Q 988 4650 1302 4700 
Q 1616 4750 1894 4750 
Q 2613 4750 3031 4423 
Q 3450 4097 3450 3541 
Q 3450 3153 3228 2886 
Q 3006 2619 2597 2516 
z
" transform="scale(0.015625)"/>
       </defs>
       <use xlink:href="#DejaVuSans-30"/>
       <use xlink:href="#DejaVuSans-2e" transform="translate(63.623047 0)"/>
       <use xlink:href="#DejaVuSans-33" transform="translate(95.410156 0)"/>
      </g>
     </g>
    </g>
    <g id="xtick_5">
     <g id="line2d_9">
      <path d="M 449.426479 318.04 
L 449.426479 26.88 
" clip-path="url(#p1dd26c41a9)" style="fill: none; stroke: #f0f0f0; stroke-width: 0.8; stroke-linecap: square"/>
     </g>
     <g id="line2d_10">
      <g>
       <use xlink:href="#m2b7c45702a" x="449.426479" y="318.04" style="stroke: #000000; stroke-width: 0.8"/>
      </g>
     </g>
     <g id="text_5">
      <!-- 0.4 -->
      <g transform="translate(441.474916 332.638438) scale(0.1 -0.1)">
       <defs>
        <path id="DejaVuSans-34" d="M 2419 4116 
L 825 1625 
L 2419 1625 
L 2419 4116 
z
M 2253 4666 
L 3047 4666 
L 3047 1625 
L 3713 1625 
L 3713 1100 
L 3047 1100 
L 3047 0 
L 2419 0 
L 2419 1100 
L 313 1100 
L 313 1709 
L 2253 4666 
z
" transform="scale(0.015625)"/>
       </defs>
       <use xlink:href="#DejaVuSans-30"/>
       <use xlink:href="#DejaVuSans-2e" transform="translate(63.623047 0)"/>
       <use xlink:href="#DejaVuSans-34" transform="translate(95.410156 0)"/>
      </g>
     </g>
    </g>
    <g id="xtick_6">
     <g id="line2d_11">
      <path d="M 542.053447 318.04 
L 542.053447 26.88 
" clip-path="url(#p1dd26c41a9)" style="fill: none; stroke: #f0f0f0; stroke-width: 0.8; stroke-linecap: square"/>
     </g>
     <g id="line2d_12">
      <g>
       <use xlink:href="#m2b7c45702a" x="542.053447" y="318.04" style="stroke: #000000; stroke-width: 0.8"/>
      </g>
     </g>
     <g id="text_6">
      <!-- 0.5 -->
      <g transform="translate(534.101884 332.638438) scale(0.1 -0.1)">
       <defs>
        <path id="DejaVuSans-35" d="M 691 4666 
L 3169 4666 
L 3169 4134 
L 1269 4134 
L 1269 2991 
Q 1406 3038 1543 3061 
Q 1681 3084 1819 3084 
Q 2600 3084 3056 2656 
Q 3513 2228 3513 1497 
Q 3513 744 3044 326 
Q 2575 -91 1722 -91 
Q 1428 -91 1123 -41 
Q 819 9 494 109 
L 494 744 
Q 775 591 1075 516 
Q 1375 441 1709 441 
Q 2250 441 2565 725 
Q 2881 1009 2881 1497 
Q 2881 1984 2565 2268 
Q 2250 2553 1709 2553 
Q 1456 2553 1204 2497 
Q 953 2441 691 2322 
L 691 4666 
z
" transform="scale(0.015625)"/>
       </defs>
       <use xlink:href="#DejaVuSans-30"/>
       <use xlink:href="#DejaVuSans-2e" transform="translate(63.623047 0)"/>
       <use xlink:href="#DejaVuSans-35" transform="translate(95.410156 0)"/>
      </g>
     </g>
    </g>
    <g id="text_7">
     <!-- Normalized Cutoff [rad/2π] -->
     <g transform="translate(243.681339 346.316563) scale(0.1 -0.1)">
      <defs>
       <path id="DejaVuSans-4e" d="M 628 4666 
L 1478 4666 
L 3547 763 
L 3547 4666 
L 4159 4666 
L 4159 0 
L 3309 0 
L 1241 3903 
L 1241 0 
L 628 0 
L 628 4666 
z
" transform="scale(0.015625)"/>
       <path id="DejaVuSans-6f" d="M 1959 3097 
Q 1497 3097 1228 2736 
Q 959 2375 959 1747 
Q 959 1119 1226 758 
Q 1494 397 1959 397 
Q 2419 397 2687 759 
Q 2956 1122 2956 1747 
Q 2956 2369 2687 2733 
Q 2419 3097 1959 3097 
z
M 1959 3584 
Q 2709 3584 3137 3096 
Q 3566 2609 3566 1747 
Q 3566 888 3137 398 
Q 2709 -91 1959 -91 
Q 1206 -91 779 398 
Q 353 888 353 1747 
Q 353 2609 779 3096 
Q 1206 3584 1959 3584 
z
" transform="scale(0.015625)"/>
       <path id="DejaVuSans-72" d="M 2631 2963 
Q 2534 3019 2420 3045 
Q 2306 3072 2169 3072 
Q 1681 3072 1420 2755 
Q 1159 2438 1159 1844 
L 1159 0 
L 581 0 
L 581 3500 
L 1159 3500 
L 1159 2956 
Q 1341 3275 1631 3429 
Q 1922 3584 2338 3584 
Q 2397 3584 2469 3576 
Q 2541 3569 2628 3553 
L 2631 2963 
z
" transform="scale(0.015625)"/>
       <path id="DejaVuSans-6d" d="M 3328 2828 
Q 3544 3216 3844 3400 
Q 4144 3584 4550 3584 
Q 5097 3584 5394 3201 
Q 5691 2819 5691 2113 
L 5691 0 
L 5113 0 
L 5113 2094 
Q 5113 2597 4934 2840 
Q 4756 3084 4391 3084 
Q 3944 3084 3684 2787 
Q 3425 2491 3425 1978 
L 3425 0 
L 2847 0 
L 2847 2094 
Q 2847 2600 2669 2842 
Q 2491 3084 2119 3084 
Q 1678 3084 1418 2786 
Q 1159 2488 1159 1978 
L 1159 0 
L 581 0 
L 581 3500 
L 1159 3500 
L 1159 2956 
Q 1356 3278 1631 3431 
Q 1906 3584 2284 3584 
Q 2666 3584 2933 3390 
Q 3200 3197 3328 2828 
z
" transform="scale(0.015625)"/>
       <path id="DejaVuSans-61" d="M 2194 1759 
Q 1497 1759 1228 1600 
Q 959 1441 959 1056 
Q 959 750 1161 570 
Q 1363 391 1709 391 
Q 2188 391 2477 730 
Q 2766 1069 2766 1631 
L 2766 1759 
L 2194 1759 
z
M 3341 1997 
L 3341 0 
L 2766 0 
L 2766 531 
Q 2569 213 2275 61 
Q 1981 -91 1556 -91 
Q 1019 -91 701 211 
Q 384 513 384 1019 
Q 384 1609 779 1909 
Q 1175 2209 1959 2209 
L 2766 2209 
L 2766 2266 
Q 2766 2663 2505 2880 
Q 2244 3097 1772 3097 
Q 1472 3097 1187 3025 
Q 903 2953 641 2809 
L 641 3341 
Q 956 3463 1253 3523 
Q 1550 3584 1831 3584 
Q 2591 3584 2966 3190 
Q 3341 2797 3341 1997 
z
" transform="scale(0.015625)"/>
       <path id="DejaVuSans-6c" d="M 603 4863 
L 1178 4863 
L 1178 0 
L 603 0 
L 603 4863 
z
" transform="scale(0.015625)"/>
       <path id="DejaVuSans-69" d="M 603 3500 
L 1178 3500 
L 1178 0 
L 603 0 
L 603 3500 
z
M 603 4863 
L 1178 4863 
L 1178 4134 
L 603 4134 
L 603 4863 
z
" transform="scale(0.015625)"/>
       <path id="DejaVuSans-7a" d="M 353 3500 
L 3084 3500 
L 3084 2975 
L 922 459 
L 3084 459 
L 3084 0 
L 275 0 
L 275 525 
L 2438 3041 
L 353 3041 
L 353 3500 
z
" transform="scale(0.015625)"/>
       <path id="DejaVuSans-65" d="M 3597 1894 
L 3597 1613 
L 953 1613 
Q 991 1019 1311 708 
Q 1631 397 2203 397 
Q 2534 397 2845 478 
Q 3156 559 3463 722 
L 3463 178 
Q 3153 47 2828 -22 
Q 2503 -91 2169 -91 
Q 1331 -91 842 396 
Q 353 884 353 1716 
Q 353 2575 817 3079 
Q 1281 3584 2069 3584 
Q 2775 3584 3186 3129 
Q 3597 2675 3597 1894 
z
M 3022 2063 
Q 3016 2534 2758 2815 
Q 2500 3097 2075 3097 
Q 1594 3097 1305 2825 
Q 1016 2553 972 2059 
L 3022 2063 
z
" transform="scale(0.015625)"/>
       <path id="DejaVuSans-64" d="M 2906 2969 
L 2906 4863 
L 3481 4863 
L 3481 0 
L 2906 0 
L 2906 525 
Q 2725 213 2448 61 
Q 2172 -91 1784 -91 
Q 1150 -91 751 415 
Q 353 922 353 1747 
Q 353 2572 751 3078 
Q 1150 3584 1784 3584 
Q 2172 3584 2448 3432 
Q 2725 3281 2906 2969 
z
M 947 1747 
Q 947 1113 1208 752 
Q 1469 391 1925 391 
Q 2381 391 2643 752 
Q 2906 1113 2906 1747 
Q 2906 2381 2643 2742 
Q 2381 3103 1925 3103 
Q 1469 3103 1208 2742 
Q 947 2381 947 1747 
z
" transform="scale(0.015625)"/>
       <path id="DejaVuSans-20" transform="scale(0.015625)"/>
       <path id="DejaVuSans-43" d="M 4122 4306 
L 4122 3641 
Q 3803 3938 3442 4084 
Q 3081 4231 2675 4231 
Q 1875 4231 1450 3742 
Q 1025 3253 1025 2328 
Q 1025 1406 1450 917 
Q 1875 428 2675 428 
Q 3081 428 3442 575 
Q 3803 722 4122 1019 
L 4122 359 
Q 3791 134 3420 21 
Q 3050 -91 2638 -91 
Q 1578 -91 968 557 
Q 359 1206 359 2328 
Q 359 3453 968 4101 
Q 1578 4750 2638 4750 
Q 3056 4750 3426 4639 
Q 3797 4528 4122 4306 
z
" transform="scale(0.015625)"/>
       <path id="DejaVuSans-75" d="M 544 1381 
L 544 3500 
L 1119 3500 
L 1119 1403 
Q 1119 906 1312 657 
Q 1506 409 1894 409 
Q 2359 409 2629 706 
Q 2900 1003 2900 1516 
L 2900 3500 
L 3475 3500 
L 3475 0 
L 2900 0 
L 2900 538 
Q 2691 219 2414 64 
Q 2138 -91 1772 -91 
Q 1169 -91 856 284 
Q 544 659 544 1381 
z
M 1991 3584 
L 1991 3584 
z
" transform="scale(0.015625)"/>
       <path id="DejaVuSans-74" d="M 1172 4494 
L 1172 3500 
L 2356 3500 
L 2356 3053 
L 1172 3053 
L 1172 1153 
Q 1172 725 1289 603 
Q 1406 481 1766 481 
L 2356 481 
L 2356 0 
L 1766 0 
Q 1100 0 847 248 
Q 594 497 594 1153 
L 594 3053 
L 172 3053 
L 172 3500 
L 594 3500 
L 594 4494 
L 1172 4494 
z
" transform="scale(0.015625)"/>
       <path id="DejaVuSans-66" d="M 2375 4863 
L 2375 4384 
L 1825 4384 
Q 1516 4384 1395 4259 
Q 1275 4134 1275 3809 
L 1275 3500 
L 2222 3500 
L 2222 3053 
L 1275 3053 
L 1275 0 
L 697 0 
L 697 3053 
L 147 3053 
L 147 3500 
L 697 3500 
L 697 3744 
Q 697 4328 969 4595 
Q 1241 4863 1831 4863 
L 2375 4863 
z
" transform="scale(0.015625)"/>
       <path id="DejaVuSans-5b" d="M 550 4863 
L 1875 4863 
L 1875 4416 
L 1125 4416 
L 1125 -397 
L 1875 -397 
L 1875 -844 
L 550 -844 
L 550 4863 
z
" transform="scale(0.015625)"/>
       <path id="DejaVuSans-2f" d="M 1625 4666 
L 2156 4666 
L 531 -594 
L 0 -594 
L 1625 4666 
z
" transform="scale(0.015625)"/>
       <path id="DejaVuSans-3c0" d="M 231 3500 
L 3584 3500 
L 3584 2925 
L 3144 2925 
L 3144 775 
Q 3144 550 3220 451 
Q 3297 353 3469 353 
Q 3516 353 3584 361 
Q 3653 369 3675 372 
L 3675 -44 
Q 3566 -84 3450 -103 
Q 3334 -122 3219 -122 
Q 2844 -122 2700 83 
Q 2556 288 2556 838 
L 2556 2925 
L 1266 2925 
L 1266 0 
L 678 0 
L 678 2925 
L 231 2925 
L 231 3500 
z
" transform="scale(0.015625)"/>
       <path id="DejaVuSans-5d" d="M 1947 4863 
L 1947 -844 
L 622 -844 
L 622 -397 
L 1369 -397 
L 1369 4416 
L 622 4416 
L 622 4863 
L 1947 4863 
z
" transform="scale(0.015625)"/>
      </defs>
      <use xlink:href="#DejaVuSans-4e"/>
      <use xlink:href="#DejaVuSans-6f" transform="translate(74.804688 0)"/>
      <use xlink:href="#DejaVuSans-72" transform="translate(135.986328 0)"/>
      <use xlink:href="#DejaVuSans-6d" transform="translate(175.349609 0)"/>
      <use xlink:href="#DejaVuSans-61" transform="translate(272.761719 0)"/>
      <use xlink:href="#DejaVuSans-6c" transform="translate(334.041016 0)"/>
      <use xlink:href="#DejaVuSans-69" transform="translate(361.824219 0)"/>
      <use xlink:href="#DejaVuSans-7a" transform="translate(389.607422 0)"/>
      <use xlink:href="#DejaVuSans-65" transform="translate(442.097656 0)"/>
      <use xlink:href="#DejaVuSans-64" transform="translate(503.621094 0)"/>
      <use xlink:href="#DejaVuSans-20" transform="translate(567.097656 0)"/>
      <use xlink:href="#DejaVuSans-43" transform="translate(598.884766 0)"/>
      <use xlink:href="#DejaVuSans-75" transform="translate(668.708984 0)"/>
      <use xlink:href="#DejaVuSans-74" transform="translate(732.087891 0)"/>
      <use xlink:href="#DejaVuSans-6f" transform="translate(771.296875 0)"/>
      <use xlink:href="#DejaVuSans-66" transform="translate(832.478516 0)"/>
      <use xlink:href="#DejaVuSans-66" transform="translate(867.683594 0)"/>
      <use xlink:href="#DejaVuSans-20" transform="translate(902.888672 0)"/>
      <use xlink:href="#DejaVuSans-5b" transform="translate(934.675781 0)"/>
      <use xlink:href="#DejaVuSans-72" transform="translate(973.689453 0)"/>
      <use xlink:href="#DejaVuSans-61" transform="translate(1014.802734 0)"/>
      <use xlink:href="#DejaVuSans-64" transform="translate(1076.082031 0)"/>
      <use xlink:href="#DejaVuSans-2f" transform="translate(1139.558594 0)"/>
      <use xlink:href="#DejaVuSans-32" transform="translate(1173.25 0)"/>
      <use xlink:href="#DejaVuSans-3c0" transform="translate(1236.873047 0)"/>
      <use xlink:href="#DejaVuSans-5d" transform="translate(1297.078125 0)"/>
     </g>
    </g>
   </g>
   <g id="matplotlib.axis_2">
    <g id="ytick_1">
     <g id="line2d_13">
      <path d="M 55.772054 318.04 
L 565.2 318.04 
" clip-path="url(#p1dd26c41a9)" style="fill: none; stroke: #f0f0f0; stroke-width: 0.8; stroke-linecap: square"/>
     </g>
     <g id="line2d_14">
      <defs>
       <path id="m6d1f50814d" d="M 0 0 
L -3.5 0 
" style="stroke: #000000; stroke-width: 0.8"/>
      </defs>
      <g>
       <use xlink:href="#m6d1f50814d" x="55.772054" y="318.04" style="stroke: #000000; stroke-width: 0.8"/>
      </g>
     </g>
     <g id="text_8">
      <!-- $\mathdefault{10^{-2}}$ -->
      <g transform="translate(25.272054 321.839219) scale(0.1 -0.1)">
       <defs>
        <path id="DejaVuSans-2212" d="M 678 2272 
L 4684 2272 
L 4684 1741 
L 678 1741 
L 678 2272 
z
" transform="scale(0.015625)"/>
       </defs>
       <use xlink:href="#DejaVuSans-31" transform="translate(0 0.765625)"/>
       <use xlink:href="#DejaVuSans-30" transform="translate(63.623047 0.765625)"/>
       <use xlink:href="#DejaVuSans-2212" transform="translate(128.203125 39.046875) scale(0.7)"/>
       <use xlink:href="#DejaVuSans-32" transform="translate(186.855469 39.046875) scale(0.7)"/>
      </g>
     </g>
    </g>
    <g id="ytick_2">
     <g id="line2d_15">
      <path d="M 55.772054 269.513333 
L 565.2 269.513333 
" clip-path="url(#p1dd26c41a9)" style="fill: none; stroke: #f0f0f0; stroke-width: 0.8; stroke-linecap: square"/>
     </g>
     <g id="line2d_16">
      <g>
       <use xlink:href="#m6d1f50814d" x="55.772054" y="269.513333" style="stroke: #000000; stroke-width: 0.8"/>
      </g>
     </g>
     <g id="text_9">
      <!-- $\mathdefault{10^{-1}}$ -->
      <g transform="translate(25.272054 273.312552) scale(0.1 -0.1)">
       <use xlink:href="#DejaVuSans-31" transform="translate(0 0.684375)"/>
       <use xlink:href="#DejaVuSans-30" transform="translate(63.623047 0.684375)"/>
       <use xlink:href="#DejaVuSans-2212" transform="translate(128.203125 38.965625) scale(0.7)"/>
       <use xlink:href="#DejaVuSans-31" transform="translate(186.855469 38.965625) scale(0.7)"/>
      </g>
     </g>
    </g>
    <g id="ytick_3">
     <g id="line2d_17">
      <path d="M 55.772054 220.986667 
L 565.2 220.986667 
" clip-path="url(#p1dd26c41a9)" style="fill: none; stroke: #f0f0f0; stroke-width: 0.8; stroke-linecap: square"/>
     </g>
     <g id="line2d_18">
      <g>
       <use xlink:href="#m6d1f50814d" x="55.772054" y="220.986667" style="stroke: #000000; stroke-width: 0.8"/>
      </g>
     </g>
     <g id="text_10">
      <!-- $\mathdefault{10^{0}}$ -->
      <g transform="translate(31.172054 224.785885) scale(0.1 -0.1)">
       <use xlink:href="#DejaVuSans-31" transform="translate(0 0.765625)"/>
       <use xlink:href="#DejaVuSans-30" transform="translate(63.623047 0.765625)"/>
       <use xlink:href="#DejaVuSans-30" transform="translate(128.203125 39.046875) scale(0.7)"/>
      </g>
     </g>
    </g>
    <g id="ytick_4">
     <g id="line2d_19">
      <path d="M 55.772054 172.46 
L 565.2 172.46 
" clip-path="url(#p1dd26c41a9)" style="fill: none; stroke: #f0f0f0; stroke-width: 0.8; stroke-linecap: square"/>
     </g>
     <g id="line2d_20">
      <g>
       <use xlink:href="#m6d1f50814d" x="55.772054" y="172.46" style="stroke: #000000; stroke-width: 0.8"/>
      </g>
     </g>
     <g id="text_11">
      <!-- $\mathdefault{10^{1}}$ -->
      <g transform="translate(31.172054 176.259219) scale(0.1 -0.1)">
       <use xlink:href="#DejaVuSans-31" transform="translate(0 0.684375)"/>
       <use xlink:href="#DejaVuSans-30" transform="translate(63.623047 0.684375)"/>
       <use xlink:href="#DejaVuSans-31" transform="translate(128.203125 38.965625) scale(0.7)"/>
      </g>
     </g>
    </g>
    <g id="ytick_5">
     <g id="line2d_21">
      <path d="M 55.772054 123.933333 
L 565.2 123.933333 
" clip-path="url(#p1dd26c41a9)" style="fill: none; stroke: #f0f0f0; stroke-width: 0.8; stroke-linecap: square"/>
     </g>
     <g id="line2d_22">
      <g>
       <use xlink:href="#m6d1f50814d" x="55.772054" y="123.933333" style="stroke: #000000; stroke-width: 0.8"/>
      </g>
     </g>
     <g id="text_12">
      <!-- $\mathdefault{10^{2}}$ -->
      <g transform="translate(31.172054 127.732552) scale(0.1 -0.1)">
       <use xlink:href="#DejaVuSans-31" transform="translate(0 0.765625)"/>
       <use xlink:href="#DejaVuSans-30" transform="translate(63.623047 0.765625)"/>
       <use xlink:href="#DejaVuSans-32" transform="translate(128.203125 39.046875) scale(0.7)"/>
      </g>
     </g>
    </g>
    <g id="ytick_6">
     <g id="line2d_23">
      <path d="M 55.772054 75.406667 
L 565.2 75.406667 
" clip-path="url(#p1dd26c41a9)" style="fill: none; stroke: #f0f0f0; stroke-width: 0.8; stroke-linecap: square"/>
     </g>
     <g id="line2d_24">
      <g>
       <use xlink:href="#m6d1f50814d" x="55.772054" y="75.406667" style="stroke: #000000; stroke-width: 0.8"/>
      </g>
     </g>
     <g id="text_13">
      <!-- $\mathdefault{10^{3}}$ -->
      <g transform="translate(31.172054 79.205885) scale(0.1 -0.1)">
       <use xlink:href="#DejaVuSans-31" transform="translate(0 0.765625)"/>
       <use xlink:href="#DejaVuSans-30" transform="translate(63.623047 0.765625)"/>
       <use xlink:href="#DejaVuSans-33" transform="translate(128.203125 39.046875) scale(0.7)"/>
      </g>
     </g>
    </g>
    <g id="ytick_7">
     <g id="line2d_25">
      <path d="M 55.772054 26.88 
L 565.2 26.88 
" clip-path="url(#p1dd26c41a9)" style="fill: none; stroke: #f0f0f0; stroke-width: 0.8; stroke-linecap: square"/>
     </g>
     <g id="line2d_26">
      <g>
       <use xlink:href="#m6d1f50814d" x="55.772054" y="26.88" style="stroke: #000000; stroke-width: 0.8"/>
      </g>
     </g>
     <g id="text_14">
      <!-- $\mathdefault{10^{4}}$ -->
      <g transform="translate(31.172054 30.679219) scale(0.1 -0.1)">
       <use xlink:href="#DejaVuSans-31" transform="translate(0 0.684375)"/>
       <use xlink:href="#DejaVuSans-30" transform="translate(63.623047 0.684375)"/>
       <use xlink:href="#DejaVuSans-34" transform="translate(128.203125 38.965625) scale(0.7)"/>
      </g>
     </g>
    </g>
    <g id="ytick_8">
     <g id="line2d_27">
      <path d="M 55.772054 303.432018 
L 565.2 303.432018 
" clip-path="url(#p1dd26c41a9)" style="fill: none; stroke: #f0f0f0; stroke-width: 0.8; stroke-linecap: square"/>
     </g>
     <g id="line2d_28">
      <defs>
       <path id="mf4347c7d0c" d="M 0 0 
L -2 0 
" style="stroke: #000000; stroke-width: 0.6"/>
      </defs>
      <g>
       <use xlink:href="#mf4347c7d0c" x="55.772054" y="303.432018" style="stroke: #000000; stroke-width: 0.6"/>
      </g>
     </g>
    </g>
    <g id="ytick_9">
     <g id="line2d_29">
      <path d="M 55.772054 294.886896 
L 565.2 294.886896 
" clip-path="url(#p1dd26c41a9)" style="fill: none; stroke: #f0f0f0; stroke-width: 0.8; stroke-linecap: square"/>
     </g>
     <g id="line2d_30">
      <g>
       <use xlink:href="#mf4347c7d0c" x="55.772054" y="294.886896" style="stroke: #000000; stroke-width: 0.6"/>
      </g>
     </g>
    </g>
    <g id="ytick_10">
     <g id="line2d_31">
      <path d="M 55.772054 288.824035 
L 565.2 288.824035 
" clip-path="url(#p1dd26c41a9)" style="fill: none; stroke: #f0f0f0; stroke-width: 0.8; stroke-linecap: square"/>
     </g>
     <g id="line2d_32">
      <g>
       <use xlink:href="#mf4347c7d0c" x="55.772054" y="288.824035" style="stroke: #000000; stroke-width: 0.6"/>
      </g>
     </g>
    </g>
    <g id="ytick_11">
     <g id="line2d_33">
      <path d="M 55.772054 284.121316 
L 565.2 284.121316 
" clip-path="url(#p1dd26c41a9)" style="fill: none; stroke: #f0f0f0; stroke-width: 0.8; stroke-linecap: square"/>
     </g>
     <g id="line2d_34">
      <g>
       <use xlink:href="#mf4347c7d0c" x="55.772054" y="284.121316" style="stroke: #000000; stroke-width: 0.6"/>
      </g>
     </g>
    </g>
    <g id="ytick_12">
     <g id="line2d_35">
      <path d="M 55.772054 280.278914 
L 565.2 280.278914 
" clip-path="url(#p1dd26c41a9)" style="fill: none; stroke: #f0f0f0; stroke-width: 0.8; stroke-linecap: square"/>
     </g>
     <g id="line2d_36">
      <g>
       <use xlink:href="#mf4347c7d0c" x="55.772054" y="280.278914" style="stroke: #000000; stroke-width: 0.6"/>
      </g>
     </g>
    </g>
    <g id="ytick_13">
     <g id="line2d_37">
      <path d="M 55.772054 277.030209 
L 565.2 277.030209 
" clip-path="url(#p1dd26c41a9)" style="fill: none; stroke: #f0f0f0; stroke-width: 0.8; stroke-linecap: square"/>
     </g>
     <g id="line2d_38">
      <g>
       <use xlink:href="#mf4347c7d0c" x="55.772054" y="277.030209" style="stroke: #000000; stroke-width: 0.6"/>
      </g>
     </g>
    </g>
    <g id="ytick_14">
     <g id="line2d_39">
      <path d="M 55.772054 274.216053 
L 565.2 274.216053 
" clip-path="url(#p1dd26c41a9)" style="fill: none; stroke: #f0f0f0; stroke-width: 0.8; stroke-linecap: square"/>
     </g>
     <g id="line2d_40">
      <g>
       <use xlink:href="#mf4347c7d0c" x="55.772054" y="274.216053" style="stroke: #000000; stroke-width: 0.6"/>
      </g>
     </g>
    </g>
    <g id="ytick_15">
     <g id="line2d_41">
      <path d="M 55.772054 271.733792 
L 565.2 271.733792 
" clip-path="url(#p1dd26c41a9)" style="fill: none; stroke: #f0f0f0; stroke-width: 0.8; stroke-linecap: square"/>
     </g>
     <g id="line2d_42">
      <g>
       <use xlink:href="#mf4347c7d0c" x="55.772054" y="271.733792" style="stroke: #000000; stroke-width: 0.6"/>
      </g>
     </g>
    </g>
    <g id="ytick_16">
     <g id="line2d_43">
      <path d="M 55.772054 254.905351 
L 565.2 254.905351 
" clip-path="url(#p1dd26c41a9)" style="fill: none; stroke: #f0f0f0; stroke-width: 0.8; stroke-linecap: square"/>
     </g>
     <g id="line2d_44">
      <g>
       <use xlink:href="#mf4347c7d0c" x="55.772054" y="254.905351" style="stroke: #000000; stroke-width: 0.6"/>
      </g>
     </g>
    </g>
    <g id="ytick_17">
     <g id="line2d_45">
      <path d="M 55.772054 246.360229 
L 565.2 246.360229 
" clip-path="url(#p1dd26c41a9)" style="fill: none; stroke: #f0f0f0; stroke-width: 0.8; stroke-linecap: square"/>
     </g>
     <g id="line2d_46">
      <g>
       <use xlink:href="#mf4347c7d0c" x="55.772054" y="246.360229" style="stroke: #000000; stroke-width: 0.6"/>
      </g>
     </g>
    </g>
    <g id="ytick_18">
     <g id="line2d_47">
      <path d="M 55.772054 240.297369 
L 565.2 240.297369 
" clip-path="url(#p1dd26c41a9)" style="fill: none; stroke: #f0f0f0; stroke-width: 0.8; stroke-linecap: square"/>
     </g>
     <g id="line2d_48">
      <g>
       <use xlink:href="#mf4347c7d0c" x="55.772054" y="240.297369" style="stroke: #000000; stroke-width: 0.6"/>
      </g>
     </g>
    </g>
    <g id="ytick_19">
     <g id="line2d_49">
      <path d="M 55.772054 235.594649 
L 565.2 235.594649 
" clip-path="url(#p1dd26c41a9)" style="fill: none; stroke: #f0f0f0; stroke-width: 0.8; stroke-linecap: square"/>
     </g>
     <g id="line2d_50">
      <g>
       <use xlink:href="#mf4347c7d0c" x="55.772054" y="235.594649" style="stroke: #000000; stroke-width: 0.6"/>
      </g>
     </g>
    </g>
    <g id="ytick_20">
     <g id="line2d_51">
      <path d="M 55.772054 231.752247 
L 565.2 231.752247 
" clip-path="url(#p1dd26c41a9)" style="fill: none; stroke: #f0f0f0; stroke-width: 0.8; stroke-linecap: square"/>
     </g>
     <g id="line2d_52">
      <g>
       <use xlink:href="#mf4347c7d0c" x="55.772054" y="231.752247" style="stroke: #000000; stroke-width: 0.6"/>
      </g>
     </g>
    </g>
    <g id="ytick_21">
     <g id="line2d_53">
      <path d="M 55.772054 228.503542 
L 565.2 228.503542 
" clip-path="url(#p1dd26c41a9)" style="fill: none; stroke: #f0f0f0; stroke-width: 0.8; stroke-linecap: square"/>
     </g>
     <g id="line2d_54">
      <g>
       <use xlink:href="#mf4347c7d0c" x="55.772054" y="228.503542" style="stroke: #000000; stroke-width: 0.6"/>
      </g>
     </g>
    </g>
    <g id="ytick_22">
     <g id="line2d_55">
      <path d="M 55.772054 225.689387 
L 565.2 225.689387 
" clip-path="url(#p1dd26c41a9)" style="fill: none; stroke: #f0f0f0; stroke-width: 0.8; stroke-linecap: square"/>
     </g>
     <g id="line2d_56">
      <g>
       <use xlink:href="#mf4347c7d0c" x="55.772054" y="225.689387" style="stroke: #000000; stroke-width: 0.6"/>
      </g>
     </g>
    </g>
    <g id="ytick_23">
     <g id="line2d_57">
      <path d="M 55.772054 223.207125 
L 565.2 223.207125 
" clip-path="url(#p1dd26c41a9)" style="fill: none; stroke: #f0f0f0; stroke-width: 0.8; stroke-linecap: square"/>
     </g>
     <g id="line2d_58">
      <g>
       <use xlink:href="#mf4347c7d0c" x="55.772054" y="223.207125" style="stroke: #000000; stroke-width: 0.6"/>
      </g>
     </g>
    </g>
    <g id="ytick_24">
     <g id="line2d_59">
      <path d="M 55.772054 206.378684 
L 565.2 206.378684 
" clip-path="url(#p1dd26c41a9)" style="fill: none; stroke: #f0f0f0; stroke-width: 0.8; stroke-linecap: square"/>
     </g>
     <g id="line2d_60">
      <g>
       <use xlink:href="#mf4347c7d0c" x="55.772054" y="206.378684" style="stroke: #000000; stroke-width: 0.6"/>
      </g>
     </g>
    </g>
    <g id="ytick_25">
     <g id="line2d_61">
      <path d="M 55.772054 197.833563 
L 565.2 197.833563 
" clip-path="url(#p1dd26c41a9)" style="fill: none; stroke: #f0f0f0; stroke-width: 0.8; stroke-linecap: square"/>
     </g>
     <g id="line2d_62">
      <g>
       <use xlink:href="#mf4347c7d0c" x="55.772054" y="197.833563" style="stroke: #000000; stroke-width: 0.6"/>
      </g>
     </g>
    </g>
    <g id="ytick_26">
     <g id="line2d_63">
      <path d="M 55.772054 191.770702 
L 565.2 191.770702 
" clip-path="url(#p1dd26c41a9)" style="fill: none; stroke: #f0f0f0; stroke-width: 0.8; stroke-linecap: square"/>
     </g>
     <g id="line2d_64">
      <g>
       <use xlink:href="#mf4347c7d0c" x="55.772054" y="191.770702" style="stroke: #000000; stroke-width: 0.6"/>
      </g>
     </g>
    </g>
    <g id="ytick_27">
     <g id="line2d_65">
      <path d="M 55.772054 187.067982 
L 565.2 187.067982 
" clip-path="url(#p1dd26c41a9)" style="fill: none; stroke: #f0f0f0; stroke-width: 0.8; stroke-linecap: square"/>
     </g>
     <g id="line2d_66">
      <g>
       <use xlink:href="#mf4347c7d0c" x="55.772054" y="187.067982" style="stroke: #000000; stroke-width: 0.6"/>
      </g>
     </g>
    </g>
    <g id="ytick_28">
     <g id="line2d_67">
      <path d="M 55.772054 183.22558 
L 565.2 183.22558 
" clip-path="url(#p1dd26c41a9)" style="fill: none; stroke: #f0f0f0; stroke-width: 0.8; stroke-linecap: square"/>
     </g>
     <g id="line2d_68">
      <g>
       <use xlink:href="#mf4347c7d0c" x="55.772054" y="183.22558" style="stroke: #000000; stroke-width: 0.6"/>
      </g>
     </g>
    </g>
    <g id="ytick_29">
     <g id="line2d_69">
      <path d="M 55.772054 179.976876 
L 565.2 179.976876 
" clip-path="url(#p1dd26c41a9)" style="fill: none; stroke: #f0f0f0; stroke-width: 0.8; stroke-linecap: square"/>
     </g>
     <g id="line2d_70">
      <g>
       <use xlink:href="#mf4347c7d0c" x="55.772054" y="179.976876" style="stroke: #000000; stroke-width: 0.6"/>
      </g>
     </g>
    </g>
    <g id="ytick_30">
     <g id="line2d_71">
      <path d="M 55.772054 177.16272 
L 565.2 177.16272 
" clip-path="url(#p1dd26c41a9)" style="fill: none; stroke: #f0f0f0; stroke-width: 0.8; stroke-linecap: square"/>
     </g>
     <g id="line2d_72">
      <g>
       <use xlink:href="#mf4347c7d0c" x="55.772054" y="177.16272" style="stroke: #000000; stroke-width: 0.6"/>
      </g>
     </g>
    </g>
    <g id="ytick_31">
     <g id="line2d_73">
      <path d="M 55.772054 174.680458 
L 565.2 174.680458 
" clip-path="url(#p1dd26c41a9)" style="fill: none; stroke: #f0f0f0; stroke-width: 0.8; stroke-linecap: square"/>
     </g>
     <g id="line2d_74">
      <g>
       <use xlink:href="#mf4347c7d0c" x="55.772054" y="174.680458" style="stroke: #000000; stroke-width: 0.6"/>
      </g>
     </g>
    </g>
    <g id="ytick_32">
     <g id="line2d_75">
      <path d="M 55.772054 157.852018 
L 565.2 157.852018 
" clip-path="url(#p1dd26c41a9)" style="fill: none; stroke: #f0f0f0; stroke-width: 0.8; stroke-linecap: square"/>
     </g>
     <g id="line2d_76">
      <g>
       <use xlink:href="#mf4347c7d0c" x="55.772054" y="157.852018" style="stroke: #000000; stroke-width: 0.6"/>
      </g>
     </g>
    </g>
    <g id="ytick_33">
     <g id="line2d_77">
      <path d="M 55.772054 149.306896 
L 565.2 149.306896 
" clip-path="url(#p1dd26c41a9)" style="fill: none; stroke: #f0f0f0; stroke-width: 0.8; stroke-linecap: square"/>
     </g>
     <g id="line2d_78">
      <g>
       <use xlink:href="#mf4347c7d0c" x="55.772054" y="149.306896" style="stroke: #000000; stroke-width: 0.6"/>
      </g>
     </g>
    </g>
    <g id="ytick_34">
     <g id="line2d_79">
      <path d="M 55.772054 143.244035 
L 565.2 143.244035 
" clip-path="url(#p1dd26c41a9)" style="fill: none; stroke: #f0f0f0; stroke-width: 0.8; stroke-linecap: square"/>
     </g>
     <g id="line2d_80">
      <g>
       <use xlink:href="#mf4347c7d0c" x="55.772054" y="143.244035" style="stroke: #000000; stroke-width: 0.6"/>
      </g>
     </g>
    </g>
    <g id="ytick_35">
     <g id="line2d_81">
      <path d="M 55.772054 138.541316 
L 565.2 138.541316 
" clip-path="url(#p1dd26c41a9)" style="fill: none; stroke: #f0f0f0; stroke-width: 0.8; stroke-linecap: square"/>
     </g>
     <g id="line2d_82">
      <g>
       <use xlink:href="#mf4347c7d0c" x="55.772054" y="138.541316" style="stroke: #000000; stroke-width: 0.6"/>
      </g>
     </g>
    </g>
    <g id="ytick_36">
     <g id="line2d_83">
      <path d="M 55.772054 134.698914 
L 565.2 134.698914 
" clip-path="url(#p1dd26c41a9)" style="fill: none; stroke: #f0f0f0; stroke-width: 0.8; stroke-linecap: square"/>
     </g>
     <g id="line2d_84">
      <g>
       <use xlink:href="#mf4347c7d0c" x="55.772054" y="134.698914" style="stroke: #000000; stroke-width: 0.6"/>
      </g>
     </g>
    </g>
    <g id="ytick_37">
     <g id="line2d_85">
      <path d="M 55.772054 131.450209 
L 565.2 131.450209 
" clip-path="url(#p1dd26c41a9)" style="fill: none; stroke: #f0f0f0; stroke-width: 0.8; stroke-linecap: square"/>
     </g>
     <g id="line2d_86">
      <g>
       <use xlink:href="#mf4347c7d0c" x="55.772054" y="131.450209" style="stroke: #000000; stroke-width: 0.6"/>
      </g>
     </g>
    </g>
    <g id="ytick_38">
     <g id="line2d_87">
      <path d="M 55.772054 128.636053 
L 565.2 128.636053 
" clip-path="url(#p1dd26c41a9)" style="fill: none; stroke: #f0f0f0; stroke-width: 0.8; stroke-linecap: square"/>
     </g>
     <g id="line2d_88">
      <g>
       <use xlink:href="#mf4347c7d0c" x="55.772054" y="128.636053" style="stroke: #000000; stroke-width: 0.6"/>
      </g>
     </g>
    </g>
    <g id="ytick_39">
     <g id="line2d_89">
      <path d="M 55.772054 126.153792 
L 565.2 126.153792 
" clip-path="url(#p1dd26c41a9)" style="fill: none; stroke: #f0f0f0; stroke-width: 0.8; stroke-linecap: square"/>
     </g>
     <g id="line2d_90">
      <g>
       <use xlink:href="#mf4347c7d0c" x="55.772054" y="126.153792" style="stroke: #000000; stroke-width: 0.6"/>
      </g>
     </g>
    </g>
    <g id="ytick_40">
     <g id="line2d_91">
      <path d="M 55.772054 109.325351 
L 565.2 109.325351 
" clip-path="url(#p1dd26c41a9)" style="fill: none; stroke: #f0f0f0; stroke-width: 0.8; stroke-linecap: square"/>
     </g>
     <g id="line2d_92">
      <g>
       <use xlink:href="#mf4347c7d0c" x="55.772054" y="109.325351" style="stroke: #000000; stroke-width: 0.6"/>
      </g>
     </g>
    </g>
    <g id="ytick_41">
     <g id="line2d_93">
      <path d="M 55.772054 100.780229 
L 565.2 100.780229 
" clip-path="url(#p1dd26c41a9)" style="fill: none; stroke: #f0f0f0; stroke-width: 0.8; stroke-linecap: square"/>
     </g>
     <g id="line2d_94">
      <g>
       <use xlink:href="#mf4347c7d0c" x="55.772054" y="100.780229" style="stroke: #000000; stroke-width: 0.6"/>
      </g>
     </g>
    </g>
    <g id="ytick_42">
     <g id="line2d_95">
      <path d="M 55.772054 94.717369 
L 565.2 94.717369 
" clip-path="url(#p1dd26c41a9)" style="fill: none; stroke: #f0f0f0; stroke-width: 0.8; stroke-linecap: square"/>
     </g>
     <g id="line2d_96">
      <g>
       <use xlink:href="#mf4347c7d0c" x="55.772054" y="94.717369" style="stroke: #000000; stroke-width: 0.6"/>
      </g>
     </g>
    </g>
    <g id="ytick_43">
     <g id="line2d_97">
      <path d="M 55.772054 90.014649 
L 565.2 90.014649 
" clip-path="url(#p1dd26c41a9)" style="fill: none; stroke: #f0f0f0; stroke-width: 0.8; stroke-linecap: square"/>
     </g>
     <g id="line2d_98">
      <g>
       <use xlink:href="#mf4347c7d0c" x="55.772054" y="90.014649" style="stroke: #000000; stroke-width: 0.6"/>
      </g>
     </g>
    </g>
    <g id="ytick_44">
     <g id="line2d_99">
      <path d="M 55.772054 86.172247 
L 565.2 86.172247 
" clip-path="url(#p1dd26c41a9)" style="fill: none; stroke: #f0f0f0; stroke-width: 0.8; stroke-linecap: square"/>
     </g>
     <g id="line2d_100">
      <g>
       <use xlink:href="#mf4347c7d0c" x="55.772054" y="86.172247" style="stroke: #000000; stroke-width: 0.6"/>
      </g>
     </g>
    </g>
    <g id="ytick_45">
     <g id="line2d_101">
      <path d="M 55.772054 82.923542 
L 565.2 82.923542 
" clip-path="url(#p1dd26c41a9)" style="fill: none; stroke: #f0f0f0; stroke-width: 0.8; stroke-linecap: square"/>
     </g>
     <g id="line2d_102">
      <g>
       <use xlink:href="#mf4347c7d0c" x="55.772054" y="82.923542" style="stroke: #000000; stroke-width: 0.6"/>
      </g>
     </g>
    </g>
    <g id="ytick_46">
     <g id="line2d_103">
      <path d="M 55.772054 80.109387 
L 565.2 80.109387 
" clip-path="url(#p1dd26c41a9)" style="fill: none; stroke: #f0f0f0; stroke-width: 0.8; stroke-linecap: square"/>
     </g>
     <g id="line2d_104">
      <g>
       <use xlink:href="#mf4347c7d0c" x="55.772054" y="80.109387" style="stroke: #000000; stroke-width: 0.6"/>
      </g>
     </g>
    </g>
    <g id="ytick_47">
     <g id="line2d_105">
      <path d="M 55.772054 77.627125 
L 565.2 77.627125 
" clip-path="url(#p1dd26c41a9)" style="fill: none; stroke: #f0f0f0; stroke-width: 0.8; stroke-linecap: square"/>
     </g>
     <g id="line2d_106">
      <g>
       <use xlink:href="#mf4347c7d0c" x="55.772054" y="77.627125" style="stroke: #000000; stroke-width: 0.6"/>
      </g>
     </g>
    </g>
    <g id="ytick_48">
     <g id="line2d_107">
      <path d="M 55.772054 60.798684 
L 565.2 60.798684 
" clip-path="url(#p1dd26c41a9)" style="fill: none; stroke: #f0f0f0; stroke-width: 0.8; stroke-linecap: square"/>
     </g>
     <g id="line2d_108">
      <g>
       <use xlink:href="#mf4347c7d0c" x="55.772054" y="60.798684" style="stroke: #000000; stroke-width: 0.6"/>
      </g>
     </g>
    </g>
    <g id="ytick_49">
     <g id="line2d_109">
      <path d="M 55.772054 52.253563 
L 565.2 52.253563 
" clip-path="url(#p1dd26c41a9)" style="fill: none; stroke: #f0f0f0; stroke-width: 0.8; stroke-linecap: square"/>
     </g>
     <g id="line2d_110">
      <g>
       <use xlink:href="#mf4347c7d0c" x="55.772054" y="52.253563" style="stroke: #000000; stroke-width: 0.6"/>
      </g>
     </g>
    </g>
    <g id="ytick_50">
     <g id="line2d_111">
      <path d="M 55.772054 46.190702 
L 565.2 46.190702 
" clip-path="url(#p1dd26c41a9)" style="fill: none; stroke: #f0f0f0; stroke-width: 0.8; stroke-linecap: square"/>
     </g>
     <g id="line2d_112">
      <g>
       <use xlink:href="#mf4347c7d0c" x="55.772054" y="46.190702" style="stroke: #000000; stroke-width: 0.6"/>
      </g>
     </g>
    </g>
    <g id="ytick_51">
     <g id="line2d_113">
      <path d="M 55.772054 41.487982 
L 565.2 41.487982 
" clip-path="url(#p1dd26c41a9)" style="fill: none; stroke: #f0f0f0; stroke-width: 0.8; stroke-linecap: square"/>
     </g>
     <g id="line2d_114">
      <g>
       <use xlink:href="#mf4347c7d0c" x="55.772054" y="41.487982" style="stroke: #000000; stroke-width: 0.6"/>
      </g>
     </g>
    </g>
    <g id="ytick_52">
     <g id="line2d_115">
      <path d="M 55.772054 37.64558 
L 565.2 37.64558 
" clip-path="url(#p1dd26c41a9)" style="fill: none; stroke: #f0f0f0; stroke-width: 0.8; stroke-linecap: square"/>
     </g>
     <g id="line2d_116">
      <g>
       <use xlink:href="#mf4347c7d0c" x="55.772054" y="37.64558" style="stroke: #000000; stroke-width: 0.6"/>
      </g>
     </g>
    </g>
    <g id="ytick_53">
     <g id="line2d_117">
      <path d="M 55.772054 34.396876 
L 565.2 34.396876 
" clip-path="url(#p1dd26c41a9)" style="fill: none; stroke: #f0f0f0; stroke-width: 0.8; stroke-linecap: square"/>
     </g>
     <g id="line2d_118">
      <g>
       <use xlink:href="#mf4347c7d0c" x="55.772054" y="34.396876" style="stroke: #000000; stroke-width: 0.6"/>
      </g>
     </g>
    </g>
    <g id="ytick_54">
     <g id="line2d_119">
      <path d="M 55.772054 31.58272 
L 565.2 31.58272 
" clip-path="url(#p1dd26c41a9)" style="fill: none; stroke: #f0f0f0; stroke-width: 0.8; stroke-linecap: square"/>
     </g>
     <g id="line2d_120">
      <g>
       <use xlink:href="#mf4347c7d0c" x="55.772054" y="31.58272" style="stroke: #000000; stroke-width: 0.6"/>
      </g>
     </g>
    </g>
    <g id="ytick_55">
     <g id="line2d_121">
      <path d="M 55.772054 29.100458 
L 565.2 29.100458 
" clip-path="url(#p1dd26c41a9)" style="fill: none; stroke: #f0f0f0; stroke-width: 0.8; stroke-linecap: square"/>
     </g>
     <g id="line2d_122">
      <g>
       <use xlink:href="#mf4347c7d0c" x="55.772054" y="29.100458" style="stroke: #000000; stroke-width: 0.6"/>
      </g>
     </g>
    </g>
    <g id="text_15">
     <!-- Min. Q -->
     <g transform="translate(19.192366 188.445938) rotate(-90) scale(0.1 -0.1)">
      <defs>
       <path id="DejaVuSans-4d" d="M 628 4666 
L 1569 4666 
L 2759 1491 
L 3956 4666 
L 4897 4666 
L 4897 0 
L 4281 0 
L 4281 4097 
L 3078 897 
L 2444 897 
L 1241 4097 
L 1241 0 
L 628 0 
L 628 4666 
z
" transform="scale(0.015625)"/>
       <path id="DejaVuSans-6e" d="M 3513 2113 
L 3513 0 
L 2938 0 
L 2938 2094 
Q 2938 2591 2744 2837 
Q 2550 3084 2163 3084 
Q 1697 3084 1428 2787 
Q 1159 2491 1159 1978 
L 1159 0 
L 581 0 
L 581 3500 
L 1159 3500 
L 1159 2956 
Q 1366 3272 1645 3428 
Q 1925 3584 2291 3584 
Q 2894 3584 3203 3211 
Q 3513 2838 3513 2113 
z
" transform="scale(0.015625)"/>
       <path id="DejaVuSans-51" d="M 2522 4238 
Q 1834 4238 1429 3725 
Q 1025 3213 1025 2328 
Q 1025 1447 1429 934 
Q 1834 422 2522 422 
Q 3209 422 3611 934 
Q 4013 1447 4013 2328 
Q 4013 3213 3611 3725 
Q 3209 4238 2522 4238 
z
M 3406 84 
L 4238 -825 
L 3475 -825 
L 2784 -78 
Q 2681 -84 2626 -87 
Q 2572 -91 2522 -91 
Q 1538 -91 948 567 
Q 359 1225 359 2328 
Q 359 3434 948 4092 
Q 1538 4750 2522 4750 
Q 3503 4750 4090 4092 
Q 4678 3434 4678 2328 
Q 4678 1516 4351 937 
Q 4025 359 3406 84 
z
" transform="scale(0.015625)"/>
      </defs>
      <use xlink:href="#DejaVuSans-4d"/>
      <use xlink:href="#DejaVuSans-69" transform="translate(86.279297 0)"/>
      <use xlink:href="#DejaVuSans-6e" transform="translate(114.0625 0)"/>
      <use xlink:href="#DejaVuSans-2e" transform="translate(177.441406 0)"/>
      <use xlink:href="#DejaVuSans-20" transform="translate(209.228516 0)"/>
      <use xlink:href="#DejaVuSans-51" transform="translate(241.015625 0)"/>
     </g>
    </g>
   </g>
   <g id="line2d_123">
    <path d="M 79.30258 361 
L 79.672976 346.767852 
L 80.15979 336.273673 
L 80.762062 327.936566 
L 81.479917 321.004887 
L 82.313739 315.064484 
L 83.264932 309.857758 
L 84.335772 305.214076 
L 85.529257 301.014974 
L 86.849663 297.173275 
L 88.304305 293.619158 
L 89.899932 290.303645 
L 91.646483 287.184656 
L 93.55679 284.227003 
L 95.645759 281.402366 
L 97.932122 278.68579 
L 100.434872 276.059161 
L 103.174776 273.507693 
L 106.18244 271.012854 
L 109.487245 268.562847 
L 113.124808 266.145524 
L 117.138396 263.748269 
L 121.573595 261.361445 
L 126.484193 258.97469 
L 131.933852 256.576698 
L 137.998131 254.154901 
L 144.766959 251.695045 
L 152.359785 249.17674 
L 160.909303 246.580041 
L 170.605346 243.87238 
L 181.719219 241.005153 
L 194.656992 237.903429 
L 210.129714 234.430447 
L 229.773156 230.26099 
L 260.743302 223.946089 
L 301.27881 215.637758 
L 323.301246 210.891294 
L 341.541287 206.737933 
L 357.531612 202.872731 
L 371.823722 199.193139 
L 384.771619 195.634188 
L 396.609028 192.153859 
L 407.491125 188.726118 
L 417.513902 185.339386 
L 426.807028 181.966656 
L 435.412262 178.608448 
L 443.38695 175.258875 
L 450.741136 171.932179 
L 457.617968 168.579188 
L 463.985721 165.229525 
L 469.943742 161.845089 
L 475.469842 158.451987 
L 480.609539 155.038246 
L 485.412981 151.583484 
L 489.866579 148.111554 
L 494.026161 144.59326 
L 497.951027 140.984876 
L 501.633752 137.296723 
L 505.067322 133.544008 
L 508.245164 129.748198 
L 511.232526 125.840954 
L 514.025115 121.830965 
L 516.691168 117.612188 
L 519.155454 113.299073 
L 521.487453 108.767642 
L 523.68492 104.001244 
L 525.745732 98.982513 
L 527.667892 93.693968 
L 529.449532 88.119107 
L 531.088916 82.244324 
L 532.58444 76.062185 
L 534.00977 69.184967 
L 535.28886 61.884495 
L 536.420454 54.167986 
L 537.47914 45.392579 
L 538.388535 36.049754 
L 539.223731 25.148436 
L 539.908202 13.476081 
L 540.53148 -1 
L 540.53148 -1 
" clip-path="url(#p1dd26c41a9)" style="fill: none; stroke: #000000; stroke-opacity: 0.25; stroke-linecap: square"/>
   </g>
   <g id="line2d_124">
    <path d="M 78.92787 235.593987 
L 108.714908 233.353409 
L 136.944458 231.009199 
L 163.633834 228.572061 
L 188.809861 226.052295 
L 212.534392 223.456701 
L 234.837492 220.795355 
L 255.769398 218.076326 
L 275.414102 215.302737 
L 293.807931 212.48374 
L 311.031608 209.621558 
L 327.123476 206.724729 
L 342.149011 203.796997 
L 356.200838 200.835194 
L 369.319852 197.84532 
L 381.556889 194.831066 
L 392.958638 191.796692 
L 403.608466 188.735113 
L 413.512806 185.660035 
L 422.75288 182.562108 
L 431.374192 179.44063 
L 439.437069 176.287292 
L 446.954524 173.110629 
L 453.947028 169.917482 
L 460.504969 166.679805 
L 466.601103 163.424281 
L 472.274744 160.145999 
L 477.570431 156.833625 
L 482.537394 153.467532 
L 487.161638 150.069076 
L 491.498139 146.609556 
L 495.536646 143.10833 
L 499.33695 139.522832 
L 502.891837 135.866398 
L 506.265066 132.074927 
L 509.380765 128.240073 
L 512.304472 124.29245 
L 515.031977 120.242336 
L 517.631762 115.981161 
L 520.02851 111.629504 
L 522.291928 107.060753 
L 524.419831 102.260264 
L 526.410162 97.213527 
L 528.260988 91.907143 
L 529.970509 86.330465 
L 531.537055 80.478304 
L 533.034061 74.006425 
L 534.3856 67.164279 
L 535.590344 59.960123 
L 536.722686 51.841702 
L 537.70632 43.244244 
L 538.616165 33.34619 
L 539.451775 21.606468 
L 540.136585 8.731262 
L 540.531475 -1 
L 540.531475 -1 
" clip-path="url(#p1dd26c41a9)" style="fill: none; stroke: #0d0887; stroke-opacity: 0.75; stroke-linecap: square"/>
   </g>
   <g id="line2d_125">
    <path d="M 78.92787 244.138888 
L 107.392341 241.314409 
L 134.8562 238.367357 
L 161.248417 235.313389 
L 186.49417 232.170154 
L 210.541953 228.954036 
L 233.35158 225.68126 
L 254.895628 222.367587 
L 275.154744 219.029007 
L 294.163004 215.67364 
L 311.91468 212.31725 
L 328.479452 208.962217 
L 343.936876 205.607372 
L 358.314689 202.262054 
L 371.678683 198.927191 
L 384.115875 195.596772 
L 395.666323 192.275805 
L 406.353912 188.975043 
L 416.286295 185.67859 
L 425.545728 182.373774 
L 434.119763 179.080904 
L 442.125498 175.770387 
L 449.576601 172.450015 
L 456.494228 169.125927 
L 462.906475 165.801757 
L 468.912179 162.440139 
L 474.489004 159.066626 
L 479.682148 155.669194 
L 484.541463 152.227422 
L 489.05322 148.764207 
L 493.272973 145.250181 
L 497.25978 141.64152 
L 500.936429 138.019028 
L 504.434582 134.26022 
L 507.678487 130.449926 
L 510.733193 126.519284 
L 513.594315 122.474648 
L 516.257728 118.327186 
L 518.792191 113.963084 
L 521.122266 109.510069 
L 523.317919 104.835596 
L 525.377031 99.925329 
L 527.297605 94.765603 
L 529.077775 89.344723 
L 530.715805 83.655097 
L 532.28494 77.37494 
L 533.709328 70.730818 
L 534.987574 63.72135 
L 536.193911 55.830034 
L 537.252073 47.434692 
L 538.236844 37.759242 
L 539.071764 27.353385 
L 539.8321 14.945446 
L 540.441272 1.4351 
L 540.53148 -1 
L 540.53148 -1 
" clip-path="url(#p1dd26c41a9)" style="fill: none; stroke: #9c179e; stroke-opacity: 0.75; stroke-linecap: square"/>
   </g>
   <g id="line2d_126">
    <path d="M 78.92787 250.201473 
L 108.411464 246.401411 
L 137.783933 242.391994 
L 166.752902 238.214163 
L 194.886519 233.933774 
L 221.750502 229.623829 
L 246.945782 225.359228 
L 270.259875 221.190833 
L 291.654635 217.143201 
L 311.184945 213.225855 
L 329.015657 209.426561 
L 345.340717 205.723939 
L 360.258797 202.115889 
L 373.959235 198.57677 
L 386.544096 195.099451 
L 398.133735 191.669842 
L 408.850102 188.269472 
L 418.745976 184.898881 
L 427.900026 181.549007 
L 436.414231 178.198143 
L 444.290669 174.861384 
L 451.601555 171.525167 
L 458.368986 168.196444 
L 464.685672 164.844809 
L 470.589853 161.461507 
L 476.059511 158.073577 
L 481.140439 154.669645 
L 485.883035 151.229953 
L 490.341783 147.7239 
L 494.506175 144.167951 
L 498.366324 140.584571 
L 501.982845 136.929945 
L 505.419251 133.13996 
L 508.599717 129.302855 
L 511.589546 125.348961 
L 514.384442 121.286292 
L 516.980366 117.128212 
L 519.446281 112.759764 
L 521.77982 108.163655 
L 523.905266 103.492239 
L 525.893298 98.599177 
L 527.741986 93.476225 
L 529.523921 87.869526 
L 531.163575 81.956273 
L 532.659346 75.72737 
L 534.00977 69.184967 
L 535.28886 61.884495 
L 536.420454 54.167986 
L 537.47914 45.392579 
L 538.388535 36.049754 
L 539.223731 25.148436 
L 539.908202 13.476081 
L 540.53148 -1 
L 540.53148 -1 
" clip-path="url(#p1dd26c41a9)" style="fill: none; stroke: #ed7953; stroke-opacity: 0.75; stroke-linecap: square"/>
   </g>
   <g id="line2d_127">
    <path d="M 55.772054 228.290658 
L 565.2 228.290658 
" clip-path="url(#p1dd26c41a9)" style="fill: none; stroke-dasharray: 3.7,1.6; stroke-dashoffset: 0; stroke: #ff0000; stroke-opacity: 0.5"/>
   </g>
   <g id="line2d_128">
    <path d="M 239.337978 318.04 
L 239.337978 26.88 
" clip-path="url(#p1dd26c41a9)" style="fill: none; stroke-dasharray: 3.7,1.6; stroke-dashoffset: 0; stroke: #0000ff; stroke-opacity: 0.5"/>
   </g>
   <g id="patch_3">
    <path d="M 55.772054 318.04 
L 55.772054 26.88 
" style="fill: none; stroke: #000000; stroke-width: 0.8; stroke-linejoin: miter; stroke-linecap: square"/>
   </g>
   <g id="patch_4">
    <path d="M 565.2 318.04 
L 565.2 26.88 
" style="fill: none; stroke: #000000; stroke-width: 0.8; stroke-linejoin: miter; stroke-linecap: square"/>
   </g>
   <g id="patch_5">
    <path d="M 55.772054 318.04 
L 565.2 318.04 
" style="fill: none; stroke: #000000; stroke-width: 0.8; stroke-linejoin: miter; stroke-linecap: square"/>
   </g>
   <g id="patch_6">
    <path d="M 55.772054 26.88 
L 565.2 26.88 
" style="fill: none; stroke: #000000; stroke-width: 0.8; stroke-linejoin: miter; stroke-linecap: square"/>
   </g>
   <g id="text_16">
    <!-- Chamberlin SVF, Cutoff vs Minimum Q -->
    <g transform="translate(195.618839 20.88) scale(0.12 -0.12)">
     <defs>
      <path id="DejaVuSans-68" d="M 3513 2113 
L 3513 0 
L 2938 0 
L 2938 2094 
Q 2938 2591 2744 2837 
Q 2550 3084 2163 3084 
Q 1697 3084 1428 2787 
Q 1159 2491 1159 1978 
L 1159 0 
L 581 0 
L 581 4863 
L 1159 4863 
L 1159 2956 
Q 1366 3272 1645 3428 
Q 1925 3584 2291 3584 
Q 2894 3584 3203 3211 
Q 3513 2838 3513 2113 
z
" transform="scale(0.015625)"/>
      <path id="DejaVuSans-62" d="M 3116 1747 
Q 3116 2381 2855 2742 
Q 2594 3103 2138 3103 
Q 1681 3103 1420 2742 
Q 1159 2381 1159 1747 
Q 1159 1113 1420 752 
Q 1681 391 2138 391 
Q 2594 391 2855 752 
Q 3116 1113 3116 1747 
z
M 1159 2969 
Q 1341 3281 1617 3432 
Q 1894 3584 2278 3584 
Q 2916 3584 3314 3078 
Q 3713 2572 3713 1747 
Q 3713 922 3314 415 
Q 2916 -91 2278 -91 
Q 1894 -91 1617 61 
Q 1341 213 1159 525 
L 1159 0 
L 581 0 
L 581 4863 
L 1159 4863 
L 1159 2969 
z
" transform="scale(0.015625)"/>
      <path id="DejaVuSans-53" d="M 3425 4513 
L 3425 3897 
Q 3066 4069 2747 4153 
Q 2428 4238 2131 4238 
Q 1616 4238 1336 4038 
Q 1056 3838 1056 3469 
Q 1056 3159 1242 3001 
Q 1428 2844 1947 2747 
L 2328 2669 
Q 3034 2534 3370 2195 
Q 3706 1856 3706 1288 
Q 3706 609 3251 259 
Q 2797 -91 1919 -91 
Q 1588 -91 1214 -16 
Q 841 59 441 206 
L 441 856 
Q 825 641 1194 531 
Q 1563 422 1919 422 
Q 2459 422 2753 634 
Q 3047 847 3047 1241 
Q 3047 1584 2836 1778 
Q 2625 1972 2144 2069 
L 1759 2144 
Q 1053 2284 737 2584 
Q 422 2884 422 3419 
Q 422 4038 858 4394 
Q 1294 4750 2059 4750 
Q 2388 4750 2728 4690 
Q 3069 4631 3425 4513 
z
" transform="scale(0.015625)"/>
      <path id="DejaVuSans-56" d="M 1831 0 
L 50 4666 
L 709 4666 
L 2188 738 
L 3669 4666 
L 4325 4666 
L 2547 0 
L 1831 0 
z
" transform="scale(0.015625)"/>
      <path id="DejaVuSans-46" d="M 628 4666 
L 3309 4666 
L 3309 4134 
L 1259 4134 
L 1259 2759 
L 3109 2759 
L 3109 2228 
L 1259 2228 
L 1259 0 
L 628 0 
L 628 4666 
z
" transform="scale(0.015625)"/>
      <path id="DejaVuSans-2c" d="M 750 794 
L 1409 794 
L 1409 256 
L 897 -744 
L 494 -744 
L 750 256 
L 750 794 
z
" transform="scale(0.015625)"/>
      <path id="DejaVuSans-76" d="M 191 3500 
L 800 3500 
L 1894 563 
L 2988 3500 
L 3597 3500 
L 2284 0 
L 1503 0 
L 191 3500 
z
" transform="scale(0.015625)"/>
      <path id="DejaVuSans-73" d="M 2834 3397 
L 2834 2853 
Q 2591 2978 2328 3040 
Q 2066 3103 1784 3103 
Q 1356 3103 1142 2972 
Q 928 2841 928 2578 
Q 928 2378 1081 2264 
Q 1234 2150 1697 2047 
L 1894 2003 
Q 2506 1872 2764 1633 
Q 3022 1394 3022 966 
Q 3022 478 2636 193 
Q 2250 -91 1575 -91 
Q 1294 -91 989 -36 
Q 684 19 347 128 
L 347 722 
Q 666 556 975 473 
Q 1284 391 1588 391 
Q 1994 391 2212 530 
Q 2431 669 2431 922 
Q 2431 1156 2273 1281 
Q 2116 1406 1581 1522 
L 1381 1569 
Q 847 1681 609 1914 
Q 372 2147 372 2553 
Q 372 3047 722 3315 
Q 1072 3584 1716 3584 
Q 2034 3584 2315 3537 
Q 2597 3491 2834 3397 
z
" transform="scale(0.015625)"/>
     </defs>
     <use xlink:href="#DejaVuSans-43"/>
     <use xlink:href="#DejaVuSans-68" transform="translate(69.824219 0)"/>
     <use xlink:href="#DejaVuSans-61" transform="translate(133.203125 0)"/>
     <use xlink:href="#DejaVuSans-6d" transform="translate(194.482422 0)"/>
     <use xlink:href="#DejaVuSans-62" transform="translate(291.894531 0)"/>
     <use xlink:href="#DejaVuSans-65" transform="translate(355.371094 0)"/>
     <use xlink:href="#DejaVuSans-72" transform="translate(416.894531 0)"/>
     <use xlink:href="#DejaVuSans-6c" transform="translate(458.007812 0)"/>
     <use xlink:href="#DejaVuSans-69" transform="translate(485.791016 0)"/>
     <use xlink:href="#DejaVuSans-6e" transform="translate(513.574219 0)"/>
     <use xlink:href="#DejaVuSans-20" transform="translate(576.953125 0)"/>
     <use xlink:href="#DejaVuSans-53" transform="translate(608.740234 0)"/>
     <use xlink:href="#DejaVuSans-56" transform="translate(672.216797 0)"/>
     <use xlink:href="#DejaVuSans-46" transform="translate(740.625 0)"/>
     <use xlink:href="#DejaVuSans-2c" transform="translate(798.144531 0)"/>
     <use xlink:href="#DejaVuSans-20" transform="translate(829.931641 0)"/>
     <use xlink:href="#DejaVuSans-43" transform="translate(861.71875 0)"/>
     <use xlink:href="#DejaVuSans-75" transform="translate(931.542969 0)"/>
     <use xlink:href="#DejaVuSans-74" transform="translate(994.921875 0)"/>
     <use xlink:href="#DejaVuSans-6f" transform="translate(1034.130859 0)"/>
     <use xlink:href="#DejaVuSans-66" transform="translate(1095.3125 0)"/>
     <use xlink:href="#DejaVuSans-66" transform="translate(1130.517578 0)"/>
     <use xlink:href="#DejaVuSans-20" transform="translate(1165.722656 0)"/>
     <use xlink:href="#DejaVuSans-76" transform="translate(1197.509766 0)"/>
     <use xlink:href="#DejaVuSans-73" transform="translate(1256.689453 0)"/>
     <use xlink:href="#DejaVuSans-20" transform="translate(1308.789062 0)"/>
     <use xlink:href="#DejaVuSans-4d" transform="translate(1340.576172 0)"/>
     <use xlink:href="#DejaVuSans-69" transform="translate(1426.855469 0)"/>
     <use xlink:href="#DejaVuSans-6e" transform="translate(1454.638672 0)"/>
     <use xlink:href="#DejaVuSans-69" transform="translate(1518.017578 0)"/>
     <use xlink:href="#DejaVuSans-6d" transform="translate(1545.800781 0)"/>
     <use xlink:href="#DejaVuSans-75" transform="translate(1643.212891 0)"/>
     <use xlink:href="#DejaVuSans-6d" transform="translate(1706.591797 0)"/>
     <use xlink:href="#DejaVuSans-20" transform="translate(1804.003906 0)"/>
     <use xlink:href="#DejaVuSans-51" transform="translate(1835.791016 0)"/>
    </g>
   </g>
   <g id="legend_1">
    <g id="patch_7">
     <path d="M 62.772054 148.73625 
L 225.072054 148.73625 
Q 227.072054 148.73625 227.072054 146.73625 
L 227.072054 33.88 
Q 227.072054 31.88 225.072054 31.88 
L 62.772054 31.88 
Q 60.772054 31.88 60.772054 33.88 
L 60.772054 146.73625 
Q 60.772054 148.73625 62.772054 148.73625 
z
" style="fill: #ffffff; opacity: 0.8; stroke: #cccccc; stroke-linejoin: miter"/>
    </g>
    <g id="line2d_129">
     <path d="M 64.772054 42.08 
L 74.772054 42.08 
L 84.772054 42.08 
" style="fill: none; stroke: #000000; stroke-opacity: 0.25; stroke-linecap: square"/>
    </g>
    <g id="text_17">
     <!-- Exact  $\frac{2f}{4 - f^2}$ -->
     <g transform="translate(92.772054 45.58) scale(0.1 -0.1)">
      <defs>
       <path id="DejaVuSans-45" d="M 628 4666 
L 3578 4666 
L 3578 4134 
L 1259 4134 
L 1259 2753 
L 3481 2753 
L 3481 2222 
L 1259 2222 
L 1259 531 
L 3634 531 
L 3634 0 
L 628 0 
L 628 4666 
z
" transform="scale(0.015625)"/>
       <path id="DejaVuSans-78" d="M 3513 3500 
L 2247 1797 
L 3578 0 
L 2900 0 
L 1881 1375 
L 863 0 
L 184 0 
L 1544 1831 
L 300 3500 
L 978 3500 
L 1906 2253 
L 2834 3500 
L 3513 3500 
z
" transform="scale(0.015625)"/>
       <path id="DejaVuSans-63" d="M 3122 3366 
L 3122 2828 
Q 2878 2963 2633 3030 
Q 2388 3097 2138 3097 
Q 1578 3097 1268 2742 
Q 959 2388 959 1747 
Q 959 1106 1268 751 
Q 1578 397 2138 397 
Q 2388 397 2633 464 
Q 2878 531 3122 666 
L 3122 134 
Q 2881 22 2623 -34 
Q 2366 -91 2075 -91 
Q 1284 -91 818 406 
Q 353 903 353 1747 
Q 353 2603 823 3093 
Q 1294 3584 2113 3584 
Q 2378 3584 2631 3529 
Q 2884 3475 3122 3366 
z
" transform="scale(0.015625)"/>
       <path id="DejaVuSans-Oblique-66" d="M 3059 4863 
L 2969 4384 
L 2419 4384 
Q 2106 4384 1964 4261 
Q 1822 4138 1753 3809 
L 1691 3500 
L 2638 3500 
L 2553 3053 
L 1606 3053 
L 1013 0 
L 434 0 
L 1031 3053 
L 481 3053 
L 563 3500 
L 1113 3500 
L 1159 3744 
Q 1278 4363 1576 4613 
Q 1875 4863 2516 4863 
L 3059 4863 
z
" transform="scale(0.015625)"/>
      </defs>
      <use xlink:href="#DejaVuSans-45" transform="translate(0 0.014062)"/>
      <use xlink:href="#DejaVuSans-78" transform="translate(63.183594 0.014062)"/>
      <use xlink:href="#DejaVuSans-61" transform="translate(122.363281 0.014062)"/>
      <use xlink:href="#DejaVuSans-63" transform="translate(183.642578 0.014062)"/>
      <use xlink:href="#DejaVuSans-74" transform="translate(238.623047 0.014062)"/>
      <use xlink:href="#DejaVuSans-20" transform="translate(277.832031 0.014062)"/>
      <use xlink:href="#DejaVuSans-20" transform="translate(309.619141 0.014062)"/>
      <use xlink:href="#DejaVuSans-32" transform="translate(403.40625 43.810938) scale(0.7)"/>
      <use xlink:href="#DejaVuSans-Oblique-66" transform="translate(447.942383 43.810938) scale(0.7)"/>
      <use xlink:href="#DejaVuSans-34" transform="translate(341.40625 -50.603125) scale(0.7)"/>
      <use xlink:href="#DejaVuSans-2212" transform="translate(399.580078 -50.603125) scale(0.7)"/>
      <use xlink:href="#DejaVuSans-Oblique-66" transform="translate(471.870117 -50.603125) scale(0.7)"/>
      <use xlink:href="#DejaVuSans-32" transform="translate(501.727068 -23.80625) scale(0.49)"/>
      <path d="M 341.40625 18.810937 
L 341.40625 25.060937 
L 534.816423 25.060937 
L 534.816423 18.810937 
L 341.40625 18.810937 
z
"/>
     </g>
    </g>
    <g id="line2d_130">
     <path d="M 64.772054 59.778437 
L 74.772054 59.778437 
L 84.772054 59.778437 
" style="fill: none; stroke: #0d0887; stroke-opacity: 0.75; stroke-linecap: square"/>
    </g>
    <g id="text_18">
     <!-- $1\ /\ \left[ (2 - f) \right]$ -->
     <g transform="translate(92.772054 63.278437) scale(0.1 -0.1)">
      <defs>
       <path id="DejaVuSans-28" d="M 1984 4856 
Q 1566 4138 1362 3434 
Q 1159 2731 1159 2009 
Q 1159 1288 1364 580 
Q 1569 -128 1984 -844 
L 1484 -844 
Q 1016 -109 783 600 
Q 550 1309 550 2009 
Q 550 2706 781 3412 
Q 1013 4119 1484 4856 
L 1984 4856 
z
" transform="scale(0.015625)"/>
       <path id="DejaVuSans-29" d="M 513 4856 
L 1013 4856 
Q 1481 4119 1714 3412 
Q 1947 2706 1947 2009 
Q 1947 1309 1714 600 
Q 1481 -109 1013 -844 
L 513 -844 
Q 928 -128 1133 580 
Q 1338 1288 1338 2009 
Q 1338 2731 1133 3434 
Q 928 4138 513 4856 
z
" transform="scale(0.015625)"/>
      </defs>
      <use xlink:href="#DejaVuSans-31" transform="translate(0 0.015625)"/>
      <use xlink:href="#DejaVuSans-2f" transform="translate(96.093425 0.015625)"/>
      <use xlink:href="#DejaVuSans-5b" transform="translate(162.25521 0.015625)"/>
      <use xlink:href="#DejaVuSans-28" transform="translate(201.268882 0.015625)"/>
      <use xlink:href="#DejaVuSans-32" transform="translate(240.282554 0.015625)"/>
      <use xlink:href="#DejaVuSans-2212" transform="translate(323.388022 0.015625)"/>
      <use xlink:href="#DejaVuSans-Oblique-66" transform="translate(426.659507 0.015625)"/>
      <use xlink:href="#DejaVuSans-29" transform="translate(461.864585 0.015625)"/>
      <use xlink:href="#DejaVuSans-5d" transform="translate(500.878257 0.015625)"/>
     </g>
    </g>
    <g id="line2d_131">
     <path d="M 64.772054 78.558125 
L 74.772054 78.558125 
L 84.772054 78.558125 
" style="fill: none; stroke: #9c179e; stroke-opacity: 0.75; stroke-linecap: square"/>
    </g>
    <g id="text_19">
     <!-- $1\ /\ \left[ (2 - f) + \frac{(2 - f)^2}{2^2} \right]$ -->
     <g transform="translate(92.772054 82.058125) scale(0.1 -0.1)">
      <defs>
       <path id="STIXSizeTwoSym-Regular-5b" d="M 2701 -1786 
L 1216 -1786 
L 1216 10022 
L 2701 10022 
L 2701 9766 
L 1702 9766 
L 1702 -1530 
L 2701 -1530 
L 2701 -1786 
z
" transform="scale(0.015625)"/>
       <path id="DejaVuSans-2b" d="M 2944 4013 
L 2944 2272 
L 4684 2272 
L 4684 1741 
L 2944 1741 
L 2944 0 
L 2419 0 
L 2419 1741 
L 678 1741 
L 678 2272 
L 2419 2272 
L 2419 4013 
L 2944 4013 
z
" transform="scale(0.015625)"/>
       <path id="STIXSizeTwoSym-Regular-5d" d="M 1722 -1786 
L 237 -1786 
L 237 -1530 
L 1235 -1530 
L 1235 9766 
L 237 9766 
L 237 10022 
L 1722 10022 
L 1722 -1786 
z
" transform="scale(0.015625)"/>
      </defs>
      <use xlink:href="#DejaVuSans-31" transform="translate(0 0.807813)"/>
      <use xlink:href="#DejaVuSans-2f" transform="translate(96.093425 0.807813)"/>
      <use xlink:href="#STIXSizeTwoSym-Regular-5b" transform="translate(162.25521 -24.7) scale(0.904116)"/>
      <use xlink:href="#DejaVuSans-28" transform="translate(203.737327 0.807813)"/>
      <use xlink:href="#DejaVuSans-32" transform="translate(242.750999 0.807813)"/>
      <use xlink:href="#DejaVuSans-2212" transform="translate(325.856467 0.807813)"/>
      <use xlink:href="#DejaVuSans-Oblique-66" transform="translate(429.127952 0.807813)"/>
      <use xlink:href="#DejaVuSans-29" transform="translate(464.33303 0.807813)"/>
      <use xlink:href="#DejaVuSans-2b" transform="translate(522.829124 0.807813)"/>
      <use xlink:href="#DejaVuSans-28" transform="translate(626.100608 53.835938) scale(0.7)"/>
      <use xlink:href="#DejaVuSans-32" transform="translate(653.410178 53.835938) scale(0.7)"/>
      <use xlink:href="#DejaVuSans-2212" transform="translate(711.584006 53.835938) scale(0.7)"/>
      <use xlink:href="#DejaVuSans-Oblique-66" transform="translate(783.874045 53.835938) scale(0.7)"/>
      <use xlink:href="#DejaVuSans-29" transform="translate(808.5176 53.835938) scale(0.7)"/>
      <use xlink:href="#DejaVuSans-32" transform="translate(836.497092 80.632812) scale(0.49)"/>
      <use xlink:href="#DejaVuSans-32" transform="translate(709.100608 -49.809375) scale(0.7)"/>
      <use xlink:href="#DejaVuSans-32" transform="translate(754.306663 -23.0125) scale(0.49)"/>
      <use xlink:href="#STIXSizeTwoSym-Regular-5d" transform="translate(882.086448 -24.7) scale(0.904116)"/>
      <path d="M 626.100608 19.604688 
L 626.100608 25.854688 
L 869.586448 25.854688 
L 869.586448 19.604688 
L 626.100608 19.604688 
z
"/>
     </g>
    </g>
    <g id="line2d_132">
     <path d="M 64.772054 100.358125 
L 74.772054 100.358125 
L 84.772054 100.358125 
" style="fill: none; stroke: #ed7953; stroke-opacity: 0.75; stroke-linecap: square"/>
    </g>
    <g id="text_20">
     <!-- $1\ /\ \left[ (2 - f) + \frac{(2 - f)^2}{2^2} + \frac{(2 - f)^3}{2^3} \right]$ -->
     <g transform="translate(92.772054 103.858125) scale(0.1 -0.1)">
      <use xlink:href="#DejaVuSans-31" transform="translate(0 0.807813)"/>
      <use xlink:href="#DejaVuSans-2f" transform="translate(96.093425 0.807813)"/>
      <use xlink:href="#STIXSizeTwoSym-Regular-5b" transform="translate(162.25521 -24.7) scale(0.904116)"/>
      <use xlink:href="#DejaVuSans-28" transform="translate(203.737327 0.807813)"/>
      <use xlink:href="#DejaVuSans-32" transform="translate(242.750999 0.807813)"/>
      <use xlink:href="#DejaVuSans-2212" transform="translate(325.856467 0.807813)"/>
      <use xlink:href="#DejaVuSans-Oblique-66" transform="translate(429.127952 0.807813)"/>
      <use xlink:href="#DejaVuSans-29" transform="translate(464.33303 0.807813)"/>
      <use xlink:href="#DejaVuSans-2b" transform="translate(522.829124 0.807813)"/>
      <use xlink:href="#DejaVuSans-28" transform="translate(626.100608 53.835938) scale(0.7)"/>
      <use xlink:href="#DejaVuSans-32" transform="translate(653.410178 53.835938) scale(0.7)"/>
      <use xlink:href="#DejaVuSans-2212" transform="translate(711.584006 53.835938) scale(0.7)"/>
      <use xlink:href="#DejaVuSans-Oblique-66" transform="translate(783.874045 53.835938) scale(0.7)"/>
      <use xlink:href="#DejaVuSans-29" transform="translate(808.5176 53.835938) scale(0.7)"/>
      <use xlink:href="#DejaVuSans-32" transform="translate(836.497092 80.632812) scale(0.49)"/>
      <use xlink:href="#DejaVuSans-32" transform="translate(709.100608 -49.809375) scale(0.7)"/>
      <use xlink:href="#DejaVuSans-32" transform="translate(754.306663 -23.0125) scale(0.49)"/>
      <use xlink:href="#DejaVuSans-2b" transform="translate(901.56887 0.807813)"/>
      <use xlink:href="#DejaVuSans-28" transform="translate(1004.840354 53.835938) scale(0.7)"/>
      <use xlink:href="#DejaVuSans-32" transform="translate(1032.149924 53.835938) scale(0.7)"/>
      <use xlink:href="#DejaVuSans-2212" transform="translate(1090.323752 53.835938) scale(0.7)"/>
      <use xlink:href="#DejaVuSans-Oblique-66" transform="translate(1162.613792 53.835938) scale(0.7)"/>
      <use xlink:href="#DejaVuSans-29" transform="translate(1187.257346 53.835938) scale(0.7)"/>
      <use xlink:href="#DejaVuSans-33" transform="translate(1215.236838 80.632812) scale(0.49)"/>
      <use xlink:href="#DejaVuSans-32" transform="translate(1087.840354 -49.809375) scale(0.7)"/>
      <use xlink:href="#DejaVuSans-33" transform="translate(1133.046409 -23.0125) scale(0.49)"/>
      <use xlink:href="#STIXSizeTwoSym-Regular-5d" transform="translate(1260.826194 -24.7) scale(0.904116)"/>
      <path d="M 626.100608 19.604688 
L 626.100608 25.854688 
L 869.586448 25.854688 
L 869.586448 19.604688 
L 626.100608 19.604688 
z
"/>
      <path d="M 1004.840354 19.604688 
L 1004.840354 25.854688 
L 1248.326194 25.854688 
L 1248.326194 19.604688 
L 1004.840354 19.604688 
z
"/>
     </g>
    </g>
    <g id="line2d_133">
     <path d="M 64.772054 119.958125 
L 74.772054 119.958125 
L 84.772054 119.958125 
" style="fill: none; stroke-dasharray: 3.7,1.6; stroke-dashoffset: 0; stroke: #ff0000; stroke-opacity: 0.5"/>
    </g>
    <g id="text_21">
     <!-- Max. flat Q  $\frac{1}{\sqrt{2}}$ -->
     <g transform="translate(92.772054 123.458125) scale(0.1 -0.1)">
      <defs>
       <path id="STIXSizeOneSym-Regular-221a" d="M 6970 9933 
L 3373 -1888 
L 3104 -1888 
L 1626 2918 
Q 1555 3149 1465 3251 
Q 1376 3354 1229 3354 
Q 1011 3354 794 3181 
L 717 3309 
L 1766 4115 
L 1926 4115 
L 3379 -602 
L 3405 -602 
L 6605 9933 
L 6970 9933 
z
" transform="scale(0.015625)"/>
      </defs>
      <use xlink:href="#DejaVuSans-4d" transform="translate(0 0.16875)"/>
      <use xlink:href="#DejaVuSans-61" transform="translate(86.279297 0.16875)"/>
      <use xlink:href="#DejaVuSans-78" transform="translate(147.558594 0.16875)"/>
      <use xlink:href="#DejaVuSans-2e" transform="translate(206.738281 0.16875)"/>
      <use xlink:href="#DejaVuSans-20" transform="translate(238.525391 0.16875)"/>
      <use xlink:href="#DejaVuSans-66" transform="translate(270.3125 0.16875)"/>
      <use xlink:href="#DejaVuSans-6c" transform="translate(305.517578 0.16875)"/>
      <use xlink:href="#DejaVuSans-61" transform="translate(333.300781 0.16875)"/>
      <use xlink:href="#DejaVuSans-74" transform="translate(394.580078 0.16875)"/>
      <use xlink:href="#DejaVuSans-20" transform="translate(433.789062 0.16875)"/>
      <use xlink:href="#DejaVuSans-51" transform="translate(465.576172 0.16875)"/>
      <use xlink:href="#DejaVuSans-20" transform="translate(544.287109 0.16875)"/>
      <use xlink:href="#DejaVuSans-20" transform="translate(576.074219 0.16875)"/>
      <use xlink:href="#DejaVuSans-31" transform="translate(637.861328 43.965625) scale(0.7)"/>
      <use xlink:href="#STIXSizeOneSym-Regular-221a" transform="translate(607.861328 -53.4125) scale(0.399712)"/>
      <use xlink:href="#DejaVuSans-32" transform="translate(658.878111 -65.6125) scale(0.7)"/>
      <path d="M 607.861328 18.965625 
L 607.861328 25.215625 
L 712.164244 25.215625 
L 712.164244 18.965625 
L 607.861328 18.965625 
z
"/>
      <path d="M 650.128111 3.965625 
L 650.128111 8.340625 
L 712.164244 8.340625 
L 712.164244 3.965625 
L 650.128111 3.965625 
z
"/>
     </g>
    </g>
    <g id="line2d_134">
     <path d="M 64.772054 139.156562 
L 74.772054 139.156562 
L 84.772054 139.156562 
" style="fill: none; stroke-dasharray: 3.7,1.6; stroke-dashoffset: 0; stroke: #0000ff; stroke-opacity: 0.5"/>
    </g>
    <g id="text_22">
     <!-- Max. flat bound ~ 0.173 -->
     <g transform="translate(92.772054 142.656562) scale(0.1 -0.1)">
      <defs>
       <path id="DejaVuSans-7e" d="M 4684 2553 
L 4684 1997 
Q 4356 1750 4076 1644 
Q 3797 1538 3494 1538 
Q 3150 1538 2694 1722 
Q 2659 1734 2644 1741 
Q 2622 1750 2575 1766 
Q 2091 1959 1797 1959 
Q 1522 1959 1253 1839 
Q 984 1719 678 1459 
L 678 2016 
Q 1006 2263 1286 2370 
Q 1566 2478 1869 2478 
Q 2213 2478 2672 2291 
Q 2703 2278 2719 2272 
Q 2744 2263 2788 2247 
Q 3272 2053 3566 2053 
Q 3834 2053 4098 2172 
Q 4363 2291 4684 2553 
z
" transform="scale(0.015625)"/>
       <path id="DejaVuSans-37" d="M 525 4666 
L 3525 4666 
L 3525 4397 
L 1831 0 
L 1172 0 
L 2766 4134 
L 525 4134 
L 525 4666 
z
" transform="scale(0.015625)"/>
      </defs>
      <use xlink:href="#DejaVuSans-4d"/>
      <use xlink:href="#DejaVuSans-61" transform="translate(86.279297 0)"/>
      <use xlink:href="#DejaVuSans-78" transform="translate(147.558594 0)"/>
      <use xlink:href="#DejaVuSans-2e" transform="translate(206.738281 0)"/>
      <use xlink:href="#DejaVuSans-20" transform="translate(238.525391 0)"/>
      <use xlink:href="#DejaVuSans-66" transform="translate(270.3125 0)"/>
      <use xlink:href="#DejaVuSans-6c" transform="translate(305.517578 0)"/>
      <use xlink:href="#DejaVuSans-61" transform="translate(333.300781 0)"/>
      <use xlink:href="#DejaVuSans-74" transform="translate(394.580078 0)"/>
      <use xlink:href="#DejaVuSans-20" transform="translate(433.789062 0)"/>
      <use xlink:href="#DejaVuSans-62" transform="translate(465.576172 0)"/>
      <use xlink:href="#DejaVuSans-6f" transform="translate(529.052734 0)"/>
      <use xlink:href="#DejaVuSans-75" transform="translate(590.234375 0)"/>
      <use xlink:href="#DejaVuSans-6e" transform="translate(653.613281 0)"/>
      <use xlink:href="#DejaVuSans-64" transform="translate(716.992188 0)"/>
      <use xlink:href="#DejaVuSans-20" transform="translate(780.46875 0)"/>
      <use xlink:href="#DejaVuSans-7e" transform="translate(812.255859 0)"/>
      <use xlink:href="#DejaVuSans-20" transform="translate(896.044922 0)"/>
      <use xlink:href="#DejaVuSans-30" transform="translate(927.832031 0)"/>
      <use xlink:href="#DejaVuSans-2e" transform="translate(991.455078 0)"/>
      <use xlink:href="#DejaVuSans-31" transform="translate(1023.242188 0)"/>
      <use xlink:href="#DejaVuSans-37" transform="translate(1086.865234 0)"/>
      <use xlink:href="#DejaVuSans-33" transform="translate(1150.488281 0)"/>
     </g>
    </g>
   </g>
  </g>
 </g>
 <defs>
  <clipPath id="p1dd26c41a9">
   <rect x="55.772054" y="26.88" width="509.427946" height="291.16"/>
  </clipPath>
 </defs>
</svg>
