<?xml version="1.0" encoding="utf-8" standalone="no"?>
<!DOCTYPE svg PUBLIC "-//W3C//DTD SVG 1.1//EN"
  "http://www.w3.org/Graphics/SVG/1.1/DTD/svg11.dtd">
<svg xmlns:xlink="http://www.w3.org/1999/xlink" width="864pt" height="288pt" viewBox="0 0 864 288" xmlns="http://www.w3.org/2000/svg" version="1.1">
 <metadata>
  <rdf:RDF xmlns:dc="http://purl.org/dc/elements/1.1/" xmlns:cc="http://creativecommons.org/ns#" xmlns:rdf="http://www.w3.org/1999/02/22-rdf-syntax-ns#">
   <cc:Work>
    <dc:type rdf:resource="http://purl.org/dc/dcmitype/StillImage"/>
    <dc:date>2026-07-06T10:30:31.177083</dc:date>
    <dc:format>image/svg+xml</dc:format>
    <dc:creator>
     <cc:Agent>
      <dc:title>Matplotlib v3.10.8, https://matplotlib.org/</dc:title>
     </cc:Agent>
    </dc:creator>
   </cc:Work>
  </rdf:RDF>
 </metadata>
 <defs>
  <style type="text/css">*{stroke-linejoin: round; stroke-linecap: butt}</style>
 </defs>
 <g id="figure_1">
  <g id="patch_1">
   <path d="M 0 288 
L 864 288 
L 864 0 
L 0 0 
z
" style="fill: #ffffff"/>
  </g>
  <g id="axes_1">
   <g id="patch_2">
    <path d="M 48.789961 249.54 
L 424.655413 249.54 
L 424.655413 48.48 
L 48.789961 48.48 
z
" style="fill: #ffffff"/>
   </g>
   <g id="matplotlib.axis_1">
    <g id="xtick_1">
     <g id="line2d_1">
      <path d="M 71.04086 249.54 
L 71.04086 48.48 
" clip-path="url(#pad69d4f7de)" style="fill: none; stroke-dasharray: 0.8,1.32; stroke-dashoffset: 0; stroke: #cccccc; stroke-opacity: 0.5; stroke-width: 0.8"/>
     </g>
     <g id="line2d_2"/>
     <g id="text_1">
      <!-- 25 -->
      <g style="fill: #262626" transform="translate(65.479923 260.197812) scale(0.1 -0.1)">
       <defs>
        <path id="ArialMT-32" d="M 3222 541 
L 3222 0 
L 194 0 
Q 188 203 259 391 
Q 375 700 629 1000 
Q 884 1300 1366 1694 
Q 2113 2306 2375 2664 
Q 2638 3022 2638 3341 
Q 2638 3675 2398 3904 
Q 2159 4134 1775 4134 
Q 1369 4134 1125 3890 
Q 881 3647 878 3216 
L 300 3275 
Q 359 3922 746 4261 
Q 1134 4600 1788 4600 
Q 2447 4600 2831 4234 
Q 3216 3869 3216 3328 
Q 3216 3053 3103 2787 
Q 2991 2522 2730 2228 
Q 2469 1934 1863 1422 
Q 1356 997 1212 845 
Q 1069 694 975 541 
L 3222 541 
z
" transform="scale(0.015625)"/>
        <path id="ArialMT-35" d="M 266 1200 
L 856 1250 
Q 922 819 1161 601 
Q 1400 384 1738 384 
Q 2144 384 2425 690 
Q 2706 997 2706 1503 
Q 2706 1984 2436 2262 
Q 2166 2541 1728 2541 
Q 1456 2541 1237 2417 
Q 1019 2294 894 2097 
L 366 2166 
L 809 4519 
L 3088 4519 
L 3088 3981 
L 1259 3981 
L 1013 2750 
Q 1425 3038 1878 3038 
Q 2478 3038 2890 2622 
Q 3303 2206 3303 1553 
Q 3303 931 2941 478 
Q 2500 -78 1738 -78 
Q 1113 -78 717 272 
Q 322 622 266 1200 
z
" transform="scale(0.015625)"/>
       </defs>
       <use xlink:href="#ArialMT-32"/>
       <use xlink:href="#ArialMT-35" transform="translate(55.615234 0)"/>
      </g>
     </g>
    </g>
    <g id="xtick_2">
     <g id="line2d_3">
      <path d="M 143.173032 249.54 
L 143.173032 48.48 
" clip-path="url(#pad69d4f7de)" style="fill: none; stroke-dasharray: 0.8,1.32; stroke-dashoffset: 0; stroke: #cccccc; stroke-opacity: 0.5; stroke-width: 0.8"/>
     </g>
     <g id="line2d_4"/>
     <g id="text_2">
      <!-- 30 -->
      <g style="fill: #262626" transform="translate(137.612094 260.197812) scale(0.1 -0.1)">
       <defs>
        <path id="ArialMT-33" d="M 269 1209 
L 831 1284 
Q 928 806 1161 595 
Q 1394 384 1728 384 
Q 2125 384 2398 659 
Q 2672 934 2672 1341 
Q 2672 1728 2419 1979 
Q 2166 2231 1775 2231 
Q 1616 2231 1378 2169 
L 1441 2663 
Q 1497 2656 1531 2656 
Q 1891 2656 2178 2843 
Q 2466 3031 2466 3422 
Q 2466 3731 2256 3934 
Q 2047 4138 1716 4138 
Q 1388 4138 1169 3931 
Q 950 3725 888 3313 
L 325 3413 
Q 428 3978 793 4289 
Q 1159 4600 1703 4600 
Q 2078 4600 2393 4439 
Q 2709 4278 2876 4000 
Q 3044 3722 3044 3409 
Q 3044 3113 2884 2869 
Q 2725 2625 2413 2481 
Q 2819 2388 3044 2092 
Q 3269 1797 3269 1353 
Q 3269 753 2831 336 
Q 2394 -81 1725 -81 
Q 1122 -81 723 278 
Q 325 638 269 1209 
z
" transform="scale(0.015625)"/>
        <path id="ArialMT-30" d="M 266 2259 
Q 266 3072 433 3567 
Q 600 4063 929 4331 
Q 1259 4600 1759 4600 
Q 2128 4600 2406 4451 
Q 2684 4303 2865 4023 
Q 3047 3744 3150 3342 
Q 3253 2941 3253 2259 
Q 3253 1453 3087 958 
Q 2922 463 2592 192 
Q 2263 -78 1759 -78 
Q 1097 -78 719 397 
Q 266 969 266 2259 
z
M 844 2259 
Q 844 1131 1108 757 
Q 1372 384 1759 384 
Q 2147 384 2411 759 
Q 2675 1134 2675 2259 
Q 2675 3391 2411 3762 
Q 2147 4134 1753 4134 
Q 1366 4134 1134 3806 
Q 844 3388 844 2259 
z
" transform="scale(0.015625)"/>
       </defs>
       <use xlink:href="#ArialMT-33"/>
       <use xlink:href="#ArialMT-30" transform="translate(55.615234 0)"/>
      </g>
     </g>
    </g>
    <g id="xtick_3">
     <g id="line2d_5">
      <path d="M 215.305203 249.54 
L 215.305203 48.48 
" clip-path="url(#pad69d4f7de)" style="fill: none; stroke-dasharray: 0.8,1.32; stroke-dashoffset: 0; stroke: #cccccc; stroke-opacity: 0.5; stroke-width: 0.8"/>
     </g>
     <g id="line2d_6"/>
     <g id="text_3">
      <!-- 35 -->
      <g style="fill: #262626" transform="translate(209.744265 260.197812) scale(0.1 -0.1)">
       <use xlink:href="#ArialMT-33"/>
       <use xlink:href="#ArialMT-35" transform="translate(55.615234 0)"/>
      </g>
     </g>
    </g>
    <g id="xtick_4">
     <g id="line2d_7">
      <path d="M 287.437374 249.54 
L 287.437374 48.48 
" clip-path="url(#pad69d4f7de)" style="fill: none; stroke-dasharray: 0.8,1.32; stroke-dashoffset: 0; stroke: #cccccc; stroke-opacity: 0.5; stroke-width: 0.8"/>
     </g>
     <g id="line2d_8"/>
     <g id="text_4">
      <!-- 40 -->
      <g style="fill: #262626" transform="translate(281.876437 260.197812) scale(0.1 -0.1)">
       <defs>
        <path id="ArialMT-34" d="M 2069 0 
L 2069 1097 
L 81 1097 
L 81 1613 
L 2172 4581 
L 2631 4581 
L 2631 1613 
L 3250 1613 
L 3250 1097 
L 2631 1097 
L 2631 0 
L 2069 0 
z
M 2069 1613 
L 2069 3678 
L 634 1613 
L 2069 1613 
z
" transform="scale(0.015625)"/>
       </defs>
       <use xlink:href="#ArialMT-34"/>
       <use xlink:href="#ArialMT-30" transform="translate(55.615234 0)"/>
      </g>
     </g>
    </g>
    <g id="xtick_5">
     <g id="line2d_9">
      <path d="M 359.569545 249.54 
L 359.569545 48.48 
" clip-path="url(#pad69d4f7de)" style="fill: none; stroke-dasharray: 0.8,1.32; stroke-dashoffset: 0; stroke: #cccccc; stroke-opacity: 0.5; stroke-width: 0.8"/>
     </g>
     <g id="line2d_10"/>
     <g id="text_5">
      <!-- 45 -->
      <g style="fill: #262626" transform="translate(354.008608 260.197812) scale(0.1 -0.1)">
       <use xlink:href="#ArialMT-34"/>
       <use xlink:href="#ArialMT-35" transform="translate(55.615234 0)"/>
      </g>
     </g>
    </g>
    <g id="text_6">
     <!-- Execution Time per Sample (ns / sample) -->
     <g style="fill: #262626" transform="translate(145.301593 273.465) scale(0.1 -0.1)">
      <defs>
       <path id="ArialMT-45" d="M 506 0 
L 506 4581 
L 3819 4581 
L 3819 4041 
L 1113 4041 
L 1113 2638 
L 3647 2638 
L 3647 2100 
L 1113 2100 
L 1113 541 
L 3925 541 
L 3925 0 
L 506 0 
z
" transform="scale(0.015625)"/>
       <path id="ArialMT-78" d="M 47 0 
L 1259 1725 
L 138 3319 
L 841 3319 
L 1350 2541 
Q 1494 2319 1581 2169 
Q 1719 2375 1834 2534 
L 2394 3319 
L 3066 3319 
L 1919 1756 
L 3153 0 
L 2463 0 
L 1781 1031 
L 1600 1309 
L 728 0 
L 47 0 
z
" transform="scale(0.015625)"/>
       <path id="ArialMT-65" d="M 2694 1069 
L 3275 997 
Q 3138 488 2766 206 
Q 2394 -75 1816 -75 
Q 1088 -75 661 373 
Q 234 822 234 1631 
Q 234 2469 665 2931 
Q 1097 3394 1784 3394 
Q 2450 3394 2872 2941 
Q 3294 2488 3294 1666 
Q 3294 1616 3291 1516 
L 816 1516 
Q 847 969 1125 678 
Q 1403 388 1819 388 
Q 2128 388 2347 550 
Q 2566 713 2694 1069 
z
M 847 1978 
L 2700 1978 
Q 2663 2397 2488 2606 
Q 2219 2931 1791 2931 
Q 1403 2931 1139 2672 
Q 875 2413 847 1978 
z
" transform="scale(0.015625)"/>
       <path id="ArialMT-63" d="M 2588 1216 
L 3141 1144 
Q 3050 572 2676 248 
Q 2303 -75 1759 -75 
Q 1078 -75 664 370 
Q 250 816 250 1647 
Q 250 2184 428 2587 
Q 606 2991 970 3192 
Q 1334 3394 1763 3394 
Q 2303 3394 2647 3120 
Q 2991 2847 3088 2344 
L 2541 2259 
Q 2463 2594 2264 2762 
Q 2066 2931 1784 2931 
Q 1359 2931 1093 2626 
Q 828 2322 828 1663 
Q 828 994 1084 691 
Q 1341 388 1753 388 
Q 2084 388 2306 591 
Q 2528 794 2588 1216 
z
" transform="scale(0.015625)"/>
       <path id="ArialMT-75" d="M 2597 0 
L 2597 488 
Q 2209 -75 1544 -75 
Q 1250 -75 995 37 
Q 741 150 617 320 
Q 494 491 444 738 
Q 409 903 409 1263 
L 409 3319 
L 972 3319 
L 972 1478 
Q 972 1038 1006 884 
Q 1059 663 1231 536 
Q 1403 409 1656 409 
Q 1909 409 2131 539 
Q 2353 669 2445 892 
Q 2538 1116 2538 1541 
L 2538 3319 
L 3100 3319 
L 3100 0 
L 2597 0 
z
" transform="scale(0.015625)"/>
       <path id="ArialMT-74" d="M 1650 503 
L 1731 6 
Q 1494 -44 1306 -44 
Q 1000 -44 831 53 
Q 663 150 594 308 
Q 525 466 525 972 
L 525 2881 
L 113 2881 
L 113 3319 
L 525 3319 
L 525 4141 
L 1084 4478 
L 1084 3319 
L 1650 3319 
L 1650 2881 
L 1084 2881 
L 1084 941 
Q 1084 700 1114 631 
Q 1144 563 1211 522 
Q 1278 481 1403 481 
Q 1497 481 1650 503 
z
" transform="scale(0.015625)"/>
       <path id="ArialMT-69" d="M 425 3934 
L 425 4581 
L 988 4581 
L 988 3934 
L 425 3934 
z
M 425 0 
L 425 3319 
L 988 3319 
L 988 0 
L 425 0 
z
" transform="scale(0.015625)"/>
       <path id="ArialMT-6f" d="M 213 1659 
Q 213 2581 725 3025 
Q 1153 3394 1769 3394 
Q 2453 3394 2887 2945 
Q 3322 2497 3322 1706 
Q 3322 1066 3130 698 
Q 2938 331 2570 128 
Q 2203 -75 1769 -75 
Q 1072 -75 642 372 
Q 213 819 213 1659 
z
M 791 1659 
Q 791 1022 1069 705 
Q 1347 388 1769 388 
Q 2188 388 2466 706 
Q 2744 1025 2744 1678 
Q 2744 2294 2464 2611 
Q 2184 2928 1769 2928 
Q 1347 2928 1069 2612 
Q 791 2297 791 1659 
z
" transform="scale(0.015625)"/>
       <path id="ArialMT-6e" d="M 422 0 
L 422 3319 
L 928 3319 
L 928 2847 
Q 1294 3394 1984 3394 
Q 2284 3394 2536 3286 
Q 2788 3178 2913 3003 
Q 3038 2828 3088 2588 
Q 3119 2431 3119 2041 
L 3119 0 
L 2556 0 
L 2556 2019 
Q 2556 2363 2490 2533 
Q 2425 2703 2258 2804 
Q 2091 2906 1866 2906 
Q 1506 2906 1245 2678 
Q 984 2450 984 1813 
L 984 0 
L 422 0 
z
" transform="scale(0.015625)"/>
       <path id="ArialMT-20" transform="scale(0.015625)"/>
       <path id="ArialMT-54" d="M 1659 0 
L 1659 4041 
L 150 4041 
L 150 4581 
L 3781 4581 
L 3781 4041 
L 2266 4041 
L 2266 0 
L 1659 0 
z
" transform="scale(0.015625)"/>
       <path id="ArialMT-6d" d="M 422 0 
L 422 3319 
L 925 3319 
L 925 2853 
Q 1081 3097 1340 3245 
Q 1600 3394 1931 3394 
Q 2300 3394 2536 3241 
Q 2772 3088 2869 2813 
Q 3263 3394 3894 3394 
Q 4388 3394 4653 3120 
Q 4919 2847 4919 2278 
L 4919 0 
L 4359 0 
L 4359 2091 
Q 4359 2428 4304 2576 
Q 4250 2725 4106 2815 
Q 3963 2906 3769 2906 
Q 3419 2906 3187 2673 
Q 2956 2441 2956 1928 
L 2956 0 
L 2394 0 
L 2394 2156 
Q 2394 2531 2256 2718 
Q 2119 2906 1806 2906 
Q 1569 2906 1367 2781 
Q 1166 2656 1075 2415 
Q 984 2175 984 1722 
L 984 0 
L 422 0 
z
" transform="scale(0.015625)"/>
       <path id="ArialMT-70" d="M 422 -1272 
L 422 3319 
L 934 3319 
L 934 2888 
Q 1116 3141 1344 3267 
Q 1572 3394 1897 3394 
Q 2322 3394 2647 3175 
Q 2972 2956 3137 2557 
Q 3303 2159 3303 1684 
Q 3303 1175 3120 767 
Q 2938 359 2589 142 
Q 2241 -75 1856 -75 
Q 1575 -75 1351 44 
Q 1128 163 984 344 
L 984 -1272 
L 422 -1272 
z
M 931 1641 
Q 931 1000 1190 694 
Q 1450 388 1819 388 
Q 2194 388 2461 705 
Q 2728 1022 2728 1688 
Q 2728 2322 2467 2637 
Q 2206 2953 1844 2953 
Q 1484 2953 1207 2617 
Q 931 2281 931 1641 
z
" transform="scale(0.015625)"/>
       <path id="ArialMT-72" d="M 416 0 
L 416 3319 
L 922 3319 
L 922 2816 
Q 1116 3169 1280 3281 
Q 1444 3394 1641 3394 
Q 1925 3394 2219 3213 
L 2025 2691 
Q 1819 2813 1613 2813 
Q 1428 2813 1281 2702 
Q 1134 2591 1072 2394 
Q 978 2094 978 1738 
L 978 0 
L 416 0 
z
" transform="scale(0.015625)"/>
       <path id="ArialMT-53" d="M 288 1472 
L 859 1522 
Q 900 1178 1048 958 
Q 1197 738 1509 602 
Q 1822 466 2213 466 
Q 2559 466 2825 569 
Q 3091 672 3220 851 
Q 3350 1031 3350 1244 
Q 3350 1459 3225 1620 
Q 3100 1781 2813 1891 
Q 2628 1963 1997 2114 
Q 1366 2266 1113 2400 
Q 784 2572 623 2826 
Q 463 3081 463 3397 
Q 463 3744 659 4045 
Q 856 4347 1234 4503 
Q 1613 4659 2075 4659 
Q 2584 4659 2973 4495 
Q 3363 4331 3572 4012 
Q 3781 3694 3797 3291 
L 3216 3247 
Q 3169 3681 2898 3903 
Q 2628 4125 2100 4125 
Q 1550 4125 1298 3923 
Q 1047 3722 1047 3438 
Q 1047 3191 1225 3031 
Q 1400 2872 2139 2705 
Q 2878 2538 3153 2413 
Q 3553 2228 3743 1945 
Q 3934 1663 3934 1294 
Q 3934 928 3725 604 
Q 3516 281 3123 101 
Q 2731 -78 2241 -78 
Q 1619 -78 1198 103 
Q 778 284 539 648 
Q 300 1013 288 1472 
z
" transform="scale(0.015625)"/>
       <path id="ArialMT-61" d="M 2588 409 
Q 2275 144 1986 34 
Q 1697 -75 1366 -75 
Q 819 -75 525 192 
Q 231 459 231 875 
Q 231 1119 342 1320 
Q 453 1522 633 1644 
Q 813 1766 1038 1828 
Q 1203 1872 1538 1913 
Q 2219 1994 2541 2106 
Q 2544 2222 2544 2253 
Q 2544 2597 2384 2738 
Q 2169 2928 1744 2928 
Q 1347 2928 1158 2789 
Q 969 2650 878 2297 
L 328 2372 
Q 403 2725 575 2942 
Q 747 3159 1072 3276 
Q 1397 3394 1825 3394 
Q 2250 3394 2515 3294 
Q 2781 3194 2906 3042 
Q 3031 2891 3081 2659 
Q 3109 2516 3109 2141 
L 3109 1391 
Q 3109 606 3145 398 
Q 3181 191 3288 0 
L 2700 0 
Q 2613 175 2588 409 
z
M 2541 1666 
Q 2234 1541 1622 1453 
Q 1275 1403 1131 1340 
Q 988 1278 909 1158 
Q 831 1038 831 891 
Q 831 666 1001 516 
Q 1172 366 1500 366 
Q 1825 366 2078 508 
Q 2331 650 2450 897 
Q 2541 1088 2541 1459 
L 2541 1666 
z
" transform="scale(0.015625)"/>
       <path id="ArialMT-6c" d="M 409 0 
L 409 4581 
L 972 4581 
L 972 0 
L 409 0 
z
" transform="scale(0.015625)"/>
       <path id="ArialMT-28" d="M 1497 -1347 
Q 1031 -759 709 28 
Q 388 816 388 1659 
Q 388 2403 628 3084 
Q 909 3875 1497 4659 
L 1900 4659 
Q 1522 4009 1400 3731 
Q 1209 3300 1100 2831 
Q 966 2247 966 1656 
Q 966 153 1900 -1347 
L 1497 -1347 
z
" transform="scale(0.015625)"/>
       <path id="ArialMT-73" d="M 197 991 
L 753 1078 
Q 800 744 1014 566 
Q 1228 388 1613 388 
Q 2000 388 2187 545 
Q 2375 703 2375 916 
Q 2375 1106 2209 1216 
Q 2094 1291 1634 1406 
Q 1016 1563 777 1677 
Q 538 1791 414 1992 
Q 291 2194 291 2438 
Q 291 2659 392 2848 
Q 494 3038 669 3163 
Q 800 3259 1026 3326 
Q 1253 3394 1513 3394 
Q 1903 3394 2198 3281 
Q 2494 3169 2634 2976 
Q 2775 2784 2828 2463 
L 2278 2388 
Q 2241 2644 2061 2787 
Q 1881 2931 1553 2931 
Q 1166 2931 1000 2803 
Q 834 2675 834 2503 
Q 834 2394 903 2306 
Q 972 2216 1119 2156 
Q 1203 2125 1616 2013 
Q 2213 1853 2448 1751 
Q 2684 1650 2818 1456 
Q 2953 1263 2953 975 
Q 2953 694 2789 445 
Q 2625 197 2315 61 
Q 2006 -75 1616 -75 
Q 969 -75 630 194 
Q 291 463 197 991 
z
" transform="scale(0.015625)"/>
       <path id="ArialMT-2f" d="M 0 -78 
L 1328 4659 
L 1778 4659 
L 453 -78 
L 0 -78 
z
" transform="scale(0.015625)"/>
       <path id="ArialMT-29" d="M 791 -1347 
L 388 -1347 
Q 1322 153 1322 1656 
Q 1322 2244 1188 2822 
Q 1081 3291 891 3722 
Q 769 4003 388 4659 
L 791 4659 
Q 1378 3875 1659 3084 
Q 1900 2403 1900 1659 
Q 1900 816 1576 28 
Q 1253 -759 791 -1347 
z
" transform="scale(0.015625)"/>
      </defs>
      <use xlink:href="#ArialMT-45"/>
      <use xlink:href="#ArialMT-78" transform="translate(66.699219 0)"/>
      <use xlink:href="#ArialMT-65" transform="translate(116.699219 0)"/>
      <use xlink:href="#ArialMT-63" transform="translate(172.314453 0)"/>
      <use xlink:href="#ArialMT-75" transform="translate(222.314453 0)"/>
      <use xlink:href="#ArialMT-74" transform="translate(277.929688 0)"/>
      <use xlink:href="#ArialMT-69" transform="translate(305.712891 0)"/>
      <use xlink:href="#ArialMT-6f" transform="translate(327.929688 0)"/>
      <use xlink:href="#ArialMT-6e" transform="translate(383.544922 0)"/>
      <use xlink:href="#ArialMT-20" transform="translate(439.160156 0)"/>
      <use xlink:href="#ArialMT-54" transform="translate(465.193359 0)"/>
      <use xlink:href="#ArialMT-69" transform="translate(522.527344 0)"/>
      <use xlink:href="#ArialMT-6d" transform="translate(544.744141 0)"/>
      <use xlink:href="#ArialMT-65" transform="translate(628.044922 0)"/>
      <use xlink:href="#ArialMT-20" transform="translate(683.660156 0)"/>
      <use xlink:href="#ArialMT-70" transform="translate(711.443359 0)"/>
      <use xlink:href="#ArialMT-65" transform="translate(767.058594 0)"/>
      <use xlink:href="#ArialMT-72" transform="translate(822.673828 0)"/>
      <use xlink:href="#ArialMT-20" transform="translate(855.974609 0)"/>
      <use xlink:href="#ArialMT-53" transform="translate(883.757812 0)"/>
      <use xlink:href="#ArialMT-61" transform="translate(950.457031 0)"/>
      <use xlink:href="#ArialMT-6d" transform="translate(1006.072266 0)"/>
      <use xlink:href="#ArialMT-70" transform="translate(1089.373047 0)"/>
      <use xlink:href="#ArialMT-6c" transform="translate(1144.988281 0)"/>
      <use xlink:href="#ArialMT-65" transform="translate(1167.205078 0)"/>
      <use xlink:href="#ArialMT-20" transform="translate(1222.820312 0)"/>
      <use xlink:href="#ArialMT-28" transform="translate(1250.603516 0)"/>
      <use xlink:href="#ArialMT-6e" transform="translate(1283.904297 0)"/>
      <use xlink:href="#ArialMT-73" transform="translate(1339.519531 0)"/>
      <use xlink:href="#ArialMT-20" transform="translate(1389.519531 0)"/>
      <use xlink:href="#ArialMT-2f" transform="translate(1417.302734 0)"/>
      <use xlink:href="#ArialMT-20" transform="translate(1445.085938 0)"/>
      <use xlink:href="#ArialMT-73" transform="translate(1472.869141 0)"/>
      <use xlink:href="#ArialMT-61" transform="translate(1522.869141 0)"/>
      <use xlink:href="#ArialMT-6d" transform="translate(1578.484375 0)"/>
      <use xlink:href="#ArialMT-70" transform="translate(1661.785156 0)"/>
      <use xlink:href="#ArialMT-6c" transform="translate(1717.400391 0)"/>
      <use xlink:href="#ArialMT-65" transform="translate(1739.617188 0)"/>
      <use xlink:href="#ArialMT-29" transform="translate(1795.232422 0)"/>
     </g>
    </g>
   </g>
   <g id="matplotlib.axis_2">
    <g id="ytick_1">
     <g id="line2d_11">
      <path d="M 48.789961 184.736278 
L 424.655413 184.736278 
" clip-path="url(#pad69d4f7de)" style="fill: none; stroke-dasharray: 0.8,1.32; stroke-dashoffset: 0; stroke: #cccccc; stroke-opacity: 0.5; stroke-width: 0.8"/>
     </g>
     <g id="line2d_12"/>
     <g id="text_7">
      <!-- $\mathdefault{10^{-6}}$ -->
      <g style="fill: #262626" transform="translate(25.489961 189.892528) scale(0.1 -0.1)">
       <defs>
        <path id="ArialMT-31" d="M 2384 0 
L 1822 0 
L 1822 3584 
Q 1619 3391 1289 3197 
Q 959 3003 697 2906 
L 697 3450 
Q 1169 3672 1522 3987 
Q 1875 4303 2022 4600 
L 2384 4600 
L 2384 0 
z
" transform="scale(0.015625)"/>
        <path id="ArialMT-2212" d="M 3381 1997 
L 356 1997 
L 356 2522 
L 3381 2522 
L 3381 1997 
z
" transform="scale(0.015625)"/>
        <path id="ArialMT-36" d="M 3184 3459 
L 2625 3416 
Q 2550 3747 2413 3897 
Q 2184 4138 1850 4138 
Q 1581 4138 1378 3988 
Q 1113 3794 959 3422 
Q 806 3050 800 2363 
Q 1003 2672 1297 2822 
Q 1591 2972 1913 2972 
Q 2475 2972 2870 2558 
Q 3266 2144 3266 1488 
Q 3266 1056 3080 686 
Q 2894 316 2569 119 
Q 2244 -78 1831 -78 
Q 1128 -78 684 439 
Q 241 956 241 2144 
Q 241 3472 731 4075 
Q 1159 4600 1884 4600 
Q 2425 4600 2770 4297 
Q 3116 3994 3184 3459 
z
M 888 1484 
Q 888 1194 1011 928 
Q 1134 663 1356 523 
Q 1578 384 1822 384 
Q 2178 384 2434 671 
Q 2691 959 2691 1453 
Q 2691 1928 2437 2201 
Q 2184 2475 1800 2475 
Q 1419 2475 1153 2201 
Q 888 1928 888 1484 
z
" transform="scale(0.015625)"/>
       </defs>
       <use xlink:href="#ArialMT-31" transform="translate(0 0.99375)"/>
       <use xlink:href="#ArialMT-30" transform="translate(55.615234 0.99375)"/>
       <use xlink:href="#ArialMT-2212" transform="translate(112.972813 70.6875) scale(0.7)"/>
       <use xlink:href="#ArialMT-36" transform="translate(153.851719 70.6875) scale(0.7)"/>
      </g>
     </g>
    </g>
    <g id="ytick_2">
     <g id="line2d_13">
      <path d="M 48.789961 81.284801 
L 424.655413 81.284801 
" clip-path="url(#pad69d4f7de)" style="fill: none; stroke-dasharray: 0.8,1.32; stroke-dashoffset: 0; stroke: #cccccc; stroke-opacity: 0.5; stroke-width: 0.8"/>
     </g>
     <g id="line2d_14"/>
     <g id="text_8">
      <!-- $\mathdefault{10^{-5}}$ -->
      <g style="fill: #262626" transform="translate(25.489961 86.391051) scale(0.1 -0.1)">
       <use xlink:href="#ArialMT-31" transform="translate(0 0.879688)"/>
       <use xlink:href="#ArialMT-30" transform="translate(55.615234 0.879688)"/>
       <use xlink:href="#ArialMT-2212" transform="translate(112.972813 70.573438) scale(0.7)"/>
       <use xlink:href="#ArialMT-35" transform="translate(153.851719 70.573438) scale(0.7)"/>
      </g>
     </g>
    </g>
    <g id="ytick_3">
     <g id="line2d_15">
      <path d="M 48.789961 238.828856 
L 424.655413 238.828856 
" clip-path="url(#pad69d4f7de)" style="fill: none; stroke-dasharray: 0.8,1.32; stroke-dashoffset: 0; stroke: #cccccc; stroke-opacity: 0.5; stroke-width: 0.8"/>
     </g>
     <g id="line2d_16"/>
    </g>
    <g id="ytick_4">
     <g id="line2d_17">
      <path d="M 48.789961 225.903759 
L 424.655413 225.903759 
" clip-path="url(#pad69d4f7de)" style="fill: none; stroke-dasharray: 0.8,1.32; stroke-dashoffset: 0; stroke: #cccccc; stroke-opacity: 0.5; stroke-width: 0.8"/>
     </g>
     <g id="line2d_18"/>
    </g>
    <g id="ytick_5">
     <g id="line2d_19">
      <path d="M 48.789961 215.878275 
L 424.655413 215.878275 
" clip-path="url(#pad69d4f7de)" style="fill: none; stroke-dasharray: 0.8,1.32; stroke-dashoffset: 0; stroke: #cccccc; stroke-opacity: 0.5; stroke-width: 0.8"/>
     </g>
     <g id="line2d_20"/>
    </g>
    <g id="ytick_6">
     <g id="line2d_21">
      <path d="M 48.789961 207.686858 
L 424.655413 207.686858 
" clip-path="url(#pad69d4f7de)" style="fill: none; stroke-dasharray: 0.8,1.32; stroke-dashoffset: 0; stroke: #cccccc; stroke-opacity: 0.5; stroke-width: 0.8"/>
     </g>
     <g id="line2d_22"/>
    </g>
    <g id="ytick_7">
     <g id="line2d_23">
      <path d="M 48.789961 200.761114 
L 424.655413 200.761114 
" clip-path="url(#pad69d4f7de)" style="fill: none; stroke-dasharray: 0.8,1.32; stroke-dashoffset: 0; stroke: #cccccc; stroke-opacity: 0.5; stroke-width: 0.8"/>
     </g>
     <g id="line2d_24"/>
    </g>
    <g id="ytick_8">
     <g id="line2d_25">
      <path d="M 48.789961 194.761762 
L 424.655413 194.761762 
" clip-path="url(#pad69d4f7de)" style="fill: none; stroke-dasharray: 0.8,1.32; stroke-dashoffset: 0; stroke: #cccccc; stroke-opacity: 0.5; stroke-width: 0.8"/>
     </g>
     <g id="line2d_26"/>
    </g>
    <g id="ytick_9">
     <g id="line2d_27">
      <path d="M 48.789961 189.469958 
L 424.655413 189.469958 
" clip-path="url(#pad69d4f7de)" style="fill: none; stroke-dasharray: 0.8,1.32; stroke-dashoffset: 0; stroke: #cccccc; stroke-opacity: 0.5; stroke-width: 0.8"/>
     </g>
     <g id="line2d_28"/>
    </g>
    <g id="ytick_10">
     <g id="line2d_29">
      <path d="M 48.789961 153.59428 
L 424.655413 153.59428 
" clip-path="url(#pad69d4f7de)" style="fill: none; stroke-dasharray: 0.8,1.32; stroke-dashoffset: 0; stroke: #cccccc; stroke-opacity: 0.5; stroke-width: 0.8"/>
     </g>
     <g id="line2d_30"/>
    </g>
    <g id="ytick_11">
     <g id="line2d_31">
      <path d="M 48.789961 135.37738 
L 424.655413 135.37738 
" clip-path="url(#pad69d4f7de)" style="fill: none; stroke-dasharray: 0.8,1.32; stroke-dashoffset: 0; stroke: #cccccc; stroke-opacity: 0.5; stroke-width: 0.8"/>
     </g>
     <g id="line2d_32"/>
    </g>
    <g id="ytick_12">
     <g id="line2d_33">
      <path d="M 48.789961 122.452283 
L 424.655413 122.452283 
" clip-path="url(#pad69d4f7de)" style="fill: none; stroke-dasharray: 0.8,1.32; stroke-dashoffset: 0; stroke: #cccccc; stroke-opacity: 0.5; stroke-width: 0.8"/>
     </g>
     <g id="line2d_34"/>
    </g>
    <g id="ytick_13">
     <g id="line2d_35">
      <path d="M 48.789961 112.426799 
L 424.655413 112.426799 
" clip-path="url(#pad69d4f7de)" style="fill: none; stroke-dasharray: 0.8,1.32; stroke-dashoffset: 0; stroke: #cccccc; stroke-opacity: 0.5; stroke-width: 0.8"/>
     </g>
     <g id="line2d_36"/>
    </g>
    <g id="ytick_14">
     <g id="line2d_37">
      <path d="M 48.789961 104.235382 
L 424.655413 104.235382 
" clip-path="url(#pad69d4f7de)" style="fill: none; stroke-dasharray: 0.8,1.32; stroke-dashoffset: 0; stroke: #cccccc; stroke-opacity: 0.5; stroke-width: 0.8"/>
     </g>
     <g id="line2d_38"/>
    </g>
    <g id="ytick_15">
     <g id="line2d_39">
      <path d="M 48.789961 97.309638 
L 424.655413 97.309638 
" clip-path="url(#pad69d4f7de)" style="fill: none; stroke-dasharray: 0.8,1.32; stroke-dashoffset: 0; stroke: #cccccc; stroke-opacity: 0.5; stroke-width: 0.8"/>
     </g>
     <g id="line2d_40"/>
    </g>
    <g id="ytick_16">
     <g id="line2d_41">
      <path d="M 48.789961 91.310285 
L 424.655413 91.310285 
" clip-path="url(#pad69d4f7de)" style="fill: none; stroke-dasharray: 0.8,1.32; stroke-dashoffset: 0; stroke: #cccccc; stroke-opacity: 0.5; stroke-width: 0.8"/>
     </g>
     <g id="line2d_42"/>
    </g>
    <g id="ytick_17">
     <g id="line2d_43">
      <path d="M 48.789961 86.018481 
L 424.655413 86.018481 
" clip-path="url(#pad69d4f7de)" style="fill: none; stroke-dasharray: 0.8,1.32; stroke-dashoffset: 0; stroke: #cccccc; stroke-opacity: 0.5; stroke-width: 0.8"/>
     </g>
     <g id="line2d_44"/>
    </g>
    <g id="ytick_18">
     <g id="line2d_45">
      <path d="M 48.789961 50.142804 
L 424.655413 50.142804 
" clip-path="url(#pad69d4f7de)" style="fill: none; stroke-dasharray: 0.8,1.32; stroke-dashoffset: 0; stroke: #cccccc; stroke-opacity: 0.5; stroke-width: 0.8"/>
     </g>
     <g id="line2d_46"/>
    </g>
    <g id="text_9">
     <!-- Max Absolute Error -->
     <g style="fill: #262626" transform="translate(19.502461 191.525625) rotate(-90) scale(0.1 -0.1)">
      <defs>
       <path id="ArialMT-4d" d="M 475 0 
L 475 4581 
L 1388 4581 
L 2472 1338 
Q 2622 884 2691 659 
Q 2769 909 2934 1394 
L 4031 4581 
L 4847 4581 
L 4847 0 
L 4263 0 
L 4263 3834 
L 2931 0 
L 2384 0 
L 1059 3900 
L 1059 0 
L 475 0 
z
" transform="scale(0.015625)"/>
       <path id="ArialMT-41" d="M -9 0 
L 1750 4581 
L 2403 4581 
L 4278 0 
L 3588 0 
L 3053 1388 
L 1138 1388 
L 634 0 
L -9 0 
z
M 1313 1881 
L 2866 1881 
L 2388 3150 
Q 2169 3728 2063 4100 
Q 1975 3659 1816 3225 
L 1313 1881 
z
" transform="scale(0.015625)"/>
       <path id="ArialMT-62" d="M 941 0 
L 419 0 
L 419 4581 
L 981 4581 
L 981 2947 
Q 1338 3394 1891 3394 
Q 2197 3394 2470 3270 
Q 2744 3147 2920 2923 
Q 3097 2700 3197 2384 
Q 3297 2069 3297 1709 
Q 3297 856 2875 390 
Q 2453 -75 1863 -75 
Q 1275 -75 941 416 
L 941 0 
z
M 934 1684 
Q 934 1088 1097 822 
Q 1363 388 1816 388 
Q 2184 388 2453 708 
Q 2722 1028 2722 1663 
Q 2722 2313 2464 2622 
Q 2206 2931 1841 2931 
Q 1472 2931 1203 2611 
Q 934 2291 934 1684 
z
" transform="scale(0.015625)"/>
      </defs>
      <use xlink:href="#ArialMT-4d"/>
      <use xlink:href="#ArialMT-61" transform="translate(83.300781 0)"/>
      <use xlink:href="#ArialMT-78" transform="translate(138.916016 0)"/>
      <use xlink:href="#ArialMT-20" transform="translate(188.916016 0)"/>
      <use xlink:href="#ArialMT-41" transform="translate(211.199219 0)"/>
      <use xlink:href="#ArialMT-62" transform="translate(277.898438 0)"/>
      <use xlink:href="#ArialMT-73" transform="translate(333.513672 0)"/>
      <use xlink:href="#ArialMT-6f" transform="translate(383.513672 0)"/>
      <use xlink:href="#ArialMT-6c" transform="translate(439.128906 0)"/>
      <use xlink:href="#ArialMT-75" transform="translate(461.345703 0)"/>
      <use xlink:href="#ArialMT-74" transform="translate(516.960938 0)"/>
      <use xlink:href="#ArialMT-65" transform="translate(544.744141 0)"/>
      <use xlink:href="#ArialMT-20" transform="translate(600.359375 0)"/>
      <use xlink:href="#ArialMT-45" transform="translate(628.142578 0)"/>
      <use xlink:href="#ArialMT-72" transform="translate(694.841797 0)"/>
      <use xlink:href="#ArialMT-72" transform="translate(728.142578 0)"/>
      <use xlink:href="#ArialMT-6f" transform="translate(761.443359 0)"/>
      <use xlink:href="#ArialMT-72" transform="translate(817.058594 0)"/>
     </g>
    </g>
   </g>
   <g id="line2d_47">
    <path d="M 48.789961 280.293362 
L 424.655413 280.293362 
" clip-path="url(#pad69d4f7de)" style="fill: none; stroke-dasharray: 1.5,2.475; stroke-dashoffset: 0; stroke: #008000; stroke-opacity: 0.5; stroke-width: 1.5"/>
   </g>
   <g id="patch_3">
    <path d="M 48.789961 249.54 
L 48.789961 48.48 
" style="fill: none; stroke: #cccccc; stroke-linejoin: miter; stroke-linecap: square"/>
   </g>
   <g id="patch_4">
    <path d="M 424.655413 249.54 
L 424.655413 48.48 
" style="fill: none; stroke: #cccccc; stroke-linejoin: miter; stroke-linecap: square"/>
   </g>
   <g id="patch_5">
    <path d="M 48.789961 249.54 
L 424.655413 249.54 
" style="fill: none; stroke: #cccccc; stroke-linejoin: miter; stroke-linecap: square"/>
   </g>
   <g id="patch_6">
    <path d="M 48.789961 48.48 
L 424.655413 48.48 
" style="fill: none; stroke: #cccccc; stroke-linejoin: miter; stroke-linecap: square"/>
   </g>
   <g id="PathCollection_1">
    <path d="M 199.975674 58.23936 
C 201.428251 58.23936 202.82153 57.662245 203.848657 56.635118 
C 204.875784 55.607991 205.452899 54.214712 205.452899 52.762134 
C 205.452899 51.309557 204.875784 49.916278 203.848657 48.889151 
C 202.82153 47.862024 201.428251 47.284909 199.975674 47.284909 
C 198.523097 47.284909 197.129818 47.862024 196.10269 48.889151 
C 195.075563 49.916278 194.498448 51.309557 194.498448 52.762134 
C 194.498448 54.214712 195.075563 55.607991 196.10269 56.635118 
C 197.129818 57.662245 198.523097 58.23936 199.975674 58.23936 
L 199.975674 58.23936 
z
" clip-path="url(#pad69d4f7de)" style="fill: none; stroke: #1f77b4"/>
   </g>
   <g id="PathCollection_2">
    <path d="M 60.397529 215.223916 
L 71.35198 215.223916 
L 71.35198 204.269465 
L 60.397529 204.269465 
L 60.397529 215.223916 
z
" clip-path="url(#pad69d4f7de)" style="fill: none; stroke: #aec7e8"/>
   </g>
   <g id="PathCollection_3">
    <path d="M 407.57062 245.84231 
L 415.316587 238.096343 
L 407.57062 230.350376 
L 399.824653 238.096343 
L 407.57062 245.84231 
z
" clip-path="url(#pad69d4f7de)" style="fill: none; stroke: #ff7f0e"/>
   </g>
   <g id="PathCollection_4">
    <path d="M 262.3801 239.329094 
L 256.902875 250.283546 
L 267.857326 250.283546 
L 262.3801 239.329094 
z
" clip-path="url(#pad69d4f7de)" style="fill: none; stroke: #ffbb78"/>
   </g>
   <g id="PathCollection_5">
    <path d="M 274.984476 249.650729 
L 280.461702 238.696277 
L 269.50725 238.696277 
L 274.984476 249.650729 
z
" clip-path="url(#pad69d4f7de)" style="fill: none; stroke: #2ca02c"/>
   </g>
   <g id="text_10">
    <!-- f32 Single Precision Implementation -->
    <g style="fill: #262626" transform="translate(142.288547 42.48) scale(0.11 -0.11)">
     <defs>
      <path id="Arial-BoldMT-66" d="M 75 3319 
L 563 3319 
L 563 3569 
Q 563 3988 652 4194 
Q 741 4400 980 4529 
Q 1219 4659 1584 4659 
Q 1959 4659 2319 4547 
L 2200 3934 
Q 1991 3984 1797 3984 
Q 1606 3984 1523 3895 
Q 1441 3806 1441 3553 
L 1441 3319 
L 2097 3319 
L 2097 2628 
L 1441 2628 
L 1441 0 
L 563 0 
L 563 2628 
L 75 2628 
L 75 3319 
z
" transform="scale(0.015625)"/>
      <path id="Arial-BoldMT-33" d="M 241 1216 
L 1091 1319 
Q 1131 994 1309 822 
Q 1488 650 1741 650 
Q 2013 650 2198 856 
Q 2384 1063 2384 1413 
Q 2384 1744 2206 1937 
Q 2028 2131 1772 2131 
Q 1603 2131 1369 2066 
L 1466 2781 
Q 1822 2772 2009 2936 
Q 2197 3100 2197 3372 
Q 2197 3603 2059 3740 
Q 1922 3878 1694 3878 
Q 1469 3878 1309 3722 
Q 1150 3566 1116 3266 
L 306 3403 
Q 391 3819 561 4067 
Q 731 4316 1036 4458 
Q 1341 4600 1719 4600 
Q 2366 4600 2756 4188 
Q 3078 3850 3078 3425 
Q 3078 2822 2419 2463 
Q 2813 2378 3048 2084 
Q 3284 1791 3284 1375 
Q 3284 772 2843 347 
Q 2403 -78 1747 -78 
Q 1125 -78 715 280 
Q 306 638 241 1216 
z
" transform="scale(0.015625)"/>
      <path id="Arial-BoldMT-32" d="M 3238 816 
L 3238 0 
L 159 0 
Q 209 463 459 877 
Q 709 1291 1447 1975 
Q 2041 2528 2175 2725 
Q 2356 2997 2356 3263 
Q 2356 3556 2198 3714 
Q 2041 3872 1763 3872 
Q 1488 3872 1325 3706 
Q 1163 3541 1138 3156 
L 263 3244 
Q 341 3969 753 4284 
Q 1166 4600 1784 4600 
Q 2463 4600 2850 4234 
Q 3238 3869 3238 3325 
Q 3238 3016 3127 2736 
Q 3016 2456 2775 2150 
Q 2616 1947 2200 1565 
Q 1784 1184 1673 1059 
Q 1563 934 1494 816 
L 3238 816 
z
" transform="scale(0.015625)"/>
      <path id="Arial-BoldMT-20" transform="scale(0.015625)"/>
      <path id="Arial-BoldMT-53" d="M 231 1491 
L 1131 1578 
Q 1213 1125 1461 912 
Q 1709 700 2131 700 
Q 2578 700 2804 889 
Q 3031 1078 3031 1331 
Q 3031 1494 2936 1608 
Q 2841 1722 2603 1806 
Q 2441 1863 1863 2006 
Q 1119 2191 819 2459 
Q 397 2838 397 3381 
Q 397 3731 595 4036 
Q 794 4341 1167 4500 
Q 1541 4659 2069 4659 
Q 2931 4659 3367 4281 
Q 3803 3903 3825 3272 
L 2900 3231 
Q 2841 3584 2645 3739 
Q 2450 3894 2059 3894 
Q 1656 3894 1428 3728 
Q 1281 3622 1281 3444 
Q 1281 3281 1419 3166 
Q 1594 3019 2269 2859 
Q 2944 2700 3267 2529 
Q 3591 2359 3773 2064 
Q 3956 1769 3956 1334 
Q 3956 941 3737 597 
Q 3519 253 3119 86 
Q 2719 -81 2122 -81 
Q 1253 -81 787 320 
Q 322 722 231 1491 
z
" transform="scale(0.015625)"/>
      <path id="Arial-BoldMT-69" d="M 459 3769 
L 459 4581 
L 1338 4581 
L 1338 3769 
L 459 3769 
z
M 459 0 
L 459 3319 
L 1338 3319 
L 1338 0 
L 459 0 
z
" transform="scale(0.015625)"/>
      <path id="Arial-BoldMT-6e" d="M 3478 0 
L 2600 0 
L 2600 1694 
Q 2600 2231 2544 2389 
Q 2488 2547 2361 2634 
Q 2234 2722 2056 2722 
Q 1828 2722 1647 2597 
Q 1466 2472 1398 2265 
Q 1331 2059 1331 1503 
L 1331 0 
L 453 0 
L 453 3319 
L 1269 3319 
L 1269 2831 
Q 1703 3394 2363 3394 
Q 2653 3394 2893 3289 
Q 3134 3184 3257 3021 
Q 3381 2859 3429 2653 
Q 3478 2447 3478 2063 
L 3478 0 
z
" transform="scale(0.015625)"/>
      <path id="Arial-BoldMT-67" d="M 378 -219 
L 1381 -341 
Q 1406 -516 1497 -581 
Q 1622 -675 1891 -675 
Q 2234 -675 2406 -572 
Q 2522 -503 2581 -350 
Q 2622 -241 2622 53 
L 2622 538 
Q 2228 0 1628 0 
Q 959 0 569 566 
Q 263 1013 263 1678 
Q 263 2513 664 2953 
Q 1066 3394 1663 3394 
Q 2278 3394 2678 2853 
L 2678 3319 
L 3500 3319 
L 3500 341 
Q 3500 -247 3403 -537 
Q 3306 -828 3131 -993 
Q 2956 -1159 2664 -1253 
Q 2372 -1347 1925 -1347 
Q 1081 -1347 728 -1058 
Q 375 -769 375 -325 
Q 375 -281 378 -219 
z
M 1163 1728 
Q 1163 1200 1367 954 
Q 1572 709 1872 709 
Q 2194 709 2416 961 
Q 2638 1213 2638 1706 
Q 2638 2222 2425 2472 
Q 2213 2722 1888 2722 
Q 1572 2722 1367 2476 
Q 1163 2231 1163 1728 
z
" transform="scale(0.015625)"/>
      <path id="Arial-BoldMT-6c" d="M 459 0 
L 459 4581 
L 1338 4581 
L 1338 0 
L 459 0 
z
" transform="scale(0.015625)"/>
      <path id="Arial-BoldMT-65" d="M 2381 1056 
L 3256 909 
Q 3088 428 2723 176 
Q 2359 -75 1813 -75 
Q 947 -75 531 491 
Q 203 944 203 1634 
Q 203 2459 634 2926 
Q 1066 3394 1725 3394 
Q 2466 3394 2894 2905 
Q 3322 2416 3303 1406 
L 1103 1406 
Q 1113 1016 1316 798 
Q 1519 581 1822 581 
Q 2028 581 2168 693 
Q 2309 806 2381 1056 
z
M 2431 1944 
Q 2422 2325 2234 2523 
Q 2047 2722 1778 2722 
Q 1491 2722 1303 2513 
Q 1116 2303 1119 1944 
L 2431 1944 
z
" transform="scale(0.015625)"/>
      <path id="Arial-BoldMT-50" d="M 466 0 
L 466 4581 
L 1950 4581 
Q 2794 4581 3050 4513 
Q 3444 4409 3709 4064 
Q 3975 3719 3975 3172 
Q 3975 2750 3822 2462 
Q 3669 2175 3433 2011 
Q 3197 1847 2953 1794 
Q 2622 1728 1994 1728 
L 1391 1728 
L 1391 0 
L 466 0 
z
M 1391 3806 
L 1391 2506 
L 1897 2506 
Q 2444 2506 2628 2578 
Q 2813 2650 2917 2803 
Q 3022 2956 3022 3159 
Q 3022 3409 2875 3571 
Q 2728 3734 2503 3775 
Q 2338 3806 1838 3806 
L 1391 3806 
z
" transform="scale(0.015625)"/>
      <path id="Arial-BoldMT-72" d="M 1300 0 
L 422 0 
L 422 3319 
L 1238 3319 
L 1238 2847 
Q 1447 3181 1614 3287 
Q 1781 3394 1994 3394 
Q 2294 3394 2572 3228 
L 2300 2463 
Q 2078 2606 1888 2606 
Q 1703 2606 1575 2504 
Q 1447 2403 1373 2137 
Q 1300 1872 1300 1025 
L 1300 0 
z
" transform="scale(0.015625)"/>
      <path id="Arial-BoldMT-63" d="M 3353 2338 
L 2488 2181 
Q 2444 2441 2289 2572 
Q 2134 2703 1888 2703 
Q 1559 2703 1364 2476 
Q 1169 2250 1169 1719 
Q 1169 1128 1367 884 
Q 1566 641 1900 641 
Q 2150 641 2309 783 
Q 2469 925 2534 1272 
L 3397 1125 
Q 3263 531 2881 228 
Q 2500 -75 1859 -75 
Q 1131 -75 698 384 
Q 266 844 266 1656 
Q 266 2478 700 2936 
Q 1134 3394 1875 3394 
Q 2481 3394 2839 3133 
Q 3197 2872 3353 2338 
z
" transform="scale(0.015625)"/>
      <path id="Arial-BoldMT-73" d="M 150 947 
L 1031 1081 
Q 1088 825 1259 692 
Q 1431 559 1741 559 
Q 2081 559 2253 684 
Q 2369 772 2369 919 
Q 2369 1019 2306 1084 
Q 2241 1147 2013 1200 
Q 950 1434 666 1628 
Q 272 1897 272 2375 
Q 272 2806 612 3100 
Q 953 3394 1669 3394 
Q 2350 3394 2681 3172 
Q 3013 2950 3138 2516 
L 2309 2363 
Q 2256 2556 2107 2659 
Q 1959 2763 1684 2763 
Q 1338 2763 1188 2666 
Q 1088 2597 1088 2488 
Q 1088 2394 1175 2328 
Q 1294 2241 1995 2081 
Q 2697 1922 2975 1691 
Q 3250 1456 3250 1038 
Q 3250 581 2869 253 
Q 2488 -75 1741 -75 
Q 1063 -75 667 200 
Q 272 475 150 947 
z
" transform="scale(0.015625)"/>
      <path id="Arial-BoldMT-6f" d="M 256 1706 
Q 256 2144 472 2553 
Q 688 2963 1083 3178 
Q 1478 3394 1966 3394 
Q 2719 3394 3200 2905 
Q 3681 2416 3681 1669 
Q 3681 916 3195 420 
Q 2709 -75 1972 -75 
Q 1516 -75 1102 131 
Q 688 338 472 736 
Q 256 1134 256 1706 
z
M 1156 1659 
Q 1156 1166 1390 903 
Q 1625 641 1969 641 
Q 2313 641 2545 903 
Q 2778 1166 2778 1666 
Q 2778 2153 2545 2415 
Q 2313 2678 1969 2678 
Q 1625 2678 1390 2415 
Q 1156 2153 1156 1659 
z
" transform="scale(0.015625)"/>
      <path id="Arial-BoldMT-49" d="M 438 0 
L 438 4581 
L 1363 4581 
L 1363 0 
L 438 0 
z
" transform="scale(0.015625)"/>
      <path id="Arial-BoldMT-6d" d="M 394 3319 
L 1203 3319 
L 1203 2866 
Q 1638 3394 2238 3394 
Q 2556 3394 2790 3262 
Q 3025 3131 3175 2866 
Q 3394 3131 3647 3262 
Q 3900 3394 4188 3394 
Q 4553 3394 4806 3245 
Q 5059 3097 5184 2809 
Q 5275 2597 5275 2122 
L 5275 0 
L 4397 0 
L 4397 1897 
Q 4397 2391 4306 2534 
Q 4184 2722 3931 2722 
Q 3747 2722 3584 2609 
Q 3422 2497 3350 2280 
Q 3278 2063 3278 1594 
L 3278 0 
L 2400 0 
L 2400 1819 
Q 2400 2303 2353 2443 
Q 2306 2584 2207 2653 
Q 2109 2722 1941 2722 
Q 1738 2722 1575 2612 
Q 1413 2503 1342 2297 
Q 1272 2091 1272 1613 
L 1272 0 
L 394 0 
L 394 3319 
z
" transform="scale(0.015625)"/>
      <path id="Arial-BoldMT-70" d="M 434 3319 
L 1253 3319 
L 1253 2831 
Q 1413 3081 1684 3237 
Q 1956 3394 2288 3394 
Q 2866 3394 3269 2941 
Q 3672 2488 3672 1678 
Q 3672 847 3265 386 
Q 2859 -75 2281 -75 
Q 2006 -75 1782 34 
Q 1559 144 1313 409 
L 1313 -1263 
L 434 -1263 
L 434 3319 
z
M 1303 1716 
Q 1303 1156 1525 889 
Q 1747 622 2066 622 
Q 2372 622 2575 867 
Q 2778 1113 2778 1672 
Q 2778 2194 2568 2447 
Q 2359 2700 2050 2700 
Q 1728 2700 1515 2451 
Q 1303 2203 1303 1716 
z
" transform="scale(0.015625)"/>
      <path id="Arial-BoldMT-74" d="M 1981 3319 
L 1981 2619 
L 1381 2619 
L 1381 1281 
Q 1381 875 1398 808 
Q 1416 741 1477 697 
Q 1538 653 1625 653 
Q 1747 653 1978 738 
L 2053 56 
Q 1747 -75 1359 -75 
Q 1122 -75 931 4 
Q 741 84 652 211 
Q 563 338 528 553 
Q 500 706 500 1172 
L 500 2619 
L 97 2619 
L 97 3319 
L 500 3319 
L 500 3978 
L 1381 4491 
L 1381 3319 
L 1981 3319 
z
" transform="scale(0.015625)"/>
      <path id="Arial-BoldMT-61" d="M 1116 2306 
L 319 2450 
Q 453 2931 781 3162 
Q 1109 3394 1756 3394 
Q 2344 3394 2631 3255 
Q 2919 3116 3036 2902 
Q 3153 2688 3153 2116 
L 3144 1091 
Q 3144 653 3186 445 
Q 3228 238 3344 0 
L 2475 0 
Q 2441 88 2391 259 
Q 2369 338 2359 363 
Q 2134 144 1878 34 
Q 1622 -75 1331 -75 
Q 819 -75 523 203 
Q 228 481 228 906 
Q 228 1188 362 1408 
Q 497 1628 739 1745 
Q 981 1863 1438 1950 
Q 2053 2066 2291 2166 
L 2291 2253 
Q 2291 2506 2166 2614 
Q 2041 2722 1694 2722 
Q 1459 2722 1328 2630 
Q 1197 2538 1116 2306 
z
M 2291 1594 
Q 2122 1538 1756 1459 
Q 1391 1381 1278 1306 
Q 1106 1184 1106 997 
Q 1106 813 1243 678 
Q 1381 544 1594 544 
Q 1831 544 2047 700 
Q 2206 819 2256 991 
Q 2291 1103 2291 1419 
L 2291 1594 
z
" transform="scale(0.015625)"/>
     </defs>
     <use xlink:href="#Arial-BoldMT-66"/>
     <use xlink:href="#Arial-BoldMT-33" transform="translate(33.300781 0)"/>
     <use xlink:href="#Arial-BoldMT-32" transform="translate(88.916016 0)"/>
     <use xlink:href="#Arial-BoldMT-20" transform="translate(144.53125 0)"/>
     <use xlink:href="#Arial-BoldMT-53" transform="translate(172.314453 0)"/>
     <use xlink:href="#Arial-BoldMT-69" transform="translate(239.013672 0)"/>
     <use xlink:href="#Arial-BoldMT-6e" transform="translate(266.796875 0)"/>
     <use xlink:href="#Arial-BoldMT-67" transform="translate(327.880859 0)"/>
     <use xlink:href="#Arial-BoldMT-6c" transform="translate(388.964844 0)"/>
     <use xlink:href="#Arial-BoldMT-65" transform="translate(416.748047 0)"/>
     <use xlink:href="#Arial-BoldMT-20" transform="translate(472.363281 0)"/>
     <use xlink:href="#Arial-BoldMT-50" transform="translate(500.146484 0)"/>
     <use xlink:href="#Arial-BoldMT-72" transform="translate(566.845703 0)"/>
     <use xlink:href="#Arial-BoldMT-65" transform="translate(605.761719 0)"/>
     <use xlink:href="#Arial-BoldMT-63" transform="translate(661.376953 0)"/>
     <use xlink:href="#Arial-BoldMT-69" transform="translate(716.992188 0)"/>
     <use xlink:href="#Arial-BoldMT-73" transform="translate(744.775391 0)"/>
     <use xlink:href="#Arial-BoldMT-69" transform="translate(800.390625 0)"/>
     <use xlink:href="#Arial-BoldMT-6f" transform="translate(828.173828 0)"/>
     <use xlink:href="#Arial-BoldMT-6e" transform="translate(889.257812 0)"/>
     <use xlink:href="#Arial-BoldMT-20" transform="translate(950.341797 0)"/>
     <use xlink:href="#Arial-BoldMT-49" transform="translate(978.125 0)"/>
     <use xlink:href="#Arial-BoldMT-6d" transform="translate(1005.908203 0)"/>
     <use xlink:href="#Arial-BoldMT-70" transform="translate(1094.824219 0)"/>
     <use xlink:href="#Arial-BoldMT-6c" transform="translate(1155.908203 0)"/>
     <use xlink:href="#Arial-BoldMT-65" transform="translate(1183.691406 0)"/>
     <use xlink:href="#Arial-BoldMT-6d" transform="translate(1239.306641 0)"/>
     <use xlink:href="#Arial-BoldMT-65" transform="translate(1328.222656 0)"/>
     <use xlink:href="#Arial-BoldMT-6e" transform="translate(1383.837891 0)"/>
     <use xlink:href="#Arial-BoldMT-74" transform="translate(1444.921875 0)"/>
     <use xlink:href="#Arial-BoldMT-61" transform="translate(1478.222656 0)"/>
     <use xlink:href="#Arial-BoldMT-74" transform="translate(1533.837891 0)"/>
     <use xlink:href="#Arial-BoldMT-69" transform="translate(1567.138672 0)"/>
     <use xlink:href="#Arial-BoldMT-6f" transform="translate(1594.921875 0)"/>
     <use xlink:href="#Arial-BoldMT-6e" transform="translate(1656.005859 0)"/>
    </g>
   </g>
   <g id="legend_1">
    <g id="PathCollection_6">
     <path d="M 293.428851 67.611913 
C 294.881428 67.611913 296.274707 67.034798 297.301834 66.007671 
C 298.328961 64.980544 298.906076 63.587265 298.906076 62.134687 
C 298.906076 60.68211 298.328961 59.288831 297.301834 58.261704 
C 296.274707 57.234577 294.881428 56.657462 293.428851 56.657462 
C 291.976274 56.657462 290.582995 57.234577 289.555867 58.261704 
C 288.52874 59.288831 287.951625 60.68211 287.951625 62.134687 
C 287.951625 63.587265 288.52874 64.980544 289.555867 66.007671 
C 290.582995 67.034798 291.976274 67.611913 293.428851 67.611913 
L 293.428851 67.611913 
z
" style="fill: none; stroke: #1f77b4"/>
    </g>
    <g id="text_11">
     <!-- TDF2 (f32) -->
     <g style="fill: #262626" transform="translate(311.428851 64.759687) scale(0.1 -0.1)">
      <defs>
       <path id="ArialMT-44" d="M 494 0 
L 494 4581 
L 2072 4581 
Q 2606 4581 2888 4516 
Q 3281 4425 3559 4188 
Q 3922 3881 4101 3404 
Q 4281 2928 4281 2316 
Q 4281 1794 4159 1391 
Q 4038 988 3847 723 
Q 3656 459 3429 307 
Q 3203 156 2883 78 
Q 2563 0 2147 0 
L 494 0 
z
M 1100 541 
L 2078 541 
Q 2531 541 2789 625 
Q 3047 709 3200 863 
Q 3416 1078 3536 1442 
Q 3656 1806 3656 2325 
Q 3656 3044 3420 3430 
Q 3184 3816 2847 3947 
Q 2603 4041 2063 4041 
L 1100 4041 
L 1100 541 
z
" transform="scale(0.015625)"/>
       <path id="ArialMT-46" d="M 525 0 
L 525 4581 
L 3616 4581 
L 3616 4041 
L 1131 4041 
L 1131 2622 
L 3281 2622 
L 3281 2081 
L 1131 2081 
L 1131 0 
L 525 0 
z
" transform="scale(0.015625)"/>
       <path id="ArialMT-66" d="M 556 0 
L 556 2881 
L 59 2881 
L 59 3319 
L 556 3319 
L 556 3672 
Q 556 4006 616 4169 
Q 697 4388 901 4523 
Q 1106 4659 1475 4659 
Q 1713 4659 2000 4603 
L 1916 4113 
Q 1741 4144 1584 4144 
Q 1328 4144 1222 4034 
Q 1116 3925 1116 3625 
L 1116 3319 
L 1763 3319 
L 1763 2881 
L 1116 2881 
L 1116 0 
L 556 0 
z
" transform="scale(0.015625)"/>
      </defs>
      <use xlink:href="#ArialMT-54"/>
      <use xlink:href="#ArialMT-44" transform="translate(61.083984 0)"/>
      <use xlink:href="#ArialMT-46" transform="translate(133.300781 0)"/>
      <use xlink:href="#ArialMT-32" transform="translate(194.384766 0)"/>
      <use xlink:href="#ArialMT-20" transform="translate(250 0)"/>
      <use xlink:href="#ArialMT-28" transform="translate(277.783203 0)"/>
      <use xlink:href="#ArialMT-66" transform="translate(311.083984 0)"/>
      <use xlink:href="#ArialMT-33" transform="translate(338.867188 0)"/>
      <use xlink:href="#ArialMT-32" transform="translate(394.482422 0)"/>
      <use xlink:href="#ArialMT-29" transform="translate(450.097656 0)"/>
     </g>
    </g>
    <g id="PathCollection_7">
     <path d="M 287.951625 81.996288 
L 298.906076 81.996288 
L 298.906076 71.041837 
L 287.951625 71.041837 
L 287.951625 81.996288 
z
" style="fill: none; stroke: #aec7e8"/>
    </g>
    <g id="text_12">
     <!-- Hybrid Simple (f32) -->
     <g style="fill: #262626" transform="translate(311.428851 79.144062) scale(0.1 -0.1)">
      <defs>
       <path id="ArialMT-48" d="M 513 0 
L 513 4581 
L 1119 4581 
L 1119 2700 
L 3500 2700 
L 3500 4581 
L 4106 4581 
L 4106 0 
L 3500 0 
L 3500 2159 
L 1119 2159 
L 1119 0 
L 513 0 
z
" transform="scale(0.015625)"/>
       <path id="ArialMT-79" d="M 397 -1278 
L 334 -750 
Q 519 -800 656 -800 
Q 844 -800 956 -737 
Q 1069 -675 1141 -563 
Q 1194 -478 1313 -144 
Q 1328 -97 1363 -6 
L 103 3319 
L 709 3319 
L 1400 1397 
Q 1534 1031 1641 628 
Q 1738 1016 1872 1384 
L 2581 3319 
L 3144 3319 
L 1881 -56 
Q 1678 -603 1566 -809 
Q 1416 -1088 1222 -1217 
Q 1028 -1347 759 -1347 
Q 597 -1347 397 -1278 
z
" transform="scale(0.015625)"/>
       <path id="ArialMT-64" d="M 2575 0 
L 2575 419 
Q 2259 -75 1647 -75 
Q 1250 -75 917 144 
Q 584 363 401 755 
Q 219 1147 219 1656 
Q 219 2153 384 2558 
Q 550 2963 881 3178 
Q 1213 3394 1622 3394 
Q 1922 3394 2156 3267 
Q 2391 3141 2538 2938 
L 2538 4581 
L 3097 4581 
L 3097 0 
L 2575 0 
z
M 797 1656 
Q 797 1019 1065 703 
Q 1334 388 1700 388 
Q 2069 388 2326 689 
Q 2584 991 2584 1609 
Q 2584 2291 2321 2609 
Q 2059 2928 1675 2928 
Q 1300 2928 1048 2622 
Q 797 2316 797 1656 
z
" transform="scale(0.015625)"/>
      </defs>
      <use xlink:href="#ArialMT-48"/>
      <use xlink:href="#ArialMT-79" transform="translate(72.216797 0)"/>
      <use xlink:href="#ArialMT-62" transform="translate(122.216797 0)"/>
      <use xlink:href="#ArialMT-72" transform="translate(177.832031 0)"/>
      <use xlink:href="#ArialMT-69" transform="translate(211.132812 0)"/>
      <use xlink:href="#ArialMT-64" transform="translate(233.349609 0)"/>
      <use xlink:href="#ArialMT-20" transform="translate(288.964844 0)"/>
      <use xlink:href="#ArialMT-53" transform="translate(316.748047 0)"/>
      <use xlink:href="#ArialMT-69" transform="translate(383.447266 0)"/>
      <use xlink:href="#ArialMT-6d" transform="translate(405.664062 0)"/>
      <use xlink:href="#ArialMT-70" transform="translate(488.964844 0)"/>
      <use xlink:href="#ArialMT-6c" transform="translate(544.580078 0)"/>
      <use xlink:href="#ArialMT-65" transform="translate(566.796875 0)"/>
      <use xlink:href="#ArialMT-20" transform="translate(622.412109 0)"/>
      <use xlink:href="#ArialMT-28" transform="translate(650.195312 0)"/>
      <use xlink:href="#ArialMT-66" transform="translate(683.496094 0)"/>
      <use xlink:href="#ArialMT-33" transform="translate(711.279297 0)"/>
      <use xlink:href="#ArialMT-32" transform="translate(766.894531 0)"/>
      <use xlink:href="#ArialMT-29" transform="translate(822.509766 0)"/>
     </g>
    </g>
    <g id="PathCollection_8">
     <path d="M 293.428851 98.649404 
L 301.174818 90.903437 
L 293.428851 83.157471 
L 285.682884 90.903437 
L 293.428851 98.649404 
z
" style="fill: none; stroke: #ff7f0e"/>
    </g>
    <g id="text_13">
     <!-- Hybrid Kahan (f32) -->
     <g style="fill: #262626" transform="translate(311.428851 93.528437) scale(0.1 -0.1)">
      <defs>
       <path id="ArialMT-4b" d="M 469 0 
L 469 4581 
L 1075 4581 
L 1075 2309 
L 3350 4581 
L 4172 4581 
L 2250 2725 
L 4256 0 
L 3456 0 
L 1825 2319 
L 1075 1588 
L 1075 0 
L 469 0 
z
" transform="scale(0.015625)"/>
       <path id="ArialMT-68" d="M 422 0 
L 422 4581 
L 984 4581 
L 984 2938 
Q 1378 3394 1978 3394 
Q 2347 3394 2619 3248 
Q 2891 3103 3008 2847 
Q 3125 2591 3125 2103 
L 3125 0 
L 2563 0 
L 2563 2103 
Q 2563 2525 2380 2717 
Q 2197 2909 1863 2909 
Q 1613 2909 1392 2779 
Q 1172 2650 1078 2428 
Q 984 2206 984 1816 
L 984 0 
L 422 0 
z
" transform="scale(0.015625)"/>
      </defs>
      <use xlink:href="#ArialMT-48"/>
      <use xlink:href="#ArialMT-79" transform="translate(72.216797 0)"/>
      <use xlink:href="#ArialMT-62" transform="translate(122.216797 0)"/>
      <use xlink:href="#ArialMT-72" transform="translate(177.832031 0)"/>
      <use xlink:href="#ArialMT-69" transform="translate(211.132812 0)"/>
      <use xlink:href="#ArialMT-64" transform="translate(233.349609 0)"/>
      <use xlink:href="#ArialMT-20" transform="translate(288.964844 0)"/>
      <use xlink:href="#ArialMT-4b" transform="translate(316.748047 0)"/>
      <use xlink:href="#ArialMT-61" transform="translate(383.447266 0)"/>
      <use xlink:href="#ArialMT-68" transform="translate(439.0625 0)"/>
      <use xlink:href="#ArialMT-61" transform="translate(494.677734 0)"/>
      <use xlink:href="#ArialMT-6e" transform="translate(550.292969 0)"/>
      <use xlink:href="#ArialMT-20" transform="translate(605.908203 0)"/>
      <use xlink:href="#ArialMT-28" transform="translate(633.691406 0)"/>
      <use xlink:href="#ArialMT-66" transform="translate(666.992188 0)"/>
      <use xlink:href="#ArialMT-33" transform="translate(694.775391 0)"/>
      <use xlink:href="#ArialMT-32" transform="translate(750.390625 0)"/>
      <use xlink:href="#ArialMT-29" transform="translate(806.005859 0)"/>
     </g>
    </g>
    <g id="PathCollection_9">
     <path d="M 293.428851 99.816837 
L 287.951625 110.771288 
L 298.906076 110.771288 
L 293.428851 99.816837 
z
" style="fill: none; stroke: #ffbb78"/>
    </g>
    <g id="text_14">
     <!-- SOS Simple (f32) -->
     <g style="fill: #262626" transform="translate(311.428851 107.919062) scale(0.1 -0.1)">
      <defs>
       <path id="ArialMT-4f" d="M 309 2231 
Q 309 3372 921 4017 
Q 1534 4663 2503 4663 
Q 3138 4663 3647 4359 
Q 4156 4056 4423 3514 
Q 4691 2972 4691 2284 
Q 4691 1588 4409 1038 
Q 4128 488 3612 205 
Q 3097 -78 2500 -78 
Q 1853 -78 1343 234 
Q 834 547 571 1087 
Q 309 1628 309 2231 
z
M 934 2222 
Q 934 1394 1379 917 
Q 1825 441 2497 441 
Q 3181 441 3623 922 
Q 4066 1403 4066 2288 
Q 4066 2847 3877 3264 
Q 3688 3681 3323 3911 
Q 2959 4141 2506 4141 
Q 1863 4141 1398 3698 
Q 934 3256 934 2222 
z
" transform="scale(0.015625)"/>
      </defs>
      <use xlink:href="#ArialMT-53"/>
      <use xlink:href="#ArialMT-4f" transform="translate(66.699219 0)"/>
      <use xlink:href="#ArialMT-53" transform="translate(144.482422 0)"/>
      <use xlink:href="#ArialMT-20" transform="translate(211.181641 0)"/>
      <use xlink:href="#ArialMT-53" transform="translate(238.964844 0)"/>
      <use xlink:href="#ArialMT-69" transform="translate(305.664062 0)"/>
      <use xlink:href="#ArialMT-6d" transform="translate(327.880859 0)"/>
      <use xlink:href="#ArialMT-70" transform="translate(411.181641 0)"/>
      <use xlink:href="#ArialMT-6c" transform="translate(466.796875 0)"/>
      <use xlink:href="#ArialMT-65" transform="translate(489.013672 0)"/>
      <use xlink:href="#ArialMT-20" transform="translate(544.628906 0)"/>
      <use xlink:href="#ArialMT-28" transform="translate(572.412109 0)"/>
      <use xlink:href="#ArialMT-66" transform="translate(605.712891 0)"/>
      <use xlink:href="#ArialMT-33" transform="translate(633.496094 0)"/>
      <use xlink:href="#ArialMT-32" transform="translate(689.111328 0)"/>
      <use xlink:href="#ArialMT-29" transform="translate(744.726562 0)"/>
     </g>
    </g>
    <g id="PathCollection_10">
     <path d="M 293.428851 125.161913 
L 298.906076 114.207462 
L 287.951625 114.207462 
L 293.428851 125.161913 
z
" style="fill: none; stroke: #2ca02c"/>
    </g>
    <g id="text_15">
     <!-- SOS Kahan (f32) -->
     <g style="fill: #262626" transform="translate(311.428851 122.309687) scale(0.1 -0.1)">
      <use xlink:href="#ArialMT-53"/>
      <use xlink:href="#ArialMT-4f" transform="translate(66.699219 0)"/>
      <use xlink:href="#ArialMT-53" transform="translate(144.482422 0)"/>
      <use xlink:href="#ArialMT-20" transform="translate(211.181641 0)"/>
      <use xlink:href="#ArialMT-4b" transform="translate(238.964844 0)"/>
      <use xlink:href="#ArialMT-61" transform="translate(305.664062 0)"/>
      <use xlink:href="#ArialMT-68" transform="translate(361.279297 0)"/>
      <use xlink:href="#ArialMT-61" transform="translate(416.894531 0)"/>
      <use xlink:href="#ArialMT-6e" transform="translate(472.509766 0)"/>
      <use xlink:href="#ArialMT-20" transform="translate(528.125 0)"/>
      <use xlink:href="#ArialMT-28" transform="translate(555.908203 0)"/>
      <use xlink:href="#ArialMT-66" transform="translate(589.208984 0)"/>
      <use xlink:href="#ArialMT-33" transform="translate(616.992188 0)"/>
      <use xlink:href="#ArialMT-32" transform="translate(672.607422 0)"/>
      <use xlink:href="#ArialMT-29" transform="translate(728.222656 0)"/>
     </g>
    </g>
    <g id="line2d_48">
     <path d="M 283.428851 133.194062 
L 293.428851 133.194062 
L 303.428851 133.194062 
" style="fill: none; stroke-dasharray: 1.5,2.475; stroke-dashoffset: 0; stroke: #008000; stroke-opacity: 0.5; stroke-width: 1.5"/>
    </g>
    <g id="text_16">
     <!-- f32 Epsilon (~1.19e-07) -->
     <g style="fill: #262626" transform="translate(311.428851 136.694062) scale(0.1 -0.1)">
      <defs>
       <path id="ArialMT-7e" d="M 272 1741 
L 272 2381 
Q 603 2756 1141 2756 
Q 1328 2756 1534 2701 
Q 1741 2647 2122 2484 
Q 2338 2394 2445 2366 
Q 2553 2338 2663 2338 
Q 2866 2338 3083 2459 
Q 3300 2581 3469 2766 
L 3469 2103 
Q 3269 1916 3064 1831 
Q 2859 1747 2603 1747 
Q 2416 1747 2245 1790 
Q 2075 1834 1704 2000 
Q 1334 2166 1088 2166 
Q 888 2166 711 2080 
Q 534 1994 272 1741 
z
" transform="scale(0.015625)"/>
       <path id="ArialMT-2e" d="M 581 0 
L 581 641 
L 1222 641 
L 1222 0 
L 581 0 
z
" transform="scale(0.015625)"/>
       <path id="ArialMT-39" d="M 350 1059 
L 891 1109 
Q 959 728 1153 556 
Q 1347 384 1650 384 
Q 1909 384 2104 503 
Q 2300 622 2425 820 
Q 2550 1019 2634 1356 
Q 2719 1694 2719 2044 
Q 2719 2081 2716 2156 
Q 2547 1888 2255 1720 
Q 1963 1553 1622 1553 
Q 1053 1553 659 1965 
Q 266 2378 266 3053 
Q 266 3750 677 4175 
Q 1088 4600 1706 4600 
Q 2153 4600 2523 4359 
Q 2894 4119 3086 3673 
Q 3278 3228 3278 2384 
Q 3278 1506 3087 986 
Q 2897 466 2520 194 
Q 2144 -78 1638 -78 
Q 1100 -78 759 220 
Q 419 519 350 1059 
z
M 2653 3081 
Q 2653 3566 2395 3850 
Q 2138 4134 1775 4134 
Q 1400 4134 1122 3828 
Q 844 3522 844 3034 
Q 844 2597 1108 2323 
Q 1372 2050 1759 2050 
Q 2150 2050 2401 2323 
Q 2653 2597 2653 3081 
z
" transform="scale(0.015625)"/>
       <path id="ArialMT-2d" d="M 203 1375 
L 203 1941 
L 1931 1941 
L 1931 1375 
L 203 1375 
z
" transform="scale(0.015625)"/>
       <path id="ArialMT-37" d="M 303 3981 
L 303 4522 
L 3269 4522 
L 3269 4084 
Q 2831 3619 2401 2847 
Q 1972 2075 1738 1259 
Q 1569 684 1522 0 
L 944 0 
Q 953 541 1156 1306 
Q 1359 2072 1739 2783 
Q 2119 3494 2547 3981 
L 303 3981 
z
" transform="scale(0.015625)"/>
      </defs>
      <use xlink:href="#ArialMT-66"/>
      <use xlink:href="#ArialMT-33" transform="translate(27.783203 0)"/>
      <use xlink:href="#ArialMT-32" transform="translate(83.398438 0)"/>
      <use xlink:href="#ArialMT-20" transform="translate(139.013672 0)"/>
      <use xlink:href="#ArialMT-45" transform="translate(166.796875 0)"/>
      <use xlink:href="#ArialMT-70" transform="translate(233.496094 0)"/>
      <use xlink:href="#ArialMT-73" transform="translate(289.111328 0)"/>
      <use xlink:href="#ArialMT-69" transform="translate(339.111328 0)"/>
      <use xlink:href="#ArialMT-6c" transform="translate(361.328125 0)"/>
      <use xlink:href="#ArialMT-6f" transform="translate(383.544922 0)"/>
      <use xlink:href="#ArialMT-6e" transform="translate(439.160156 0)"/>
      <use xlink:href="#ArialMT-20" transform="translate(494.775391 0)"/>
      <use xlink:href="#ArialMT-28" transform="translate(522.558594 0)"/>
      <use xlink:href="#ArialMT-7e" transform="translate(555.859375 0)"/>
      <use xlink:href="#ArialMT-31" transform="translate(614.257812 0)"/>
      <use xlink:href="#ArialMT-2e" transform="translate(669.873047 0)"/>
      <use xlink:href="#ArialMT-31" transform="translate(697.65625 0)"/>
      <use xlink:href="#ArialMT-39" transform="translate(753.271484 0)"/>
      <use xlink:href="#ArialMT-65" transform="translate(808.886719 0)"/>
      <use xlink:href="#ArialMT-2d" transform="translate(864.501953 0)"/>
      <use xlink:href="#ArialMT-30" transform="translate(897.802734 0)"/>
      <use xlink:href="#ArialMT-37" transform="translate(953.417969 0)"/>
      <use xlink:href="#ArialMT-29" transform="translate(1009.033203 0)"/>
     </g>
    </g>
   </g>
  </g>
  <g id="axes_2">
   <g id="patch_7">
    <path d="M 477.334548 249.54 
L 853.2 249.54 
L 853.2 48.48 
L 477.334548 48.48 
z
" style="fill: #ffffff"/>
   </g>
   <g id="matplotlib.axis_3">
    <g id="xtick_6">
     <g id="line2d_49">
      <path d="M 506.868183 249.54 
L 506.868183 48.48 
" clip-path="url(#pbdda7e238f)" style="fill: none; stroke-dasharray: 0.8,1.32; stroke-dashoffset: 0; stroke: #cccccc; stroke-opacity: 0.5; stroke-width: 0.8"/>
     </g>
     <g id="line2d_50"/>
     <g id="text_17">
      <!-- 30 -->
      <g style="fill: #262626" transform="translate(501.307245 260.197812) scale(0.1 -0.1)">
       <use xlink:href="#ArialMT-33"/>
       <use xlink:href="#ArialMT-30" transform="translate(55.615234 0)"/>
      </g>
     </g>
    </g>
    <g id="xtick_7">
     <g id="line2d_51">
      <path d="M 584.761075 249.54 
L 584.761075 48.48 
" clip-path="url(#pbdda7e238f)" style="fill: none; stroke-dasharray: 0.8,1.32; stroke-dashoffset: 0; stroke: #cccccc; stroke-opacity: 0.5; stroke-width: 0.8"/>
     </g>
     <g id="line2d_52"/>
     <g id="text_18">
      <!-- 35 -->
      <g style="fill: #262626" transform="translate(579.200138 260.197812) scale(0.1 -0.1)">
       <use xlink:href="#ArialMT-33"/>
       <use xlink:href="#ArialMT-35" transform="translate(55.615234 0)"/>
      </g>
     </g>
    </g>
    <g id="xtick_8">
     <g id="line2d_53">
      <path d="M 662.653967 249.54 
L 662.653967 48.48 
" clip-path="url(#pbdda7e238f)" style="fill: none; stroke-dasharray: 0.8,1.32; stroke-dashoffset: 0; stroke: #cccccc; stroke-opacity: 0.5; stroke-width: 0.8"/>
     </g>
     <g id="line2d_54"/>
     <g id="text_19">
      <!-- 40 -->
      <g style="fill: #262626" transform="translate(657.09303 260.197812) scale(0.1 -0.1)">
       <use xlink:href="#ArialMT-34"/>
       <use xlink:href="#ArialMT-30" transform="translate(55.615234 0)"/>
      </g>
     </g>
    </g>
    <g id="xtick_9">
     <g id="line2d_55">
      <path d="M 740.546859 249.54 
L 740.546859 48.48 
" clip-path="url(#pbdda7e238f)" style="fill: none; stroke-dasharray: 0.8,1.32; stroke-dashoffset: 0; stroke: #cccccc; stroke-opacity: 0.5; stroke-width: 0.8"/>
     </g>
     <g id="line2d_56"/>
     <g id="text_20">
      <!-- 45 -->
      <g style="fill: #262626" transform="translate(734.985922 260.197812) scale(0.1 -0.1)">
       <use xlink:href="#ArialMT-34"/>
       <use xlink:href="#ArialMT-35" transform="translate(55.615234 0)"/>
      </g>
     </g>
    </g>
    <g id="xtick_10">
     <g id="line2d_57">
      <path d="M 818.439752 249.54 
L 818.439752 48.48 
" clip-path="url(#pbdda7e238f)" style="fill: none; stroke-dasharray: 0.8,1.32; stroke-dashoffset: 0; stroke: #cccccc; stroke-opacity: 0.5; stroke-width: 0.8"/>
     </g>
     <g id="line2d_58"/>
     <g id="text_21">
      <!-- 50 -->
      <g style="fill: #262626" transform="translate(812.878814 260.197812) scale(0.1 -0.1)">
       <use xlink:href="#ArialMT-35"/>
       <use xlink:href="#ArialMT-30" transform="translate(55.615234 0)"/>
      </g>
     </g>
    </g>
    <g id="text_22">
     <!-- Execution Time per Sample (ns / sample) -->
     <g style="fill: #262626" transform="translate(573.84618 273.465) scale(0.1 -0.1)">
      <use xlink:href="#ArialMT-45"/>
      <use xlink:href="#ArialMT-78" transform="translate(66.699219 0)"/>
      <use xlink:href="#ArialMT-65" transform="translate(116.699219 0)"/>
      <use xlink:href="#ArialMT-63" transform="translate(172.314453 0)"/>
      <use xlink:href="#ArialMT-75" transform="translate(222.314453 0)"/>
      <use xlink:href="#ArialMT-74" transform="translate(277.929688 0)"/>
      <use xlink:href="#ArialMT-69" transform="translate(305.712891 0)"/>
      <use xlink:href="#ArialMT-6f" transform="translate(327.929688 0)"/>
      <use xlink:href="#ArialMT-6e" transform="translate(383.544922 0)"/>
      <use xlink:href="#ArialMT-20" transform="translate(439.160156 0)"/>
      <use xlink:href="#ArialMT-54" transform="translate(465.193359 0)"/>
      <use xlink:href="#ArialMT-69" transform="translate(522.527344 0)"/>
      <use xlink:href="#ArialMT-6d" transform="translate(544.744141 0)"/>
      <use xlink:href="#ArialMT-65" transform="translate(628.044922 0)"/>
      <use xlink:href="#ArialMT-20" transform="translate(683.660156 0)"/>
      <use xlink:href="#ArialMT-70" transform="translate(711.443359 0)"/>
      <use xlink:href="#ArialMT-65" transform="translate(767.058594 0)"/>
      <use xlink:href="#ArialMT-72" transform="translate(822.673828 0)"/>
      <use xlink:href="#ArialMT-20" transform="translate(855.974609 0)"/>
      <use xlink:href="#ArialMT-53" transform="translate(883.757812 0)"/>
      <use xlink:href="#ArialMT-61" transform="translate(950.457031 0)"/>
      <use xlink:href="#ArialMT-6d" transform="translate(1006.072266 0)"/>
      <use xlink:href="#ArialMT-70" transform="translate(1089.373047 0)"/>
      <use xlink:href="#ArialMT-6c" transform="translate(1144.988281 0)"/>
      <use xlink:href="#ArialMT-65" transform="translate(1167.205078 0)"/>
      <use xlink:href="#ArialMT-20" transform="translate(1222.820312 0)"/>
      <use xlink:href="#ArialMT-28" transform="translate(1250.603516 0)"/>
      <use xlink:href="#ArialMT-6e" transform="translate(1283.904297 0)"/>
      <use xlink:href="#ArialMT-73" transform="translate(1339.519531 0)"/>
      <use xlink:href="#ArialMT-20" transform="translate(1389.519531 0)"/>
      <use xlink:href="#ArialMT-2f" transform="translate(1417.302734 0)"/>
      <use xlink:href="#ArialMT-20" transform="translate(1445.085938 0)"/>
      <use xlink:href="#ArialMT-73" transform="translate(1472.869141 0)"/>
      <use xlink:href="#ArialMT-61" transform="translate(1522.869141 0)"/>
      <use xlink:href="#ArialMT-6d" transform="translate(1578.484375 0)"/>
      <use xlink:href="#ArialMT-70" transform="translate(1661.785156 0)"/>
      <use xlink:href="#ArialMT-6c" transform="translate(1717.400391 0)"/>
      <use xlink:href="#ArialMT-65" transform="translate(1739.617188 0)"/>
      <use xlink:href="#ArialMT-29" transform="translate(1795.232422 0)"/>
     </g>
    </g>
   </g>
   <g id="matplotlib.axis_4">
    <g id="ytick_19">
     <g id="line2d_59">
      <path d="M 477.334548 222.926965 
L 853.2 222.926965 
" clip-path="url(#pbdda7e238f)" style="fill: none; stroke-dasharray: 0.8,1.32; stroke-dashoffset: 0; stroke: #cccccc; stroke-opacity: 0.5; stroke-width: 0.8"/>
     </g>
     <g id="line2d_60"/>
     <g id="text_23">
      <!-- $\mathdefault{10^{-15}}$ -->
      <g style="fill: #262626" transform="translate(450.134548 228.083215) scale(0.1 -0.1)">
       <use xlink:href="#ArialMT-31" transform="translate(0 0.99375)"/>
       <use xlink:href="#ArialMT-30" transform="translate(55.615234 0.99375)"/>
       <use xlink:href="#ArialMT-2212" transform="translate(112.972813 70.6875) scale(0.7)"/>
       <use xlink:href="#ArialMT-31" transform="translate(153.851719 70.6875) scale(0.7)"/>
       <use xlink:href="#ArialMT-35" transform="translate(192.782383 70.6875) scale(0.7)"/>
      </g>
     </g>
    </g>
    <g id="ytick_20">
     <g id="line2d_61">
      <path d="M 477.334548 103.154182 
L 853.2 103.154182 
" clip-path="url(#pbdda7e238f)" style="fill: none; stroke-dasharray: 0.8,1.32; stroke-dashoffset: 0; stroke: #cccccc; stroke-opacity: 0.5; stroke-width: 0.8"/>
     </g>
     <g id="line2d_62"/>
     <g id="text_24">
      <!-- $\mathdefault{10^{-14}}$ -->
      <g style="fill: #262626" transform="translate(450.134548 108.310432) scale(0.1 -0.1)">
       <use xlink:href="#ArialMT-31" transform="translate(0 0.99375)"/>
       <use xlink:href="#ArialMT-30" transform="translate(55.615234 0.99375)"/>
       <use xlink:href="#ArialMT-2212" transform="translate(112.972813 70.6875) scale(0.7)"/>
       <use xlink:href="#ArialMT-31" transform="translate(153.851719 70.6875) scale(0.7)"/>
       <use xlink:href="#ArialMT-34" transform="translate(192.782383 70.6875) scale(0.7)"/>
      </g>
     </g>
    </g>
    <g id="ytick_21">
     <g id="line2d_63">
      <path d="M 477.334548 249.498408 
L 853.2 249.498408 
" clip-path="url(#pbdda7e238f)" style="fill: none; stroke-dasharray: 0.8,1.32; stroke-dashoffset: 0; stroke: #cccccc; stroke-opacity: 0.5; stroke-width: 0.8"/>
     </g>
     <g id="line2d_64"/>
    </g>
    <g id="ytick_22">
     <g id="line2d_65">
      <path d="M 477.334548 241.480004 
L 853.2 241.480004 
" clip-path="url(#pbdda7e238f)" style="fill: none; stroke-dasharray: 0.8,1.32; stroke-dashoffset: 0; stroke: #cccccc; stroke-opacity: 0.5; stroke-width: 0.8"/>
     </g>
     <g id="line2d_66"/>
    </g>
    <g id="ytick_23">
     <g id="line2d_67">
      <path d="M 477.334548 234.534147 
L 853.2 234.534147 
" clip-path="url(#pbdda7e238f)" style="fill: none; stroke-dasharray: 0.8,1.32; stroke-dashoffset: 0; stroke: #cccccc; stroke-opacity: 0.5; stroke-width: 0.8"/>
     </g>
     <g id="line2d_68"/>
    </g>
    <g id="ytick_24">
     <g id="line2d_69">
      <path d="M 477.334548 228.407467 
L 853.2 228.407467 
" clip-path="url(#pbdda7e238f)" style="fill: none; stroke-dasharray: 0.8,1.32; stroke-dashoffset: 0; stroke: #cccccc; stroke-opacity: 0.5; stroke-width: 0.8"/>
     </g>
     <g id="line2d_70"/>
    </g>
    <g id="ytick_25">
     <g id="line2d_71">
      <path d="M 477.334548 186.871765 
L 853.2 186.871765 
" clip-path="url(#pbdda7e238f)" style="fill: none; stroke-dasharray: 0.8,1.32; stroke-dashoffset: 0; stroke: #cccccc; stroke-opacity: 0.5; stroke-width: 0.8"/>
     </g>
     <g id="line2d_72"/>
    </g>
    <g id="ytick_26">
     <g id="line2d_73">
      <path d="M 477.334548 165.780824 
L 853.2 165.780824 
" clip-path="url(#pbdda7e238f)" style="fill: none; stroke-dasharray: 0.8,1.32; stroke-dashoffset: 0; stroke: #cccccc; stroke-opacity: 0.5; stroke-width: 0.8"/>
     </g>
     <g id="line2d_74"/>
    </g>
    <g id="ytick_27">
     <g id="line2d_75">
      <path d="M 477.334548 150.816564 
L 853.2 150.816564 
" clip-path="url(#pbdda7e238f)" style="fill: none; stroke-dasharray: 0.8,1.32; stroke-dashoffset: 0; stroke: #cccccc; stroke-opacity: 0.5; stroke-width: 0.8"/>
     </g>
     <g id="line2d_76"/>
    </g>
    <g id="ytick_28">
     <g id="line2d_77">
      <path d="M 477.334548 139.209382 
L 853.2 139.209382 
" clip-path="url(#pbdda7e238f)" style="fill: none; stroke-dasharray: 0.8,1.32; stroke-dashoffset: 0; stroke: #cccccc; stroke-opacity: 0.5; stroke-width: 0.8"/>
     </g>
     <g id="line2d_78"/>
    </g>
    <g id="ytick_29">
     <g id="line2d_79">
      <path d="M 477.334548 129.725624 
L 853.2 129.725624 
" clip-path="url(#pbdda7e238f)" style="fill: none; stroke-dasharray: 0.8,1.32; stroke-dashoffset: 0; stroke: #cccccc; stroke-opacity: 0.5; stroke-width: 0.8"/>
     </g>
     <g id="line2d_80"/>
    </g>
    <g id="ytick_30">
     <g id="line2d_81">
      <path d="M 477.334548 121.70722 
L 853.2 121.70722 
" clip-path="url(#pbdda7e238f)" style="fill: none; stroke-dasharray: 0.8,1.32; stroke-dashoffset: 0; stroke: #cccccc; stroke-opacity: 0.5; stroke-width: 0.8"/>
     </g>
     <g id="line2d_82"/>
    </g>
    <g id="ytick_31">
     <g id="line2d_83">
      <path d="M 477.334548 114.761364 
L 853.2 114.761364 
" clip-path="url(#pbdda7e238f)" style="fill: none; stroke-dasharray: 0.8,1.32; stroke-dashoffset: 0; stroke: #cccccc; stroke-opacity: 0.5; stroke-width: 0.8"/>
     </g>
     <g id="line2d_84"/>
    </g>
    <g id="ytick_32">
     <g id="line2d_85">
      <path d="M 477.334548 108.634684 
L 853.2 108.634684 
" clip-path="url(#pbdda7e238f)" style="fill: none; stroke-dasharray: 0.8,1.32; stroke-dashoffset: 0; stroke: #cccccc; stroke-opacity: 0.5; stroke-width: 0.8"/>
     </g>
     <g id="line2d_86"/>
    </g>
    <g id="ytick_33">
     <g id="line2d_87">
      <path d="M 477.334548 67.098981 
L 853.2 67.098981 
" clip-path="url(#pbdda7e238f)" style="fill: none; stroke-dasharray: 0.8,1.32; stroke-dashoffset: 0; stroke: #cccccc; stroke-opacity: 0.5; stroke-width: 0.8"/>
     </g>
     <g id="line2d_88"/>
    </g>
    <g id="text_25">
     <!-- Max Absolute Error -->
     <g style="fill: #262626" transform="translate(444.147048 191.525625) rotate(-90) scale(0.1 -0.1)">
      <use xlink:href="#ArialMT-4d"/>
      <use xlink:href="#ArialMT-61" transform="translate(83.300781 0)"/>
      <use xlink:href="#ArialMT-78" transform="translate(138.916016 0)"/>
      <use xlink:href="#ArialMT-20" transform="translate(188.916016 0)"/>
      <use xlink:href="#ArialMT-41" transform="translate(211.199219 0)"/>
      <use xlink:href="#ArialMT-62" transform="translate(277.898438 0)"/>
      <use xlink:href="#ArialMT-73" transform="translate(333.513672 0)"/>
      <use xlink:href="#ArialMT-6f" transform="translate(383.513672 0)"/>
      <use xlink:href="#ArialMT-6c" transform="translate(439.128906 0)"/>
      <use xlink:href="#ArialMT-75" transform="translate(461.345703 0)"/>
      <use xlink:href="#ArialMT-74" transform="translate(516.960938 0)"/>
      <use xlink:href="#ArialMT-65" transform="translate(544.744141 0)"/>
      <use xlink:href="#ArialMT-20" transform="translate(600.359375 0)"/>
      <use xlink:href="#ArialMT-45" transform="translate(628.142578 0)"/>
      <use xlink:href="#ArialMT-72" transform="translate(694.841797 0)"/>
      <use xlink:href="#ArialMT-72" transform="translate(728.142578 0)"/>
      <use xlink:href="#ArialMT-6f" transform="translate(761.443359 0)"/>
      <use xlink:href="#ArialMT-72" transform="translate(817.058594 0)"/>
     </g>
    </g>
   </g>
   <g id="line2d_89">
    <path clip-path="url(#pbdda7e238f)" style="fill: none; stroke-dasharray: 1.5,2.475; stroke-dashoffset: 0; stroke: #0000ff; stroke-opacity: 0.5; stroke-width: 1.5"/>
   </g>
   <g id="patch_8">
    <path d="M 477.334548 249.54 
L 477.334548 48.48 
" style="fill: none; stroke: #cccccc; stroke-linejoin: miter; stroke-linecap: square"/>
   </g>
   <g id="patch_9">
    <path d="M 853.2 249.54 
L 853.2 48.48 
" style="fill: none; stroke: #cccccc; stroke-linejoin: miter; stroke-linecap: square"/>
   </g>
   <g id="patch_10">
    <path d="M 477.334548 249.54 
L 853.2 249.54 
" style="fill: none; stroke: #cccccc; stroke-linejoin: miter; stroke-linecap: square"/>
   </g>
   <g id="patch_11">
    <path d="M 477.334548 48.48 
L 853.2 48.48 
" style="fill: none; stroke: #cccccc; stroke-linejoin: miter; stroke-linecap: square"/>
   </g>
   <g id="PathCollection_11">
    <defs>
     <path id="m44ed016ffa" d="M 0 5.477226 
C 1.452577 5.477226 2.845856 4.900111 3.872983 3.872983 
C 4.900111 2.845856 5.477226 1.452577 5.477226 0 
C 5.477226 -1.452577 4.900111 -2.845856 3.872983 -3.872983 
C 2.845856 -4.900111 1.452577 -5.477226 0 -5.477226 
C -1.452577 -5.477226 -2.845856 -4.900111 -3.872983 -3.872983 
C -4.900111 -2.845856 -5.477226 -1.452577 -5.477226 0 
C -5.477226 1.452577 -4.900111 2.845856 -3.872983 3.872983 
C -2.845856 4.900111 -1.452577 5.477226 0 5.477226 
z
" style="stroke: #1f77b4"/>
    </defs>
    <g clip-path="url(#pbdda7e238f)">
     <use xlink:href="#m44ed016ffa" x="604.410336" y="53.437717" style="fill: #1f77b4; stroke: #1f77b4"/>
    </g>
   </g>
   <g id="PathCollection_12">
    <defs>
     <path id="maf2084704e" d="M -5.477226 5.477226 
L 5.477226 5.477226 
L 5.477226 -5.477226 
L -5.477226 -5.477226 
z
" style="stroke: #aec7e8"/>
    </defs>
    <g clip-path="url(#pbdda7e238f)">
     <use xlink:href="#maf2084704e" x="494.419341" y="234.215761" style="fill: #aec7e8; stroke: #aec7e8"/>
    </g>
   </g>
   <g id="PathCollection_13">
    <defs>
     <path id="mc32b6b5543" d="M 0 7.745967 
L 7.745967 0 
L 0 -7.745967 
L -7.745967 0 
z
" style="stroke: #ff7f0e"/>
    </defs>
    <g clip-path="url(#pbdda7e238f)">
     <use xlink:href="#mc32b6b5543" x="836.115207" y="237.932818" style="fill: #ff7f0e; stroke: #ff7f0e"/>
    </g>
   </g>
   <g id="PathCollection_14">
    <defs>
     <path id="mceb9c1f8f7" d="M 0 -5.477226 
L -5.477226 5.477226 
L 5.477226 5.477226 
z
" style="stroke: #ffbb78"/>
    </defs>
    <g clip-path="url(#pbdda7e238f)">
     <use xlink:href="#mceb9c1f8f7" x="637.848197" y="244.059498" style="fill: #ffbb78; stroke: #ffbb78"/>
    </g>
   </g>
   <g id="PathCollection_15">
    <defs>
     <path id="m948f616082" d="M -0 5.477226 
L 5.477226 -5.477226 
L -5.477226 -5.477226 
z
" style="stroke: #2ca02c"/>
    </defs>
    <g clip-path="url(#pbdda7e238f)">
     <use xlink:href="#m948f616082" x="649.349861" y="244.059498" style="fill: #2ca02c; stroke: #2ca02c"/>
    </g>
   </g>
   <g id="text_26">
    <!-- f64 Double Precision Implementation -->
    <g style="fill: #262626" transform="translate(568.698446 42.48) scale(0.11 -0.11)">
     <defs>
      <path id="Arial-BoldMT-36" d="M 3247 3459 
L 2397 3366 
Q 2366 3628 2234 3753 
Q 2103 3878 1894 3878 
Q 1616 3878 1423 3628 
Q 1231 3378 1181 2588 
Q 1509 2975 1997 2975 
Q 2547 2975 2939 2556 
Q 3331 2138 3331 1475 
Q 3331 772 2918 347 
Q 2506 -78 1859 -78 
Q 1166 -78 719 461 
Q 272 1000 272 2228 
Q 272 3488 737 4044 
Q 1203 4600 1947 4600 
Q 2469 4600 2811 4308 
Q 3153 4016 3247 3459 
z
M 1256 1544 
Q 1256 1116 1453 883 
Q 1650 650 1903 650 
Q 2147 650 2309 840 
Q 2472 1031 2472 1466 
Q 2472 1913 2297 2120 
Q 2122 2328 1859 2328 
Q 1606 2328 1431 2129 
Q 1256 1931 1256 1544 
z
" transform="scale(0.015625)"/>
      <path id="Arial-BoldMT-34" d="M 1994 0 
L 1994 922 
L 119 922 
L 119 1691 
L 2106 4600 
L 2844 4600 
L 2844 1694 
L 3413 1694 
L 3413 922 
L 2844 922 
L 2844 0 
L 1994 0 
z
M 1994 1694 
L 1994 3259 
L 941 1694 
L 1994 1694 
z
" transform="scale(0.015625)"/>
      <path id="Arial-BoldMT-44" d="M 463 4581 
L 2153 4581 
Q 2725 4581 3025 4494 
Q 3428 4375 3715 4072 
Q 4003 3769 4153 3330 
Q 4303 2891 4303 2247 
Q 4303 1681 4163 1272 
Q 3991 772 3672 463 
Q 3431 228 3022 97 
Q 2716 0 2203 0 
L 463 0 
L 463 4581 
z
M 1388 3806 
L 1388 772 
L 2078 772 
Q 2466 772 2638 816 
Q 2863 872 3011 1006 
Q 3159 1141 3253 1448 
Q 3347 1756 3347 2288 
Q 3347 2819 3253 3103 
Q 3159 3388 2990 3547 
Q 2822 3706 2563 3763 
Q 2369 3806 1803 3806 
L 1388 3806 
z
" transform="scale(0.015625)"/>
      <path id="Arial-BoldMT-75" d="M 2644 0 
L 2644 497 
Q 2463 231 2167 78 
Q 1872 -75 1544 -75 
Q 1209 -75 943 72 
Q 678 219 559 484 
Q 441 750 441 1219 
L 441 3319 
L 1319 3319 
L 1319 1794 
Q 1319 1094 1367 936 
Q 1416 778 1544 686 
Q 1672 594 1869 594 
Q 2094 594 2272 717 
Q 2450 841 2515 1023 
Q 2581 1206 2581 1919 
L 2581 3319 
L 3459 3319 
L 3459 0 
L 2644 0 
z
" transform="scale(0.015625)"/>
      <path id="Arial-BoldMT-62" d="M 422 0 
L 422 4581 
L 1300 4581 
L 1300 2931 
Q 1706 3394 2263 3394 
Q 2869 3394 3266 2955 
Q 3663 2516 3663 1694 
Q 3663 844 3258 384 
Q 2853 -75 2275 -75 
Q 1991 -75 1714 67 
Q 1438 209 1238 488 
L 1238 0 
L 422 0 
z
M 1294 1731 
Q 1294 1216 1456 969 
Q 1684 619 2063 619 
Q 2353 619 2558 867 
Q 2763 1116 2763 1650 
Q 2763 2219 2556 2470 
Q 2350 2722 2028 2722 
Q 1713 2722 1503 2476 
Q 1294 2231 1294 1731 
z
" transform="scale(0.015625)"/>
     </defs>
     <use xlink:href="#Arial-BoldMT-66"/>
     <use xlink:href="#Arial-BoldMT-36" transform="translate(33.300781 0)"/>
     <use xlink:href="#Arial-BoldMT-34" transform="translate(88.916016 0)"/>
     <use xlink:href="#Arial-BoldMT-20" transform="translate(144.53125 0)"/>
     <use xlink:href="#Arial-BoldMT-44" transform="translate(172.314453 0)"/>
     <use xlink:href="#Arial-BoldMT-6f" transform="translate(244.53125 0)"/>
     <use xlink:href="#Arial-BoldMT-75" transform="translate(305.615234 0)"/>
     <use xlink:href="#Arial-BoldMT-62" transform="translate(366.699219 0)"/>
     <use xlink:href="#Arial-BoldMT-6c" transform="translate(427.783203 0)"/>
     <use xlink:href="#Arial-BoldMT-65" transform="translate(455.566406 0)"/>
     <use xlink:href="#Arial-BoldMT-20" transform="translate(511.181641 0)"/>
     <use xlink:href="#Arial-BoldMT-50" transform="translate(538.964844 0)"/>
     <use xlink:href="#Arial-BoldMT-72" transform="translate(605.664062 0)"/>
     <use xlink:href="#Arial-BoldMT-65" transform="translate(644.580078 0)"/>
     <use xlink:href="#Arial-BoldMT-63" transform="translate(700.195312 0)"/>
     <use xlink:href="#Arial-BoldMT-69" transform="translate(755.810547 0)"/>
     <use xlink:href="#Arial-BoldMT-73" transform="translate(783.59375 0)"/>
     <use xlink:href="#Arial-BoldMT-69" transform="translate(839.208984 0)"/>
     <use xlink:href="#Arial-BoldMT-6f" transform="translate(866.992188 0)"/>
     <use xlink:href="#Arial-BoldMT-6e" transform="translate(928.076172 0)"/>
     <use xlink:href="#Arial-BoldMT-20" transform="translate(989.160156 0)"/>
     <use xlink:href="#Arial-BoldMT-49" transform="translate(1016.943359 0)"/>
     <use xlink:href="#Arial-BoldMT-6d" transform="translate(1044.726562 0)"/>
     <use xlink:href="#Arial-BoldMT-70" transform="translate(1133.642578 0)"/>
     <use xlink:href="#Arial-BoldMT-6c" transform="translate(1194.726562 0)"/>
     <use xlink:href="#Arial-BoldMT-65" transform="translate(1222.509766 0)"/>
     <use xlink:href="#Arial-BoldMT-6d" transform="translate(1278.125 0)"/>
     <use xlink:href="#Arial-BoldMT-65" transform="translate(1367.041016 0)"/>
     <use xlink:href="#Arial-BoldMT-6e" transform="translate(1422.65625 0)"/>
     <use xlink:href="#Arial-BoldMT-74" transform="translate(1483.740234 0)"/>
     <use xlink:href="#Arial-BoldMT-61" transform="translate(1517.041016 0)"/>
     <use xlink:href="#Arial-BoldMT-74" transform="translate(1572.65625 0)"/>
     <use xlink:href="#Arial-BoldMT-69" transform="translate(1605.957031 0)"/>
     <use xlink:href="#Arial-BoldMT-6f" transform="translate(1633.740234 0)"/>
     <use xlink:href="#Arial-BoldMT-6e" transform="translate(1694.824219 0)"/>
    </g>
   </g>
   <g id="legend_2">
    <g id="PathCollection_16">
     <g>
      <use xlink:href="#m44ed016ffa" x="721.973437" y="62.134687" style="fill: #1f77b4; stroke: #1f77b4"/>
     </g>
    </g>
    <g id="text_27">
     <!-- TDF2 (f64) -->
     <g style="fill: #262626" transform="translate(739.973437 64.759687) scale(0.1 -0.1)">
      <use xlink:href="#ArialMT-54"/>
      <use xlink:href="#ArialMT-44" transform="translate(61.083984 0)"/>
      <use xlink:href="#ArialMT-46" transform="translate(133.300781 0)"/>
      <use xlink:href="#ArialMT-32" transform="translate(194.384766 0)"/>
      <use xlink:href="#ArialMT-20" transform="translate(250 0)"/>
      <use xlink:href="#ArialMT-28" transform="translate(277.783203 0)"/>
      <use xlink:href="#ArialMT-66" transform="translate(311.083984 0)"/>
      <use xlink:href="#ArialMT-36" transform="translate(338.867188 0)"/>
      <use xlink:href="#ArialMT-34" transform="translate(394.482422 0)"/>
      <use xlink:href="#ArialMT-29" transform="translate(450.097656 0)"/>
     </g>
    </g>
    <g id="PathCollection_17">
     <g>
      <use xlink:href="#maf2084704e" x="721.973437" y="76.519062" style="fill: #aec7e8; stroke: #aec7e8"/>
     </g>
    </g>
    <g id="text_28">
     <!-- Hybrid Simple (f64) -->
     <g style="fill: #262626" transform="translate(739.973437 79.144062) scale(0.1 -0.1)">
      <use xlink:href="#ArialMT-48"/>
      <use xlink:href="#ArialMT-79" transform="translate(72.216797 0)"/>
      <use xlink:href="#ArialMT-62" transform="translate(122.216797 0)"/>
      <use xlink:href="#ArialMT-72" transform="translate(177.832031 0)"/>
      <use xlink:href="#ArialMT-69" transform="translate(211.132812 0)"/>
      <use xlink:href="#ArialMT-64" transform="translate(233.349609 0)"/>
      <use xlink:href="#ArialMT-20" transform="translate(288.964844 0)"/>
      <use xlink:href="#ArialMT-53" transform="translate(316.748047 0)"/>
      <use xlink:href="#ArialMT-69" transform="translate(383.447266 0)"/>
      <use xlink:href="#ArialMT-6d" transform="translate(405.664062 0)"/>
      <use xlink:href="#ArialMT-70" transform="translate(488.964844 0)"/>
      <use xlink:href="#ArialMT-6c" transform="translate(544.580078 0)"/>
      <use xlink:href="#ArialMT-65" transform="translate(566.796875 0)"/>
      <use xlink:href="#ArialMT-20" transform="translate(622.412109 0)"/>
      <use xlink:href="#ArialMT-28" transform="translate(650.195312 0)"/>
      <use xlink:href="#ArialMT-66" transform="translate(683.496094 0)"/>
      <use xlink:href="#ArialMT-36" transform="translate(711.279297 0)"/>
      <use xlink:href="#ArialMT-34" transform="translate(766.894531 0)"/>
      <use xlink:href="#ArialMT-29" transform="translate(822.509766 0)"/>
     </g>
    </g>
    <g id="PathCollection_18">
     <g>
      <use xlink:href="#mc32b6b5543" x="721.973437" y="90.903437" style="fill: #ff7f0e; stroke: #ff7f0e"/>
     </g>
    </g>
    <g id="text_29">
     <!-- Hybrid Kahan (f64) -->
     <g style="fill: #262626" transform="translate(739.973437 93.528437) scale(0.1 -0.1)">
      <use xlink:href="#ArialMT-48"/>
      <use xlink:href="#ArialMT-79" transform="translate(72.216797 0)"/>
      <use xlink:href="#ArialMT-62" transform="translate(122.216797 0)"/>
      <use xlink:href="#ArialMT-72" transform="translate(177.832031 0)"/>
      <use xlink:href="#ArialMT-69" transform="translate(211.132812 0)"/>
      <use xlink:href="#ArialMT-64" transform="translate(233.349609 0)"/>
      <use xlink:href="#ArialMT-20" transform="translate(288.964844 0)"/>
      <use xlink:href="#ArialMT-4b" transform="translate(316.748047 0)"/>
      <use xlink:href="#ArialMT-61" transform="translate(383.447266 0)"/>
      <use xlink:href="#ArialMT-68" transform="translate(439.0625 0)"/>
      <use xlink:href="#ArialMT-61" transform="translate(494.677734 0)"/>
      <use xlink:href="#ArialMT-6e" transform="translate(550.292969 0)"/>
      <use xlink:href="#ArialMT-20" transform="translate(605.908203 0)"/>
      <use xlink:href="#ArialMT-28" transform="translate(633.691406 0)"/>
      <use xlink:href="#ArialMT-66" transform="translate(666.992188 0)"/>
      <use xlink:href="#ArialMT-36" transform="translate(694.775391 0)"/>
      <use xlink:href="#ArialMT-34" transform="translate(750.390625 0)"/>
      <use xlink:href="#ArialMT-29" transform="translate(806.005859 0)"/>
     </g>
    </g>
    <g id="PathCollection_19">
     <g>
      <use xlink:href="#mceb9c1f8f7" x="721.973437" y="105.294062" style="fill: #ffbb78; stroke: #ffbb78"/>
     </g>
    </g>
    <g id="text_30">
     <!-- SOS Simple (f64) -->
     <g style="fill: #262626" transform="translate(739.973437 107.919062) scale(0.1 -0.1)">
      <use xlink:href="#ArialMT-53"/>
      <use xlink:href="#ArialMT-4f" transform="translate(66.699219 0)"/>
      <use xlink:href="#ArialMT-53" transform="translate(144.482422 0)"/>
      <use xlink:href="#ArialMT-20" transform="translate(211.181641 0)"/>
      <use xlink:href="#ArialMT-53" transform="translate(238.964844 0)"/>
      <use xlink:href="#ArialMT-69" transform="translate(305.664062 0)"/>
      <use xlink:href="#ArialMT-6d" transform="translate(327.880859 0)"/>
      <use xlink:href="#ArialMT-70" transform="translate(411.181641 0)"/>
      <use xlink:href="#ArialMT-6c" transform="translate(466.796875 0)"/>
      <use xlink:href="#ArialMT-65" transform="translate(489.013672 0)"/>
      <use xlink:href="#ArialMT-20" transform="translate(544.628906 0)"/>
      <use xlink:href="#ArialMT-28" transform="translate(572.412109 0)"/>
      <use xlink:href="#ArialMT-66" transform="translate(605.712891 0)"/>
      <use xlink:href="#ArialMT-36" transform="translate(633.496094 0)"/>
      <use xlink:href="#ArialMT-34" transform="translate(689.111328 0)"/>
      <use xlink:href="#ArialMT-29" transform="translate(744.726562 0)"/>
     </g>
    </g>
    <g id="PathCollection_20">
     <g>
      <use xlink:href="#m948f616082" x="721.973437" y="119.684687" style="fill: #2ca02c; stroke: #2ca02c"/>
     </g>
    </g>
    <g id="text_31">
     <!-- SOS Kahan (f64) -->
     <g style="fill: #262626" transform="translate(739.973437 122.309687) scale(0.1 -0.1)">
      <use xlink:href="#ArialMT-53"/>
      <use xlink:href="#ArialMT-4f" transform="translate(66.699219 0)"/>
      <use xlink:href="#ArialMT-53" transform="translate(144.482422 0)"/>
      <use xlink:href="#ArialMT-20" transform="translate(211.181641 0)"/>
      <use xlink:href="#ArialMT-4b" transform="translate(238.964844 0)"/>
      <use xlink:href="#ArialMT-61" transform="translate(305.664062 0)"/>
      <use xlink:href="#ArialMT-68" transform="translate(361.279297 0)"/>
      <use xlink:href="#ArialMT-61" transform="translate(416.894531 0)"/>
      <use xlink:href="#ArialMT-6e" transform="translate(472.509766 0)"/>
      <use xlink:href="#ArialMT-20" transform="translate(528.125 0)"/>
      <use xlink:href="#ArialMT-28" transform="translate(555.908203 0)"/>
      <use xlink:href="#ArialMT-66" transform="translate(589.208984 0)"/>
      <use xlink:href="#ArialMT-36" transform="translate(616.992188 0)"/>
      <use xlink:href="#ArialMT-34" transform="translate(672.607422 0)"/>
      <use xlink:href="#ArialMT-29" transform="translate(728.222656 0)"/>
     </g>
    </g>
    <g id="line2d_90">
     <path d="M 711.973437 133.194062 
L 721.973437 133.194062 
L 731.973437 133.194062 
" style="fill: none; stroke-dasharray: 1.5,2.475; stroke-dashoffset: 0; stroke: #0000ff; stroke-opacity: 0.5; stroke-width: 1.5"/>
    </g>
    <g id="text_32">
     <!-- f64 Epsilon (~2.22e-16) -->
     <g style="fill: #262626" transform="translate(739.973437 136.694062) scale(0.1 -0.1)">
      <use xlink:href="#ArialMT-66"/>
      <use xlink:href="#ArialMT-36" transform="translate(27.783203 0)"/>
      <use xlink:href="#ArialMT-34" transform="translate(83.398438 0)"/>
      <use xlink:href="#ArialMT-20" transform="translate(139.013672 0)"/>
      <use xlink:href="#ArialMT-45" transform="translate(166.796875 0)"/>
      <use xlink:href="#ArialMT-70" transform="translate(233.496094 0)"/>
      <use xlink:href="#ArialMT-73" transform="translate(289.111328 0)"/>
      <use xlink:href="#ArialMT-69" transform="translate(339.111328 0)"/>
      <use xlink:href="#ArialMT-6c" transform="translate(361.328125 0)"/>
      <use xlink:href="#ArialMT-6f" transform="translate(383.544922 0)"/>
      <use xlink:href="#ArialMT-6e" transform="translate(439.160156 0)"/>
      <use xlink:href="#ArialMT-20" transform="translate(494.775391 0)"/>
      <use xlink:href="#ArialMT-28" transform="translate(522.558594 0)"/>
      <use xlink:href="#ArialMT-7e" transform="translate(555.859375 0)"/>
      <use xlink:href="#ArialMT-32" transform="translate(614.257812 0)"/>
      <use xlink:href="#ArialMT-2e" transform="translate(669.873047 0)"/>
      <use xlink:href="#ArialMT-32" transform="translate(697.65625 0)"/>
      <use xlink:href="#ArialMT-32" transform="translate(753.271484 0)"/>
      <use xlink:href="#ArialMT-65" transform="translate(808.886719 0)"/>
      <use xlink:href="#ArialMT-2d" transform="translate(864.501953 0)"/>
      <use xlink:href="#ArialMT-31" transform="translate(897.802734 0)"/>
      <use xlink:href="#ArialMT-36" transform="translate(953.417969 0)"/>
      <use xlink:href="#ArialMT-29" transform="translate(1009.033203 0)"/>
     </g>
    </g>
   </g>
  </g>
  <g id="text_33">
   <!-- Filter Implementation Quality (Bottom-left is better) -->
   <g style="fill: #262626" transform="translate(262.445781 15.951562) scale(0.14 -0.14)">
    <defs>
     <path id="Arial-BoldMT-46" d="M 472 0 
L 472 4581 
L 3613 4581 
L 3613 3806 
L 1397 3806 
L 1397 2722 
L 3309 2722 
L 3309 1947 
L 1397 1947 
L 1397 0 
L 472 0 
z
" transform="scale(0.015625)"/>
     <path id="Arial-BoldMT-51" d="M 4153 581 
Q 4494 338 4894 194 
L 4553 -459 
Q 4344 -397 4144 -288 
Q 4100 -266 3528 119 
Q 3078 -78 2531 -78 
Q 1475 -78 876 544 
Q 278 1166 278 2291 
Q 278 3413 878 4036 
Q 1478 4659 2506 4659 
Q 3525 4659 4122 4036 
Q 4719 3413 4719 2291 
Q 4719 1697 4553 1247 
Q 4428 903 4153 581 
z
M 3409 1103 
Q 3588 1313 3677 1609 
Q 3766 1906 3766 2291 
Q 3766 3084 3416 3476 
Q 3066 3869 2500 3869 
Q 1934 3869 1582 3475 
Q 1231 3081 1231 2291 
Q 1231 1488 1582 1089 
Q 1934 691 2472 691 
Q 2672 691 2850 756 
Q 2569 941 2278 1044 
L 2538 1572 
Q 2994 1416 3409 1103 
z
" transform="scale(0.015625)"/>
     <path id="Arial-BoldMT-79" d="M 44 3319 
L 978 3319 
L 1772 963 
L 2547 3319 
L 3456 3319 
L 2284 125 
L 2075 -453 
Q 1959 -744 1854 -897 
Q 1750 -1050 1614 -1145 
Q 1478 -1241 1279 -1294 
Q 1081 -1347 831 -1347 
Q 578 -1347 334 -1294 
L 256 -606 
Q 463 -647 628 -647 
Q 934 -647 1081 -467 
Q 1228 -288 1306 -9 
L 44 3319 
z
" transform="scale(0.015625)"/>
     <path id="Arial-BoldMT-28" d="M 1916 -1347 
L 1313 -1347 
Q 834 -625 584 153 
Q 334 931 334 1659 
Q 334 2563 644 3369 
Q 913 4069 1325 4659 
L 1925 4659 
Q 1497 3713 1336 3048 
Q 1175 2384 1175 1641 
Q 1175 1128 1270 590 
Q 1366 53 1531 -431 
Q 1641 -750 1916 -1347 
z
" transform="scale(0.015625)"/>
     <path id="Arial-BoldMT-42" d="M 469 4581 
L 2300 4581 
Q 2844 4581 3111 4536 
Q 3378 4491 3589 4347 
Q 3800 4203 3940 3964 
Q 4081 3725 4081 3428 
Q 4081 3106 3907 2837 
Q 3734 2569 3438 2434 
Q 3856 2313 4081 2019 
Q 4306 1725 4306 1328 
Q 4306 1016 4161 720 
Q 4016 425 3764 248 
Q 3513 72 3144 31 
Q 2913 6 2028 0 
L 469 0 
L 469 4581 
z
M 1394 3819 
L 1394 2759 
L 2000 2759 
Q 2541 2759 2672 2775 
Q 2909 2803 3045 2939 
Q 3181 3075 3181 3297 
Q 3181 3509 3064 3642 
Q 2947 3775 2716 3803 
Q 2578 3819 1925 3819 
L 1394 3819 
z
M 1394 1997 
L 1394 772 
L 2250 772 
Q 2750 772 2884 800 
Q 3091 838 3220 983 
Q 3350 1128 3350 1372 
Q 3350 1578 3250 1722 
Q 3150 1866 2961 1931 
Q 2772 1997 2141 1997 
L 1394 1997 
z
" transform="scale(0.015625)"/>
     <path id="Arial-BoldMT-2d" d="M 359 1222 
L 359 2100 
L 2084 2100 
L 2084 1222 
L 359 1222 
z
" transform="scale(0.015625)"/>
     <path id="Arial-BoldMT-29" d="M 216 -1347 
Q 475 -791 581 -494 
Q 688 -197 778 190 
Q 869 578 912 926 
Q 956 1275 956 1641 
Q 956 2384 797 3048 
Q 638 3713 209 4659 
L 806 4659 
Q 1278 3988 1539 3234 
Q 1800 2481 1800 1706 
Q 1800 1053 1594 306 
Q 1359 -531 822 -1347 
L 216 -1347 
z
" transform="scale(0.015625)"/>
    </defs>
    <use xlink:href="#Arial-BoldMT-46"/>
    <use xlink:href="#Arial-BoldMT-69" transform="translate(61.083984 0)"/>
    <use xlink:href="#Arial-BoldMT-6c" transform="translate(88.867188 0)"/>
    <use xlink:href="#Arial-BoldMT-74" transform="translate(116.650391 0)"/>
    <use xlink:href="#Arial-BoldMT-65" transform="translate(149.951172 0)"/>
    <use xlink:href="#Arial-BoldMT-72" transform="translate(205.566406 0)"/>
    <use xlink:href="#Arial-BoldMT-20" transform="translate(244.482422 0)"/>
    <use xlink:href="#Arial-BoldMT-49" transform="translate(272.265625 0)"/>
    <use xlink:href="#Arial-BoldMT-6d" transform="translate(300.048828 0)"/>
    <use xlink:href="#Arial-BoldMT-70" transform="translate(388.964844 0)"/>
    <use xlink:href="#Arial-BoldMT-6c" transform="translate(450.048828 0)"/>
    <use xlink:href="#Arial-BoldMT-65" transform="translate(477.832031 0)"/>
    <use xlink:href="#Arial-BoldMT-6d" transform="translate(533.447266 0)"/>
    <use xlink:href="#Arial-BoldMT-65" transform="translate(622.363281 0)"/>
    <use xlink:href="#Arial-BoldMT-6e" transform="translate(677.978516 0)"/>
    <use xlink:href="#Arial-BoldMT-74" transform="translate(739.0625 0)"/>
    <use xlink:href="#Arial-BoldMT-61" transform="translate(772.363281 0)"/>
    <use xlink:href="#Arial-BoldMT-74" transform="translate(827.978516 0)"/>
    <use xlink:href="#Arial-BoldMT-69" transform="translate(861.279297 0)"/>
    <use xlink:href="#Arial-BoldMT-6f" transform="translate(889.0625 0)"/>
    <use xlink:href="#Arial-BoldMT-6e" transform="translate(950.146484 0)"/>
    <use xlink:href="#Arial-BoldMT-20" transform="translate(1011.230469 0)"/>
    <use xlink:href="#Arial-BoldMT-51" transform="translate(1039.013672 0)"/>
    <use xlink:href="#Arial-BoldMT-75" transform="translate(1116.796875 0)"/>
    <use xlink:href="#Arial-BoldMT-61" transform="translate(1177.880859 0)"/>
    <use xlink:href="#Arial-BoldMT-6c" transform="translate(1233.496094 0)"/>
    <use xlink:href="#Arial-BoldMT-69" transform="translate(1261.279297 0)"/>
    <use xlink:href="#Arial-BoldMT-74" transform="translate(1289.0625 0)"/>
    <use xlink:href="#Arial-BoldMT-79" transform="translate(1322.363281 0)"/>
    <use xlink:href="#Arial-BoldMT-20" transform="translate(1377.978516 0)"/>
    <use xlink:href="#Arial-BoldMT-28" transform="translate(1405.761719 0)"/>
    <use xlink:href="#Arial-BoldMT-42" transform="translate(1439.0625 0)"/>
    <use xlink:href="#Arial-BoldMT-6f" transform="translate(1511.279297 0)"/>
    <use xlink:href="#Arial-BoldMT-74" transform="translate(1572.363281 0)"/>
    <use xlink:href="#Arial-BoldMT-74" transform="translate(1605.664062 0)"/>
    <use xlink:href="#Arial-BoldMT-6f" transform="translate(1638.964844 0)"/>
    <use xlink:href="#Arial-BoldMT-6d" transform="translate(1700.048828 0)"/>
    <use xlink:href="#Arial-BoldMT-2d" transform="translate(1788.964844 0)"/>
    <use xlink:href="#Arial-BoldMT-6c" transform="translate(1822.265625 0)"/>
    <use xlink:href="#Arial-BoldMT-65" transform="translate(1850.048828 0)"/>
    <use xlink:href="#Arial-BoldMT-66" transform="translate(1905.664062 0)"/>
    <use xlink:href="#Arial-BoldMT-74" transform="translate(1938.964844 0)"/>
    <use xlink:href="#Arial-BoldMT-20" transform="translate(1972.265625 0)"/>
    <use xlink:href="#Arial-BoldMT-69" transform="translate(2000.048828 0)"/>
    <use xlink:href="#Arial-BoldMT-73" transform="translate(2027.832031 0)"/>
    <use xlink:href="#Arial-BoldMT-20" transform="translate(2083.447266 0)"/>
    <use xlink:href="#Arial-BoldMT-62" transform="translate(2111.230469 0)"/>
    <use xlink:href="#Arial-BoldMT-65" transform="translate(2172.314453 0)"/>
    <use xlink:href="#Arial-BoldMT-74" transform="translate(2227.929688 0)"/>
    <use xlink:href="#Arial-BoldMT-74" transform="translate(2261.230469 0)"/>
    <use xlink:href="#Arial-BoldMT-65" transform="translate(2294.53125 0)"/>
    <use xlink:href="#Arial-BoldMT-72" transform="translate(2350.146484 0)"/>
    <use xlink:href="#Arial-BoldMT-29" transform="translate(2389.0625 0)"/>
   </g>
  </g>
 </g>
 <defs>
  <clipPath id="pad69d4f7de">
   <rect x="48.789961" y="48.48" width="375.865452" height="201.06"/>
  </clipPath>
  <clipPath id="pbdda7e238f">
   <rect x="477.334548" y="48.48" width="375.865452" height="201.06"/>
  </clipPath>
 </defs>
</svg>
