<?xml version="1.0" encoding="utf-8" standalone="no"?>
<!DOCTYPE svg PUBLIC "-//W3C//DTD SVG 1.1//EN"
  "http://www.w3.org/Graphics/SVG/1.1/DTD/svg11.dtd">
<svg xmlns:xlink="http://www.w3.org/1999/xlink" width="432pt" height="252pt" viewBox="0 0 432 252" xmlns="http://www.w3.org/2000/svg" version="1.1">
 <metadata>
  <rdf:RDF xmlns:dc="http://purl.org/dc/elements/1.1/" xmlns:cc="http://creativecommons.org/ns#" xmlns:rdf="http://www.w3.org/1999/02/22-rdf-syntax-ns#">
   <cc:Work>
    <dc:type rdf:resource="http://purl.org/dc/dcmitype/StillImage"/>
    <dc:date>2024-08-29T00:50:37.449498</dc:date>
    <dc:format>image/svg+xml</dc:format>
    <dc:creator>
     <cc:Agent>
      <dc:title>Matplotlib v3.8.2, https://matplotlib.org/</dc:title>
     </cc:Agent>
    </dc:creator>
   </cc:Work>
  </rdf:RDF>
 </metadata>
 <defs>
  <style type="text/css">*{stroke-linejoin: round; stroke-linecap: butt}</style>
 </defs>
 <g id="figure_1">
  <g id="patch_1">
   <path d="M 0 252 
L 432 252 
L 432 0 
L 0 0 
z
" style="fill: #ffffff"/>
  </g>
  <g id="axes_1">
   <g id="patch_2">
    <path d="M 61.597979 206.728 
L 421.2 206.728 
L 421.2 26.88 
L 61.597979 26.88 
z
" style="fill: #ffffff"/>
   </g>
   <g id="matplotlib.axis_1">
    <g id="xtick_1">
     <g id="line2d_1">
      <path d="M 138.402611 206.728 
L 138.402611 26.88 
" clip-path="url(#p62b2e934c7)" style="fill: none; stroke: #f0f0f0; stroke-width: 0.8; stroke-linecap: square"/>
     </g>
     <g id="line2d_2">
      <defs>
       <path id="m0efb5c525c" d="M 0 0 
L 0 3.5 
" style="stroke: #000000; stroke-width: 0.8"/>
      </defs>
      <g>
       <use xlink:href="#m0efb5c525c" x="138.402611" y="206.728" style="stroke: #000000; stroke-width: 0.8"/>
      </g>
     </g>
     <g id="text_1">
      <!-- $\mathdefault{10^{-3}}$ -->
      <g transform="translate(126.652611 221.326437) scale(0.1 -0.1)">
       <defs>
        <path id="DejaVuSans-31" d="M 794 531 
L 1825 531 
L 1825 4091 
L 703 3866 
L 703 4441 
L 1819 4666 
L 2450 4666 
L 2450 531 
L 3481 531 
L 3481 0 
L 794 0 
L 794 531 
z
" transform="scale(0.015625)"/>
        <path id="DejaVuSans-30" d="M 2034 4250 
Q 1547 4250 1301 3770 
Q 1056 3291 1056 2328 
Q 1056 1369 1301 889 
Q 1547 409 2034 409 
Q 2525 409 2770 889 
Q 3016 1369 3016 2328 
Q 3016 3291 2770 3770 
Q 2525 4250 2034 4250 
z
M 2034 4750 
Q 2819 4750 3233 4129 
Q 3647 3509 3647 2328 
Q 3647 1150 3233 529 
Q 2819 -91 2034 -91 
Q 1250 -91 836 529 
Q 422 1150 422 2328 
Q 422 3509 836 4129 
Q 1250 4750 2034 4750 
z
" transform="scale(0.015625)"/>
        <path id="DejaVuSans-2212" d="M 678 2272 
L 4684 2272 
L 4684 1741 
L 678 1741 
L 678 2272 
z
" transform="scale(0.015625)"/>
        <path id="DejaVuSans-33" d="M 2597 2516 
Q 3050 2419 3304 2112 
Q 3559 1806 3559 1356 
Q 3559 666 3084 287 
Q 2609 -91 1734 -91 
Q 1441 -91 1130 -33 
Q 819 25 488 141 
L 488 750 
Q 750 597 1062 519 
Q 1375 441 1716 441 
Q 2309 441 2620 675 
Q 2931 909 2931 1356 
Q 2931 1769 2642 2001 
Q 2353 2234 1838 2234 
L 1294 2234 
L 1294 2753 
L 1863 2753 
Q 2328 2753 2575 2939 
Q 2822 3125 2822 3475 
Q 2822 3834 2567 4026 
Q 2313 4219 1838 4219 
Q 1578 4219 1281 4162 
Q 984 4106 628 3988 
L 628 4550 
Q 988 4650 1302 4700 
Q 1616 4750 1894 4750 
Q 2613 4750 3031 4423 
Q 3450 4097 3450 3541 
Q 3450 3153 3228 2886 
Q 3006 2619 2597 2516 
z
" transform="scale(0.015625)"/>
       </defs>
       <use xlink:href="#DejaVuSans-31" transform="translate(0 0.765625)"/>
       <use xlink:href="#DejaVuSans-30" transform="translate(63.623047 0.765625)"/>
       <use xlink:href="#DejaVuSans-2212" transform="translate(128.203125 39.046875) scale(0.7)"/>
       <use xlink:href="#DejaVuSans-33" transform="translate(186.855469 39.046875) scale(0.7)"/>
      </g>
     </g>
    </g>
    <g id="xtick_2">
     <g id="line2d_3">
      <path d="M 237.133899 206.728 
L 237.133899 26.88 
" clip-path="url(#p62b2e934c7)" style="fill: none; stroke: #f0f0f0; stroke-width: 0.8; stroke-linecap: square"/>
     </g>
     <g id="line2d_4">
      <g>
       <use xlink:href="#m0efb5c525c" x="237.133899" y="206.728" style="stroke: #000000; stroke-width: 0.8"/>
      </g>
     </g>
     <g id="text_2">
      <!-- $\mathdefault{10^{-2}}$ -->
      <g transform="translate(225.383899 221.326437) scale(0.1 -0.1)">
       <defs>
        <path id="DejaVuSans-32" d="M 1228 531 
L 3431 531 
L 3431 0 
L 469 0 
L 469 531 
Q 828 903 1448 1529 
Q 2069 2156 2228 2338 
Q 2531 2678 2651 2914 
Q 2772 3150 2772 3378 
Q 2772 3750 2511 3984 
Q 2250 4219 1831 4219 
Q 1534 4219 1204 4116 
Q 875 4013 500 3803 
L 500 4441 
Q 881 4594 1212 4672 
Q 1544 4750 1819 4750 
Q 2544 4750 2975 4387 
Q 3406 4025 3406 3419 
Q 3406 3131 3298 2873 
Q 3191 2616 2906 2266 
Q 2828 2175 2409 1742 
Q 1991 1309 1228 531 
z
" transform="scale(0.015625)"/>
       </defs>
       <use xlink:href="#DejaVuSans-31" transform="translate(0 0.765625)"/>
       <use xlink:href="#DejaVuSans-30" transform="translate(63.623047 0.765625)"/>
       <use xlink:href="#DejaVuSans-2212" transform="translate(128.203125 39.046875) scale(0.7)"/>
       <use xlink:href="#DejaVuSans-32" transform="translate(186.855469 39.046875) scale(0.7)"/>
      </g>
     </g>
    </g>
    <g id="xtick_3">
     <g id="line2d_5">
      <path d="M 335.865187 206.728 
L 335.865187 26.88 
" clip-path="url(#p62b2e934c7)" style="fill: none; stroke: #f0f0f0; stroke-width: 0.8; stroke-linecap: square"/>
     </g>
     <g id="line2d_6">
      <g>
       <use xlink:href="#m0efb5c525c" x="335.865187" y="206.728" style="stroke: #000000; stroke-width: 0.8"/>
      </g>
     </g>
     <g id="text_3">
      <!-- $\mathdefault{10^{-1}}$ -->
      <g transform="translate(324.115187 221.326437) scale(0.1 -0.1)">
       <use xlink:href="#DejaVuSans-31" transform="translate(0 0.684375)"/>
       <use xlink:href="#DejaVuSans-30" transform="translate(63.623047 0.684375)"/>
       <use xlink:href="#DejaVuSans-2212" transform="translate(128.203125 38.965625) scale(0.7)"/>
       <use xlink:href="#DejaVuSans-31" transform="translate(186.855469 38.965625) scale(0.7)"/>
      </g>
     </g>
    </g>
    <g id="xtick_4">
     <g id="line2d_7">
      <path d="M 69.392403 206.728 
L 69.392403 26.88 
" clip-path="url(#p62b2e934c7)" style="fill: none; stroke: #f0f0f0; stroke-width: 0.8; stroke-linecap: square"/>
     </g>
     <g id="line2d_8">
      <defs>
       <path id="m285a768541" d="M 0 0 
L 0 2 
" style="stroke: #000000; stroke-width: 0.6"/>
      </defs>
      <g>
       <use xlink:href="#m285a768541" x="69.392403" y="206.728" style="stroke: #000000; stroke-width: 0.6"/>
      </g>
     </g>
    </g>
    <g id="xtick_5">
     <g id="line2d_9">
      <path d="M 86.778119 206.728 
L 86.778119 26.88 
" clip-path="url(#p62b2e934c7)" style="fill: none; stroke: #f0f0f0; stroke-width: 0.8; stroke-linecap: square"/>
     </g>
     <g id="line2d_10">
      <g>
       <use xlink:href="#m285a768541" x="86.778119" y="206.728" style="stroke: #000000; stroke-width: 0.6"/>
      </g>
     </g>
    </g>
    <g id="xtick_6">
     <g id="line2d_11">
      <path d="M 99.113482 206.728 
L 99.113482 26.88 
" clip-path="url(#p62b2e934c7)" style="fill: none; stroke: #f0f0f0; stroke-width: 0.8; stroke-linecap: square"/>
     </g>
     <g id="line2d_12">
      <g>
       <use xlink:href="#m285a768541" x="99.113482" y="206.728" style="stroke: #000000; stroke-width: 0.6"/>
      </g>
     </g>
    </g>
    <g id="xtick_7">
     <g id="line2d_13">
      <path d="M 108.681532 206.728 
L 108.681532 26.88 
" clip-path="url(#p62b2e934c7)" style="fill: none; stroke: #f0f0f0; stroke-width: 0.8; stroke-linecap: square"/>
     </g>
     <g id="line2d_14">
      <g>
       <use xlink:href="#m285a768541" x="108.681532" y="206.728" style="stroke: #000000; stroke-width: 0.6"/>
      </g>
     </g>
    </g>
    <g id="xtick_8">
     <g id="line2d_15">
      <path d="M 116.499198 206.728 
L 116.499198 26.88 
" clip-path="url(#p62b2e934c7)" style="fill: none; stroke: #f0f0f0; stroke-width: 0.8; stroke-linecap: square"/>
     </g>
     <g id="line2d_16">
      <g>
       <use xlink:href="#m285a768541" x="116.499198" y="206.728" style="stroke: #000000; stroke-width: 0.6"/>
      </g>
     </g>
    </g>
    <g id="xtick_9">
     <g id="line2d_17">
      <path d="M 123.108941 206.728 
L 123.108941 26.88 
" clip-path="url(#p62b2e934c7)" style="fill: none; stroke: #f0f0f0; stroke-width: 0.8; stroke-linecap: square"/>
     </g>
     <g id="line2d_18">
      <g>
       <use xlink:href="#m285a768541" x="123.108941" y="206.728" style="stroke: #000000; stroke-width: 0.6"/>
      </g>
     </g>
    </g>
    <g id="xtick_10">
     <g id="line2d_19">
      <path d="M 128.834561 206.728 
L 128.834561 26.88 
" clip-path="url(#p62b2e934c7)" style="fill: none; stroke: #f0f0f0; stroke-width: 0.8; stroke-linecap: square"/>
     </g>
     <g id="line2d_20">
      <g>
       <use xlink:href="#m285a768541" x="128.834561" y="206.728" style="stroke: #000000; stroke-width: 0.6"/>
      </g>
     </g>
    </g>
    <g id="xtick_11">
     <g id="line2d_21">
      <path d="M 133.884915 206.728 
L 133.884915 26.88 
" clip-path="url(#p62b2e934c7)" style="fill: none; stroke: #f0f0f0; stroke-width: 0.8; stroke-linecap: square"/>
     </g>
     <g id="line2d_22">
      <g>
       <use xlink:href="#m285a768541" x="133.884915" y="206.728" style="stroke: #000000; stroke-width: 0.6"/>
      </g>
     </g>
    </g>
    <g id="xtick_12">
     <g id="line2d_23">
      <path d="M 168.12369 206.728 
L 168.12369 26.88 
" clip-path="url(#p62b2e934c7)" style="fill: none; stroke: #f0f0f0; stroke-width: 0.8; stroke-linecap: square"/>
     </g>
     <g id="line2d_24">
      <g>
       <use xlink:href="#m285a768541" x="168.12369" y="206.728" style="stroke: #000000; stroke-width: 0.6"/>
      </g>
     </g>
    </g>
    <g id="xtick_13">
     <g id="line2d_25">
      <path d="M 185.509407 206.728 
L 185.509407 26.88 
" clip-path="url(#p62b2e934c7)" style="fill: none; stroke: #f0f0f0; stroke-width: 0.8; stroke-linecap: square"/>
     </g>
     <g id="line2d_26">
      <g>
       <use xlink:href="#m285a768541" x="185.509407" y="206.728" style="stroke: #000000; stroke-width: 0.6"/>
      </g>
     </g>
    </g>
    <g id="xtick_14">
     <g id="line2d_27">
      <path d="M 197.844769 206.728 
L 197.844769 26.88 
" clip-path="url(#p62b2e934c7)" style="fill: none; stroke: #f0f0f0; stroke-width: 0.8; stroke-linecap: square"/>
     </g>
     <g id="line2d_28">
      <g>
       <use xlink:href="#m285a768541" x="197.844769" y="206.728" style="stroke: #000000; stroke-width: 0.6"/>
      </g>
     </g>
    </g>
    <g id="xtick_15">
     <g id="line2d_29">
      <path d="M 207.41282 206.728 
L 207.41282 26.88 
" clip-path="url(#p62b2e934c7)" style="fill: none; stroke: #f0f0f0; stroke-width: 0.8; stroke-linecap: square"/>
     </g>
     <g id="line2d_30">
      <g>
       <use xlink:href="#m285a768541" x="207.41282" y="206.728" style="stroke: #000000; stroke-width: 0.6"/>
      </g>
     </g>
    </g>
    <g id="xtick_16">
     <g id="line2d_31">
      <path d="M 215.230486 206.728 
L 215.230486 26.88 
" clip-path="url(#p62b2e934c7)" style="fill: none; stroke: #f0f0f0; stroke-width: 0.8; stroke-linecap: square"/>
     </g>
     <g id="line2d_32">
      <g>
       <use xlink:href="#m285a768541" x="215.230486" y="206.728" style="stroke: #000000; stroke-width: 0.6"/>
      </g>
     </g>
    </g>
    <g id="xtick_17">
     <g id="line2d_33">
      <path d="M 221.840229 206.728 
L 221.840229 26.88 
" clip-path="url(#p62b2e934c7)" style="fill: none; stroke: #f0f0f0; stroke-width: 0.8; stroke-linecap: square"/>
     </g>
     <g id="line2d_34">
      <g>
       <use xlink:href="#m285a768541" x="221.840229" y="206.728" style="stroke: #000000; stroke-width: 0.6"/>
      </g>
     </g>
    </g>
    <g id="xtick_18">
     <g id="line2d_35">
      <path d="M 227.565849 206.728 
L 227.565849 26.88 
" clip-path="url(#p62b2e934c7)" style="fill: none; stroke: #f0f0f0; stroke-width: 0.8; stroke-linecap: square"/>
     </g>
     <g id="line2d_36">
      <g>
       <use xlink:href="#m285a768541" x="227.565849" y="206.728" style="stroke: #000000; stroke-width: 0.6"/>
      </g>
     </g>
    </g>
    <g id="xtick_19">
     <g id="line2d_37">
      <path d="M 232.616203 206.728 
L 232.616203 26.88 
" clip-path="url(#p62b2e934c7)" style="fill: none; stroke: #f0f0f0; stroke-width: 0.8; stroke-linecap: square"/>
     </g>
     <g id="line2d_38">
      <g>
       <use xlink:href="#m285a768541" x="232.616203" y="206.728" style="stroke: #000000; stroke-width: 0.6"/>
      </g>
     </g>
    </g>
    <g id="xtick_20">
     <g id="line2d_39">
      <path d="M 266.854978 206.728 
L 266.854978 26.88 
" clip-path="url(#p62b2e934c7)" style="fill: none; stroke: #f0f0f0; stroke-width: 0.8; stroke-linecap: square"/>
     </g>
     <g id="line2d_40">
      <g>
       <use xlink:href="#m285a768541" x="266.854978" y="206.728" style="stroke: #000000; stroke-width: 0.6"/>
      </g>
     </g>
    </g>
    <g id="xtick_21">
     <g id="line2d_41">
      <path d="M 284.240695 206.728 
L 284.240695 26.88 
" clip-path="url(#p62b2e934c7)" style="fill: none; stroke: #f0f0f0; stroke-width: 0.8; stroke-linecap: square"/>
     </g>
     <g id="line2d_42">
      <g>
       <use xlink:href="#m285a768541" x="284.240695" y="206.728" style="stroke: #000000; stroke-width: 0.6"/>
      </g>
     </g>
    </g>
    <g id="xtick_22">
     <g id="line2d_43">
      <path d="M 296.576057 206.728 
L 296.576057 26.88 
" clip-path="url(#p62b2e934c7)" style="fill: none; stroke: #f0f0f0; stroke-width: 0.8; stroke-linecap: square"/>
     </g>
     <g id="line2d_44">
      <g>
       <use xlink:href="#m285a768541" x="296.576057" y="206.728" style="stroke: #000000; stroke-width: 0.6"/>
      </g>
     </g>
    </g>
    <g id="xtick_23">
     <g id="line2d_45">
      <path d="M 306.144108 206.728 
L 306.144108 26.88 
" clip-path="url(#p62b2e934c7)" style="fill: none; stroke: #f0f0f0; stroke-width: 0.8; stroke-linecap: square"/>
     </g>
     <g id="line2d_46">
      <g>
       <use xlink:href="#m285a768541" x="306.144108" y="206.728" style="stroke: #000000; stroke-width: 0.6"/>
      </g>
     </g>
    </g>
    <g id="xtick_24">
     <g id="line2d_47">
      <path d="M 313.961774 206.728 
L 313.961774 26.88 
" clip-path="url(#p62b2e934c7)" style="fill: none; stroke: #f0f0f0; stroke-width: 0.8; stroke-linecap: square"/>
     </g>
     <g id="line2d_48">
      <g>
       <use xlink:href="#m285a768541" x="313.961774" y="206.728" style="stroke: #000000; stroke-width: 0.6"/>
      </g>
     </g>
    </g>
    <g id="xtick_25">
     <g id="line2d_49">
      <path d="M 320.571517 206.728 
L 320.571517 26.88 
" clip-path="url(#p62b2e934c7)" style="fill: none; stroke: #f0f0f0; stroke-width: 0.8; stroke-linecap: square"/>
     </g>
     <g id="line2d_50">
      <g>
       <use xlink:href="#m285a768541" x="320.571517" y="206.728" style="stroke: #000000; stroke-width: 0.6"/>
      </g>
     </g>
    </g>
    <g id="xtick_26">
     <g id="line2d_51">
      <path d="M 326.297136 206.728 
L 326.297136 26.88 
" clip-path="url(#p62b2e934c7)" style="fill: none; stroke: #f0f0f0; stroke-width: 0.8; stroke-linecap: square"/>
     </g>
     <g id="line2d_52">
      <g>
       <use xlink:href="#m285a768541" x="326.297136" y="206.728" style="stroke: #000000; stroke-width: 0.6"/>
      </g>
     </g>
    </g>
    <g id="xtick_27">
     <g id="line2d_53">
      <path d="M 331.347491 206.728 
L 331.347491 26.88 
" clip-path="url(#p62b2e934c7)" style="fill: none; stroke: #f0f0f0; stroke-width: 0.8; stroke-linecap: square"/>
     </g>
     <g id="line2d_54">
      <g>
       <use xlink:href="#m285a768541" x="331.347491" y="206.728" style="stroke: #000000; stroke-width: 0.6"/>
      </g>
     </g>
    </g>
    <g id="xtick_28">
     <g id="line2d_55">
      <path d="M 365.586266 206.728 
L 365.586266 26.88 
" clip-path="url(#p62b2e934c7)" style="fill: none; stroke: #f0f0f0; stroke-width: 0.8; stroke-linecap: square"/>
     </g>
     <g id="line2d_56">
      <g>
       <use xlink:href="#m285a768541" x="365.586266" y="206.728" style="stroke: #000000; stroke-width: 0.6"/>
      </g>
     </g>
    </g>
    <g id="xtick_29">
     <g id="line2d_57">
      <path d="M 382.971983 206.728 
L 382.971983 26.88 
" clip-path="url(#p62b2e934c7)" style="fill: none; stroke: #f0f0f0; stroke-width: 0.8; stroke-linecap: square"/>
     </g>
     <g id="line2d_58">
      <g>
       <use xlink:href="#m285a768541" x="382.971983" y="206.728" style="stroke: #000000; stroke-width: 0.6"/>
      </g>
     </g>
    </g>
    <g id="xtick_30">
     <g id="line2d_59">
      <path d="M 395.307345 206.728 
L 395.307345 26.88 
" clip-path="url(#p62b2e934c7)" style="fill: none; stroke: #f0f0f0; stroke-width: 0.8; stroke-linecap: square"/>
     </g>
     <g id="line2d_60">
      <g>
       <use xlink:href="#m285a768541" x="395.307345" y="206.728" style="stroke: #000000; stroke-width: 0.6"/>
      </g>
     </g>
    </g>
    <g id="xtick_31">
     <g id="line2d_61">
      <path d="M 404.875395 206.728 
L 404.875395 26.88 
" clip-path="url(#p62b2e934c7)" style="fill: none; stroke: #f0f0f0; stroke-width: 0.8; stroke-linecap: square"/>
     </g>
     <g id="line2d_62">
      <g>
       <use xlink:href="#m285a768541" x="404.875395" y="206.728" style="stroke: #000000; stroke-width: 0.6"/>
      </g>
     </g>
    </g>
    <g id="xtick_32">
     <g id="line2d_63">
      <path d="M 412.693062 206.728 
L 412.693062 26.88 
" clip-path="url(#p62b2e934c7)" style="fill: none; stroke: #f0f0f0; stroke-width: 0.8; stroke-linecap: square"/>
     </g>
     <g id="line2d_64">
      <g>
       <use xlink:href="#m285a768541" x="412.693062" y="206.728" style="stroke: #000000; stroke-width: 0.6"/>
      </g>
     </g>
    </g>
    <g id="xtick_33">
     <g id="line2d_65">
      <path d="M 419.302805 206.728 
L 419.302805 26.88 
" clip-path="url(#p62b2e934c7)" style="fill: none; stroke: #f0f0f0; stroke-width: 0.8; stroke-linecap: square"/>
     </g>
     <g id="line2d_66">
      <g>
       <use xlink:href="#m285a768541" x="419.302805" y="206.728" style="stroke: #000000; stroke-width: 0.6"/>
      </g>
     </g>
    </g>
    <g id="text_4">
     <!-- Normalized Frequency [rad/2π] -->
     <g transform="translate(163.964614 235.004563) scale(0.1 -0.1)">
      <defs>
       <path id="DejaVuSans-4e" d="M 628 4666 
L 1478 4666 
L 3547 763 
L 3547 4666 
L 4159 4666 
L 4159 0 
L 3309 0 
L 1241 3903 
L 1241 0 
L 628 0 
L 628 4666 
z
" transform="scale(0.015625)"/>
       <path id="DejaVuSans-6f" d="M 1959 3097 
Q 1497 3097 1228 2736 
Q 959 2375 959 1747 
Q 959 1119 1226 758 
Q 1494 397 1959 397 
Q 2419 397 2687 759 
Q 2956 1122 2956 1747 
Q 2956 2369 2687 2733 
Q 2419 3097 1959 3097 
z
M 1959 3584 
Q 2709 3584 3137 3096 
Q 3566 2609 3566 1747 
Q 3566 888 3137 398 
Q 2709 -91 1959 -91 
Q 1206 -91 779 398 
Q 353 888 353 1747 
Q 353 2609 779 3096 
Q 1206 3584 1959 3584 
z
" transform="scale(0.015625)"/>
       <path id="DejaVuSans-72" d="M 2631 2963 
Q 2534 3019 2420 3045 
Q 2306 3072 2169 3072 
Q 1681 3072 1420 2755 
Q 1159 2438 1159 1844 
L 1159 0 
L 581 0 
L 581 3500 
L 1159 3500 
L 1159 2956 
Q 1341 3275 1631 3429 
Q 1922 3584 2338 3584 
Q 2397 3584 2469 3576 
Q 2541 3569 2628 3553 
L 2631 2963 
z
" transform="scale(0.015625)"/>
       <path id="DejaVuSans-6d" d="M 3328 2828 
Q 3544 3216 3844 3400 
Q 4144 3584 4550 3584 
Q 5097 3584 5394 3201 
Q 5691 2819 5691 2113 
L 5691 0 
L 5113 0 
L 5113 2094 
Q 5113 2597 4934 2840 
Q 4756 3084 4391 3084 
Q 3944 3084 3684 2787 
Q 3425 2491 3425 1978 
L 3425 0 
L 2847 0 
L 2847 2094 
Q 2847 2600 2669 2842 
Q 2491 3084 2119 3084 
Q 1678 3084 1418 2786 
Q 1159 2488 1159 1978 
L 1159 0 
L 581 0 
L 581 3500 
L 1159 3500 
L 1159 2956 
Q 1356 3278 1631 3431 
Q 1906 3584 2284 3584 
Q 2666 3584 2933 3390 
Q 3200 3197 3328 2828 
z
" transform="scale(0.015625)"/>
       <path id="DejaVuSans-61" d="M 2194 1759 
Q 1497 1759 1228 1600 
Q 959 1441 959 1056 
Q 959 750 1161 570 
Q 1363 391 1709 391 
Q 2188 391 2477 730 
Q 2766 1069 2766 1631 
L 2766 1759 
L 2194 1759 
z
M 3341 1997 
L 3341 0 
L 2766 0 
L 2766 531 
Q 2569 213 2275 61 
Q 1981 -91 1556 -91 
Q 1019 -91 701 211 
Q 384 513 384 1019 
Q 384 1609 779 1909 
Q 1175 2209 1959 2209 
L 2766 2209 
L 2766 2266 
Q 2766 2663 2505 2880 
Q 2244 3097 1772 3097 
Q 1472 3097 1187 3025 
Q 903 2953 641 2809 
L 641 3341 
Q 956 3463 1253 3523 
Q 1550 3584 1831 3584 
Q 2591 3584 2966 3190 
Q 3341 2797 3341 1997 
z
" transform="scale(0.015625)"/>
       <path id="DejaVuSans-6c" d="M 603 4863 
L 1178 4863 
L 1178 0 
L 603 0 
L 603 4863 
z
" transform="scale(0.015625)"/>
       <path id="DejaVuSans-69" d="M 603 3500 
L 1178 3500 
L 1178 0 
L 603 0 
L 603 3500 
z
M 603 4863 
L 1178 4863 
L 1178 4134 
L 603 4134 
L 603 4863 
z
" transform="scale(0.015625)"/>
       <path id="DejaVuSans-7a" d="M 353 3500 
L 3084 3500 
L 3084 2975 
L 922 459 
L 3084 459 
L 3084 0 
L 275 0 
L 275 525 
L 2438 3041 
L 353 3041 
L 353 3500 
z
" transform="scale(0.015625)"/>
       <path id="DejaVuSans-65" d="M 3597 1894 
L 3597 1613 
L 953 1613 
Q 991 1019 1311 708 
Q 1631 397 2203 397 
Q 2534 397 2845 478 
Q 3156 559 3463 722 
L 3463 178 
Q 3153 47 2828 -22 
Q 2503 -91 2169 -91 
Q 1331 -91 842 396 
Q 353 884 353 1716 
Q 353 2575 817 3079 
Q 1281 3584 2069 3584 
Q 2775 3584 3186 3129 
Q 3597 2675 3597 1894 
z
M 3022 2063 
Q 3016 2534 2758 2815 
Q 2500 3097 2075 3097 
Q 1594 3097 1305 2825 
Q 1016 2553 972 2059 
L 3022 2063 
z
" transform="scale(0.015625)"/>
       <path id="DejaVuSans-64" d="M 2906 2969 
L 2906 4863 
L 3481 4863 
L 3481 0 
L 2906 0 
L 2906 525 
Q 2725 213 2448 61 
Q 2172 -91 1784 -91 
Q 1150 -91 751 415 
Q 353 922 353 1747 
Q 353 2572 751 3078 
Q 1150 3584 1784 3584 
Q 2172 3584 2448 3432 
Q 2725 3281 2906 2969 
z
M 947 1747 
Q 947 1113 1208 752 
Q 1469 391 1925 391 
Q 2381 391 2643 752 
Q 2906 1113 2906 1747 
Q 2906 2381 2643 2742 
Q 2381 3103 1925 3103 
Q 1469 3103 1208 2742 
Q 947 2381 947 1747 
z
" transform="scale(0.015625)"/>
       <path id="DejaVuSans-20" transform="scale(0.015625)"/>
       <path id="DejaVuSans-46" d="M 628 4666 
L 3309 4666 
L 3309 4134 
L 1259 4134 
L 1259 2759 
L 3109 2759 
L 3109 2228 
L 1259 2228 
L 1259 0 
L 628 0 
L 628 4666 
z
" transform="scale(0.015625)"/>
       <path id="DejaVuSans-71" d="M 947 1747 
Q 947 1113 1208 752 
Q 1469 391 1925 391 
Q 2381 391 2643 752 
Q 2906 1113 2906 1747 
Q 2906 2381 2643 2742 
Q 2381 3103 1925 3103 
Q 1469 3103 1208 2742 
Q 947 2381 947 1747 
z
M 2906 525 
Q 2725 213 2448 61 
Q 2172 -91 1784 -91 
Q 1150 -91 751 415 
Q 353 922 353 1747 
Q 353 2572 751 3078 
Q 1150 3584 1784 3584 
Q 2172 3584 2448 3432 
Q 2725 3281 2906 2969 
L 2906 3500 
L 3481 3500 
L 3481 -1331 
L 2906 -1331 
L 2906 525 
z
" transform="scale(0.015625)"/>
       <path id="DejaVuSans-75" d="M 544 1381 
L 544 3500 
L 1119 3500 
L 1119 1403 
Q 1119 906 1312 657 
Q 1506 409 1894 409 
Q 2359 409 2629 706 
Q 2900 1003 2900 1516 
L 2900 3500 
L 3475 3500 
L 3475 0 
L 2900 0 
L 2900 538 
Q 2691 219 2414 64 
Q 2138 -91 1772 -91 
Q 1169 -91 856 284 
Q 544 659 544 1381 
z
M 1991 3584 
L 1991 3584 
z
" transform="scale(0.015625)"/>
       <path id="DejaVuSans-6e" d="M 3513 2113 
L 3513 0 
L 2938 0 
L 2938 2094 
Q 2938 2591 2744 2837 
Q 2550 3084 2163 3084 
Q 1697 3084 1428 2787 
Q 1159 2491 1159 1978 
L 1159 0 
L 581 0 
L 581 3500 
L 1159 3500 
L 1159 2956 
Q 1366 3272 1645 3428 
Q 1925 3584 2291 3584 
Q 2894 3584 3203 3211 
Q 3513 2838 3513 2113 
z
" transform="scale(0.015625)"/>
       <path id="DejaVuSans-63" d="M 3122 3366 
L 3122 2828 
Q 2878 2963 2633 3030 
Q 2388 3097 2138 3097 
Q 1578 3097 1268 2742 
Q 959 2388 959 1747 
Q 959 1106 1268 751 
Q 1578 397 2138 397 
Q 2388 397 2633 464 
Q 2878 531 3122 666 
L 3122 134 
Q 2881 22 2623 -34 
Q 2366 -91 2075 -91 
Q 1284 -91 818 406 
Q 353 903 353 1747 
Q 353 2603 823 3093 
Q 1294 3584 2113 3584 
Q 2378 3584 2631 3529 
Q 2884 3475 3122 3366 
z
" transform="scale(0.015625)"/>
       <path id="DejaVuSans-79" d="M 2059 -325 
Q 1816 -950 1584 -1140 
Q 1353 -1331 966 -1331 
L 506 -1331 
L 506 -850 
L 844 -850 
Q 1081 -850 1212 -737 
Q 1344 -625 1503 -206 
L 1606 56 
L 191 3500 
L 800 3500 
L 1894 763 
L 2988 3500 
L 3597 3500 
L 2059 -325 
z
" transform="scale(0.015625)"/>
       <path id="DejaVuSans-5b" d="M 550 4863 
L 1875 4863 
L 1875 4416 
L 1125 4416 
L 1125 -397 
L 1875 -397 
L 1875 -844 
L 550 -844 
L 550 4863 
z
" transform="scale(0.015625)"/>
       <path id="DejaVuSans-2f" d="M 1625 4666 
L 2156 4666 
L 531 -594 
L 0 -594 
L 1625 4666 
z
" transform="scale(0.015625)"/>
       <path id="DejaVuSans-3c0" d="M 231 3500 
L 3584 3500 
L 3584 2925 
L 3144 2925 
L 3144 775 
Q 3144 550 3220 451 
Q 3297 353 3469 353 
Q 3516 353 3584 361 
Q 3653 369 3675 372 
L 3675 -44 
Q 3566 -84 3450 -103 
Q 3334 -122 3219 -122 
Q 2844 -122 2700 83 
Q 2556 288 2556 838 
L 2556 2925 
L 1266 2925 
L 1266 0 
L 678 0 
L 678 2925 
L 231 2925 
L 231 3500 
z
" transform="scale(0.015625)"/>
       <path id="DejaVuSans-5d" d="M 1947 4863 
L 1947 -844 
L 622 -844 
L 622 -397 
L 1369 -397 
L 1369 4416 
L 622 4416 
L 622 4863 
L 1947 4863 
z
" transform="scale(0.015625)"/>
      </defs>
      <use xlink:href="#DejaVuSans-4e"/>
      <use xlink:href="#DejaVuSans-6f" x="74.804688"/>
      <use xlink:href="#DejaVuSans-72" x="135.986328"/>
      <use xlink:href="#DejaVuSans-6d" x="175.349609"/>
      <use xlink:href="#DejaVuSans-61" x="272.761719"/>
      <use xlink:href="#DejaVuSans-6c" x="334.041016"/>
      <use xlink:href="#DejaVuSans-69" x="361.824219"/>
      <use xlink:href="#DejaVuSans-7a" x="389.607422"/>
      <use xlink:href="#DejaVuSans-65" x="442.097656"/>
      <use xlink:href="#DejaVuSans-64" x="503.621094"/>
      <use xlink:href="#DejaVuSans-20" x="567.097656"/>
      <use xlink:href="#DejaVuSans-46" x="598.884766"/>
      <use xlink:href="#DejaVuSans-72" x="649.154297"/>
      <use xlink:href="#DejaVuSans-65" x="688.017578"/>
      <use xlink:href="#DejaVuSans-71" x="749.541016"/>
      <use xlink:href="#DejaVuSans-75" x="813.017578"/>
      <use xlink:href="#DejaVuSans-65" x="876.396484"/>
      <use xlink:href="#DejaVuSans-6e" x="937.919922"/>
      <use xlink:href="#DejaVuSans-63" x="1001.298828"/>
      <use xlink:href="#DejaVuSans-79" x="1056.279297"/>
      <use xlink:href="#DejaVuSans-20" x="1115.458984"/>
      <use xlink:href="#DejaVuSans-5b" x="1147.246094"/>
      <use xlink:href="#DejaVuSans-72" x="1186.259766"/>
      <use xlink:href="#DejaVuSans-61" x="1227.373047"/>
      <use xlink:href="#DejaVuSans-64" x="1288.652344"/>
      <use xlink:href="#DejaVuSans-2f" x="1352.128906"/>
      <use xlink:href="#DejaVuSans-32" x="1385.820312"/>
      <use xlink:href="#DejaVuSans-3c0" x="1449.443359"/>
      <use xlink:href="#DejaVuSans-5d" x="1509.648438"/>
     </g>
    </g>
   </g>
   <g id="matplotlib.axis_2">
    <g id="ytick_1">
     <g id="line2d_67">
      <path d="M 61.597979 198.554345 
L 421.2 198.554345 
" clip-path="url(#p62b2e934c7)" style="fill: none; stroke: #f0f0f0; stroke-width: 0.8; stroke-linecap: square"/>
     </g>
     <g id="line2d_68">
      <defs>
       <path id="m9973be67ae" d="M 0 0 
L -3.5 0 
" style="stroke: #000000; stroke-width: 0.8"/>
      </defs>
      <g>
       <use xlink:href="#m9973be67ae" x="61.597979" y="198.554345" style="stroke: #000000; stroke-width: 0.8"/>
      </g>
     </g>
     <g id="text_5">
      <!-- $-\pi$ -->
      <g transform="translate(40.197979 202.353564) scale(0.1 -0.1)">
       <defs>
        <path id="DejaVuSans-Oblique-3c0" d="M 584 3500 
L 3938 3500 
L 3825 2925 
L 3384 2925 
L 2966 775 
Q 2922 550 2981 450 
Q 3038 353 3209 353 
Q 3256 353 3325 363 
Q 3397 369 3419 372 
L 3338 -44 
Q 3222 -84 3103 -103 
Q 2981 -122 2866 -122 
Q 2491 -122 2388 81 
Q 2284 288 2391 838 
L 2797 2925 
L 1506 2925 
L 938 0 
L 350 0 
L 919 2925 
L 472 2925 
L 584 3500 
z
" transform="scale(0.015625)"/>
       </defs>
       <use xlink:href="#DejaVuSans-2212" transform="translate(0 0.3125)"/>
       <use xlink:href="#DejaVuSans-Oblique-3c0" transform="translate(83.789062 0.3125)"/>
      </g>
     </g>
    </g>
    <g id="ytick_2">
     <g id="line2d_69">
      <path d="M 61.597979 116.804627 
L 421.2 116.804627 
" clip-path="url(#p62b2e934c7)" style="fill: none; stroke: #f0f0f0; stroke-width: 0.8; stroke-linecap: square"/>
     </g>
     <g id="line2d_70">
      <g>
       <use xlink:href="#m9973be67ae" x="61.597979" y="116.804627" style="stroke: #000000; stroke-width: 0.8"/>
      </g>
     </g>
     <g id="text_6">
      <!-- $-\pi/2$ -->
      <g transform="translate(30.797979 120.603846) scale(0.1 -0.1)">
       <use xlink:href="#DejaVuSans-2212" transform="translate(0 0.78125)"/>
       <use xlink:href="#DejaVuSans-Oblique-3c0" transform="translate(83.789062 0.78125)"/>
       <use xlink:href="#DejaVuSans-2f" transform="translate(143.994141 0.78125)"/>
       <use xlink:href="#DejaVuSans-32" transform="translate(174.060547 0.78125)"/>
      </g>
     </g>
    </g>
    <g id="ytick_3">
     <g id="line2d_71">
      <path d="M 61.597979 35.054909 
L 421.2 35.054909 
" clip-path="url(#p62b2e934c7)" style="fill: none; stroke: #f0f0f0; stroke-width: 0.8; stroke-linecap: square"/>
     </g>
     <g id="line2d_72">
      <g>
       <use xlink:href="#m9973be67ae" x="61.597979" y="35.054909" style="stroke: #000000; stroke-width: 0.8"/>
      </g>
     </g>
     <g id="text_7">
      <!-- $0$ -->
      <g transform="translate(48.197979 38.854128) scale(0.1 -0.1)">
       <use xlink:href="#DejaVuSans-30" transform="translate(0 0.78125)"/>
      </g>
     </g>
    </g>
    <g id="ytick_4">
     <g id="line2d_73">
      <path d="M 61.597979 157.679486 
L 421.2 157.679486 
" clip-path="url(#p62b2e934c7)" style="fill: none; stroke: #f0f0f0; stroke-width: 0.8; stroke-linecap: square"/>
     </g>
     <g id="line2d_74">
      <defs>
       <path id="m7766bb395e" d="M 0 0 
L -2 0 
" style="stroke: #000000; stroke-width: 0.6"/>
      </defs>
      <g>
       <use xlink:href="#m7766bb395e" x="61.597979" y="157.679486" style="stroke: #000000; stroke-width: 0.6"/>
      </g>
     </g>
     <g id="text_8">
      <!-- $-3\pi/4$ -->
      <g transform="translate(25.697979 161.478705) scale(0.1 -0.1)">
       <defs>
        <path id="DejaVuSans-34" d="M 2419 4116 
L 825 1625 
L 2419 1625 
L 2419 4116 
z
M 2253 4666 
L 3047 4666 
L 3047 1625 
L 3713 1625 
L 3713 1100 
L 3047 1100 
L 3047 0 
L 2419 0 
L 2419 1100 
L 313 1100 
L 313 1709 
L 2253 4666 
z
" transform="scale(0.015625)"/>
       </defs>
       <use xlink:href="#DejaVuSans-2212" transform="translate(0 0.78125)"/>
       <use xlink:href="#DejaVuSans-33" transform="translate(83.789062 0.78125)"/>
       <use xlink:href="#DejaVuSans-Oblique-3c0" transform="translate(147.412109 0.78125)"/>
       <use xlink:href="#DejaVuSans-2f" transform="translate(207.617188 0.78125)"/>
       <use xlink:href="#DejaVuSans-34" transform="translate(241.308594 0.78125)"/>
      </g>
     </g>
    </g>
    <g id="ytick_5">
     <g id="line2d_75">
      <path d="M 61.597979 75.929768 
L 421.2 75.929768 
" clip-path="url(#p62b2e934c7)" style="fill: none; stroke: #f0f0f0; stroke-width: 0.8; stroke-linecap: square"/>
     </g>
     <g id="line2d_76">
      <g>
       <use xlink:href="#m7766bb395e" x="61.597979" y="75.929768" style="stroke: #000000; stroke-width: 0.6"/>
      </g>
     </g>
     <g id="text_9">
      <!-- $-\pi/4$ -->
      <g transform="translate(31.997979 79.728987) scale(0.1 -0.1)">
       <use xlink:href="#DejaVuSans-2212" transform="translate(0 0.09375)"/>
       <use xlink:href="#DejaVuSans-Oblique-3c0" transform="translate(83.789062 0.09375)"/>
       <use xlink:href="#DejaVuSans-2f" transform="translate(143.994141 0.09375)"/>
       <use xlink:href="#DejaVuSans-34" transform="translate(177.685547 0.09375)"/>
      </g>
     </g>
    </g>
    <g id="text_10">
     <!-- Phase [rad] -->
     <g transform="translate(19.618291 145.517281) rotate(-90) scale(0.1 -0.1)">
      <defs>
       <path id="DejaVuSans-50" d="M 1259 4147 
L 1259 2394 
L 2053 2394 
Q 2494 2394 2734 2622 
Q 2975 2850 2975 3272 
Q 2975 3691 2734 3919 
Q 2494 4147 2053 4147 
L 1259 4147 
z
M 628 4666 
L 2053 4666 
Q 2838 4666 3239 4311 
Q 3641 3956 3641 3272 
Q 3641 2581 3239 2228 
Q 2838 1875 2053 1875 
L 1259 1875 
L 1259 0 
L 628 0 
L 628 4666 
z
" transform="scale(0.015625)"/>
       <path id="DejaVuSans-68" d="M 3513 2113 
L 3513 0 
L 2938 0 
L 2938 2094 
Q 2938 2591 2744 2837 
Q 2550 3084 2163 3084 
Q 1697 3084 1428 2787 
Q 1159 2491 1159 1978 
L 1159 0 
L 581 0 
L 581 4863 
L 1159 4863 
L 1159 2956 
Q 1366 3272 1645 3428 
Q 1925 3584 2291 3584 
Q 2894 3584 3203 3211 
Q 3513 2838 3513 2113 
z
" transform="scale(0.015625)"/>
       <path id="DejaVuSans-73" d="M 2834 3397 
L 2834 2853 
Q 2591 2978 2328 3040 
Q 2066 3103 1784 3103 
Q 1356 3103 1142 2972 
Q 928 2841 928 2578 
Q 928 2378 1081 2264 
Q 1234 2150 1697 2047 
L 1894 2003 
Q 2506 1872 2764 1633 
Q 3022 1394 3022 966 
Q 3022 478 2636 193 
Q 2250 -91 1575 -91 
Q 1294 -91 989 -36 
Q 684 19 347 128 
L 347 722 
Q 666 556 975 473 
Q 1284 391 1588 391 
Q 1994 391 2212 530 
Q 2431 669 2431 922 
Q 2431 1156 2273 1281 
Q 2116 1406 1581 1522 
L 1381 1569 
Q 847 1681 609 1914 
Q 372 2147 372 2553 
Q 372 3047 722 3315 
Q 1072 3584 1716 3584 
Q 2034 3584 2315 3537 
Q 2597 3491 2834 3397 
z
" transform="scale(0.015625)"/>
      </defs>
      <use xlink:href="#DejaVuSans-50"/>
      <use xlink:href="#DejaVuSans-68" x="60.302734"/>
      <use xlink:href="#DejaVuSans-61" x="123.681641"/>
      <use xlink:href="#DejaVuSans-73" x="184.960938"/>
      <use xlink:href="#DejaVuSans-65" x="237.060547"/>
      <use xlink:href="#DejaVuSans-20" x="298.583984"/>
      <use xlink:href="#DejaVuSans-5b" x="330.371094"/>
      <use xlink:href="#DejaVuSans-72" x="369.384766"/>
      <use xlink:href="#DejaVuSans-61" x="410.498047"/>
      <use xlink:href="#DejaVuSans-64" x="471.777344"/>
      <use xlink:href="#DejaVuSans-5d" x="535.253906"/>
     </g>
    </g>
   </g>
   <g id="line2d_77">
    <path d="M -1 40.128757 
L 77.943525 40.132831 
L 107.664604 45.186703 
L 125.050321 50.19315 
L 137.385683 55.130104 
L 146.953734 59.977346 
L 154.7714 64.716928 
L 161.381143 69.333463 
L 167.106762 73.814278 
L 172.157117 78.149431 
L 176.674813 82.331633 
L 180.761566 86.356063 
L 187.924587 93.92325 
L 194.06053 100.852208 
L 201.878196 110.104618 
L 220.823301 132.826024 
L 226.548921 139.301861 
L 231.599275 144.725184 
L 237.175752 150.345592 
L 242.109747 154.968346 
L 246.534127 158.823312 
L 251.303311 162.669571 
L 255.594735 165.860734 
L 260.112431 168.952961 
L 264.752462 171.85652 
L 269.434758 174.522711 
L 274.100057 176.933235 
L 279.101267 179.265317 
L 284.282548 181.429665 
L 289.526136 183.383602 
L 295.290298 185.285203 
L 301.318235 187.028688 
L 307.62566 188.617404 
L 314.350823 190.080763 
L 321.646636 191.437499 
L 329.6099 192.687037 
L 338.346282 193.828223 
L 348.111476 194.874711 
L 359.270373 195.841093 
L 372.60975 196.76428 
L 391.236292 197.808446 
L 404.854454 198.553091 
L 404.854454 198.553091 
" clip-path="url(#p62b2e934c7)" style="fill: none; stroke: #0d0887; stroke-opacity: 0.75; stroke-width: 1.5; stroke-linecap: square"/>
   </g>
   <g id="line2d_78">
    <path d="M -1 37.683832 
L 77.943525 37.685944 
L 107.664604 40.313623 
L 125.050321 42.934619 
L 137.385683 45.545653 
L 146.953734 48.14352 
L 154.7714 50.725116 
L 161.381143 53.287452 
L 167.106762 55.827679 
L 172.157117 58.343102 
L 176.674813 60.831193 
L 180.761566 63.289602 
L 184.492479 65.71617 
L 187.924587 68.108929 
L 194.06053 72.78614 
L 199.427332 77.30944 
L 204.196515 81.67011 
L 208.487939 85.862319 
L 214.213558 91.82838 
L 219.263913 97.407222 
L 225.187586 104.257403 
L 233.917594 114.735531 
L 247.366745 130.896273 
L 253.502688 137.923628 
L 258.86949 143.759829 
L 264.199184 149.211574 
L 268.939048 153.742931 
L 273.655717 157.941839 
L 278.307199 161.775882 
L 282.864949 165.240536 
L 287.31052 168.349505 
L 291.925556 171.306722 
L 296.61791 174.046788 
L 301.318235 176.539621 
L 306.185961 178.875388 
L 311.30598 181.084901 
L 316.705526 183.166046 
L 322.36973 185.102958 
L 328.256378 186.879027 
L 334.525458 188.537767 
L 341.30459 190.097995 
L 348.658701 191.557735 
L 356.708772 192.925508 
L 365.784705 194.237224 
L 376.473757 195.54885 
L 391.236292 197.113984 
L 404.854454 198.551923 
L 404.854454 198.551923 
" clip-path="url(#p62b2e934c7)" style="fill: none; stroke: #4c02a1; stroke-opacity: 0.75; stroke-width: 1.5; stroke-linecap: square"/>
   </g>
   <g id="line2d_79">
    <path d="M -1 36.415626 
L 77.943525 36.416719 
L 107.664604 37.778064 
L 125.050321 39.138482 
L 137.385683 40.497509 
L 146.953734 41.854689 
L 154.7714 43.209565 
L 161.381143 44.561687 
L 167.106762 45.910611 
L 172.157117 47.255898 
L 176.674813 48.597117 
L 184.492479 51.265665 
L 191.102222 53.91298 
L 196.827841 56.535946 
L 201.878196 59.131627 
L 206.395892 61.697285 
L 210.482645 64.230388 
L 215.963942 67.964004 
L 220.823301 71.612357 
L 225.187586 75.169726 
L 230.391351 79.763576 
L 235.031383 84.179724 
L 240.203724 89.443018 
L 245.685021 95.378645 
L 252.049042 102.657064 
L 260.112431 112.287797 
L 277.087824 132.693663 
L 283.223767 139.658547 
L 288.590569 145.424356 
L 293.640923 150.524959 
L 298.410107 155.027853 
L 303.152887 159.192657 
L 307.827442 162.990552 
L 312.405487 166.419996 
L 317.031599 169.604286 
L 321.646636 172.513281 
L 326.469518 175.285333 
L 331.389344 177.851624 
L 336.426785 180.228687 
L 341.67186 182.459792 
L 347.237186 184.583928 
L 353.153087 186.600321 
L 359.512283 188.52846 
L 366.456714 190.39661 
L 374.265831 192.260668 
L 383.671122 194.266559 
L 404.854454 198.549665 
L 404.854454 198.549665 
" clip-path="url(#p62b2e934c7)" style="fill: none; stroke: #7e03a8; stroke-opacity: 0.75; stroke-width: 1.5; stroke-linecap: square"/>
   </g>
   <g id="line2d_80">
    <path d="M -1 35.757517 
L 77.943525 35.758081 
L 107.664604 36.461189 
L 125.050321 37.164171 
L 137.385683 37.866963 
L 146.953734 38.569502 
L 161.381143 39.973568 
L 172.157117 41.375869 
L 180.761566 42.775906 
L 187.924587 44.173186 
L 194.06053 45.567221 
L 199.427332 46.957532 
L 206.395892 49.034983 
L 212.388668 51.101436 
L 217.645666 53.155385 
L 222.327963 55.195379 
L 227.868362 57.891278 
L 232.774101 60.556811 
L 237.175752 63.189104 
L 242.109747 66.428736 
L 246.534127 69.607734 
L 251.303311 73.336934 
L 255.594735 76.967417 
L 260.112431 81.072334 
L 264.752462 85.585386 
L 269.924803 90.953358 
L 275.406101 96.992242 
L 281.398876 103.935495 
L 289.526136 113.731001 
L 305.553834 133.129326 
L 311.859258 140.353889 
L 317.355212 146.31614 
L 322.36973 151.437496 
L 327.24445 156.101185 
L 331.966452 160.313522 
L 336.632932 164.181562 
L 341.30459 167.767779 
L 346.015495 171.107172 
L 350.854194 174.265563 
L 355.863528 177.26825 
L 361.110423 180.150339 
L 366.661385 182.941507 
L 372.654161 185.701767 
L 379.41582 188.564179 
L 387.885643 191.893015 
L 403.901324 198.137245 
L 404.854454 198.545281 
L 404.854454 198.545281 
" clip-path="url(#p62b2e934c7)" style="fill: none; stroke: #aa2395; stroke-opacity: 0.75; stroke-width: 1.5; stroke-linecap: square"/>
   </g>
   <g id="line2d_81">
    <path d="M -1 35.414563 
L 77.943525 35.414852 
L 107.664604 35.774787 
L 137.385683 36.494599 
L 154.7714 37.21428 
L 167.106762 37.933765 
L 180.761566 39.012482 
L 191.102222 40.090391 
L 199.427332 41.167273 
L 208.487939 42.601143 
L 215.963942 44.032292 
L 222.327963 45.460214 
L 229.148411 47.239821 
L 235.031383 49.012655 
L 240.203724 50.777784 
L 245.685021 52.884494 
L 250.54438 54.977292 
L 255.594735 57.399378 
L 260.112431 59.798376 
L 264.752462 62.509201 
L 269.434758 65.516143 
L 274.100057 68.79989 
L 278.706071 72.337339 
L 283.223767 76.101605 
L 287.634133 80.062262 
L 292.216259 84.474647 
L 297.137656 89.540528 
L 302.245372 95.131271 
L 307.827442 101.580608 
L 314.523372 109.680495 
L 325.011377 122.783097 
L 335.486659 135.75235 
L 342.126566 143.617949 
L 347.953834 150.178293 
L 353.362421 155.935794 
L 358.597996 161.18869 
L 363.812322 166.108942 
L 369.188749 170.874532 
L 374.818013 175.564636 
L 381.088794 180.492385 
L 389.173013 186.540154 
L 400.769795 195.221441 
L 404.854454 198.536638 
L 404.854454 198.536638 
" clip-path="url(#p62b2e934c7)" style="fill: none; stroke: #cc4778; stroke-opacity: 0.75; stroke-width: 1.5; stroke-linecap: square"/>
   </g>
   <g id="line2d_82">
    <path d="M -1 35.232867 
L 77.943525 35.23301 
L 125.050321 35.589209 
L 154.7714 36.123487 
L 172.157117 36.657719 
L 187.924587 37.36992 
L 201.878196 38.259922 
L 212.388668 39.149549 
L 222.327963 40.216462 
L 231.599275 41.460086 
L 239.217969 42.702251 
L 246.534127 44.119721 
L 253.502688 45.711146 
L 259.495464 47.298595 
L 265.298691 49.057071 
L 270.888405 50.983999 
L 276.255207 53.076134 
L 281.398876 55.329467 
L 286.324765 57.739143 
L 291.041433 60.299375 
L 295.559129 63.003393 
L 300.13039 66.009346 
L 304.47913 69.137597 
L 308.822346 72.537913 
L 313.123135 76.1888 
L 317.516107 80.218615 
L 321.937338 84.586135 
L 326.469518 89.387221 
L 331.156308 94.688366 
L 336.011494 100.520806 
L 341.30459 107.236797 
L 347.237186 115.138482 
L 354.394029 125.061436 
L 365.680378 141.150145 
L 385.781148 169.766412 
L 395.007954 183.057805 
L 400.119757 190.804334 
L 404.029639 197.122571 
L 404.854454 198.51856 
L 404.854454 198.51856 
" clip-path="url(#p62b2e934c7)" style="fill: none; stroke: #e66c5c; stroke-opacity: 0.75; stroke-width: 1.5; stroke-linecap: square"/>
   </g>
   <g id="line2d_83">
    <path d="M -1 35.130303 
L 107.664604 35.205818 
L 154.7714 35.507638 
L 180.761566 35.884913 
L 201.878196 36.413103 
L 217.645666 37.016759 
L 231.599275 37.771351 
L 243.0319 38.601443 
L 253.502688 39.582531 
L 262.49518 40.639195 
L 270.888405 41.846981 
L 278.307199 43.130493 
L 285.315814 44.565354 
L 291.925556 46.151754 
L 297.905648 47.814354 
L 303.599541 49.628979 
L 308.822346 51.520324 
L 313.828969 53.564412 
L 318.625777 55.761772 
L 323.221647 58.113045 
L 327.626727 60.618993 
L 331.85165 63.280517 
L 335.90704 66.098664 
L 339.803222 69.074645 
L 343.637466 72.2864 
L 347.317407 75.65933 
L 350.927932 79.272242 
L 354.461929 83.127918 
L 357.914907 87.22951 
L 361.284372 91.580545 
L 364.569338 96.184915 
L 367.819652 101.125463 
L 371.025669 106.408008 
L 374.180245 112.038789 
L 377.278255 118.024321 
L 380.353296 124.45181 
L 383.395597 131.32936 
L 386.429851 138.746377 
L 389.44392 146.711166 
L 392.428225 155.23005 
L 395.427563 164.473307 
L 398.425868 174.442501 
L 401.455499 185.300672 
L 404.517985 197.118418 
L 404.854454 198.469878 
L 404.854454 198.469878 
" clip-path="url(#p62b2e934c7)" style="fill: none; stroke: #f89540; stroke-opacity: 0.75; stroke-width: 1.5; stroke-linecap: square"/>
   </g>
   <g id="line2d_84">
    <path d="M -1 35.054909 
L 404.854454 35.054909 
L 404.854454 35.054909 
" clip-path="url(#p62b2e934c7)" style="fill: none; stroke: #fdc527; stroke-opacity: 0.75; stroke-width: 1.5; stroke-linecap: square"/>
   </g>
   <g id="line2d_85">
    <path d="M 61.597979 116.804627 
L 421.2 116.804627 
" clip-path="url(#p62b2e934c7)" style="fill: none; stroke: #000000; stroke-linecap: square"/>
   </g>
   <g id="patch_3">
    <path d="M 61.597979 206.728 
L 61.597979 26.88 
" style="fill: none; stroke: #000000; stroke-width: 0.8; stroke-linejoin: miter; stroke-linecap: square"/>
   </g>
   <g id="patch_4">
    <path d="M 421.2 206.728 
L 421.2 26.88 
" style="fill: none; stroke: #000000; stroke-width: 0.8; stroke-linejoin: miter; stroke-linecap: square"/>
   </g>
   <g id="patch_5">
    <path d="M 61.597979 206.728 
L 421.2 206.728 
" style="fill: none; stroke: #000000; stroke-width: 0.8; stroke-linejoin: miter; stroke-linecap: square"/>
   </g>
   <g id="patch_6">
    <path d="M 61.597979 26.88 
L 421.2 26.88 
" style="fill: none; stroke: #000000; stroke-width: 0.8; stroke-linejoin: miter; stroke-linecap: square"/>
   </g>
   <g id="text_11">
    <!-- Phase Response of First Order Allpass Filter -->
    <g transform="translate(111.727739 20.88) scale(0.12 -0.12)">
     <defs>
      <path id="DejaVuSans-52" d="M 2841 2188 
Q 3044 2119 3236 1894 
Q 3428 1669 3622 1275 
L 4263 0 
L 3584 0 
L 2988 1197 
Q 2756 1666 2539 1819 
Q 2322 1972 1947 1972 
L 1259 1972 
L 1259 0 
L 628 0 
L 628 4666 
L 2053 4666 
Q 2853 4666 3247 4331 
Q 3641 3997 3641 3322 
Q 3641 2881 3436 2590 
Q 3231 2300 2841 2188 
z
M 1259 4147 
L 1259 2491 
L 2053 2491 
Q 2509 2491 2742 2702 
Q 2975 2913 2975 3322 
Q 2975 3731 2742 3939 
Q 2509 4147 2053 4147 
L 1259 4147 
z
" transform="scale(0.015625)"/>
      <path id="DejaVuSans-70" d="M 1159 525 
L 1159 -1331 
L 581 -1331 
L 581 3500 
L 1159 3500 
L 1159 2969 
Q 1341 3281 1617 3432 
Q 1894 3584 2278 3584 
Q 2916 3584 3314 3078 
Q 3713 2572 3713 1747 
Q 3713 922 3314 415 
Q 2916 -91 2278 -91 
Q 1894 -91 1617 61 
Q 1341 213 1159 525 
z
M 3116 1747 
Q 3116 2381 2855 2742 
Q 2594 3103 2138 3103 
Q 1681 3103 1420 2742 
Q 1159 2381 1159 1747 
Q 1159 1113 1420 752 
Q 1681 391 2138 391 
Q 2594 391 2855 752 
Q 3116 1113 3116 1747 
z
" transform="scale(0.015625)"/>
      <path id="DejaVuSans-66" d="M 2375 4863 
L 2375 4384 
L 1825 4384 
Q 1516 4384 1395 4259 
Q 1275 4134 1275 3809 
L 1275 3500 
L 2222 3500 
L 2222 3053 
L 1275 3053 
L 1275 0 
L 697 0 
L 697 3053 
L 147 3053 
L 147 3500 
L 697 3500 
L 697 3744 
Q 697 4328 969 4595 
Q 1241 4863 1831 4863 
L 2375 4863 
z
" transform="scale(0.015625)"/>
      <path id="DejaVuSans-74" d="M 1172 4494 
L 1172 3500 
L 2356 3500 
L 2356 3053 
L 1172 3053 
L 1172 1153 
Q 1172 725 1289 603 
Q 1406 481 1766 481 
L 2356 481 
L 2356 0 
L 1766 0 
Q 1100 0 847 248 
Q 594 497 594 1153 
L 594 3053 
L 172 3053 
L 172 3500 
L 594 3500 
L 594 4494 
L 1172 4494 
z
" transform="scale(0.015625)"/>
      <path id="DejaVuSans-4f" d="M 2522 4238 
Q 1834 4238 1429 3725 
Q 1025 3213 1025 2328 
Q 1025 1447 1429 934 
Q 1834 422 2522 422 
Q 3209 422 3611 934 
Q 4013 1447 4013 2328 
Q 4013 3213 3611 3725 
Q 3209 4238 2522 4238 
z
M 2522 4750 
Q 3503 4750 4090 4092 
Q 4678 3434 4678 2328 
Q 4678 1225 4090 567 
Q 3503 -91 2522 -91 
Q 1538 -91 948 565 
Q 359 1222 359 2328 
Q 359 3434 948 4092 
Q 1538 4750 2522 4750 
z
" transform="scale(0.015625)"/>
      <path id="DejaVuSans-41" d="M 2188 4044 
L 1331 1722 
L 3047 1722 
L 2188 4044 
z
M 1831 4666 
L 2547 4666 
L 4325 0 
L 3669 0 
L 3244 1197 
L 1141 1197 
L 716 0 
L 50 0 
L 1831 4666 
z
" transform="scale(0.015625)"/>
     </defs>
     <use xlink:href="#DejaVuSans-50"/>
     <use xlink:href="#DejaVuSans-68" x="60.302734"/>
     <use xlink:href="#DejaVuSans-61" x="123.681641"/>
     <use xlink:href="#DejaVuSans-73" x="184.960938"/>
     <use xlink:href="#DejaVuSans-65" x="237.060547"/>
     <use xlink:href="#DejaVuSans-20" x="298.583984"/>
     <use xlink:href="#DejaVuSans-52" x="330.371094"/>
     <use xlink:href="#DejaVuSans-65" x="395.353516"/>
     <use xlink:href="#DejaVuSans-73" x="456.876953"/>
     <use xlink:href="#DejaVuSans-70" x="508.976562"/>
     <use xlink:href="#DejaVuSans-6f" x="572.453125"/>
     <use xlink:href="#DejaVuSans-6e" x="633.634766"/>
     <use xlink:href="#DejaVuSans-73" x="697.013672"/>
     <use xlink:href="#DejaVuSans-65" x="749.113281"/>
     <use xlink:href="#DejaVuSans-20" x="810.636719"/>
     <use xlink:href="#DejaVuSans-6f" x="842.423828"/>
     <use xlink:href="#DejaVuSans-66" x="903.605469"/>
     <use xlink:href="#DejaVuSans-20" x="938.810547"/>
     <use xlink:href="#DejaVuSans-46" x="970.597656"/>
     <use xlink:href="#DejaVuSans-69" x="1020.867188"/>
     <use xlink:href="#DejaVuSans-72" x="1048.650391"/>
     <use xlink:href="#DejaVuSans-73" x="1089.763672"/>
     <use xlink:href="#DejaVuSans-74" x="1141.863281"/>
     <use xlink:href="#DejaVuSans-20" x="1181.072266"/>
     <use xlink:href="#DejaVuSans-4f" x="1212.859375"/>
     <use xlink:href="#DejaVuSans-72" x="1291.570312"/>
     <use xlink:href="#DejaVuSans-64" x="1330.933594"/>
     <use xlink:href="#DejaVuSans-65" x="1394.410156"/>
     <use xlink:href="#DejaVuSans-72" x="1455.933594"/>
     <use xlink:href="#DejaVuSans-20" x="1497.046875"/>
     <use xlink:href="#DejaVuSans-41" x="1528.833984"/>
     <use xlink:href="#DejaVuSans-6c" x="1597.242188"/>
     <use xlink:href="#DejaVuSans-6c" x="1625.025391"/>
     <use xlink:href="#DejaVuSans-70" x="1652.808594"/>
     <use xlink:href="#DejaVuSans-61" x="1716.285156"/>
     <use xlink:href="#DejaVuSans-73" x="1777.564453"/>
     <use xlink:href="#DejaVuSans-73" x="1829.664062"/>
     <use xlink:href="#DejaVuSans-20" x="1881.763672"/>
     <use xlink:href="#DejaVuSans-46" x="1913.550781"/>
     <use xlink:href="#DejaVuSans-69" x="1963.820312"/>
     <use xlink:href="#DejaVuSans-6c" x="1991.603516"/>
     <use xlink:href="#DejaVuSans-74" x="2019.386719"/>
     <use xlink:href="#DejaVuSans-65" x="2058.595703"/>
     <use xlink:href="#DejaVuSans-72" x="2120.119141"/>
    </g>
   </g>
   <g id="legend_1">
    <g id="patch_7">
     <path d="M 68.597979 201.728 
L 164.874541 201.728 
Q 166.874541 201.728 166.874541 199.728 
L 166.874541 81.078 
Q 166.874541 79.078 164.874541 79.078 
L 68.597979 79.078 
Q 66.597979 79.078 66.597979 81.078 
L 66.597979 199.728 
Q 66.597979 201.728 68.597979 201.728 
z
" style="fill: #ffffff; opacity: 0.8; stroke: #cccccc; stroke-linejoin: miter"/>
    </g>
    <g id="line2d_86">
     <path d="M 70.597979 87.176438 
L 80.597979 87.176438 
L 90.597979 87.176438 
" style="fill: none; stroke: #0d0887; stroke-opacity: 0.75; stroke-width: 1.5; stroke-linecap: square"/>
    </g>
    <g id="text_12">
     <!-- k_AP=-0.969 -->
     <g transform="translate(98.597979 90.676438) scale(0.1 -0.1)">
      <defs>
       <path id="DejaVuSans-6b" d="M 581 4863 
L 1159 4863 
L 1159 1991 
L 2875 3500 
L 3609 3500 
L 1753 1863 
L 3688 0 
L 2938 0 
L 1159 1709 
L 1159 0 
L 581 0 
L 581 4863 
z
" transform="scale(0.015625)"/>
       <path id="DejaVuSans-5f" d="M 3263 -1063 
L 3263 -1509 
L -63 -1509 
L -63 -1063 
L 3263 -1063 
z
" transform="scale(0.015625)"/>
       <path id="DejaVuSans-3d" d="M 678 2906 
L 4684 2906 
L 4684 2381 
L 678 2381 
L 678 2906 
z
M 678 1631 
L 4684 1631 
L 4684 1100 
L 678 1100 
L 678 1631 
z
" transform="scale(0.015625)"/>
       <path id="DejaVuSans-2d" d="M 313 2009 
L 1997 2009 
L 1997 1497 
L 313 1497 
L 313 2009 
z
" transform="scale(0.015625)"/>
       <path id="DejaVuSans-2e" d="M 684 794 
L 1344 794 
L 1344 0 
L 684 0 
L 684 794 
z
" transform="scale(0.015625)"/>
       <path id="DejaVuSans-39" d="M 703 97 
L 703 672 
Q 941 559 1184 500 
Q 1428 441 1663 441 
Q 2288 441 2617 861 
Q 2947 1281 2994 2138 
Q 2813 1869 2534 1725 
Q 2256 1581 1919 1581 
Q 1219 1581 811 2004 
Q 403 2428 403 3163 
Q 403 3881 828 4315 
Q 1253 4750 1959 4750 
Q 2769 4750 3195 4129 
Q 3622 3509 3622 2328 
Q 3622 1225 3098 567 
Q 2575 -91 1691 -91 
Q 1453 -91 1209 -44 
Q 966 3 703 97 
z
M 1959 2075 
Q 2384 2075 2632 2365 
Q 2881 2656 2881 3163 
Q 2881 3666 2632 3958 
Q 2384 4250 1959 4250 
Q 1534 4250 1286 3958 
Q 1038 3666 1038 3163 
Q 1038 2656 1286 2365 
Q 1534 2075 1959 2075 
z
" transform="scale(0.015625)"/>
       <path id="DejaVuSans-36" d="M 2113 2584 
Q 1688 2584 1439 2293 
Q 1191 2003 1191 1497 
Q 1191 994 1439 701 
Q 1688 409 2113 409 
Q 2538 409 2786 701 
Q 3034 994 3034 1497 
Q 3034 2003 2786 2293 
Q 2538 2584 2113 2584 
z
M 3366 4563 
L 3366 3988 
Q 3128 4100 2886 4159 
Q 2644 4219 2406 4219 
Q 1781 4219 1451 3797 
Q 1122 3375 1075 2522 
Q 1259 2794 1537 2939 
Q 1816 3084 2150 3084 
Q 2853 3084 3261 2657 
Q 3669 2231 3669 1497 
Q 3669 778 3244 343 
Q 2819 -91 2113 -91 
Q 1303 -91 875 529 
Q 447 1150 447 2328 
Q 447 3434 972 4092 
Q 1497 4750 2381 4750 
Q 2619 4750 2861 4703 
Q 3103 4656 3366 4563 
z
" transform="scale(0.015625)"/>
      </defs>
      <use xlink:href="#DejaVuSans-6b"/>
      <use xlink:href="#DejaVuSans-5f" x="57.910156"/>
      <use xlink:href="#DejaVuSans-41" x="107.910156"/>
      <use xlink:href="#DejaVuSans-50" x="176.318359"/>
      <use xlink:href="#DejaVuSans-3d" x="236.621094"/>
      <use xlink:href="#DejaVuSans-2d" x="320.410156"/>
      <use xlink:href="#DejaVuSans-30" x="356.494141"/>
      <use xlink:href="#DejaVuSans-2e" x="420.117188"/>
      <use xlink:href="#DejaVuSans-39" x="451.904297"/>
      <use xlink:href="#DejaVuSans-36" x="515.527344"/>
      <use xlink:href="#DejaVuSans-39" x="579.150391"/>
     </g>
    </g>
    <g id="line2d_87">
     <path d="M 70.597979 102.132688 
L 80.597979 102.132688 
L 90.597979 102.132688 
" style="fill: none; stroke: #4c02a1; stroke-opacity: 0.75; stroke-width: 1.5; stroke-linecap: square"/>
    </g>
    <g id="text_13">
     <!-- k_AP=-0.941 -->
     <g transform="translate(98.597979 105.632688) scale(0.1 -0.1)">
      <use xlink:href="#DejaVuSans-6b"/>
      <use xlink:href="#DejaVuSans-5f" x="57.910156"/>
      <use xlink:href="#DejaVuSans-41" x="107.910156"/>
      <use xlink:href="#DejaVuSans-50" x="176.318359"/>
      <use xlink:href="#DejaVuSans-3d" x="236.621094"/>
      <use xlink:href="#DejaVuSans-2d" x="320.410156"/>
      <use xlink:href="#DejaVuSans-30" x="356.494141"/>
      <use xlink:href="#DejaVuSans-2e" x="420.117188"/>
      <use xlink:href="#DejaVuSans-39" x="451.904297"/>
      <use xlink:href="#DejaVuSans-34" x="515.527344"/>
      <use xlink:href="#DejaVuSans-31" x="579.150391"/>
     </g>
    </g>
    <g id="line2d_88">
     <path d="M 70.597979 117.088938 
L 80.597979 117.088938 
L 90.597979 117.088938 
" style="fill: none; stroke: #7e03a8; stroke-opacity: 0.75; stroke-width: 1.5; stroke-linecap: square"/>
    </g>
    <g id="text_14">
     <!-- k_AP=-0.889 -->
     <g transform="translate(98.597979 120.588938) scale(0.1 -0.1)">
      <defs>
       <path id="DejaVuSans-38" d="M 2034 2216 
Q 1584 2216 1326 1975 
Q 1069 1734 1069 1313 
Q 1069 891 1326 650 
Q 1584 409 2034 409 
Q 2484 409 2743 651 
Q 3003 894 3003 1313 
Q 3003 1734 2745 1975 
Q 2488 2216 2034 2216 
z
M 1403 2484 
Q 997 2584 770 2862 
Q 544 3141 544 3541 
Q 544 4100 942 4425 
Q 1341 4750 2034 4750 
Q 2731 4750 3128 4425 
Q 3525 4100 3525 3541 
Q 3525 3141 3298 2862 
Q 3072 2584 2669 2484 
Q 3125 2378 3379 2068 
Q 3634 1759 3634 1313 
Q 3634 634 3220 271 
Q 2806 -91 2034 -91 
Q 1263 -91 848 271 
Q 434 634 434 1313 
Q 434 1759 690 2068 
Q 947 2378 1403 2484 
z
M 1172 3481 
Q 1172 3119 1398 2916 
Q 1625 2713 2034 2713 
Q 2441 2713 2670 2916 
Q 2900 3119 2900 3481 
Q 2900 3844 2670 4047 
Q 2441 4250 2034 4250 
Q 1625 4250 1398 4047 
Q 1172 3844 1172 3481 
z
" transform="scale(0.015625)"/>
      </defs>
      <use xlink:href="#DejaVuSans-6b"/>
      <use xlink:href="#DejaVuSans-5f" x="57.910156"/>
      <use xlink:href="#DejaVuSans-41" x="107.910156"/>
      <use xlink:href="#DejaVuSans-50" x="176.318359"/>
      <use xlink:href="#DejaVuSans-3d" x="236.621094"/>
      <use xlink:href="#DejaVuSans-2d" x="320.410156"/>
      <use xlink:href="#DejaVuSans-30" x="356.494141"/>
      <use xlink:href="#DejaVuSans-2e" x="420.117188"/>
      <use xlink:href="#DejaVuSans-38" x="451.904297"/>
      <use xlink:href="#DejaVuSans-38" x="515.527344"/>
      <use xlink:href="#DejaVuSans-39" x="579.150391"/>
     </g>
    </g>
    <g id="line2d_89">
     <path d="M 70.597979 132.045188 
L 80.597979 132.045188 
L 90.597979 132.045188 
" style="fill: none; stroke: #aa2395; stroke-opacity: 0.75; stroke-width: 1.5; stroke-linecap: square"/>
    </g>
    <g id="text_15">
     <!-- k_AP=-0.796 -->
     <g transform="translate(98.597979 135.545188) scale(0.1 -0.1)">
      <defs>
       <path id="DejaVuSans-37" d="M 525 4666 
L 3525 4666 
L 3525 4397 
L 1831 0 
L 1172 0 
L 2766 4134 
L 525 4134 
L 525 4666 
z
" transform="scale(0.015625)"/>
      </defs>
      <use xlink:href="#DejaVuSans-6b"/>
      <use xlink:href="#DejaVuSans-5f" x="57.910156"/>
      <use xlink:href="#DejaVuSans-41" x="107.910156"/>
      <use xlink:href="#DejaVuSans-50" x="176.318359"/>
      <use xlink:href="#DejaVuSans-3d" x="236.621094"/>
      <use xlink:href="#DejaVuSans-2d" x="320.410156"/>
      <use xlink:href="#DejaVuSans-30" x="356.494141"/>
      <use xlink:href="#DejaVuSans-2e" x="420.117188"/>
      <use xlink:href="#DejaVuSans-37" x="451.904297"/>
      <use xlink:href="#DejaVuSans-39" x="515.527344"/>
      <use xlink:href="#DejaVuSans-36" x="579.150391"/>
     </g>
    </g>
    <g id="line2d_90">
     <path d="M 70.597979 147.001438 
L 80.597979 147.001438 
L 90.597979 147.001438 
" style="fill: none; stroke: #cc4778; stroke-opacity: 0.75; stroke-width: 1.5; stroke-linecap: square"/>
    </g>
    <g id="text_16">
     <!-- k_AP=-0.637 -->
     <g transform="translate(98.597979 150.501438) scale(0.1 -0.1)">
      <use xlink:href="#DejaVuSans-6b"/>
      <use xlink:href="#DejaVuSans-5f" x="57.910156"/>
      <use xlink:href="#DejaVuSans-41" x="107.910156"/>
      <use xlink:href="#DejaVuSans-50" x="176.318359"/>
      <use xlink:href="#DejaVuSans-3d" x="236.621094"/>
      <use xlink:href="#DejaVuSans-2d" x="320.410156"/>
      <use xlink:href="#DejaVuSans-30" x="356.494141"/>
      <use xlink:href="#DejaVuSans-2e" x="420.117188"/>
      <use xlink:href="#DejaVuSans-36" x="451.904297"/>
      <use xlink:href="#DejaVuSans-33" x="515.527344"/>
      <use xlink:href="#DejaVuSans-37" x="579.150391"/>
     </g>
    </g>
    <g id="line2d_91">
     <path d="M 70.597979 161.957688 
L 80.597979 161.957688 
L 90.597979 161.957688 
" style="fill: none; stroke: #e66c5c; stroke-opacity: 0.75; stroke-width: 1.5; stroke-linecap: square"/>
    </g>
    <g id="text_17">
     <!-- k_AP=-0.381 -->
     <g transform="translate(98.597979 165.457688) scale(0.1 -0.1)">
      <use xlink:href="#DejaVuSans-6b"/>
      <use xlink:href="#DejaVuSans-5f" x="57.910156"/>
      <use xlink:href="#DejaVuSans-41" x="107.910156"/>
      <use xlink:href="#DejaVuSans-50" x="176.318359"/>
      <use xlink:href="#DejaVuSans-3d" x="236.621094"/>
      <use xlink:href="#DejaVuSans-2d" x="320.410156"/>
      <use xlink:href="#DejaVuSans-30" x="356.494141"/>
      <use xlink:href="#DejaVuSans-2e" x="420.117188"/>
      <use xlink:href="#DejaVuSans-33" x="451.904297"/>
      <use xlink:href="#DejaVuSans-38" x="515.527344"/>
      <use xlink:href="#DejaVuSans-31" x="579.150391"/>
     </g>
    </g>
    <g id="line2d_92">
     <path d="M 70.597979 176.913938 
L 80.597979 176.913938 
L 90.597979 176.913938 
" style="fill: none; stroke: #f89540; stroke-opacity: 0.75; stroke-width: 1.5; stroke-linecap: square"/>
    </g>
    <g id="text_18">
     <!-- k_AP=0.028 -->
     <g transform="translate(98.597979 180.413938) scale(0.1 -0.1)">
      <use xlink:href="#DejaVuSans-6b"/>
      <use xlink:href="#DejaVuSans-5f" x="57.910156"/>
      <use xlink:href="#DejaVuSans-41" x="107.910156"/>
      <use xlink:href="#DejaVuSans-50" x="176.318359"/>
      <use xlink:href="#DejaVuSans-3d" x="236.621094"/>
      <use xlink:href="#DejaVuSans-30" x="320.410156"/>
      <use xlink:href="#DejaVuSans-2e" x="384.033203"/>
      <use xlink:href="#DejaVuSans-30" x="415.820312"/>
      <use xlink:href="#DejaVuSans-32" x="479.443359"/>
      <use xlink:href="#DejaVuSans-38" x="543.066406"/>
     </g>
    </g>
    <g id="line2d_93">
     <path d="M 70.597979 191.870188 
L 80.597979 191.870188 
L 90.597979 191.870188 
" style="fill: none; stroke: #fdc527; stroke-opacity: 0.75; stroke-width: 1.5; stroke-linecap: square"/>
    </g>
    <g id="text_19">
     <!-- k_AP=1.000 -->
     <g transform="translate(98.597979 195.370188) scale(0.1 -0.1)">
      <use xlink:href="#DejaVuSans-6b"/>
      <use xlink:href="#DejaVuSans-5f" x="57.910156"/>
      <use xlink:href="#DejaVuSans-41" x="107.910156"/>
      <use xlink:href="#DejaVuSans-50" x="176.318359"/>
      <use xlink:href="#DejaVuSans-3d" x="236.621094"/>
      <use xlink:href="#DejaVuSans-31" x="320.410156"/>
      <use xlink:href="#DejaVuSans-2e" x="384.033203"/>
      <use xlink:href="#DejaVuSans-30" x="415.820312"/>
      <use xlink:href="#DejaVuSans-30" x="479.443359"/>
      <use xlink:href="#DejaVuSans-30" x="543.066406"/>
     </g>
    </g>
   </g>
  </g>
 </g>
 <defs>
  <clipPath id="p62b2e934c7">
   <rect x="61.597979" y="26.88" width="359.602021" height="179.848"/>
  </clipPath>
 </defs>
</svg>
