<?xml version="1.0" encoding="utf-8" standalone="no"?>
<!DOCTYPE svg PUBLIC "-//W3C//DTD SVG 1.1//EN"
  "http://www.w3.org/Graphics/SVG/1.1/DTD/svg11.dtd">
<svg xmlns:xlink="http://www.w3.org/1999/xlink" width="720pt" height="432pt" viewBox="0 0 720 432" xmlns="http://www.w3.org/2000/svg" version="1.1">
 <metadata>
  <rdf:RDF xmlns:dc="http://purl.org/dc/elements/1.1/" xmlns:cc="http://creativecommons.org/ns#" xmlns:rdf="http://www.w3.org/1999/02/22-rdf-syntax-ns#">
   <cc:Work>
    <dc:type rdf:resource="http://purl.org/dc/dcmitype/StillImage"/>
    <dc:date>2022-05-07T13:24:39.764674</dc:date>
    <dc:format>image/svg+xml</dc:format>
    <dc:creator>
     <cc:Agent>
      <dc:title>Matplotlib v3.5.1, https://matplotlib.org/</dc:title>
     </cc:Agent>
    </dc:creator>
   </cc:Work>
  </rdf:RDF>
 </metadata>
 <defs>
  <style type="text/css">*{stroke-linejoin: round; stroke-linecap: butt}</style>
 </defs>
 <g id="figure_1">
  <g id="patch_1">
   <path d="M 0 432 
L 720 432 
L 720 0 
L 0 0 
z
" style="fill: #ffffff"/>
  </g>
  <g id="axes_1">
   <g id="patch_2">
    <path d="M 52.94 191.32 
L 357.21 191.32 
L 357.21 34.56 
L 52.94 34.56 
z
" style="fill: #ffffff"/>
   </g>
   <g id="matplotlib.axis_1">
    <g id="xtick_1">
     <g id="line2d_1">
      <path d="M 66.770455 191.32 
L 66.770455 34.56 
" clip-path="url(#p45a18b9c5d)" style="fill: none; stroke: #f0f0f0; stroke-width: 0.8; stroke-linecap: square"/>
     </g>
     <g id="line2d_2">
      <defs>
       <path id="ma8936085a4" d="M 0 0 
L 0 3.5 
" style="stroke: #000000; stroke-width: 0.8"/>
      </defs>
      <g>
       <use xlink:href="#ma8936085a4" x="66.770455" y="191.32" style="stroke: #000000; stroke-width: 0.8"/>
      </g>
     </g>
     <g id="text_1">
      <!-- 0.0 -->
      <g transform="translate(58.818892 205.918437)scale(0.1 -0.1)">
       <defs>
        <path id="DejaVuSans-30" d="M 2034 4250 
Q 1547 4250 1301 3770 
Q 1056 3291 1056 2328 
Q 1056 1369 1301 889 
Q 1547 409 2034 409 
Q 2525 409 2770 889 
Q 3016 1369 3016 2328 
Q 3016 3291 2770 3770 
Q 2525 4250 2034 4250 
z
M 2034 4750 
Q 2819 4750 3233 4129 
Q 3647 3509 3647 2328 
Q 3647 1150 3233 529 
Q 2819 -91 2034 -91 
Q 1250 -91 836 529 
Q 422 1150 422 2328 
Q 422 3509 836 4129 
Q 1250 4750 2034 4750 
z
" transform="scale(0.015625)"/>
        <path id="DejaVuSans-2e" d="M 684 794 
L 1344 794 
L 1344 0 
L 684 0 
L 684 794 
z
" transform="scale(0.015625)"/>
       </defs>
       <use xlink:href="#DejaVuSans-30"/>
       <use xlink:href="#DejaVuSans-2e" x="63.623047"/>
       <use xlink:href="#DejaVuSans-30" x="95.410156"/>
      </g>
     </g>
    </g>
    <g id="xtick_2">
     <g id="line2d_3">
      <path d="M 122.119299 191.32 
L 122.119299 34.56 
" clip-path="url(#p45a18b9c5d)" style="fill: none; stroke: #f0f0f0; stroke-width: 0.8; stroke-linecap: square"/>
     </g>
     <g id="line2d_4">
      <g>
       <use xlink:href="#ma8936085a4" x="122.119299" y="191.32" style="stroke: #000000; stroke-width: 0.8"/>
      </g>
     </g>
     <g id="text_2">
      <!-- 0.2 -->
      <g transform="translate(114.167736 205.918437)scale(0.1 -0.1)">
       <defs>
        <path id="DejaVuSans-32" d="M 1228 531 
L 3431 531 
L 3431 0 
L 469 0 
L 469 531 
Q 828 903 1448 1529 
Q 2069 2156 2228 2338 
Q 2531 2678 2651 2914 
Q 2772 3150 2772 3378 
Q 2772 3750 2511 3984 
Q 2250 4219 1831 4219 
Q 1534 4219 1204 4116 
Q 875 4013 500 3803 
L 500 4441 
Q 881 4594 1212 4672 
Q 1544 4750 1819 4750 
Q 2544 4750 2975 4387 
Q 3406 4025 3406 3419 
Q 3406 3131 3298 2873 
Q 3191 2616 2906 2266 
Q 2828 2175 2409 1742 
Q 1991 1309 1228 531 
z
" transform="scale(0.015625)"/>
       </defs>
       <use xlink:href="#DejaVuSans-30"/>
       <use xlink:href="#DejaVuSans-2e" x="63.623047"/>
       <use xlink:href="#DejaVuSans-32" x="95.410156"/>
      </g>
     </g>
    </g>
    <g id="xtick_3">
     <g id="line2d_5">
      <path d="M 177.468143 191.32 
L 177.468143 34.56 
" clip-path="url(#p45a18b9c5d)" style="fill: none; stroke: #f0f0f0; stroke-width: 0.8; stroke-linecap: square"/>
     </g>
     <g id="line2d_6">
      <g>
       <use xlink:href="#ma8936085a4" x="177.468143" y="191.32" style="stroke: #000000; stroke-width: 0.8"/>
      </g>
     </g>
     <g id="text_3">
      <!-- 0.4 -->
      <g transform="translate(169.51658 205.918437)scale(0.1 -0.1)">
       <defs>
        <path id="DejaVuSans-34" d="M 2419 4116 
L 825 1625 
L 2419 1625 
L 2419 4116 
z
M 2253 4666 
L 3047 4666 
L 3047 1625 
L 3713 1625 
L 3713 1100 
L 3047 1100 
L 3047 0 
L 2419 0 
L 2419 1100 
L 313 1100 
L 313 1709 
L 2253 4666 
z
" transform="scale(0.015625)"/>
       </defs>
       <use xlink:href="#DejaVuSans-30"/>
       <use xlink:href="#DejaVuSans-2e" x="63.623047"/>
       <use xlink:href="#DejaVuSans-34" x="95.410156"/>
      </g>
     </g>
    </g>
    <g id="xtick_4">
     <g id="line2d_7">
      <path d="M 232.816986 191.32 
L 232.816986 34.56 
" clip-path="url(#p45a18b9c5d)" style="fill: none; stroke: #f0f0f0; stroke-width: 0.8; stroke-linecap: square"/>
     </g>
     <g id="line2d_8">
      <g>
       <use xlink:href="#ma8936085a4" x="232.816986" y="191.32" style="stroke: #000000; stroke-width: 0.8"/>
      </g>
     </g>
     <g id="text_4">
      <!-- 0.6 -->
      <g transform="translate(224.865424 205.918437)scale(0.1 -0.1)">
       <defs>
        <path id="DejaVuSans-36" d="M 2113 2584 
Q 1688 2584 1439 2293 
Q 1191 2003 1191 1497 
Q 1191 994 1439 701 
Q 1688 409 2113 409 
Q 2538 409 2786 701 
Q 3034 994 3034 1497 
Q 3034 2003 2786 2293 
Q 2538 2584 2113 2584 
z
M 3366 4563 
L 3366 3988 
Q 3128 4100 2886 4159 
Q 2644 4219 2406 4219 
Q 1781 4219 1451 3797 
Q 1122 3375 1075 2522 
Q 1259 2794 1537 2939 
Q 1816 3084 2150 3084 
Q 2853 3084 3261 2657 
Q 3669 2231 3669 1497 
Q 3669 778 3244 343 
Q 2819 -91 2113 -91 
Q 1303 -91 875 529 
Q 447 1150 447 2328 
Q 447 3434 972 4092 
Q 1497 4750 2381 4750 
Q 2619 4750 2861 4703 
Q 3103 4656 3366 4563 
z
" transform="scale(0.015625)"/>
       </defs>
       <use xlink:href="#DejaVuSans-30"/>
       <use xlink:href="#DejaVuSans-2e" x="63.623047"/>
       <use xlink:href="#DejaVuSans-36" x="95.410156"/>
      </g>
     </g>
    </g>
    <g id="xtick_5">
     <g id="line2d_9">
      <path d="M 288.16583 191.32 
L 288.16583 34.56 
" clip-path="url(#p45a18b9c5d)" style="fill: none; stroke: #f0f0f0; stroke-width: 0.8; stroke-linecap: square"/>
     </g>
     <g id="line2d_10">
      <g>
       <use xlink:href="#ma8936085a4" x="288.16583" y="191.32" style="stroke: #000000; stroke-width: 0.8"/>
      </g>
     </g>
     <g id="text_5">
      <!-- 0.8 -->
      <g transform="translate(280.214268 205.918437)scale(0.1 -0.1)">
       <defs>
        <path id="DejaVuSans-38" d="M 2034 2216 
Q 1584 2216 1326 1975 
Q 1069 1734 1069 1313 
Q 1069 891 1326 650 
Q 1584 409 2034 409 
Q 2484 409 2743 651 
Q 3003 894 3003 1313 
Q 3003 1734 2745 1975 
Q 2488 2216 2034 2216 
z
M 1403 2484 
Q 997 2584 770 2862 
Q 544 3141 544 3541 
Q 544 4100 942 4425 
Q 1341 4750 2034 4750 
Q 2731 4750 3128 4425 
Q 3525 4100 3525 3541 
Q 3525 3141 3298 2862 
Q 3072 2584 2669 2484 
Q 3125 2378 3379 2068 
Q 3634 1759 3634 1313 
Q 3634 634 3220 271 
Q 2806 -91 2034 -91 
Q 1263 -91 848 271 
Q 434 634 434 1313 
Q 434 1759 690 2068 
Q 947 2378 1403 2484 
z
M 1172 3481 
Q 1172 3119 1398 2916 
Q 1625 2713 2034 2713 
Q 2441 2713 2670 2916 
Q 2900 3119 2900 3481 
Q 2900 3844 2670 4047 
Q 2441 4250 2034 4250 
Q 1625 4250 1398 4047 
Q 1172 3844 1172 3481 
z
" transform="scale(0.015625)"/>
       </defs>
       <use xlink:href="#DejaVuSans-30"/>
       <use xlink:href="#DejaVuSans-2e" x="63.623047"/>
       <use xlink:href="#DejaVuSans-38" x="95.410156"/>
      </g>
     </g>
    </g>
    <g id="xtick_6">
     <g id="line2d_11">
      <path d="M 343.514674 191.32 
L 343.514674 34.56 
" clip-path="url(#p45a18b9c5d)" style="fill: none; stroke: #f0f0f0; stroke-width: 0.8; stroke-linecap: square"/>
     </g>
     <g id="line2d_12">
      <g>
       <use xlink:href="#ma8936085a4" x="343.514674" y="191.32" style="stroke: #000000; stroke-width: 0.8"/>
      </g>
     </g>
     <g id="text_6">
      <!-- 1.0 -->
      <g transform="translate(335.563112 205.918437)scale(0.1 -0.1)">
       <defs>
        <path id="DejaVuSans-31" d="M 794 531 
L 1825 531 
L 1825 4091 
L 703 3866 
L 703 4441 
L 1819 4666 
L 2450 4666 
L 2450 531 
L 3481 531 
L 3481 0 
L 794 0 
L 794 531 
z
" transform="scale(0.015625)"/>
       </defs>
       <use xlink:href="#DejaVuSans-31"/>
       <use xlink:href="#DejaVuSans-2e" x="63.623047"/>
       <use xlink:href="#DejaVuSans-30" x="95.410156"/>
      </g>
     </g>
    </g>
    <g id="text_7">
     <!-- Normalized Frequency [rad/π] -->
     <g transform="translate(130.821875 219.596562)scale(0.1 -0.1)">
      <defs>
       <path id="DejaVuSans-4e" d="M 628 4666 
L 1478 4666 
L 3547 763 
L 3547 4666 
L 4159 4666 
L 4159 0 
L 3309 0 
L 1241 3903 
L 1241 0 
L 628 0 
L 628 4666 
z
" transform="scale(0.015625)"/>
       <path id="DejaVuSans-6f" d="M 1959 3097 
Q 1497 3097 1228 2736 
Q 959 2375 959 1747 
Q 959 1119 1226 758 
Q 1494 397 1959 397 
Q 2419 397 2687 759 
Q 2956 1122 2956 1747 
Q 2956 2369 2687 2733 
Q 2419 3097 1959 3097 
z
M 1959 3584 
Q 2709 3584 3137 3096 
Q 3566 2609 3566 1747 
Q 3566 888 3137 398 
Q 2709 -91 1959 -91 
Q 1206 -91 779 398 
Q 353 888 353 1747 
Q 353 2609 779 3096 
Q 1206 3584 1959 3584 
z
" transform="scale(0.015625)"/>
       <path id="DejaVuSans-72" d="M 2631 2963 
Q 2534 3019 2420 3045 
Q 2306 3072 2169 3072 
Q 1681 3072 1420 2755 
Q 1159 2438 1159 1844 
L 1159 0 
L 581 0 
L 581 3500 
L 1159 3500 
L 1159 2956 
Q 1341 3275 1631 3429 
Q 1922 3584 2338 3584 
Q 2397 3584 2469 3576 
Q 2541 3569 2628 3553 
L 2631 2963 
z
" transform="scale(0.015625)"/>
       <path id="DejaVuSans-6d" d="M 3328 2828 
Q 3544 3216 3844 3400 
Q 4144 3584 4550 3584 
Q 5097 3584 5394 3201 
Q 5691 2819 5691 2113 
L 5691 0 
L 5113 0 
L 5113 2094 
Q 5113 2597 4934 2840 
Q 4756 3084 4391 3084 
Q 3944 3084 3684 2787 
Q 3425 2491 3425 1978 
L 3425 0 
L 2847 0 
L 2847 2094 
Q 2847 2600 2669 2842 
Q 2491 3084 2119 3084 
Q 1678 3084 1418 2786 
Q 1159 2488 1159 1978 
L 1159 0 
L 581 0 
L 581 3500 
L 1159 3500 
L 1159 2956 
Q 1356 3278 1631 3431 
Q 1906 3584 2284 3584 
Q 2666 3584 2933 3390 
Q 3200 3197 3328 2828 
z
" transform="scale(0.015625)"/>
       <path id="DejaVuSans-61" d="M 2194 1759 
Q 1497 1759 1228 1600 
Q 959 1441 959 1056 
Q 959 750 1161 570 
Q 1363 391 1709 391 
Q 2188 391 2477 730 
Q 2766 1069 2766 1631 
L 2766 1759 
L 2194 1759 
z
M 3341 1997 
L 3341 0 
L 2766 0 
L 2766 531 
Q 2569 213 2275 61 
Q 1981 -91 1556 -91 
Q 1019 -91 701 211 
Q 384 513 384 1019 
Q 384 1609 779 1909 
Q 1175 2209 1959 2209 
L 2766 2209 
L 2766 2266 
Q 2766 2663 2505 2880 
Q 2244 3097 1772 3097 
Q 1472 3097 1187 3025 
Q 903 2953 641 2809 
L 641 3341 
Q 956 3463 1253 3523 
Q 1550 3584 1831 3584 
Q 2591 3584 2966 3190 
Q 3341 2797 3341 1997 
z
" transform="scale(0.015625)"/>
       <path id="DejaVuSans-6c" d="M 603 4863 
L 1178 4863 
L 1178 0 
L 603 0 
L 603 4863 
z
" transform="scale(0.015625)"/>
       <path id="DejaVuSans-69" d="M 603 3500 
L 1178 3500 
L 1178 0 
L 603 0 
L 603 3500 
z
M 603 4863 
L 1178 4863 
L 1178 4134 
L 603 4134 
L 603 4863 
z
" transform="scale(0.015625)"/>
       <path id="DejaVuSans-7a" d="M 353 3500 
L 3084 3500 
L 3084 2975 
L 922 459 
L 3084 459 
L 3084 0 
L 275 0 
L 275 525 
L 2438 3041 
L 353 3041 
L 353 3500 
z
" transform="scale(0.015625)"/>
       <path id="DejaVuSans-65" d="M 3597 1894 
L 3597 1613 
L 953 1613 
Q 991 1019 1311 708 
Q 1631 397 2203 397 
Q 2534 397 2845 478 
Q 3156 559 3463 722 
L 3463 178 
Q 3153 47 2828 -22 
Q 2503 -91 2169 -91 
Q 1331 -91 842 396 
Q 353 884 353 1716 
Q 353 2575 817 3079 
Q 1281 3584 2069 3584 
Q 2775 3584 3186 3129 
Q 3597 2675 3597 1894 
z
M 3022 2063 
Q 3016 2534 2758 2815 
Q 2500 3097 2075 3097 
Q 1594 3097 1305 2825 
Q 1016 2553 972 2059 
L 3022 2063 
z
" transform="scale(0.015625)"/>
       <path id="DejaVuSans-64" d="M 2906 2969 
L 2906 4863 
L 3481 4863 
L 3481 0 
L 2906 0 
L 2906 525 
Q 2725 213 2448 61 
Q 2172 -91 1784 -91 
Q 1150 -91 751 415 
Q 353 922 353 1747 
Q 353 2572 751 3078 
Q 1150 3584 1784 3584 
Q 2172 3584 2448 3432 
Q 2725 3281 2906 2969 
z
M 947 1747 
Q 947 1113 1208 752 
Q 1469 391 1925 391 
Q 2381 391 2643 752 
Q 2906 1113 2906 1747 
Q 2906 2381 2643 2742 
Q 2381 3103 1925 3103 
Q 1469 3103 1208 2742 
Q 947 2381 947 1747 
z
" transform="scale(0.015625)"/>
       <path id="DejaVuSans-20" transform="scale(0.015625)"/>
       <path id="DejaVuSans-46" d="M 628 4666 
L 3309 4666 
L 3309 4134 
L 1259 4134 
L 1259 2759 
L 3109 2759 
L 3109 2228 
L 1259 2228 
L 1259 0 
L 628 0 
L 628 4666 
z
" transform="scale(0.015625)"/>
       <path id="DejaVuSans-71" d="M 947 1747 
Q 947 1113 1208 752 
Q 1469 391 1925 391 
Q 2381 391 2643 752 
Q 2906 1113 2906 1747 
Q 2906 2381 2643 2742 
Q 2381 3103 1925 3103 
Q 1469 3103 1208 2742 
Q 947 2381 947 1747 
z
M 2906 525 
Q 2725 213 2448 61 
Q 2172 -91 1784 -91 
Q 1150 -91 751 415 
Q 353 922 353 1747 
Q 353 2572 751 3078 
Q 1150 3584 1784 3584 
Q 2172 3584 2448 3432 
Q 2725 3281 2906 2969 
L 2906 3500 
L 3481 3500 
L 3481 -1331 
L 2906 -1331 
L 2906 525 
z
" transform="scale(0.015625)"/>
       <path id="DejaVuSans-75" d="M 544 1381 
L 544 3500 
L 1119 3500 
L 1119 1403 
Q 1119 906 1312 657 
Q 1506 409 1894 409 
Q 2359 409 2629 706 
Q 2900 1003 2900 1516 
L 2900 3500 
L 3475 3500 
L 3475 0 
L 2900 0 
L 2900 538 
Q 2691 219 2414 64 
Q 2138 -91 1772 -91 
Q 1169 -91 856 284 
Q 544 659 544 1381 
z
M 1991 3584 
L 1991 3584 
z
" transform="scale(0.015625)"/>
       <path id="DejaVuSans-6e" d="M 3513 2113 
L 3513 0 
L 2938 0 
L 2938 2094 
Q 2938 2591 2744 2837 
Q 2550 3084 2163 3084 
Q 1697 3084 1428 2787 
Q 1159 2491 1159 1978 
L 1159 0 
L 581 0 
L 581 3500 
L 1159 3500 
L 1159 2956 
Q 1366 3272 1645 3428 
Q 1925 3584 2291 3584 
Q 2894 3584 3203 3211 
Q 3513 2838 3513 2113 
z
" transform="scale(0.015625)"/>
       <path id="DejaVuSans-63" d="M 3122 3366 
L 3122 2828 
Q 2878 2963 2633 3030 
Q 2388 3097 2138 3097 
Q 1578 3097 1268 2742 
Q 959 2388 959 1747 
Q 959 1106 1268 751 
Q 1578 397 2138 397 
Q 2388 397 2633 464 
Q 2878 531 3122 666 
L 3122 134 
Q 2881 22 2623 -34 
Q 2366 -91 2075 -91 
Q 1284 -91 818 406 
Q 353 903 353 1747 
Q 353 2603 823 3093 
Q 1294 3584 2113 3584 
Q 2378 3584 2631 3529 
Q 2884 3475 3122 3366 
z
" transform="scale(0.015625)"/>
       <path id="DejaVuSans-79" d="M 2059 -325 
Q 1816 -950 1584 -1140 
Q 1353 -1331 966 -1331 
L 506 -1331 
L 506 -850 
L 844 -850 
Q 1081 -850 1212 -737 
Q 1344 -625 1503 -206 
L 1606 56 
L 191 3500 
L 800 3500 
L 1894 763 
L 2988 3500 
L 3597 3500 
L 2059 -325 
z
" transform="scale(0.015625)"/>
       <path id="DejaVuSans-5b" d="M 550 4863 
L 1875 4863 
L 1875 4416 
L 1125 4416 
L 1125 -397 
L 1875 -397 
L 1875 -844 
L 550 -844 
L 550 4863 
z
" transform="scale(0.015625)"/>
       <path id="DejaVuSans-2f" d="M 1625 4666 
L 2156 4666 
L 531 -594 
L 0 -594 
L 1625 4666 
z
" transform="scale(0.015625)"/>
       <path id="DejaVuSans-3c0" d="M 231 3500 
L 3584 3500 
L 3584 2925 
L 3144 2925 
L 3144 775 
Q 3144 550 3220 451 
Q 3297 353 3469 353 
Q 3516 353 3584 361 
Q 3653 369 3675 372 
L 3675 -44 
Q 3566 -84 3450 -103 
Q 3334 -122 3219 -122 
Q 2844 -122 2700 83 
Q 2556 288 2556 838 
L 2556 2925 
L 1266 2925 
L 1266 0 
L 678 0 
L 678 2925 
L 231 2925 
L 231 3500 
z
" transform="scale(0.015625)"/>
       <path id="DejaVuSans-5d" d="M 1947 4863 
L 1947 -844 
L 622 -844 
L 622 -397 
L 1369 -397 
L 1369 4416 
L 622 4416 
L 622 4863 
L 1947 4863 
z
" transform="scale(0.015625)"/>
      </defs>
      <use xlink:href="#DejaVuSans-4e"/>
      <use xlink:href="#DejaVuSans-6f" x="74.804688"/>
      <use xlink:href="#DejaVuSans-72" x="135.986328"/>
      <use xlink:href="#DejaVuSans-6d" x="175.349609"/>
      <use xlink:href="#DejaVuSans-61" x="272.761719"/>
      <use xlink:href="#DejaVuSans-6c" x="334.041016"/>
      <use xlink:href="#DejaVuSans-69" x="361.824219"/>
      <use xlink:href="#DejaVuSans-7a" x="389.607422"/>
      <use xlink:href="#DejaVuSans-65" x="442.097656"/>
      <use xlink:href="#DejaVuSans-64" x="503.621094"/>
      <use xlink:href="#DejaVuSans-20" x="567.097656"/>
      <use xlink:href="#DejaVuSans-46" x="598.884766"/>
      <use xlink:href="#DejaVuSans-72" x="649.154297"/>
      <use xlink:href="#DejaVuSans-65" x="688.017578"/>
      <use xlink:href="#DejaVuSans-71" x="749.541016"/>
      <use xlink:href="#DejaVuSans-75" x="813.017578"/>
      <use xlink:href="#DejaVuSans-65" x="876.396484"/>
      <use xlink:href="#DejaVuSans-6e" x="937.919922"/>
      <use xlink:href="#DejaVuSans-63" x="1001.298828"/>
      <use xlink:href="#DejaVuSans-79" x="1056.279297"/>
      <use xlink:href="#DejaVuSans-20" x="1115.458984"/>
      <use xlink:href="#DejaVuSans-5b" x="1147.246094"/>
      <use xlink:href="#DejaVuSans-72" x="1186.259766"/>
      <use xlink:href="#DejaVuSans-61" x="1227.373047"/>
      <use xlink:href="#DejaVuSans-64" x="1288.652344"/>
      <use xlink:href="#DejaVuSans-2f" x="1352.128906"/>
      <use xlink:href="#DejaVuSans-3c0" x="1385.820312"/>
      <use xlink:href="#DejaVuSans-5d" x="1446.025391"/>
     </g>
    </g>
   </g>
   <g id="matplotlib.axis_2">
    <g id="ytick_1">
     <g id="line2d_13">
      <path d="M 52.94 191.32 
L 357.21 191.32 
" clip-path="url(#p45a18b9c5d)" style="fill: none; stroke: #f0f0f0; stroke-width: 0.8; stroke-linecap: square"/>
     </g>
     <g id="line2d_14">
      <defs>
       <path id="mb777b3fdaa" d="M 0 0 
L -3.5 0 
" style="stroke: #000000; stroke-width: 0.8"/>
      </defs>
      <g>
       <use xlink:href="#mb777b3fdaa" x="52.94" y="191.32" style="stroke: #000000; stroke-width: 0.8"/>
      </g>
     </g>
     <g id="text_8">
      <!-- −12 -->
      <g transform="translate(24.835313 195.119219)scale(0.1 -0.1)">
       <defs>
        <path id="DejaVuSans-2212" d="M 678 2272 
L 4684 2272 
L 4684 1741 
L 678 1741 
L 678 2272 
z
" transform="scale(0.015625)"/>
       </defs>
       <use xlink:href="#DejaVuSans-2212"/>
       <use xlink:href="#DejaVuSans-31" x="83.789062"/>
       <use xlink:href="#DejaVuSans-32" x="147.412109"/>
      </g>
     </g>
    </g>
    <g id="ytick_2">
     <g id="line2d_15">
      <path d="M 52.94 167.203077 
L 357.21 167.203077 
" clip-path="url(#p45a18b9c5d)" style="fill: none; stroke: #f0f0f0; stroke-width: 0.8; stroke-linecap: square"/>
     </g>
     <g id="line2d_16">
      <g>
       <use xlink:href="#mb777b3fdaa" x="52.94" y="167.203077" style="stroke: #000000; stroke-width: 0.8"/>
      </g>
     </g>
     <g id="text_9">
      <!-- −10 -->
      <g transform="translate(24.835313 171.002296)scale(0.1 -0.1)">
       <use xlink:href="#DejaVuSans-2212"/>
       <use xlink:href="#DejaVuSans-31" x="83.789062"/>
       <use xlink:href="#DejaVuSans-30" x="147.412109"/>
      </g>
     </g>
    </g>
    <g id="ytick_3">
     <g id="line2d_17">
      <path d="M 52.94 143.086154 
L 357.21 143.086154 
" clip-path="url(#p45a18b9c5d)" style="fill: none; stroke: #f0f0f0; stroke-width: 0.8; stroke-linecap: square"/>
     </g>
     <g id="line2d_18">
      <g>
       <use xlink:href="#mb777b3fdaa" x="52.94" y="143.086154" style="stroke: #000000; stroke-width: 0.8"/>
      </g>
     </g>
     <g id="text_10">
      <!-- −8 -->
      <g transform="translate(31.197813 146.885373)scale(0.1 -0.1)">
       <use xlink:href="#DejaVuSans-2212"/>
       <use xlink:href="#DejaVuSans-38" x="83.789062"/>
      </g>
     </g>
    </g>
    <g id="ytick_4">
     <g id="line2d_19">
      <path d="M 52.94 118.969231 
L 357.21 118.969231 
" clip-path="url(#p45a18b9c5d)" style="fill: none; stroke: #f0f0f0; stroke-width: 0.8; stroke-linecap: square"/>
     </g>
     <g id="line2d_20">
      <g>
       <use xlink:href="#mb777b3fdaa" x="52.94" y="118.969231" style="stroke: #000000; stroke-width: 0.8"/>
      </g>
     </g>
     <g id="text_11">
      <!-- −6 -->
      <g transform="translate(31.197813 122.76845)scale(0.1 -0.1)">
       <use xlink:href="#DejaVuSans-2212"/>
       <use xlink:href="#DejaVuSans-36" x="83.789062"/>
      </g>
     </g>
    </g>
    <g id="ytick_5">
     <g id="line2d_21">
      <path d="M 52.94 94.852308 
L 357.21 94.852308 
" clip-path="url(#p45a18b9c5d)" style="fill: none; stroke: #f0f0f0; stroke-width: 0.8; stroke-linecap: square"/>
     </g>
     <g id="line2d_22">
      <g>
       <use xlink:href="#mb777b3fdaa" x="52.94" y="94.852308" style="stroke: #000000; stroke-width: 0.8"/>
      </g>
     </g>
     <g id="text_12">
      <!-- −4 -->
      <g transform="translate(31.197813 98.651526)scale(0.1 -0.1)">
       <use xlink:href="#DejaVuSans-2212"/>
       <use xlink:href="#DejaVuSans-34" x="83.789062"/>
      </g>
     </g>
    </g>
    <g id="ytick_6">
     <g id="line2d_23">
      <path d="M 52.94 70.735385 
L 357.21 70.735385 
" clip-path="url(#p45a18b9c5d)" style="fill: none; stroke: #f0f0f0; stroke-width: 0.8; stroke-linecap: square"/>
     </g>
     <g id="line2d_24">
      <g>
       <use xlink:href="#mb777b3fdaa" x="52.94" y="70.735385" style="stroke: #000000; stroke-width: 0.8"/>
      </g>
     </g>
     <g id="text_13">
      <!-- −2 -->
      <g transform="translate(31.197813 74.534603)scale(0.1 -0.1)">
       <use xlink:href="#DejaVuSans-2212"/>
       <use xlink:href="#DejaVuSans-32" x="83.789062"/>
      </g>
     </g>
    </g>
    <g id="ytick_7">
     <g id="line2d_25">
      <path d="M 52.94 46.618462 
L 357.21 46.618462 
" clip-path="url(#p45a18b9c5d)" style="fill: none; stroke: #f0f0f0; stroke-width: 0.8; stroke-linecap: square"/>
     </g>
     <g id="line2d_26">
      <g>
       <use xlink:href="#mb777b3fdaa" x="52.94" y="46.618462" style="stroke: #000000; stroke-width: 0.8"/>
      </g>
     </g>
     <g id="text_14">
      <!-- 0 -->
      <g transform="translate(39.5775 50.41768)scale(0.1 -0.1)">
       <use xlink:href="#DejaVuSans-30"/>
      </g>
     </g>
    </g>
    <g id="text_15">
     <!-- Gain [dB] -->
     <g transform="translate(18.755625 136.531406)rotate(-90)scale(0.1 -0.1)">
      <defs>
       <path id="DejaVuSans-47" d="M 3809 666 
L 3809 1919 
L 2778 1919 
L 2778 2438 
L 4434 2438 
L 4434 434 
Q 4069 175 3628 42 
Q 3188 -91 2688 -91 
Q 1594 -91 976 548 
Q 359 1188 359 2328 
Q 359 3472 976 4111 
Q 1594 4750 2688 4750 
Q 3144 4750 3555 4637 
Q 3966 4525 4313 4306 
L 4313 3634 
Q 3963 3931 3569 4081 
Q 3175 4231 2741 4231 
Q 1884 4231 1454 3753 
Q 1025 3275 1025 2328 
Q 1025 1384 1454 906 
Q 1884 428 2741 428 
Q 3075 428 3337 486 
Q 3600 544 3809 666 
z
" transform="scale(0.015625)"/>
       <path id="DejaVuSans-42" d="M 1259 2228 
L 1259 519 
L 2272 519 
Q 2781 519 3026 730 
Q 3272 941 3272 1375 
Q 3272 1813 3026 2020 
Q 2781 2228 2272 2228 
L 1259 2228 
z
M 1259 4147 
L 1259 2741 
L 2194 2741 
Q 2656 2741 2882 2914 
Q 3109 3088 3109 3444 
Q 3109 3797 2882 3972 
Q 2656 4147 2194 4147 
L 1259 4147 
z
M 628 4666 
L 2241 4666 
Q 2963 4666 3353 4366 
Q 3744 4066 3744 3513 
Q 3744 3084 3544 2831 
Q 3344 2578 2956 2516 
Q 3422 2416 3680 2098 
Q 3938 1781 3938 1306 
Q 3938 681 3513 340 
Q 3088 0 2303 0 
L 628 0 
L 628 4666 
z
" transform="scale(0.015625)"/>
      </defs>
      <use xlink:href="#DejaVuSans-47"/>
      <use xlink:href="#DejaVuSans-61" x="77.490234"/>
      <use xlink:href="#DejaVuSans-69" x="138.769531"/>
      <use xlink:href="#DejaVuSans-6e" x="166.552734"/>
      <use xlink:href="#DejaVuSans-20" x="229.931641"/>
      <use xlink:href="#DejaVuSans-5b" x="261.71875"/>
      <use xlink:href="#DejaVuSans-64" x="300.732422"/>
      <use xlink:href="#DejaVuSans-42" x="364.208984"/>
      <use xlink:href="#DejaVuSans-5d" x="432.8125"/>
     </g>
    </g>
   </g>
   <g id="line2d_27">
    <path d="M 66.770455 46.618462 
L 73.797163 46.729533 
L 80.823872 47.062746 
L 87.850581 47.618096 
L 94.877289 48.395566 
L 101.903998 49.39511 
L 108.930707 50.616628 
L 116.092545 52.089871 
L 123.254382 53.793204 
L 130.41622 55.726124 
L 137.578058 57.887881 
L 144.875024 60.324658 
L 152.171991 62.996263 
L 159.604087 65.956461 
L 167.036183 69.15487 
L 174.603407 72.65191 
L 182.305761 76.454723 
L 190.278373 80.641251 
L 198.521243 85.225656 
L 207.034371 90.216917 
L 216.088015 95.786333 
L 225.952433 102.121359 
L 237.438399 109.773614 
L 255.410558 122.060878 
L 270.409878 132.207686 
L 279.463522 138.071053 
L 286.895618 142.629301 
L 293.38181 146.355494 
L 299.327487 149.517542 
L 304.732648 152.145917 
L 309.86755 154.397062 
L 314.732195 156.285781 
L 319.326581 157.833472 
L 323.785838 159.101751 
L 328.109967 160.100068 
L 332.298966 160.841056 
L 336.487966 161.352919 
L 340.541836 161.625807 
L 343.379545 161.685304 
L 343.379545 161.685304 
" clip-path="url(#p45a18b9c5d)" style="fill: none; stroke: #0d0887; stroke-width: 1.5; stroke-linecap: square"/>
   </g>
   <g id="line2d_28">
    <path d="M 66.770455 46.618462 
L 73.797163 46.729535 
L 80.823872 47.06278 
L 87.850581 47.618269 
L 94.877289 48.396119 
L 101.903998 49.396474 
L 108.930707 50.619497 
L 115.957416 52.065347 
L 123.119253 53.768429 
L 130.281091 55.70319 
L 137.442929 57.869581 
L 144.604766 60.267386 
L 151.901733 62.947965 
L 159.1987 65.867474 
L 166.495667 69.02463 
L 173.927762 72.482597 
L 181.494987 76.251835 
L 189.197341 80.341592 
L 197.034824 84.759357 
L 205.007435 89.51013 
L 213.250305 94.682286 
L 221.898562 100.375442 
L 231.087335 106.695803 
L 241.222011 113.943736 
L 253.518751 123.025656 
L 282.43636 144.504294 
L 290.273843 149.975187 
L 296.760036 154.243855 
L 302.435454 157.724963 
L 307.570357 160.62443 
L 312.299872 163.049101 
L 316.75913 165.090436 
L 320.948129 166.768632 
L 325.002 168.153026 
L 328.920741 169.252028 
L 332.704353 170.078224 
L 336.352837 170.647828 
L 340.00132 170.988505 
L 343.379545 171.096681 
L 343.379545 171.096681 
" clip-path="url(#p45a18b9c5d)" style="fill: none; stroke: #4c02a1; stroke-width: 1.5; stroke-linecap: square"/>
   </g>
   <g id="line2d_29">
    <path d="M 66.770455 46.618462 
L 73.797163 46.729539 
L 80.823872 47.062846 
L 87.850581 47.618606 
L 94.877289 48.397194 
L 101.903998 49.399135 
L 108.930707 50.625109 
L 115.957416 52.075951 
L 122.984124 53.752653 
L 130.010833 55.656373 
L 137.037542 57.788431 
L 144.06425 60.15032 
L 151.090959 62.743706 
L 158.117668 65.570432 
L 165.279505 68.693732 
L 172.441343 72.063873 
L 179.603181 75.683386 
L 186.765019 79.554979 
L 193.926856 83.681514 
L 201.088694 88.065969 
L 208.250532 92.711356 
L 215.41237 97.620605 
L 222.574207 102.796364 
L 229.871174 108.346007 
L 237.168141 114.175488 
L 244.600236 120.399629 
L 252.167461 127.029696 
L 260.004944 134.196788 
L 268.247814 142.039877 
L 277.571716 151.230446 
L 291.760262 165.583378 
L 302.165196 175.969926 
L 308.381131 181.867983 
L 313.245775 186.193172 
L 317.434775 189.633218 
L 321.218387 192.454878 
L 324.596613 194.701245 
L 327.70458 196.507313 
L 330.677418 197.975001 
L 333.379998 199.069928 
L 336.082579 199.922055 
L 338.65003 200.496059 
L 341.082352 200.821379 
L 343.379545 200.929908 
L 343.379545 200.929908 
" clip-path="url(#p45a18b9c5d)" style="fill: none; stroke: #7e03a8; stroke-width: 1.5; stroke-linecap: square"/>
   </g>
   <g id="line2d_30">
    <path d="M 66.770455 46.618462 
L 73.797163 46.729542 
L 80.823872 47.062902 
L 87.850581 47.618893 
L 94.877289 48.398113 
L 101.903998 49.401415 
L 108.930707 50.629926 
L 115.957416 52.085073 
L 122.984124 53.768614 
L 130.010833 55.682676 
L 137.037542 57.829803 
L 144.06425 60.213019 
L 150.95583 62.783169 
L 157.84741 65.587809 
L 164.738989 68.631582 
L 171.630569 71.919925 
L 178.38702 75.387352 
L 185.14347 79.102986 
L 191.899921 83.075031 
L 198.521243 87.225646 
L 205.142565 91.642292 
L 211.628757 96.23863 
L 217.979821 101.011097 
L 224.195755 105.956887 
L 230.276561 111.073931 
L 236.357367 116.484423 
L 242.303043 122.078016 
L 248.113591 127.855581 
L 253.789009 133.818561 
L 259.329299 139.968795 
L 264.73446 146.308246 
L 270.004491 152.838641 
L 275.139394 159.560939 
L 280.139167 166.474617 
L 285.003812 173.576672 
L 289.868456 181.074065 
L 294.733101 188.988774 
L 299.597745 197.335009 
L 304.597519 206.360589 
L 310.002679 216.585827 
L 317.434775 231.183589 
L 324.326355 244.58907 
L 327.839709 250.948695 
L 330.542289 255.403705 
L 332.839482 258.770648 
L 334.731289 261.180967 
L 336.487966 263.075341 
L 338.109514 264.494305 
L 339.595933 265.492497 
L 340.947223 266.13367 
L 342.163384 266.485612 
L 343.379545 266.619724 
L 343.379545 266.619724 
" clip-path="url(#p45a18b9c5d)" style="fill: none; stroke: #aa2395; stroke-width: 1.5; stroke-linecap: square"/>
   </g>
   <g id="line2d_31">
    <path d="M 66.770455 46.618462 
L 73.797163 46.729544 
L 80.823872 47.062924 
L 87.850581 47.619004 
L 94.877289 48.398466 
L 101.903998 49.40229 
L 108.930707 50.631776 
L 115.957416 52.088581 
L 122.984124 53.774759 
L 130.010833 55.692818 
L 136.902413 57.802143 
L 143.793992 60.140839 
L 150.685572 62.712969 
L 157.577152 65.523349 
L 164.468731 68.577686 
L 171.225182 71.815475 
L 177.981633 75.301769 
L 184.602954 78.968008 
L 191.224276 82.891354 
L 197.710469 86.995181 
L 204.061532 91.275966 
L 210.277467 95.731098 
L 216.358273 100.358926 
L 222.303949 105.158792 
L 228.114497 110.131076 
L 233.789915 115.277249 
L 239.330205 120.599928 
L 244.735366 126.102936 
L 250.005397 131.791385 
L 255.005171 137.512452 
L 259.869815 143.413792 
L 264.599331 149.502527 
L 269.193717 155.787078 
L 273.517845 162.074486 
L 277.706845 168.552301 
L 281.760715 175.229689 
L 285.679457 182.11692 
L 289.463069 189.225432 
L 293.111552 196.567902 
L 296.489778 203.856037 
L 299.732874 211.36179 
L 302.840841 219.094361 
L 305.81368 227.063014 
L 308.786518 235.684422 
L 311.624227 244.629886 
L 314.326808 253.920344 
L 316.894259 263.578002 
L 319.326581 273.626135 
L 321.623774 284.088715 
L 323.785838 294.98978 
L 325.812774 306.352406 
L 327.70458 318.197076 
L 329.461257 330.539157 
L 331.217934 344.530075 
L 332.839482 359.345405 
L 334.325902 375.053169 
L 335.677192 391.715915 
L 336.893353 409.379159 
L 337.974385 428.050074 
L 338.229947 433 
L 338.229947 433 
" clip-path="url(#p45a18b9c5d)" style="fill: none; stroke: #cc4778; stroke-width: 1.5; stroke-linecap: square"/>
   </g>
   <g id="line2d_32">
    <path d="M 66.770455 46.618462 
L 73.797163 46.729542 
L 80.823872 47.062902 
L 87.850581 47.618893 
L 94.877289 48.398113 
L 101.903998 49.401415 
L 108.930707 50.629926 
L 115.957416 52.085073 
L 122.984124 53.768614 
L 130.010833 55.682676 
L 137.037542 57.829803 
L 144.06425 60.213019 
L 150.95583 62.783169 
L 157.84741 65.587809 
L 164.738989 68.631582 
L 171.630569 71.919925 
L 178.38702 75.387352 
L 185.14347 79.102986 
L 191.899921 83.075031 
L 198.521243 87.225646 
L 205.142565 91.642292 
L 211.628757 96.23863 
L 217.979821 101.011097 
L 224.195755 105.956887 
L 230.276561 111.073931 
L 236.357367 116.484423 
L 242.303043 122.078016 
L 248.113591 127.855581 
L 253.789009 133.818561 
L 259.329299 139.968795 
L 264.73446 146.308246 
L 270.004491 152.838641 
L 275.139394 159.560939 
L 280.139167 166.474617 
L 285.003812 173.576672 
L 289.868456 181.074065 
L 294.733101 188.988774 
L 299.597745 197.335009 
L 304.597519 206.360589 
L 310.002679 216.585827 
L 317.434775 231.183589 
L 324.326355 244.58907 
L 327.839709 250.948695 
L 330.542289 255.403705 
L 332.839482 258.770648 
L 334.731289 261.180967 
L 336.487966 263.075341 
L 338.109514 264.494305 
L 339.595933 265.492497 
L 340.947223 266.13367 
L 342.163384 266.485612 
L 343.379545 266.619724 
L 343.379545 266.619724 
" clip-path="url(#p45a18b9c5d)" style="fill: none; stroke: #e66c5c; stroke-width: 1.5; stroke-linecap: square"/>
   </g>
   <g id="line2d_33">
    <path d="M 66.770455 46.618462 
L 73.797163 46.729539 
L 80.823872 47.062846 
L 87.850581 47.618606 
L 94.877289 48.397194 
L 101.903998 49.399135 
L 108.930707 50.625109 
L 115.957416 52.075951 
L 122.984124 53.752653 
L 130.010833 55.656373 
L 137.037542 57.788431 
L 144.06425 60.15032 
L 151.090959 62.743706 
L 158.117668 65.570432 
L 165.279505 68.693732 
L 172.441343 72.063873 
L 179.603181 75.683386 
L 186.765019 79.554979 
L 193.926856 83.681514 
L 201.088694 88.065969 
L 208.250532 92.711356 
L 215.41237 97.620605 
L 222.574207 102.796364 
L 229.871174 108.346007 
L 237.168141 114.175488 
L 244.600236 120.399629 
L 252.167461 127.029696 
L 260.004944 134.196788 
L 268.247814 142.039877 
L 277.571716 151.230446 
L 291.760262 165.583378 
L 302.165196 175.969926 
L 308.381131 181.867983 
L 313.245775 186.193172 
L 317.434775 189.633218 
L 321.218387 192.454878 
L 324.596613 194.701245 
L 327.70458 196.507313 
L 330.677418 197.975001 
L 333.379998 199.069928 
L 336.082579 199.922055 
L 338.65003 200.496059 
L 341.082352 200.821379 
L 343.379545 200.929908 
L 343.379545 200.929908 
" clip-path="url(#p45a18b9c5d)" style="fill: none; stroke: #f89540; stroke-width: 1.5; stroke-linecap: square"/>
   </g>
   <g id="line2d_34">
    <path d="M 66.770455 46.618462 
L 73.797163 46.729535 
L 80.823872 47.06278 
L 87.850581 47.618269 
L 94.877289 48.396119 
L 101.903998 49.396474 
L 108.930707 50.619497 
L 115.957416 52.065347 
L 123.119253 53.768429 
L 130.281091 55.70319 
L 137.442929 57.869581 
L 144.604766 60.267386 
L 151.901733 62.947965 
L 159.1987 65.867474 
L 166.495667 69.02463 
L 173.927762 72.482597 
L 181.494987 76.251835 
L 189.197341 80.341592 
L 197.034824 84.759357 
L 205.007435 89.51013 
L 213.250305 94.682286 
L 221.898562 100.375442 
L 231.087335 106.695803 
L 241.222011 113.943736 
L 253.518751 123.025656 
L 282.43636 144.504294 
L 290.273843 149.975187 
L 296.760036 154.243855 
L 302.435454 157.724963 
L 307.570357 160.62443 
L 312.299872 163.049101 
L 316.75913 165.090436 
L 320.948129 166.768632 
L 325.002 168.153026 
L 328.920741 169.252028 
L 332.704353 170.078224 
L 336.352837 170.647828 
L 340.00132 170.988505 
L 343.379545 171.096681 
L 343.379545 171.096681 
" clip-path="url(#p45a18b9c5d)" style="fill: none; stroke: #fdc527; stroke-width: 1.5; stroke-linecap: square"/>
   </g>
   <g id="line2d_35">
    <path d="M 66.770455 46.618462 
L 73.797163 46.729533 
L 80.823872 47.062746 
L 87.850581 47.618096 
L 94.877289 48.395566 
L 101.903998 49.39511 
L 108.930707 50.616628 
L 116.092545 52.089871 
L 123.254382 53.793204 
L 130.41622 55.726124 
L 137.578058 57.887881 
L 144.875024 60.324658 
L 152.171991 62.996263 
L 159.604087 65.956461 
L 167.036183 69.15487 
L 174.603407 72.65191 
L 182.305761 76.454723 
L 190.278373 80.641251 
L 198.521243 85.225656 
L 207.034371 90.216917 
L 216.088015 95.786333 
L 225.952433 102.121359 
L 237.438399 109.773614 
L 255.410558 122.060878 
L 270.409878 132.207686 
L 279.463522 138.071053 
L 286.895618 142.629301 
L 293.38181 146.355494 
L 299.327487 149.517542 
L 304.732648 152.145917 
L 309.86755 154.397062 
L 314.732195 156.285781 
L 319.326581 157.833472 
L 323.785838 159.101751 
L 328.109967 160.100068 
L 332.298966 160.841056 
L 336.487966 161.352919 
L 340.541836 161.625807 
L 343.379545 161.685304 
L 343.379545 161.685304 
" clip-path="url(#p45a18b9c5d)" style="fill: none; stroke: #f0f921; stroke-width: 1.5; stroke-linecap: square"/>
   </g>
   <g id="patch_3">
    <path d="M 52.94 191.32 
L 52.94 34.56 
" style="fill: none; stroke: #000000; stroke-width: 0.8; stroke-linejoin: miter; stroke-linecap: square"/>
   </g>
   <g id="patch_4">
    <path d="M 357.21 191.32 
L 357.21 34.56 
" style="fill: none; stroke: #000000; stroke-width: 0.8; stroke-linejoin: miter; stroke-linecap: square"/>
   </g>
   <g id="patch_5">
    <path d="M 52.94 191.32 
L 357.21 191.32 
" style="fill: none; stroke: #000000; stroke-width: 0.8; stroke-linejoin: miter; stroke-linecap: square"/>
   </g>
   <g id="patch_6">
    <path d="M 52.94 34.56 
L 357.21 34.56 
" style="fill: none; stroke: #000000; stroke-width: 0.8; stroke-linejoin: miter; stroke-linecap: square"/>
   </g>
  </g>
  <g id="axes_2">
   <g id="patch_7">
    <path d="M 404.93 191.32 
L 709.2 191.32 
L 709.2 34.56 
L 404.93 34.56 
z
" style="fill: #ffffff"/>
   </g>
   <g id="matplotlib.axis_3">
    <g id="xtick_7">
     <g id="line2d_36">
      <path d="M 418.760455 191.32 
L 418.760455 34.56 
" clip-path="url(#pd5735a8f9e)" style="fill: none; stroke: #f0f0f0; stroke-width: 0.8; stroke-linecap: square"/>
     </g>
     <g id="line2d_37">
      <g>
       <use xlink:href="#ma8936085a4" x="418.760455" y="191.32" style="stroke: #000000; stroke-width: 0.8"/>
      </g>
     </g>
     <g id="text_16">
      <!-- 0.0 -->
      <g transform="translate(410.808892 205.918437)scale(0.1 -0.1)">
       <use xlink:href="#DejaVuSans-30"/>
       <use xlink:href="#DejaVuSans-2e" x="63.623047"/>
       <use xlink:href="#DejaVuSans-30" x="95.410156"/>
      </g>
     </g>
    </g>
    <g id="xtick_8">
     <g id="line2d_38">
      <path d="M 474.109299 191.32 
L 474.109299 34.56 
" clip-path="url(#pd5735a8f9e)" style="fill: none; stroke: #f0f0f0; stroke-width: 0.8; stroke-linecap: square"/>
     </g>
     <g id="line2d_39">
      <g>
       <use xlink:href="#ma8936085a4" x="474.109299" y="191.32" style="stroke: #000000; stroke-width: 0.8"/>
      </g>
     </g>
     <g id="text_17">
      <!-- 0.2 -->
      <g transform="translate(466.157736 205.918437)scale(0.1 -0.1)">
       <use xlink:href="#DejaVuSans-30"/>
       <use xlink:href="#DejaVuSans-2e" x="63.623047"/>
       <use xlink:href="#DejaVuSans-32" x="95.410156"/>
      </g>
     </g>
    </g>
    <g id="xtick_9">
     <g id="line2d_40">
      <path d="M 529.458143 191.32 
L 529.458143 34.56 
" clip-path="url(#pd5735a8f9e)" style="fill: none; stroke: #f0f0f0; stroke-width: 0.8; stroke-linecap: square"/>
     </g>
     <g id="line2d_41">
      <g>
       <use xlink:href="#ma8936085a4" x="529.458143" y="191.32" style="stroke: #000000; stroke-width: 0.8"/>
      </g>
     </g>
     <g id="text_18">
      <!-- 0.4 -->
      <g transform="translate(521.50658 205.918437)scale(0.1 -0.1)">
       <use xlink:href="#DejaVuSans-30"/>
       <use xlink:href="#DejaVuSans-2e" x="63.623047"/>
       <use xlink:href="#DejaVuSans-34" x="95.410156"/>
      </g>
     </g>
    </g>
    <g id="xtick_10">
     <g id="line2d_42">
      <path d="M 584.806986 191.32 
L 584.806986 34.56 
" clip-path="url(#pd5735a8f9e)" style="fill: none; stroke: #f0f0f0; stroke-width: 0.8; stroke-linecap: square"/>
     </g>
     <g id="line2d_43">
      <g>
       <use xlink:href="#ma8936085a4" x="584.806986" y="191.32" style="stroke: #000000; stroke-width: 0.8"/>
      </g>
     </g>
     <g id="text_19">
      <!-- 0.6 -->
      <g transform="translate(576.855424 205.918437)scale(0.1 -0.1)">
       <use xlink:href="#DejaVuSans-30"/>
       <use xlink:href="#DejaVuSans-2e" x="63.623047"/>
       <use xlink:href="#DejaVuSans-36" x="95.410156"/>
      </g>
     </g>
    </g>
    <g id="xtick_11">
     <g id="line2d_44">
      <path d="M 640.15583 191.32 
L 640.15583 34.56 
" clip-path="url(#pd5735a8f9e)" style="fill: none; stroke: #f0f0f0; stroke-width: 0.8; stroke-linecap: square"/>
     </g>
     <g id="line2d_45">
      <g>
       <use xlink:href="#ma8936085a4" x="640.15583" y="191.32" style="stroke: #000000; stroke-width: 0.8"/>
      </g>
     </g>
     <g id="text_20">
      <!-- 0.8 -->
      <g transform="translate(632.204268 205.918437)scale(0.1 -0.1)">
       <use xlink:href="#DejaVuSans-30"/>
       <use xlink:href="#DejaVuSans-2e" x="63.623047"/>
       <use xlink:href="#DejaVuSans-38" x="95.410156"/>
      </g>
     </g>
    </g>
    <g id="xtick_12">
     <g id="line2d_46">
      <path d="M 695.504674 191.32 
L 695.504674 34.56 
" clip-path="url(#pd5735a8f9e)" style="fill: none; stroke: #f0f0f0; stroke-width: 0.8; stroke-linecap: square"/>
     </g>
     <g id="line2d_47">
      <g>
       <use xlink:href="#ma8936085a4" x="695.504674" y="191.32" style="stroke: #000000; stroke-width: 0.8"/>
      </g>
     </g>
     <g id="text_21">
      <!-- 1.0 -->
      <g transform="translate(687.553112 205.918437)scale(0.1 -0.1)">
       <use xlink:href="#DejaVuSans-31"/>
       <use xlink:href="#DejaVuSans-2e" x="63.623047"/>
       <use xlink:href="#DejaVuSans-30" x="95.410156"/>
      </g>
     </g>
    </g>
    <g id="text_22">
     <!-- Normalized Frequency [rad/π] -->
     <g transform="translate(482.811875 219.596562)scale(0.1 -0.1)">
      <use xlink:href="#DejaVuSans-4e"/>
      <use xlink:href="#DejaVuSans-6f" x="74.804688"/>
      <use xlink:href="#DejaVuSans-72" x="135.986328"/>
      <use xlink:href="#DejaVuSans-6d" x="175.349609"/>
      <use xlink:href="#DejaVuSans-61" x="272.761719"/>
      <use xlink:href="#DejaVuSans-6c" x="334.041016"/>
      <use xlink:href="#DejaVuSans-69" x="361.824219"/>
      <use xlink:href="#DejaVuSans-7a" x="389.607422"/>
      <use xlink:href="#DejaVuSans-65" x="442.097656"/>
      <use xlink:href="#DejaVuSans-64" x="503.621094"/>
      <use xlink:href="#DejaVuSans-20" x="567.097656"/>
      <use xlink:href="#DejaVuSans-46" x="598.884766"/>
      <use xlink:href="#DejaVuSans-72" x="649.154297"/>
      <use xlink:href="#DejaVuSans-65" x="688.017578"/>
      <use xlink:href="#DejaVuSans-71" x="749.541016"/>
      <use xlink:href="#DejaVuSans-75" x="813.017578"/>
      <use xlink:href="#DejaVuSans-65" x="876.396484"/>
      <use xlink:href="#DejaVuSans-6e" x="937.919922"/>
      <use xlink:href="#DejaVuSans-63" x="1001.298828"/>
      <use xlink:href="#DejaVuSans-79" x="1056.279297"/>
      <use xlink:href="#DejaVuSans-20" x="1115.458984"/>
      <use xlink:href="#DejaVuSans-5b" x="1147.246094"/>
      <use xlink:href="#DejaVuSans-72" x="1186.259766"/>
      <use xlink:href="#DejaVuSans-61" x="1227.373047"/>
      <use xlink:href="#DejaVuSans-64" x="1288.652344"/>
      <use xlink:href="#DejaVuSans-2f" x="1352.128906"/>
      <use xlink:href="#DejaVuSans-3c0" x="1385.820312"/>
      <use xlink:href="#DejaVuSans-5d" x="1446.025391"/>
     </g>
    </g>
   </g>
   <g id="matplotlib.axis_4">
    <g id="ytick_8">
     <g id="line2d_48">
      <path d="M 404.93 171.725 
L 709.2 171.725 
" clip-path="url(#pd5735a8f9e)" style="fill: none; stroke: #f0f0f0; stroke-width: 0.8; stroke-linecap: square"/>
     </g>
     <g id="line2d_49">
      <g>
       <use xlink:href="#mb777b3fdaa" x="404.93" y="171.725" style="stroke: #000000; stroke-width: 0.8"/>
      </g>
     </g>
     <g id="text_23">
      <!-- 0 -->
      <g transform="translate(391.5675 175.524219)scale(0.1 -0.1)">
       <use xlink:href="#DejaVuSans-30"/>
      </g>
     </g>
    </g>
    <g id="ytick_9">
     <g id="line2d_50">
      <path d="M 404.93 132.535 
L 709.2 132.535 
" clip-path="url(#pd5735a8f9e)" style="fill: none; stroke: #f0f0f0; stroke-width: 0.8; stroke-linecap: square"/>
     </g>
     <g id="line2d_51">
      <g>
       <use xlink:href="#mb777b3fdaa" x="404.93" y="132.535" style="stroke: #000000; stroke-width: 0.8"/>
      </g>
     </g>
     <g id="text_24">
      <!-- 1 -->
      <g transform="translate(391.5675 136.334219)scale(0.1 -0.1)">
       <use xlink:href="#DejaVuSans-31"/>
      </g>
     </g>
    </g>
    <g id="ytick_10">
     <g id="line2d_52">
      <path d="M 404.93 93.345 
L 709.2 93.345 
" clip-path="url(#pd5735a8f9e)" style="fill: none; stroke: #f0f0f0; stroke-width: 0.8; stroke-linecap: square"/>
     </g>
     <g id="line2d_53">
      <g>
       <use xlink:href="#mb777b3fdaa" x="404.93" y="93.345" style="stroke: #000000; stroke-width: 0.8"/>
      </g>
     </g>
     <g id="text_25">
      <!-- 2 -->
      <g transform="translate(391.5675 97.144219)scale(0.1 -0.1)">
       <use xlink:href="#DejaVuSans-32"/>
      </g>
     </g>
    </g>
    <g id="ytick_11">
     <g id="line2d_54">
      <path d="M 404.93 54.155 
L 709.2 54.155 
" clip-path="url(#pd5735a8f9e)" style="fill: none; stroke: #f0f0f0; stroke-width: 0.8; stroke-linecap: square"/>
     </g>
     <g id="line2d_55">
      <g>
       <use xlink:href="#mb777b3fdaa" x="404.93" y="54.155" style="stroke: #000000; stroke-width: 0.8"/>
      </g>
     </g>
     <g id="text_26">
      <!-- 3 -->
      <g transform="translate(391.5675 57.954219)scale(0.1 -0.1)">
       <defs>
        <path id="DejaVuSans-33" d="M 2597 2516 
Q 3050 2419 3304 2112 
Q 3559 1806 3559 1356 
Q 3559 666 3084 287 
Q 2609 -91 1734 -91 
Q 1441 -91 1130 -33 
Q 819 25 488 141 
L 488 750 
Q 750 597 1062 519 
Q 1375 441 1716 441 
Q 2309 441 2620 675 
Q 2931 909 2931 1356 
Q 2931 1769 2642 2001 
Q 2353 2234 1838 2234 
L 1294 2234 
L 1294 2753 
L 1863 2753 
Q 2328 2753 2575 2939 
Q 2822 3125 2822 3475 
Q 2822 3834 2567 4026 
Q 2313 4219 1838 4219 
Q 1578 4219 1281 4162 
Q 984 4106 628 3988 
L 628 4550 
Q 988 4650 1302 4700 
Q 1616 4750 1894 4750 
Q 2613 4750 3031 4423 
Q 3450 4097 3450 3541 
Q 3450 3153 3228 2886 
Q 3006 2619 2597 2516 
z
" transform="scale(0.015625)"/>
       </defs>
       <use xlink:href="#DejaVuSans-33"/>
      </g>
     </g>
    </g>
    <g id="text_27">
     <!-- Group Delay [sample] -->
     <g transform="translate(385.487812 167.757188)rotate(-90)scale(0.1 -0.1)">
      <defs>
       <path id="DejaVuSans-70" d="M 1159 525 
L 1159 -1331 
L 581 -1331 
L 581 3500 
L 1159 3500 
L 1159 2969 
Q 1341 3281 1617 3432 
Q 1894 3584 2278 3584 
Q 2916 3584 3314 3078 
Q 3713 2572 3713 1747 
Q 3713 922 3314 415 
Q 2916 -91 2278 -91 
Q 1894 -91 1617 61 
Q 1341 213 1159 525 
z
M 3116 1747 
Q 3116 2381 2855 2742 
Q 2594 3103 2138 3103 
Q 1681 3103 1420 2742 
Q 1159 2381 1159 1747 
Q 1159 1113 1420 752 
Q 1681 391 2138 391 
Q 2594 391 2855 752 
Q 3116 1113 3116 1747 
z
" transform="scale(0.015625)"/>
       <path id="DejaVuSans-44" d="M 1259 4147 
L 1259 519 
L 2022 519 
Q 2988 519 3436 956 
Q 3884 1394 3884 2338 
Q 3884 3275 3436 3711 
Q 2988 4147 2022 4147 
L 1259 4147 
z
M 628 4666 
L 1925 4666 
Q 3281 4666 3915 4102 
Q 4550 3538 4550 2338 
Q 4550 1131 3912 565 
Q 3275 0 1925 0 
L 628 0 
L 628 4666 
z
" transform="scale(0.015625)"/>
       <path id="DejaVuSans-73" d="M 2834 3397 
L 2834 2853 
Q 2591 2978 2328 3040 
Q 2066 3103 1784 3103 
Q 1356 3103 1142 2972 
Q 928 2841 928 2578 
Q 928 2378 1081 2264 
Q 1234 2150 1697 2047 
L 1894 2003 
Q 2506 1872 2764 1633 
Q 3022 1394 3022 966 
Q 3022 478 2636 193 
Q 2250 -91 1575 -91 
Q 1294 -91 989 -36 
Q 684 19 347 128 
L 347 722 
Q 666 556 975 473 
Q 1284 391 1588 391 
Q 1994 391 2212 530 
Q 2431 669 2431 922 
Q 2431 1156 2273 1281 
Q 2116 1406 1581 1522 
L 1381 1569 
Q 847 1681 609 1914 
Q 372 2147 372 2553 
Q 372 3047 722 3315 
Q 1072 3584 1716 3584 
Q 2034 3584 2315 3537 
Q 2597 3491 2834 3397 
z
" transform="scale(0.015625)"/>
      </defs>
      <use xlink:href="#DejaVuSans-47"/>
      <use xlink:href="#DejaVuSans-72" x="77.490234"/>
      <use xlink:href="#DejaVuSans-6f" x="116.353516"/>
      <use xlink:href="#DejaVuSans-75" x="177.535156"/>
      <use xlink:href="#DejaVuSans-70" x="240.914062"/>
      <use xlink:href="#DejaVuSans-20" x="304.390625"/>
      <use xlink:href="#DejaVuSans-44" x="336.177734"/>
      <use xlink:href="#DejaVuSans-65" x="413.179688"/>
      <use xlink:href="#DejaVuSans-6c" x="474.703125"/>
      <use xlink:href="#DejaVuSans-61" x="502.486328"/>
      <use xlink:href="#DejaVuSans-79" x="563.765625"/>
      <use xlink:href="#DejaVuSans-20" x="622.945312"/>
      <use xlink:href="#DejaVuSans-5b" x="654.732422"/>
      <use xlink:href="#DejaVuSans-73" x="693.746094"/>
      <use xlink:href="#DejaVuSans-61" x="745.845703"/>
      <use xlink:href="#DejaVuSans-6d" x="807.125"/>
      <use xlink:href="#DejaVuSans-70" x="904.537109"/>
      <use xlink:href="#DejaVuSans-6c" x="968.013672"/>
      <use xlink:href="#DejaVuSans-65" x="995.796875"/>
      <use xlink:href="#DejaVuSans-5d" x="1057.320312"/>
     </g>
    </g>
   </g>
   <g id="line2d_56">
    <path d="M 418.760455 132.535 
L 695.369545 132.535 
L 695.369545 132.535 
" clip-path="url(#pd5735a8f9e)" style="fill: none; stroke: #0d0887; stroke-width: 1.5; stroke-linecap: square"/>
   </g>
   <g id="line2d_57">
    <path d="M 418.760455 127.63625 
L 502.135056 127.747088 
L 528.620343 128.009272 
L 547.538405 128.410469 
L 562.537725 128.94323 
L 575.239852 129.611125 
L 586.320431 130.410544 
L 596.319978 131.34935 
L 605.64388 132.445837 
L 614.427266 133.699988 
L 623.075523 135.160321 
L 631.858909 136.873215 
L 641.453069 138.979742 
L 655.776744 142.392197 
L 667.127582 145.002322 
L 674.15429 146.391322 
L 679.964838 147.320347 
L 685.234869 147.94332 
L 690.234643 148.31157 
L 695.099287 148.444674 
L 695.369545 148.445382 
L 695.369545 148.445382 
" clip-path="url(#pd5735a8f9e)" style="fill: none; stroke: #4c02a1; stroke-width: 1.5; stroke-linecap: square"/>
   </g>
   <g id="line2d_58">
    <path d="M 418.760455 122.7375 
L 496.459637 122.848388 
L 521.323376 123.11089 
L 539.025277 123.511129 
L 552.943565 124.039604 
L 564.56466 124.696475 
L 574.564207 125.479299 
L 583.347593 126.385767 
L 591.185076 127.41414 
L 598.346914 128.577452 
L 604.833106 129.853253 
L 610.913912 131.276191 
L 616.589331 132.834278 
L 621.859362 134.508009 
L 626.859136 136.322397 
L 631.72378 138.320893 
L 636.453296 140.502114 
L 641.182811 142.93147 
L 645.912326 145.615092 
L 650.776971 148.635218 
L 656.047002 152.176121 
L 662.533195 156.819384 
L 673.884032 164.98736 
L 677.937903 167.600342 
L 681.316128 169.518604 
L 684.288966 170.951724 
L 686.991547 172.007871 
L 689.558998 172.766094 
L 691.99132 173.24582 
L 694.288513 173.475027 
L 695.369545 173.505977 
L 695.369545 173.505977 
" clip-path="url(#pd5735a8f9e)" style="fill: none; stroke: #7e03a8; stroke-width: 1.5; stroke-linecap: square"/>
   </g>
   <g id="line2d_59">
    <path d="M 418.760455 117.83875 
L 503.621475 117.949822 
L 529.971633 118.210591 
L 548.349179 118.605519 
L 562.537725 119.125005 
L 574.023691 119.759488 
L 583.75298 120.514164 
L 591.99585 121.368896 
L 599.292817 122.345839 
L 605.64388 123.415185 
L 611.319299 124.590605 
L 616.454201 125.877929 
L 621.048588 127.252087 
L 625.237587 128.727755 
L 629.156329 130.339767 
L 632.804812 132.08071 
L 636.183037 133.937085 
L 639.426134 135.979123 
L 642.398972 138.111845 
L 645.236681 140.417205 
L 647.939262 142.894105 
L 650.506713 145.537355 
L 653.074164 148.501625 
L 655.506486 151.643837 
L 657.938809 155.150302 
L 660.371131 159.061891 
L 662.803453 163.420153 
L 665.235775 168.264669 
L 667.668098 173.628797 
L 670.10042 179.533235 
L 672.667871 186.350081 
L 675.50558 194.528869 
L 679.154064 205.786909 
L 684.829482 223.354002 
L 686.991547 229.295397 
L 688.748224 233.486034 
L 690.234643 236.448952 
L 691.450804 238.404381 
L 692.531836 239.748987 
L 693.477739 240.600659 
L 694.288513 241.079099 
L 695.099287 241.319655 
L 695.369545 241.346438 
L 695.369545 241.346438 
" clip-path="url(#pd5735a8f9e)" style="fill: none; stroke: #aa2395; stroke-width: 1.5; stroke-linecap: square"/>
   </g>
   <g id="line2d_60">
    <path d="M 418.760455 112.94 
L 695.369545 112.94 
L 695.369545 112.94 
" clip-path="url(#pd5735a8f9e)" style="fill: none; stroke: #cc4778; stroke-width: 1.5; stroke-linecap: square"/>
   </g>
   <g id="line2d_61">
    <path d="M 418.760455 108.04125 
L 503.621475 107.930178 
L 529.971633 107.669409 
L 548.349179 107.274481 
L 562.537725 106.754995 
L 574.023691 106.120512 
L 583.75298 105.365836 
L 591.99585 104.511104 
L 599.292817 103.534161 
L 605.64388 102.464815 
L 611.319299 101.289395 
L 616.454201 100.002071 
L 621.048588 98.627913 
L 625.237587 97.152245 
L 629.156329 95.540233 
L 632.804812 93.79929 
L 636.183037 91.942915 
L 639.426134 89.900877 
L 642.398972 87.768155 
L 645.236681 85.462795 
L 647.939262 82.985895 
L 650.506713 80.342645 
L 653.074164 77.378375 
L 655.506486 74.236163 
L 657.938809 70.729698 
L 660.371131 66.818109 
L 662.803453 62.459847 
L 665.235775 57.615331 
L 667.668098 52.251203 
L 670.10042 46.346765 
L 672.667871 39.529919 
L 675.50558 31.351131 
L 679.154064 20.093091 
L 684.829482 2.525998 
L 686.080235 -1 
L 686.080235 -1 
" clip-path="url(#pd5735a8f9e)" style="fill: none; stroke: #e66c5c; stroke-width: 1.5; stroke-linecap: square"/>
   </g>
   <g id="line2d_62">
    <path d="M 418.760455 103.1425 
L 496.459637 103.031612 
L 521.323376 102.76911 
L 539.025277 102.368871 
L 552.943565 101.840396 
L 564.56466 101.183525 
L 574.564207 100.400701 
L 583.347593 99.494233 
L 591.185076 98.46586 
L 598.346914 97.302548 
L 604.833106 96.026747 
L 610.913912 94.603809 
L 616.589331 93.045722 
L 621.859362 91.371991 
L 626.859136 89.557603 
L 631.72378 87.559107 
L 636.453296 85.377886 
L 641.182811 82.94853 
L 645.912326 80.264908 
L 650.776971 77.244782 
L 656.047002 73.703879 
L 662.533195 69.060616 
L 673.884032 60.89264 
L 677.937903 58.279658 
L 681.316128 56.361396 
L 684.288966 54.928276 
L 686.991547 53.872129 
L 689.558998 53.113906 
L 691.99132 52.63418 
L 694.288513 52.404973 
L 695.369545 52.374023 
L 695.369545 52.374023 
" clip-path="url(#pd5735a8f9e)" style="fill: none; stroke: #f89540; stroke-width: 1.5; stroke-linecap: square"/>
   </g>
   <g id="line2d_63">
    <path d="M 418.760455 98.24375 
L 502.135056 98.132912 
L 528.620343 97.870728 
L 547.538405 97.469531 
L 562.537725 96.93677 
L 575.239852 96.268875 
L 586.320431 95.469456 
L 596.319978 94.53065 
L 605.64388 93.434163 
L 614.427266 92.180012 
L 623.075523 90.719679 
L 631.858909 89.006785 
L 641.453069 86.900258 
L 655.776744 83.487803 
L 667.127582 80.877678 
L 674.15429 79.488678 
L 679.964838 78.559653 
L 685.234869 77.93668 
L 690.234643 77.56843 
L 695.099287 77.435326 
L 695.369545 77.434618 
L 695.369545 77.434618 
" clip-path="url(#pd5735a8f9e)" style="fill: none; stroke: #fdc527; stroke-width: 1.5; stroke-linecap: square"/>
   </g>
   <g id="line2d_64">
    <path d="M 418.760455 93.345 
L 695.369545 93.345 
L 695.369545 93.345 
" clip-path="url(#pd5735a8f9e)" style="fill: none; stroke: #f0f921; stroke-width: 1.5; stroke-linecap: square"/>
   </g>
   <g id="patch_8">
    <path d="M 404.93 191.32 
L 404.93 34.56 
" style="fill: none; stroke: #000000; stroke-width: 0.8; stroke-linejoin: miter; stroke-linecap: square"/>
   </g>
   <g id="patch_9">
    <path d="M 709.2 191.32 
L 709.2 34.56 
" style="fill: none; stroke: #000000; stroke-width: 0.8; stroke-linejoin: miter; stroke-linecap: square"/>
   </g>
   <g id="patch_10">
    <path d="M 404.93 191.32 
L 709.2 191.32 
" style="fill: none; stroke: #000000; stroke-width: 0.8; stroke-linejoin: miter; stroke-linecap: square"/>
   </g>
   <g id="patch_11">
    <path d="M 404.93 34.56 
L 709.2 34.56 
" style="fill: none; stroke: #000000; stroke-width: 0.8; stroke-linejoin: miter; stroke-linecap: square"/>
   </g>
  </g>
  <g id="axes_3">
   <g id="patch_12">
    <path d="M 52.94 390.04 
L 357.21 390.04 
L 357.21 233.28 
L 52.94 233.28 
z
" style="fill: #ffffff"/>
   </g>
   <g id="matplotlib.axis_5">
    <g id="xtick_13">
     <g id="line2d_65">
      <path d="M 66.770455 390.04 
L 66.770455 233.28 
" clip-path="url(#pde3174debb)" style="fill: none; stroke: #f0f0f0; stroke-width: 0.8; stroke-linecap: square"/>
     </g>
     <g id="line2d_66">
      <g>
       <use xlink:href="#ma8936085a4" x="66.770455" y="390.04" style="stroke: #000000; stroke-width: 0.8"/>
      </g>
     </g>
     <g id="text_28">
      <!-- 0.0 -->
      <g transform="translate(58.818892 404.638437)scale(0.1 -0.1)">
       <use xlink:href="#DejaVuSans-30"/>
       <use xlink:href="#DejaVuSans-2e" x="63.623047"/>
       <use xlink:href="#DejaVuSans-30" x="95.410156"/>
      </g>
     </g>
    </g>
    <g id="xtick_14">
     <g id="line2d_67">
      <path d="M 122.119299 390.04 
L 122.119299 233.28 
" clip-path="url(#pde3174debb)" style="fill: none; stroke: #f0f0f0; stroke-width: 0.8; stroke-linecap: square"/>
     </g>
     <g id="line2d_68">
      <g>
       <use xlink:href="#ma8936085a4" x="122.119299" y="390.04" style="stroke: #000000; stroke-width: 0.8"/>
      </g>
     </g>
     <g id="text_29">
      <!-- 0.2 -->
      <g transform="translate(114.167736 404.638437)scale(0.1 -0.1)">
       <use xlink:href="#DejaVuSans-30"/>
       <use xlink:href="#DejaVuSans-2e" x="63.623047"/>
       <use xlink:href="#DejaVuSans-32" x="95.410156"/>
      </g>
     </g>
    </g>
    <g id="xtick_15">
     <g id="line2d_69">
      <path d="M 177.468143 390.04 
L 177.468143 233.28 
" clip-path="url(#pde3174debb)" style="fill: none; stroke: #f0f0f0; stroke-width: 0.8; stroke-linecap: square"/>
     </g>
     <g id="line2d_70">
      <g>
       <use xlink:href="#ma8936085a4" x="177.468143" y="390.04" style="stroke: #000000; stroke-width: 0.8"/>
      </g>
     </g>
     <g id="text_30">
      <!-- 0.4 -->
      <g transform="translate(169.51658 404.638437)scale(0.1 -0.1)">
       <use xlink:href="#DejaVuSans-30"/>
       <use xlink:href="#DejaVuSans-2e" x="63.623047"/>
       <use xlink:href="#DejaVuSans-34" x="95.410156"/>
      </g>
     </g>
    </g>
    <g id="xtick_16">
     <g id="line2d_71">
      <path d="M 232.816986 390.04 
L 232.816986 233.28 
" clip-path="url(#pde3174debb)" style="fill: none; stroke: #f0f0f0; stroke-width: 0.8; stroke-linecap: square"/>
     </g>
     <g id="line2d_72">
      <g>
       <use xlink:href="#ma8936085a4" x="232.816986" y="390.04" style="stroke: #000000; stroke-width: 0.8"/>
      </g>
     </g>
     <g id="text_31">
      <!-- 0.6 -->
      <g transform="translate(224.865424 404.638437)scale(0.1 -0.1)">
       <use xlink:href="#DejaVuSans-30"/>
       <use xlink:href="#DejaVuSans-2e" x="63.623047"/>
       <use xlink:href="#DejaVuSans-36" x="95.410156"/>
      </g>
     </g>
    </g>
    <g id="xtick_17">
     <g id="line2d_73">
      <path d="M 288.16583 390.04 
L 288.16583 233.28 
" clip-path="url(#pde3174debb)" style="fill: none; stroke: #f0f0f0; stroke-width: 0.8; stroke-linecap: square"/>
     </g>
     <g id="line2d_74">
      <g>
       <use xlink:href="#ma8936085a4" x="288.16583" y="390.04" style="stroke: #000000; stroke-width: 0.8"/>
      </g>
     </g>
     <g id="text_32">
      <!-- 0.8 -->
      <g transform="translate(280.214268 404.638437)scale(0.1 -0.1)">
       <use xlink:href="#DejaVuSans-30"/>
       <use xlink:href="#DejaVuSans-2e" x="63.623047"/>
       <use xlink:href="#DejaVuSans-38" x="95.410156"/>
      </g>
     </g>
    </g>
    <g id="xtick_18">
     <g id="line2d_75">
      <path d="M 343.514674 390.04 
L 343.514674 233.28 
" clip-path="url(#pde3174debb)" style="fill: none; stroke: #f0f0f0; stroke-width: 0.8; stroke-linecap: square"/>
     </g>
     <g id="line2d_76">
      <g>
       <use xlink:href="#ma8936085a4" x="343.514674" y="390.04" style="stroke: #000000; stroke-width: 0.8"/>
      </g>
     </g>
     <g id="text_33">
      <!-- 1.0 -->
      <g transform="translate(335.563112 404.638437)scale(0.1 -0.1)">
       <use xlink:href="#DejaVuSans-31"/>
       <use xlink:href="#DejaVuSans-2e" x="63.623047"/>
       <use xlink:href="#DejaVuSans-30" x="95.410156"/>
      </g>
     </g>
    </g>
    <g id="text_34">
     <!-- Normalized Frequency [rad/π] -->
     <g transform="translate(130.821875 418.316562)scale(0.1 -0.1)">
      <use xlink:href="#DejaVuSans-4e"/>
      <use xlink:href="#DejaVuSans-6f" x="74.804688"/>
      <use xlink:href="#DejaVuSans-72" x="135.986328"/>
      <use xlink:href="#DejaVuSans-6d" x="175.349609"/>
      <use xlink:href="#DejaVuSans-61" x="272.761719"/>
      <use xlink:href="#DejaVuSans-6c" x="334.041016"/>
      <use xlink:href="#DejaVuSans-69" x="361.824219"/>
      <use xlink:href="#DejaVuSans-7a" x="389.607422"/>
      <use xlink:href="#DejaVuSans-65" x="442.097656"/>
      <use xlink:href="#DejaVuSans-64" x="503.621094"/>
      <use xlink:href="#DejaVuSans-20" x="567.097656"/>
      <use xlink:href="#DejaVuSans-46" x="598.884766"/>
      <use xlink:href="#DejaVuSans-72" x="649.154297"/>
      <use xlink:href="#DejaVuSans-65" x="688.017578"/>
      <use xlink:href="#DejaVuSans-71" x="749.541016"/>
      <use xlink:href="#DejaVuSans-75" x="813.017578"/>
      <use xlink:href="#DejaVuSans-65" x="876.396484"/>
      <use xlink:href="#DejaVuSans-6e" x="937.919922"/>
      <use xlink:href="#DejaVuSans-63" x="1001.298828"/>
      <use xlink:href="#DejaVuSans-79" x="1056.279297"/>
      <use xlink:href="#DejaVuSans-20" x="1115.458984"/>
      <use xlink:href="#DejaVuSans-5b" x="1147.246094"/>
      <use xlink:href="#DejaVuSans-72" x="1186.259766"/>
      <use xlink:href="#DejaVuSans-61" x="1227.373047"/>
      <use xlink:href="#DejaVuSans-64" x="1288.652344"/>
      <use xlink:href="#DejaVuSans-2f" x="1352.128906"/>
      <use xlink:href="#DejaVuSans-3c0" x="1385.820312"/>
      <use xlink:href="#DejaVuSans-5d" x="1446.025391"/>
     </g>
    </g>
   </g>
   <g id="matplotlib.axis_6">
    <g id="ytick_12">
     <g id="line2d_77">
      <path d="M 52.94 376.558093 
L 357.21 376.558093 
" clip-path="url(#pde3174debb)" style="fill: none; stroke: #f0f0f0; stroke-width: 0.8; stroke-linecap: square"/>
     </g>
     <g id="line2d_78">
      <g>
       <use xlink:href="#mb777b3fdaa" x="52.94" y="376.558093" style="stroke: #000000; stroke-width: 0.8"/>
      </g>
     </g>
     <g id="text_35">
      <!-- −6 -->
      <g transform="translate(31.197813 380.357312)scale(0.1 -0.1)">
       <use xlink:href="#DejaVuSans-2212"/>
       <use xlink:href="#DejaVuSans-36" x="83.789062"/>
      </g>
     </g>
    </g>
    <g id="ytick_13">
     <g id="line2d_79">
      <path d="M 52.94 353.865986 
L 357.21 353.865986 
" clip-path="url(#pde3174debb)" style="fill: none; stroke: #f0f0f0; stroke-width: 0.8; stroke-linecap: square"/>
     </g>
     <g id="line2d_80">
      <g>
       <use xlink:href="#mb777b3fdaa" x="52.94" y="353.865986" style="stroke: #000000; stroke-width: 0.8"/>
      </g>
     </g>
     <g id="text_36">
      <!-- −5 -->
      <g transform="translate(31.197813 357.665205)scale(0.1 -0.1)">
       <defs>
        <path id="DejaVuSans-35" d="M 691 4666 
L 3169 4666 
L 3169 4134 
L 1269 4134 
L 1269 2991 
Q 1406 3038 1543 3061 
Q 1681 3084 1819 3084 
Q 2600 3084 3056 2656 
Q 3513 2228 3513 1497 
Q 3513 744 3044 326 
Q 2575 -91 1722 -91 
Q 1428 -91 1123 -41 
Q 819 9 494 109 
L 494 744 
Q 775 591 1075 516 
Q 1375 441 1709 441 
Q 2250 441 2565 725 
Q 2881 1009 2881 1497 
Q 2881 1984 2565 2268 
Q 2250 2553 1709 2553 
Q 1456 2553 1204 2497 
Q 953 2441 691 2322 
L 691 4666 
z
" transform="scale(0.015625)"/>
       </defs>
       <use xlink:href="#DejaVuSans-2212"/>
       <use xlink:href="#DejaVuSans-35" x="83.789062"/>
      </g>
     </g>
    </g>
    <g id="ytick_14">
     <g id="line2d_81">
      <path d="M 52.94 331.17388 
L 357.21 331.17388 
" clip-path="url(#pde3174debb)" style="fill: none; stroke: #f0f0f0; stroke-width: 0.8; stroke-linecap: square"/>
     </g>
     <g id="line2d_82">
      <g>
       <use xlink:href="#mb777b3fdaa" x="52.94" y="331.17388" style="stroke: #000000; stroke-width: 0.8"/>
      </g>
     </g>
     <g id="text_37">
      <!-- −4 -->
      <g transform="translate(31.197813 334.973099)scale(0.1 -0.1)">
       <use xlink:href="#DejaVuSans-2212"/>
       <use xlink:href="#DejaVuSans-34" x="83.789062"/>
      </g>
     </g>
    </g>
    <g id="ytick_15">
     <g id="line2d_83">
      <path d="M 52.94 308.481774 
L 357.21 308.481774 
" clip-path="url(#pde3174debb)" style="fill: none; stroke: #f0f0f0; stroke-width: 0.8; stroke-linecap: square"/>
     </g>
     <g id="line2d_84">
      <g>
       <use xlink:href="#mb777b3fdaa" x="52.94" y="308.481774" style="stroke: #000000; stroke-width: 0.8"/>
      </g>
     </g>
     <g id="text_38">
      <!-- −3 -->
      <g transform="translate(31.197813 312.280992)scale(0.1 -0.1)">
       <use xlink:href="#DejaVuSans-2212"/>
       <use xlink:href="#DejaVuSans-33" x="83.789062"/>
      </g>
     </g>
    </g>
    <g id="ytick_16">
     <g id="line2d_85">
      <path d="M 52.94 285.789667 
L 357.21 285.789667 
" clip-path="url(#pde3174debb)" style="fill: none; stroke: #f0f0f0; stroke-width: 0.8; stroke-linecap: square"/>
     </g>
     <g id="line2d_86">
      <g>
       <use xlink:href="#mb777b3fdaa" x="52.94" y="285.789667" style="stroke: #000000; stroke-width: 0.8"/>
      </g>
     </g>
     <g id="text_39">
      <!-- −2 -->
      <g transform="translate(31.197813 289.588886)scale(0.1 -0.1)">
       <use xlink:href="#DejaVuSans-2212"/>
       <use xlink:href="#DejaVuSans-32" x="83.789062"/>
      </g>
     </g>
    </g>
    <g id="ytick_17">
     <g id="line2d_87">
      <path d="M 52.94 263.097561 
L 357.21 263.097561 
" clip-path="url(#pde3174debb)" style="fill: none; stroke: #f0f0f0; stroke-width: 0.8; stroke-linecap: square"/>
     </g>
     <g id="line2d_88">
      <g>
       <use xlink:href="#mb777b3fdaa" x="52.94" y="263.097561" style="stroke: #000000; stroke-width: 0.8"/>
      </g>
     </g>
     <g id="text_40">
      <!-- −1 -->
      <g transform="translate(31.197813 266.89678)scale(0.1 -0.1)">
       <use xlink:href="#DejaVuSans-2212"/>
       <use xlink:href="#DejaVuSans-31" x="83.789062"/>
      </g>
     </g>
    </g>
    <g id="ytick_18">
     <g id="line2d_89">
      <path d="M 52.94 240.405455 
L 357.21 240.405455 
" clip-path="url(#pde3174debb)" style="fill: none; stroke: #f0f0f0; stroke-width: 0.8; stroke-linecap: square"/>
     </g>
     <g id="line2d_90">
      <g>
       <use xlink:href="#mb777b3fdaa" x="52.94" y="240.405455" style="stroke: #000000; stroke-width: 0.8"/>
      </g>
     </g>
     <g id="text_41">
      <!-- 0 -->
      <g transform="translate(39.5775 244.204673)scale(0.1 -0.1)">
       <use xlink:href="#DejaVuSans-30"/>
      </g>
     </g>
    </g>
    <g id="text_42">
     <!-- Phase [rad] -->
     <g transform="translate(25.118125 340.373281)rotate(-90)scale(0.1 -0.1)">
      <defs>
       <path id="DejaVuSans-50" d="M 1259 4147 
L 1259 2394 
L 2053 2394 
Q 2494 2394 2734 2622 
Q 2975 2850 2975 3272 
Q 2975 3691 2734 3919 
Q 2494 4147 2053 4147 
L 1259 4147 
z
M 628 4666 
L 2053 4666 
Q 2838 4666 3239 4311 
Q 3641 3956 3641 3272 
Q 3641 2581 3239 2228 
Q 2838 1875 2053 1875 
L 1259 1875 
L 1259 0 
L 628 0 
L 628 4666 
z
" transform="scale(0.015625)"/>
       <path id="DejaVuSans-68" d="M 3513 2113 
L 3513 0 
L 2938 0 
L 2938 2094 
Q 2938 2591 2744 2837 
Q 2550 3084 2163 3084 
Q 1697 3084 1428 2787 
Q 1159 2491 1159 1978 
L 1159 0 
L 581 0 
L 581 4863 
L 1159 4863 
L 1159 2956 
Q 1366 3272 1645 3428 
Q 1925 3584 2291 3584 
Q 2894 3584 3203 3211 
Q 3513 2838 3513 2113 
z
" transform="scale(0.015625)"/>
      </defs>
      <use xlink:href="#DejaVuSans-50"/>
      <use xlink:href="#DejaVuSans-68" x="60.302734"/>
      <use xlink:href="#DejaVuSans-61" x="123.681641"/>
      <use xlink:href="#DejaVuSans-73" x="184.960938"/>
      <use xlink:href="#DejaVuSans-65" x="237.060547"/>
      <use xlink:href="#DejaVuSans-20" x="298.583984"/>
      <use xlink:href="#DejaVuSans-5b" x="330.371094"/>
      <use xlink:href="#DejaVuSans-72" x="369.384766"/>
      <use xlink:href="#DejaVuSans-61" x="410.498047"/>
      <use xlink:href="#DejaVuSans-64" x="471.777344"/>
      <use xlink:href="#DejaVuSans-5d" x="535.253906"/>
     </g>
    </g>
   </g>
   <g id="line2d_91">
    <path d="M 66.770455 240.405455 
L 343.379545 311.66 
L 343.379545 311.66 
" clip-path="url(#pde3174debb)" style="fill: none; stroke: #0d0887; stroke-width: 1.5; stroke-linecap: square"/>
   </g>
   <g id="line2d_92">
    <path d="M 66.770455 240.405455 
L 194.872759 277.414003 
L 225.276788 285.958482 
L 246.356914 291.660235 
L 262.977782 295.933397 
L 277.166329 299.358213 
L 290.003585 302.230969 
L 302.030067 304.697221 
L 314.056549 306.936976 
L 327.299193 309.169422 
L 343.379545 311.674132 
L 343.379545 311.674132 
" clip-path="url(#pde3174debb)" style="fill: none; stroke: #4c02a1; stroke-width: 1.5; stroke-linecap: square"/>
   </g>
   <g id="line2d_93">
    <path d="M 66.770455 240.405455 
L 187.98118 279.319018 
L 216.628531 288.27617 
L 236.087109 294.13884 
L 251.086429 298.435647 
L 263.383169 301.73555 
L 273.923232 304.339418 
L 283.112005 306.386335 
L 291.354875 308.000863 
L 298.9221 309.261914 
L 306.083938 310.231694 
L 312.975517 310.940068 
L 319.731968 311.413429 
L 326.893806 311.687694 
L 335.001547 311.76626 
L 343.379545 311.696391 
L 343.379545 311.696391 
" clip-path="url(#pde3174debb)" style="fill: none; stroke: #7e03a8; stroke-width: 1.5; stroke-linecap: square"/>
   </g>
   <g id="line2d_94">
    <path d="M 66.770455 240.405455 
L 196.629437 286.283896 
L 226.087562 296.450959 
L 245.54614 302.944061 
L 260.004944 307.545599 
L 271.49091 310.97535 
L 280.814812 313.535037 
L 288.652295 315.461897 
L 295.273617 316.868601 
L 301.084164 317.880173 
L 306.219067 318.549421 
L 310.813453 318.922877 
L 314.867324 319.035949 
L 318.650936 318.923645 
L 322.16429 318.60208 
L 325.542516 318.072542 
L 328.920741 317.311262 
L 332.298966 316.314585 
L 335.812321 315.044917 
L 340.00132 313.285455 
L 343.379545 311.75665 
L 343.379545 311.75665 
" clip-path="url(#pde3174debb)" style="fill: none; stroke: #aa2395; stroke-width: 1.5; stroke-linecap: square"/>
   </g>
   <g id="line2d_95">
    <path d="M 66.770455 240.405455 
L 343.379545 347.287273 
L 343.379545 347.287273 
" clip-path="url(#pde3174debb)" style="fill: none; stroke: #cc4778; stroke-width: 1.5; stroke-linecap: square"/>
   </g>
   <g id="line2d_96">
    <path d="M 66.770455 240.405455 
L 197.169953 295.111136 
L 226.763207 307.773026 
L 246.356914 316.387131 
L 260.950847 323.036617 
L 272.436813 328.504317 
L 281.895844 333.245171 
L 289.868456 337.483723 
L 296.760036 341.397357 
L 302.705712 345.024911 
L 307.975744 348.494487 
L 312.705259 351.866135 
L 317.029388 355.211433 
L 321.083258 358.619062 
L 325.002 362.199823 
L 328.920741 366.089513 
L 332.839482 370.295219 
L 337.163611 375.269036 
L 343.109287 382.485382 
L 343.379545 382.817895 
L 343.379545 382.817895 
" clip-path="url(#pde3174debb)" style="fill: none; stroke: #e66c5c; stroke-width: 1.5; stroke-linecap: square"/>
   </g>
   <g id="line2d_97">
    <path d="M 66.770455 240.405455 
L 188.927083 295.595092 
L 217.844692 308.911725 
L 237.438399 318.167705 
L 252.707977 325.61944 
L 265.274976 331.995163 
L 275.950168 337.654365 
L 285.409199 342.915792 
L 293.922326 347.899822 
L 301.894938 352.822933 
L 309.462163 357.755891 
L 316.894259 362.865608 
L 324.596613 368.435606 
L 333.244869 374.976631 
L 343.379545 382.878154 
L 343.379545 382.878154 
" clip-path="url(#pde3174debb)" style="fill: none; stroke: #f89540; stroke-width: 1.5; stroke-linecap: square"/>
   </g>
   <g id="line2d_98">
    <path d="M 66.770455 240.405455 
L 196.359179 303.119953 
L 227.033465 318.219647 
L 248.383849 328.968092 
L 265.410105 337.782847 
L 280.004038 345.584724 
L 293.246681 352.913548 
L 305.948809 360.196508 
L 319.056323 367.972048 
L 334.59616 377.464102 
L 343.379545 382.900414 
L 343.379545 382.900414 
" clip-path="url(#pde3174debb)" style="fill: none; stroke: #fdc527; stroke-width: 1.5; stroke-linecap: square"/>
   </g>
   <g id="line2d_99">
    <path d="M 66.770455 240.405455 
L 343.379545 382.914545 
L 343.379545 382.914545 
" clip-path="url(#pde3174debb)" style="fill: none; stroke: #f0f921; stroke-width: 1.5; stroke-linecap: square"/>
   </g>
   <g id="patch_13">
    <path d="M 52.94 390.04 
L 52.94 233.28 
" style="fill: none; stroke: #000000; stroke-width: 0.8; stroke-linejoin: miter; stroke-linecap: square"/>
   </g>
   <g id="patch_14">
    <path d="M 357.21 390.04 
L 357.21 233.28 
" style="fill: none; stroke: #000000; stroke-width: 0.8; stroke-linejoin: miter; stroke-linecap: square"/>
   </g>
   <g id="patch_15">
    <path d="M 52.94 390.04 
L 357.21 390.04 
" style="fill: none; stroke: #000000; stroke-width: 0.8; stroke-linejoin: miter; stroke-linecap: square"/>
   </g>
   <g id="patch_16">
    <path d="M 52.94 233.28 
L 357.21 233.28 
" style="fill: none; stroke: #000000; stroke-width: 0.8; stroke-linejoin: miter; stroke-linecap: square"/>
   </g>
  </g>
  <g id="axes_4">
   <g id="patch_17">
    <path d="M 404.93 390.04 
L 709.2 390.04 
L 709.2 233.28 
L 404.93 233.28 
z
" style="fill: #ffffff"/>
   </g>
   <g id="matplotlib.axis_7">
    <g id="xtick_19">
     <g id="line2d_100">
      <path d="M 418.760455 390.04 
L 418.760455 233.28 
" clip-path="url(#pbe93442038)" style="fill: none; stroke: #f0f0f0; stroke-width: 0.8; stroke-linecap: square"/>
     </g>
     <g id="line2d_101">
      <g>
       <use xlink:href="#ma8936085a4" x="418.760455" y="390.04" style="stroke: #000000; stroke-width: 0.8"/>
      </g>
     </g>
     <g id="text_43">
      <!-- 0 -->
      <g transform="translate(415.579205 404.638437)scale(0.1 -0.1)">
       <use xlink:href="#DejaVuSans-30"/>
      </g>
     </g>
    </g>
    <g id="xtick_20">
     <g id="line2d_102">
      <path d="M 510.963485 390.04 
L 510.963485 233.28 
" clip-path="url(#pbe93442038)" style="fill: none; stroke: #f0f0f0; stroke-width: 0.8; stroke-linecap: square"/>
     </g>
     <g id="line2d_103">
      <g>
       <use xlink:href="#ma8936085a4" x="510.963485" y="390.04" style="stroke: #000000; stroke-width: 0.8"/>
      </g>
     </g>
     <g id="text_44">
      <!-- 1 -->
      <g transform="translate(507.782235 404.638437)scale(0.1 -0.1)">
       <use xlink:href="#DejaVuSans-31"/>
      </g>
     </g>
    </g>
    <g id="xtick_21">
     <g id="line2d_104">
      <path d="M 603.166515 390.04 
L 603.166515 233.28 
" clip-path="url(#pbe93442038)" style="fill: none; stroke: #f0f0f0; stroke-width: 0.8; stroke-linecap: square"/>
     </g>
     <g id="line2d_105">
      <g>
       <use xlink:href="#ma8936085a4" x="603.166515" y="390.04" style="stroke: #000000; stroke-width: 0.8"/>
      </g>
     </g>
     <g id="text_45">
      <!-- 2 -->
      <g transform="translate(599.985265 404.638437)scale(0.1 -0.1)">
       <use xlink:href="#DejaVuSans-32"/>
      </g>
     </g>
    </g>
    <g id="xtick_22">
     <g id="line2d_106">
      <path d="M 695.369545 390.04 
L 695.369545 233.28 
" clip-path="url(#pbe93442038)" style="fill: none; stroke: #f0f0f0; stroke-width: 0.8; stroke-linecap: square"/>
     </g>
     <g id="line2d_107">
      <g>
       <use xlink:href="#ma8936085a4" x="695.369545" y="390.04" style="stroke: #000000; stroke-width: 0.8"/>
      </g>
     </g>
     <g id="text_46">
      <!-- 3 -->
      <g transform="translate(692.188295 404.638437)scale(0.1 -0.1)">
       <use xlink:href="#DejaVuSans-33"/>
      </g>
     </g>
    </g>
    <g id="text_47">
     <!-- Time [sample] -->
     <g transform="translate(521.161875 418.316562)scale(0.1 -0.1)">
      <defs>
       <path id="DejaVuSans-54" d="M -19 4666 
L 3928 4666 
L 3928 4134 
L 2272 4134 
L 2272 0 
L 1638 0 
L 1638 4134 
L -19 4134 
L -19 4666 
z
" transform="scale(0.015625)"/>
      </defs>
      <use xlink:href="#DejaVuSans-54"/>
      <use xlink:href="#DejaVuSans-69" x="57.958984"/>
      <use xlink:href="#DejaVuSans-6d" x="85.742188"/>
      <use xlink:href="#DejaVuSans-65" x="183.154297"/>
      <use xlink:href="#DejaVuSans-20" x="244.677734"/>
      <use xlink:href="#DejaVuSans-5b" x="276.464844"/>
      <use xlink:href="#DejaVuSans-73" x="315.478516"/>
      <use xlink:href="#DejaVuSans-61" x="367.578125"/>
      <use xlink:href="#DejaVuSans-6d" x="428.857422"/>
      <use xlink:href="#DejaVuSans-70" x="526.269531"/>
      <use xlink:href="#DejaVuSans-6c" x="589.746094"/>
      <use xlink:href="#DejaVuSans-65" x="617.529297"/>
      <use xlink:href="#DejaVuSans-5d" x="679.052734"/>
     </g>
    </g>
   </g>
   <g id="matplotlib.axis_8">
    <g id="ytick_19">
     <g id="line2d_108">
      <path d="M 404.93 382.914545 
L 709.2 382.914545 
" clip-path="url(#pbe93442038)" style="fill: none; stroke: #f0f0f0; stroke-width: 0.8; stroke-linecap: square"/>
     </g>
     <g id="line2d_109">
      <g>
       <use xlink:href="#mb777b3fdaa" x="404.93" y="382.914545" style="stroke: #000000; stroke-width: 0.8"/>
      </g>
     </g>
     <g id="text_48">
      <!-- 0.0 -->
      <g transform="translate(382.026875 386.713764)scale(0.1 -0.1)">
       <use xlink:href="#DejaVuSans-30"/>
       <use xlink:href="#DejaVuSans-2e" x="63.623047"/>
       <use xlink:href="#DejaVuSans-30" x="95.410156"/>
      </g>
     </g>
    </g>
    <g id="ytick_20">
     <g id="line2d_110">
      <path d="M 404.93 340.161818 
L 709.2 340.161818 
" clip-path="url(#pbe93442038)" style="fill: none; stroke: #f0f0f0; stroke-width: 0.8; stroke-linecap: square"/>
     </g>
     <g id="line2d_111">
      <g>
       <use xlink:href="#mb777b3fdaa" x="404.93" y="340.161818" style="stroke: #000000; stroke-width: 0.8"/>
      </g>
     </g>
     <g id="text_49">
      <!-- 0.2 -->
      <g transform="translate(382.026875 343.961037)scale(0.1 -0.1)">
       <use xlink:href="#DejaVuSans-30"/>
       <use xlink:href="#DejaVuSans-2e" x="63.623047"/>
       <use xlink:href="#DejaVuSans-32" x="95.410156"/>
      </g>
     </g>
    </g>
    <g id="ytick_21">
     <g id="line2d_112">
      <path d="M 404.93 297.409091 
L 709.2 297.409091 
" clip-path="url(#pbe93442038)" style="fill: none; stroke: #f0f0f0; stroke-width: 0.8; stroke-linecap: square"/>
     </g>
     <g id="line2d_113">
      <g>
       <use xlink:href="#mb777b3fdaa" x="404.93" y="297.409091" style="stroke: #000000; stroke-width: 0.8"/>
      </g>
     </g>
     <g id="text_50">
      <!-- 0.4 -->
      <g transform="translate(382.026875 301.20831)scale(0.1 -0.1)">
       <use xlink:href="#DejaVuSans-30"/>
       <use xlink:href="#DejaVuSans-2e" x="63.623047"/>
       <use xlink:href="#DejaVuSans-34" x="95.410156"/>
      </g>
     </g>
    </g>
    <g id="ytick_22">
     <g id="line2d_114">
      <path d="M 404.93 254.656364 
L 709.2 254.656364 
" clip-path="url(#pbe93442038)" style="fill: none; stroke: #f0f0f0; stroke-width: 0.8; stroke-linecap: square"/>
     </g>
     <g id="line2d_115">
      <g>
       <use xlink:href="#mb777b3fdaa" x="404.93" y="254.656364" style="stroke: #000000; stroke-width: 0.8"/>
      </g>
     </g>
     <g id="text_51">
      <!-- 0.6 -->
      <g transform="translate(382.026875 258.455582)scale(0.1 -0.1)">
       <use xlink:href="#DejaVuSans-30"/>
       <use xlink:href="#DejaVuSans-2e" x="63.623047"/>
       <use xlink:href="#DejaVuSans-36" x="95.410156"/>
      </g>
     </g>
    </g>
    <g id="text_52">
     <!-- Amplitude of FIR Coefficient -->
     <g transform="translate(375.947187 381.574844)rotate(-90)scale(0.1 -0.1)">
      <defs>
       <path id="DejaVuSans-41" d="M 2188 4044 
L 1331 1722 
L 3047 1722 
L 2188 4044 
z
M 1831 4666 
L 2547 4666 
L 4325 0 
L 3669 0 
L 3244 1197 
L 1141 1197 
L 716 0 
L 50 0 
L 1831 4666 
z
" transform="scale(0.015625)"/>
       <path id="DejaVuSans-74" d="M 1172 4494 
L 1172 3500 
L 2356 3500 
L 2356 3053 
L 1172 3053 
L 1172 1153 
Q 1172 725 1289 603 
Q 1406 481 1766 481 
L 2356 481 
L 2356 0 
L 1766 0 
Q 1100 0 847 248 
Q 594 497 594 1153 
L 594 3053 
L 172 3053 
L 172 3500 
L 594 3500 
L 594 4494 
L 1172 4494 
z
" transform="scale(0.015625)"/>
       <path id="DejaVuSans-66" d="M 2375 4863 
L 2375 4384 
L 1825 4384 
Q 1516 4384 1395 4259 
Q 1275 4134 1275 3809 
L 1275 3500 
L 2222 3500 
L 2222 3053 
L 1275 3053 
L 1275 0 
L 697 0 
L 697 3053 
L 147 3053 
L 147 3500 
L 697 3500 
L 697 3744 
Q 697 4328 969 4595 
Q 1241 4863 1831 4863 
L 2375 4863 
z
" transform="scale(0.015625)"/>
       <path id="DejaVuSans-49" d="M 628 4666 
L 1259 4666 
L 1259 0 
L 628 0 
L 628 4666 
z
" transform="scale(0.015625)"/>
       <path id="DejaVuSans-52" d="M 2841 2188 
Q 3044 2119 3236 1894 
Q 3428 1669 3622 1275 
L 4263 0 
L 3584 0 
L 2988 1197 
Q 2756 1666 2539 1819 
Q 2322 1972 1947 1972 
L 1259 1972 
L 1259 0 
L 628 0 
L 628 4666 
L 2053 4666 
Q 2853 4666 3247 4331 
Q 3641 3997 3641 3322 
Q 3641 2881 3436 2590 
Q 3231 2300 2841 2188 
z
M 1259 4147 
L 1259 2491 
L 2053 2491 
Q 2509 2491 2742 2702 
Q 2975 2913 2975 3322 
Q 2975 3731 2742 3939 
Q 2509 4147 2053 4147 
L 1259 4147 
z
" transform="scale(0.015625)"/>
       <path id="DejaVuSans-43" d="M 4122 4306 
L 4122 3641 
Q 3803 3938 3442 4084 
Q 3081 4231 2675 4231 
Q 1875 4231 1450 3742 
Q 1025 3253 1025 2328 
Q 1025 1406 1450 917 
Q 1875 428 2675 428 
Q 3081 428 3442 575 
Q 3803 722 4122 1019 
L 4122 359 
Q 3791 134 3420 21 
Q 3050 -91 2638 -91 
Q 1578 -91 968 557 
Q 359 1206 359 2328 
Q 359 3453 968 4101 
Q 1578 4750 2638 4750 
Q 3056 4750 3426 4639 
Q 3797 4528 4122 4306 
z
" transform="scale(0.015625)"/>
      </defs>
      <use xlink:href="#DejaVuSans-41"/>
      <use xlink:href="#DejaVuSans-6d" x="68.408203"/>
      <use xlink:href="#DejaVuSans-70" x="165.820312"/>
      <use xlink:href="#DejaVuSans-6c" x="229.296875"/>
      <use xlink:href="#DejaVuSans-69" x="257.080078"/>
      <use xlink:href="#DejaVuSans-74" x="284.863281"/>
      <use xlink:href="#DejaVuSans-75" x="324.072266"/>
      <use xlink:href="#DejaVuSans-64" x="387.451172"/>
      <use xlink:href="#DejaVuSans-65" x="450.927734"/>
      <use xlink:href="#DejaVuSans-20" x="512.451172"/>
      <use xlink:href="#DejaVuSans-6f" x="544.238281"/>
      <use xlink:href="#DejaVuSans-66" x="605.419922"/>
      <use xlink:href="#DejaVuSans-20" x="640.625"/>
      <use xlink:href="#DejaVuSans-46" x="672.412109"/>
      <use xlink:href="#DejaVuSans-49" x="729.931641"/>
      <use xlink:href="#DejaVuSans-52" x="759.423828"/>
      <use xlink:href="#DejaVuSans-20" x="828.90625"/>
      <use xlink:href="#DejaVuSans-43" x="860.693359"/>
      <use xlink:href="#DejaVuSans-6f" x="930.517578"/>
      <use xlink:href="#DejaVuSans-65" x="991.699219"/>
      <use xlink:href="#DejaVuSans-66" x="1053.222656"/>
      <use xlink:href="#DejaVuSans-66" x="1088.427734"/>
      <use xlink:href="#DejaVuSans-69" x="1123.632812"/>
      <use xlink:href="#DejaVuSans-63" x="1151.416016"/>
      <use xlink:href="#DejaVuSans-69" x="1206.396484"/>
      <use xlink:href="#DejaVuSans-65" x="1234.179688"/>
      <use xlink:href="#DejaVuSans-6e" x="1295.703125"/>
      <use xlink:href="#DejaVuSans-74" x="1359.082031"/>
     </g>
    </g>
   </g>
   <g id="line2d_116">
    <path d="M 418.760455 347.287273 
L 510.963485 240.405455 
L 603.166515 347.287273 
L 695.369545 382.914545 
" clip-path="url(#pbe93442038)" style="fill: none; stroke: #0d0887; stroke-width: 1.5; stroke-linecap: square"/>
   </g>
   <g id="line2d_117">
    <path d="M 418.760455 359.047056 
L 510.963485 243.536758 
L 603.166515 332.465771 
L 695.369545 382.844961 
" clip-path="url(#pbe93442038)" style="fill: none; stroke: #4c02a1; stroke-width: 1.5; stroke-linecap: square"/>
   </g>
   <g id="line2d_118">
    <path d="M 418.760455 367.88429 
L 510.963485 252.095653 
L 603.166515 315.556733 
L 695.369545 382.357869 
" clip-path="url(#pbe93442038)" style="fill: none; stroke: #7e03a8; stroke-width: 1.5; stroke-linecap: square"/>
   </g>
   <g id="line2d_119">
    <path d="M 418.760455 374.216481 
L 510.963485 264.82962 
L 603.166515 297.812681 
L 695.369545 381.035763 
" clip-path="url(#pbe93442038)" style="fill: none; stroke: #aa2395; stroke-width: 1.5; stroke-linecap: square"/>
   </g>
   <g id="line2d_120">
    <path d="M 418.760455 378.461136 
L 510.963485 280.486136 
L 603.166515 280.486136 
L 695.369545 378.461136 
" clip-path="url(#pbe93442038)" style="fill: none; stroke: #cc4778; stroke-width: 1.5; stroke-linecap: square"/>
   </g>
   <g id="line2d_121">
    <path d="M 418.760455 381.035763 
L 510.963485 297.812681 
L 603.166515 264.82962 
L 695.369545 374.216481 
" clip-path="url(#pbe93442038)" style="fill: none; stroke: #e66c5c; stroke-width: 1.5; stroke-linecap: square"/>
   </g>
   <g id="line2d_122">
    <path d="M 418.760455 382.357869 
L 510.963485 315.556733 
L 603.166515 252.095653 
L 695.369545 367.88429 
" clip-path="url(#pbe93442038)" style="fill: none; stroke: #f89540; stroke-width: 1.5; stroke-linecap: square"/>
   </g>
   <g id="line2d_123">
    <path d="M 418.760455 382.844961 
L 510.963485 332.465771 
L 603.166515 243.536758 
L 695.369545 359.047056 
" clip-path="url(#pbe93442038)" style="fill: none; stroke: #fdc527; stroke-width: 1.5; stroke-linecap: square"/>
   </g>
   <g id="line2d_124">
    <path d="M 418.760455 382.914545 
L 510.963485 347.287273 
L 603.166515 240.405455 
L 695.369545 347.287273 
" clip-path="url(#pbe93442038)" style="fill: none; stroke: #f0f921; stroke-width: 1.5; stroke-linecap: square"/>
   </g>
   <g id="patch_18">
    <path d="M 404.93 390.04 
L 404.93 233.28 
" style="fill: none; stroke: #000000; stroke-width: 0.8; stroke-linejoin: miter; stroke-linecap: square"/>
   </g>
   <g id="patch_19">
    <path d="M 709.2 390.04 
L 709.2 233.28 
" style="fill: none; stroke: #000000; stroke-width: 0.8; stroke-linejoin: miter; stroke-linecap: square"/>
   </g>
   <g id="patch_20">
    <path d="M 404.93 390.04 
L 709.2 390.04 
" style="fill: none; stroke: #000000; stroke-width: 0.8; stroke-linejoin: miter; stroke-linecap: square"/>
   </g>
   <g id="patch_21">
    <path d="M 404.93 233.28 
L 709.2 233.28 
" style="fill: none; stroke: #000000; stroke-width: 0.8; stroke-linejoin: miter; stroke-linecap: square"/>
   </g>
  </g>
  <g id="text_53">
   <!-- uniformBSpline -->
   <g transform="translate(314.280937 17.758125)scale(0.12 -0.12)">
    <defs>
     <path id="DejaVuSans-53" d="M 3425 4513 
L 3425 3897 
Q 3066 4069 2747 4153 
Q 2428 4238 2131 4238 
Q 1616 4238 1336 4038 
Q 1056 3838 1056 3469 
Q 1056 3159 1242 3001 
Q 1428 2844 1947 2747 
L 2328 2669 
Q 3034 2534 3370 2195 
Q 3706 1856 3706 1288 
Q 3706 609 3251 259 
Q 2797 -91 1919 -91 
Q 1588 -91 1214 -16 
Q 841 59 441 206 
L 441 856 
Q 825 641 1194 531 
Q 1563 422 1919 422 
Q 2459 422 2753 634 
Q 3047 847 3047 1241 
Q 3047 1584 2836 1778 
Q 2625 1972 2144 2069 
L 1759 2144 
Q 1053 2284 737 2584 
Q 422 2884 422 3419 
Q 422 4038 858 4394 
Q 1294 4750 2059 4750 
Q 2388 4750 2728 4690 
Q 3069 4631 3425 4513 
z
" transform="scale(0.015625)"/>
    </defs>
    <use xlink:href="#DejaVuSans-75"/>
    <use xlink:href="#DejaVuSans-6e" x="63.378906"/>
    <use xlink:href="#DejaVuSans-69" x="126.757812"/>
    <use xlink:href="#DejaVuSans-66" x="154.541016"/>
    <use xlink:href="#DejaVuSans-6f" x="189.746094"/>
    <use xlink:href="#DejaVuSans-72" x="250.927734"/>
    <use xlink:href="#DejaVuSans-6d" x="290.291016"/>
    <use xlink:href="#DejaVuSans-42" x="387.703125"/>
    <use xlink:href="#DejaVuSans-53" x="454.556641"/>
    <use xlink:href="#DejaVuSans-70" x="518.033203"/>
    <use xlink:href="#DejaVuSans-6c" x="581.509766"/>
    <use xlink:href="#DejaVuSans-69" x="609.292969"/>
    <use xlink:href="#DejaVuSans-6e" x="637.076172"/>
    <use xlink:href="#DejaVuSans-65" x="700.455078"/>
   </g>
  </g>
 </g>
 <defs>
  <clipPath id="p45a18b9c5d">
   <rect x="52.94" y="34.56" width="304.27" height="156.76"/>
  </clipPath>
  <clipPath id="pd5735a8f9e">
   <rect x="404.93" y="34.56" width="304.27" height="156.76"/>
  </clipPath>
  <clipPath id="pde3174debb">
   <rect x="52.94" y="233.28" width="304.27" height="156.76"/>
  </clipPath>
  <clipPath id="pbe93442038">
   <rect x="404.93" y="233.28" width="304.27" height="156.76"/>
  </clipPath>
 </defs>
</svg>
