<?xml version="1.0" encoding="utf-8" standalone="no"?>
<!DOCTYPE svg PUBLIC "-//W3C//DTD SVG 1.1//EN"
  "http://www.w3.org/Graphics/SVG/1.1/DTD/svg11.dtd">
<svg xmlns:xlink="http://www.w3.org/1999/xlink" width="720pt" height="432pt" viewBox="0 0 720 432" xmlns="http://www.w3.org/2000/svg" version="1.1">
 <metadata>
  <rdf:RDF xmlns:dc="http://purl.org/dc/elements/1.1/" xmlns:cc="http://creativecommons.org/ns#" xmlns:rdf="http://www.w3.org/1999/02/22-rdf-syntax-ns#">
   <cc:Work>
    <dc:type rdf:resource="http://purl.org/dc/dcmitype/StillImage"/>
    <dc:date>2024-08-25T20:18:41.493086</dc:date>
    <dc:format>image/svg+xml</dc:format>
    <dc:creator>
     <cc:Agent>
      <dc:title>Matplotlib v3.8.2, https://matplotlib.org/</dc:title>
     </cc:Agent>
    </dc:creator>
   </cc:Work>
  </rdf:RDF>
 </metadata>
 <defs>
  <style type="text/css">*{stroke-linejoin: round; stroke-linecap: butt}</style>
 </defs>
 <g id="figure_1">
  <g id="patch_1">
   <path d="M 0 432 
L 720 432 
L 720 0 
L 0 0 
z
" style="fill: #ffffff"/>
  </g>
  <g id="axes_1">
   <g id="patch_2">
    <path d="M 52.94 181.42 
L 357.21 181.42 
L 357.21 14.76 
L 52.94 14.76 
z
" style="fill: #ffffff"/>
   </g>
   <g id="matplotlib.axis_1">
    <g id="xtick_1">
     <g id="line2d_1">
      <path d="M 66.770455 181.42 
L 66.770455 14.76 
" clip-path="url(#p5ede4090ea)" style="fill: none; stroke: #f0f0f0; stroke-width: 0.8; stroke-linecap: square"/>
     </g>
     <g id="line2d_2">
      <defs>
       <path id="mc712258380" d="M 0 0 
L 0 3.5 
" style="stroke: #000000; stroke-width: 0.8"/>
      </defs>
      <g>
       <use xlink:href="#mc712258380" x="66.770455" y="181.42" style="stroke: #000000; stroke-width: 0.8"/>
      </g>
     </g>
     <g id="text_1">
      <!-- 0.0 -->
      <g transform="translate(58.818892 196.018438) scale(0.1 -0.1)">
       <defs>
        <path id="DejaVuSans-30" d="M 2034 4250 
Q 1547 4250 1301 3770 
Q 1056 3291 1056 2328 
Q 1056 1369 1301 889 
Q 1547 409 2034 409 
Q 2525 409 2770 889 
Q 3016 1369 3016 2328 
Q 3016 3291 2770 3770 
Q 2525 4250 2034 4250 
z
M 2034 4750 
Q 2819 4750 3233 4129 
Q 3647 3509 3647 2328 
Q 3647 1150 3233 529 
Q 2819 -91 2034 -91 
Q 1250 -91 836 529 
Q 422 1150 422 2328 
Q 422 3509 836 4129 
Q 1250 4750 2034 4750 
z
" transform="scale(0.015625)"/>
        <path id="DejaVuSans-2e" d="M 684 794 
L 1344 794 
L 1344 0 
L 684 0 
L 684 794 
z
" transform="scale(0.015625)"/>
       </defs>
       <use xlink:href="#DejaVuSans-30"/>
       <use xlink:href="#DejaVuSans-2e" x="63.623047"/>
       <use xlink:href="#DejaVuSans-30" x="95.410156"/>
      </g>
     </g>
    </g>
    <g id="xtick_2">
     <g id="line2d_3">
      <path d="M 122.119299 181.42 
L 122.119299 14.76 
" clip-path="url(#p5ede4090ea)" style="fill: none; stroke: #f0f0f0; stroke-width: 0.8; stroke-linecap: square"/>
     </g>
     <g id="line2d_4">
      <g>
       <use xlink:href="#mc712258380" x="122.119299" y="181.42" style="stroke: #000000; stroke-width: 0.8"/>
      </g>
     </g>
     <g id="text_2">
      <!-- 0.1 -->
      <g transform="translate(114.167736 196.018438) scale(0.1 -0.1)">
       <defs>
        <path id="DejaVuSans-31" d="M 794 531 
L 1825 531 
L 1825 4091 
L 703 3866 
L 703 4441 
L 1819 4666 
L 2450 4666 
L 2450 531 
L 3481 531 
L 3481 0 
L 794 0 
L 794 531 
z
" transform="scale(0.015625)"/>
       </defs>
       <use xlink:href="#DejaVuSans-30"/>
       <use xlink:href="#DejaVuSans-2e" x="63.623047"/>
       <use xlink:href="#DejaVuSans-31" x="95.410156"/>
      </g>
     </g>
    </g>
    <g id="xtick_3">
     <g id="line2d_5">
      <path d="M 177.468143 181.42 
L 177.468143 14.76 
" clip-path="url(#p5ede4090ea)" style="fill: none; stroke: #f0f0f0; stroke-width: 0.8; stroke-linecap: square"/>
     </g>
     <g id="line2d_6">
      <g>
       <use xlink:href="#mc712258380" x="177.468143" y="181.42" style="stroke: #000000; stroke-width: 0.8"/>
      </g>
     </g>
     <g id="text_3">
      <!-- 0.2 -->
      <g transform="translate(169.51658 196.018438) scale(0.1 -0.1)">
       <defs>
        <path id="DejaVuSans-32" d="M 1228 531 
L 3431 531 
L 3431 0 
L 469 0 
L 469 531 
Q 828 903 1448 1529 
Q 2069 2156 2228 2338 
Q 2531 2678 2651 2914 
Q 2772 3150 2772 3378 
Q 2772 3750 2511 3984 
Q 2250 4219 1831 4219 
Q 1534 4219 1204 4116 
Q 875 4013 500 3803 
L 500 4441 
Q 881 4594 1212 4672 
Q 1544 4750 1819 4750 
Q 2544 4750 2975 4387 
Q 3406 4025 3406 3419 
Q 3406 3131 3298 2873 
Q 3191 2616 2906 2266 
Q 2828 2175 2409 1742 
Q 1991 1309 1228 531 
z
" transform="scale(0.015625)"/>
       </defs>
       <use xlink:href="#DejaVuSans-30"/>
       <use xlink:href="#DejaVuSans-2e" x="63.623047"/>
       <use xlink:href="#DejaVuSans-32" x="95.410156"/>
      </g>
     </g>
    </g>
    <g id="xtick_4">
     <g id="line2d_7">
      <path d="M 232.816986 181.42 
L 232.816986 14.76 
" clip-path="url(#p5ede4090ea)" style="fill: none; stroke: #f0f0f0; stroke-width: 0.8; stroke-linecap: square"/>
     </g>
     <g id="line2d_8">
      <g>
       <use xlink:href="#mc712258380" x="232.816986" y="181.42" style="stroke: #000000; stroke-width: 0.8"/>
      </g>
     </g>
     <g id="text_4">
      <!-- 0.3 -->
      <g transform="translate(224.865424 196.018438) scale(0.1 -0.1)">
       <defs>
        <path id="DejaVuSans-33" d="M 2597 2516 
Q 3050 2419 3304 2112 
Q 3559 1806 3559 1356 
Q 3559 666 3084 287 
Q 2609 -91 1734 -91 
Q 1441 -91 1130 -33 
Q 819 25 488 141 
L 488 750 
Q 750 597 1062 519 
Q 1375 441 1716 441 
Q 2309 441 2620 675 
Q 2931 909 2931 1356 
Q 2931 1769 2642 2001 
Q 2353 2234 1838 2234 
L 1294 2234 
L 1294 2753 
L 1863 2753 
Q 2328 2753 2575 2939 
Q 2822 3125 2822 3475 
Q 2822 3834 2567 4026 
Q 2313 4219 1838 4219 
Q 1578 4219 1281 4162 
Q 984 4106 628 3988 
L 628 4550 
Q 988 4650 1302 4700 
Q 1616 4750 1894 4750 
Q 2613 4750 3031 4423 
Q 3450 4097 3450 3541 
Q 3450 3153 3228 2886 
Q 3006 2619 2597 2516 
z
" transform="scale(0.015625)"/>
       </defs>
       <use xlink:href="#DejaVuSans-30"/>
       <use xlink:href="#DejaVuSans-2e" x="63.623047"/>
       <use xlink:href="#DejaVuSans-33" x="95.410156"/>
      </g>
     </g>
    </g>
    <g id="xtick_5">
     <g id="line2d_9">
      <path d="M 288.16583 181.42 
L 288.16583 14.76 
" clip-path="url(#p5ede4090ea)" style="fill: none; stroke: #f0f0f0; stroke-width: 0.8; stroke-linecap: square"/>
     </g>
     <g id="line2d_10">
      <g>
       <use xlink:href="#mc712258380" x="288.16583" y="181.42" style="stroke: #000000; stroke-width: 0.8"/>
      </g>
     </g>
     <g id="text_5">
      <!-- 0.4 -->
      <g transform="translate(280.214268 196.018438) scale(0.1 -0.1)">
       <defs>
        <path id="DejaVuSans-34" d="M 2419 4116 
L 825 1625 
L 2419 1625 
L 2419 4116 
z
M 2253 4666 
L 3047 4666 
L 3047 1625 
L 3713 1625 
L 3713 1100 
L 3047 1100 
L 3047 0 
L 2419 0 
L 2419 1100 
L 313 1100 
L 313 1709 
L 2253 4666 
z
" transform="scale(0.015625)"/>
       </defs>
       <use xlink:href="#DejaVuSans-30"/>
       <use xlink:href="#DejaVuSans-2e" x="63.623047"/>
       <use xlink:href="#DejaVuSans-34" x="95.410156"/>
      </g>
     </g>
    </g>
    <g id="xtick_6">
     <g id="line2d_11">
      <path d="M 343.514674 181.42 
L 343.514674 14.76 
" clip-path="url(#p5ede4090ea)" style="fill: none; stroke: #f0f0f0; stroke-width: 0.8; stroke-linecap: square"/>
     </g>
     <g id="line2d_12">
      <g>
       <use xlink:href="#mc712258380" x="343.514674" y="181.42" style="stroke: #000000; stroke-width: 0.8"/>
      </g>
     </g>
     <g id="text_6">
      <!-- 0.5 -->
      <g transform="translate(335.563112 196.018438) scale(0.1 -0.1)">
       <defs>
        <path id="DejaVuSans-35" d="M 691 4666 
L 3169 4666 
L 3169 4134 
L 1269 4134 
L 1269 2991 
Q 1406 3038 1543 3061 
Q 1681 3084 1819 3084 
Q 2600 3084 3056 2656 
Q 3513 2228 3513 1497 
Q 3513 744 3044 326 
Q 2575 -91 1722 -91 
Q 1428 -91 1123 -41 
Q 819 9 494 109 
L 494 744 
Q 775 591 1075 516 
Q 1375 441 1709 441 
Q 2250 441 2565 725 
Q 2881 1009 2881 1497 
Q 2881 1984 2565 2268 
Q 2250 2553 1709 2553 
Q 1456 2553 1204 2497 
Q 953 2441 691 2322 
L 691 4666 
z
" transform="scale(0.015625)"/>
       </defs>
       <use xlink:href="#DejaVuSans-30"/>
       <use xlink:href="#DejaVuSans-2e" x="63.623047"/>
       <use xlink:href="#DejaVuSans-35" x="95.410156"/>
      </g>
     </g>
    </g>
    <g id="text_7">
     <!-- Normalized Frequency [rad/2π] -->
     <g transform="translate(127.640625 209.696562) scale(0.1 -0.1)">
      <defs>
       <path id="DejaVuSans-4e" d="M 628 4666 
L 1478 4666 
L 3547 763 
L 3547 4666 
L 4159 4666 
L 4159 0 
L 3309 0 
L 1241 3903 
L 1241 0 
L 628 0 
L 628 4666 
z
" transform="scale(0.015625)"/>
       <path id="DejaVuSans-6f" d="M 1959 3097 
Q 1497 3097 1228 2736 
Q 959 2375 959 1747 
Q 959 1119 1226 758 
Q 1494 397 1959 397 
Q 2419 397 2687 759 
Q 2956 1122 2956 1747 
Q 2956 2369 2687 2733 
Q 2419 3097 1959 3097 
z
M 1959 3584 
Q 2709 3584 3137 3096 
Q 3566 2609 3566 1747 
Q 3566 888 3137 398 
Q 2709 -91 1959 -91 
Q 1206 -91 779 398 
Q 353 888 353 1747 
Q 353 2609 779 3096 
Q 1206 3584 1959 3584 
z
" transform="scale(0.015625)"/>
       <path id="DejaVuSans-72" d="M 2631 2963 
Q 2534 3019 2420 3045 
Q 2306 3072 2169 3072 
Q 1681 3072 1420 2755 
Q 1159 2438 1159 1844 
L 1159 0 
L 581 0 
L 581 3500 
L 1159 3500 
L 1159 2956 
Q 1341 3275 1631 3429 
Q 1922 3584 2338 3584 
Q 2397 3584 2469 3576 
Q 2541 3569 2628 3553 
L 2631 2963 
z
" transform="scale(0.015625)"/>
       <path id="DejaVuSans-6d" d="M 3328 2828 
Q 3544 3216 3844 3400 
Q 4144 3584 4550 3584 
Q 5097 3584 5394 3201 
Q 5691 2819 5691 2113 
L 5691 0 
L 5113 0 
L 5113 2094 
Q 5113 2597 4934 2840 
Q 4756 3084 4391 3084 
Q 3944 3084 3684 2787 
Q 3425 2491 3425 1978 
L 3425 0 
L 2847 0 
L 2847 2094 
Q 2847 2600 2669 2842 
Q 2491 3084 2119 3084 
Q 1678 3084 1418 2786 
Q 1159 2488 1159 1978 
L 1159 0 
L 581 0 
L 581 3500 
L 1159 3500 
L 1159 2956 
Q 1356 3278 1631 3431 
Q 1906 3584 2284 3584 
Q 2666 3584 2933 3390 
Q 3200 3197 3328 2828 
z
" transform="scale(0.015625)"/>
       <path id="DejaVuSans-61" d="M 2194 1759 
Q 1497 1759 1228 1600 
Q 959 1441 959 1056 
Q 959 750 1161 570 
Q 1363 391 1709 391 
Q 2188 391 2477 730 
Q 2766 1069 2766 1631 
L 2766 1759 
L 2194 1759 
z
M 3341 1997 
L 3341 0 
L 2766 0 
L 2766 531 
Q 2569 213 2275 61 
Q 1981 -91 1556 -91 
Q 1019 -91 701 211 
Q 384 513 384 1019 
Q 384 1609 779 1909 
Q 1175 2209 1959 2209 
L 2766 2209 
L 2766 2266 
Q 2766 2663 2505 2880 
Q 2244 3097 1772 3097 
Q 1472 3097 1187 3025 
Q 903 2953 641 2809 
L 641 3341 
Q 956 3463 1253 3523 
Q 1550 3584 1831 3584 
Q 2591 3584 2966 3190 
Q 3341 2797 3341 1997 
z
" transform="scale(0.015625)"/>
       <path id="DejaVuSans-6c" d="M 603 4863 
L 1178 4863 
L 1178 0 
L 603 0 
L 603 4863 
z
" transform="scale(0.015625)"/>
       <path id="DejaVuSans-69" d="M 603 3500 
L 1178 3500 
L 1178 0 
L 603 0 
L 603 3500 
z
M 603 4863 
L 1178 4863 
L 1178 4134 
L 603 4134 
L 603 4863 
z
" transform="scale(0.015625)"/>
       <path id="DejaVuSans-7a" d="M 353 3500 
L 3084 3500 
L 3084 2975 
L 922 459 
L 3084 459 
L 3084 0 
L 275 0 
L 275 525 
L 2438 3041 
L 353 3041 
L 353 3500 
z
" transform="scale(0.015625)"/>
       <path id="DejaVuSans-65" d="M 3597 1894 
L 3597 1613 
L 953 1613 
Q 991 1019 1311 708 
Q 1631 397 2203 397 
Q 2534 397 2845 478 
Q 3156 559 3463 722 
L 3463 178 
Q 3153 47 2828 -22 
Q 2503 -91 2169 -91 
Q 1331 -91 842 396 
Q 353 884 353 1716 
Q 353 2575 817 3079 
Q 1281 3584 2069 3584 
Q 2775 3584 3186 3129 
Q 3597 2675 3597 1894 
z
M 3022 2063 
Q 3016 2534 2758 2815 
Q 2500 3097 2075 3097 
Q 1594 3097 1305 2825 
Q 1016 2553 972 2059 
L 3022 2063 
z
" transform="scale(0.015625)"/>
       <path id="DejaVuSans-64" d="M 2906 2969 
L 2906 4863 
L 3481 4863 
L 3481 0 
L 2906 0 
L 2906 525 
Q 2725 213 2448 61 
Q 2172 -91 1784 -91 
Q 1150 -91 751 415 
Q 353 922 353 1747 
Q 353 2572 751 3078 
Q 1150 3584 1784 3584 
Q 2172 3584 2448 3432 
Q 2725 3281 2906 2969 
z
M 947 1747 
Q 947 1113 1208 752 
Q 1469 391 1925 391 
Q 2381 391 2643 752 
Q 2906 1113 2906 1747 
Q 2906 2381 2643 2742 
Q 2381 3103 1925 3103 
Q 1469 3103 1208 2742 
Q 947 2381 947 1747 
z
" transform="scale(0.015625)"/>
       <path id="DejaVuSans-20" transform="scale(0.015625)"/>
       <path id="DejaVuSans-46" d="M 628 4666 
L 3309 4666 
L 3309 4134 
L 1259 4134 
L 1259 2759 
L 3109 2759 
L 3109 2228 
L 1259 2228 
L 1259 0 
L 628 0 
L 628 4666 
z
" transform="scale(0.015625)"/>
       <path id="DejaVuSans-71" d="M 947 1747 
Q 947 1113 1208 752 
Q 1469 391 1925 391 
Q 2381 391 2643 752 
Q 2906 1113 2906 1747 
Q 2906 2381 2643 2742 
Q 2381 3103 1925 3103 
Q 1469 3103 1208 2742 
Q 947 2381 947 1747 
z
M 2906 525 
Q 2725 213 2448 61 
Q 2172 -91 1784 -91 
Q 1150 -91 751 415 
Q 353 922 353 1747 
Q 353 2572 751 3078 
Q 1150 3584 1784 3584 
Q 2172 3584 2448 3432 
Q 2725 3281 2906 2969 
L 2906 3500 
L 3481 3500 
L 3481 -1331 
L 2906 -1331 
L 2906 525 
z
" transform="scale(0.015625)"/>
       <path id="DejaVuSans-75" d="M 544 1381 
L 544 3500 
L 1119 3500 
L 1119 1403 
Q 1119 906 1312 657 
Q 1506 409 1894 409 
Q 2359 409 2629 706 
Q 2900 1003 2900 1516 
L 2900 3500 
L 3475 3500 
L 3475 0 
L 2900 0 
L 2900 538 
Q 2691 219 2414 64 
Q 2138 -91 1772 -91 
Q 1169 -91 856 284 
Q 544 659 544 1381 
z
M 1991 3584 
L 1991 3584 
z
" transform="scale(0.015625)"/>
       <path id="DejaVuSans-6e" d="M 3513 2113 
L 3513 0 
L 2938 0 
L 2938 2094 
Q 2938 2591 2744 2837 
Q 2550 3084 2163 3084 
Q 1697 3084 1428 2787 
Q 1159 2491 1159 1978 
L 1159 0 
L 581 0 
L 581 3500 
L 1159 3500 
L 1159 2956 
Q 1366 3272 1645 3428 
Q 1925 3584 2291 3584 
Q 2894 3584 3203 3211 
Q 3513 2838 3513 2113 
z
" transform="scale(0.015625)"/>
       <path id="DejaVuSans-63" d="M 3122 3366 
L 3122 2828 
Q 2878 2963 2633 3030 
Q 2388 3097 2138 3097 
Q 1578 3097 1268 2742 
Q 959 2388 959 1747 
Q 959 1106 1268 751 
Q 1578 397 2138 397 
Q 2388 397 2633 464 
Q 2878 531 3122 666 
L 3122 134 
Q 2881 22 2623 -34 
Q 2366 -91 2075 -91 
Q 1284 -91 818 406 
Q 353 903 353 1747 
Q 353 2603 823 3093 
Q 1294 3584 2113 3584 
Q 2378 3584 2631 3529 
Q 2884 3475 3122 3366 
z
" transform="scale(0.015625)"/>
       <path id="DejaVuSans-79" d="M 2059 -325 
Q 1816 -950 1584 -1140 
Q 1353 -1331 966 -1331 
L 506 -1331 
L 506 -850 
L 844 -850 
Q 1081 -850 1212 -737 
Q 1344 -625 1503 -206 
L 1606 56 
L 191 3500 
L 800 3500 
L 1894 763 
L 2988 3500 
L 3597 3500 
L 2059 -325 
z
" transform="scale(0.015625)"/>
       <path id="DejaVuSans-5b" d="M 550 4863 
L 1875 4863 
L 1875 4416 
L 1125 4416 
L 1125 -397 
L 1875 -397 
L 1875 -844 
L 550 -844 
L 550 4863 
z
" transform="scale(0.015625)"/>
       <path id="DejaVuSans-2f" d="M 1625 4666 
L 2156 4666 
L 531 -594 
L 0 -594 
L 1625 4666 
z
" transform="scale(0.015625)"/>
       <path id="DejaVuSans-3c0" d="M 231 3500 
L 3584 3500 
L 3584 2925 
L 3144 2925 
L 3144 775 
Q 3144 550 3220 451 
Q 3297 353 3469 353 
Q 3516 353 3584 361 
Q 3653 369 3675 372 
L 3675 -44 
Q 3566 -84 3450 -103 
Q 3334 -122 3219 -122 
Q 2844 -122 2700 83 
Q 2556 288 2556 838 
L 2556 2925 
L 1266 2925 
L 1266 0 
L 678 0 
L 678 2925 
L 231 2925 
L 231 3500 
z
" transform="scale(0.015625)"/>
       <path id="DejaVuSans-5d" d="M 1947 4863 
L 1947 -844 
L 622 -844 
L 622 -397 
L 1369 -397 
L 1369 4416 
L 622 4416 
L 622 4863 
L 1947 4863 
z
" transform="scale(0.015625)"/>
      </defs>
      <use xlink:href="#DejaVuSans-4e"/>
      <use xlink:href="#DejaVuSans-6f" x="74.804688"/>
      <use xlink:href="#DejaVuSans-72" x="135.986328"/>
      <use xlink:href="#DejaVuSans-6d" x="175.349609"/>
      <use xlink:href="#DejaVuSans-61" x="272.761719"/>
      <use xlink:href="#DejaVuSans-6c" x="334.041016"/>
      <use xlink:href="#DejaVuSans-69" x="361.824219"/>
      <use xlink:href="#DejaVuSans-7a" x="389.607422"/>
      <use xlink:href="#DejaVuSans-65" x="442.097656"/>
      <use xlink:href="#DejaVuSans-64" x="503.621094"/>
      <use xlink:href="#DejaVuSans-20" x="567.097656"/>
      <use xlink:href="#DejaVuSans-46" x="598.884766"/>
      <use xlink:href="#DejaVuSans-72" x="649.154297"/>
      <use xlink:href="#DejaVuSans-65" x="688.017578"/>
      <use xlink:href="#DejaVuSans-71" x="749.541016"/>
      <use xlink:href="#DejaVuSans-75" x="813.017578"/>
      <use xlink:href="#DejaVuSans-65" x="876.396484"/>
      <use xlink:href="#DejaVuSans-6e" x="937.919922"/>
      <use xlink:href="#DejaVuSans-63" x="1001.298828"/>
      <use xlink:href="#DejaVuSans-79" x="1056.279297"/>
      <use xlink:href="#DejaVuSans-20" x="1115.458984"/>
      <use xlink:href="#DejaVuSans-5b" x="1147.246094"/>
      <use xlink:href="#DejaVuSans-72" x="1186.259766"/>
      <use xlink:href="#DejaVuSans-61" x="1227.373047"/>
      <use xlink:href="#DejaVuSans-64" x="1288.652344"/>
      <use xlink:href="#DejaVuSans-2f" x="1352.128906"/>
      <use xlink:href="#DejaVuSans-32" x="1385.820312"/>
      <use xlink:href="#DejaVuSans-3c0" x="1449.443359"/>
      <use xlink:href="#DejaVuSans-5d" x="1509.648438"/>
     </g>
    </g>
   </g>
   <g id="matplotlib.axis_2">
    <g id="ytick_1">
     <g id="line2d_13">
      <path d="M 52.94 181.42 
L 357.21 181.42 
" clip-path="url(#p5ede4090ea)" style="fill: none; stroke: #f0f0f0; stroke-width: 0.8; stroke-linecap: square"/>
     </g>
     <g id="line2d_14">
      <defs>
       <path id="mdc89132f82" d="M 0 0 
L -3.5 0 
" style="stroke: #000000; stroke-width: 0.8"/>
      </defs>
      <g>
       <use xlink:href="#mdc89132f82" x="52.94" y="181.42" style="stroke: #000000; stroke-width: 0.8"/>
      </g>
     </g>
     <g id="text_8">
      <!-- −60 -->
      <g transform="translate(24.835313 185.219219) scale(0.1 -0.1)">
       <defs>
        <path id="DejaVuSans-2212" d="M 678 2272 
L 4684 2272 
L 4684 1741 
L 678 1741 
L 678 2272 
z
" transform="scale(0.015625)"/>
        <path id="DejaVuSans-36" d="M 2113 2584 
Q 1688 2584 1439 2293 
Q 1191 2003 1191 1497 
Q 1191 994 1439 701 
Q 1688 409 2113 409 
Q 2538 409 2786 701 
Q 3034 994 3034 1497 
Q 3034 2003 2786 2293 
Q 2538 2584 2113 2584 
z
M 3366 4563 
L 3366 3988 
Q 3128 4100 2886 4159 
Q 2644 4219 2406 4219 
Q 1781 4219 1451 3797 
Q 1122 3375 1075 2522 
Q 1259 2794 1537 2939 
Q 1816 3084 2150 3084 
Q 2853 3084 3261 2657 
Q 3669 2231 3669 1497 
Q 3669 778 3244 343 
Q 2819 -91 2113 -91 
Q 1303 -91 875 529 
Q 447 1150 447 2328 
Q 447 3434 972 4092 
Q 1497 4750 2381 4750 
Q 2619 4750 2861 4703 
Q 3103 4656 3366 4563 
z
" transform="scale(0.015625)"/>
       </defs>
       <use xlink:href="#DejaVuSans-2212"/>
       <use xlink:href="#DejaVuSans-36" x="83.789062"/>
       <use xlink:href="#DejaVuSans-30" x="147.412109"/>
      </g>
     </g>
    </g>
    <g id="ytick_2">
     <g id="line2d_15">
      <path d="M 52.94 157.611429 
L 357.21 157.611429 
" clip-path="url(#p5ede4090ea)" style="fill: none; stroke: #f0f0f0; stroke-width: 0.8; stroke-linecap: square"/>
     </g>
     <g id="line2d_16">
      <g>
       <use xlink:href="#mdc89132f82" x="52.94" y="157.611429" style="stroke: #000000; stroke-width: 0.8"/>
      </g>
     </g>
     <g id="text_9">
      <!-- −50 -->
      <g transform="translate(24.835313 161.410647) scale(0.1 -0.1)">
       <use xlink:href="#DejaVuSans-2212"/>
       <use xlink:href="#DejaVuSans-35" x="83.789062"/>
       <use xlink:href="#DejaVuSans-30" x="147.412109"/>
      </g>
     </g>
    </g>
    <g id="ytick_3">
     <g id="line2d_17">
      <path d="M 52.94 133.802857 
L 357.21 133.802857 
" clip-path="url(#p5ede4090ea)" style="fill: none; stroke: #f0f0f0; stroke-width: 0.8; stroke-linecap: square"/>
     </g>
     <g id="line2d_18">
      <g>
       <use xlink:href="#mdc89132f82" x="52.94" y="133.802857" style="stroke: #000000; stroke-width: 0.8"/>
      </g>
     </g>
     <g id="text_10">
      <!-- −40 -->
      <g transform="translate(24.835313 137.602076) scale(0.1 -0.1)">
       <use xlink:href="#DejaVuSans-2212"/>
       <use xlink:href="#DejaVuSans-34" x="83.789062"/>
       <use xlink:href="#DejaVuSans-30" x="147.412109"/>
      </g>
     </g>
    </g>
    <g id="ytick_4">
     <g id="line2d_19">
      <path d="M 52.94 109.994286 
L 357.21 109.994286 
" clip-path="url(#p5ede4090ea)" style="fill: none; stroke: #f0f0f0; stroke-width: 0.8; stroke-linecap: square"/>
     </g>
     <g id="line2d_20">
      <g>
       <use xlink:href="#mdc89132f82" x="52.94" y="109.994286" style="stroke: #000000; stroke-width: 0.8"/>
      </g>
     </g>
     <g id="text_11">
      <!-- −30 -->
      <g transform="translate(24.835313 113.793504) scale(0.1 -0.1)">
       <use xlink:href="#DejaVuSans-2212"/>
       <use xlink:href="#DejaVuSans-33" x="83.789062"/>
       <use xlink:href="#DejaVuSans-30" x="147.412109"/>
      </g>
     </g>
    </g>
    <g id="ytick_5">
     <g id="line2d_21">
      <path d="M 52.94 86.185714 
L 357.21 86.185714 
" clip-path="url(#p5ede4090ea)" style="fill: none; stroke: #f0f0f0; stroke-width: 0.8; stroke-linecap: square"/>
     </g>
     <g id="line2d_22">
      <g>
       <use xlink:href="#mdc89132f82" x="52.94" y="86.185714" style="stroke: #000000; stroke-width: 0.8"/>
      </g>
     </g>
     <g id="text_12">
      <!-- −20 -->
      <g transform="translate(24.835313 89.984933) scale(0.1 -0.1)">
       <use xlink:href="#DejaVuSans-2212"/>
       <use xlink:href="#DejaVuSans-32" x="83.789062"/>
       <use xlink:href="#DejaVuSans-30" x="147.412109"/>
      </g>
     </g>
    </g>
    <g id="ytick_6">
     <g id="line2d_23">
      <path d="M 52.94 62.377143 
L 357.21 62.377143 
" clip-path="url(#p5ede4090ea)" style="fill: none; stroke: #f0f0f0; stroke-width: 0.8; stroke-linecap: square"/>
     </g>
     <g id="line2d_24">
      <g>
       <use xlink:href="#mdc89132f82" x="52.94" y="62.377143" style="stroke: #000000; stroke-width: 0.8"/>
      </g>
     </g>
     <g id="text_13">
      <!-- −10 -->
      <g transform="translate(24.835313 66.176362) scale(0.1 -0.1)">
       <use xlink:href="#DejaVuSans-2212"/>
       <use xlink:href="#DejaVuSans-31" x="83.789062"/>
       <use xlink:href="#DejaVuSans-30" x="147.412109"/>
      </g>
     </g>
    </g>
    <g id="ytick_7">
     <g id="line2d_25">
      <path d="M 52.94 38.568571 
L 357.21 38.568571 
" clip-path="url(#p5ede4090ea)" style="fill: none; stroke: #f0f0f0; stroke-width: 0.8; stroke-linecap: square"/>
     </g>
     <g id="line2d_26">
      <g>
       <use xlink:href="#mdc89132f82" x="52.94" y="38.568571" style="stroke: #000000; stroke-width: 0.8"/>
      </g>
     </g>
     <g id="text_14">
      <!-- 0 -->
      <g transform="translate(39.5775 42.36779) scale(0.1 -0.1)">
       <use xlink:href="#DejaVuSans-30"/>
      </g>
     </g>
    </g>
    <g id="ytick_8">
     <g id="line2d_27">
      <path d="M 52.94 14.76 
L 357.21 14.76 
" clip-path="url(#p5ede4090ea)" style="fill: none; stroke: #f0f0f0; stroke-width: 0.8; stroke-linecap: square"/>
     </g>
     <g id="line2d_28">
      <g>
       <use xlink:href="#mdc89132f82" x="52.94" y="14.76" style="stroke: #000000; stroke-width: 0.8"/>
      </g>
     </g>
     <g id="text_15">
      <!-- 10 -->
      <g transform="translate(33.215 18.559219) scale(0.1 -0.1)">
       <use xlink:href="#DejaVuSans-31"/>
       <use xlink:href="#DejaVuSans-30" x="63.623047"/>
      </g>
     </g>
    </g>
    <g id="text_16">
     <!-- Gain [dB] -->
     <g transform="translate(18.755625 121.681406) rotate(-90) scale(0.1 -0.1)">
      <defs>
       <path id="DejaVuSans-47" d="M 3809 666 
L 3809 1919 
L 2778 1919 
L 2778 2438 
L 4434 2438 
L 4434 434 
Q 4069 175 3628 42 
Q 3188 -91 2688 -91 
Q 1594 -91 976 548 
Q 359 1188 359 2328 
Q 359 3472 976 4111 
Q 1594 4750 2688 4750 
Q 3144 4750 3555 4637 
Q 3966 4525 4313 4306 
L 4313 3634 
Q 3963 3931 3569 4081 
Q 3175 4231 2741 4231 
Q 1884 4231 1454 3753 
Q 1025 3275 1025 2328 
Q 1025 1384 1454 906 
Q 1884 428 2741 428 
Q 3075 428 3337 486 
Q 3600 544 3809 666 
z
" transform="scale(0.015625)"/>
       <path id="DejaVuSans-42" d="M 1259 2228 
L 1259 519 
L 2272 519 
Q 2781 519 3026 730 
Q 3272 941 3272 1375 
Q 3272 1813 3026 2020 
Q 2781 2228 2272 2228 
L 1259 2228 
z
M 1259 4147 
L 1259 2741 
L 2194 2741 
Q 2656 2741 2882 2914 
Q 3109 3088 3109 3444 
Q 3109 3797 2882 3972 
Q 2656 4147 2194 4147 
L 1259 4147 
z
M 628 4666 
L 2241 4666 
Q 2963 4666 3353 4366 
Q 3744 4066 3744 3513 
Q 3744 3084 3544 2831 
Q 3344 2578 2956 2516 
Q 3422 2416 3680 2098 
Q 3938 1781 3938 1306 
Q 3938 681 3513 340 
Q 3088 0 2303 0 
L 628 0 
L 628 4666 
z
" transform="scale(0.015625)"/>
      </defs>
      <use xlink:href="#DejaVuSans-47"/>
      <use xlink:href="#DejaVuSans-61" x="77.490234"/>
      <use xlink:href="#DejaVuSans-69" x="138.769531"/>
      <use xlink:href="#DejaVuSans-6e" x="166.552734"/>
      <use xlink:href="#DejaVuSans-20" x="229.931641"/>
      <use xlink:href="#DejaVuSans-5b" x="261.71875"/>
      <use xlink:href="#DejaVuSans-64" x="300.732422"/>
      <use xlink:href="#DejaVuSans-42" x="364.208984"/>
      <use xlink:href="#DejaVuSans-5d" x="432.8125"/>
     </g>
    </g>
   </g>
   <g id="line2d_29">
    <path d="M 66.770455 39.069585 
L 69.202777 38.9608 
L 75.959227 38.483353 
L 78.526679 38.650594 
L 83.931839 39.100113 
L 86.229033 39.002308 
L 93.796257 38.438894 
L 96.22858 38.683319 
L 100.822966 39.217833 
L 102.714772 39.170655 
L 104.876836 38.878396 
L 109.200965 38.217409 
L 110.957642 38.227909 
L 112.714319 38.476217 
L 115.146641 39.085854 
L 117.443835 39.594449 
L 118.795125 39.682067 
L 120.146415 39.53618 
L 121.497705 39.15443 
L 123.389511 38.349328 
L 125.686704 37.400139 
L 126.902866 37.147567 
L 127.848769 37.165029 
L 128.794672 37.424225 
L 129.605446 37.875394 
L 130.41622 38.570038 
L 131.226994 39.539743 
L 132.172897 41.064657 
L 133.1188 43.073708 
L 134.064703 45.645241 
L 135.010606 48.883761 
L 135.95651 52.93916 
L 136.902413 58.045079 
L 137.713187 63.556536 
L 138.523961 70.607302 
L 139.199606 78.364122 
L 139.740122 86.756614 
L 140.280638 99.27259 
L 140.550896 109.203828 
L 140.821154 127.02209 
L 141.091412 153.924733 
L 141.36167 119.369703 
L 141.767057 104.121949 
L 142.172444 96.472956 
L 142.71296 90.535102 
L 143.253476 87.071054 
L 143.793992 85.11082 
L 144.199379 84.363538 
L 144.469637 84.153518 
L 144.739895 84.153051 
L 145.010153 84.350838 
L 145.41554 85.005971 
L 145.820928 86.088227 
L 146.361444 88.224475 
L 146.90196 91.249346 
L 147.442476 95.373086 
L 147.982992 101.018786 
L 148.523508 109.138374 
L 148.928895 118.365449 
L 149.199153 127.851159 
L 149.469411 145.168263 
L 149.739669 172.637207 
L 150.009927 137.143809 
L 150.415314 121.358582 
L 150.820701 113.274716 
L 151.361217 106.853346 
L 151.901733 103.007902 
L 152.442249 100.774217 
L 152.847636 99.901687 
L 153.117894 99.651861 
L 153.388152 99.651638 
L 153.65841 99.895612 
L 154.063797 100.723855 
L 154.469184 102.138983 
L 155.0097 105.079446 
L 155.550217 109.590744 
L 156.090733 116.5732 
L 156.49612 124.868254 
L 156.766378 133.572185 
L 157.036636 149.406959 
L 157.306894 186.739554 
L 157.577152 143.484546 
L 157.982539 126.25504 
L 158.523055 114.99176 
L 159.063571 108.236125 
L 159.739216 102.819343 
L 160.279732 99.990431 
L 160.820248 98.132417 
L 161.360764 97.076223 
L 161.766151 96.755453 
L 162.036409 96.755392 
L 162.306667 96.924239 
L 162.712054 97.4974 
L 163.117441 98.469108 
L 163.657957 100.441828 
L 164.198473 103.318857 
L 164.738989 107.358251 
L 165.279505 113.072538 
L 165.820022 121.659528 
L 166.225409 132.072462 
L 166.495667 143.920328 
L 166.630796 153.934278 
L 166.901054 184.403431 
L 167.171312 146.590012 
L 167.576699 130.285883 
L 167.982086 121.859331 
L 168.522602 115.044955 
L 169.063118 110.843311 
L 169.603634 108.283025 
L 170.009021 107.186013 
L 170.414408 106.701513 
L 170.684666 106.701515 
L 170.954924 106.958892 
L 171.360311 107.845907 
L 171.765698 109.392003 
L 172.171085 111.718911 
L 172.711601 116.451349 
L 173.116988 121.87752 
L 173.522375 130.327072 
L 173.792633 139.583834 
L 174.062891 157.971573 
L 174.19802 185.406815 
L 174.873665 131.952451 
L 175.279052 121.569419 
L 175.819569 112.996466 
L 176.495214 106.147998 
L 177.170859 101.686836 
L 177.846504 98.818572 
L 178.38702 97.429268 
L 178.792407 96.855901 
L 179.197794 96.665846 
L 179.468052 96.750809 
L 179.873439 97.202922 
L 180.278826 98.065254 
L 180.819342 99.92556 
L 181.359858 102.758958 
L 181.900374 106.887781 
L 182.44089 112.980763 
L 182.846277 119.773607 
L 183.251664 130.600241 
L 183.521922 143.700197 
L 183.657051 155.875571 
L 183.79218 189.44363 
L 184.062438 148.864749 
L 184.467825 128.462895 
L 184.873212 118.717779 
L 185.413729 110.864259 
L 185.954245 105.866326 
L 186.494761 102.588396 
L 187.035277 100.563057 
L 187.440664 99.736106 
L 187.710922 99.492492 
L 187.98118 99.492715 
L 188.251438 99.74219 
L 188.656825 100.613495 
L 189.062212 102.156952 
L 189.467599 104.522215 
L 189.872986 107.984149 
L 190.278373 113.090671 
L 190.68376 121.150237 
L 190.954018 130.027259 
L 191.224276 147.477022 
L 191.359405 171.622563 
L 191.494534 166.766211 
L 191.764792 134.822733 
L 192.170179 118.298498 
L 192.710695 106.687538 
L 193.251211 99.322085 
L 193.926856 93.04312 
L 194.602501 88.777506 
L 195.278147 85.973092 
L 195.818663 84.624862 
L 196.22405 84.112208 
L 196.494308 84.012451 
L 196.764566 84.115937 
L 197.034824 84.436647 
L 197.440211 85.372149 
L 197.845598 86.954287 
L 198.250985 89.371659 
L 198.656372 92.969021 
L 199.061759 98.459745 
L 199.467146 107.712565 
L 199.737404 119.163259 
L 199.872533 129.561665 
L 200.007662 153.193014 
L 200.142791 149.059497 
L 200.413049 116.424062 
L 200.818436 99.243848 
L 201.358952 86.710214 
L 202.034597 76.571729 
L 202.845371 67.990642 
L 203.791274 60.600033 
L 204.737177 54.942148 
L 205.683081 50.479971 
L 206.764113 46.475707 
L 207.845145 43.392811 
L 208.791048 41.316771 
L 209.736951 39.734346 
L 210.682854 38.580542 
L 211.628757 37.799963 
L 212.57466 37.342224 
L 213.520563 37.158796 
L 214.466466 37.200858 
L 215.682628 37.504961 
L 217.439305 38.228592 
L 220.006756 39.271904 
L 221.358046 39.577702 
L 222.709336 39.648262 
L 224.195755 39.481238 
L 226.35782 38.973438 
L 229.0604 38.38092 
L 230.817077 38.230566 
L 232.573754 38.303488 
L 235.006077 38.657513 
L 238.384302 39.130545 
L 240.411237 39.168859 
L 242.70843 38.975457 
L 247.708204 38.473913 
L 250.005397 38.515572 
L 253.65388 38.851808 
L 256.626719 39.029696 
L 259.19417 38.958505 
L 266.761395 38.575584 
L 270.409878 38.796021 
L 274.19349 38.964948 
L 277.301458 38.866814 
L 283.382263 38.608607 
L 287.030747 38.75452 
L 291.895391 38.928948 
L 295.679004 38.793217 
L 300.678777 38.634292 
L 304.732648 38.779284 
L 309.462163 38.907522 
L 313.786291 38.751376 
L 318.245549 38.650697 
L 322.839935 38.81645 
L 327.164064 38.892788 
L 332.569224 38.693275 
L 336.487966 38.673651 
L 343.379545 38.896874 
L 343.379545 38.896874 
" clip-path="url(#p5ede4090ea)" style="fill: none; stroke: #000000; stroke-width: 1.5; stroke-linecap: square"/>
   </g>
   <g id="line2d_30">
    <path d="M 135.95651 181.42 
L 135.95651 14.76 
" clip-path="url(#p5ede4090ea)" style="fill: none; stroke: #ff0000; stroke-opacity: 0.5; stroke-width: 1.5; stroke-linecap: square"/>
   </g>
   <g id="line2d_31">
    <path d="M 205.142565 181.42 
L 205.142565 14.76 
" clip-path="url(#p5ede4090ea)" style="fill: none; stroke: #ff0000; stroke-opacity: 0.5; stroke-width: 1.5; stroke-linecap: square"/>
   </g>
   <g id="patch_3">
    <path d="M 52.94 181.42 
L 52.94 14.76 
" style="fill: none; stroke: #000000; stroke-width: 0.8; stroke-linejoin: miter; stroke-linecap: square"/>
   </g>
   <g id="patch_4">
    <path d="M 357.21 181.42 
L 357.21 14.76 
" style="fill: none; stroke: #000000; stroke-width: 0.8; stroke-linejoin: miter; stroke-linecap: square"/>
   </g>
   <g id="patch_5">
    <path d="M 52.94 181.42 
L 357.21 181.42 
" style="fill: none; stroke: #000000; stroke-width: 0.8; stroke-linejoin: miter; stroke-linecap: square"/>
   </g>
   <g id="patch_6">
    <path d="M 52.94 14.76 
L 357.21 14.76 
" style="fill: none; stroke: #000000; stroke-width: 0.8; stroke-linejoin: miter; stroke-linecap: square"/>
   </g>
   <g id="legend_1">
    <g id="patch_7">
     <path d="M 261.6475 176.42 
L 350.21 176.42 
Q 352.21 176.42 352.21 174.42 
L 352.21 146.06375 
Q 352.21 144.06375 350.21 144.06375 
L 261.6475 144.06375 
Q 259.6475 144.06375 259.6475 146.06375 
L 259.6475 174.42 
Q 259.6475 176.42 261.6475 176.42 
z
" style="fill: #ffffff; opacity: 0.8; stroke: #cccccc; stroke-linejoin: miter"/>
    </g>
    <g id="line2d_32">
     <path d="M 263.6475 152.162188 
L 273.6475 152.162188 
L 283.6475 152.162188 
" style="fill: none; stroke: #ff0000; stroke-opacity: 0.5; stroke-width: 1.5; stroke-linecap: square"/>
    </g>
    <g id="text_17">
     <!-- Cutoff Low -->
     <g transform="translate(291.6475 155.662188) scale(0.1 -0.1)">
      <defs>
       <path id="DejaVuSans-43" d="M 4122 4306 
L 4122 3641 
Q 3803 3938 3442 4084 
Q 3081 4231 2675 4231 
Q 1875 4231 1450 3742 
Q 1025 3253 1025 2328 
Q 1025 1406 1450 917 
Q 1875 428 2675 428 
Q 3081 428 3442 575 
Q 3803 722 4122 1019 
L 4122 359 
Q 3791 134 3420 21 
Q 3050 -91 2638 -91 
Q 1578 -91 968 557 
Q 359 1206 359 2328 
Q 359 3453 968 4101 
Q 1578 4750 2638 4750 
Q 3056 4750 3426 4639 
Q 3797 4528 4122 4306 
z
" transform="scale(0.015625)"/>
       <path id="DejaVuSans-74" d="M 1172 4494 
L 1172 3500 
L 2356 3500 
L 2356 3053 
L 1172 3053 
L 1172 1153 
Q 1172 725 1289 603 
Q 1406 481 1766 481 
L 2356 481 
L 2356 0 
L 1766 0 
Q 1100 0 847 248 
Q 594 497 594 1153 
L 594 3053 
L 172 3053 
L 172 3500 
L 594 3500 
L 594 4494 
L 1172 4494 
z
" transform="scale(0.015625)"/>
       <path id="DejaVuSans-66" d="M 2375 4863 
L 2375 4384 
L 1825 4384 
Q 1516 4384 1395 4259 
Q 1275 4134 1275 3809 
L 1275 3500 
L 2222 3500 
L 2222 3053 
L 1275 3053 
L 1275 0 
L 697 0 
L 697 3053 
L 147 3053 
L 147 3500 
L 697 3500 
L 697 3744 
Q 697 4328 969 4595 
Q 1241 4863 1831 4863 
L 2375 4863 
z
" transform="scale(0.015625)"/>
       <path id="DejaVuSans-4c" d="M 628 4666 
L 1259 4666 
L 1259 531 
L 3531 531 
L 3531 0 
L 628 0 
L 628 4666 
z
" transform="scale(0.015625)"/>
       <path id="DejaVuSans-77" d="M 269 3500 
L 844 3500 
L 1563 769 
L 2278 3500 
L 2956 3500 
L 3675 769 
L 4391 3500 
L 4966 3500 
L 4050 0 
L 3372 0 
L 2619 2869 
L 1863 0 
L 1184 0 
L 269 3500 
z
" transform="scale(0.015625)"/>
      </defs>
      <use xlink:href="#DejaVuSans-43"/>
      <use xlink:href="#DejaVuSans-75" x="69.824219"/>
      <use xlink:href="#DejaVuSans-74" x="133.203125"/>
      <use xlink:href="#DejaVuSans-6f" x="172.412109"/>
      <use xlink:href="#DejaVuSans-66" x="233.59375"/>
      <use xlink:href="#DejaVuSans-66" x="268.798828"/>
      <use xlink:href="#DejaVuSans-20" x="304.003906"/>
      <use xlink:href="#DejaVuSans-4c" x="335.791016"/>
      <use xlink:href="#DejaVuSans-6f" x="389.753906"/>
      <use xlink:href="#DejaVuSans-77" x="450.935547"/>
     </g>
    </g>
    <g id="line2d_33">
     <path d="M 263.6475 166.840313 
L 273.6475 166.840313 
L 283.6475 166.840313 
" style="fill: none; stroke: #ff0000; stroke-opacity: 0.5; stroke-width: 1.5; stroke-linecap: square"/>
    </g>
    <g id="text_18">
     <!-- Cutoff High -->
     <g transform="translate(291.6475 170.340313) scale(0.1 -0.1)">
      <defs>
       <path id="DejaVuSans-48" d="M 628 4666 
L 1259 4666 
L 1259 2753 
L 3553 2753 
L 3553 4666 
L 4184 4666 
L 4184 0 
L 3553 0 
L 3553 2222 
L 1259 2222 
L 1259 0 
L 628 0 
L 628 4666 
z
" transform="scale(0.015625)"/>
       <path id="DejaVuSans-67" d="M 2906 1791 
Q 2906 2416 2648 2759 
Q 2391 3103 1925 3103 
Q 1463 3103 1205 2759 
Q 947 2416 947 1791 
Q 947 1169 1205 825 
Q 1463 481 1925 481 
Q 2391 481 2648 825 
Q 2906 1169 2906 1791 
z
M 3481 434 
Q 3481 -459 3084 -895 
Q 2688 -1331 1869 -1331 
Q 1566 -1331 1297 -1286 
Q 1028 -1241 775 -1147 
L 775 -588 
Q 1028 -725 1275 -790 
Q 1522 -856 1778 -856 
Q 2344 -856 2625 -561 
Q 2906 -266 2906 331 
L 2906 616 
Q 2728 306 2450 153 
Q 2172 0 1784 0 
Q 1141 0 747 490 
Q 353 981 353 1791 
Q 353 2603 747 3093 
Q 1141 3584 1784 3584 
Q 2172 3584 2450 3431 
Q 2728 3278 2906 2969 
L 2906 3500 
L 3481 3500 
L 3481 434 
z
" transform="scale(0.015625)"/>
       <path id="DejaVuSans-68" d="M 3513 2113 
L 3513 0 
L 2938 0 
L 2938 2094 
Q 2938 2591 2744 2837 
Q 2550 3084 2163 3084 
Q 1697 3084 1428 2787 
Q 1159 2491 1159 1978 
L 1159 0 
L 581 0 
L 581 4863 
L 1159 4863 
L 1159 2956 
Q 1366 3272 1645 3428 
Q 1925 3584 2291 3584 
Q 2894 3584 3203 3211 
Q 3513 2838 3513 2113 
z
" transform="scale(0.015625)"/>
      </defs>
      <use xlink:href="#DejaVuSans-43"/>
      <use xlink:href="#DejaVuSans-75" x="69.824219"/>
      <use xlink:href="#DejaVuSans-74" x="133.203125"/>
      <use xlink:href="#DejaVuSans-6f" x="172.412109"/>
      <use xlink:href="#DejaVuSans-66" x="233.59375"/>
      <use xlink:href="#DejaVuSans-66" x="268.798828"/>
      <use xlink:href="#DejaVuSans-20" x="304.003906"/>
      <use xlink:href="#DejaVuSans-48" x="335.791016"/>
      <use xlink:href="#DejaVuSans-69" x="410.986328"/>
      <use xlink:href="#DejaVuSans-67" x="438.769531"/>
      <use xlink:href="#DejaVuSans-68" x="502.246094"/>
     </g>
    </g>
   </g>
  </g>
  <g id="axes_2">
   <g id="patch_8">
    <path d="M 404.93 181.42 
L 709.2 181.42 
L 709.2 14.76 
L 404.93 14.76 
z
" style="fill: #ffffff"/>
   </g>
   <g id="matplotlib.axis_3">
    <g id="xtick_7">
     <g id="line2d_34">
      <path d="M 418.760455 181.42 
L 418.760455 14.76 
" clip-path="url(#p4576567dab)" style="fill: none; stroke: #f0f0f0; stroke-width: 0.8; stroke-linecap: square"/>
     </g>
     <g id="line2d_35">
      <g>
       <use xlink:href="#mc712258380" x="418.760455" y="181.42" style="stroke: #000000; stroke-width: 0.8"/>
      </g>
     </g>
     <g id="text_19">
      <!-- 0.0 -->
      <g transform="translate(410.808892 196.018438) scale(0.1 -0.1)">
       <use xlink:href="#DejaVuSans-30"/>
       <use xlink:href="#DejaVuSans-2e" x="63.623047"/>
       <use xlink:href="#DejaVuSans-30" x="95.410156"/>
      </g>
     </g>
    </g>
    <g id="xtick_8">
     <g id="line2d_36">
      <path d="M 474.109299 181.42 
L 474.109299 14.76 
" clip-path="url(#p4576567dab)" style="fill: none; stroke: #f0f0f0; stroke-width: 0.8; stroke-linecap: square"/>
     </g>
     <g id="line2d_37">
      <g>
       <use xlink:href="#mc712258380" x="474.109299" y="181.42" style="stroke: #000000; stroke-width: 0.8"/>
      </g>
     </g>
     <g id="text_20">
      <!-- 0.1 -->
      <g transform="translate(466.157736 196.018438) scale(0.1 -0.1)">
       <use xlink:href="#DejaVuSans-30"/>
       <use xlink:href="#DejaVuSans-2e" x="63.623047"/>
       <use xlink:href="#DejaVuSans-31" x="95.410156"/>
      </g>
     </g>
    </g>
    <g id="xtick_9">
     <g id="line2d_38">
      <path d="M 529.458143 181.42 
L 529.458143 14.76 
" clip-path="url(#p4576567dab)" style="fill: none; stroke: #f0f0f0; stroke-width: 0.8; stroke-linecap: square"/>
     </g>
     <g id="line2d_39">
      <g>
       <use xlink:href="#mc712258380" x="529.458143" y="181.42" style="stroke: #000000; stroke-width: 0.8"/>
      </g>
     </g>
     <g id="text_21">
      <!-- 0.2 -->
      <g transform="translate(521.50658 196.018438) scale(0.1 -0.1)">
       <use xlink:href="#DejaVuSans-30"/>
       <use xlink:href="#DejaVuSans-2e" x="63.623047"/>
       <use xlink:href="#DejaVuSans-32" x="95.410156"/>
      </g>
     </g>
    </g>
    <g id="xtick_10">
     <g id="line2d_40">
      <path d="M 584.806986 181.42 
L 584.806986 14.76 
" clip-path="url(#p4576567dab)" style="fill: none; stroke: #f0f0f0; stroke-width: 0.8; stroke-linecap: square"/>
     </g>
     <g id="line2d_41">
      <g>
       <use xlink:href="#mc712258380" x="584.806986" y="181.42" style="stroke: #000000; stroke-width: 0.8"/>
      </g>
     </g>
     <g id="text_22">
      <!-- 0.3 -->
      <g transform="translate(576.855424 196.018438) scale(0.1 -0.1)">
       <use xlink:href="#DejaVuSans-30"/>
       <use xlink:href="#DejaVuSans-2e" x="63.623047"/>
       <use xlink:href="#DejaVuSans-33" x="95.410156"/>
      </g>
     </g>
    </g>
    <g id="xtick_11">
     <g id="line2d_42">
      <path d="M 640.15583 181.42 
L 640.15583 14.76 
" clip-path="url(#p4576567dab)" style="fill: none; stroke: #f0f0f0; stroke-width: 0.8; stroke-linecap: square"/>
     </g>
     <g id="line2d_43">
      <g>
       <use xlink:href="#mc712258380" x="640.15583" y="181.42" style="stroke: #000000; stroke-width: 0.8"/>
      </g>
     </g>
     <g id="text_23">
      <!-- 0.4 -->
      <g transform="translate(632.204268 196.018438) scale(0.1 -0.1)">
       <use xlink:href="#DejaVuSans-30"/>
       <use xlink:href="#DejaVuSans-2e" x="63.623047"/>
       <use xlink:href="#DejaVuSans-34" x="95.410156"/>
      </g>
     </g>
    </g>
    <g id="xtick_12">
     <g id="line2d_44">
      <path d="M 695.504674 181.42 
L 695.504674 14.76 
" clip-path="url(#p4576567dab)" style="fill: none; stroke: #f0f0f0; stroke-width: 0.8; stroke-linecap: square"/>
     </g>
     <g id="line2d_45">
      <g>
       <use xlink:href="#mc712258380" x="695.504674" y="181.42" style="stroke: #000000; stroke-width: 0.8"/>
      </g>
     </g>
     <g id="text_24">
      <!-- 0.5 -->
      <g transform="translate(687.553112 196.018438) scale(0.1 -0.1)">
       <use xlink:href="#DejaVuSans-30"/>
       <use xlink:href="#DejaVuSans-2e" x="63.623047"/>
       <use xlink:href="#DejaVuSans-35" x="95.410156"/>
      </g>
     </g>
    </g>
    <g id="text_25">
     <!-- Normalized Frequency [rad/2π] -->
     <g transform="translate(479.630625 209.696562) scale(0.1 -0.1)">
      <use xlink:href="#DejaVuSans-4e"/>
      <use xlink:href="#DejaVuSans-6f" x="74.804688"/>
      <use xlink:href="#DejaVuSans-72" x="135.986328"/>
      <use xlink:href="#DejaVuSans-6d" x="175.349609"/>
      <use xlink:href="#DejaVuSans-61" x="272.761719"/>
      <use xlink:href="#DejaVuSans-6c" x="334.041016"/>
      <use xlink:href="#DejaVuSans-69" x="361.824219"/>
      <use xlink:href="#DejaVuSans-7a" x="389.607422"/>
      <use xlink:href="#DejaVuSans-65" x="442.097656"/>
      <use xlink:href="#DejaVuSans-64" x="503.621094"/>
      <use xlink:href="#DejaVuSans-20" x="567.097656"/>
      <use xlink:href="#DejaVuSans-46" x="598.884766"/>
      <use xlink:href="#DejaVuSans-72" x="649.154297"/>
      <use xlink:href="#DejaVuSans-65" x="688.017578"/>
      <use xlink:href="#DejaVuSans-71" x="749.541016"/>
      <use xlink:href="#DejaVuSans-75" x="813.017578"/>
      <use xlink:href="#DejaVuSans-65" x="876.396484"/>
      <use xlink:href="#DejaVuSans-6e" x="937.919922"/>
      <use xlink:href="#DejaVuSans-63" x="1001.298828"/>
      <use xlink:href="#DejaVuSans-79" x="1056.279297"/>
      <use xlink:href="#DejaVuSans-20" x="1115.458984"/>
      <use xlink:href="#DejaVuSans-5b" x="1147.246094"/>
      <use xlink:href="#DejaVuSans-72" x="1186.259766"/>
      <use xlink:href="#DejaVuSans-61" x="1227.373047"/>
      <use xlink:href="#DejaVuSans-64" x="1288.652344"/>
      <use xlink:href="#DejaVuSans-2f" x="1352.128906"/>
      <use xlink:href="#DejaVuSans-32" x="1385.820312"/>
      <use xlink:href="#DejaVuSans-3c0" x="1449.443359"/>
      <use xlink:href="#DejaVuSans-5d" x="1509.648438"/>
     </g>
    </g>
   </g>
   <g id="matplotlib.axis_4">
    <g id="ytick_9">
     <g id="line2d_46">
      <path d="M 404.93 180.138 
L 709.2 180.138 
" clip-path="url(#p4576567dab)" style="fill: none; stroke: #f0f0f0; stroke-width: 0.8; stroke-linecap: square"/>
     </g>
     <g id="line2d_47">
      <g>
       <use xlink:href="#mdc89132f82" x="404.93" y="180.138" style="stroke: #000000; stroke-width: 0.8"/>
      </g>
     </g>
     <g id="text_26">
      <!-- 0 -->
      <g transform="translate(391.5675 183.937219) scale(0.1 -0.1)">
       <use xlink:href="#DejaVuSans-30"/>
      </g>
     </g>
    </g>
    <g id="ytick_10">
     <g id="line2d_48">
      <path d="M 404.93 154.498 
L 709.2 154.498 
" clip-path="url(#p4576567dab)" style="fill: none; stroke: #f0f0f0; stroke-width: 0.8; stroke-linecap: square"/>
     </g>
     <g id="line2d_49">
      <g>
       <use xlink:href="#mdc89132f82" x="404.93" y="154.498" style="stroke: #000000; stroke-width: 0.8"/>
      </g>
     </g>
     <g id="text_27">
      <!-- 10 -->
      <g transform="translate(385.205 158.297219) scale(0.1 -0.1)">
       <use xlink:href="#DejaVuSans-31"/>
       <use xlink:href="#DejaVuSans-30" x="63.623047"/>
      </g>
     </g>
    </g>
    <g id="ytick_11">
     <g id="line2d_50">
      <path d="M 404.93 128.858 
L 709.2 128.858 
" clip-path="url(#p4576567dab)" style="fill: none; stroke: #f0f0f0; stroke-width: 0.8; stroke-linecap: square"/>
     </g>
     <g id="line2d_51">
      <g>
       <use xlink:href="#mdc89132f82" x="404.93" y="128.858" style="stroke: #000000; stroke-width: 0.8"/>
      </g>
     </g>
     <g id="text_28">
      <!-- 20 -->
      <g transform="translate(385.205 132.657219) scale(0.1 -0.1)">
       <use xlink:href="#DejaVuSans-32"/>
       <use xlink:href="#DejaVuSans-30" x="63.623047"/>
      </g>
     </g>
    </g>
    <g id="ytick_12">
     <g id="line2d_52">
      <path d="M 404.93 103.218 
L 709.2 103.218 
" clip-path="url(#p4576567dab)" style="fill: none; stroke: #f0f0f0; stroke-width: 0.8; stroke-linecap: square"/>
     </g>
     <g id="line2d_53">
      <g>
       <use xlink:href="#mdc89132f82" x="404.93" y="103.218" style="stroke: #000000; stroke-width: 0.8"/>
      </g>
     </g>
     <g id="text_29">
      <!-- 30 -->
      <g transform="translate(385.205 107.017219) scale(0.1 -0.1)">
       <use xlink:href="#DejaVuSans-33"/>
       <use xlink:href="#DejaVuSans-30" x="63.623047"/>
      </g>
     </g>
    </g>
    <g id="ytick_13">
     <g id="line2d_54">
      <path d="M 404.93 77.578 
L 709.2 77.578 
" clip-path="url(#p4576567dab)" style="fill: none; stroke: #f0f0f0; stroke-width: 0.8; stroke-linecap: square"/>
     </g>
     <g id="line2d_55">
      <g>
       <use xlink:href="#mdc89132f82" x="404.93" y="77.578" style="stroke: #000000; stroke-width: 0.8"/>
      </g>
     </g>
     <g id="text_30">
      <!-- 40 -->
      <g transform="translate(385.205 81.377219) scale(0.1 -0.1)">
       <use xlink:href="#DejaVuSans-34"/>
       <use xlink:href="#DejaVuSans-30" x="63.623047"/>
      </g>
     </g>
    </g>
    <g id="ytick_14">
     <g id="line2d_56">
      <path d="M 404.93 51.938 
L 709.2 51.938 
" clip-path="url(#p4576567dab)" style="fill: none; stroke: #f0f0f0; stroke-width: 0.8; stroke-linecap: square"/>
     </g>
     <g id="line2d_57">
      <g>
       <use xlink:href="#mdc89132f82" x="404.93" y="51.938" style="stroke: #000000; stroke-width: 0.8"/>
      </g>
     </g>
     <g id="text_31">
      <!-- 50 -->
      <g transform="translate(385.205 55.737219) scale(0.1 -0.1)">
       <use xlink:href="#DejaVuSans-35"/>
       <use xlink:href="#DejaVuSans-30" x="63.623047"/>
      </g>
     </g>
    </g>
    <g id="ytick_15">
     <g id="line2d_58">
      <path d="M 404.93 26.298 
L 709.2 26.298 
" clip-path="url(#p4576567dab)" style="fill: none; stroke: #f0f0f0; stroke-width: 0.8; stroke-linecap: square"/>
     </g>
     <g id="line2d_59">
      <g>
       <use xlink:href="#mdc89132f82" x="404.93" y="26.298" style="stroke: #000000; stroke-width: 0.8"/>
      </g>
     </g>
     <g id="text_32">
      <!-- 60 -->
      <g transform="translate(385.205 30.097219) scale(0.1 -0.1)">
       <use xlink:href="#DejaVuSans-36"/>
       <use xlink:href="#DejaVuSans-30" x="63.623047"/>
      </g>
     </g>
    </g>
    <g id="text_33">
     <!-- Group Delay [sample] -->
     <g transform="translate(379.125312 152.907188) rotate(-90) scale(0.1 -0.1)">
      <defs>
       <path id="DejaVuSans-70" d="M 1159 525 
L 1159 -1331 
L 581 -1331 
L 581 3500 
L 1159 3500 
L 1159 2969 
Q 1341 3281 1617 3432 
Q 1894 3584 2278 3584 
Q 2916 3584 3314 3078 
Q 3713 2572 3713 1747 
Q 3713 922 3314 415 
Q 2916 -91 2278 -91 
Q 1894 -91 1617 61 
Q 1341 213 1159 525 
z
M 3116 1747 
Q 3116 2381 2855 2742 
Q 2594 3103 2138 3103 
Q 1681 3103 1420 2742 
Q 1159 2381 1159 1747 
Q 1159 1113 1420 752 
Q 1681 391 2138 391 
Q 2594 391 2855 752 
Q 3116 1113 3116 1747 
z
" transform="scale(0.015625)"/>
       <path id="DejaVuSans-44" d="M 1259 4147 
L 1259 519 
L 2022 519 
Q 2988 519 3436 956 
Q 3884 1394 3884 2338 
Q 3884 3275 3436 3711 
Q 2988 4147 2022 4147 
L 1259 4147 
z
M 628 4666 
L 1925 4666 
Q 3281 4666 3915 4102 
Q 4550 3538 4550 2338 
Q 4550 1131 3912 565 
Q 3275 0 1925 0 
L 628 0 
L 628 4666 
z
" transform="scale(0.015625)"/>
       <path id="DejaVuSans-73" d="M 2834 3397 
L 2834 2853 
Q 2591 2978 2328 3040 
Q 2066 3103 1784 3103 
Q 1356 3103 1142 2972 
Q 928 2841 928 2578 
Q 928 2378 1081 2264 
Q 1234 2150 1697 2047 
L 1894 2003 
Q 2506 1872 2764 1633 
Q 3022 1394 3022 966 
Q 3022 478 2636 193 
Q 2250 -91 1575 -91 
Q 1294 -91 989 -36 
Q 684 19 347 128 
L 347 722 
Q 666 556 975 473 
Q 1284 391 1588 391 
Q 1994 391 2212 530 
Q 2431 669 2431 922 
Q 2431 1156 2273 1281 
Q 2116 1406 1581 1522 
L 1381 1569 
Q 847 1681 609 1914 
Q 372 2147 372 2553 
Q 372 3047 722 3315 
Q 1072 3584 1716 3584 
Q 2034 3584 2315 3537 
Q 2597 3491 2834 3397 
z
" transform="scale(0.015625)"/>
      </defs>
      <use xlink:href="#DejaVuSans-47"/>
      <use xlink:href="#DejaVuSans-72" x="77.490234"/>
      <use xlink:href="#DejaVuSans-6f" x="116.353516"/>
      <use xlink:href="#DejaVuSans-75" x="177.535156"/>
      <use xlink:href="#DejaVuSans-70" x="240.914062"/>
      <use xlink:href="#DejaVuSans-20" x="304.390625"/>
      <use xlink:href="#DejaVuSans-44" x="336.177734"/>
      <use xlink:href="#DejaVuSans-65" x="413.179688"/>
      <use xlink:href="#DejaVuSans-6c" x="474.703125"/>
      <use xlink:href="#DejaVuSans-61" x="502.486328"/>
      <use xlink:href="#DejaVuSans-79" x="563.765625"/>
      <use xlink:href="#DejaVuSans-20" x="622.945312"/>
      <use xlink:href="#DejaVuSans-5b" x="654.732422"/>
      <use xlink:href="#DejaVuSans-73" x="693.746094"/>
      <use xlink:href="#DejaVuSans-61" x="745.845703"/>
      <use xlink:href="#DejaVuSans-6d" x="807.125"/>
      <use xlink:href="#DejaVuSans-70" x="904.537109"/>
      <use xlink:href="#DejaVuSans-6c" x="968.013672"/>
      <use xlink:href="#DejaVuSans-65" x="995.796875"/>
      <use xlink:href="#DejaVuSans-5d" x="1057.320312"/>
     </g>
    </g>
   </g>
   <g id="line2d_60">
    <path d="M 418.760455 100.654 
L 695.369545 100.654 
L 695.369545 100.654 
" clip-path="url(#p4576567dab)" style="fill: none; stroke: #000000; stroke-width: 1.5; stroke-linecap: square"/>
   </g>
   <g id="line2d_61">
    <path d="M 487.94651 181.42 
L 487.94651 14.76 
" clip-path="url(#p4576567dab)" style="fill: none; stroke: #ff0000; stroke-opacity: 0.5; stroke-width: 1.5; stroke-linecap: square"/>
   </g>
   <g id="line2d_62">
    <path d="M 557.132565 181.42 
L 557.132565 14.76 
" clip-path="url(#p4576567dab)" style="fill: none; stroke: #ff0000; stroke-opacity: 0.5; stroke-width: 1.5; stroke-linecap: square"/>
   </g>
   <g id="patch_9">
    <path d="M 404.93 181.42 
L 404.93 14.76 
" style="fill: none; stroke: #000000; stroke-width: 0.8; stroke-linejoin: miter; stroke-linecap: square"/>
   </g>
   <g id="patch_10">
    <path d="M 709.2 181.42 
L 709.2 14.76 
" style="fill: none; stroke: #000000; stroke-width: 0.8; stroke-linejoin: miter; stroke-linecap: square"/>
   </g>
   <g id="patch_11">
    <path d="M 404.93 181.42 
L 709.2 181.42 
" style="fill: none; stroke: #000000; stroke-width: 0.8; stroke-linejoin: miter; stroke-linecap: square"/>
   </g>
   <g id="patch_12">
    <path d="M 404.93 14.76 
L 709.2 14.76 
" style="fill: none; stroke: #000000; stroke-width: 0.8; stroke-linejoin: miter; stroke-linecap: square"/>
   </g>
   <g id="legend_2">
    <g id="patch_13">
     <path d="M 613.6375 52.11625 
L 702.2 52.11625 
Q 704.2 52.11625 704.2 50.11625 
L 704.2 21.76 
Q 704.2 19.76 702.2 19.76 
L 613.6375 19.76 
Q 611.6375 19.76 611.6375 21.76 
L 611.6375 50.11625 
Q 611.6375 52.11625 613.6375 52.11625 
z
" style="fill: #ffffff; opacity: 0.8; stroke: #cccccc; stroke-linejoin: miter"/>
    </g>
    <g id="line2d_63">
     <path d="M 615.6375 27.858438 
L 625.6375 27.858438 
L 635.6375 27.858438 
" style="fill: none; stroke: #ff0000; stroke-opacity: 0.5; stroke-width: 1.5; stroke-linecap: square"/>
    </g>
    <g id="text_34">
     <!-- Cutoff Low -->
     <g transform="translate(643.6375 31.358438) scale(0.1 -0.1)">
      <use xlink:href="#DejaVuSans-43"/>
      <use xlink:href="#DejaVuSans-75" x="69.824219"/>
      <use xlink:href="#DejaVuSans-74" x="133.203125"/>
      <use xlink:href="#DejaVuSans-6f" x="172.412109"/>
      <use xlink:href="#DejaVuSans-66" x="233.59375"/>
      <use xlink:href="#DejaVuSans-66" x="268.798828"/>
      <use xlink:href="#DejaVuSans-20" x="304.003906"/>
      <use xlink:href="#DejaVuSans-4c" x="335.791016"/>
      <use xlink:href="#DejaVuSans-6f" x="389.753906"/>
      <use xlink:href="#DejaVuSans-77" x="450.935547"/>
     </g>
    </g>
    <g id="line2d_64">
     <path d="M 615.6375 42.536563 
L 625.6375 42.536563 
L 635.6375 42.536563 
" style="fill: none; stroke: #ff0000; stroke-opacity: 0.5; stroke-width: 1.5; stroke-linecap: square"/>
    </g>
    <g id="text_35">
     <!-- Cutoff High -->
     <g transform="translate(643.6375 46.036563) scale(0.1 -0.1)">
      <use xlink:href="#DejaVuSans-43"/>
      <use xlink:href="#DejaVuSans-75" x="69.824219"/>
      <use xlink:href="#DejaVuSans-74" x="133.203125"/>
      <use xlink:href="#DejaVuSans-6f" x="172.412109"/>
      <use xlink:href="#DejaVuSans-66" x="233.59375"/>
      <use xlink:href="#DejaVuSans-66" x="268.798828"/>
      <use xlink:href="#DejaVuSans-20" x="304.003906"/>
      <use xlink:href="#DejaVuSans-48" x="335.791016"/>
      <use xlink:href="#DejaVuSans-69" x="410.986328"/>
      <use xlink:href="#DejaVuSans-67" x="438.769531"/>
      <use xlink:href="#DejaVuSans-68" x="502.246094"/>
     </g>
    </g>
   </g>
  </g>
  <g id="axes_3">
   <g id="patch_14">
    <path d="M 52.94 390.04 
L 357.21 390.04 
L 357.21 223.38 
L 52.94 223.38 
z
" style="fill: #ffffff"/>
   </g>
   <g id="matplotlib.axis_5">
    <g id="xtick_13">
     <g id="line2d_65">
      <path d="M 66.770455 390.04 
L 66.770455 223.38 
" clip-path="url(#pddb2fb8905)" style="fill: none; stroke: #f0f0f0; stroke-width: 0.8; stroke-linecap: square"/>
     </g>
     <g id="line2d_66">
      <g>
       <use xlink:href="#mc712258380" x="66.770455" y="390.04" style="stroke: #000000; stroke-width: 0.8"/>
      </g>
     </g>
     <g id="text_36">
      <!-- 0.0 -->
      <g transform="translate(58.818892 404.638438) scale(0.1 -0.1)">
       <use xlink:href="#DejaVuSans-30"/>
       <use xlink:href="#DejaVuSans-2e" x="63.623047"/>
       <use xlink:href="#DejaVuSans-30" x="95.410156"/>
      </g>
     </g>
    </g>
    <g id="xtick_14">
     <g id="line2d_67">
      <path d="M 122.119299 390.04 
L 122.119299 223.38 
" clip-path="url(#pddb2fb8905)" style="fill: none; stroke: #f0f0f0; stroke-width: 0.8; stroke-linecap: square"/>
     </g>
     <g id="line2d_68">
      <g>
       <use xlink:href="#mc712258380" x="122.119299" y="390.04" style="stroke: #000000; stroke-width: 0.8"/>
      </g>
     </g>
     <g id="text_37">
      <!-- 0.1 -->
      <g transform="translate(114.167736 404.638438) scale(0.1 -0.1)">
       <use xlink:href="#DejaVuSans-30"/>
       <use xlink:href="#DejaVuSans-2e" x="63.623047"/>
       <use xlink:href="#DejaVuSans-31" x="95.410156"/>
      </g>
     </g>
    </g>
    <g id="xtick_15">
     <g id="line2d_69">
      <path d="M 177.468143 390.04 
L 177.468143 223.38 
" clip-path="url(#pddb2fb8905)" style="fill: none; stroke: #f0f0f0; stroke-width: 0.8; stroke-linecap: square"/>
     </g>
     <g id="line2d_70">
      <g>
       <use xlink:href="#mc712258380" x="177.468143" y="390.04" style="stroke: #000000; stroke-width: 0.8"/>
      </g>
     </g>
     <g id="text_38">
      <!-- 0.2 -->
      <g transform="translate(169.51658 404.638438) scale(0.1 -0.1)">
       <use xlink:href="#DejaVuSans-30"/>
       <use xlink:href="#DejaVuSans-2e" x="63.623047"/>
       <use xlink:href="#DejaVuSans-32" x="95.410156"/>
      </g>
     </g>
    </g>
    <g id="xtick_16">
     <g id="line2d_71">
      <path d="M 232.816986 390.04 
L 232.816986 223.38 
" clip-path="url(#pddb2fb8905)" style="fill: none; stroke: #f0f0f0; stroke-width: 0.8; stroke-linecap: square"/>
     </g>
     <g id="line2d_72">
      <g>
       <use xlink:href="#mc712258380" x="232.816986" y="390.04" style="stroke: #000000; stroke-width: 0.8"/>
      </g>
     </g>
     <g id="text_39">
      <!-- 0.3 -->
      <g transform="translate(224.865424 404.638438) scale(0.1 -0.1)">
       <use xlink:href="#DejaVuSans-30"/>
       <use xlink:href="#DejaVuSans-2e" x="63.623047"/>
       <use xlink:href="#DejaVuSans-33" x="95.410156"/>
      </g>
     </g>
    </g>
    <g id="xtick_17">
     <g id="line2d_73">
      <path d="M 288.16583 390.04 
L 288.16583 223.38 
" clip-path="url(#pddb2fb8905)" style="fill: none; stroke: #f0f0f0; stroke-width: 0.8; stroke-linecap: square"/>
     </g>
     <g id="line2d_74">
      <g>
       <use xlink:href="#mc712258380" x="288.16583" y="390.04" style="stroke: #000000; stroke-width: 0.8"/>
      </g>
     </g>
     <g id="text_40">
      <!-- 0.4 -->
      <g transform="translate(280.214268 404.638438) scale(0.1 -0.1)">
       <use xlink:href="#DejaVuSans-30"/>
       <use xlink:href="#DejaVuSans-2e" x="63.623047"/>
       <use xlink:href="#DejaVuSans-34" x="95.410156"/>
      </g>
     </g>
    </g>
    <g id="xtick_18">
     <g id="line2d_75">
      <path d="M 343.514674 390.04 
L 343.514674 223.38 
" clip-path="url(#pddb2fb8905)" style="fill: none; stroke: #f0f0f0; stroke-width: 0.8; stroke-linecap: square"/>
     </g>
     <g id="line2d_76">
      <g>
       <use xlink:href="#mc712258380" x="343.514674" y="390.04" style="stroke: #000000; stroke-width: 0.8"/>
      </g>
     </g>
     <g id="text_41">
      <!-- 0.5 -->
      <g transform="translate(335.563112 404.638438) scale(0.1 -0.1)">
       <use xlink:href="#DejaVuSans-30"/>
       <use xlink:href="#DejaVuSans-2e" x="63.623047"/>
       <use xlink:href="#DejaVuSans-35" x="95.410156"/>
      </g>
     </g>
    </g>
    <g id="text_42">
     <!-- Normalized Frequency [rad/2π] -->
     <g transform="translate(127.640625 418.316562) scale(0.1 -0.1)">
      <use xlink:href="#DejaVuSans-4e"/>
      <use xlink:href="#DejaVuSans-6f" x="74.804688"/>
      <use xlink:href="#DejaVuSans-72" x="135.986328"/>
      <use xlink:href="#DejaVuSans-6d" x="175.349609"/>
      <use xlink:href="#DejaVuSans-61" x="272.761719"/>
      <use xlink:href="#DejaVuSans-6c" x="334.041016"/>
      <use xlink:href="#DejaVuSans-69" x="361.824219"/>
      <use xlink:href="#DejaVuSans-7a" x="389.607422"/>
      <use xlink:href="#DejaVuSans-65" x="442.097656"/>
      <use xlink:href="#DejaVuSans-64" x="503.621094"/>
      <use xlink:href="#DejaVuSans-20" x="567.097656"/>
      <use xlink:href="#DejaVuSans-46" x="598.884766"/>
      <use xlink:href="#DejaVuSans-72" x="649.154297"/>
      <use xlink:href="#DejaVuSans-65" x="688.017578"/>
      <use xlink:href="#DejaVuSans-71" x="749.541016"/>
      <use xlink:href="#DejaVuSans-75" x="813.017578"/>
      <use xlink:href="#DejaVuSans-65" x="876.396484"/>
      <use xlink:href="#DejaVuSans-6e" x="937.919922"/>
      <use xlink:href="#DejaVuSans-63" x="1001.298828"/>
      <use xlink:href="#DejaVuSans-79" x="1056.279297"/>
      <use xlink:href="#DejaVuSans-20" x="1115.458984"/>
      <use xlink:href="#DejaVuSans-5b" x="1147.246094"/>
      <use xlink:href="#DejaVuSans-72" x="1186.259766"/>
      <use xlink:href="#DejaVuSans-61" x="1227.373047"/>
      <use xlink:href="#DejaVuSans-64" x="1288.652344"/>
      <use xlink:href="#DejaVuSans-2f" x="1352.128906"/>
      <use xlink:href="#DejaVuSans-32" x="1385.820312"/>
      <use xlink:href="#DejaVuSans-3c0" x="1449.443359"/>
      <use xlink:href="#DejaVuSans-5d" x="1509.648438"/>
     </g>
    </g>
   </g>
   <g id="matplotlib.axis_6">
    <g id="ytick_16">
     <g id="line2d_77">
      <path d="M 52.94 377.829459 
L 357.21 377.829459 
" clip-path="url(#pddb2fb8905)" style="fill: none; stroke: #f0f0f0; stroke-width: 0.8; stroke-linecap: square"/>
     </g>
     <g id="line2d_78">
      <g>
       <use xlink:href="#mdc89132f82" x="52.94" y="377.829459" style="stroke: #000000; stroke-width: 0.8"/>
      </g>
     </g>
     <g id="text_43">
      <!-- −70 -->
      <g transform="translate(24.835313 381.628677) scale(0.1 -0.1)">
       <defs>
        <path id="DejaVuSans-37" d="M 525 4666 
L 3525 4666 
L 3525 4397 
L 1831 0 
L 1172 0 
L 2766 4134 
L 525 4134 
L 525 4666 
z
" transform="scale(0.015625)"/>
       </defs>
       <use xlink:href="#DejaVuSans-2212"/>
       <use xlink:href="#DejaVuSans-37" x="83.789062"/>
       <use xlink:href="#DejaVuSans-30" x="147.412109"/>
      </g>
     </g>
    </g>
    <g id="ytick_17">
     <g id="line2d_79">
      <path d="M 52.94 356.847458 
L 357.21 356.847458 
" clip-path="url(#pddb2fb8905)" style="fill: none; stroke: #f0f0f0; stroke-width: 0.8; stroke-linecap: square"/>
     </g>
     <g id="line2d_80">
      <g>
       <use xlink:href="#mdc89132f82" x="52.94" y="356.847458" style="stroke: #000000; stroke-width: 0.8"/>
      </g>
     </g>
     <g id="text_44">
      <!-- −60 -->
      <g transform="translate(24.835313 360.646677) scale(0.1 -0.1)">
       <use xlink:href="#DejaVuSans-2212"/>
       <use xlink:href="#DejaVuSans-36" x="83.789062"/>
       <use xlink:href="#DejaVuSans-30" x="147.412109"/>
      </g>
     </g>
    </g>
    <g id="ytick_18">
     <g id="line2d_81">
      <path d="M 52.94 335.865457 
L 357.21 335.865457 
" clip-path="url(#pddb2fb8905)" style="fill: none; stroke: #f0f0f0; stroke-width: 0.8; stroke-linecap: square"/>
     </g>
     <g id="line2d_82">
      <g>
       <use xlink:href="#mdc89132f82" x="52.94" y="335.865457" style="stroke: #000000; stroke-width: 0.8"/>
      </g>
     </g>
     <g id="text_45">
      <!-- −50 -->
      <g transform="translate(24.835313 339.664676) scale(0.1 -0.1)">
       <use xlink:href="#DejaVuSans-2212"/>
       <use xlink:href="#DejaVuSans-35" x="83.789062"/>
       <use xlink:href="#DejaVuSans-30" x="147.412109"/>
      </g>
     </g>
    </g>
    <g id="ytick_19">
     <g id="line2d_83">
      <path d="M 52.94 314.883457 
L 357.21 314.883457 
" clip-path="url(#pddb2fb8905)" style="fill: none; stroke: #f0f0f0; stroke-width: 0.8; stroke-linecap: square"/>
     </g>
     <g id="line2d_84">
      <g>
       <use xlink:href="#mdc89132f82" x="52.94" y="314.883457" style="stroke: #000000; stroke-width: 0.8"/>
      </g>
     </g>
     <g id="text_46">
      <!-- −40 -->
      <g transform="translate(24.835313 318.682676) scale(0.1 -0.1)">
       <use xlink:href="#DejaVuSans-2212"/>
       <use xlink:href="#DejaVuSans-34" x="83.789062"/>
       <use xlink:href="#DejaVuSans-30" x="147.412109"/>
      </g>
     </g>
    </g>
    <g id="ytick_20">
     <g id="line2d_85">
      <path d="M 52.94 293.901456 
L 357.21 293.901456 
" clip-path="url(#pddb2fb8905)" style="fill: none; stroke: #f0f0f0; stroke-width: 0.8; stroke-linecap: square"/>
     </g>
     <g id="line2d_86">
      <g>
       <use xlink:href="#mdc89132f82" x="52.94" y="293.901456" style="stroke: #000000; stroke-width: 0.8"/>
      </g>
     </g>
     <g id="text_47">
      <!-- −30 -->
      <g transform="translate(24.835313 297.700675) scale(0.1 -0.1)">
       <use xlink:href="#DejaVuSans-2212"/>
       <use xlink:href="#DejaVuSans-33" x="83.789062"/>
       <use xlink:href="#DejaVuSans-30" x="147.412109"/>
      </g>
     </g>
    </g>
    <g id="ytick_21">
     <g id="line2d_87">
      <path d="M 52.94 272.919456 
L 357.21 272.919456 
" clip-path="url(#pddb2fb8905)" style="fill: none; stroke: #f0f0f0; stroke-width: 0.8; stroke-linecap: square"/>
     </g>
     <g id="line2d_88">
      <g>
       <use xlink:href="#mdc89132f82" x="52.94" y="272.919456" style="stroke: #000000; stroke-width: 0.8"/>
      </g>
     </g>
     <g id="text_48">
      <!-- −20 -->
      <g transform="translate(24.835313 276.718674) scale(0.1 -0.1)">
       <use xlink:href="#DejaVuSans-2212"/>
       <use xlink:href="#DejaVuSans-32" x="83.789062"/>
       <use xlink:href="#DejaVuSans-30" x="147.412109"/>
      </g>
     </g>
    </g>
    <g id="ytick_22">
     <g id="line2d_89">
      <path d="M 52.94 251.937455 
L 357.21 251.937455 
" clip-path="url(#pddb2fb8905)" style="fill: none; stroke: #f0f0f0; stroke-width: 0.8; stroke-linecap: square"/>
     </g>
     <g id="line2d_90">
      <g>
       <use xlink:href="#mdc89132f82" x="52.94" y="251.937455" style="stroke: #000000; stroke-width: 0.8"/>
      </g>
     </g>
     <g id="text_49">
      <!-- −10 -->
      <g transform="translate(24.835313 255.736674) scale(0.1 -0.1)">
       <use xlink:href="#DejaVuSans-2212"/>
       <use xlink:href="#DejaVuSans-31" x="83.789062"/>
       <use xlink:href="#DejaVuSans-30" x="147.412109"/>
      </g>
     </g>
    </g>
    <g id="ytick_23">
     <g id="line2d_91">
      <path d="M 52.94 230.955455 
L 357.21 230.955455 
" clip-path="url(#pddb2fb8905)" style="fill: none; stroke: #f0f0f0; stroke-width: 0.8; stroke-linecap: square"/>
     </g>
     <g id="line2d_92">
      <g>
       <use xlink:href="#mdc89132f82" x="52.94" y="230.955455" style="stroke: #000000; stroke-width: 0.8"/>
      </g>
     </g>
     <g id="text_50">
      <!-- 0 -->
      <g transform="translate(39.5775 234.754673) scale(0.1 -0.1)">
       <use xlink:href="#DejaVuSans-30"/>
      </g>
     </g>
    </g>
    <g id="text_51">
     <!-- Phase [rad] -->
     <g transform="translate(18.755625 335.423281) rotate(-90) scale(0.1 -0.1)">
      <defs>
       <path id="DejaVuSans-50" d="M 1259 4147 
L 1259 2394 
L 2053 2394 
Q 2494 2394 2734 2622 
Q 2975 2850 2975 3272 
Q 2975 3691 2734 3919 
Q 2494 4147 2053 4147 
L 1259 4147 
z
M 628 4666 
L 2053 4666 
Q 2838 4666 3239 4311 
Q 3641 3956 3641 3272 
Q 3641 2581 3239 2228 
Q 2838 1875 2053 1875 
L 1259 1875 
L 1259 0 
L 628 0 
L 628 4666 
z
" transform="scale(0.015625)"/>
      </defs>
      <use xlink:href="#DejaVuSans-50"/>
      <use xlink:href="#DejaVuSans-68" x="60.302734"/>
      <use xlink:href="#DejaVuSans-61" x="123.681641"/>
      <use xlink:href="#DejaVuSans-73" x="184.960938"/>
      <use xlink:href="#DejaVuSans-65" x="237.060547"/>
      <use xlink:href="#DejaVuSans-20" x="298.583984"/>
      <use xlink:href="#DejaVuSans-5b" x="330.371094"/>
      <use xlink:href="#DejaVuSans-72" x="369.384766"/>
      <use xlink:href="#DejaVuSans-61" x="410.498047"/>
      <use xlink:href="#DejaVuSans-64" x="471.777344"/>
      <use xlink:href="#DejaVuSans-5d" x="535.253906"/>
     </g>
    </g>
   </g>
   <g id="line2d_93">
    <path d="M 66.770455 230.955455 
L 140.956283 285.732784 
L 141.091412 279.24087 
L 149.60454 285.526793 
L 149.739669 279.03488 
L 157.171765 284.522591 
L 157.306894 278.030677 
L 166.765925 285.015036 
L 166.901054 278.523123 
L 174.19802 283.911057 
L 174.333149 277.419144 
L 183.79218 284.403503 
L 183.927309 277.911589 
L 191.359405 283.3993 
L 191.494534 276.907386 
L 200.007662 283.193309 
L 200.142791 276.701396 
L 343.379545 382.464545 
L 343.379545 382.464545 
" clip-path="url(#pddb2fb8905)" style="fill: none; stroke: #000000; stroke-width: 1.5; stroke-linecap: square"/>
   </g>
   <g id="line2d_94">
    <path d="M 135.95651 390.04 
L 135.95651 223.38 
" clip-path="url(#pddb2fb8905)" style="fill: none; stroke: #ff0000; stroke-opacity: 0.5; stroke-width: 1.5; stroke-linecap: square"/>
   </g>
   <g id="line2d_95">
    <path d="M 205.142565 390.04 
L 205.142565 223.38 
" clip-path="url(#pddb2fb8905)" style="fill: none; stroke: #ff0000; stroke-opacity: 0.5; stroke-width: 1.5; stroke-linecap: square"/>
   </g>
   <g id="patch_15">
    <path d="M 52.94 390.04 
L 52.94 223.38 
" style="fill: none; stroke: #000000; stroke-width: 0.8; stroke-linejoin: miter; stroke-linecap: square"/>
   </g>
   <g id="patch_16">
    <path d="M 357.21 390.04 
L 357.21 223.38 
" style="fill: none; stroke: #000000; stroke-width: 0.8; stroke-linejoin: miter; stroke-linecap: square"/>
   </g>
   <g id="patch_17">
    <path d="M 52.94 390.04 
L 357.21 390.04 
" style="fill: none; stroke: #000000; stroke-width: 0.8; stroke-linejoin: miter; stroke-linecap: square"/>
   </g>
   <g id="patch_18">
    <path d="M 52.94 223.38 
L 357.21 223.38 
" style="fill: none; stroke: #000000; stroke-width: 0.8; stroke-linejoin: miter; stroke-linecap: square"/>
   </g>
   <g id="legend_3">
    <g id="patch_19">
     <path d="M 261.6475 260.73625 
L 350.21 260.73625 
Q 352.21 260.73625 352.21 258.73625 
L 352.21 230.38 
Q 352.21 228.38 350.21 228.38 
L 261.6475 228.38 
Q 259.6475 228.38 259.6475 230.38 
L 259.6475 258.73625 
Q 259.6475 260.73625 261.6475 260.73625 
z
" style="fill: #ffffff; opacity: 0.8; stroke: #cccccc; stroke-linejoin: miter"/>
    </g>
    <g id="line2d_96">
     <path d="M 263.6475 236.478438 
L 273.6475 236.478438 
L 283.6475 236.478438 
" style="fill: none; stroke: #ff0000; stroke-opacity: 0.5; stroke-width: 1.5; stroke-linecap: square"/>
    </g>
    <g id="text_52">
     <!-- Cutoff Low -->
     <g transform="translate(291.6475 239.978438) scale(0.1 -0.1)">
      <use xlink:href="#DejaVuSans-43"/>
      <use xlink:href="#DejaVuSans-75" x="69.824219"/>
      <use xlink:href="#DejaVuSans-74" x="133.203125"/>
      <use xlink:href="#DejaVuSans-6f" x="172.412109"/>
      <use xlink:href="#DejaVuSans-66" x="233.59375"/>
      <use xlink:href="#DejaVuSans-66" x="268.798828"/>
      <use xlink:href="#DejaVuSans-20" x="304.003906"/>
      <use xlink:href="#DejaVuSans-4c" x="335.791016"/>
      <use xlink:href="#DejaVuSans-6f" x="389.753906"/>
      <use xlink:href="#DejaVuSans-77" x="450.935547"/>
     </g>
    </g>
    <g id="line2d_97">
     <path d="M 263.6475 251.156563 
L 273.6475 251.156563 
L 283.6475 251.156563 
" style="fill: none; stroke: #ff0000; stroke-opacity: 0.5; stroke-width: 1.5; stroke-linecap: square"/>
    </g>
    <g id="text_53">
     <!-- Cutoff High -->
     <g transform="translate(291.6475 254.656563) scale(0.1 -0.1)">
      <use xlink:href="#DejaVuSans-43"/>
      <use xlink:href="#DejaVuSans-75" x="69.824219"/>
      <use xlink:href="#DejaVuSans-74" x="133.203125"/>
      <use xlink:href="#DejaVuSans-6f" x="172.412109"/>
      <use xlink:href="#DejaVuSans-66" x="233.59375"/>
      <use xlink:href="#DejaVuSans-66" x="268.798828"/>
      <use xlink:href="#DejaVuSans-20" x="304.003906"/>
      <use xlink:href="#DejaVuSans-48" x="335.791016"/>
      <use xlink:href="#DejaVuSans-69" x="410.986328"/>
      <use xlink:href="#DejaVuSans-67" x="438.769531"/>
      <use xlink:href="#DejaVuSans-68" x="502.246094"/>
     </g>
    </g>
   </g>
  </g>
  <g id="axes_4">
   <g id="patch_20">
    <path d="M 404.93 390.04 
L 709.2 390.04 
L 709.2 223.38 
L 404.93 223.38 
z
" style="fill: #ffffff"/>
   </g>
   <g id="matplotlib.axis_7">
    <g id="xtick_19">
     <g id="line2d_98">
      <path d="M 418.760455 390.04 
L 418.760455 223.38 
" clip-path="url(#p9770270222)" style="fill: none; stroke: #f0f0f0; stroke-width: 0.8; stroke-linecap: square"/>
     </g>
     <g id="line2d_99">
      <g>
       <use xlink:href="#mc712258380" x="418.760455" y="390.04" style="stroke: #000000; stroke-width: 0.8"/>
      </g>
     </g>
     <g id="text_54">
      <!-- 0 -->
      <g transform="translate(415.579205 404.638438) scale(0.1 -0.1)">
       <use xlink:href="#DejaVuSans-30"/>
      </g>
     </g>
    </g>
    <g id="xtick_20">
     <g id="line2d_100">
      <path d="M 463.374824 390.04 
L 463.374824 223.38 
" clip-path="url(#p9770270222)" style="fill: none; stroke: #f0f0f0; stroke-width: 0.8; stroke-linecap: square"/>
     </g>
     <g id="line2d_101">
      <g>
       <use xlink:href="#mc712258380" x="463.374824" y="390.04" style="stroke: #000000; stroke-width: 0.8"/>
      </g>
     </g>
     <g id="text_55">
      <!-- 10 -->
      <g transform="translate(457.012324 404.638438) scale(0.1 -0.1)">
       <use xlink:href="#DejaVuSans-31"/>
       <use xlink:href="#DejaVuSans-30" x="63.623047"/>
      </g>
     </g>
    </g>
    <g id="xtick_21">
     <g id="line2d_102">
      <path d="M 507.989194 390.04 
L 507.989194 223.38 
" clip-path="url(#p9770270222)" style="fill: none; stroke: #f0f0f0; stroke-width: 0.8; stroke-linecap: square"/>
     </g>
     <g id="line2d_103">
      <g>
       <use xlink:href="#mc712258380" x="507.989194" y="390.04" style="stroke: #000000; stroke-width: 0.8"/>
      </g>
     </g>
     <g id="text_56">
      <!-- 20 -->
      <g transform="translate(501.626694 404.638438) scale(0.1 -0.1)">
       <use xlink:href="#DejaVuSans-32"/>
       <use xlink:href="#DejaVuSans-30" x="63.623047"/>
      </g>
     </g>
    </g>
    <g id="xtick_22">
     <g id="line2d_104">
      <path d="M 552.603563 390.04 
L 552.603563 223.38 
" clip-path="url(#p9770270222)" style="fill: none; stroke: #f0f0f0; stroke-width: 0.8; stroke-linecap: square"/>
     </g>
     <g id="line2d_105">
      <g>
       <use xlink:href="#mc712258380" x="552.603563" y="390.04" style="stroke: #000000; stroke-width: 0.8"/>
      </g>
     </g>
     <g id="text_57">
      <!-- 30 -->
      <g transform="translate(546.241063 404.638438) scale(0.1 -0.1)">
       <use xlink:href="#DejaVuSans-33"/>
       <use xlink:href="#DejaVuSans-30" x="63.623047"/>
      </g>
     </g>
    </g>
    <g id="xtick_23">
     <g id="line2d_106">
      <path d="M 597.217933 390.04 
L 597.217933 223.38 
" clip-path="url(#p9770270222)" style="fill: none; stroke: #f0f0f0; stroke-width: 0.8; stroke-linecap: square"/>
     </g>
     <g id="line2d_107">
      <g>
       <use xlink:href="#mc712258380" x="597.217933" y="390.04" style="stroke: #000000; stroke-width: 0.8"/>
      </g>
     </g>
     <g id="text_58">
      <!-- 40 -->
      <g transform="translate(590.855433 404.638438) scale(0.1 -0.1)">
       <use xlink:href="#DejaVuSans-34"/>
       <use xlink:href="#DejaVuSans-30" x="63.623047"/>
      </g>
     </g>
    </g>
    <g id="xtick_24">
     <g id="line2d_108">
      <path d="M 641.832302 390.04 
L 641.832302 223.38 
" clip-path="url(#p9770270222)" style="fill: none; stroke: #f0f0f0; stroke-width: 0.8; stroke-linecap: square"/>
     </g>
     <g id="line2d_109">
      <g>
       <use xlink:href="#mc712258380" x="641.832302" y="390.04" style="stroke: #000000; stroke-width: 0.8"/>
      </g>
     </g>
     <g id="text_59">
      <!-- 50 -->
      <g transform="translate(635.469802 404.638438) scale(0.1 -0.1)">
       <use xlink:href="#DejaVuSans-35"/>
       <use xlink:href="#DejaVuSans-30" x="63.623047"/>
      </g>
     </g>
    </g>
    <g id="xtick_25">
     <g id="line2d_110">
      <path d="M 686.446672 390.04 
L 686.446672 223.38 
" clip-path="url(#p9770270222)" style="fill: none; stroke: #f0f0f0; stroke-width: 0.8; stroke-linecap: square"/>
     </g>
     <g id="line2d_111">
      <g>
       <use xlink:href="#mc712258380" x="686.446672" y="390.04" style="stroke: #000000; stroke-width: 0.8"/>
      </g>
     </g>
     <g id="text_60">
      <!-- 60 -->
      <g transform="translate(680.084172 404.638438) scale(0.1 -0.1)">
       <use xlink:href="#DejaVuSans-36"/>
       <use xlink:href="#DejaVuSans-30" x="63.623047"/>
      </g>
     </g>
    </g>
    <g id="text_61">
     <!-- Time [sample] -->
     <g transform="translate(521.161875 418.316562) scale(0.1 -0.1)">
      <defs>
       <path id="DejaVuSans-54" d="M -19 4666 
L 3928 4666 
L 3928 4134 
L 2272 4134 
L 2272 0 
L 1638 0 
L 1638 4134 
L -19 4134 
L -19 4666 
z
" transform="scale(0.015625)"/>
      </defs>
      <use xlink:href="#DejaVuSans-54"/>
      <use xlink:href="#DejaVuSans-69" x="57.958984"/>
      <use xlink:href="#DejaVuSans-6d" x="85.742188"/>
      <use xlink:href="#DejaVuSans-65" x="183.154297"/>
      <use xlink:href="#DejaVuSans-20" x="244.677734"/>
      <use xlink:href="#DejaVuSans-5b" x="276.464844"/>
      <use xlink:href="#DejaVuSans-73" x="315.478516"/>
      <use xlink:href="#DejaVuSans-61" x="367.578125"/>
      <use xlink:href="#DejaVuSans-6d" x="428.857422"/>
      <use xlink:href="#DejaVuSans-70" x="526.269531"/>
      <use xlink:href="#DejaVuSans-6c" x="589.746094"/>
      <use xlink:href="#DejaVuSans-65" x="617.529297"/>
      <use xlink:href="#DejaVuSans-5d" x="679.052734"/>
     </g>
    </g>
   </g>
   <g id="matplotlib.axis_8">
    <g id="ytick_24">
     <g id="line2d_112">
      <path d="M 404.93 363.064413 
L 709.2 363.064413 
" clip-path="url(#p9770270222)" style="fill: none; stroke: #f0f0f0; stroke-width: 0.8; stroke-linecap: square"/>
     </g>
     <g id="line2d_113">
      <g>
       <use xlink:href="#mdc89132f82" x="404.93" y="363.064413" style="stroke: #000000; stroke-width: 0.8"/>
      </g>
     </g>
     <g id="text_62">
      <!-- 0.0 -->
      <g transform="translate(382.026875 366.863632) scale(0.1 -0.1)">
       <use xlink:href="#DejaVuSans-30"/>
       <use xlink:href="#DejaVuSans-2e" x="63.623047"/>
       <use xlink:href="#DejaVuSans-30" x="95.410156"/>
      </g>
     </g>
    </g>
    <g id="ytick_25">
     <g id="line2d_114">
      <path d="M 404.93 327.362304 
L 709.2 327.362304 
" clip-path="url(#p9770270222)" style="fill: none; stroke: #f0f0f0; stroke-width: 0.8; stroke-linecap: square"/>
     </g>
     <g id="line2d_115">
      <g>
       <use xlink:href="#mdc89132f82" x="404.93" y="327.362304" style="stroke: #000000; stroke-width: 0.8"/>
      </g>
     </g>
     <g id="text_63">
      <!-- 0.2 -->
      <g transform="translate(382.026875 331.161523) scale(0.1 -0.1)">
       <use xlink:href="#DejaVuSans-30"/>
       <use xlink:href="#DejaVuSans-2e" x="63.623047"/>
       <use xlink:href="#DejaVuSans-32" x="95.410156"/>
      </g>
     </g>
    </g>
    <g id="ytick_26">
     <g id="line2d_116">
      <path d="M 404.93 291.660194 
L 709.2 291.660194 
" clip-path="url(#p9770270222)" style="fill: none; stroke: #f0f0f0; stroke-width: 0.8; stroke-linecap: square"/>
     </g>
     <g id="line2d_117">
      <g>
       <use xlink:href="#mdc89132f82" x="404.93" y="291.660194" style="stroke: #000000; stroke-width: 0.8"/>
      </g>
     </g>
     <g id="text_64">
      <!-- 0.4 -->
      <g transform="translate(382.026875 295.459413) scale(0.1 -0.1)">
       <use xlink:href="#DejaVuSans-30"/>
       <use xlink:href="#DejaVuSans-2e" x="63.623047"/>
       <use xlink:href="#DejaVuSans-34" x="95.410156"/>
      </g>
     </g>
    </g>
    <g id="ytick_27">
     <g id="line2d_118">
      <path d="M 404.93 255.958085 
L 709.2 255.958085 
" clip-path="url(#p9770270222)" style="fill: none; stroke: #f0f0f0; stroke-width: 0.8; stroke-linecap: square"/>
     </g>
     <g id="line2d_119">
      <g>
       <use xlink:href="#mdc89132f82" x="404.93" y="255.958085" style="stroke: #000000; stroke-width: 0.8"/>
      </g>
     </g>
     <g id="text_65">
      <!-- 0.6 -->
      <g transform="translate(382.026875 259.757304) scale(0.1 -0.1)">
       <use xlink:href="#DejaVuSans-30"/>
       <use xlink:href="#DejaVuSans-2e" x="63.623047"/>
       <use xlink:href="#DejaVuSans-36" x="95.410156"/>
      </g>
     </g>
    </g>
    <g id="text_66">
     <!-- Amplitude of FIR Coefficient -->
     <g transform="translate(375.947187 376.624844) rotate(-90) scale(0.1 -0.1)">
      <defs>
       <path id="DejaVuSans-41" d="M 2188 4044 
L 1331 1722 
L 3047 1722 
L 2188 4044 
z
M 1831 4666 
L 2547 4666 
L 4325 0 
L 3669 0 
L 3244 1197 
L 1141 1197 
L 716 0 
L 50 0 
L 1831 4666 
z
" transform="scale(0.015625)"/>
       <path id="DejaVuSans-49" d="M 628 4666 
L 1259 4666 
L 1259 0 
L 628 0 
L 628 4666 
z
" transform="scale(0.015625)"/>
       <path id="DejaVuSans-52" d="M 2841 2188 
Q 3044 2119 3236 1894 
Q 3428 1669 3622 1275 
L 4263 0 
L 3584 0 
L 2988 1197 
Q 2756 1666 2539 1819 
Q 2322 1972 1947 1972 
L 1259 1972 
L 1259 0 
L 628 0 
L 628 4666 
L 2053 4666 
Q 2853 4666 3247 4331 
Q 3641 3997 3641 3322 
Q 3641 2881 3436 2590 
Q 3231 2300 2841 2188 
z
M 1259 4147 
L 1259 2491 
L 2053 2491 
Q 2509 2491 2742 2702 
Q 2975 2913 2975 3322 
Q 2975 3731 2742 3939 
Q 2509 4147 2053 4147 
L 1259 4147 
z
" transform="scale(0.015625)"/>
      </defs>
      <use xlink:href="#DejaVuSans-41"/>
      <use xlink:href="#DejaVuSans-6d" x="68.408203"/>
      <use xlink:href="#DejaVuSans-70" x="165.820312"/>
      <use xlink:href="#DejaVuSans-6c" x="229.296875"/>
      <use xlink:href="#DejaVuSans-69" x="257.080078"/>
      <use xlink:href="#DejaVuSans-74" x="284.863281"/>
      <use xlink:href="#DejaVuSans-75" x="324.072266"/>
      <use xlink:href="#DejaVuSans-64" x="387.451172"/>
      <use xlink:href="#DejaVuSans-65" x="450.927734"/>
      <use xlink:href="#DejaVuSans-20" x="512.451172"/>
      <use xlink:href="#DejaVuSans-6f" x="544.238281"/>
      <use xlink:href="#DejaVuSans-66" x="605.419922"/>
      <use xlink:href="#DejaVuSans-20" x="640.625"/>
      <use xlink:href="#DejaVuSans-46" x="672.412109"/>
      <use xlink:href="#DejaVuSans-49" x="729.931641"/>
      <use xlink:href="#DejaVuSans-52" x="759.423828"/>
      <use xlink:href="#DejaVuSans-20" x="828.90625"/>
      <use xlink:href="#DejaVuSans-43" x="860.693359"/>
      <use xlink:href="#DejaVuSans-6f" x="930.517578"/>
      <use xlink:href="#DejaVuSans-65" x="991.699219"/>
      <use xlink:href="#DejaVuSans-66" x="1053.222656"/>
      <use xlink:href="#DejaVuSans-66" x="1088.427734"/>
      <use xlink:href="#DejaVuSans-69" x="1123.632812"/>
      <use xlink:href="#DejaVuSans-63" x="1151.416016"/>
      <use xlink:href="#DejaVuSans-69" x="1206.396484"/>
      <use xlink:href="#DejaVuSans-65" x="1234.179688"/>
      <use xlink:href="#DejaVuSans-6e" x="1295.703125"/>
      <use xlink:href="#DejaVuSans-74" x="1359.082031"/>
     </g>
    </g>
   </g>
   <g id="line2d_120">
    <path d="M 418.760455 362.527552 
L 423.221891 364.958469 
L 427.683328 366.409264 
L 432.144765 363.064413 
L 436.606202 359.471796 
L 441.067639 360.878964 
L 445.529076 363.73012 
L 449.990513 363.064413 
L 454.45195 362.340818 
L 458.913387 365.647216 
L 463.374824 367.683492 
L 467.836261 363.064413 
L 472.297698 357.959115 
L 476.759135 359.907654 
L 481.220572 364.043394 
L 485.682009 363.064413 
L 490.143446 361.954901 
L 494.604883 367.123104 
L 499.06632 370.526003 
L 503.527757 363.064413 
L 507.989194 354.246171 
L 512.45063 357.382246 
L 516.912067 364.9136 
L 521.373504 363.064413 
L 525.834941 360.686887 
L 530.296378 372.534692 
L 534.757815 382.464545 
L 539.219252 363.064413 
L 543.680689 330.730859 
L 548.142126 334.653577 
L 552.603563 379.707096 
L 557.065 230.955455 
L 561.526437 379.707096 
L 565.987874 334.653577 
L 570.449311 330.730859 
L 574.910748 363.064413 
L 579.372185 382.464545 
L 583.833622 372.534692 
L 588.295059 360.686887 
L 592.756496 363.064413 
L 597.217933 364.9136 
L 601.67937 357.382246 
L 606.140806 354.246171 
L 610.602243 363.064413 
L 615.06368 370.526003 
L 619.525117 367.123104 
L 623.986554 361.954901 
L 628.447991 363.064413 
L 632.909428 364.043394 
L 637.370865 359.907654 
L 641.832302 357.959115 
L 646.293739 363.064413 
L 650.755176 367.683492 
L 655.216613 365.647216 
L 659.67805 362.340818 
L 664.139487 363.064413 
L 668.600924 363.73012 
L 673.062361 360.878964 
L 677.523798 359.471796 
L 681.985235 363.064413 
L 686.446672 366.409264 
L 690.908109 364.958469 
L 695.369545 362.527552 
" clip-path="url(#p9770270222)" style="fill: none; stroke: #000000; stroke-width: 1.5; stroke-linecap: square"/>
   </g>
   <g id="patch_21">
    <path d="M 404.93 390.04 
L 404.93 223.38 
" style="fill: none; stroke: #000000; stroke-width: 0.8; stroke-linejoin: miter; stroke-linecap: square"/>
   </g>
   <g id="patch_22">
    <path d="M 709.2 390.04 
L 709.2 223.38 
" style="fill: none; stroke: #000000; stroke-width: 0.8; stroke-linejoin: miter; stroke-linecap: square"/>
   </g>
   <g id="patch_23">
    <path d="M 404.93 390.04 
L 709.2 390.04 
" style="fill: none; stroke: #000000; stroke-width: 0.8; stroke-linejoin: miter; stroke-linecap: square"/>
   </g>
   <g id="patch_24">
    <path d="M 404.93 223.38 
L 709.2 223.38 
" style="fill: none; stroke: #000000; stroke-width: 0.8; stroke-linejoin: miter; stroke-linecap: square"/>
   </g>
  </g>
 </g>
 <defs>
  <clipPath id="p5ede4090ea">
   <rect x="52.94" y="14.76" width="304.27" height="166.66"/>
  </clipPath>
  <clipPath id="p4576567dab">
   <rect x="404.93" y="14.76" width="304.27" height="166.66"/>
  </clipPath>
  <clipPath id="pddb2fb8905">
   <rect x="52.94" y="223.38" width="304.27" height="166.66"/>
  </clipPath>
  <clipPath id="p9770270222">
   <rect x="404.93" y="223.38" width="304.27" height="166.66"/>
  </clipPath>
 </defs>
</svg>
