<?xml version="1.0" encoding="utf-8" standalone="no"?>
<!DOCTYPE svg PUBLIC "-//W3C//DTD SVG 1.1//EN"
  "http://www.w3.org/Graphics/SVG/1.1/DTD/svg11.dtd">
<svg xmlns:xlink="http://www.w3.org/1999/xlink" width="720pt" height="432pt" viewBox="0 0 720 432" xmlns="http://www.w3.org/2000/svg" version="1.1">
 <metadata>
  <rdf:RDF xmlns:dc="http://purl.org/dc/elements/1.1/" xmlns:cc="http://creativecommons.org/ns#" xmlns:rdf="http://www.w3.org/1999/02/22-rdf-syntax-ns#">
   <cc:Work>
    <dc:type rdf:resource="http://purl.org/dc/dcmitype/StillImage"/>
    <dc:date>2024-07-23T21:26:02.211773</dc:date>
    <dc:format>image/svg+xml</dc:format>
    <dc:creator>
     <cc:Agent>
      <dc:title>Matplotlib v3.8.2, https://matplotlib.org/</dc:title>
     </cc:Agent>
    </dc:creator>
   </cc:Work>
  </rdf:RDF>
 </metadata>
 <defs>
  <style type="text/css">*{stroke-linejoin: round; stroke-linecap: butt}</style>
 </defs>
 <g id="figure_1">
  <g id="patch_1">
   <path d="M 0 432 
L 720 432 
L 720 0 
L 0 0 
z
" style="fill: #ffffff"/>
  </g>
  <g id="axes_1">
   <g id="patch_2">
    <path d="M 52.94 181.42 
L 353.025 181.42 
L 353.025 14.76 
L 52.94 14.76 
z
" style="fill: #ffffff"/>
   </g>
   <g id="matplotlib.axis_1">
    <g id="xtick_1">
     <g id="line2d_1">
      <path d="M 66.580227 181.42 
L 66.580227 14.76 
" clip-path="url(#p1744675f73)" style="fill: none; stroke: #f0f0f0; stroke-width: 0.8; stroke-linecap: square"/>
     </g>
     <g id="line2d_2">
      <defs>
       <path id="meb9d76b585" d="M 0 0 
L 0 3.5 
" style="stroke: #000000; stroke-width: 0.8"/>
      </defs>
      <g>
       <use xlink:href="#meb9d76b585" x="66.580227" y="181.42" style="stroke: #000000; stroke-width: 0.8"/>
      </g>
     </g>
     <g id="text_1">
      <!-- 0.0 -->
      <g transform="translate(58.628665 196.018438) scale(0.1 -0.1)">
       <defs>
        <path id="DejaVuSans-30" d="M 2034 4250 
Q 1547 4250 1301 3770 
Q 1056 3291 1056 2328 
Q 1056 1369 1301 889 
Q 1547 409 2034 409 
Q 2525 409 2770 889 
Q 3016 1369 3016 2328 
Q 3016 3291 2770 3770 
Q 2525 4250 2034 4250 
z
M 2034 4750 
Q 2819 4750 3233 4129 
Q 3647 3509 3647 2328 
Q 3647 1150 3233 529 
Q 2819 -91 2034 -91 
Q 1250 -91 836 529 
Q 422 1150 422 2328 
Q 422 3509 836 4129 
Q 1250 4750 2034 4750 
z
" transform="scale(0.015625)"/>
        <path id="DejaVuSans-2e" d="M 684 794 
L 1344 794 
L 1344 0 
L 684 0 
L 684 794 
z
" transform="scale(0.015625)"/>
       </defs>
       <use xlink:href="#DejaVuSans-30"/>
       <use xlink:href="#DejaVuSans-2e" x="63.623047"/>
       <use xlink:href="#DejaVuSans-30" x="95.410156"/>
      </g>
     </g>
    </g>
    <g id="xtick_2">
     <g id="line2d_3">
      <path d="M 121.16779 181.42 
L 121.16779 14.76 
" clip-path="url(#p1744675f73)" style="fill: none; stroke: #f0f0f0; stroke-width: 0.8; stroke-linecap: square"/>
     </g>
     <g id="line2d_4">
      <g>
       <use xlink:href="#meb9d76b585" x="121.16779" y="181.42" style="stroke: #000000; stroke-width: 0.8"/>
      </g>
     </g>
     <g id="text_2">
      <!-- 0.1 -->
      <g transform="translate(113.216228 196.018438) scale(0.1 -0.1)">
       <defs>
        <path id="DejaVuSans-31" d="M 794 531 
L 1825 531 
L 1825 4091 
L 703 3866 
L 703 4441 
L 1819 4666 
L 2450 4666 
L 2450 531 
L 3481 531 
L 3481 0 
L 794 0 
L 794 531 
z
" transform="scale(0.015625)"/>
       </defs>
       <use xlink:href="#DejaVuSans-30"/>
       <use xlink:href="#DejaVuSans-2e" x="63.623047"/>
       <use xlink:href="#DejaVuSans-31" x="95.410156"/>
      </g>
     </g>
    </g>
    <g id="xtick_3">
     <g id="line2d_5">
      <path d="M 175.755354 181.42 
L 175.755354 14.76 
" clip-path="url(#p1744675f73)" style="fill: none; stroke: #f0f0f0; stroke-width: 0.8; stroke-linecap: square"/>
     </g>
     <g id="line2d_6">
      <g>
       <use xlink:href="#meb9d76b585" x="175.755354" y="181.42" style="stroke: #000000; stroke-width: 0.8"/>
      </g>
     </g>
     <g id="text_3">
      <!-- 0.2 -->
      <g transform="translate(167.803791 196.018438) scale(0.1 -0.1)">
       <defs>
        <path id="DejaVuSans-32" d="M 1228 531 
L 3431 531 
L 3431 0 
L 469 0 
L 469 531 
Q 828 903 1448 1529 
Q 2069 2156 2228 2338 
Q 2531 2678 2651 2914 
Q 2772 3150 2772 3378 
Q 2772 3750 2511 3984 
Q 2250 4219 1831 4219 
Q 1534 4219 1204 4116 
Q 875 4013 500 3803 
L 500 4441 
Q 881 4594 1212 4672 
Q 1544 4750 1819 4750 
Q 2544 4750 2975 4387 
Q 3406 4025 3406 3419 
Q 3406 3131 3298 2873 
Q 3191 2616 2906 2266 
Q 2828 2175 2409 1742 
Q 1991 1309 1228 531 
z
" transform="scale(0.015625)"/>
       </defs>
       <use xlink:href="#DejaVuSans-30"/>
       <use xlink:href="#DejaVuSans-2e" x="63.623047"/>
       <use xlink:href="#DejaVuSans-32" x="95.410156"/>
      </g>
     </g>
    </g>
    <g id="xtick_4">
     <g id="line2d_7">
      <path d="M 230.342917 181.42 
L 230.342917 14.76 
" clip-path="url(#p1744675f73)" style="fill: none; stroke: #f0f0f0; stroke-width: 0.8; stroke-linecap: square"/>
     </g>
     <g id="line2d_8">
      <g>
       <use xlink:href="#meb9d76b585" x="230.342917" y="181.42" style="stroke: #000000; stroke-width: 0.8"/>
      </g>
     </g>
     <g id="text_4">
      <!-- 0.3 -->
      <g transform="translate(222.391354 196.018438) scale(0.1 -0.1)">
       <defs>
        <path id="DejaVuSans-33" d="M 2597 2516 
Q 3050 2419 3304 2112 
Q 3559 1806 3559 1356 
Q 3559 666 3084 287 
Q 2609 -91 1734 -91 
Q 1441 -91 1130 -33 
Q 819 25 488 141 
L 488 750 
Q 750 597 1062 519 
Q 1375 441 1716 441 
Q 2309 441 2620 675 
Q 2931 909 2931 1356 
Q 2931 1769 2642 2001 
Q 2353 2234 1838 2234 
L 1294 2234 
L 1294 2753 
L 1863 2753 
Q 2328 2753 2575 2939 
Q 2822 3125 2822 3475 
Q 2822 3834 2567 4026 
Q 2313 4219 1838 4219 
Q 1578 4219 1281 4162 
Q 984 4106 628 3988 
L 628 4550 
Q 988 4650 1302 4700 
Q 1616 4750 1894 4750 
Q 2613 4750 3031 4423 
Q 3450 4097 3450 3541 
Q 3450 3153 3228 2886 
Q 3006 2619 2597 2516 
z
" transform="scale(0.015625)"/>
       </defs>
       <use xlink:href="#DejaVuSans-30"/>
       <use xlink:href="#DejaVuSans-2e" x="63.623047"/>
       <use xlink:href="#DejaVuSans-33" x="95.410156"/>
      </g>
     </g>
    </g>
    <g id="xtick_5">
     <g id="line2d_9">
      <path d="M 284.93048 181.42 
L 284.93048 14.76 
" clip-path="url(#p1744675f73)" style="fill: none; stroke: #f0f0f0; stroke-width: 0.8; stroke-linecap: square"/>
     </g>
     <g id="line2d_10">
      <g>
       <use xlink:href="#meb9d76b585" x="284.93048" y="181.42" style="stroke: #000000; stroke-width: 0.8"/>
      </g>
     </g>
     <g id="text_5">
      <!-- 0.4 -->
      <g transform="translate(276.978917 196.018438) scale(0.1 -0.1)">
       <defs>
        <path id="DejaVuSans-34" d="M 2419 4116 
L 825 1625 
L 2419 1625 
L 2419 4116 
z
M 2253 4666 
L 3047 4666 
L 3047 1625 
L 3713 1625 
L 3713 1100 
L 3047 1100 
L 3047 0 
L 2419 0 
L 2419 1100 
L 313 1100 
L 313 1709 
L 2253 4666 
z
" transform="scale(0.015625)"/>
       </defs>
       <use xlink:href="#DejaVuSans-30"/>
       <use xlink:href="#DejaVuSans-2e" x="63.623047"/>
       <use xlink:href="#DejaVuSans-34" x="95.410156"/>
      </g>
     </g>
    </g>
    <g id="xtick_6">
     <g id="line2d_11">
      <path d="M 339.518043 181.42 
L 339.518043 14.76 
" clip-path="url(#p1744675f73)" style="fill: none; stroke: #f0f0f0; stroke-width: 0.8; stroke-linecap: square"/>
     </g>
     <g id="line2d_12">
      <g>
       <use xlink:href="#meb9d76b585" x="339.518043" y="181.42" style="stroke: #000000; stroke-width: 0.8"/>
      </g>
     </g>
     <g id="text_6">
      <!-- 0.5 -->
      <g transform="translate(331.566481 196.018438) scale(0.1 -0.1)">
       <defs>
        <path id="DejaVuSans-35" d="M 691 4666 
L 3169 4666 
L 3169 4134 
L 1269 4134 
L 1269 2991 
Q 1406 3038 1543 3061 
Q 1681 3084 1819 3084 
Q 2600 3084 3056 2656 
Q 3513 2228 3513 1497 
Q 3513 744 3044 326 
Q 2575 -91 1722 -91 
Q 1428 -91 1123 -41 
Q 819 9 494 109 
L 494 744 
Q 775 591 1075 516 
Q 1375 441 1709 441 
Q 2250 441 2565 725 
Q 2881 1009 2881 1497 
Q 2881 1984 2565 2268 
Q 2250 2553 1709 2553 
Q 1456 2553 1204 2497 
Q 953 2441 691 2322 
L 691 4666 
z
" transform="scale(0.015625)"/>
       </defs>
       <use xlink:href="#DejaVuSans-30"/>
       <use xlink:href="#DejaVuSans-2e" x="63.623047"/>
       <use xlink:href="#DejaVuSans-35" x="95.410156"/>
      </g>
     </g>
    </g>
    <g id="text_7">
     <!-- Normalized Frequency [rad/2π] -->
     <g transform="translate(125.548125 209.696562) scale(0.1 -0.1)">
      <defs>
       <path id="DejaVuSans-4e" d="M 628 4666 
L 1478 4666 
L 3547 763 
L 3547 4666 
L 4159 4666 
L 4159 0 
L 3309 0 
L 1241 3903 
L 1241 0 
L 628 0 
L 628 4666 
z
" transform="scale(0.015625)"/>
       <path id="DejaVuSans-6f" d="M 1959 3097 
Q 1497 3097 1228 2736 
Q 959 2375 959 1747 
Q 959 1119 1226 758 
Q 1494 397 1959 397 
Q 2419 397 2687 759 
Q 2956 1122 2956 1747 
Q 2956 2369 2687 2733 
Q 2419 3097 1959 3097 
z
M 1959 3584 
Q 2709 3584 3137 3096 
Q 3566 2609 3566 1747 
Q 3566 888 3137 398 
Q 2709 -91 1959 -91 
Q 1206 -91 779 398 
Q 353 888 353 1747 
Q 353 2609 779 3096 
Q 1206 3584 1959 3584 
z
" transform="scale(0.015625)"/>
       <path id="DejaVuSans-72" d="M 2631 2963 
Q 2534 3019 2420 3045 
Q 2306 3072 2169 3072 
Q 1681 3072 1420 2755 
Q 1159 2438 1159 1844 
L 1159 0 
L 581 0 
L 581 3500 
L 1159 3500 
L 1159 2956 
Q 1341 3275 1631 3429 
Q 1922 3584 2338 3584 
Q 2397 3584 2469 3576 
Q 2541 3569 2628 3553 
L 2631 2963 
z
" transform="scale(0.015625)"/>
       <path id="DejaVuSans-6d" d="M 3328 2828 
Q 3544 3216 3844 3400 
Q 4144 3584 4550 3584 
Q 5097 3584 5394 3201 
Q 5691 2819 5691 2113 
L 5691 0 
L 5113 0 
L 5113 2094 
Q 5113 2597 4934 2840 
Q 4756 3084 4391 3084 
Q 3944 3084 3684 2787 
Q 3425 2491 3425 1978 
L 3425 0 
L 2847 0 
L 2847 2094 
Q 2847 2600 2669 2842 
Q 2491 3084 2119 3084 
Q 1678 3084 1418 2786 
Q 1159 2488 1159 1978 
L 1159 0 
L 581 0 
L 581 3500 
L 1159 3500 
L 1159 2956 
Q 1356 3278 1631 3431 
Q 1906 3584 2284 3584 
Q 2666 3584 2933 3390 
Q 3200 3197 3328 2828 
z
" transform="scale(0.015625)"/>
       <path id="DejaVuSans-61" d="M 2194 1759 
Q 1497 1759 1228 1600 
Q 959 1441 959 1056 
Q 959 750 1161 570 
Q 1363 391 1709 391 
Q 2188 391 2477 730 
Q 2766 1069 2766 1631 
L 2766 1759 
L 2194 1759 
z
M 3341 1997 
L 3341 0 
L 2766 0 
L 2766 531 
Q 2569 213 2275 61 
Q 1981 -91 1556 -91 
Q 1019 -91 701 211 
Q 384 513 384 1019 
Q 384 1609 779 1909 
Q 1175 2209 1959 2209 
L 2766 2209 
L 2766 2266 
Q 2766 2663 2505 2880 
Q 2244 3097 1772 3097 
Q 1472 3097 1187 3025 
Q 903 2953 641 2809 
L 641 3341 
Q 956 3463 1253 3523 
Q 1550 3584 1831 3584 
Q 2591 3584 2966 3190 
Q 3341 2797 3341 1997 
z
" transform="scale(0.015625)"/>
       <path id="DejaVuSans-6c" d="M 603 4863 
L 1178 4863 
L 1178 0 
L 603 0 
L 603 4863 
z
" transform="scale(0.015625)"/>
       <path id="DejaVuSans-69" d="M 603 3500 
L 1178 3500 
L 1178 0 
L 603 0 
L 603 3500 
z
M 603 4863 
L 1178 4863 
L 1178 4134 
L 603 4134 
L 603 4863 
z
" transform="scale(0.015625)"/>
       <path id="DejaVuSans-7a" d="M 353 3500 
L 3084 3500 
L 3084 2975 
L 922 459 
L 3084 459 
L 3084 0 
L 275 0 
L 275 525 
L 2438 3041 
L 353 3041 
L 353 3500 
z
" transform="scale(0.015625)"/>
       <path id="DejaVuSans-65" d="M 3597 1894 
L 3597 1613 
L 953 1613 
Q 991 1019 1311 708 
Q 1631 397 2203 397 
Q 2534 397 2845 478 
Q 3156 559 3463 722 
L 3463 178 
Q 3153 47 2828 -22 
Q 2503 -91 2169 -91 
Q 1331 -91 842 396 
Q 353 884 353 1716 
Q 353 2575 817 3079 
Q 1281 3584 2069 3584 
Q 2775 3584 3186 3129 
Q 3597 2675 3597 1894 
z
M 3022 2063 
Q 3016 2534 2758 2815 
Q 2500 3097 2075 3097 
Q 1594 3097 1305 2825 
Q 1016 2553 972 2059 
L 3022 2063 
z
" transform="scale(0.015625)"/>
       <path id="DejaVuSans-64" d="M 2906 2969 
L 2906 4863 
L 3481 4863 
L 3481 0 
L 2906 0 
L 2906 525 
Q 2725 213 2448 61 
Q 2172 -91 1784 -91 
Q 1150 -91 751 415 
Q 353 922 353 1747 
Q 353 2572 751 3078 
Q 1150 3584 1784 3584 
Q 2172 3584 2448 3432 
Q 2725 3281 2906 2969 
z
M 947 1747 
Q 947 1113 1208 752 
Q 1469 391 1925 391 
Q 2381 391 2643 752 
Q 2906 1113 2906 1747 
Q 2906 2381 2643 2742 
Q 2381 3103 1925 3103 
Q 1469 3103 1208 2742 
Q 947 2381 947 1747 
z
" transform="scale(0.015625)"/>
       <path id="DejaVuSans-20" transform="scale(0.015625)"/>
       <path id="DejaVuSans-46" d="M 628 4666 
L 3309 4666 
L 3309 4134 
L 1259 4134 
L 1259 2759 
L 3109 2759 
L 3109 2228 
L 1259 2228 
L 1259 0 
L 628 0 
L 628 4666 
z
" transform="scale(0.015625)"/>
       <path id="DejaVuSans-71" d="M 947 1747 
Q 947 1113 1208 752 
Q 1469 391 1925 391 
Q 2381 391 2643 752 
Q 2906 1113 2906 1747 
Q 2906 2381 2643 2742 
Q 2381 3103 1925 3103 
Q 1469 3103 1208 2742 
Q 947 2381 947 1747 
z
M 2906 525 
Q 2725 213 2448 61 
Q 2172 -91 1784 -91 
Q 1150 -91 751 415 
Q 353 922 353 1747 
Q 353 2572 751 3078 
Q 1150 3584 1784 3584 
Q 2172 3584 2448 3432 
Q 2725 3281 2906 2969 
L 2906 3500 
L 3481 3500 
L 3481 -1331 
L 2906 -1331 
L 2906 525 
z
" transform="scale(0.015625)"/>
       <path id="DejaVuSans-75" d="M 544 1381 
L 544 3500 
L 1119 3500 
L 1119 1403 
Q 1119 906 1312 657 
Q 1506 409 1894 409 
Q 2359 409 2629 706 
Q 2900 1003 2900 1516 
L 2900 3500 
L 3475 3500 
L 3475 0 
L 2900 0 
L 2900 538 
Q 2691 219 2414 64 
Q 2138 -91 1772 -91 
Q 1169 -91 856 284 
Q 544 659 544 1381 
z
M 1991 3584 
L 1991 3584 
z
" transform="scale(0.015625)"/>
       <path id="DejaVuSans-6e" d="M 3513 2113 
L 3513 0 
L 2938 0 
L 2938 2094 
Q 2938 2591 2744 2837 
Q 2550 3084 2163 3084 
Q 1697 3084 1428 2787 
Q 1159 2491 1159 1978 
L 1159 0 
L 581 0 
L 581 3500 
L 1159 3500 
L 1159 2956 
Q 1366 3272 1645 3428 
Q 1925 3584 2291 3584 
Q 2894 3584 3203 3211 
Q 3513 2838 3513 2113 
z
" transform="scale(0.015625)"/>
       <path id="DejaVuSans-63" d="M 3122 3366 
L 3122 2828 
Q 2878 2963 2633 3030 
Q 2388 3097 2138 3097 
Q 1578 3097 1268 2742 
Q 959 2388 959 1747 
Q 959 1106 1268 751 
Q 1578 397 2138 397 
Q 2388 397 2633 464 
Q 2878 531 3122 666 
L 3122 134 
Q 2881 22 2623 -34 
Q 2366 -91 2075 -91 
Q 1284 -91 818 406 
Q 353 903 353 1747 
Q 353 2603 823 3093 
Q 1294 3584 2113 3584 
Q 2378 3584 2631 3529 
Q 2884 3475 3122 3366 
z
" transform="scale(0.015625)"/>
       <path id="DejaVuSans-79" d="M 2059 -325 
Q 1816 -950 1584 -1140 
Q 1353 -1331 966 -1331 
L 506 -1331 
L 506 -850 
L 844 -850 
Q 1081 -850 1212 -737 
Q 1344 -625 1503 -206 
L 1606 56 
L 191 3500 
L 800 3500 
L 1894 763 
L 2988 3500 
L 3597 3500 
L 2059 -325 
z
" transform="scale(0.015625)"/>
       <path id="DejaVuSans-5b" d="M 550 4863 
L 1875 4863 
L 1875 4416 
L 1125 4416 
L 1125 -397 
L 1875 -397 
L 1875 -844 
L 550 -844 
L 550 4863 
z
" transform="scale(0.015625)"/>
       <path id="DejaVuSans-2f" d="M 1625 4666 
L 2156 4666 
L 531 -594 
L 0 -594 
L 1625 4666 
z
" transform="scale(0.015625)"/>
       <path id="DejaVuSans-3c0" d="M 231 3500 
L 3584 3500 
L 3584 2925 
L 3144 2925 
L 3144 775 
Q 3144 550 3220 451 
Q 3297 353 3469 353 
Q 3516 353 3584 361 
Q 3653 369 3675 372 
L 3675 -44 
Q 3566 -84 3450 -103 
Q 3334 -122 3219 -122 
Q 2844 -122 2700 83 
Q 2556 288 2556 838 
L 2556 2925 
L 1266 2925 
L 1266 0 
L 678 0 
L 678 2925 
L 231 2925 
L 231 3500 
z
" transform="scale(0.015625)"/>
       <path id="DejaVuSans-5d" d="M 1947 4863 
L 1947 -844 
L 622 -844 
L 622 -397 
L 1369 -397 
L 1369 4416 
L 622 4416 
L 622 4863 
L 1947 4863 
z
" transform="scale(0.015625)"/>
      </defs>
      <use xlink:href="#DejaVuSans-4e"/>
      <use xlink:href="#DejaVuSans-6f" x="74.804688"/>
      <use xlink:href="#DejaVuSans-72" x="135.986328"/>
      <use xlink:href="#DejaVuSans-6d" x="175.349609"/>
      <use xlink:href="#DejaVuSans-61" x="272.761719"/>
      <use xlink:href="#DejaVuSans-6c" x="334.041016"/>
      <use xlink:href="#DejaVuSans-69" x="361.824219"/>
      <use xlink:href="#DejaVuSans-7a" x="389.607422"/>
      <use xlink:href="#DejaVuSans-65" x="442.097656"/>
      <use xlink:href="#DejaVuSans-64" x="503.621094"/>
      <use xlink:href="#DejaVuSans-20" x="567.097656"/>
      <use xlink:href="#DejaVuSans-46" x="598.884766"/>
      <use xlink:href="#DejaVuSans-72" x="649.154297"/>
      <use xlink:href="#DejaVuSans-65" x="688.017578"/>
      <use xlink:href="#DejaVuSans-71" x="749.541016"/>
      <use xlink:href="#DejaVuSans-75" x="813.017578"/>
      <use xlink:href="#DejaVuSans-65" x="876.396484"/>
      <use xlink:href="#DejaVuSans-6e" x="937.919922"/>
      <use xlink:href="#DejaVuSans-63" x="1001.298828"/>
      <use xlink:href="#DejaVuSans-79" x="1056.279297"/>
      <use xlink:href="#DejaVuSans-20" x="1115.458984"/>
      <use xlink:href="#DejaVuSans-5b" x="1147.246094"/>
      <use xlink:href="#DejaVuSans-72" x="1186.259766"/>
      <use xlink:href="#DejaVuSans-61" x="1227.373047"/>
      <use xlink:href="#DejaVuSans-64" x="1288.652344"/>
      <use xlink:href="#DejaVuSans-2f" x="1352.128906"/>
      <use xlink:href="#DejaVuSans-32" x="1385.820312"/>
      <use xlink:href="#DejaVuSans-3c0" x="1449.443359"/>
      <use xlink:href="#DejaVuSans-5d" x="1509.648438"/>
     </g>
    </g>
   </g>
   <g id="matplotlib.axis_2">
    <g id="ytick_1">
     <g id="line2d_13">
      <path d="M 52.94 181.42 
L 353.025 181.42 
" clip-path="url(#p1744675f73)" style="fill: none; stroke: #f0f0f0; stroke-width: 0.8; stroke-linecap: square"/>
     </g>
     <g id="line2d_14">
      <defs>
       <path id="mc4a0405879" d="M 0 0 
L -3.5 0 
" style="stroke: #000000; stroke-width: 0.8"/>
      </defs>
      <g>
       <use xlink:href="#mc4a0405879" x="52.94" y="181.42" style="stroke: #000000; stroke-width: 0.8"/>
      </g>
     </g>
     <g id="text_8">
      <!-- −60 -->
      <g transform="translate(24.835313 185.219219) scale(0.1 -0.1)">
       <defs>
        <path id="DejaVuSans-2212" d="M 678 2272 
L 4684 2272 
L 4684 1741 
L 678 1741 
L 678 2272 
z
" transform="scale(0.015625)"/>
        <path id="DejaVuSans-36" d="M 2113 2584 
Q 1688 2584 1439 2293 
Q 1191 2003 1191 1497 
Q 1191 994 1439 701 
Q 1688 409 2113 409 
Q 2538 409 2786 701 
Q 3034 994 3034 1497 
Q 3034 2003 2786 2293 
Q 2538 2584 2113 2584 
z
M 3366 4563 
L 3366 3988 
Q 3128 4100 2886 4159 
Q 2644 4219 2406 4219 
Q 1781 4219 1451 3797 
Q 1122 3375 1075 2522 
Q 1259 2794 1537 2939 
Q 1816 3084 2150 3084 
Q 2853 3084 3261 2657 
Q 3669 2231 3669 1497 
Q 3669 778 3244 343 
Q 2819 -91 2113 -91 
Q 1303 -91 875 529 
Q 447 1150 447 2328 
Q 447 3434 972 4092 
Q 1497 4750 2381 4750 
Q 2619 4750 2861 4703 
Q 3103 4656 3366 4563 
z
" transform="scale(0.015625)"/>
       </defs>
       <use xlink:href="#DejaVuSans-2212"/>
       <use xlink:href="#DejaVuSans-36" x="83.789062"/>
       <use xlink:href="#DejaVuSans-30" x="147.412109"/>
      </g>
     </g>
    </g>
    <g id="ytick_2">
     <g id="line2d_15">
      <path d="M 52.94 157.611429 
L 353.025 157.611429 
" clip-path="url(#p1744675f73)" style="fill: none; stroke: #f0f0f0; stroke-width: 0.8; stroke-linecap: square"/>
     </g>
     <g id="line2d_16">
      <g>
       <use xlink:href="#mc4a0405879" x="52.94" y="157.611429" style="stroke: #000000; stroke-width: 0.8"/>
      </g>
     </g>
     <g id="text_9">
      <!-- −50 -->
      <g transform="translate(24.835313 161.410647) scale(0.1 -0.1)">
       <use xlink:href="#DejaVuSans-2212"/>
       <use xlink:href="#DejaVuSans-35" x="83.789062"/>
       <use xlink:href="#DejaVuSans-30" x="147.412109"/>
      </g>
     </g>
    </g>
    <g id="ytick_3">
     <g id="line2d_17">
      <path d="M 52.94 133.802857 
L 353.025 133.802857 
" clip-path="url(#p1744675f73)" style="fill: none; stroke: #f0f0f0; stroke-width: 0.8; stroke-linecap: square"/>
     </g>
     <g id="line2d_18">
      <g>
       <use xlink:href="#mc4a0405879" x="52.94" y="133.802857" style="stroke: #000000; stroke-width: 0.8"/>
      </g>
     </g>
     <g id="text_10">
      <!-- −40 -->
      <g transform="translate(24.835313 137.602076) scale(0.1 -0.1)">
       <use xlink:href="#DejaVuSans-2212"/>
       <use xlink:href="#DejaVuSans-34" x="83.789062"/>
       <use xlink:href="#DejaVuSans-30" x="147.412109"/>
      </g>
     </g>
    </g>
    <g id="ytick_4">
     <g id="line2d_19">
      <path d="M 52.94 109.994286 
L 353.025 109.994286 
" clip-path="url(#p1744675f73)" style="fill: none; stroke: #f0f0f0; stroke-width: 0.8; stroke-linecap: square"/>
     </g>
     <g id="line2d_20">
      <g>
       <use xlink:href="#mc4a0405879" x="52.94" y="109.994286" style="stroke: #000000; stroke-width: 0.8"/>
      </g>
     </g>
     <g id="text_11">
      <!-- −30 -->
      <g transform="translate(24.835313 113.793504) scale(0.1 -0.1)">
       <use xlink:href="#DejaVuSans-2212"/>
       <use xlink:href="#DejaVuSans-33" x="83.789062"/>
       <use xlink:href="#DejaVuSans-30" x="147.412109"/>
      </g>
     </g>
    </g>
    <g id="ytick_5">
     <g id="line2d_21">
      <path d="M 52.94 86.185714 
L 353.025 86.185714 
" clip-path="url(#p1744675f73)" style="fill: none; stroke: #f0f0f0; stroke-width: 0.8; stroke-linecap: square"/>
     </g>
     <g id="line2d_22">
      <g>
       <use xlink:href="#mc4a0405879" x="52.94" y="86.185714" style="stroke: #000000; stroke-width: 0.8"/>
      </g>
     </g>
     <g id="text_12">
      <!-- −20 -->
      <g transform="translate(24.835313 89.984933) scale(0.1 -0.1)">
       <use xlink:href="#DejaVuSans-2212"/>
       <use xlink:href="#DejaVuSans-32" x="83.789062"/>
       <use xlink:href="#DejaVuSans-30" x="147.412109"/>
      </g>
     </g>
    </g>
    <g id="ytick_6">
     <g id="line2d_23">
      <path d="M 52.94 62.377143 
L 353.025 62.377143 
" clip-path="url(#p1744675f73)" style="fill: none; stroke: #f0f0f0; stroke-width: 0.8; stroke-linecap: square"/>
     </g>
     <g id="line2d_24">
      <g>
       <use xlink:href="#mc4a0405879" x="52.94" y="62.377143" style="stroke: #000000; stroke-width: 0.8"/>
      </g>
     </g>
     <g id="text_13">
      <!-- −10 -->
      <g transform="translate(24.835313 66.176362) scale(0.1 -0.1)">
       <use xlink:href="#DejaVuSans-2212"/>
       <use xlink:href="#DejaVuSans-31" x="83.789062"/>
       <use xlink:href="#DejaVuSans-30" x="147.412109"/>
      </g>
     </g>
    </g>
    <g id="ytick_7">
     <g id="line2d_25">
      <path d="M 52.94 38.568571 
L 353.025 38.568571 
" clip-path="url(#p1744675f73)" style="fill: none; stroke: #f0f0f0; stroke-width: 0.8; stroke-linecap: square"/>
     </g>
     <g id="line2d_26">
      <g>
       <use xlink:href="#mc4a0405879" x="52.94" y="38.568571" style="stroke: #000000; stroke-width: 0.8"/>
      </g>
     </g>
     <g id="text_14">
      <!-- 0 -->
      <g transform="translate(39.5775 42.36779) scale(0.1 -0.1)">
       <use xlink:href="#DejaVuSans-30"/>
      </g>
     </g>
    </g>
    <g id="ytick_8">
     <g id="line2d_27">
      <path d="M 52.94 14.76 
L 353.025 14.76 
" clip-path="url(#p1744675f73)" style="fill: none; stroke: #f0f0f0; stroke-width: 0.8; stroke-linecap: square"/>
     </g>
     <g id="line2d_28">
      <g>
       <use xlink:href="#mc4a0405879" x="52.94" y="14.76" style="stroke: #000000; stroke-width: 0.8"/>
      </g>
     </g>
     <g id="text_15">
      <!-- 10 -->
      <g transform="translate(33.215 18.559219) scale(0.1 -0.1)">
       <use xlink:href="#DejaVuSans-31"/>
       <use xlink:href="#DejaVuSans-30" x="63.623047"/>
      </g>
     </g>
    </g>
    <g id="text_16">
     <!-- Gain [dB] -->
     <g transform="translate(18.755625 121.681406) rotate(-90) scale(0.1 -0.1)">
      <defs>
       <path id="DejaVuSans-47" d="M 3809 666 
L 3809 1919 
L 2778 1919 
L 2778 2438 
L 4434 2438 
L 4434 434 
Q 4069 175 3628 42 
Q 3188 -91 2688 -91 
Q 1594 -91 976 548 
Q 359 1188 359 2328 
Q 359 3472 976 4111 
Q 1594 4750 2688 4750 
Q 3144 4750 3555 4637 
Q 3966 4525 4313 4306 
L 4313 3634 
Q 3963 3931 3569 4081 
Q 3175 4231 2741 4231 
Q 1884 4231 1454 3753 
Q 1025 3275 1025 2328 
Q 1025 1384 1454 906 
Q 1884 428 2741 428 
Q 3075 428 3337 486 
Q 3600 544 3809 666 
z
" transform="scale(0.015625)"/>
       <path id="DejaVuSans-42" d="M 1259 2228 
L 1259 519 
L 2272 519 
Q 2781 519 3026 730 
Q 3272 941 3272 1375 
Q 3272 1813 3026 2020 
Q 2781 2228 2272 2228 
L 1259 2228 
z
M 1259 4147 
L 1259 2741 
L 2194 2741 
Q 2656 2741 2882 2914 
Q 3109 3088 3109 3444 
Q 3109 3797 2882 3972 
Q 2656 4147 2194 4147 
L 1259 4147 
z
M 628 4666 
L 2241 4666 
Q 2963 4666 3353 4366 
Q 3744 4066 3744 3513 
Q 3744 3084 3544 2831 
Q 3344 2578 2956 2516 
Q 3422 2416 3680 2098 
Q 3938 1781 3938 1306 
Q 3938 681 3513 340 
Q 3088 0 2303 0 
L 628 0 
L 628 4666 
z
" transform="scale(0.015625)"/>
      </defs>
      <use xlink:href="#DejaVuSans-47"/>
      <use xlink:href="#DejaVuSans-61" x="77.490234"/>
      <use xlink:href="#DejaVuSans-69" x="138.769531"/>
      <use xlink:href="#DejaVuSans-6e" x="166.552734"/>
      <use xlink:href="#DejaVuSans-20" x="229.931641"/>
      <use xlink:href="#DejaVuSans-5b" x="261.71875"/>
      <use xlink:href="#DejaVuSans-64" x="300.732422"/>
      <use xlink:href="#DejaVuSans-42" x="364.208984"/>
      <use xlink:href="#DejaVuSans-5d" x="432.8125"/>
     </g>
    </g>
   </g>
   <g id="line2d_29">
    <path d="M 66.580227 38.775106 
L 69.512176 38.665538 
L 75.509345 38.365315 
L 78.574565 38.509289 
L 83.638841 38.779157 
L 86.57079 38.666935 
L 92.567959 38.357268 
L 95.633178 38.507772 
L 100.697454 38.792141 
L 103.496133 38.682078 
L 109.626572 38.33948 
L 112.558521 38.492632 
L 117.756068 38.817006 
L 120.421476 38.704487 
L 126.685186 38.307603 
L 129.350594 38.458674 
L 134.814681 38.860701 
L 137.213549 38.751098 
L 144.01034 38.25767 
L 146.409208 38.437013 
L 151.740024 38.93978 
L 153.872351 38.840525 
L 156.937571 38.431534 
L 159.602979 38.158134 
L 161.602035 38.181729 
L 163.734362 38.439565 
L 168.398827 39.096345 
L 170.131342 39.052735 
L 171.997128 38.77487 
L 176.928133 37.898426 
L 178.527378 37.939132 
L 180.126623 38.214667 
L 182.39222 38.877188 
L 184.657818 39.481505 
L 185.990522 39.605707 
L 187.189955 39.494381 
L 188.389389 39.163741 
L 189.988634 38.458605 
L 192.920583 37.084356 
L 193.986747 36.828589 
L 194.91964 36.814549 
L 195.719262 36.998221 
L 196.518885 37.394193 
L 197.318507 38.031775 
L 198.11813 38.940679 
L 199.051023 40.386127 
L 199.983916 42.30011 
L 200.916809 44.750791 
L 201.849701 47.826487 
L 202.782594 51.649701 
L 203.715487 56.403472 
L 204.64838 62.387231 
L 205.448003 68.902414 
L 206.247625 77.429874 
L 206.913977 87.278927 
L 207.447059 98.995118 
L 207.84687 113.769564 
L 208.113411 134.544746 
L 208.246682 169.349651 
L 208.513222 128.504442 
L 208.779763 113.807913 
L 209.179574 103.231023 
L 209.712656 95.860269 
L 210.245738 91.789177 
L 210.778819 89.548942 
L 211.178631 88.707723 
L 211.445172 88.473023 
L 211.711712 88.472436 
L 211.978253 88.691727 
L 212.378064 89.416375 
L 212.777876 90.61228 
L 213.310957 92.97674 
L 213.844039 96.345651 
L 214.377121 100.999748 
L 214.910202 107.539928 
L 215.443284 117.485188 
L 215.843095 130.190272 
L 216.109636 146.808729 
L 216.376177 180.381014 
L 216.642718 140.629895 
L 217.042529 124.308478 
L 217.44234 115.995034 
L 217.975422 109.340124 
L 218.508504 105.261568 
L 219.041585 102.760054 
L 219.441397 101.64752 
L 219.841208 101.078699 
L 220.107749 100.973554 
L 220.37429 101.076554 
L 220.774101 101.613239 
L 221.173912 102.613454 
L 221.706994 104.717567 
L 222.240075 107.840961 
L 222.773157 112.284181 
L 223.306239 118.688398 
L 223.70605 125.677738 
L 224.105861 136.568632 
L 224.372402 149.369414 
L 224.505672 160.817592 
L 224.638943 188.143472 
L 225.305295 136.454478 
L 225.705106 126.797937 
L 226.238188 119.211277 
L 226.77127 114.507621 
L 227.304351 111.502553 
L 227.837433 109.697354 
L 228.237244 108.980602 
L 228.503785 108.774119 
L 228.770326 108.773948 
L 229.036867 108.975932 
L 229.436678 109.658943 
L 229.836489 110.815075 
L 230.369571 113.169404 
L 230.902653 116.642373 
L 231.435734 121.641348 
L 231.968816 129.084384 
L 232.368627 137.718574 
L 232.635168 146.655407 
L 232.901709 162.764484 
L 233.16825 199.508878 
L 233.43479 157.065334 
L 233.834602 140.204599 
L 234.367683 129.392803 
L 234.900765 123.095833 
L 235.433847 119.051191 
L 235.966928 116.452586 
L 236.50001 114.933595 
L 236.899821 114.390292 
L 237.166362 114.2888 
L 237.432903 114.389293 
L 237.832714 114.917644 
L 238.232526 115.912866 
L 238.765607 118.034064 
L 239.298689 121.233984 
L 239.831771 125.877841 
L 240.364852 132.768493 
L 240.764663 140.617523 
L 241.164475 153.914545 
L 241.431016 173.125554 
L 241.564286 202.911387 
L 241.964097 158.588712 
L 242.363908 143.496858 
L 242.89699 133.262907 
L 243.430072 127.170933 
L 243.963154 123.215985 
L 244.496235 120.657904 
L 245.029317 119.155345 
L 245.429128 118.616039 
L 245.695669 118.515078 
L 245.96221 118.615267 
L 246.362021 119.143037 
L 246.761832 120.139506 
L 247.294914 122.269775 
L 247.827996 125.495914 
L 248.361077 130.201671 
L 248.894159 137.239026 
L 249.29397 145.354079 
L 249.693781 159.47303 
L 249.960322 181.65544 
L 250.093593 247.729282 
L 250.360134 168.8153 
L 250.759945 149.926067 
L 251.159756 140.619608 
L 251.692838 133.077581 
L 252.225919 128.27473 
L 252.759001 125.115912 
L 253.292083 123.131415 
L 253.691894 122.270923 
L 254.091705 121.890166 
L 254.358246 121.89009 
L 254.624787 122.090263 
L 255.024598 122.771661 
L 255.424409 123.934159 
L 255.957491 126.325467 
L 256.490573 129.900102 
L 257.023654 135.137798 
L 257.556736 143.163414 
L 257.956547 152.936722 
L 258.223088 163.89861 
L 258.489629 188.999443 
L 258.622899 224.363822 
L 258.88944 169.853617 
L 259.289252 152.117401 
L 259.822333 140.885446 
L 260.355415 134.312503 
L 260.888497 130.035817 
L 261.421578 127.223911 
L 261.95466 125.500512 
L 262.354471 124.806473 
L 262.754282 124.579711 
L 263.020823 124.679661 
L 263.287364 124.980465 
L 263.687175 125.819151 
L 264.086987 127.154866 
L 264.620068 129.824439 
L 265.15315 133.78104 
L 265.686232 139.625801 
L 266.086043 146.074467 
L 266.485854 156.086455 
L 266.752395 167.513323 
L 266.885665 177.102217 
L 267.152206 212.600566 
L 267.418747 170.900204 
L 267.818558 153.957229 
L 268.35164 142.96552 
L 268.884722 136.475953 
L 269.417803 132.23558 
L 269.950885 129.440147 
L 270.483967 127.723545 
L 270.883778 127.031273 
L 271.283589 126.804872 
L 271.55013 126.904776 
L 271.816671 127.205616 
L 272.216482 128.045122 
L 272.616293 129.383546 
L 273.149375 132.06234 
L 273.682457 136.040569 
L 274.215538 141.934515 
L 274.61535 148.46482 
L 275.015161 158.680054 
L 275.281702 170.515493 
L 275.414972 180.691871 
L 275.681513 207.625422 
L 275.948054 171.841661 
L 276.347865 155.487083 
L 276.880947 144.681534 
L 277.414028 138.257445 
L 277.94711 134.04569 
L 278.480192 131.263217 
L 279.013273 129.55192 
L 279.413085 128.861001 
L 279.812896 128.634866 
L 280.079437 128.734745 
L 280.345978 129.035656 
L 280.745789 129.87595 
L 281.1456 131.216801 
L 281.678682 133.903646 
L 282.211763 137.900566 
L 282.744845 143.836939 
L 283.144656 150.437938 
L 283.544468 160.831304 
L 283.811008 173.034882 
L 283.944279 183.765702 
L 284.077549 207.396796 
L 284.21082 204.817676 
L 284.477361 172.634649 
L 284.877172 156.741424 
L 285.410253 146.086806 
L 285.943335 139.716363 
L 286.476417 135.528115 
L 287.009498 132.756267 
L 287.54258 131.049286 
L 287.942391 130.359448 
L 288.342203 130.133519 
L 288.608744 130.233385 
L 288.875284 130.534384 
L 289.275096 131.375433 
L 289.674907 132.718496 
L 290.207989 135.41254 
L 290.74107 139.426044 
L 291.274152 145.400022 
L 291.673963 152.063903 
L 292.073774 162.617433 
L 292.340315 175.160414 
L 292.473586 186.425051 
L 292.606856 213.137227 
L 292.740126 202.950621 
L 293.006667 173.262543 
L 293.406479 157.747103 
L 293.93956 147.219448 
L 294.472642 140.894519 
L 295.005724 136.726253 
L 295.538805 133.96342 
L 296.071887 132.260073 
L 296.471698 131.57113 
L 296.871509 131.345364 
L 297.13805 131.445227 
L 297.404591 131.746325 
L 297.804402 132.5881 
L 298.204214 133.933215 
L 298.737295 136.633841 
L 299.270377 140.662417 
L 299.803459 146.670545 
L 300.20327 153.391725 
L 300.603081 164.092637 
L 300.869622 176.955267 
L 301.002892 188.743935 
L 301.136163 219.106073 
L 301.535974 173.719281 
L 301.935785 158.524379 
L 302.468867 148.106898 
L 303.001949 141.821751 
L 303.53503 137.670977 
L 304.068112 134.916017 
L 304.601194 133.215823 
L 305.001005 132.527643 
L 305.400816 132.30201 
L 305.667357 132.401875 
L 305.933898 132.703081 
L 306.333709 133.545562 
L 306.73352 134.892617 
L 307.266602 137.599385 
L 307.799684 141.641963 
L 308.332765 147.681802 
L 308.732577 154.45636 
L 309.132388 165.295832 
L 309.398929 178.465639 
L 309.532199 190.778693 
L 309.66547 225.706877 
L 309.93201 183.200856 
L 310.331822 162.922137 
L 310.731633 153.186047 
L 311.264715 145.30573 
L 311.797796 140.246587 
L 312.330878 136.863404 
L 312.86396 134.669494 
L 313.397041 133.428134 
L 313.796852 133.050897 
L 314.063393 133.050882 
L 314.329934 133.251035 
L 314.729745 133.935506 
L 315.129557 135.109845 
L 315.662638 137.543868 
L 316.19572 141.220581 
L 316.728802 146.688251 
L 317.128613 152.699258 
L 317.528424 161.868783 
L 317.794965 171.89032 
L 318.061506 192.574131 
L 318.194776 233.689677 
L 318.461317 183.034935 
L 318.861128 163.234311 
L 319.26094 153.603741 
L 319.794021 145.775548 
L 320.327103 140.737939 
L 320.860185 137.364483 
L 321.393266 135.174755 
L 321.926348 133.934814 
L 322.326159 133.557786 
L 322.5927 133.557776 
L 322.859241 133.757979 
L 323.259052 134.4429 
L 323.658863 135.618613 
L 324.191945 138.057191 
L 324.725027 141.744425 
L 325.258108 147.235615 
L 325.65792 153.284665 
L 326.057731 162.544101 
L 326.324272 172.728265 
L 326.590813 194.167777 
L 326.724083 244.923778 
L 326.990624 182.720343 
L 327.390435 163.352747 
L 327.923517 151.503122 
L 328.456598 144.589035 
L 328.98968 140.052269 
L 329.522762 137.014167 
L 330.055843 135.080893 
L 330.455655 134.234838 
L 330.855466 133.857996 
L 331.122007 133.857991 
L 331.388548 134.05825 
L 331.788359 134.743633 
L 332.18817 135.920721 
L 332.721252 138.363809 
L 333.254334 142.061418 
L 333.787415 147.575783 
L 334.187226 153.662397 
L 334.587038 163.011131 
L 334.853579 173.358775 
L 335.120119 195.593187 
L 335.25339 267.974366 
L 335.519931 182.245183 
L 335.919742 163.278942 
L 336.452824 151.538853 
L 336.985905 144.661614 
L 337.518987 140.140704 
L 338.052069 137.109744 
L 338.58515 135.179396 
L 338.984961 134.3341 
L 339.384773 133.957426 
L 339.384773 133.957426 
" clip-path="url(#p1744675f73)" style="fill: none; stroke: #000000; stroke-width: 1.5; stroke-linecap: square"/>
   </g>
   <g id="line2d_30">
    <path d="M 203.049135 181.42 
L 203.049135 14.76 
" clip-path="url(#p1744675f73)" style="fill: none; stroke: #ff0000; stroke-opacity: 0.5; stroke-width: 1.5; stroke-linecap: square"/>
   </g>
   <g id="patch_3">
    <path d="M 52.94 181.42 
L 52.94 14.76 
" style="fill: none; stroke: #000000; stroke-width: 0.8; stroke-linejoin: miter; stroke-linecap: square"/>
   </g>
   <g id="patch_4">
    <path d="M 353.025 181.42 
L 353.025 14.76 
" style="fill: none; stroke: #000000; stroke-width: 0.8; stroke-linejoin: miter; stroke-linecap: square"/>
   </g>
   <g id="patch_5">
    <path d="M 52.94 181.42 
L 353.025 181.42 
" style="fill: none; stroke: #000000; stroke-width: 0.8; stroke-linejoin: miter; stroke-linecap: square"/>
   </g>
   <g id="patch_6">
    <path d="M 52.94 14.76 
L 353.025 14.76 
" style="fill: none; stroke: #000000; stroke-width: 0.8; stroke-linejoin: miter; stroke-linecap: square"/>
   </g>
   <g id="legend_1">
    <g id="patch_7">
     <path d="M 260.753125 37.438125 
L 346.025 37.438125 
Q 348.025 37.438125 348.025 35.438125 
L 348.025 21.76 
Q 348.025 19.76 346.025 19.76 
L 260.753125 19.76 
Q 258.753125 19.76 258.753125 21.76 
L 258.753125 35.438125 
Q 258.753125 37.438125 260.753125 37.438125 
z
" style="fill: #ffffff; opacity: 0.8; stroke: #cccccc; stroke-linejoin: miter"/>
    </g>
    <g id="line2d_31">
     <path d="M 262.753125 27.858438 
L 272.753125 27.858438 
L 282.753125 27.858438 
" style="fill: none; stroke: #ff0000; stroke-opacity: 0.5; stroke-width: 1.5; stroke-linecap: square"/>
    </g>
    <g id="text_17">
     <!-- Cutoff Low -->
     <g transform="translate(290.753125 31.358438) scale(0.1 -0.1)">
      <defs>
       <path id="DejaVuSans-43" d="M 4122 4306 
L 4122 3641 
Q 3803 3938 3442 4084 
Q 3081 4231 2675 4231 
Q 1875 4231 1450 3742 
Q 1025 3253 1025 2328 
Q 1025 1406 1450 917 
Q 1875 428 2675 428 
Q 3081 428 3442 575 
Q 3803 722 4122 1019 
L 4122 359 
Q 3791 134 3420 21 
Q 3050 -91 2638 -91 
Q 1578 -91 968 557 
Q 359 1206 359 2328 
Q 359 3453 968 4101 
Q 1578 4750 2638 4750 
Q 3056 4750 3426 4639 
Q 3797 4528 4122 4306 
z
" transform="scale(0.015625)"/>
       <path id="DejaVuSans-74" d="M 1172 4494 
L 1172 3500 
L 2356 3500 
L 2356 3053 
L 1172 3053 
L 1172 1153 
Q 1172 725 1289 603 
Q 1406 481 1766 481 
L 2356 481 
L 2356 0 
L 1766 0 
Q 1100 0 847 248 
Q 594 497 594 1153 
L 594 3053 
L 172 3053 
L 172 3500 
L 594 3500 
L 594 4494 
L 1172 4494 
z
" transform="scale(0.015625)"/>
       <path id="DejaVuSans-66" d="M 2375 4863 
L 2375 4384 
L 1825 4384 
Q 1516 4384 1395 4259 
Q 1275 4134 1275 3809 
L 1275 3500 
L 2222 3500 
L 2222 3053 
L 1275 3053 
L 1275 0 
L 697 0 
L 697 3053 
L 147 3053 
L 147 3500 
L 697 3500 
L 697 3744 
Q 697 4328 969 4595 
Q 1241 4863 1831 4863 
L 2375 4863 
z
" transform="scale(0.015625)"/>
       <path id="DejaVuSans-4c" d="M 628 4666 
L 1259 4666 
L 1259 531 
L 3531 531 
L 3531 0 
L 628 0 
L 628 4666 
z
" transform="scale(0.015625)"/>
       <path id="DejaVuSans-77" d="M 269 3500 
L 844 3500 
L 1563 769 
L 2278 3500 
L 2956 3500 
L 3675 769 
L 4391 3500 
L 4966 3500 
L 4050 0 
L 3372 0 
L 2619 2869 
L 1863 0 
L 1184 0 
L 269 3500 
z
" transform="scale(0.015625)"/>
      </defs>
      <use xlink:href="#DejaVuSans-43"/>
      <use xlink:href="#DejaVuSans-75" x="69.824219"/>
      <use xlink:href="#DejaVuSans-74" x="133.203125"/>
      <use xlink:href="#DejaVuSans-6f" x="172.412109"/>
      <use xlink:href="#DejaVuSans-66" x="233.59375"/>
      <use xlink:href="#DejaVuSans-66" x="268.798828"/>
      <use xlink:href="#DejaVuSans-20" x="304.003906"/>
      <use xlink:href="#DejaVuSans-4c" x="335.791016"/>
      <use xlink:href="#DejaVuSans-6f" x="389.753906"/>
      <use xlink:href="#DejaVuSans-77" x="450.935547"/>
     </g>
    </g>
   </g>
  </g>
  <g id="axes_2">
   <g id="patch_8">
    <path d="M 409.115 181.42 
L 709.2 181.42 
L 709.2 14.76 
L 409.115 14.76 
z
" style="fill: #ffffff"/>
   </g>
   <g id="matplotlib.axis_3">
    <g id="xtick_7">
     <g id="line2d_32">
      <path d="M 422.755227 181.42 
L 422.755227 14.76 
" clip-path="url(#p1cc8fd446f)" style="fill: none; stroke: #f0f0f0; stroke-width: 0.8; stroke-linecap: square"/>
     </g>
     <g id="line2d_33">
      <g>
       <use xlink:href="#meb9d76b585" x="422.755227" y="181.42" style="stroke: #000000; stroke-width: 0.8"/>
      </g>
     </g>
     <g id="text_18">
      <!-- 0.0 -->
      <g transform="translate(414.803665 196.018438) scale(0.1 -0.1)">
       <use xlink:href="#DejaVuSans-30"/>
       <use xlink:href="#DejaVuSans-2e" x="63.623047"/>
       <use xlink:href="#DejaVuSans-30" x="95.410156"/>
      </g>
     </g>
    </g>
    <g id="xtick_8">
     <g id="line2d_34">
      <path d="M 477.34279 181.42 
L 477.34279 14.76 
" clip-path="url(#p1cc8fd446f)" style="fill: none; stroke: #f0f0f0; stroke-width: 0.8; stroke-linecap: square"/>
     </g>
     <g id="line2d_35">
      <g>
       <use xlink:href="#meb9d76b585" x="477.34279" y="181.42" style="stroke: #000000; stroke-width: 0.8"/>
      </g>
     </g>
     <g id="text_19">
      <!-- 0.1 -->
      <g transform="translate(469.391228 196.018438) scale(0.1 -0.1)">
       <use xlink:href="#DejaVuSans-30"/>
       <use xlink:href="#DejaVuSans-2e" x="63.623047"/>
       <use xlink:href="#DejaVuSans-31" x="95.410156"/>
      </g>
     </g>
    </g>
    <g id="xtick_9">
     <g id="line2d_36">
      <path d="M 531.930354 181.42 
L 531.930354 14.76 
" clip-path="url(#p1cc8fd446f)" style="fill: none; stroke: #f0f0f0; stroke-width: 0.8; stroke-linecap: square"/>
     </g>
     <g id="line2d_37">
      <g>
       <use xlink:href="#meb9d76b585" x="531.930354" y="181.42" style="stroke: #000000; stroke-width: 0.8"/>
      </g>
     </g>
     <g id="text_20">
      <!-- 0.2 -->
      <g transform="translate(523.978791 196.018438) scale(0.1 -0.1)">
       <use xlink:href="#DejaVuSans-30"/>
       <use xlink:href="#DejaVuSans-2e" x="63.623047"/>
       <use xlink:href="#DejaVuSans-32" x="95.410156"/>
      </g>
     </g>
    </g>
    <g id="xtick_10">
     <g id="line2d_38">
      <path d="M 586.517917 181.42 
L 586.517917 14.76 
" clip-path="url(#p1cc8fd446f)" style="fill: none; stroke: #f0f0f0; stroke-width: 0.8; stroke-linecap: square"/>
     </g>
     <g id="line2d_39">
      <g>
       <use xlink:href="#meb9d76b585" x="586.517917" y="181.42" style="stroke: #000000; stroke-width: 0.8"/>
      </g>
     </g>
     <g id="text_21">
      <!-- 0.3 -->
      <g transform="translate(578.566354 196.018438) scale(0.1 -0.1)">
       <use xlink:href="#DejaVuSans-30"/>
       <use xlink:href="#DejaVuSans-2e" x="63.623047"/>
       <use xlink:href="#DejaVuSans-33" x="95.410156"/>
      </g>
     </g>
    </g>
    <g id="xtick_11">
     <g id="line2d_40">
      <path d="M 641.10548 181.42 
L 641.10548 14.76 
" clip-path="url(#p1cc8fd446f)" style="fill: none; stroke: #f0f0f0; stroke-width: 0.8; stroke-linecap: square"/>
     </g>
     <g id="line2d_41">
      <g>
       <use xlink:href="#meb9d76b585" x="641.10548" y="181.42" style="stroke: #000000; stroke-width: 0.8"/>
      </g>
     </g>
     <g id="text_22">
      <!-- 0.4 -->
      <g transform="translate(633.153917 196.018438) scale(0.1 -0.1)">
       <use xlink:href="#DejaVuSans-30"/>
       <use xlink:href="#DejaVuSans-2e" x="63.623047"/>
       <use xlink:href="#DejaVuSans-34" x="95.410156"/>
      </g>
     </g>
    </g>
    <g id="xtick_12">
     <g id="line2d_42">
      <path d="M 695.693043 181.42 
L 695.693043 14.76 
" clip-path="url(#p1cc8fd446f)" style="fill: none; stroke: #f0f0f0; stroke-width: 0.8; stroke-linecap: square"/>
     </g>
     <g id="line2d_43">
      <g>
       <use xlink:href="#meb9d76b585" x="695.693043" y="181.42" style="stroke: #000000; stroke-width: 0.8"/>
      </g>
     </g>
     <g id="text_23">
      <!-- 0.5 -->
      <g transform="translate(687.741481 196.018438) scale(0.1 -0.1)">
       <use xlink:href="#DejaVuSans-30"/>
       <use xlink:href="#DejaVuSans-2e" x="63.623047"/>
       <use xlink:href="#DejaVuSans-35" x="95.410156"/>
      </g>
     </g>
    </g>
    <g id="text_24">
     <!-- Normalized Frequency [rad/2π] -->
     <g transform="translate(481.723125 209.696562) scale(0.1 -0.1)">
      <use xlink:href="#DejaVuSans-4e"/>
      <use xlink:href="#DejaVuSans-6f" x="74.804688"/>
      <use xlink:href="#DejaVuSans-72" x="135.986328"/>
      <use xlink:href="#DejaVuSans-6d" x="175.349609"/>
      <use xlink:href="#DejaVuSans-61" x="272.761719"/>
      <use xlink:href="#DejaVuSans-6c" x="334.041016"/>
      <use xlink:href="#DejaVuSans-69" x="361.824219"/>
      <use xlink:href="#DejaVuSans-7a" x="389.607422"/>
      <use xlink:href="#DejaVuSans-65" x="442.097656"/>
      <use xlink:href="#DejaVuSans-64" x="503.621094"/>
      <use xlink:href="#DejaVuSans-20" x="567.097656"/>
      <use xlink:href="#DejaVuSans-46" x="598.884766"/>
      <use xlink:href="#DejaVuSans-72" x="649.154297"/>
      <use xlink:href="#DejaVuSans-65" x="688.017578"/>
      <use xlink:href="#DejaVuSans-71" x="749.541016"/>
      <use xlink:href="#DejaVuSans-75" x="813.017578"/>
      <use xlink:href="#DejaVuSans-65" x="876.396484"/>
      <use xlink:href="#DejaVuSans-6e" x="937.919922"/>
      <use xlink:href="#DejaVuSans-63" x="1001.298828"/>
      <use xlink:href="#DejaVuSans-79" x="1056.279297"/>
      <use xlink:href="#DejaVuSans-20" x="1115.458984"/>
      <use xlink:href="#DejaVuSans-5b" x="1147.246094"/>
      <use xlink:href="#DejaVuSans-72" x="1186.259766"/>
      <use xlink:href="#DejaVuSans-61" x="1227.373047"/>
      <use xlink:href="#DejaVuSans-64" x="1288.652344"/>
      <use xlink:href="#DejaVuSans-2f" x="1352.128906"/>
      <use xlink:href="#DejaVuSans-32" x="1385.820312"/>
      <use xlink:href="#DejaVuSans-3c0" x="1449.443359"/>
      <use xlink:href="#DejaVuSans-5d" x="1509.648438"/>
     </g>
    </g>
   </g>
   <g id="matplotlib.axis_4">
    <g id="ytick_9">
     <g id="line2d_44">
      <path d="M 409.115 180.138 
L 709.2 180.138 
" clip-path="url(#p1cc8fd446f)" style="fill: none; stroke: #f0f0f0; stroke-width: 0.8; stroke-linecap: square"/>
     </g>
     <g id="line2d_45">
      <g>
       <use xlink:href="#mc4a0405879" x="409.115" y="180.138" style="stroke: #000000; stroke-width: 0.8"/>
      </g>
     </g>
     <g id="text_25">
      <!-- 0 -->
      <g transform="translate(395.7525 183.937219) scale(0.1 -0.1)">
       <use xlink:href="#DejaVuSans-30"/>
      </g>
     </g>
    </g>
    <g id="ytick_10">
     <g id="line2d_46">
      <path d="M 409.115 154.498 
L 709.2 154.498 
" clip-path="url(#p1cc8fd446f)" style="fill: none; stroke: #f0f0f0; stroke-width: 0.8; stroke-linecap: square"/>
     </g>
     <g id="line2d_47">
      <g>
       <use xlink:href="#mc4a0405879" x="409.115" y="154.498" style="stroke: #000000; stroke-width: 0.8"/>
      </g>
     </g>
     <g id="text_26">
      <!-- 10 -->
      <g transform="translate(389.39 158.297219) scale(0.1 -0.1)">
       <use xlink:href="#DejaVuSans-31"/>
       <use xlink:href="#DejaVuSans-30" x="63.623047"/>
      </g>
     </g>
    </g>
    <g id="ytick_11">
     <g id="line2d_48">
      <path d="M 409.115 128.858 
L 709.2 128.858 
" clip-path="url(#p1cc8fd446f)" style="fill: none; stroke: #f0f0f0; stroke-width: 0.8; stroke-linecap: square"/>
     </g>
     <g id="line2d_49">
      <g>
       <use xlink:href="#mc4a0405879" x="409.115" y="128.858" style="stroke: #000000; stroke-width: 0.8"/>
      </g>
     </g>
     <g id="text_27">
      <!-- 20 -->
      <g transform="translate(389.39 132.657219) scale(0.1 -0.1)">
       <use xlink:href="#DejaVuSans-32"/>
       <use xlink:href="#DejaVuSans-30" x="63.623047"/>
      </g>
     </g>
    </g>
    <g id="ytick_12">
     <g id="line2d_50">
      <path d="M 409.115 103.218 
L 709.2 103.218 
" clip-path="url(#p1cc8fd446f)" style="fill: none; stroke: #f0f0f0; stroke-width: 0.8; stroke-linecap: square"/>
     </g>
     <g id="line2d_51">
      <g>
       <use xlink:href="#mc4a0405879" x="409.115" y="103.218" style="stroke: #000000; stroke-width: 0.8"/>
      </g>
     </g>
     <g id="text_28">
      <!-- 30 -->
      <g transform="translate(389.39 107.017219) scale(0.1 -0.1)">
       <use xlink:href="#DejaVuSans-33"/>
       <use xlink:href="#DejaVuSans-30" x="63.623047"/>
      </g>
     </g>
    </g>
    <g id="ytick_13">
     <g id="line2d_52">
      <path d="M 409.115 77.578 
L 709.2 77.578 
" clip-path="url(#p1cc8fd446f)" style="fill: none; stroke: #f0f0f0; stroke-width: 0.8; stroke-linecap: square"/>
     </g>
     <g id="line2d_53">
      <g>
       <use xlink:href="#mc4a0405879" x="409.115" y="77.578" style="stroke: #000000; stroke-width: 0.8"/>
      </g>
     </g>
     <g id="text_29">
      <!-- 40 -->
      <g transform="translate(389.39 81.377219) scale(0.1 -0.1)">
       <use xlink:href="#DejaVuSans-34"/>
       <use xlink:href="#DejaVuSans-30" x="63.623047"/>
      </g>
     </g>
    </g>
    <g id="ytick_14">
     <g id="line2d_54">
      <path d="M 409.115 51.938 
L 709.2 51.938 
" clip-path="url(#p1cc8fd446f)" style="fill: none; stroke: #f0f0f0; stroke-width: 0.8; stroke-linecap: square"/>
     </g>
     <g id="line2d_55">
      <g>
       <use xlink:href="#mc4a0405879" x="409.115" y="51.938" style="stroke: #000000; stroke-width: 0.8"/>
      </g>
     </g>
     <g id="text_30">
      <!-- 50 -->
      <g transform="translate(389.39 55.737219) scale(0.1 -0.1)">
       <use xlink:href="#DejaVuSans-35"/>
       <use xlink:href="#DejaVuSans-30" x="63.623047"/>
      </g>
     </g>
    </g>
    <g id="ytick_15">
     <g id="line2d_56">
      <path d="M 409.115 26.298 
L 709.2 26.298 
" clip-path="url(#p1cc8fd446f)" style="fill: none; stroke: #f0f0f0; stroke-width: 0.8; stroke-linecap: square"/>
     </g>
     <g id="line2d_57">
      <g>
       <use xlink:href="#mc4a0405879" x="409.115" y="26.298" style="stroke: #000000; stroke-width: 0.8"/>
      </g>
     </g>
     <g id="text_31">
      <!-- 60 -->
      <g transform="translate(389.39 30.097219) scale(0.1 -0.1)">
       <use xlink:href="#DejaVuSans-36"/>
       <use xlink:href="#DejaVuSans-30" x="63.623047"/>
      </g>
     </g>
    </g>
    <g id="text_32">
     <!-- Group Delay [sample] -->
     <g transform="translate(383.310312 152.907188) rotate(-90) scale(0.1 -0.1)">
      <defs>
       <path id="DejaVuSans-70" d="M 1159 525 
L 1159 -1331 
L 581 -1331 
L 581 3500 
L 1159 3500 
L 1159 2969 
Q 1341 3281 1617 3432 
Q 1894 3584 2278 3584 
Q 2916 3584 3314 3078 
Q 3713 2572 3713 1747 
Q 3713 922 3314 415 
Q 2916 -91 2278 -91 
Q 1894 -91 1617 61 
Q 1341 213 1159 525 
z
M 3116 1747 
Q 3116 2381 2855 2742 
Q 2594 3103 2138 3103 
Q 1681 3103 1420 2742 
Q 1159 2381 1159 1747 
Q 1159 1113 1420 752 
Q 1681 391 2138 391 
Q 2594 391 2855 752 
Q 3116 1113 3116 1747 
z
" transform="scale(0.015625)"/>
       <path id="DejaVuSans-44" d="M 1259 4147 
L 1259 519 
L 2022 519 
Q 2988 519 3436 956 
Q 3884 1394 3884 2338 
Q 3884 3275 3436 3711 
Q 2988 4147 2022 4147 
L 1259 4147 
z
M 628 4666 
L 1925 4666 
Q 3281 4666 3915 4102 
Q 4550 3538 4550 2338 
Q 4550 1131 3912 565 
Q 3275 0 1925 0 
L 628 0 
L 628 4666 
z
" transform="scale(0.015625)"/>
       <path id="DejaVuSans-73" d="M 2834 3397 
L 2834 2853 
Q 2591 2978 2328 3040 
Q 2066 3103 1784 3103 
Q 1356 3103 1142 2972 
Q 928 2841 928 2578 
Q 928 2378 1081 2264 
Q 1234 2150 1697 2047 
L 1894 2003 
Q 2506 1872 2764 1633 
Q 3022 1394 3022 966 
Q 3022 478 2636 193 
Q 2250 -91 1575 -91 
Q 1294 -91 989 -36 
Q 684 19 347 128 
L 347 722 
Q 666 556 975 473 
Q 1284 391 1588 391 
Q 1994 391 2212 530 
Q 2431 669 2431 922 
Q 2431 1156 2273 1281 
Q 2116 1406 1581 1522 
L 1381 1569 
Q 847 1681 609 1914 
Q 372 2147 372 2553 
Q 372 3047 722 3315 
Q 1072 3584 1716 3584 
Q 2034 3584 2315 3537 
Q 2597 3491 2834 3397 
z
" transform="scale(0.015625)"/>
      </defs>
      <use xlink:href="#DejaVuSans-47"/>
      <use xlink:href="#DejaVuSans-72" x="77.490234"/>
      <use xlink:href="#DejaVuSans-6f" x="116.353516"/>
      <use xlink:href="#DejaVuSans-75" x="177.535156"/>
      <use xlink:href="#DejaVuSans-70" x="240.914062"/>
      <use xlink:href="#DejaVuSans-20" x="304.390625"/>
      <use xlink:href="#DejaVuSans-44" x="336.177734"/>
      <use xlink:href="#DejaVuSans-65" x="413.179688"/>
      <use xlink:href="#DejaVuSans-6c" x="474.703125"/>
      <use xlink:href="#DejaVuSans-61" x="502.486328"/>
      <use xlink:href="#DejaVuSans-79" x="563.765625"/>
      <use xlink:href="#DejaVuSans-20" x="622.945312"/>
      <use xlink:href="#DejaVuSans-5b" x="654.732422"/>
      <use xlink:href="#DejaVuSans-73" x="693.746094"/>
      <use xlink:href="#DejaVuSans-61" x="745.845703"/>
      <use xlink:href="#DejaVuSans-6d" x="807.125"/>
      <use xlink:href="#DejaVuSans-70" x="904.537109"/>
      <use xlink:href="#DejaVuSans-6c" x="968.013672"/>
      <use xlink:href="#DejaVuSans-65" x="995.796875"/>
      <use xlink:href="#DejaVuSans-5d" x="1057.320312"/>
     </g>
    </g>
   </g>
   <g id="line2d_58">
    <path d="M 422.755227 100.654 
L 695.559773 100.654 
L 695.559773 100.654 
" clip-path="url(#p1cc8fd446f)" style="fill: none; stroke: #000000; stroke-width: 1.5; stroke-linecap: square"/>
   </g>
   <g id="line2d_59">
    <path d="M 559.224135 181.42 
L 559.224135 14.76 
" clip-path="url(#p1cc8fd446f)" style="fill: none; stroke: #ff0000; stroke-opacity: 0.5; stroke-width: 1.5; stroke-linecap: square"/>
   </g>
   <g id="patch_9">
    <path d="M 409.115 181.42 
L 409.115 14.76 
" style="fill: none; stroke: #000000; stroke-width: 0.8; stroke-linejoin: miter; stroke-linecap: square"/>
   </g>
   <g id="patch_10">
    <path d="M 709.2 181.42 
L 709.2 14.76 
" style="fill: none; stroke: #000000; stroke-width: 0.8; stroke-linejoin: miter; stroke-linecap: square"/>
   </g>
   <g id="patch_11">
    <path d="M 409.115 181.42 
L 709.2 181.42 
" style="fill: none; stroke: #000000; stroke-width: 0.8; stroke-linejoin: miter; stroke-linecap: square"/>
   </g>
   <g id="patch_12">
    <path d="M 409.115 14.76 
L 709.2 14.76 
" style="fill: none; stroke: #000000; stroke-width: 0.8; stroke-linejoin: miter; stroke-linecap: square"/>
   </g>
   <g id="legend_2">
    <g id="patch_13">
     <path d="M 616.928125 37.438125 
L 702.2 37.438125 
Q 704.2 37.438125 704.2 35.438125 
L 704.2 21.76 
Q 704.2 19.76 702.2 19.76 
L 616.928125 19.76 
Q 614.928125 19.76 614.928125 21.76 
L 614.928125 35.438125 
Q 614.928125 37.438125 616.928125 37.438125 
z
" style="fill: #ffffff; opacity: 0.8; stroke: #cccccc; stroke-linejoin: miter"/>
    </g>
    <g id="line2d_60">
     <path d="M 618.928125 27.858438 
L 628.928125 27.858438 
L 638.928125 27.858438 
" style="fill: none; stroke: #ff0000; stroke-opacity: 0.5; stroke-width: 1.5; stroke-linecap: square"/>
    </g>
    <g id="text_33">
     <!-- Cutoff Low -->
     <g transform="translate(646.928125 31.358438) scale(0.1 -0.1)">
      <use xlink:href="#DejaVuSans-43"/>
      <use xlink:href="#DejaVuSans-75" x="69.824219"/>
      <use xlink:href="#DejaVuSans-74" x="133.203125"/>
      <use xlink:href="#DejaVuSans-6f" x="172.412109"/>
      <use xlink:href="#DejaVuSans-66" x="233.59375"/>
      <use xlink:href="#DejaVuSans-66" x="268.798828"/>
      <use xlink:href="#DejaVuSans-20" x="304.003906"/>
      <use xlink:href="#DejaVuSans-4c" x="335.791016"/>
      <use xlink:href="#DejaVuSans-6f" x="389.753906"/>
      <use xlink:href="#DejaVuSans-77" x="450.935547"/>
     </g>
    </g>
   </g>
  </g>
  <g id="axes_3">
   <g id="patch_14">
    <path d="M 52.94 390.04 
L 353.025 390.04 
L 353.025 223.38 
L 52.94 223.38 
z
" style="fill: #ffffff"/>
   </g>
   <g id="matplotlib.axis_5">
    <g id="xtick_13">
     <g id="line2d_61">
      <path d="M 66.580227 390.04 
L 66.580227 223.38 
" clip-path="url(#p99075a798a)" style="fill: none; stroke: #f0f0f0; stroke-width: 0.8; stroke-linecap: square"/>
     </g>
     <g id="line2d_62">
      <g>
       <use xlink:href="#meb9d76b585" x="66.580227" y="390.04" style="stroke: #000000; stroke-width: 0.8"/>
      </g>
     </g>
     <g id="text_34">
      <!-- 0.0 -->
      <g transform="translate(58.628665 404.638438) scale(0.1 -0.1)">
       <use xlink:href="#DejaVuSans-30"/>
       <use xlink:href="#DejaVuSans-2e" x="63.623047"/>
       <use xlink:href="#DejaVuSans-30" x="95.410156"/>
      </g>
     </g>
    </g>
    <g id="xtick_14">
     <g id="line2d_63">
      <path d="M 121.16779 390.04 
L 121.16779 223.38 
" clip-path="url(#p99075a798a)" style="fill: none; stroke: #f0f0f0; stroke-width: 0.8; stroke-linecap: square"/>
     </g>
     <g id="line2d_64">
      <g>
       <use xlink:href="#meb9d76b585" x="121.16779" y="390.04" style="stroke: #000000; stroke-width: 0.8"/>
      </g>
     </g>
     <g id="text_35">
      <!-- 0.1 -->
      <g transform="translate(113.216228 404.638438) scale(0.1 -0.1)">
       <use xlink:href="#DejaVuSans-30"/>
       <use xlink:href="#DejaVuSans-2e" x="63.623047"/>
       <use xlink:href="#DejaVuSans-31" x="95.410156"/>
      </g>
     </g>
    </g>
    <g id="xtick_15">
     <g id="line2d_65">
      <path d="M 175.755354 390.04 
L 175.755354 223.38 
" clip-path="url(#p99075a798a)" style="fill: none; stroke: #f0f0f0; stroke-width: 0.8; stroke-linecap: square"/>
     </g>
     <g id="line2d_66">
      <g>
       <use xlink:href="#meb9d76b585" x="175.755354" y="390.04" style="stroke: #000000; stroke-width: 0.8"/>
      </g>
     </g>
     <g id="text_36">
      <!-- 0.2 -->
      <g transform="translate(167.803791 404.638438) scale(0.1 -0.1)">
       <use xlink:href="#DejaVuSans-30"/>
       <use xlink:href="#DejaVuSans-2e" x="63.623047"/>
       <use xlink:href="#DejaVuSans-32" x="95.410156"/>
      </g>
     </g>
    </g>
    <g id="xtick_16">
     <g id="line2d_67">
      <path d="M 230.342917 390.04 
L 230.342917 223.38 
" clip-path="url(#p99075a798a)" style="fill: none; stroke: #f0f0f0; stroke-width: 0.8; stroke-linecap: square"/>
     </g>
     <g id="line2d_68">
      <g>
       <use xlink:href="#meb9d76b585" x="230.342917" y="390.04" style="stroke: #000000; stroke-width: 0.8"/>
      </g>
     </g>
     <g id="text_37">
      <!-- 0.3 -->
      <g transform="translate(222.391354 404.638438) scale(0.1 -0.1)">
       <use xlink:href="#DejaVuSans-30"/>
       <use xlink:href="#DejaVuSans-2e" x="63.623047"/>
       <use xlink:href="#DejaVuSans-33" x="95.410156"/>
      </g>
     </g>
    </g>
    <g id="xtick_17">
     <g id="line2d_69">
      <path d="M 284.93048 390.04 
L 284.93048 223.38 
" clip-path="url(#p99075a798a)" style="fill: none; stroke: #f0f0f0; stroke-width: 0.8; stroke-linecap: square"/>
     </g>
     <g id="line2d_70">
      <g>
       <use xlink:href="#meb9d76b585" x="284.93048" y="390.04" style="stroke: #000000; stroke-width: 0.8"/>
      </g>
     </g>
     <g id="text_38">
      <!-- 0.4 -->
      <g transform="translate(276.978917 404.638438) scale(0.1 -0.1)">
       <use xlink:href="#DejaVuSans-30"/>
       <use xlink:href="#DejaVuSans-2e" x="63.623047"/>
       <use xlink:href="#DejaVuSans-34" x="95.410156"/>
      </g>
     </g>
    </g>
    <g id="xtick_18">
     <g id="line2d_71">
      <path d="M 339.518043 390.04 
L 339.518043 223.38 
" clip-path="url(#p99075a798a)" style="fill: none; stroke: #f0f0f0; stroke-width: 0.8; stroke-linecap: square"/>
     </g>
     <g id="line2d_72">
      <g>
       <use xlink:href="#meb9d76b585" x="339.518043" y="390.04" style="stroke: #000000; stroke-width: 0.8"/>
      </g>
     </g>
     <g id="text_39">
      <!-- 0.5 -->
      <g transform="translate(331.566481 404.638438) scale(0.1 -0.1)">
       <use xlink:href="#DejaVuSans-30"/>
       <use xlink:href="#DejaVuSans-2e" x="63.623047"/>
       <use xlink:href="#DejaVuSans-35" x="95.410156"/>
      </g>
     </g>
    </g>
    <g id="text_40">
     <!-- Normalized Frequency [rad/2π] -->
     <g transform="translate(125.548125 418.316562) scale(0.1 -0.1)">
      <use xlink:href="#DejaVuSans-4e"/>
      <use xlink:href="#DejaVuSans-6f" x="74.804688"/>
      <use xlink:href="#DejaVuSans-72" x="135.986328"/>
      <use xlink:href="#DejaVuSans-6d" x="175.349609"/>
      <use xlink:href="#DejaVuSans-61" x="272.761719"/>
      <use xlink:href="#DejaVuSans-6c" x="334.041016"/>
      <use xlink:href="#DejaVuSans-69" x="361.824219"/>
      <use xlink:href="#DejaVuSans-7a" x="389.607422"/>
      <use xlink:href="#DejaVuSans-65" x="442.097656"/>
      <use xlink:href="#DejaVuSans-64" x="503.621094"/>
      <use xlink:href="#DejaVuSans-20" x="567.097656"/>
      <use xlink:href="#DejaVuSans-46" x="598.884766"/>
      <use xlink:href="#DejaVuSans-72" x="649.154297"/>
      <use xlink:href="#DejaVuSans-65" x="688.017578"/>
      <use xlink:href="#DejaVuSans-71" x="749.541016"/>
      <use xlink:href="#DejaVuSans-75" x="813.017578"/>
      <use xlink:href="#DejaVuSans-65" x="876.396484"/>
      <use xlink:href="#DejaVuSans-6e" x="937.919922"/>
      <use xlink:href="#DejaVuSans-63" x="1001.298828"/>
      <use xlink:href="#DejaVuSans-79" x="1056.279297"/>
      <use xlink:href="#DejaVuSans-20" x="1115.458984"/>
      <use xlink:href="#DejaVuSans-5b" x="1147.246094"/>
      <use xlink:href="#DejaVuSans-72" x="1186.259766"/>
      <use xlink:href="#DejaVuSans-61" x="1227.373047"/>
      <use xlink:href="#DejaVuSans-64" x="1288.652344"/>
      <use xlink:href="#DejaVuSans-2f" x="1352.128906"/>
      <use xlink:href="#DejaVuSans-32" x="1385.820312"/>
      <use xlink:href="#DejaVuSans-3c0" x="1449.443359"/>
      <use xlink:href="#DejaVuSans-5d" x="1509.648438"/>
     </g>
    </g>
   </g>
   <g id="matplotlib.axis_6">
    <g id="ytick_16">
     <g id="line2d_73">
      <path d="M 52.94 380.818246 
L 353.025 380.818246 
" clip-path="url(#p99075a798a)" style="fill: none; stroke: #f0f0f0; stroke-width: 0.8; stroke-linecap: square"/>
     </g>
     <g id="line2d_74">
      <g>
       <use xlink:href="#mc4a0405879" x="52.94" y="380.818246" style="stroke: #000000; stroke-width: 0.8"/>
      </g>
     </g>
     <g id="text_41">
      <!-- −50 -->
      <g transform="translate(24.835313 384.617465) scale(0.1 -0.1)">
       <use xlink:href="#DejaVuSans-2212"/>
       <use xlink:href="#DejaVuSans-35" x="83.789062"/>
       <use xlink:href="#DejaVuSans-30" x="147.412109"/>
      </g>
     </g>
    </g>
    <g id="ytick_17">
     <g id="line2d_75">
      <path d="M 52.94 350.845688 
L 353.025 350.845688 
" clip-path="url(#p99075a798a)" style="fill: none; stroke: #f0f0f0; stroke-width: 0.8; stroke-linecap: square"/>
     </g>
     <g id="line2d_76">
      <g>
       <use xlink:href="#mc4a0405879" x="52.94" y="350.845688" style="stroke: #000000; stroke-width: 0.8"/>
      </g>
     </g>
     <g id="text_42">
      <!-- −40 -->
      <g transform="translate(24.835313 354.644906) scale(0.1 -0.1)">
       <use xlink:href="#DejaVuSans-2212"/>
       <use xlink:href="#DejaVuSans-34" x="83.789062"/>
       <use xlink:href="#DejaVuSans-30" x="147.412109"/>
      </g>
     </g>
    </g>
    <g id="ytick_18">
     <g id="line2d_77">
      <path d="M 52.94 320.873129 
L 353.025 320.873129 
" clip-path="url(#p99075a798a)" style="fill: none; stroke: #f0f0f0; stroke-width: 0.8; stroke-linecap: square"/>
     </g>
     <g id="line2d_78">
      <g>
       <use xlink:href="#mc4a0405879" x="52.94" y="320.873129" style="stroke: #000000; stroke-width: 0.8"/>
      </g>
     </g>
     <g id="text_43">
      <!-- −30 -->
      <g transform="translate(24.835313 324.672348) scale(0.1 -0.1)">
       <use xlink:href="#DejaVuSans-2212"/>
       <use xlink:href="#DejaVuSans-33" x="83.789062"/>
       <use xlink:href="#DejaVuSans-30" x="147.412109"/>
      </g>
     </g>
    </g>
    <g id="ytick_19">
     <g id="line2d_79">
      <path d="M 52.94 290.900571 
L 353.025 290.900571 
" clip-path="url(#p99075a798a)" style="fill: none; stroke: #f0f0f0; stroke-width: 0.8; stroke-linecap: square"/>
     </g>
     <g id="line2d_80">
      <g>
       <use xlink:href="#mc4a0405879" x="52.94" y="290.900571" style="stroke: #000000; stroke-width: 0.8"/>
      </g>
     </g>
     <g id="text_44">
      <!-- −20 -->
      <g transform="translate(24.835313 294.69979) scale(0.1 -0.1)">
       <use xlink:href="#DejaVuSans-2212"/>
       <use xlink:href="#DejaVuSans-32" x="83.789062"/>
       <use xlink:href="#DejaVuSans-30" x="147.412109"/>
      </g>
     </g>
    </g>
    <g id="ytick_20">
     <g id="line2d_81">
      <path d="M 52.94 260.928013 
L 353.025 260.928013 
" clip-path="url(#p99075a798a)" style="fill: none; stroke: #f0f0f0; stroke-width: 0.8; stroke-linecap: square"/>
     </g>
     <g id="line2d_82">
      <g>
       <use xlink:href="#mc4a0405879" x="52.94" y="260.928013" style="stroke: #000000; stroke-width: 0.8"/>
      </g>
     </g>
     <g id="text_45">
      <!-- −10 -->
      <g transform="translate(24.835313 264.727232) scale(0.1 -0.1)">
       <use xlink:href="#DejaVuSans-2212"/>
       <use xlink:href="#DejaVuSans-31" x="83.789062"/>
       <use xlink:href="#DejaVuSans-30" x="147.412109"/>
      </g>
     </g>
    </g>
    <g id="ytick_21">
     <g id="line2d_83">
      <path d="M 52.94 230.955455 
L 353.025 230.955455 
" clip-path="url(#p99075a798a)" style="fill: none; stroke: #f0f0f0; stroke-width: 0.8; stroke-linecap: square"/>
     </g>
     <g id="line2d_84">
      <g>
       <use xlink:href="#mc4a0405879" x="52.94" y="230.955455" style="stroke: #000000; stroke-width: 0.8"/>
      </g>
     </g>
     <g id="text_46">
      <!-- 0 -->
      <g transform="translate(39.5775 234.754673) scale(0.1 -0.1)">
       <use xlink:href="#DejaVuSans-30"/>
      </g>
     </g>
    </g>
    <g id="text_47">
     <!-- Phase [rad] -->
     <g transform="translate(18.755625 335.423281) rotate(-90) scale(0.1 -0.1)">
      <defs>
       <path id="DejaVuSans-50" d="M 1259 4147 
L 1259 2394 
L 2053 2394 
Q 2494 2394 2734 2622 
Q 2975 2850 2975 3272 
Q 2975 3691 2734 3919 
Q 2494 4147 2053 4147 
L 1259 4147 
z
M 628 4666 
L 2053 4666 
Q 2838 4666 3239 4311 
Q 3641 3956 3641 3272 
Q 3641 2581 3239 2228 
Q 2838 1875 2053 1875 
L 1259 1875 
L 1259 0 
L 628 0 
L 628 4666 
z
" transform="scale(0.015625)"/>
       <path id="DejaVuSans-68" d="M 3513 2113 
L 3513 0 
L 2938 0 
L 2938 2094 
Q 2938 2591 2744 2837 
Q 2550 3084 2163 3084 
Q 1697 3084 1428 2787 
Q 1159 2491 1159 1978 
L 1159 0 
L 581 0 
L 581 4863 
L 1159 4863 
L 1159 2956 
Q 1366 3272 1645 3428 
Q 1925 3584 2291 3584 
Q 2894 3584 3203 3211 
Q 3513 2838 3513 2113 
z
" transform="scale(0.015625)"/>
      </defs>
      <use xlink:href="#DejaVuSans-50"/>
      <use xlink:href="#DejaVuSans-68" x="60.302734"/>
      <use xlink:href="#DejaVuSans-61" x="123.681641"/>
      <use xlink:href="#DejaVuSans-73" x="184.960938"/>
      <use xlink:href="#DejaVuSans-65" x="237.060547"/>
      <use xlink:href="#DejaVuSans-20" x="298.583984"/>
      <use xlink:href="#DejaVuSans-5b" x="330.371094"/>
      <use xlink:href="#DejaVuSans-72" x="369.384766"/>
      <use xlink:href="#DejaVuSans-61" x="410.498047"/>
      <use xlink:href="#DejaVuSans-64" x="471.777344"/>
      <use xlink:href="#DejaVuSans-5d" x="535.253906"/>
     </g>
    </g>
   </g>
   <g id="line2d_85">
    <path d="M 66.580227 230.955455 
L 208.246682 382.464545 
L 208.379952 373.190918 
L 216.242907 381.600172 
L 216.376177 372.326545 
L 224.638943 381.163387 
L 224.772213 371.88976 
L 233.034979 380.726602 
L 233.16825 371.452975 
L 241.564286 380.432348 
L 241.697556 371.15872 
L 250.093593 380.138093 
L 250.226863 370.864465 
L 258.489629 379.701308 
L 258.622899 370.427681 
L 267.018936 379.407053 
L 267.152206 370.133426 
L 275.548243 379.112798 
L 275.681513 369.839171 
L 284.077549 378.818543 
L 284.21082 369.544916 
L 292.606856 378.524288 
L 292.740126 369.250661 
L 301.136163 378.230033 
L 301.269433 368.956406 
L 309.66547 377.935779 
L 309.79874 368.662151 
L 318.194776 377.641524 
L 318.328047 368.367897 
L 326.724083 377.347269 
L 326.857353 368.073642 
L 335.25339 377.053014 
L 335.38666 367.779387 
L 339.384773 372.055278 
L 339.384773 372.055278 
" clip-path="url(#p99075a798a)" style="fill: none; stroke: #000000; stroke-width: 1.5; stroke-linecap: square"/>
   </g>
   <g id="line2d_86">
    <path d="M 203.049135 390.04 
L 203.049135 223.38 
" clip-path="url(#p99075a798a)" style="fill: none; stroke: #ff0000; stroke-opacity: 0.5; stroke-width: 1.5; stroke-linecap: square"/>
   </g>
   <g id="patch_15">
    <path d="M 52.94 390.04 
L 52.94 223.38 
" style="fill: none; stroke: #000000; stroke-width: 0.8; stroke-linejoin: miter; stroke-linecap: square"/>
   </g>
   <g id="patch_16">
    <path d="M 353.025 390.04 
L 353.025 223.38 
" style="fill: none; stroke: #000000; stroke-width: 0.8; stroke-linejoin: miter; stroke-linecap: square"/>
   </g>
   <g id="patch_17">
    <path d="M 52.94 390.04 
L 353.025 390.04 
" style="fill: none; stroke: #000000; stroke-width: 0.8; stroke-linejoin: miter; stroke-linecap: square"/>
   </g>
   <g id="patch_18">
    <path d="M 52.94 223.38 
L 353.025 223.38 
" style="fill: none; stroke: #000000; stroke-width: 0.8; stroke-linejoin: miter; stroke-linecap: square"/>
   </g>
   <g id="legend_3">
    <g id="patch_19">
     <path d="M 260.753125 246.058125 
L 346.025 246.058125 
Q 348.025 246.058125 348.025 244.058125 
L 348.025 230.38 
Q 348.025 228.38 346.025 228.38 
L 260.753125 228.38 
Q 258.753125 228.38 258.753125 230.38 
L 258.753125 244.058125 
Q 258.753125 246.058125 260.753125 246.058125 
z
" style="fill: #ffffff; opacity: 0.8; stroke: #cccccc; stroke-linejoin: miter"/>
    </g>
    <g id="line2d_87">
     <path d="M 262.753125 236.478438 
L 272.753125 236.478438 
L 282.753125 236.478438 
" style="fill: none; stroke: #ff0000; stroke-opacity: 0.5; stroke-width: 1.5; stroke-linecap: square"/>
    </g>
    <g id="text_48">
     <!-- Cutoff Low -->
     <g transform="translate(290.753125 239.978438) scale(0.1 -0.1)">
      <use xlink:href="#DejaVuSans-43"/>
      <use xlink:href="#DejaVuSans-75" x="69.824219"/>
      <use xlink:href="#DejaVuSans-74" x="133.203125"/>
      <use xlink:href="#DejaVuSans-6f" x="172.412109"/>
      <use xlink:href="#DejaVuSans-66" x="233.59375"/>
      <use xlink:href="#DejaVuSans-66" x="268.798828"/>
      <use xlink:href="#DejaVuSans-20" x="304.003906"/>
      <use xlink:href="#DejaVuSans-4c" x="335.791016"/>
      <use xlink:href="#DejaVuSans-6f" x="389.753906"/>
      <use xlink:href="#DejaVuSans-77" x="450.935547"/>
     </g>
    </g>
   </g>
  </g>
  <g id="axes_4">
   <g id="patch_20">
    <path d="M 409.115 390.04 
L 709.2 390.04 
L 709.2 223.38 
L 409.115 223.38 
z
" style="fill: #ffffff"/>
   </g>
   <g id="matplotlib.axis_7">
    <g id="xtick_19">
     <g id="line2d_88">
      <path d="M 422.755227 390.04 
L 422.755227 223.38 
" clip-path="url(#pdc9e1e49f8)" style="fill: none; stroke: #f0f0f0; stroke-width: 0.8; stroke-linecap: square"/>
     </g>
     <g id="line2d_89">
      <g>
       <use xlink:href="#meb9d76b585" x="422.755227" y="390.04" style="stroke: #000000; stroke-width: 0.8"/>
      </g>
     </g>
     <g id="text_49">
      <!-- 0 -->
      <g transform="translate(419.573977 404.638438) scale(0.1 -0.1)">
       <use xlink:href="#DejaVuSans-30"/>
      </g>
     </g>
    </g>
    <g id="xtick_20">
     <g id="line2d_90">
      <path d="M 466.75596 390.04 
L 466.75596 223.38 
" clip-path="url(#pdc9e1e49f8)" style="fill: none; stroke: #f0f0f0; stroke-width: 0.8; stroke-linecap: square"/>
     </g>
     <g id="line2d_91">
      <g>
       <use xlink:href="#meb9d76b585" x="466.75596" y="390.04" style="stroke: #000000; stroke-width: 0.8"/>
      </g>
     </g>
     <g id="text_50">
      <!-- 10 -->
      <g transform="translate(460.39346 404.638438) scale(0.1 -0.1)">
       <use xlink:href="#DejaVuSans-31"/>
       <use xlink:href="#DejaVuSans-30" x="63.623047"/>
      </g>
     </g>
    </g>
    <g id="xtick_21">
     <g id="line2d_92">
      <path d="M 510.756694 390.04 
L 510.756694 223.38 
" clip-path="url(#pdc9e1e49f8)" style="fill: none; stroke: #f0f0f0; stroke-width: 0.8; stroke-linecap: square"/>
     </g>
     <g id="line2d_93">
      <g>
       <use xlink:href="#meb9d76b585" x="510.756694" y="390.04" style="stroke: #000000; stroke-width: 0.8"/>
      </g>
     </g>
     <g id="text_51">
      <!-- 20 -->
      <g transform="translate(504.394194 404.638438) scale(0.1 -0.1)">
       <use xlink:href="#DejaVuSans-32"/>
       <use xlink:href="#DejaVuSans-30" x="63.623047"/>
      </g>
     </g>
    </g>
    <g id="xtick_22">
     <g id="line2d_94">
      <path d="M 554.757427 390.04 
L 554.757427 223.38 
" clip-path="url(#pdc9e1e49f8)" style="fill: none; stroke: #f0f0f0; stroke-width: 0.8; stroke-linecap: square"/>
     </g>
     <g id="line2d_95">
      <g>
       <use xlink:href="#meb9d76b585" x="554.757427" y="390.04" style="stroke: #000000; stroke-width: 0.8"/>
      </g>
     </g>
     <g id="text_52">
      <!-- 30 -->
      <g transform="translate(548.394927 404.638438) scale(0.1 -0.1)">
       <use xlink:href="#DejaVuSans-33"/>
       <use xlink:href="#DejaVuSans-30" x="63.623047"/>
      </g>
     </g>
    </g>
    <g id="xtick_23">
     <g id="line2d_96">
      <path d="M 598.75816 390.04 
L 598.75816 223.38 
" clip-path="url(#pdc9e1e49f8)" style="fill: none; stroke: #f0f0f0; stroke-width: 0.8; stroke-linecap: square"/>
     </g>
     <g id="line2d_97">
      <g>
       <use xlink:href="#meb9d76b585" x="598.75816" y="390.04" style="stroke: #000000; stroke-width: 0.8"/>
      </g>
     </g>
     <g id="text_53">
      <!-- 40 -->
      <g transform="translate(592.39566 404.638438) scale(0.1 -0.1)">
       <use xlink:href="#DejaVuSans-34"/>
       <use xlink:href="#DejaVuSans-30" x="63.623047"/>
      </g>
     </g>
    </g>
    <g id="xtick_24">
     <g id="line2d_98">
      <path d="M 642.758893 390.04 
L 642.758893 223.38 
" clip-path="url(#pdc9e1e49f8)" style="fill: none; stroke: #f0f0f0; stroke-width: 0.8; stroke-linecap: square"/>
     </g>
     <g id="line2d_99">
      <g>
       <use xlink:href="#meb9d76b585" x="642.758893" y="390.04" style="stroke: #000000; stroke-width: 0.8"/>
      </g>
     </g>
     <g id="text_54">
      <!-- 50 -->
      <g transform="translate(636.396393 404.638438) scale(0.1 -0.1)">
       <use xlink:href="#DejaVuSans-35"/>
       <use xlink:href="#DejaVuSans-30" x="63.623047"/>
      </g>
     </g>
    </g>
    <g id="xtick_25">
     <g id="line2d_100">
      <path d="M 686.759626 390.04 
L 686.759626 223.38 
" clip-path="url(#pdc9e1e49f8)" style="fill: none; stroke: #f0f0f0; stroke-width: 0.8; stroke-linecap: square"/>
     </g>
     <g id="line2d_101">
      <g>
       <use xlink:href="#meb9d76b585" x="686.759626" y="390.04" style="stroke: #000000; stroke-width: 0.8"/>
      </g>
     </g>
     <g id="text_55">
      <!-- 60 -->
      <g transform="translate(680.397126 404.638438) scale(0.1 -0.1)">
       <use xlink:href="#DejaVuSans-36"/>
       <use xlink:href="#DejaVuSans-30" x="63.623047"/>
      </g>
     </g>
    </g>
    <g id="text_56">
     <!-- Time [sample] -->
     <g transform="translate(523.254375 418.316562) scale(0.1 -0.1)">
      <defs>
       <path id="DejaVuSans-54" d="M -19 4666 
L 3928 4666 
L 3928 4134 
L 2272 4134 
L 2272 0 
L 1638 0 
L 1638 4134 
L -19 4134 
L -19 4666 
z
" transform="scale(0.015625)"/>
      </defs>
      <use xlink:href="#DejaVuSans-54"/>
      <use xlink:href="#DejaVuSans-69" x="57.958984"/>
      <use xlink:href="#DejaVuSans-6d" x="85.742188"/>
      <use xlink:href="#DejaVuSans-65" x="183.154297"/>
      <use xlink:href="#DejaVuSans-20" x="244.677734"/>
      <use xlink:href="#DejaVuSans-5b" x="276.464844"/>
      <use xlink:href="#DejaVuSans-73" x="315.478516"/>
      <use xlink:href="#DejaVuSans-61" x="367.578125"/>
      <use xlink:href="#DejaVuSans-6d" x="428.857422"/>
      <use xlink:href="#DejaVuSans-70" x="526.269531"/>
      <use xlink:href="#DejaVuSans-6c" x="589.746094"/>
      <use xlink:href="#DejaVuSans-65" x="617.529297"/>
      <use xlink:href="#DejaVuSans-5d" x="679.052734"/>
     </g>
    </g>
   </g>
   <g id="matplotlib.axis_8">
    <g id="ytick_22">
     <g id="line2d_102">
      <path d="M 409.115 380.93889 
L 709.2 380.93889 
" clip-path="url(#pdc9e1e49f8)" style="fill: none; stroke: #f0f0f0; stroke-width: 0.8; stroke-linecap: square"/>
     </g>
     <g id="line2d_103">
      <g>
       <use xlink:href="#mc4a0405879" x="409.115" y="380.93889" style="stroke: #000000; stroke-width: 0.8"/>
      </g>
     </g>
     <g id="text_57">
      <!-- −0.1 -->
      <g transform="translate(377.832187 384.738109) scale(0.1 -0.1)">
       <use xlink:href="#DejaVuSans-2212"/>
       <use xlink:href="#DejaVuSans-30" x="83.789062"/>
       <use xlink:href="#DejaVuSans-2e" x="147.412109"/>
       <use xlink:href="#DejaVuSans-31" x="179.199219"/>
      </g>
     </g>
    </g>
    <g id="ytick_23">
     <g id="line2d_104">
      <path d="M 409.115 355.941651 
L 709.2 355.941651 
" clip-path="url(#pdc9e1e49f8)" style="fill: none; stroke: #f0f0f0; stroke-width: 0.8; stroke-linecap: square"/>
     </g>
     <g id="line2d_105">
      <g>
       <use xlink:href="#mc4a0405879" x="409.115" y="355.941651" style="stroke: #000000; stroke-width: 0.8"/>
      </g>
     </g>
     <g id="text_58">
      <!-- 0.0 -->
      <g transform="translate(386.211875 359.74087) scale(0.1 -0.1)">
       <use xlink:href="#DejaVuSans-30"/>
       <use xlink:href="#DejaVuSans-2e" x="63.623047"/>
       <use xlink:href="#DejaVuSans-30" x="95.410156"/>
      </g>
     </g>
    </g>
    <g id="ytick_24">
     <g id="line2d_106">
      <path d="M 409.115 330.944412 
L 709.2 330.944412 
" clip-path="url(#pdc9e1e49f8)" style="fill: none; stroke: #f0f0f0; stroke-width: 0.8; stroke-linecap: square"/>
     </g>
     <g id="line2d_107">
      <g>
       <use xlink:href="#mc4a0405879" x="409.115" y="330.944412" style="stroke: #000000; stroke-width: 0.8"/>
      </g>
     </g>
     <g id="text_59">
      <!-- 0.1 -->
      <g transform="translate(386.211875 334.74363) scale(0.1 -0.1)">
       <use xlink:href="#DejaVuSans-30"/>
       <use xlink:href="#DejaVuSans-2e" x="63.623047"/>
       <use xlink:href="#DejaVuSans-31" x="95.410156"/>
      </g>
     </g>
    </g>
    <g id="ytick_25">
     <g id="line2d_108">
      <path d="M 409.115 305.947172 
L 709.2 305.947172 
" clip-path="url(#pdc9e1e49f8)" style="fill: none; stroke: #f0f0f0; stroke-width: 0.8; stroke-linecap: square"/>
     </g>
     <g id="line2d_109">
      <g>
       <use xlink:href="#mc4a0405879" x="409.115" y="305.947172" style="stroke: #000000; stroke-width: 0.8"/>
      </g>
     </g>
     <g id="text_60">
      <!-- 0.2 -->
      <g transform="translate(386.211875 309.746391) scale(0.1 -0.1)">
       <use xlink:href="#DejaVuSans-30"/>
       <use xlink:href="#DejaVuSans-2e" x="63.623047"/>
       <use xlink:href="#DejaVuSans-32" x="95.410156"/>
      </g>
     </g>
    </g>
    <g id="ytick_26">
     <g id="line2d_110">
      <path d="M 409.115 280.949933 
L 709.2 280.949933 
" clip-path="url(#pdc9e1e49f8)" style="fill: none; stroke: #f0f0f0; stroke-width: 0.8; stroke-linecap: square"/>
     </g>
     <g id="line2d_111">
      <g>
       <use xlink:href="#mc4a0405879" x="409.115" y="280.949933" style="stroke: #000000; stroke-width: 0.8"/>
      </g>
     </g>
     <g id="text_61">
      <!-- 0.3 -->
      <g transform="translate(386.211875 284.749152) scale(0.1 -0.1)">
       <use xlink:href="#DejaVuSans-30"/>
       <use xlink:href="#DejaVuSans-2e" x="63.623047"/>
       <use xlink:href="#DejaVuSans-33" x="95.410156"/>
      </g>
     </g>
    </g>
    <g id="ytick_27">
     <g id="line2d_112">
      <path d="M 409.115 255.952694 
L 709.2 255.952694 
" clip-path="url(#pdc9e1e49f8)" style="fill: none; stroke: #f0f0f0; stroke-width: 0.8; stroke-linecap: square"/>
     </g>
     <g id="line2d_113">
      <g>
       <use xlink:href="#mc4a0405879" x="409.115" y="255.952694" style="stroke: #000000; stroke-width: 0.8"/>
      </g>
     </g>
     <g id="text_62">
      <!-- 0.4 -->
      <g transform="translate(386.211875 259.751913) scale(0.1 -0.1)">
       <use xlink:href="#DejaVuSans-30"/>
       <use xlink:href="#DejaVuSans-2e" x="63.623047"/>
       <use xlink:href="#DejaVuSans-34" x="95.410156"/>
      </g>
     </g>
    </g>
    <g id="ytick_28">
     <g id="line2d_114">
      <path d="M 409.115 230.955455 
L 709.2 230.955455 
" clip-path="url(#pdc9e1e49f8)" style="fill: none; stroke: #f0f0f0; stroke-width: 0.8; stroke-linecap: square"/>
     </g>
     <g id="line2d_115">
      <g>
       <use xlink:href="#mc4a0405879" x="409.115" y="230.955455" style="stroke: #000000; stroke-width: 0.8"/>
      </g>
     </g>
     <g id="text_63">
      <!-- 0.5 -->
      <g transform="translate(386.211875 234.754673) scale(0.1 -0.1)">
       <use xlink:href="#DejaVuSans-30"/>
       <use xlink:href="#DejaVuSans-2e" x="63.623047"/>
       <use xlink:href="#DejaVuSans-35" x="95.410156"/>
      </g>
     </g>
    </g>
    <g id="text_64">
     <!-- Amplitude of FIR Coefficient -->
     <g transform="translate(371.7525 376.624844) rotate(-90) scale(0.1 -0.1)">
      <defs>
       <path id="DejaVuSans-41" d="M 2188 4044 
L 1331 1722 
L 3047 1722 
L 2188 4044 
z
M 1831 4666 
L 2547 4666 
L 4325 0 
L 3669 0 
L 3244 1197 
L 1141 1197 
L 716 0 
L 50 0 
L 1831 4666 
z
" transform="scale(0.015625)"/>
       <path id="DejaVuSans-49" d="M 628 4666 
L 1259 4666 
L 1259 0 
L 628 0 
L 628 4666 
z
" transform="scale(0.015625)"/>
       <path id="DejaVuSans-52" d="M 2841 2188 
Q 3044 2119 3236 1894 
Q 3428 1669 3622 1275 
L 4263 0 
L 3584 0 
L 2988 1197 
Q 2756 1666 2539 1819 
Q 2322 1972 1947 1972 
L 1259 1972 
L 1259 0 
L 628 0 
L 628 4666 
L 2053 4666 
Q 2853 4666 3247 4331 
Q 3641 3997 3641 3322 
Q 3641 2881 3436 2590 
Q 3231 2300 2841 2188 
z
M 1259 4147 
L 1259 2491 
L 2053 2491 
Q 2509 2491 2742 2702 
Q 2975 2913 2975 3322 
Q 2975 3731 2742 3939 
Q 2509 4147 2053 4147 
L 1259 4147 
z
" transform="scale(0.015625)"/>
      </defs>
      <use xlink:href="#DejaVuSans-41"/>
      <use xlink:href="#DejaVuSans-6d" x="68.408203"/>
      <use xlink:href="#DejaVuSans-70" x="165.820312"/>
      <use xlink:href="#DejaVuSans-6c" x="229.296875"/>
      <use xlink:href="#DejaVuSans-69" x="257.080078"/>
      <use xlink:href="#DejaVuSans-74" x="284.863281"/>
      <use xlink:href="#DejaVuSans-75" x="324.072266"/>
      <use xlink:href="#DejaVuSans-64" x="387.451172"/>
      <use xlink:href="#DejaVuSans-65" x="450.927734"/>
      <use xlink:href="#DejaVuSans-20" x="512.451172"/>
      <use xlink:href="#DejaVuSans-6f" x="544.238281"/>
      <use xlink:href="#DejaVuSans-66" x="605.419922"/>
      <use xlink:href="#DejaVuSans-20" x="640.625"/>
      <use xlink:href="#DejaVuSans-46" x="672.412109"/>
      <use xlink:href="#DejaVuSans-49" x="729.931641"/>
      <use xlink:href="#DejaVuSans-52" x="759.423828"/>
      <use xlink:href="#DejaVuSans-20" x="828.90625"/>
      <use xlink:href="#DejaVuSans-43" x="860.693359"/>
      <use xlink:href="#DejaVuSans-6f" x="930.517578"/>
      <use xlink:href="#DejaVuSans-65" x="991.699219"/>
      <use xlink:href="#DejaVuSans-66" x="1053.222656"/>
      <use xlink:href="#DejaVuSans-66" x="1088.427734"/>
      <use xlink:href="#DejaVuSans-69" x="1123.632812"/>
      <use xlink:href="#DejaVuSans-63" x="1151.416016"/>
      <use xlink:href="#DejaVuSans-69" x="1206.396484"/>
      <use xlink:href="#DejaVuSans-65" x="1234.179688"/>
      <use xlink:href="#DejaVuSans-6e" x="1295.703125"/>
      <use xlink:href="#DejaVuSans-74" x="1359.082031"/>
     </g>
    </g>
   </g>
   <g id="line2d_116">
    <path d="M 422.755227 358.508383 
L 427.155301 355.941651 
L 431.555374 353.197903 
L 435.955447 355.941651 
L 440.355521 358.888639 
L 444.755594 355.941651 
L 449.155667 352.758903 
L 453.55574 355.941651 
L 457.955814 359.401159 
L 462.355887 355.941651 
L 466.75596 352.152666 
L 471.156034 355.941651 
L 475.556107 360.129476 
L 479.95618 355.941651 
L 484.356254 351.26114 
L 488.756327 355.941651 
L 493.1564 361.24623 
L 497.556474 355.941651 
L 501.956547 349.820983 
L 506.35662 355.941651 
L 510.756694 363.175168 
L 515.156767 355.941651 
L 519.55684 347.100686 
L 523.956913 355.941651 
L 528.356987 367.308606 
L 532.75706 355.941651 
L 537.157133 340.027914 
L 541.557207 355.941651 
L 545.95728 382.464545 
L 550.357353 355.941651 
L 554.757427 276.372967 
L 559.1575 230.955455 
L 563.557573 276.372967 
L 567.957647 355.941651 
L 572.35772 382.464545 
L 576.757793 355.941651 
L 581.157867 340.027914 
L 585.55794 355.941651 
L 589.958013 367.308606 
L 594.358087 355.941651 
L 598.75816 347.100686 
L 603.158233 355.941651 
L 607.558306 363.175168 
L 611.95838 355.941651 
L 616.358453 349.820983 
L 620.758526 355.941651 
L 625.1586 361.24623 
L 629.558673 355.941651 
L 633.958746 351.26114 
L 638.35882 355.941651 
L 642.758893 360.129476 
L 647.158966 355.941651 
L 651.55904 352.152666 
L 655.959113 355.941651 
L 660.359186 359.401159 
L 664.75926 355.941651 
L 669.159333 352.758903 
L 673.559406 355.941651 
L 677.959479 358.888639 
L 682.359553 355.941651 
L 686.759626 353.197903 
L 691.159699 355.941651 
L 695.559773 358.508383 
" clip-path="url(#pdc9e1e49f8)" style="fill: none; stroke: #000000; stroke-width: 1.5; stroke-linecap: square"/>
   </g>
   <g id="patch_21">
    <path d="M 409.115 390.04 
L 409.115 223.38 
" style="fill: none; stroke: #000000; stroke-width: 0.8; stroke-linejoin: miter; stroke-linecap: square"/>
   </g>
   <g id="patch_22">
    <path d="M 709.2 390.04 
L 709.2 223.38 
" style="fill: none; stroke: #000000; stroke-width: 0.8; stroke-linejoin: miter; stroke-linecap: square"/>
   </g>
   <g id="patch_23">
    <path d="M 409.115 390.04 
L 709.2 390.04 
" style="fill: none; stroke: #000000; stroke-width: 0.8; stroke-linejoin: miter; stroke-linecap: square"/>
   </g>
   <g id="patch_24">
    <path d="M 409.115 223.38 
L 709.2 223.38 
" style="fill: none; stroke: #000000; stroke-width: 0.8; stroke-linejoin: miter; stroke-linecap: square"/>
   </g>
  </g>
 </g>
 <defs>
  <clipPath id="p1744675f73">
   <rect x="52.94" y="14.76" width="300.085" height="166.66"/>
  </clipPath>
  <clipPath id="p1cc8fd446f">
   <rect x="409.115" y="14.76" width="300.085" height="166.66"/>
  </clipPath>
  <clipPath id="p99075a798a">
   <rect x="52.94" y="223.38" width="300.085" height="166.66"/>
  </clipPath>
  <clipPath id="pdc9e1e49f8">
   <rect x="409.115" y="223.38" width="300.085" height="166.66"/>
  </clipPath>
 </defs>
</svg>
