<?xml version="1.0" encoding="utf-8" standalone="no"?>
<!DOCTYPE svg PUBLIC "-//W3C//DTD SVG 1.1//EN"
  "http://www.w3.org/Graphics/SVG/1.1/DTD/svg11.dtd">
<!-- Created with matplotlib (https://matplotlib.org/) -->
<svg height="288pt" version="1.1" viewBox="0 0 288 288" width="288pt" xmlns="http://www.w3.org/2000/svg" xmlns:xlink="http://www.w3.org/1999/xlink">
 <metadata>
  <rdf:RDF xmlns:cc="http://creativecommons.org/ns#" xmlns:dc="http://purl.org/dc/elements/1.1/" xmlns:rdf="http://www.w3.org/1999/02/22-rdf-syntax-ns#">
   <cc:Work>
    <dc:type rdf:resource="http://purl.org/dc/dcmitype/StillImage"/>
    <dc:date>2021-01-23T10:32:53.243085</dc:date>
    <dc:format>image/svg+xml</dc:format>
    <dc:creator>
     <cc:Agent>
      <dc:title>Matplotlib v3.3.3, https://matplotlib.org/</dc:title>
     </cc:Agent>
    </dc:creator>
   </cc:Work>
  </rdf:RDF>
 </metadata>
 <defs>
  <style type="text/css">*{stroke-linecap:butt;stroke-linejoin:round;}</style>
 </defs>
 <g id="figure_1">
  <g id="patch_1">
   <path d="M 0 288 
L 288 288 
L 288 0 
L 0 0 
z
" style="fill:#ffffff;"/>
  </g>
  <g id="axes_1">
   <g id="line2d_1">
    <path clip-path="url(#p8a0a5be31d)" d="M 22.909091 22.725 
L 38.296987 26.935013 
L 46.582778 28.967284 
L 53.684884 30.484173 
L 60.07678 31.626498 
L 65.995201 32.467448 
L 71.676886 33.059704 
L 77.358571 33.428245 
L 82.803519 33.564072 
L 88.248467 33.48438 
L 93.930152 33.173209 
L 99.611837 32.635865 
L 105.530259 31.848221 
L 111.685417 30.802104 
L 118.31405 29.446984 
L 125.652893 27.717658 
L 134.648894 25.359126 
L 166.371634 16.813181 
L 173.710477 15.201718 
L 180.102373 14.0175 
L 186.257531 13.10218 
L 192.175953 12.452311 
L 197.857638 12.055268 
L 203.302586 11.891437 
L 208.747534 11.943016 
L 214.192482 12.208979 
L 219.874167 12.709306 
L 225.792589 13.460815 
L 231.947747 14.472874 
L 238.57638 15.79631 
L 245.915223 17.49769 
L 254.674487 19.769537 
L 265.090909 22.658481 
L 265.090909 22.658481 
" style="fill:none;stroke:#1f77b4;stroke-linecap:square;stroke-width:1.5;"/>
   </g>
  </g>
  <g id="axes_2">
   <g id="line2d_2">
    <path clip-path="url(#p7f894bccbb)" d="M 22.909091 57.375 
L 32.378566 59.11169 
L 37.823514 59.879927 
L 42.794988 60.359964 
L 48.003199 60.629394 
L 53.921621 60.701147 
L 69.782991 60.756374 
L 74.517729 61.07987 
L 79.015729 61.616737 
L 83.51373 62.384168 
L 88.485204 63.464188 
L 96.770994 65.545252 
L 102.689416 66.929215 
L 106.713943 67.654602 
L 110.264996 68.068367 
L 113.342575 68.213191 
L 116.420155 68.131279 
L 119.260997 67.838347 
L 122.10184 67.32903 
L 124.942682 66.603277 
L 128.020261 65.581717 
L 131.334577 64.230054 
L 134.88563 62.533655 
L 139.146894 60.242248 
L 147.195948 55.58583 
L 152.640896 52.581557 
L 156.428686 50.732395 
L 159.743002 49.346091 
L 162.820581 48.288306 
L 165.89816 47.473237 
L 168.739003 46.945781 
L 171.579845 46.635001 
L 174.420688 46.534091 
L 177.498267 46.645575 
L 180.812583 46.993681 
L 184.600373 47.629759 
L 189.098374 48.620744 
L 206.380165 52.674328 
L 210.878166 53.358293 
L 215.376166 53.810008 
L 220.110904 54.055593 
L 226.029326 54.118975 
L 241.180485 54.153085 
L 246.388696 54.464246 
L 251.360171 54.986468 
L 256.805119 55.7941 
L 263.907225 57.098752 
L 265.090909 57.328898 
L 265.090909 57.328898 
" style="fill:none;stroke:#1f77b4;stroke-linecap:square;stroke-width:1.5;"/>
   </g>
  </g>
  <g id="axes_3">
   <g id="line2d_3">
    <path clip-path="url(#p37e065491f)" d="M 22.909091 92.025 
L 28.827513 92.92832 
L 32.615303 93.266955 
L 36.639829 93.389836 
L 46.346041 93.56664 
L 49.897094 93.927654 
L 54.158358 94.598295 
L 61.497201 95.778544 
L 65.048254 96.082725 
L 68.836044 96.161611 
L 78.778992 96.200696 
L 81.856572 96.520429 
L 85.407625 97.126694 
L 94.403626 98.816409 
L 97.244468 99.042122 
L 100.085311 99.044197 
L 103.873101 98.792755 
L 108.844575 98.465476 
L 111.44868 98.526341 
L 113.816049 98.810564 
L 116.183418 99.329445 
L 118.787523 100.131655 
L 125.889629 102.491395 
L 127.783524 102.806209 
L 129.440682 102.855825 
L 130.861104 102.698248 
L 132.281525 102.336317 
L 133.701946 101.759302 
L 135.122367 100.964934 
L 136.779525 99.772796 
L 138.67342 98.093312 
L 140.804052 95.876348 
L 143.881632 92.306911 
L 148.142895 87.402621 
L 150.273527 85.290484 
L 152.167422 83.732494 
L 153.82458 82.660917 
L 155.245001 81.974958 
L 156.665423 81.506312 
L 158.085844 81.248399 
L 159.743002 81.19388 
L 161.40016 81.370743 
L 163.294055 81.797875 
L 165.89816 82.639041 
L 171.816582 84.656562 
L 174.183951 85.197966 
L 176.55132 85.505705 
L 178.918688 85.590462 
L 181.996268 85.45352 
L 189.571848 84.980387 
L 192.41269 85.09235 
L 195.253532 85.42733 
L 198.804585 86.083126 
L 206.143428 87.496381 
L 209.457745 87.849304 
L 212.772061 87.971611 
L 218.453746 87.897503 
L 222.715009 87.94466 
L 226.266062 88.217299 
L 230.053852 88.748195 
L 240.470275 90.364839 
L 244.021328 90.597879 
L 248.756065 90.657136 
L 254.911224 90.745497 
L 258.699014 91.040421 
L 262.72354 91.591243 
L 265.090909 91.984729 
L 265.090909 91.984729 
" style="fill:none;stroke:#1f77b4;stroke-linecap:square;stroke-width:1.5;"/>
   </g>
  </g>
  <g id="axes_4">
   <g id="line2d_4">
    <path clip-path="url(#p8857bfd807)" d="M 22.909091 126.675 
L 26.696881 127.17794 
L 29.537723 127.297959 
L 34.982671 127.443054 
L 37.823514 127.813339 
L 42.558251 128.455679 
L 45.399094 128.554867 
L 50.370568 128.663844 
L 52.974673 128.986475 
L 58.419621 129.741405 
L 61.023727 129.813702 
L 65.995201 129.894017 
L 68.599307 130.228095 
L 73.807518 131.006424 
L 76.174887 131.082939 
L 81.856572 131.127438 
L 84.22394 131.461701 
L 89.432151 132.312258 
L 91.562783 132.37009 
L 97.717942 132.331498 
L 99.848574 132.680647 
L 104.820048 133.647356 
L 106.713943 133.706252 
L 109.081312 133.525381 
L 111.922154 133.343062 
L 113.579312 133.465177 
L 115.23647 133.80355 
L 120.681418 135.165196 
L 122.10184 135.165624 
L 123.758998 134.916546 
L 127.546788 134.177429 
L 128.730472 134.211383 
L 129.914156 134.471819 
L 131.097841 134.957771 
L 132.754999 135.907456 
L 134.88563 137.116107 
L 135.832578 137.435549 
L 136.779525 137.506287 
L 137.489736 137.35467 
L 138.199947 137.003004 
L 138.910157 136.437458 
L 139.857105 135.343497 
L 140.804052 133.876234 
L 141.987737 131.587835 
L 143.644895 127.811183 
L 146.485737 121.269708 
L 147.669421 119.073898 
L 148.616369 117.696922 
L 149.563316 116.699764 
L 150.273527 116.206518 
L 150.983738 115.923484 
L 151.693948 115.834091 
L 152.640896 115.973974 
L 153.587843 116.343395 
L 155.245001 117.295413 
L 157.375633 118.505699 
L 158.559318 118.949061 
L 159.743002 119.162704 
L 160.926686 119.155365 
L 162.583844 118.876233 
L 165.89816 118.205175 
L 167.318582 118.169449 
L 168.739003 118.348634 
L 170.632898 118.840423 
L 173.947214 119.764406 
L 175.604372 119.981574 
L 177.26153 119.985677 
L 183.653426 119.726544 
L 185.784058 120.083412 
L 190.518795 121.018502 
L 192.649427 121.127613 
L 195.963743 121.000221 
L 198.331112 121.006594 
L 200.461744 121.230945 
L 208.037323 122.317764 
L 211.35164 122.276665 
L 214.192482 122.326406 
L 216.559851 122.594903 
L 222.951746 123.505465 
L 225.792589 123.549876 
L 229.817115 123.608595 
L 232.421221 123.901805 
L 238.57638 124.736705 
L 241.653959 124.797481 
L 245.441749 124.877058 
L 248.045854 125.163334 
L 254.201013 125.978875 
L 257.278592 126.048915 
L 261.303119 126.153056 
L 264.143962 126.488775 
L 265.090909 126.637077 
L 265.090909 126.637077 
" style="fill:none;stroke:#1f77b4;stroke-linecap:square;stroke-width:1.5;"/>
   </g>
  </g>
  <g id="axes_5">
   <g id="line2d_5">
    <path clip-path="url(#pdcbc4986b0)" d="M 22.909091 161.325 
L 25.27646 161.598786 
L 30.721408 161.943143 
L 33.088776 162.204688 
L 38.060251 162.487176 
L 40.664356 162.800461 
L 46.109304 163.142861 
L 48.476673 163.408151 
L 53.448147 163.68535 
L 56.052253 164.006245 
L 61.260464 164.303672 
L 63.627833 164.605093 
L 66.231938 164.618867 
L 68.125833 164.769247 
L 71.913623 165.230977 
L 75.701413 165.345639 
L 79.72594 165.838311 
L 83.276993 165.919568 
L 87.538256 166.445332 
L 90.615836 166.460278 
L 92.509731 166.794458 
L 94.166889 167.036376 
L 95.824047 167.030217 
L 97.954679 167.004707 
L 99.3751 167.220452 
L 101.979206 167.668231 
L 103.399627 167.641578 
L 105.530259 167.565936 
L 106.95068 167.781924 
L 109.554785 168.297186 
L 110.975207 168.261014 
L 113.105838 168.114053 
L 114.289523 168.274361 
L 117.603839 168.966887 
L 118.787523 168.860466 
L 120.681418 168.636065 
L 121.628366 168.735319 
L 122.81205 169.089922 
L 124.469208 169.603195 
L 125.416156 169.660819 
L 126.59984 169.447834 
L 128.256998 169.093859 
L 129.203946 169.170214 
L 130.150893 169.516307 
L 132.281525 170.459008 
L 132.991736 170.494628 
L 133.701946 170.317636 
L 134.88563 169.719082 
L 135.832578 169.310329 
L 136.542789 169.266497 
L 137.252999 169.545664 
L 137.96321 170.137005 
L 139.857105 172.030456 
L 140.330579 172.165909 
L 140.804052 172.007866 
L 141.277526 171.498933 
L 141.751 170.606347 
L 142.46121 168.549435 
L 143.408158 164.6924 
L 145.775527 154.100565 
L 146.485737 152.043653 
L 146.959211 151.151067 
L 147.432685 150.642134 
L 147.906158 150.484091 
L 148.379632 150.619544 
L 149.089843 151.206303 
L 150.983738 153.104336 
L 151.693948 153.383503 
L 152.404159 153.339671 
L 153.351106 152.930918 
L 154.771528 152.251467 
L 155.481738 152.143144 
L 156.191949 152.248764 
L 157.138896 152.646067 
L 158.796054 153.416137 
L 159.743002 153.563396 
L 160.689949 153.448724 
L 163.057318 152.982027 
L 164.004266 153.095621 
L 165.424687 153.560078 
L 166.845108 153.957461 
L 167.792055 154.009547 
L 169.212477 153.827711 
L 170.632898 153.683113 
L 171.816582 153.810368 
L 175.367635 154.541265 
L 177.024793 154.41344 
L 178.681951 154.352814 
L 180.102373 154.581485 
L 182.469741 155.065315 
L 183.890163 155.077872 
L 186.494268 154.99821 
L 187.914689 155.223133 
L 190.282058 155.645293 
L 191.939216 155.645716 
L 194.069848 155.613624 
L 195.727006 155.855542 
L 198.094375 156.232764 
L 199.751533 156.235685 
L 201.882165 156.240021 
L 203.77606 156.527223 
L 205.906692 156.824902 
L 208.037323 156.817284 
L 209.931218 156.886904 
L 215.139429 157.430975 
L 217.506798 157.483417 
L 219.874167 157.84517 
L 221.768062 158.026058 
L 226.266062 158.229798 
L 229.343642 158.616271 
L 234.078379 158.850273 
L 236.919222 159.206547 
L 242.127433 159.507139 
L 244.494801 159.79687 
L 250.176486 160.162824 
L 252.307118 160.400724 
L 257.752066 160.743822 
L 260.119435 161.004829 
L 265.090909 161.288213 
L 265.090909 161.288213 
" style="fill:none;stroke:#1f77b4;stroke-linecap:square;stroke-width:1.5;"/>
   </g>
  </g>
  <g id="axes_6">
   <g id="line2d_6">
    <path clip-path="url(#p63fa01ab92)" d="M 22.909091 195.975 
L 24.566249 196.121203 
L 26.460144 196.22817 
L 28.354039 196.414529 
L 30.247934 196.517274 
L 32.141829 196.70787 
L 34.035724 196.806359 
L 35.929619 197.001237 
L 37.823514 197.095411 
L 39.717409 197.29464 
L 41.611304 197.384422 
L 43.741935 197.589526 
L 45.399094 197.673377 
L 47.529725 197.883229 
L 49.186883 197.962263 
L 51.317515 198.177014 
L 52.974673 198.251066 
L 55.105305 198.470898 
L 56.762463 198.539769 
L 58.893095 198.764901 
L 60.78699 198.862413 
L 62.680885 199.059045 
L 64.57478 199.150626 
L 66.468675 199.353356 
L 68.36257 199.438656 
L 70.256465 199.647866 
L 72.15036 199.726471 
L 74.044255 199.942612 
L 75.93815 200.014027 
L 77.832045 200.237638 
L 79.72594 200.301277 
L 81.619835 200.533002 
L 83.51373 200.588156 
L 85.407625 200.828772 
L 87.30152 200.874588 
L 89.432151 201.121394 
L 91.08931 201.160471 
L 93.219941 201.417835 
L 94.877099 201.445676 
L 97.007731 201.714977 
L 98.664889 201.730029 
L 100.795521 202.013006 
L 102.452679 202.013293 
L 104.583311 202.312177 
L 106.240469 202.295139 
L 108.371101 202.612856 
L 110.028259 202.575091 
L 112.158891 202.915576 
L 113.816049 202.852437 
L 116.183418 203.197899 
L 117.367102 203.09992 
L 118.31405 203.304989 
L 119.260997 203.530124 
L 120.207945 203.464591 
L 121.154892 203.369713 
L 121.865103 203.508695 
L 123.048787 203.846372 
L 123.758998 203.813274 
L 124.942682 203.631265 
L 125.652893 203.777558 
L 126.836577 204.173361 
L 127.546788 204.131395 
L 128.730472 203.878448 
L 129.440682 204.035737 
L 130.624367 204.520195 
L 131.097841 204.52063 
L 132.991736 204.169652 
L 133.701946 204.559102 
L 134.412157 204.910203 
L 134.88563 204.91017 
L 135.595841 204.563408 
L 136.306052 204.245705 
L 136.779525 204.31908 
L 137.252999 204.653636 
L 138.199947 205.425809 
L 138.67342 205.424075 
L 139.146894 205.061828 
L 140.093842 204.130961 
L 140.330579 204.097939 
L 140.567315 204.20883 
L 141.040789 204.860474 
L 141.987737 206.68266 
L 142.224473 206.815909 
L 142.46121 206.659461 
L 142.697947 206.154055 
L 143.171421 203.98798 
L 143.644895 200.408545 
L 145.065316 187.96202 
L 145.53879 185.795945 
L 145.775527 185.290539 
L 146.012263 185.134091 
L 146.249 185.26734 
L 146.722474 186.087809 
L 147.432685 187.481373 
L 147.906158 187.852061 
L 148.142895 187.819039 
L 148.616369 187.429651 
L 149.32658 186.668421 
L 149.800053 186.477187 
L 150.273527 186.655288 
L 151.693948 187.703446 
L 152.167422 187.640257 
L 153.587843 187.011199 
L 154.061317 187.121357 
L 155.481738 187.84041 
L 155.955212 187.820545 
L 157.61237 187.429805 
L 158.322581 187.691036 
L 159.269528 188.053164 
L 159.979739 188.011098 
L 161.163423 187.760612 
L 161.873634 187.896345 
L 163.294055 188.318735 
L 164.241002 188.184591 
L 165.18795 188.103628 
L 166.134897 188.36207 
L 167.081845 188.580287 
L 168.028792 188.485409 
L 168.97574 188.419876 
L 169.922687 188.645011 
L 170.869635 188.85008 
L 171.816582 188.783845 
L 172.76353 188.729663 
L 173.710477 188.929874 
L 174.657425 189.125032 
L 175.604372 189.080709 
L 176.55132 189.035265 
L 177.498267 189.216039 
L 178.681951 189.41568 
L 181.04932 189.447338 
L 182.469741 189.698885 
L 185.073847 189.790891 
L 186.257531 189.98344 
L 189.098374 190.130299 
L 190.282058 190.275124 
L 192.41269 190.321643 
L 194.069848 190.563648 
L 196.437217 190.656812 
L 197.857638 190.852511 
L 200.225007 190.946037 
L 201.645428 191.141645 
L 204.249533 191.278982 
L 205.669955 191.435366 
L 207.56385 191.486897 
L 209.694481 191.72556 
L 211.35164 191.778171 
L 213.482271 192.018212 
L 215.139429 192.069436 
L 217.270061 192.31076 
L 219.163956 192.394553 
L 221.057851 192.60322 
L 222.951746 192.684567 
L 224.845641 192.895608 
L 226.739536 192.974648 
L 228.633431 193.187934 
L 230.764063 193.300289 
L 232.421221 193.480208 
L 234.551853 193.589585 
L 236.209011 193.772438 
L 238.339643 193.878958 
L 240.233538 194.067688 
L 242.127433 194.168394 
L 244.021328 194.360662 
L 245.915223 194.457882 
L 247.809118 194.653588 
L 249.703013 194.747411 
L 251.596907 194.946478 
L 253.490802 195.036973 
L 255.621434 195.241216 
L 257.278592 195.326559 
L 259.409224 195.534557 
L 261.066382 195.61616 
L 263.197014 195.827883 
L 265.090909 195.939055 
L 265.090909 195.939055 
" style="fill:none;stroke:#1f77b4;stroke-linecap:square;stroke-width:1.5;"/>
   </g>
  </g>
  <g id="axes_7">
   <g id="line2d_7">
    <path clip-path="url(#pf45c746590)" d="M 22.909091 230.625 
L 24.092775 230.699305 
L 26.696881 230.913137 
L 27.880565 230.989374 
L 30.484671 231.201269 
L 31.668355 231.279447 
L 34.272461 231.48939 
L 35.456145 231.569528 
L 37.823514 231.744464 
L 39.480672 231.867435 
L 48.71341 232.584946 
L 50.844042 232.73523 
L 92.509731 235.917049 
L 93.456678 236.035879 
L 94.403626 236.061667 
L 95.350573 236.18053 
L 96.297521 236.206284 
L 97.007731 236.277017 
L 97.954679 236.363526 
L 98.901626 236.420406 
L 99.848574 236.509452 
L 100.795521 236.5637 
L 101.742469 236.655478 
L 102.452679 236.66123 
L 103.636364 236.801619 
L 104.346574 236.803635 
L 105.530259 236.947893 
L 106.240469 236.945839 
L 107.424154 237.094319 
L 108.134364 237.087808 
L 109.318049 237.240923 
L 110.028259 237.229505 
L 111.211943 237.387735 
L 111.922154 237.37088 
L 113.105838 237.534793 
L 113.816049 237.511873 
L 114.999733 237.682144 
L 115.709944 237.652408 
L 116.893628 237.829849 
L 117.603839 237.792386 
L 118.787523 237.977987 
L 119.497734 237.931679 
L 120.681418 238.126661 
L 121.391629 238.070114 
L 122.575313 238.276011 
L 123.285524 238.20746 
L 124.469208 238.426228 
L 125.179419 238.343389 
L 126.363103 238.577585 
L 127.073314 238.477429 
L 128.256998 238.730481 
L 128.967209 238.608874 
L 130.150893 238.885526 
L 130.861104 238.736616 
L 132.044788 239.043702 
L 132.754999 238.858811 
L 133.938683 239.206692 
L 134.648894 238.97215 
L 135.122367 239.22419 
L 135.595841 239.437784 
L 136.069315 239.23564 
L 136.542789 239.070055 
L 137.016262 239.372755 
L 137.489736 239.641587 
L 137.96321 239.374532 
L 138.436684 239.137318 
L 138.67342 239.265678 
L 139.383631 239.891771 
L 139.620368 239.780062 
L 140.093842 239.226766 
L 140.330579 239.129298 
L 140.567315 239.306839 
L 141.277526 240.277007 
L 141.514263 240.085017 
L 142.224473 238.837611 
L 142.46121 239.171611 
L 143.171421 241.465909 
L 143.408158 240.806616 
L 143.644895 238.643587 
L 144.118368 230.625 
L 144.591842 222.606413 
L 144.828579 220.443384 
L 145.065316 219.784091 
L 145.302053 220.258745 
L 145.775527 222.078389 
L 146.012263 222.412389 
L 146.249 222.192837 
L 146.722474 221.164983 
L 146.959211 220.972993 
L 147.195948 221.148361 
L 147.669421 221.943161 
L 147.906158 222.120702 
L 148.142895 222.023234 
L 148.853106 221.358229 
L 149.089843 221.466275 
L 149.800053 222.112682 
L 150.03679 222.058082 
L 150.747001 221.608413 
L 151.220475 221.877245 
L 151.693948 222.179945 
L 152.167422 222.01436 
L 152.640896 221.812216 
L 153.11437 222.02581 
L 153.587843 222.27785 
L 154.061317 222.156184 
L 154.534791 221.994702 
L 155.008264 222.172522 
L 155.481738 222.391189 
L 155.955212 222.299239 
L 156.428686 222.165649 
L 156.902159 222.318385 
L 157.375633 222.513384 
L 157.849107 222.442898 
L 158.322581 222.329651 
L 158.796054 222.463806 
L 159.269528 222.641126 
L 159.743002 222.586889 
L 160.216476 222.489152 
L 160.689949 222.608973 
L 161.163423 222.772571 
L 161.636897 222.731076 
L 162.110371 222.645569 
L 162.820581 222.845105 
L 163.294055 222.91428 
L 164.241002 222.826956 
L 165.18795 223.052723 
L 166.134897 222.977242 
L 167.081845 223.192177 
L 168.028792 223.126644 
L 168.97574 223.332407 
L 169.922687 223.275359 
L 171.106372 223.45324 
L 171.816582 223.42353 
L 173.000267 223.597781 
L 173.710477 223.571263 
L 174.894162 223.742339 
L 175.604372 223.718636 
L 176.788057 223.886909 
L 177.498267 223.865712 
L 178.681951 224.03149 
L 179.392162 224.012539 
L 180.575846 224.176079 
L 181.522794 224.20151 
L 182.469741 224.320674 
L 183.416689 224.346179 
L 184.363636 224.465275 
L 185.310584 224.490844 
L 186.257531 224.60988 
L 187.204479 224.635505 
L 188.151426 224.754489 
L 189.098374 224.780163 
L 190.045321 224.899101 
L 190.992269 224.924818 
L 191.939216 225.043716 
L 192.886164 225.06947 
L 193.833111 225.188333 
L 194.780059 225.214121 
L 195.727006 225.332951 
L 196.673954 225.358769 
L 197.620901 225.477572 
L 198.804585 225.547287 
L 199.751533 225.614948 
L 200.69848 225.691012 
L 201.645428 225.760466 
L 202.592375 225.834786 
L 203.539323 225.905939 
L 204.48627 225.978602 
L 205.433218 226.05137 
L 206.380165 226.122457 
L 207.327113 226.196765 
L 208.27406 226.266348 
L 209.221008 226.342126 
L 210.167955 226.410272 
L 211.114903 226.487455 
L 212.06185 226.554224 
L 213.008798 226.632757 
L 213.955745 226.698204 
L 214.902693 226.778033 
L 215.84964 226.842208 
L 216.796588 226.923286 
L 217.743535 226.986235 
L 218.690483 227.068517 
L 219.63743 227.130282 
L 220.584377 227.213728 
L 221.531325 227.274348 
L 222.715009 227.35655 
L 224.845641 227.507666 
L 235.972274 228.373967 
L 237.155958 228.496139 
L 265.090909 230.59063 
L 265.090909 230.59063 
" style="fill:none;stroke:#1f77b4;stroke-linecap:square;stroke-width:1.5;"/>
   </g>
  </g>
  <g id="axes_8">
   <g id="line2d_8">
    <path clip-path="url(#p8b5f239cda)" d="M 22.909091 265.275 
L 25.039723 265.448545 
L 27.407091 265.606121 
L 29.77446 265.80861 
L 31.431618 265.927437 
L 34.745934 266.170847 
L 39.007198 266.507159 
L 47.766462 267.173874 
L 49.186883 267.268857 
L 50.607305 267.389049 
L 52.027726 267.486197 
L 53.448147 267.604132 
L 54.868568 267.703627 
L 56.28899 267.819127 
L 57.709411 267.921141 
L 59.129832 268.034042 
L 60.550253 268.138731 
L 62.207411 268.253187 
L 64.57478 268.459713 
L 66.231938 268.574112 
L 68.36257 268.748194 
L 70.019728 268.864489 
L 72.387097 269.03614 
L 75.464676 269.262269 
L 76.885097 269.396312 
L 78.305519 269.478937 
L 79.72594 269.612028 
L 81.146361 269.695776 
L 82.566782 269.827569 
L 83.750467 269.894446 
L 130.624367 273.506078 
L 130.861104 273.433499 
L 132.518262 273.650334 
L 132.754999 273.565377 
L 133.465209 273.722388 
L 133.701946 273.629796 
L 134.412157 273.794372 
L 134.648894 273.692798 
L 135.359104 273.866261 
L 135.595841 273.753914 
L 136.306052 273.938014 
L 136.542789 273.812441 
L 137.252999 274.009556 
L 137.489736 273.867273 
L 137.96321 274.172187 
L 138.436684 273.916573 
L 138.910157 274.270904 
L 139.383631 273.957046 
L 139.857105 274.381124 
L 140.330579 273.982132 
L 140.804052 274.512593 
L 141.277526 273.976678 
L 141.751 274.69029 
L 142.224473 273.896187 
L 142.697947 275.002594 
L 143.171421 273.532966 
L 143.644895 276.115909 
L 143.881632 273.342395 
L 144.355105 257.207605 
L 144.591842 254.434091 
L 145.065316 257.017034 
L 145.53879 255.547406 
L 146.012263 256.653813 
L 146.485737 255.85971 
L 146.959211 256.573322 
L 147.432685 256.037407 
L 147.906158 256.567868 
L 148.379632 256.168876 
L 148.853106 256.592954 
L 149.32658 256.279096 
L 149.800053 256.633427 
L 150.273527 256.377813 
L 150.747001 256.682727 
L 151.220475 256.469607 
L 151.693948 256.737559 
L 152.167422 256.55691 
L 152.640896 256.796086 
L 153.11437 256.641137 
L 153.587843 256.857202 
L 154.061317 256.723163 
L 154.534791 256.920204 
L 155.008264 256.803561 
L 155.481738 256.984623 
L 155.955212 256.882719 
L 156.428686 257.050132 
L 156.902159 256.960911 
L 157.375633 257.116501 
L 157.849107 257.038336 
L 158.322581 257.183558 
L 158.796054 257.115141 
L 159.269528 257.251175 
L 159.743002 257.191438 
L 160.216476 257.319256 
L 160.689949 257.267311 
L 161.163423 257.387723 
L 161.636897 257.34283 
L 162.110371 257.456518 
L 162.583844 257.418046 
L 163.057318 257.525591 
L 163.530792 257.493004 
L 164.004266 257.594905 
L 164.477739 257.567738 
L 164.951213 257.664429 
L 165.424687 257.642277 
L 165.89816 257.734135 
L 166.371634 257.716644 
L 166.845108 257.804002 
L 167.318582 257.790859 
L 167.792055 257.874012 
L 168.265529 257.864939 
L 168.739003 257.94415 
L 169.212477 257.938899 
L 169.68595 258.014402 
L 170.159424 258.012749 
L 170.632898 258.084758 
L 171.106372 258.086501 
L 171.579845 258.155208 
L 172.053319 258.160164 
L 172.526793 258.225743 
L 173.000267 258.233745 
L 173.47374 258.296357 
L 173.947214 258.30725 
L 174.420688 258.367043 
L 174.894162 258.380686 
L 175.367635 258.437796 
L 175.841109 258.454058 
L 176.314583 258.50861 
L 176.788057 258.52737 
L 177.26153 258.579483 
L 177.735004 258.600626 
L 178.208478 258.650409 
L 178.681951 258.67383 
L 179.155425 258.721386 
L 179.628899 258.746985 
L 180.33911 258.781134 
L 181.759531 258.938297 
L 183.179952 258.998747 
L 184.600373 259.153117 
L 186.020794 259.216428 
L 187.441216 259.367873 
L 188.861637 259.43417 
L 190.282058 259.582573 
L 191.702479 259.651962 
L 193.122901 259.797227 
L 194.306585 259.862199 
L 196.437217 260.015039 
L 197.620901 260.130085 
L 200.69848 260.369476 
L 201.882165 260.435329 
L 210.641429 261.104553 
L 212.06185 261.227724 
L 213.482271 261.322437 
L 214.902693 261.442321 
L 216.323114 261.540293 
L 217.743535 261.65695 
L 219.163956 261.758113 
L 220.584377 261.87162 
L 222.004799 261.975888 
L 223.42522 262.086339 
L 225.082378 262.224837 
L 227.449747 262.379008 
L 229.106905 262.515958 
L 231.474274 262.701373 
L 233.841642 262.874194 
L 236.919222 263.101737 
L 238.57638 263.232665 
L 243.784591 263.64316 
L 265.090909 265.245576 
L 265.090909 265.245576 
" style="fill:none;stroke:#1f77b4;stroke-linecap:square;stroke-width:1.5;"/>
   </g>
  </g>
 </g>
 <defs>
  <clipPath id="p8a0a5be31d">
   <rect height="23.85" width="266.4" x="10.8" y="10.8"/>
  </clipPath>
  <clipPath id="p7f894bccbb">
   <rect height="23.85" width="266.4" x="10.8" y="45.45"/>
  </clipPath>
  <clipPath id="p37e065491f">
   <rect height="23.85" width="266.4" x="10.8" y="80.1"/>
  </clipPath>
  <clipPath id="p8857bfd807">
   <rect height="23.85" width="266.4" x="10.8" y="114.75"/>
  </clipPath>
  <clipPath id="pdcbc4986b0">
   <rect height="23.85" width="266.4" x="10.8" y="149.4"/>
  </clipPath>
  <clipPath id="p63fa01ab92">
   <rect height="23.85" width="266.4" x="10.8" y="184.05"/>
  </clipPath>
  <clipPath id="pf45c746590">
   <rect height="23.85" width="266.4" x="10.8" y="218.7"/>
  </clipPath>
  <clipPath id="p8b5f239cda">
   <rect height="23.85" width="266.4" x="10.8" y="253.35"/>
  </clipPath>
 </defs>
</svg>
